<svg xmlns="http://www.w3.org/2000/svg" width="21" height="20" viewBox="0 0 21 20" fill="none">
  <path d="M6.83203 1.66675V4.16675" stroke="#F97316" stroke-width="1.5" stroke-miterlimit="10" stroke-linecap="round" stroke-linejoin="round"/>
  <path d="M13.5 1.66675V4.16675" stroke="#F97316" stroke-width="1.5" stroke-miterlimit="10" stroke-linecap="round" stroke-linejoin="round"/>
  <path d="M3.08203 7.57495H17.2487" stroke="#F97316" stroke-width="1.5" stroke-miterlimit="10" stroke-linecap="round" stroke-linejoin="round"/>
  <path d="M16.1745 13.1416L13.2246 16.0916C13.1079 16.2082 12.9995 16.4249 12.9745 16.5832L12.8162 17.7082C12.7579 18.1166 13.0412 18.3999 13.4495 18.3416L14.5746 18.1833C14.7329 18.1583 14.9579 18.0499 15.0662 17.9332L18.0162 14.9833C18.5246 14.4749 18.7662 13.8833 18.0162 13.1333C17.2746 12.3916 16.6829 12.6332 16.1745 13.1416Z" stroke="#F97316" stroke-width="1.5" stroke-miterlimit="10" stroke-linecap="round" stroke-linejoin="round"/>
  <path d="M15.75 13.5667C16 14.4667 16.7 15.1667 17.6 15.4167" stroke="#F97316" stroke-width="1.5" stroke-miterlimit="10" stroke-linecap="round" stroke-linejoin="round"/>
  <path d="M10.166 18.3334H6.83268C3.91602 18.3334 2.66602 16.6667 2.66602 14.1667V7.08341C2.66602 4.58341 3.91602 2.91675 6.83268 2.91675H13.4993C16.416 2.91675 17.666 4.58341 17.666 7.08341V10.0001" stroke="#F97316" stroke-width="1.5" stroke-miterlimit="10" stroke-linecap="round" stroke-linejoin="round"/>
  <path d="M10.1621 11.4167H10.1696" stroke="#F97316" stroke-width="2" stroke-linecap="round" stroke-linejoin="round"/>
  <path d="M7.0781 11.4167H7.08559" stroke="#F97316" stroke-width="2" stroke-linecap="round" stroke-linejoin="round"/>
  <path d="M7.0781 13.9167H7.08559" stroke="#F97316" stroke-width="2" stroke-linecap="round" stroke-linejoin="round"/>
</svg>