<svg width="1283" height="689" viewBox="0 0 1283 689" fill="none" xmlns="http://www.w3.org/2000/svg">
<rect width="1283" height="699" rx="12" fill="white"/>
<path opacity="0.4" d="M655.618 261.042C654.715 261.042 653.519 261.022 652.03 261.022C648.398 261.022 645.412 258.016 645.412 254.35V247.918C645.412 247.412 645.006 247 644.505 247H633.927C628.992 247 625 251.052 625 256.018V277.568C625 282.778 629.182 287 634.341 287H650.091C655.012 287 659 282.974 659 278.004V261.942C659 261.434 658.596 261.024 658.093 261.026C657.248 261.032 656.234 261.042 655.618 261.042Z" fill="#919191"/>
<path opacity="0.4" d="M650.173 248.135C649.577 247.513 648.531 247.941 648.531 248.803V254.077C648.531 256.289 650.353 258.109 652.565 258.109C653.959 258.125 655.895 258.129 657.539 258.125C658.381 258.123 658.809 257.117 658.225 256.509C656.115 254.315 652.337 250.383 650.173 248.135Z" fill="#919191"/>
<path d="M643.874 268.971L646.316 266.527C646.898 265.947 646.898 265.005 646.316 264.423C645.734 263.841 644.792 263.841 644.21 264.423L641.768 266.863L639.326 264.423C638.744 263.841 637.8 263.841 637.218 264.423C636.636 265.005 636.636 265.947 637.218 266.527L639.662 268.971L637.218 271.413C636.636 271.995 636.636 272.937 637.218 273.517C637.51 273.809 637.89 273.955 638.272 273.955C638.654 273.955 639.034 273.809 639.326 273.517L641.768 271.077L644.21 273.517C644.5 273.809 644.882 273.955 645.264 273.955C645.644 273.955 646.026 273.809 646.316 273.517C646.898 272.937 646.898 271.995 646.316 271.413L643.874 268.971Z" fill="#919191"/>
<path d="M450.76 327V314.56H446.34V312.8H457V314.56H452.58V327H450.76ZM460.551 327H458.831V312H460.551V318.54C461.231 317.38 462.291 316.8 463.731 316.8C464.864 316.8 465.778 317.167 466.471 317.9C467.164 318.633 467.511 319.613 467.511 320.84V327H465.811V321.1C465.811 320.26 465.598 319.6 465.171 319.12C464.744 318.627 464.171 318.38 463.451 318.38C462.624 318.38 461.931 318.707 461.371 319.36C460.824 320.013 460.551 320.907 460.551 322.04V327ZM475.008 327.2C473.475 327.2 472.228 326.707 471.268 325.72C470.308 324.733 469.828 323.493 469.828 322C469.828 320.52 470.315 319.287 471.288 318.3C472.262 317.3 473.508 316.8 475.028 316.8C476.375 316.8 477.502 317.253 478.408 318.16C479.328 319.053 479.788 320.273 479.788 321.82C479.788 322.02 479.782 322.193 479.768 322.34H471.568C471.595 323.273 471.928 324.053 472.568 324.68C473.222 325.307 474.042 325.62 475.028 325.62C476.428 325.62 477.468 325.04 478.148 323.88L479.508 324.82C478.535 326.407 477.035 327.2 475.008 327.2ZM471.688 320.94H478.028C477.895 320.14 477.542 319.507 476.968 319.04C476.408 318.56 475.742 318.32 474.968 318.32C474.182 318.32 473.475 318.56 472.848 319.04C472.235 319.507 471.848 320.14 471.688 320.94ZM482.229 327V317H483.949V318.94C484.136 318.327 484.496 317.833 485.029 317.46C485.576 317.087 486.149 316.9 486.749 316.9C487.043 316.9 487.303 316.927 487.529 316.98V318.76C487.289 318.653 486.976 318.6 486.589 318.6C485.896 318.6 485.283 318.9 484.749 319.5C484.216 320.1 483.949 320.947 483.949 322.04V327H482.229ZM493.602 327.2C492.069 327.2 490.822 326.707 489.862 325.72C488.902 324.733 488.422 323.493 488.422 322C488.422 320.52 488.909 319.287 489.882 318.3C490.855 317.3 492.102 316.8 493.622 316.8C494.969 316.8 496.095 317.253 497.002 318.16C497.922 319.053 498.382 320.273 498.382 321.82C498.382 322.02 498.375 322.193 498.362 322.34H490.162C490.189 323.273 490.522 324.053 491.162 324.68C491.815 325.307 492.635 325.62 493.622 325.62C495.022 325.62 496.062 325.04 496.742 323.88L498.102 324.82C497.129 326.407 495.629 327.2 493.602 327.2ZM490.282 320.94H496.622C496.489 320.14 496.135 319.507 495.562 319.04C495.002 318.56 494.335 318.32 493.562 318.32C492.775 318.32 492.069 318.56 491.442 319.04C490.829 319.507 490.442 320.14 490.282 320.94ZM507.387 313.98C507.161 314.207 506.874 314.32 506.527 314.32C506.181 314.32 505.887 314.207 505.647 313.98C505.407 313.74 505.287 313.447 505.287 313.1C505.287 312.767 505.407 312.48 505.647 312.24C505.887 312 506.181 311.88 506.527 311.88C506.874 311.88 507.161 312 507.387 312.24C507.614 312.48 507.727 312.767 507.727 313.1C507.727 313.447 507.614 313.74 507.387 313.98ZM505.647 327V317H507.367V327H505.647ZM513.648 327.2C512.728 327.2 511.921 327.007 511.228 326.62C510.534 326.22 510.034 325.64 509.728 324.88L511.128 324.1C511.314 324.593 511.641 324.98 512.108 325.26C512.574 325.54 513.094 325.68 513.668 325.68C514.161 325.68 514.574 325.56 514.908 325.32C515.241 325.08 515.408 324.753 515.408 324.34C515.408 323.98 515.274 323.68 515.008 323.44C514.754 323.2 514.308 322.98 513.668 322.78L512.668 322.46C511.001 321.98 510.168 321.007 510.168 319.54C510.168 318.713 510.494 318.053 511.148 317.56C511.814 317.053 512.634 316.8 513.608 316.8C515.128 316.8 516.228 317.38 516.908 318.54L515.628 319.42C515.081 318.66 514.388 318.28 513.548 318.28C513.094 318.28 512.701 318.393 512.368 318.62C512.048 318.833 511.888 319.12 511.888 319.48C511.888 319.813 511.988 320.1 512.188 320.34C512.401 320.567 512.774 320.76 513.308 320.92L514.408 321.26C516.221 321.82 517.128 322.8 517.128 324.2C517.128 325.133 516.801 325.867 516.148 326.4C515.508 326.933 514.674 327.2 513.648 327.2ZM524.456 327V317H526.176V318.54C526.856 317.38 527.916 316.8 529.356 316.8C530.489 316.8 531.403 317.167 532.096 317.9C532.789 318.633 533.136 319.613 533.136 320.84V327H531.436V321.1C531.436 320.26 531.223 319.6 530.796 319.12C530.369 318.627 529.796 318.38 529.076 318.38C528.249 318.38 527.556 318.707 526.996 319.36C526.449 320.013 526.176 320.907 526.176 322.04V327H524.456ZM540.673 327.2C539.167 327.2 537.913 326.7 536.913 325.7C535.927 324.687 535.433 323.453 535.433 322C535.433 320.547 535.927 319.32 536.913 318.32C537.913 317.307 539.167 316.8 540.673 316.8C542.167 316.8 543.407 317.307 544.393 318.32C545.393 319.32 545.893 320.547 545.893 322C545.893 323.453 545.393 324.687 544.393 325.7C543.407 326.7 542.167 327.2 540.673 327.2ZM538.153 324.56C538.807 325.253 539.647 325.6 540.673 325.6C541.7 325.6 542.533 325.253 543.173 324.56C543.813 323.867 544.133 323.013 544.133 322C544.133 320.987 543.813 320.133 543.173 319.44C542.533 318.747 541.7 318.4 540.673 318.4C539.647 318.4 538.807 318.747 538.153 319.44C537.513 320.133 537.193 320.987 537.193 322C537.193 323.013 537.513 323.867 538.153 324.56ZM556.206 327.2C555.286 327.2 554.48 327.007 553.786 326.62C553.093 326.22 552.593 325.64 552.286 324.88L553.686 324.1C553.873 324.593 554.2 324.98 554.666 325.26C555.133 325.54 555.653 325.68 556.226 325.68C556.72 325.68 557.133 325.56 557.466 325.32C557.8 325.08 557.966 324.753 557.966 324.34C557.966 323.98 557.833 323.68 557.566 323.44C557.313 323.2 556.866 322.98 556.226 322.78L555.226 322.46C553.56 321.98 552.726 321.007 552.726 319.54C552.726 318.713 553.053 318.053 553.706 317.56C554.373 317.053 555.193 316.8 556.166 316.8C557.686 316.8 558.786 317.38 559.466 318.54L558.186 319.42C557.64 318.66 556.946 318.28 556.106 318.28C555.653 318.28 555.26 318.393 554.926 318.62C554.606 318.833 554.446 319.12 554.446 319.48C554.446 319.813 554.546 320.1 554.746 320.34C554.96 320.567 555.333 320.76 555.866 320.92L556.966 321.26C558.78 321.82 559.686 322.8 559.686 324.2C559.686 325.133 559.36 325.867 558.706 326.4C558.066 326.933 557.233 327.2 556.206 327.2ZM566.59 327.2C565.057 327.2 563.81 326.707 562.85 325.72C561.89 324.733 561.41 323.493 561.41 322C561.41 320.52 561.897 319.287 562.87 318.3C563.844 317.3 565.09 316.8 566.61 316.8C567.957 316.8 569.084 317.253 569.99 318.16C570.91 319.053 571.37 320.273 571.37 321.82C571.37 322.02 571.364 322.193 571.35 322.34H563.15C563.177 323.273 563.51 324.053 564.15 324.68C564.804 325.307 565.624 325.62 566.61 325.62C568.01 325.62 569.05 325.04 569.73 323.88L571.09 324.82C570.117 326.407 568.617 327.2 566.59 327.2ZM563.27 320.94H569.61C569.477 320.14 569.124 319.507 568.55 319.04C567.99 318.56 567.324 318.32 566.55 318.32C565.764 318.32 565.057 318.56 564.43 319.04C563.817 319.507 563.43 320.14 563.27 320.94ZM578.271 327.2C576.765 327.2 575.511 326.7 574.511 325.7C573.525 324.7 573.031 323.467 573.031 322C573.031 320.533 573.525 319.3 574.511 318.3C575.511 317.3 576.765 316.8 578.271 316.8C579.285 316.8 580.191 317.04 580.991 317.52C581.805 318 582.438 318.653 582.891 319.48L581.391 320.32C581.098 319.733 580.678 319.267 580.131 318.92C579.598 318.573 578.978 318.4 578.271 318.4C577.245 318.4 576.405 318.747 575.751 319.44C575.098 320.133 574.771 320.987 574.771 322C574.771 323.013 575.098 323.867 575.751 324.56C576.405 325.253 577.245 325.6 578.271 325.6C578.978 325.6 579.598 325.427 580.131 325.08C580.678 324.733 581.098 324.267 581.391 323.68L582.891 324.52C582.438 325.347 581.805 326 580.991 326.48C580.191 326.96 579.285 327.2 578.271 327.2ZM589.56 327.2C588.053 327.2 586.8 326.7 585.8 325.7C584.813 324.687 584.32 323.453 584.32 322C584.32 320.547 584.813 319.32 585.8 318.32C586.8 317.307 588.053 316.8 589.56 316.8C591.053 316.8 592.293 317.307 593.28 318.32C594.28 319.32 594.78 320.547 594.78 322C594.78 323.453 594.28 324.687 593.28 325.7C592.293 326.7 591.053 327.2 589.56 327.2ZM587.04 324.56C587.693 325.253 588.533 325.6 589.56 325.6C590.587 325.6 591.42 325.253 592.06 324.56C592.7 323.867 593.02 323.013 593.02 322C593.02 320.987 592.7 320.133 592.06 319.44C591.42 318.747 590.587 318.4 589.56 318.4C588.533 318.4 587.693 318.747 587.04 319.44C586.4 320.133 586.08 320.987 586.08 322C586.08 323.013 586.4 323.867 587.04 324.56ZM597.249 327V317H598.969V318.54C599.649 317.38 600.709 316.8 602.149 316.8C603.282 316.8 604.196 317.167 604.889 317.9C605.582 318.633 605.929 319.613 605.929 320.84V327H604.229V321.1C604.229 320.26 604.016 319.6 603.589 319.12C603.162 318.627 602.589 318.38 601.869 318.38C601.042 318.38 600.349 318.707 599.789 319.36C599.242 320.013 598.969 320.907 598.969 322.04V327H597.249ZM613.146 327.2C611.76 327.2 610.593 326.693 609.646 325.68C608.713 324.667 608.246 323.44 608.246 322C608.246 320.56 608.713 319.333 609.646 318.32C610.593 317.307 611.76 316.8 613.146 316.8C613.88 316.8 614.56 316.967 615.186 317.3C615.826 317.62 616.32 318.033 616.666 318.54V312H618.386V327H616.666V325.46C616.32 325.967 615.826 326.387 615.186 326.72C614.56 327.04 613.88 327.2 613.146 327.2ZM613.406 325.62C614.393 325.62 615.206 325.273 615.846 324.58C616.486 323.887 616.806 323.027 616.806 322C616.806 320.973 616.486 320.113 615.846 319.42C615.206 318.727 614.393 318.38 613.406 318.38C612.406 318.38 611.586 318.727 610.946 319.42C610.306 320.113 609.986 320.973 609.986 322C609.986 323.027 610.306 323.887 610.946 324.58C611.586 325.273 612.406 325.62 613.406 325.62ZM625.744 327.2C624.357 327.2 623.191 326.693 622.244 325.68C621.311 324.667 620.844 323.44 620.844 322C620.844 320.56 621.311 319.333 622.244 318.32C623.191 317.307 624.357 316.8 625.744 316.8C626.477 316.8 627.157 316.967 627.784 317.3C628.424 317.62 628.917 318.033 629.264 318.54V317H630.984V327H629.264V325.46C628.917 325.967 628.424 326.387 627.784 326.72C627.157 327.04 626.477 327.2 625.744 327.2ZM626.004 325.62C626.991 325.62 627.804 325.273 628.444 324.58C629.084 323.887 629.404 323.027 629.404 322C629.404 320.973 629.084 320.113 628.444 319.42C627.804 318.727 626.991 318.38 626.004 318.38C625.004 318.38 624.184 318.727 623.544 319.42C622.904 320.113 622.584 320.973 622.584 322C622.584 323.027 622.904 323.887 623.544 324.58C624.184 325.273 625.004 325.62 626.004 325.62ZM634.222 327V317H635.942V318.94C636.128 318.327 636.488 317.833 637.022 317.46C637.568 317.087 638.142 316.9 638.742 316.9C639.035 316.9 639.295 316.927 639.522 316.98V318.76C639.282 318.653 638.968 318.6 638.582 318.6C637.888 318.6 637.275 318.9 636.742 319.5C636.208 320.1 635.942 320.947 635.942 322.04V327H634.222ZM644.206 331.18H642.286L644.466 326.48L640.086 317H641.986L645.426 324.6L648.846 317H650.766L644.206 331.18ZM659.878 327.2C658.958 327.2 658.152 327.007 657.458 326.62C656.765 326.22 656.265 325.64 655.958 324.88L657.358 324.1C657.545 324.593 657.872 324.98 658.338 325.26C658.805 325.54 659.325 325.68 659.898 325.68C660.392 325.68 660.805 325.56 661.138 325.32C661.472 325.08 661.638 324.753 661.638 324.34C661.638 323.98 661.505 323.68 661.238 323.44C660.985 323.2 660.538 322.98 659.898 322.78L658.898 322.46C657.232 321.98 656.398 321.007 656.398 319.54C656.398 318.713 656.725 318.053 657.378 317.56C658.045 317.053 658.865 316.8 659.838 316.8C661.358 316.8 662.458 317.38 663.138 318.54L661.858 319.42C661.312 318.66 660.618 318.28 659.778 318.28C659.325 318.28 658.932 318.393 658.598 318.62C658.278 318.833 658.118 319.12 658.118 319.48C658.118 319.813 658.218 320.1 658.418 320.34C658.632 320.567 659.005 320.76 659.538 320.92L660.638 321.26C662.452 321.82 663.358 322.8 663.358 324.2C663.358 325.133 663.032 325.867 662.378 326.4C661.738 326.933 660.905 327.2 659.878 327.2ZM669.982 327.2C668.596 327.2 667.429 326.693 666.482 325.68C665.549 324.667 665.082 323.44 665.082 322C665.082 320.56 665.549 319.333 666.482 318.32C667.429 317.307 668.596 316.8 669.982 316.8C670.716 316.8 671.396 316.967 672.022 317.3C672.662 317.62 673.156 318.033 673.502 318.54V317H675.222V327H673.502V325.46C673.156 325.967 672.662 326.387 672.022 326.72C671.396 327.04 670.716 327.2 669.982 327.2ZM670.242 325.62C671.229 325.62 672.042 325.273 672.682 324.58C673.322 323.887 673.642 323.027 673.642 322C673.642 320.973 673.322 320.113 672.682 319.42C672.042 318.727 671.229 318.38 670.242 318.38C669.242 318.38 668.422 318.727 667.782 319.42C667.142 320.113 666.822 320.973 666.822 322C666.822 323.027 667.142 323.887 667.782 324.58C668.422 325.273 669.242 325.62 670.242 325.62ZM678.46 327V312H680.18V327H678.46ZM687.84 327.2C686.307 327.2 685.06 326.707 684.1 325.72C683.14 324.733 682.66 323.493 682.66 322C682.66 320.52 683.147 319.287 684.12 318.3C685.094 317.3 686.34 316.8 687.86 316.8C689.207 316.8 690.334 317.253 691.24 318.16C692.16 319.053 692.62 320.273 692.62 321.82C692.62 322.02 692.614 322.193 692.6 322.34H684.4C684.427 323.273 684.76 324.053 685.4 324.68C686.054 325.307 686.874 325.62 687.86 325.62C689.26 325.62 690.3 325.04 690.98 323.88L692.34 324.82C691.367 326.407 689.867 327.2 687.84 327.2ZM684.52 320.94H690.86C690.727 320.14 690.374 319.507 689.8 319.04C689.24 318.56 688.574 318.32 687.8 318.32C687.014 318.32 686.307 318.56 685.68 319.04C685.067 319.507 684.68 320.14 684.52 320.94ZM704.006 327.2C702.619 327.2 701.452 326.693 700.506 325.68C699.572 324.667 699.106 323.44 699.106 322C699.106 320.56 699.572 319.333 700.506 318.32C701.452 317.307 702.619 316.8 704.006 316.8C704.739 316.8 705.419 316.967 706.046 317.3C706.686 317.62 707.179 318.033 707.526 318.54V317H709.246V327H707.526V325.46C707.179 325.967 706.686 326.387 706.046 326.72C705.419 327.04 704.739 327.2 704.006 327.2ZM704.266 325.62C705.252 325.62 706.066 325.273 706.706 324.58C707.346 323.887 707.666 323.027 707.666 322C707.666 320.973 707.346 320.113 706.706 319.42C706.066 318.727 705.252 318.38 704.266 318.38C703.266 318.38 702.446 318.727 701.806 319.42C701.166 320.113 700.846 320.973 700.846 322C700.846 323.027 701.166 323.887 701.806 324.58C702.446 325.273 703.266 325.62 704.266 325.62ZM716.363 327.1C715.443 327.1 714.703 326.84 714.143 326.32C713.583 325.8 713.303 325.04 713.303 324.04V318.58H711.183V317H713.303V314.22H715.023V317H717.903V318.58H715.023V323.82C715.023 324.447 715.157 324.887 715.423 325.14C715.69 325.393 716.11 325.52 716.683 325.52C717.19 325.52 717.597 325.453 717.903 325.32V326.86C717.423 327.02 716.91 327.1 716.363 327.1ZM728.473 327.1C727.553 327.1 726.813 326.84 726.253 326.32C725.693 325.8 725.413 325.04 725.413 324.04V318.58H723.293V317H725.413V314.22H727.133V317H730.013V318.58H727.133V323.82C727.133 324.447 727.266 324.887 727.533 325.14C727.799 325.393 728.219 325.52 728.793 325.52C729.299 325.52 729.706 325.453 730.013 325.32V326.86C729.533 327.02 729.019 327.1 728.473 327.1ZM733.93 327H732.21V312H733.93V318.54C734.61 317.38 735.67 316.8 737.11 316.8C738.243 316.8 739.157 317.167 739.85 317.9C740.543 318.633 740.89 319.613 740.89 320.84V327H739.19V321.1C739.19 320.26 738.977 319.6 738.55 319.12C738.123 318.627 737.55 318.38 736.83 318.38C736.003 318.38 735.31 318.707 734.75 319.36C734.203 320.013 733.93 320.907 733.93 322.04V327ZM748.387 327.2C746.854 327.2 745.607 326.707 744.647 325.72C743.687 324.733 743.207 323.493 743.207 322C743.207 320.52 743.694 319.287 744.667 318.3C745.641 317.3 746.887 316.8 748.407 316.8C749.754 316.8 750.881 317.253 751.787 318.16C752.707 319.053 753.167 320.273 753.167 321.82C753.167 322.02 753.161 322.193 753.147 322.34H744.947C744.974 323.273 745.307 324.053 745.947 324.68C746.601 325.307 747.421 325.62 748.407 325.62C749.807 325.62 750.847 325.04 751.527 323.88L752.887 324.82C751.914 326.407 750.414 327.2 748.387 327.2ZM745.067 320.94H751.407C751.274 320.14 750.921 319.507 750.347 319.04C749.787 318.56 749.121 318.32 748.347 318.32C747.561 318.32 746.854 318.56 746.227 319.04C745.614 319.507 745.227 320.14 745.067 320.94ZM773.313 327V321.12C773.313 320.293 773.139 319.633 772.793 319.14C772.459 318.633 771.973 318.38 771.333 318.38C770.533 318.38 769.879 318.693 769.372 319.32C768.879 319.947 768.619 320.8 768.593 321.88V327H766.873V321.12C766.873 320.28 766.699 319.613 766.353 319.12C766.019 318.627 765.539 318.38 764.913 318.38C764.086 318.38 763.419 318.713 762.913 319.38C762.406 320.033 762.153 320.92 762.153 322.04V327H760.433V317H762.153V318.54C762.793 317.38 763.799 316.8 765.173 316.8C766.693 316.8 767.719 317.513 768.253 318.94C768.519 318.287 768.946 317.767 769.533 317.38C770.119 316.993 770.786 316.8 771.533 316.8C772.613 316.8 773.466 317.167 774.093 317.9C774.719 318.633 775.033 319.62 775.033 320.86V327H773.313ZM782.568 327.2C781.061 327.2 779.808 326.7 778.808 325.7C777.821 324.687 777.328 323.453 777.328 322C777.328 320.547 777.821 319.32 778.808 318.32C779.808 317.307 781.061 316.8 782.568 316.8C784.061 316.8 785.301 317.307 786.288 318.32C787.288 319.32 787.788 320.547 787.788 322C787.788 323.453 787.288 324.687 786.288 325.7C785.301 326.7 784.061 327.2 782.568 327.2ZM780.048 324.56C780.701 325.253 781.541 325.6 782.568 325.6C783.594 325.6 784.428 325.253 785.068 324.56C785.708 323.867 786.028 323.013 786.028 322C786.028 320.987 785.708 320.133 785.068 319.44C784.428 318.747 783.594 318.4 782.568 318.4C781.541 318.4 780.701 318.747 780.048 319.44C779.408 320.133 779.088 320.987 779.088 322C779.088 323.013 779.408 323.867 780.048 324.56ZM803.137 327V321.12C803.137 320.293 802.963 319.633 802.617 319.14C802.283 318.633 801.797 318.38 801.157 318.38C800.357 318.38 799.703 318.693 799.197 319.32C798.703 319.947 798.443 320.8 798.417 321.88V327H796.697V321.12C796.697 320.28 796.523 319.613 796.177 319.12C795.843 318.627 795.363 318.38 794.737 318.38C793.91 318.38 793.243 318.713 792.737 319.38C792.23 320.033 791.977 320.92 791.977 322.04V327H790.257V317H791.977V318.54C792.617 317.38 793.623 316.8 794.997 316.8C796.517 316.8 797.543 317.513 798.077 318.94C798.343 318.287 798.77 317.767 799.357 317.38C799.943 316.993 800.61 316.8 801.357 316.8C802.437 316.8 803.29 317.167 803.917 317.9C804.543 318.633 804.857 319.62 804.857 320.86V327H803.137ZM812.352 327.2C810.819 327.2 809.572 326.707 808.612 325.72C807.652 324.733 807.172 323.493 807.172 322C807.172 320.52 807.659 319.287 808.632 318.3C809.605 317.3 810.852 316.8 812.372 316.8C813.719 316.8 814.845 317.253 815.752 318.16C816.672 319.053 817.132 320.273 817.132 321.82C817.132 322.02 817.125 322.193 817.112 322.34H808.912C808.939 323.273 809.272 324.053 809.912 324.68C810.565 325.307 811.385 325.62 812.372 325.62C813.772 325.62 814.812 325.04 815.492 323.88L816.852 324.82C815.879 326.407 814.379 327.2 812.352 327.2ZM809.032 320.94H815.372C815.239 320.14 814.885 319.507 814.312 319.04C813.752 318.56 813.085 318.32 812.312 318.32C811.525 318.32 810.819 318.56 810.192 319.04C809.579 319.507 809.192 320.14 809.032 320.94ZM819.573 327V317H821.293V318.54C821.973 317.38 823.033 316.8 824.473 316.8C825.606 316.8 826.52 317.167 827.213 317.9C827.906 318.633 828.253 319.613 828.253 320.84V327H826.553V321.1C826.553 320.26 826.34 319.6 825.913 319.12C825.486 318.627 824.913 318.38 824.193 318.38C823.366 318.38 822.673 318.707 822.113 319.36C821.566 320.013 821.293 320.907 821.293 322.04V327H819.573ZM835.113 327.1C834.193 327.1 833.453 326.84 832.893 326.32C832.333 325.8 832.053 325.04 832.053 324.04V318.58H829.933V317H832.053V314.22H833.773V317H836.653V318.58H833.773V323.82C833.773 324.447 833.907 324.887 834.173 325.14C834.44 325.393 834.86 325.52 835.433 325.52C835.94 325.52 836.347 325.453 836.653 325.32V326.86C836.173 327.02 835.66 327.1 835.113 327.1Z" fill="#3D3D3D"/>
</svg>
