<svg width="1265" height="116" viewBox="0 0 1265 116" fill="none" xmlns="http://www.w3.org/2000/svg">
<g filter="url(#filter0_d_11338_75837)">
<rect x="19" y="10" width="1227" height="78" rx="20" fill="white" shape-rendering="crispEdges"/>
<rect x="927" y="23" width="162" height="52" rx="12" fill="#191919"/>
<path d="M985.388 54.192C984.481 54.192 983.665 54 982.94 53.616C982.225 53.232 981.713 52.7413 981.404 52.144L982.604 51.248C983.276 52.2827 984.215 52.8 985.42 52.8C986.028 52.8 986.529 52.6507 986.924 52.352C987.319 52.0427 987.516 51.6267 987.516 51.104C987.516 50.2293 986.972 49.5893 985.884 49.184L984.38 48.608C983.484 48.2773 982.828 47.8667 982.412 47.376C982.007 46.8747 981.804 46.24 981.804 45.472C981.804 44.5547 982.135 43.824 982.796 43.28C983.468 42.7253 984.321 42.448 985.356 42.448C986.049 42.448 986.684 42.592 987.26 42.88C987.836 43.1573 988.305 43.5307 988.668 44L987.58 44.96C986.951 44.2133 986.199 43.84 985.324 43.84C984.748 43.84 984.263 43.9893 983.868 44.288C983.473 44.576 983.276 44.9493 983.276 45.408C983.276 45.8667 983.409 46.2293 983.676 46.496C983.943 46.7627 984.38 47.008 984.988 47.232L986.364 47.76C987.239 48.0907 987.895 48.5173 988.332 49.04C988.78 49.5627 989.004 50.2293 989.004 51.04C989.004 51.9893 988.663 52.752 987.98 53.328C987.308 53.904 986.444 54.192 985.388 54.192ZM995.004 54.16C993.777 54.16 992.78 53.7653 992.012 52.976C991.244 52.1867 990.86 51.1947 990.86 50C990.86 48.816 991.249 47.8293 992.028 47.04C992.806 46.24 993.804 45.84 995.02 45.84C996.097 45.84 996.998 46.2027 997.724 46.928C998.46 47.6427 998.828 48.6187 998.828 49.856C998.828 50.016 998.822 50.1547 998.812 50.272H992.252C992.273 51.0187 992.54 51.6427 993.052 52.144C993.574 52.6453 994.23 52.896 995.02 52.896C996.14 52.896 996.972 52.432 997.516 51.504L998.604 52.256C997.825 53.5253 996.625 54.16 995.004 54.16ZM992.348 49.152H997.42C997.313 48.512 997.03 48.0053 996.572 47.632C996.124 47.248 995.59 47.056 994.972 47.056C994.342 47.056 993.777 47.248 993.276 47.632C992.785 48.0053 992.476 48.512 992.348 49.152ZM1004.58 54.16C1003.47 54.16 1002.53 53.7547 1001.78 52.944C1001.03 52.1333 1000.66 51.152 1000.66 50C1000.66 48.848 1001.03 47.8667 1001.78 47.056C1002.53 46.2453 1003.47 45.84 1004.58 45.84C1005.16 45.84 1005.71 45.9733 1006.21 46.24C1006.72 46.496 1007.12 46.8267 1007.39 47.232V46H1008.77V54H1007.39V52.768C1007.12 53.1733 1006.72 53.5093 1006.21 53.776C1005.71 54.032 1005.16 54.16 1004.58 54.16ZM1004.78 52.896C1005.57 52.896 1006.22 52.6187 1006.74 52.064C1007.25 51.5093 1007.5 50.8213 1007.5 50C1007.5 49.1787 1007.25 48.4907 1006.74 47.936C1006.22 47.3813 1005.57 47.104 1004.78 47.104C1003.98 47.104 1003.33 47.3813 1002.82 47.936C1002.3 48.4907 1002.05 49.1787 1002.05 50C1002.05 50.8213 1002.3 51.5093 1002.82 52.064C1003.33 52.6187 1003.98 52.896 1004.78 52.896ZM1011.86 54V46H1013.23V47.552C1013.38 47.0613 1013.67 46.6667 1014.1 46.368C1014.54 46.0693 1014.99 45.92 1015.47 45.92C1015.71 45.92 1015.92 45.9413 1016.1 45.984V47.408C1015.91 47.3227 1015.66 47.28 1015.35 47.28C1014.79 47.28 1014.3 47.52 1013.87 48C1013.45 48.48 1013.23 49.1573 1013.23 50.032V54H1011.86ZM1021.5 54.16C1020.3 54.16 1019.3 53.76 1018.5 52.96C1017.71 52.16 1017.31 51.1733 1017.31 50C1017.31 48.8267 1017.71 47.84 1018.5 47.04C1019.3 46.24 1020.3 45.84 1021.5 45.84C1022.32 45.84 1023.04 46.032 1023.68 46.416C1024.33 46.8 1024.84 47.3227 1025.2 47.984L1024 48.656C1023.77 48.1867 1023.43 47.8133 1022.99 47.536C1022.57 47.2587 1022.07 47.12 1021.5 47.12C1020.68 47.12 1020.01 47.3973 1019.49 47.952C1018.97 48.5067 1018.7 49.1893 1018.7 50C1018.7 50.8107 1018.97 51.4933 1019.49 52.048C1020.01 52.6027 1020.68 52.88 1021.5 52.88C1022.07 52.88 1022.57 52.7413 1022.99 52.464C1023.43 52.1867 1023.77 51.8133 1024 51.344L1025.2 52.016C1024.84 52.6773 1024.33 53.2 1023.68 53.584C1023.04 53.968 1022.32 54.16 1021.5 54.16ZM1028.86 54H1027.48V42H1028.86V47.232C1029.4 46.304 1030.25 45.84 1031.4 45.84C1032.31 45.84 1033.04 46.1333 1033.6 46.72C1034.15 47.3067 1034.43 48.0907 1034.43 49.072V54H1033.07V49.28C1033.07 48.608 1032.9 48.08 1032.56 47.696C1032.21 47.3013 1031.76 47.104 1031.18 47.104C1030.52 47.104 1029.96 47.3653 1029.52 47.888C1029.08 48.4107 1028.86 49.1253 1028.86 50.032V54Z" fill="white"/>
<path d="M53.3425 56.7746C57.2854 56.7746 60.4819 53.201 60.4819 48.7926C60.4819 44.3842 57.2854 40.8105 53.3425 40.8105C49.3995 40.8105 46.2031 44.3842 46.2031 48.7926C46.2031 53.201 49.3995 56.7746 53.3425 56.7746Z" stroke="#191919" stroke-width="1.33203" stroke-linecap="round" stroke-linejoin="round"/>
<path d="M58.3125 54.7588L61.1115 57.8801" stroke="#191919" stroke-width="1.33203" stroke-linecap="round" stroke-linejoin="round"/>
<path d="M82.275 54.18C81.425 54.18 80.66 54 79.98 53.64C79.31 53.28 78.83 52.82 78.54 52.26L79.665 51.42C80.295 52.39 81.175 52.875 82.305 52.875C82.875 52.875 83.345 52.735 83.715 52.455C84.085 52.165 84.27 51.775 84.27 51.285C84.27 50.465 83.76 49.865 82.74 49.485L81.33 48.945C80.49 48.635 79.875 48.25 79.485 47.79C79.105 47.32 78.915 46.725 78.915 46.005C78.915 45.145 79.225 44.46 79.845 43.95C80.475 43.43 81.275 43.17 82.245 43.17C82.895 43.17 83.49 43.305 84.03 43.575C84.57 43.835 85.01 44.185 85.35 44.625L84.33 45.525C83.74 44.825 83.035 44.475 82.215 44.475C81.675 44.475 81.22 44.615 80.85 44.895C80.48 45.165 80.295 45.515 80.295 45.945C80.295 46.375 80.42 46.715 80.67 46.965C80.92 47.215 81.33 47.445 81.9 47.655L83.19 48.15C84.01 48.46 84.625 48.86 85.035 49.35C85.455 49.84 85.665 50.465 85.665 51.225C85.665 52.115 85.345 52.83 84.705 53.37C84.075 53.91 83.265 54.18 82.275 54.18ZM90.8207 54.15C89.6707 54.15 88.7357 53.78 88.0157 53.04C87.2957 52.3 86.9357 51.37 86.9357 50.25C86.9357 49.14 87.3007 48.215 88.0307 47.475C88.7607 46.725 89.6957 46.35 90.8357 46.35C91.8457 46.35 92.6907 46.69 93.3707 47.37C94.0607 48.04 94.4057 48.955 94.4057 50.115C94.4057 50.265 94.4007 50.395 94.3907 50.505H88.2407C88.2607 51.205 88.5107 51.79 88.9907 52.26C89.4807 52.73 90.0957 52.965 90.8357 52.965C91.8857 52.965 92.6657 52.53 93.1757 51.66L94.1957 52.365C93.4657 53.555 92.3407 54.15 90.8207 54.15ZM88.3307 49.455H93.0857C92.9857 48.855 92.7207 48.38 92.2907 48.03C91.8707 47.67 91.3707 47.49 90.7907 47.49C90.2007 47.49 89.6707 47.67 89.2007 48.03C88.7407 48.38 88.4507 48.855 88.3307 49.455ZM99.3265 54.15C98.2865 54.15 97.4115 53.77 96.7015 53.01C96.0015 52.25 95.6515 51.33 95.6515 50.25C95.6515 49.17 96.0015 48.25 96.7015 47.49C97.4115 46.73 98.2865 46.35 99.3265 46.35C99.8765 46.35 100.386 46.475 100.856 46.725C101.336 46.965 101.706 47.275 101.966 47.655V46.5H103.256V54H101.966V52.845C101.706 53.225 101.336 53.54 100.856 53.79C100.386 54.03 99.8765 54.15 99.3265 54.15ZM99.5215 52.965C100.261 52.965 100.871 52.705 101.351 52.185C101.831 51.665 102.071 51.02 102.071 50.25C102.071 49.48 101.831 48.835 101.351 48.315C100.871 47.795 100.261 47.535 99.5215 47.535C98.7715 47.535 98.1565 47.795 97.6765 48.315C97.1965 48.835 96.9565 49.48 96.9565 50.25C96.9565 51.02 97.1965 51.665 97.6765 52.185C98.1565 52.705 98.7715 52.965 99.5215 52.965ZM105.685 54V46.5H106.975V47.955C107.115 47.495 107.385 47.125 107.785 46.845C108.195 46.565 108.625 46.425 109.075 46.425C109.295 46.425 109.49 46.445 109.66 46.485V47.82C109.48 47.74 109.245 47.7 108.955 47.7C108.435 47.7 107.975 47.925 107.575 48.375C107.175 48.825 106.975 49.46 106.975 50.28V54H105.685ZM114.259 54.15C113.129 54.15 112.189 53.775 111.439 53.025C110.699 52.275 110.329 51.35 110.329 50.25C110.329 49.15 110.699 48.225 111.439 47.475C112.189 46.725 113.129 46.35 114.259 46.35C115.019 46.35 115.699 46.53 116.299 46.89C116.909 47.25 117.384 47.74 117.724 48.36L116.599 48.99C116.379 48.55 116.064 48.2 115.654 47.94C115.254 47.68 114.789 47.55 114.259 47.55C113.489 47.55 112.859 47.81 112.369 48.33C111.879 48.85 111.634 49.49 111.634 50.25C111.634 51.01 111.879 51.65 112.369 52.17C112.859 52.69 113.489 52.95 114.259 52.95C114.789 52.95 115.254 52.82 115.654 52.56C116.064 52.3 116.379 51.95 116.599 51.51L117.724 52.14C117.384 52.76 116.909 53.25 116.299 53.61C115.699 53.97 115.019 54.15 114.259 54.15ZM120.686 54H119.396V42.75H120.686V47.655C121.196 46.785 121.991 46.35 123.071 46.35C123.921 46.35 124.606 46.625 125.126 47.175C125.646 47.725 125.906 48.46 125.906 49.38V54H124.631V49.575C124.631 48.945 124.471 48.45 124.151 48.09C123.831 47.72 123.401 47.535 122.861 47.535C122.241 47.535 121.721 47.78 121.301 48.27C120.891 48.76 120.686 49.43 120.686 50.28V54ZM135.777 54.15C135.227 54.15 134.712 54.03 134.232 53.79C133.762 53.54 133.397 53.225 133.137 52.845V54H131.847V42.75H133.137V47.655C133.397 47.275 133.762 46.965 134.232 46.725C134.712 46.475 135.227 46.35 135.777 46.35C136.817 46.35 137.687 46.73 138.387 47.49C139.097 48.25 139.452 49.17 139.452 50.25C139.452 51.33 139.097 52.25 138.387 53.01C137.687 53.77 136.817 54.15 135.777 54.15ZM133.752 52.185C134.232 52.705 134.842 52.965 135.582 52.965C136.322 52.965 136.932 52.705 137.412 52.185C137.892 51.665 138.132 51.02 138.132 50.25C138.132 49.48 137.892 48.835 137.412 48.315C136.932 47.795 136.322 47.535 135.582 47.535C134.842 47.535 134.232 47.795 133.752 48.315C133.272 48.835 133.032 49.48 133.032 50.25C133.032 51.02 133.272 51.665 133.752 52.185ZM143.144 57.135H141.704L143.339 53.61L140.054 46.5H141.479L144.059 52.2L146.624 46.5H148.064L143.144 57.135ZM152.633 54V42.75H153.923V54H152.633ZM159.698 54.15C158.568 54.15 157.628 53.775 156.878 53.025C156.138 52.265 155.768 51.34 155.768 50.25C155.768 49.16 156.138 48.24 156.878 47.49C157.628 46.73 158.568 46.35 159.698 46.35C160.818 46.35 161.748 46.73 162.488 47.49C163.238 48.24 163.613 49.16 163.613 50.25C163.613 51.34 163.238 52.265 162.488 53.025C161.748 53.775 160.818 54.15 159.698 54.15ZM157.808 52.17C158.298 52.69 158.928 52.95 159.698 52.95C160.468 52.95 161.093 52.69 161.573 52.17C162.053 51.65 162.293 51.01 162.293 50.25C162.293 49.49 162.053 48.85 161.573 48.33C161.093 47.81 160.468 47.55 159.698 47.55C158.928 47.55 158.298 47.81 157.808 48.33C157.328 48.85 157.088 49.49 157.088 50.25C157.088 51.01 157.328 51.65 157.808 52.17ZM168.81 54.15C167.68 54.15 166.74 53.775 165.99 53.025C165.25 52.275 164.88 51.35 164.88 50.25C164.88 49.15 165.25 48.225 165.99 47.475C166.74 46.725 167.68 46.35 168.81 46.35C169.57 46.35 170.25 46.53 170.85 46.89C171.46 47.25 171.935 47.74 172.275 48.36L171.15 48.99C170.93 48.55 170.615 48.2 170.205 47.94C169.805 47.68 169.34 47.55 168.81 47.55C168.04 47.55 167.41 47.81 166.92 48.33C166.43 48.85 166.185 49.49 166.185 50.25C166.185 51.01 166.43 51.65 166.92 52.17C167.41 52.69 168.04 52.95 168.81 52.95C169.34 52.95 169.805 52.82 170.205 52.56C170.615 52.3 170.93 51.95 171.15 51.51L172.275 52.14C171.935 52.76 171.46 53.25 170.85 53.61C170.25 53.97 169.57 54.15 168.81 54.15ZM177.036 54.15C175.996 54.15 175.121 53.77 174.411 53.01C173.711 52.25 173.361 51.33 173.361 50.25C173.361 49.17 173.711 48.25 174.411 47.49C175.121 46.73 175.996 46.35 177.036 46.35C177.586 46.35 178.096 46.475 178.566 46.725C179.046 46.965 179.416 47.275 179.676 47.655V46.5H180.966V54H179.676V52.845C179.416 53.225 179.046 53.54 178.566 53.79C178.096 54.03 177.586 54.15 177.036 54.15ZM177.231 52.965C177.971 52.965 178.581 52.705 179.061 52.185C179.541 51.665 179.781 51.02 179.781 50.25C179.781 49.48 179.541 48.835 179.061 48.315C178.581 47.795 177.971 47.535 177.231 47.535C176.481 47.535 175.866 47.795 175.386 48.315C174.906 48.835 174.666 49.48 174.666 50.25C174.666 51.02 174.906 51.665 175.386 52.185C175.866 52.705 176.481 52.965 177.231 52.965ZM186.305 54.075C185.615 54.075 185.06 53.88 184.64 53.49C184.22 53.1 184.01 52.53 184.01 51.78V47.685H182.42V46.5H184.01V44.415H185.3V46.5H187.46V47.685H185.3V51.615C185.3 52.085 185.4 52.415 185.6 52.605C185.8 52.795 186.115 52.89 186.545 52.89C186.925 52.89 187.23 52.84 187.46 52.74V53.895C187.1 54.015 186.715 54.075 186.305 54.075ZM190.413 44.235C190.243 44.405 190.028 44.49 189.768 44.49C189.508 44.49 189.288 44.405 189.108 44.235C188.928 44.055 188.838 43.835 188.838 43.575C188.838 43.325 188.928 43.11 189.108 42.93C189.288 42.75 189.508 42.66 189.768 42.66C190.028 42.66 190.243 42.75 190.413 42.93C190.583 43.11 190.668 43.325 190.668 43.575C190.668 43.835 190.583 44.055 190.413 44.235ZM189.108 54V46.5H190.398V54H189.108ZM196.173 54.15C195.043 54.15 194.103 53.775 193.353 53.025C192.613 52.265 192.243 51.34 192.243 50.25C192.243 49.16 192.613 48.24 193.353 47.49C194.103 46.73 195.043 46.35 196.173 46.35C197.293 46.35 198.223 46.73 198.963 47.49C199.713 48.24 200.088 49.16 200.088 50.25C200.088 51.34 199.713 52.265 198.963 53.025C198.223 53.775 197.293 54.15 196.173 54.15ZM194.283 52.17C194.773 52.69 195.403 52.95 196.173 52.95C196.943 52.95 197.568 52.69 198.048 52.17C198.528 51.65 198.768 51.01 198.768 50.25C198.768 49.49 198.528 48.85 198.048 48.33C197.568 47.81 196.943 47.55 196.173 47.55C195.403 47.55 194.773 47.81 194.283 48.33C193.803 48.85 193.563 49.49 193.563 50.25C193.563 51.01 193.803 51.65 194.283 52.17ZM201.94 54V46.5H203.23V47.655C203.74 46.785 204.535 46.35 205.615 46.35C206.465 46.35 207.15 46.625 207.67 47.175C208.19 47.725 208.45 48.46 208.45 49.38V54H207.175V49.575C207.175 48.945 207.015 48.45 206.695 48.09C206.375 47.72 205.945 47.535 205.405 47.535C204.785 47.535 204.265 47.78 203.845 48.27C203.435 48.76 203.23 49.43 203.23 50.28V54H201.94Z" fill="#6B7B8A" fill-opacity="0.7"/>
<path d="M304.669 46.666L300.003 51.3327L295.336 46.666" stroke="#131313" stroke-width="1.66667" stroke-linecap="round" stroke-linejoin="round"/>
<path d="M243.331 45.602C243.92 46.1567 244.215 46.8587 244.215 47.708C244.215 48.5573 243.92 49.2593 243.331 49.814C242.75 50.36 241.988 50.633 241.043 50.633H239.431V54H238.222V44.77H241.043C241.988 44.77 242.75 45.0473 243.331 45.602ZM242.486 49.008C242.841 48.67 243.019 48.2367 243.019 47.708C243.019 47.1793 242.841 46.746 242.486 46.408C242.139 46.07 241.658 45.901 241.043 45.901H239.431V49.515H241.043C241.658 49.515 242.139 49.346 242.486 49.008ZM245.581 54V47.5H246.699V48.761C246.821 48.3623 247.055 48.0417 247.401 47.799C247.757 47.5563 248.129 47.435 248.519 47.435C248.71 47.435 248.879 47.4523 249.026 47.487V48.644C248.87 48.5747 248.667 48.54 248.415 48.54C247.965 48.54 247.566 48.735 247.219 49.125C246.873 49.515 246.699 50.0653 246.699 50.776V54H245.581ZM251.473 45.537C251.326 45.6843 251.139 45.758 250.914 45.758C250.689 45.758 250.498 45.6843 250.342 45.537C250.186 45.381 250.108 45.1903 250.108 44.965C250.108 44.7483 250.186 44.562 250.342 44.406C250.498 44.25 250.689 44.172 250.914 44.172C251.139 44.172 251.326 44.25 251.473 44.406C251.62 44.562 251.694 44.7483 251.694 44.965C251.694 45.1903 251.62 45.381 251.473 45.537ZM250.342 54V47.5H251.46V54H250.342ZM256.478 54.13C255.499 54.13 254.684 53.805 254.034 53.155C253.393 52.505 253.072 51.7033 253.072 50.75C253.072 49.7967 253.393 48.995 254.034 48.345C254.684 47.695 255.499 47.37 256.478 47.37C257.137 47.37 257.726 47.526 258.246 47.838C258.775 48.15 259.187 48.5747 259.481 49.112L258.506 49.658C258.316 49.2767 258.043 48.9733 257.687 48.748C257.341 48.5227 256.938 48.41 256.478 48.41C255.811 48.41 255.265 48.6353 254.84 49.086C254.416 49.5367 254.203 50.0913 254.203 50.75C254.203 51.4087 254.416 51.9633 254.84 52.414C255.265 52.8647 255.811 53.09 256.478 53.09C256.938 53.09 257.341 52.9773 257.687 52.752C258.043 52.5267 258.316 52.2233 258.506 51.842L259.481 52.388C259.187 52.9253 258.775 53.35 258.246 53.662C257.726 53.974 257.137 54.13 256.478 54.13ZM263.79 54.13C262.793 54.13 261.983 53.8093 261.359 53.168C260.735 52.5267 260.423 51.7207 260.423 50.75C260.423 49.788 260.739 48.9863 261.372 48.345C262.005 47.695 262.815 47.37 263.803 47.37C264.678 47.37 265.411 47.6647 266 48.254C266.598 48.8347 266.897 49.6277 266.897 50.633C266.897 50.763 266.893 50.8757 266.884 50.971H261.554C261.571 51.5777 261.788 52.0847 262.204 52.492C262.629 52.8993 263.162 53.103 263.803 53.103C264.713 53.103 265.389 52.726 265.831 51.972L266.715 52.583C266.082 53.6143 265.107 54.13 263.79 54.13ZM261.632 50.061H265.753C265.666 49.541 265.437 49.1293 265.064 48.826C264.7 48.514 264.267 48.358 263.764 48.358C263.253 48.358 262.793 48.514 262.386 48.826C261.987 49.1293 261.736 49.541 261.632 50.061Z" fill="black"/>
<path d="M333.331 45.602C333.92 46.1567 334.215 46.8587 334.215 47.708C334.215 48.5573 333.92 49.2593 333.331 49.814C332.75 50.36 331.988 50.633 331.043 50.633H329.431V54H328.222V44.77H331.043C331.988 44.77 332.75 45.0473 333.331 45.602ZM332.486 49.008C332.841 48.67 333.019 48.2367 333.019 47.708C333.019 47.1793 332.841 46.746 332.486 46.408C332.139 46.07 331.658 45.901 331.043 45.901H329.431V49.515H331.043C331.658 49.515 332.139 49.346 332.486 49.008ZM335.581 54V47.5H336.699V48.761C336.821 48.3623 337.055 48.0417 337.401 47.799C337.757 47.5563 338.129 47.435 338.519 47.435C338.71 47.435 338.879 47.4523 339.026 47.487V48.644C338.87 48.5747 338.667 48.54 338.415 48.54C337.965 48.54 337.566 48.735 337.219 49.125C336.873 49.515 336.699 50.0653 336.699 50.776V54H335.581ZM343 54.13C342.02 54.13 341.206 53.805 340.556 53.155C339.914 52.4963 339.594 51.6947 339.594 50.75C339.594 49.8053 339.914 49.008 340.556 48.358C341.206 47.6993 342.02 47.37 343 47.37C343.97 47.37 344.776 47.6993 345.418 48.358C346.068 49.008 346.393 49.8053 346.393 50.75C346.393 51.6947 346.068 52.4963 345.418 53.155C344.776 53.805 343.97 54.13 343 54.13ZM341.362 52.414C341.786 52.8647 342.332 53.09 343 53.09C343.667 53.09 344.209 52.8647 344.625 52.414C345.041 51.9633 345.249 51.4087 345.249 50.75C345.249 50.0913 345.041 49.5367 344.625 49.086C344.209 48.6353 343.667 48.41 343 48.41C342.332 48.41 341.786 48.6353 341.362 49.086C340.946 49.5367 340.738 50.0913 340.738 50.75C340.738 51.4087 340.946 51.9633 341.362 52.414ZM349.219 47.5V54.858C349.219 55.508 349.037 56.002 348.673 56.34C348.309 56.678 347.837 56.847 347.256 56.847C347.057 56.847 346.879 56.834 346.723 56.808V55.807C346.862 55.8243 346.988 55.833 347.1 55.833C347.768 55.833 348.101 55.4647 348.101 54.728V47.5H349.219ZM349.232 45.537C349.085 45.6843 348.899 45.758 348.673 45.758C348.448 45.758 348.257 45.6843 348.101 45.537C347.945 45.381 347.867 45.1903 347.867 44.965C347.867 44.7483 347.945 44.562 348.101 44.406C348.257 44.25 348.448 44.172 348.673 44.172C348.899 44.172 349.085 44.25 349.232 44.406C349.38 44.562 349.453 44.7483 349.453 44.965C349.453 45.1903 349.38 45.381 349.232 45.537ZM354.196 54.13C353.2 54.13 352.389 53.8093 351.765 53.168C351.141 52.5267 350.829 51.7207 350.829 50.75C350.829 49.788 351.146 48.9863 351.778 48.345C352.411 47.695 353.221 47.37 354.209 47.37C355.085 47.37 355.817 47.6647 356.406 48.254C357.004 48.8347 357.303 49.6277 357.303 50.633C357.303 50.763 357.299 50.8757 357.29 50.971H351.96C351.978 51.5777 352.194 52.0847 352.61 52.492C353.035 52.8993 353.568 53.103 354.209 53.103C355.119 53.103 355.795 52.726 356.237 51.972L357.121 52.583C356.489 53.6143 355.514 54.13 354.196 54.13ZM352.038 50.061H356.159C356.073 49.541 355.843 49.1293 355.47 48.826C355.106 48.514 354.673 48.358 354.17 48.358C353.659 48.358 353.2 48.514 352.792 48.826C352.394 49.1293 352.142 49.541 352.038 50.061ZM361.789 54.13C360.81 54.13 359.995 53.805 359.345 53.155C358.704 52.505 358.383 51.7033 358.383 50.75C358.383 49.7967 358.704 48.995 359.345 48.345C359.995 47.695 360.81 47.37 361.789 47.37C362.448 47.37 363.037 47.526 363.557 47.838C364.086 48.15 364.497 48.5747 364.792 49.112L363.817 49.658C363.626 49.2767 363.353 48.9733 362.998 48.748C362.651 48.5227 362.248 48.41 361.789 48.41C361.122 48.41 360.576 48.6353 360.151 49.086C359.726 49.5367 359.514 50.0913 359.514 50.75C359.514 51.4087 359.726 51.9633 360.151 52.414C360.576 52.8647 361.122 53.09 361.789 53.09C362.248 53.09 362.651 52.9773 362.998 52.752C363.353 52.5267 363.626 52.2233 363.817 51.842L364.792 52.388C364.497 52.9253 364.086 53.35 363.557 53.662C363.037 53.974 362.448 54.13 361.789 54.13ZM368.763 54.065C368.165 54.065 367.684 53.896 367.32 53.558C366.956 53.22 366.774 52.726 366.774 52.076V48.527H365.396V47.5H366.774V45.693H367.892V47.5H369.764V48.527H367.892V51.933C367.892 52.3403 367.978 52.6263 368.152 52.791C368.325 52.9557 368.598 53.038 368.971 53.038C369.3 53.038 369.564 52.9947 369.764 52.908V53.909C369.452 54.013 369.118 54.065 368.763 54.065ZM376.29 54.13C375.692 54.13 375.168 54.0043 374.717 53.753C374.267 53.493 373.942 53.116 373.742 52.622L374.652 52.115C374.774 52.4357 374.986 52.687 375.289 52.869C375.593 53.051 375.931 53.142 376.303 53.142C376.624 53.142 376.893 53.064 377.109 52.908C377.326 52.752 377.434 52.5397 377.434 52.271C377.434 52.037 377.348 51.842 377.174 51.686C377.01 51.53 376.719 51.387 376.303 51.257L375.653 51.049C374.57 50.737 374.028 50.1043 374.028 49.151C374.028 48.6137 374.241 48.1847 374.665 47.864C375.099 47.5347 375.632 47.37 376.264 47.37C377.252 47.37 377.967 47.747 378.409 48.501L377.577 49.073C377.222 48.579 376.771 48.332 376.225 48.332C375.931 48.332 375.675 48.4057 375.458 48.553C375.25 48.6917 375.146 48.878 375.146 49.112C375.146 49.3287 375.211 49.515 375.341 49.671C375.48 49.8183 375.723 49.944 376.069 50.048L376.784 50.269C377.963 50.633 378.552 51.27 378.552 52.18C378.552 52.7867 378.34 53.2633 377.915 53.61C377.499 53.9567 376.958 54.13 376.29 54.13ZM382.638 54.065C382.04 54.065 381.559 53.896 381.195 53.558C380.831 53.22 380.649 52.726 380.649 52.076V48.527H379.271V47.5H380.649V45.693H381.767V47.5H383.639V48.527H381.767V51.933C381.767 52.3403 381.854 52.6263 382.027 52.791C382.201 52.9557 382.474 53.038 382.846 53.038C383.176 53.038 383.44 52.9947 383.639 52.908V53.909C383.327 54.013 382.994 54.065 382.638 54.065ZM387.657 54.13C386.755 54.13 385.997 53.8007 385.382 53.142C384.775 52.4833 384.472 51.686 384.472 50.75C384.472 49.814 384.775 49.0167 385.382 48.358C385.997 47.6993 386.755 47.37 387.657 47.37C388.133 47.37 388.575 47.4783 388.983 47.695C389.399 47.903 389.719 48.1717 389.945 48.501V47.5H391.063V54H389.945V52.999C389.719 53.3283 389.399 53.6013 388.983 53.818C388.575 54.026 388.133 54.13 387.657 54.13ZM387.826 53.103C388.467 53.103 388.996 52.8777 389.412 52.427C389.828 51.9763 390.036 51.4173 390.036 50.75C390.036 50.0827 389.828 49.5237 389.412 49.073C388.996 48.6223 388.467 48.397 387.826 48.397C387.176 48.397 386.643 48.6223 386.227 49.073C385.811 49.5237 385.603 50.0827 385.603 50.75C385.603 51.4173 385.811 51.9763 386.227 52.427C386.643 52.8777 387.176 53.103 387.826 53.103ZM395.689 54.065C395.091 54.065 394.61 53.896 394.246 53.558C393.882 53.22 393.7 52.726 393.7 52.076V48.527H392.322V47.5H393.7V45.693H394.818V47.5H396.69V48.527H394.818V51.933C394.818 52.3403 394.905 52.6263 395.078 52.791C395.252 52.9557 395.525 53.038 395.897 53.038C396.227 53.038 396.491 52.9947 396.69 52.908V53.909C396.378 54.013 396.045 54.065 395.689 54.065ZM400.419 54.13C399.709 54.13 399.132 53.8917 398.69 53.415C398.248 52.9297 398.027 52.2883 398.027 51.491V47.5H399.145V51.322C399.145 51.868 399.275 52.3013 399.535 52.622C399.804 52.9427 400.164 53.103 400.614 53.103C401.134 53.103 401.563 52.8907 401.901 52.466C402.248 52.0327 402.421 51.452 402.421 50.724V47.5H403.539V54H402.421V52.999C401.997 53.753 401.329 54.13 400.419 54.13ZM407.61 54.13C407.012 54.13 406.487 54.0043 406.037 53.753C405.586 53.493 405.261 53.116 405.062 52.622L405.972 52.115C406.093 52.4357 406.305 52.687 406.609 52.869C406.912 53.051 407.25 53.142 407.623 53.142C407.943 53.142 408.212 53.064 408.429 52.908C408.645 52.752 408.754 52.5397 408.754 52.271C408.754 52.037 408.667 51.842 408.494 51.686C408.329 51.53 408.039 51.387 407.623 51.257L406.973 51.049C405.889 50.737 405.348 50.1043 405.348 49.151C405.348 48.6137 405.56 48.1847 405.985 47.864C406.418 47.5347 406.951 47.37 407.584 47.37C408.572 47.37 409.287 47.747 409.729 48.501L408.897 49.073C408.541 48.579 408.091 48.332 407.545 48.332C407.25 48.332 406.994 48.4057 406.778 48.553C406.57 48.6917 406.466 48.878 406.466 49.112C406.466 49.3287 406.531 49.515 406.661 49.671C406.799 49.8183 407.042 49.944 407.389 50.048L408.104 50.269C409.282 50.633 409.872 51.27 409.872 52.18C409.872 52.7867 409.659 53.2633 409.235 53.61C408.819 53.9567 408.277 54.13 407.61 54.13Z" fill="black"/>
<path d="M445.669 47.166L441.003 51.8327L436.336 47.166" stroke="#131313" stroke-width="1.66667" stroke-linecap="round" stroke-linejoin="round"/>
<path d="M483.331 45.602C483.92 46.1567 484.215 46.8587 484.215 47.708C484.215 48.5573 483.92 49.2593 483.331 49.814C482.75 50.36 481.988 50.633 481.043 50.633H479.431V54H478.222V44.77H481.043C481.988 44.77 482.75 45.0473 483.331 45.602ZM482.486 49.008C482.841 48.67 483.019 48.2367 483.019 47.708C483.019 47.1793 482.841 46.746 482.486 46.408C482.139 46.07 481.658 45.901 481.043 45.901H479.431V49.515H481.043C481.658 49.515 482.139 49.346 482.486 49.008ZM485.581 54V47.5H486.699V48.761C486.821 48.3623 487.055 48.0417 487.401 47.799C487.757 47.5563 488.129 47.435 488.519 47.435C488.71 47.435 488.879 47.4523 489.026 47.487V48.644C488.87 48.5747 488.667 48.54 488.415 48.54C487.965 48.54 487.566 48.735 487.219 49.125C486.873 49.515 486.699 50.0653 486.699 50.776V54H485.581ZM493 54.13C492.02 54.13 491.206 53.805 490.556 53.155C489.914 52.4963 489.594 51.6947 489.594 50.75C489.594 49.8053 489.914 49.008 490.556 48.358C491.206 47.6993 492.02 47.37 493 47.37C493.97 47.37 494.776 47.6993 495.418 48.358C496.068 49.008 496.393 49.8053 496.393 50.75C496.393 51.6947 496.068 52.4963 495.418 53.155C494.776 53.805 493.97 54.13 493 54.13ZM491.362 52.414C491.786 52.8647 492.332 53.09 493 53.09C493.667 53.09 494.209 52.8647 494.625 52.414C495.041 51.9633 495.249 51.4087 495.249 50.75C495.249 50.0913 495.041 49.5367 494.625 49.086C494.209 48.6353 493.667 48.41 493 48.41C492.332 48.41 491.786 48.6353 491.362 49.086C490.946 49.5367 490.738 50.0913 490.738 50.75C490.738 51.4087 490.946 51.9633 491.362 52.414ZM499.115 56.717H497.997V47.5H499.115V48.501C499.341 48.1717 499.657 47.903 500.064 47.695C500.48 47.4783 500.927 47.37 501.403 47.37C502.305 47.37 503.059 47.6993 503.665 48.358C504.281 49.0167 504.588 49.814 504.588 50.75C504.588 51.686 504.281 52.4833 503.665 53.142C503.059 53.8007 502.305 54.13 501.403 54.13C500.927 54.13 500.48 54.026 500.064 53.818C499.657 53.6013 499.341 53.3283 499.115 52.999V56.717ZM499.648 52.427C500.064 52.8777 500.593 53.103 501.234 53.103C501.876 53.103 502.404 52.8777 502.82 52.427C503.236 51.9763 503.444 51.4173 503.444 50.75C503.444 50.0827 503.236 49.5237 502.82 49.073C502.404 48.6223 501.876 48.397 501.234 48.397C500.593 48.397 500.064 48.6223 499.648 49.073C499.232 49.5237 499.024 50.0827 499.024 50.75C499.024 51.4173 499.232 51.9763 499.648 52.427ZM509.059 54.13C508.062 54.13 507.252 53.8093 506.628 53.168C506.004 52.5267 505.692 51.7207 505.692 50.75C505.692 49.788 506.008 48.9863 506.641 48.345C507.273 47.695 508.084 47.37 509.072 47.37C509.947 47.37 510.679 47.6647 511.269 48.254C511.867 48.8347 512.166 49.6277 512.166 50.633C512.166 50.763 512.161 50.8757 512.153 50.971H506.823C506.84 51.5777 507.057 52.0847 507.473 52.492C507.897 52.8993 508.43 53.103 509.072 53.103C509.982 53.103 510.658 52.726 511.1 51.972L511.984 52.583C511.351 53.6143 510.376 54.13 509.059 54.13ZM506.901 50.061H511.022C510.935 49.541 510.705 49.1293 510.333 48.826C509.969 48.514 509.535 48.358 509.033 48.358C508.521 48.358 508.062 48.514 507.655 48.826C507.256 49.1293 507.005 49.541 506.901 50.061ZM513.752 54V47.5H514.87V48.761C514.992 48.3623 515.226 48.0417 515.572 47.799C515.928 47.5563 516.3 47.435 516.69 47.435C516.881 47.435 517.05 47.4523 517.197 47.487V48.644C517.041 48.5747 516.838 48.54 516.586 48.54C516.136 48.54 515.737 48.735 515.39 49.125C515.044 49.515 514.87 50.0653 514.87 50.776V54H513.752ZM521.035 54.065C520.437 54.065 519.956 53.896 519.592 53.558C519.228 53.22 519.046 52.726 519.046 52.076V48.527H517.668V47.5H519.046V45.693H520.164V47.5H522.036V48.527H520.164V51.933C520.164 52.3403 520.251 52.6263 520.424 52.791C520.597 52.9557 520.87 53.038 521.243 53.038C521.572 53.038 521.837 52.9947 522.036 52.908V53.909C521.724 54.013 521.39 54.065 521.035 54.065ZM525.193 56.717H523.945L525.362 53.662L522.515 47.5H523.75L525.986 52.44L528.209 47.5H529.457L525.193 56.717ZM535.027 54V45.914H532.154V44.77H539.083V45.914H536.21V54H535.027ZM541.126 56.717H539.878L541.295 53.662L538.448 47.5H539.683L541.919 52.44L544.142 47.5H545.39L541.126 56.717ZM547.624 56.717H546.506V47.5H547.624V48.501C547.849 48.1717 548.166 47.903 548.573 47.695C548.989 47.4783 549.435 47.37 549.912 47.37C550.813 47.37 551.567 47.6993 552.174 48.358C552.789 49.0167 553.097 49.814 553.097 50.75C553.097 51.686 552.789 52.4833 552.174 53.142C551.567 53.8007 550.813 54.13 549.912 54.13C549.435 54.13 548.989 54.026 548.573 53.818C548.166 53.6013 547.849 53.3283 547.624 52.999V56.717ZM548.157 52.427C548.573 52.8777 549.102 53.103 549.743 53.103C550.384 53.103 550.913 52.8777 551.329 52.427C551.745 51.9763 551.953 51.4173 551.953 50.75C551.953 50.0827 551.745 49.5237 551.329 49.073C550.913 48.6223 550.384 48.397 549.743 48.397C549.102 48.397 548.573 48.6223 548.157 49.073C547.741 49.5237 547.533 50.0827 547.533 50.75C547.533 51.4173 547.741 51.9763 548.157 52.427ZM557.567 54.13C556.571 54.13 555.76 53.8093 555.136 53.168C554.512 52.5267 554.2 51.7207 554.2 50.75C554.2 49.788 554.517 48.9863 555.149 48.345C555.782 47.695 556.592 47.37 557.58 47.37C558.456 47.37 559.188 47.6647 559.777 48.254C560.375 48.8347 560.674 49.6277 560.674 50.633C560.674 50.763 560.67 50.8757 560.661 50.971H555.331C555.349 51.5777 555.565 52.0847 555.981 52.492C556.406 52.8993 556.939 53.103 557.58 53.103C558.49 53.103 559.166 52.726 559.608 51.972L560.492 52.583C559.86 53.6143 558.885 54.13 557.567 54.13ZM555.409 50.061H559.53C559.444 49.541 559.214 49.1293 558.841 48.826C558.477 48.514 558.044 48.358 557.541 48.358C557.03 48.358 556.571 48.514 556.163 48.826C555.765 49.1293 555.513 49.541 555.409 50.061Z" fill="black"/>
<path d="M595.669 47.166L591.003 51.8327L586.336 47.166" stroke="#131313" stroke-width="1.66667" stroke-linecap="round" stroke-linejoin="round"/>
<path d="M628.222 54V44.77H631.251C632.083 44.77 632.75 45.0083 633.253 45.485C633.756 45.9617 634.007 46.538 634.007 47.214C634.007 48.0633 633.678 48.6917 633.019 49.099C634.085 49.489 634.618 50.2257 634.618 51.309C634.618 52.089 634.332 52.7347 633.76 53.246C633.197 53.7487 632.451 54 631.524 54H628.222ZM629.431 52.908H631.576C632.183 52.908 632.642 52.7693 632.954 52.492C633.275 52.206 633.435 51.8247 633.435 51.348C633.435 50.88 633.275 50.503 632.954 50.217C632.642 49.9223 632.187 49.775 631.589 49.775H629.431V52.908ZM629.431 48.735H631.251C631.736 48.735 632.118 48.605 632.395 48.345C632.681 48.0763 632.824 47.7297 632.824 47.305C632.824 46.8977 632.681 46.5553 632.395 46.278C632.109 46.0007 631.728 45.862 631.251 45.862H629.431V48.735ZM639.089 54.13C638.092 54.13 637.282 53.8093 636.658 53.168C636.034 52.5267 635.722 51.7207 635.722 50.75C635.722 49.788 636.038 48.9863 636.671 48.345C637.303 47.695 638.114 47.37 639.102 47.37C639.977 47.37 640.709 47.6647 641.299 48.254C641.897 48.8347 642.196 49.6277 642.196 50.633C642.196 50.763 642.191 50.8757 642.183 50.971H636.853C636.87 51.5777 637.087 52.0847 637.503 52.492C637.927 52.8993 638.46 53.103 639.102 53.103C640.012 53.103 640.688 52.726 641.13 51.972L642.014 52.583C641.381 53.6143 640.406 54.13 639.089 54.13ZM636.931 50.061H641.052C640.965 49.541 640.735 49.1293 640.363 48.826C639.999 48.514 639.565 48.358 639.063 48.358C638.551 48.358 638.092 48.514 637.685 48.826C637.286 49.1293 637.035 49.541 636.931 50.061ZM646.46 54.13C645.559 54.13 644.801 53.8007 644.185 53.142C643.579 52.4833 643.275 51.686 643.275 50.75C643.275 49.814 643.579 49.0167 644.185 48.358C644.801 47.6993 645.559 47.37 646.46 47.37C646.937 47.37 647.379 47.4783 647.786 47.695C648.202 47.903 648.523 48.1717 648.748 48.501V44.25H649.866V54H648.748V52.999C648.523 53.3283 648.202 53.6013 647.786 53.818C647.379 54.026 646.937 54.13 646.46 54.13ZM646.629 53.103C647.271 53.103 647.799 52.8777 648.215 52.427C648.631 51.9763 648.839 51.4173 648.839 50.75C648.839 50.0827 648.631 49.5237 648.215 49.073C647.799 48.6223 647.271 48.397 646.629 48.397C645.979 48.397 645.446 48.6223 645.03 49.073C644.614 49.5237 644.406 50.0827 644.406 50.75C644.406 51.4173 644.614 51.9763 645.03 52.427C645.446 52.8777 645.979 53.103 646.629 53.103ZM651.971 54V47.5H653.089V48.761C653.21 48.3623 653.444 48.0417 653.791 47.799C654.146 47.5563 654.519 47.435 654.909 47.435C655.1 47.435 655.269 47.4523 655.416 47.487V48.644C655.26 48.5747 655.056 48.54 654.805 48.54C654.354 48.54 653.956 48.735 653.609 49.125C653.262 49.515 653.089 50.0653 653.089 50.776V54H651.971ZM659.389 54.13C658.41 54.13 657.595 53.805 656.945 53.155C656.304 52.4963 655.983 51.6947 655.983 50.75C655.983 49.8053 656.304 49.008 656.945 48.358C657.595 47.6993 658.41 47.37 659.389 47.37C660.36 47.37 661.166 47.6993 661.807 48.358C662.457 49.008 662.782 49.8053 662.782 50.75C662.782 51.6947 662.457 52.4963 661.807 53.155C661.166 53.805 660.36 54.13 659.389 54.13ZM657.751 52.414C658.176 52.8647 658.722 53.09 659.389 53.09C660.057 53.09 660.598 52.8647 661.014 52.414C661.43 51.9633 661.638 51.4087 661.638 50.75C661.638 50.0913 661.43 49.5367 661.014 49.086C660.598 48.6353 660.057 48.41 659.389 48.41C658.722 48.41 658.176 48.6353 657.751 49.086C657.335 49.5367 657.127 50.0913 657.127 50.75C657.127 51.4087 657.335 51.9633 657.751 52.414ZM667.273 54.13C666.294 54.13 665.479 53.805 664.829 53.155C664.188 52.4963 663.867 51.6947 663.867 50.75C663.867 49.8053 664.188 49.008 664.829 48.358C665.479 47.6993 666.294 47.37 667.273 47.37C668.244 47.37 669.05 47.6993 669.691 48.358C670.341 49.008 670.666 49.8053 670.666 50.75C670.666 51.6947 670.341 52.4963 669.691 53.155C669.05 53.805 668.244 54.13 667.273 54.13ZM665.635 52.414C666.06 52.8647 666.606 53.09 667.273 53.09C667.94 53.09 668.482 52.8647 668.898 52.414C669.314 51.9633 669.522 51.4087 669.522 50.75C669.522 50.0913 669.314 49.5367 668.898 49.086C668.482 48.6353 667.94 48.41 667.273 48.41C666.606 48.41 666.06 48.6353 665.635 49.086C665.219 49.5367 665.011 50.0913 665.011 50.75C665.011 51.4087 665.219 51.9633 665.635 52.414ZM680.643 54V50.178C680.643 49.6407 680.53 49.2117 680.305 48.891C680.088 48.5617 679.772 48.397 679.356 48.397C678.836 48.397 678.411 48.6007 678.082 49.008C677.761 49.4153 677.592 49.97 677.575 50.672V54H676.457V50.178C676.457 49.632 676.344 49.1987 676.119 48.878C675.902 48.5573 675.59 48.397 675.183 48.397C674.645 48.397 674.212 48.6137 673.883 49.047C673.553 49.4717 673.389 50.048 673.389 50.776V54H672.271V47.5H673.389V48.501C673.805 47.747 674.459 47.37 675.352 47.37C676.34 47.37 677.007 47.8337 677.354 48.761C677.527 48.3363 677.804 47.9983 678.186 47.747C678.567 47.4957 679 47.37 679.486 47.37C680.188 47.37 680.742 47.6083 681.15 48.085C681.557 48.5617 681.761 49.203 681.761 50.009V54H680.643ZM686.908 54V47.5H688.026V48.501C688.468 47.747 689.157 47.37 690.093 47.37C690.83 47.37 691.424 47.6083 691.874 48.085C692.325 48.5617 692.55 49.1987 692.55 49.996V54H691.445V50.165C691.445 49.619 691.307 49.19 691.029 48.878C690.752 48.5573 690.379 48.397 689.911 48.397C689.374 48.397 688.923 48.6093 688.559 49.034C688.204 49.4587 688.026 50.0393 688.026 50.776V54H686.908ZM697.45 54.13C696.47 54.13 695.656 53.805 695.006 53.155C694.364 52.4963 694.044 51.6947 694.044 50.75C694.044 49.8053 694.364 49.008 695.006 48.358C695.656 47.6993 696.47 47.37 697.45 47.37C698.42 47.37 699.226 47.6993 699.868 48.358C700.518 49.008 700.843 49.8053 700.843 50.75C700.843 51.6947 700.518 52.4963 699.868 53.155C699.226 53.805 698.42 54.13 697.45 54.13ZM695.812 52.414C696.236 52.8647 696.782 53.09 697.45 53.09C698.117 53.09 698.659 52.8647 699.075 52.414C699.491 51.9633 699.699 51.4087 699.699 50.75C699.699 50.0913 699.491 49.5367 699.075 49.086C698.659 48.6353 698.117 48.41 697.45 48.41C696.782 48.41 696.236 48.6353 695.812 49.086C695.396 49.5367 695.188 50.0913 695.188 50.75C695.188 51.4087 695.396 51.9633 695.812 52.414Z" fill="black"/>
<path d="M729.669 47.166L725.003 51.8327L720.336 47.166" stroke="#131313" stroke-width="1.66667" stroke-linecap="round" stroke-linejoin="round"/>
<path d="M780.331 45.602C780.92 46.1567 781.215 46.8587 781.215 47.708C781.215 48.5573 780.92 49.2593 780.331 49.814C779.75 50.36 778.988 50.633 778.043 50.633H776.431V54H775.222V44.77H778.043C778.988 44.77 779.75 45.0473 780.331 45.602ZM779.486 49.008C779.841 48.67 780.019 48.2367 780.019 47.708C780.019 47.1793 779.841 46.746 779.486 46.408C779.139 46.07 778.658 45.901 778.043 45.901H776.431V49.515H778.043C778.658 49.515 779.139 49.346 779.486 49.008ZM785.158 54.13C784.256 54.13 783.498 53.8007 782.883 53.142C782.276 52.4833 781.973 51.686 781.973 50.75C781.973 49.814 782.276 49.0167 782.883 48.358C783.498 47.6993 784.256 47.37 785.158 47.37C785.634 47.37 786.076 47.4783 786.484 47.695C786.9 47.903 787.22 48.1717 787.446 48.501V47.5H788.564V54H787.446V52.999C787.22 53.3283 786.9 53.6013 786.484 53.818C786.076 54.026 785.634 54.13 785.158 54.13ZM785.327 53.103C785.968 53.103 786.497 52.8777 786.913 52.427C787.329 51.9763 787.537 51.4173 787.537 50.75C787.537 50.0827 787.329 49.5237 786.913 49.073C786.497 48.6223 785.968 48.397 785.327 48.397C784.677 48.397 784.144 48.6223 783.728 49.073C783.312 49.5237 783.104 50.0827 783.104 50.75C783.104 51.4173 783.312 51.9763 783.728 52.427C784.144 52.8777 784.677 53.103 785.327 53.103ZM792.397 56.717H791.149L792.566 53.662L789.719 47.5H790.954L793.19 52.44L795.413 47.5H796.661L792.397 56.717ZM806.15 54V50.178C806.15 49.6407 806.037 49.2117 805.812 48.891C805.595 48.5617 805.279 48.397 804.863 48.397C804.343 48.397 803.918 48.6007 803.589 49.008C803.268 49.4153 803.099 49.97 803.082 50.672V54H801.964V50.178C801.964 49.632 801.851 49.1987 801.626 48.878C801.409 48.5573 801.097 48.397 800.69 48.397C800.152 48.397 799.719 48.6137 799.39 49.047C799.06 49.4717 798.896 50.048 798.896 50.776V54H797.778V47.5H798.896V48.501C799.312 47.747 799.966 47.37 800.859 47.37C801.847 47.37 802.514 47.8337 802.861 48.761C803.034 48.3363 803.311 47.9983 803.693 47.747C804.074 47.4957 804.507 47.37 804.993 47.37C805.695 47.37 806.249 47.6083 806.657 48.085C807.064 48.5617 807.268 49.203 807.268 50.009V54H806.15ZM812.14 54.13C811.143 54.13 810.333 53.8093 809.709 53.168C809.085 52.5267 808.773 51.7207 808.773 50.75C808.773 49.788 809.089 48.9863 809.722 48.345C810.354 47.695 811.165 47.37 812.153 47.37C813.028 47.37 813.76 47.6647 814.35 48.254C814.948 48.8347 815.247 49.6277 815.247 50.633C815.247 50.763 815.242 50.8757 815.234 50.971H809.904C809.921 51.5777 810.138 52.0847 810.554 52.492C810.978 52.8993 811.511 53.103 812.153 53.103C813.063 53.103 813.739 52.726 814.181 51.972L815.065 52.583C814.432 53.6143 813.457 54.13 812.14 54.13ZM809.982 50.061H814.103C814.016 49.541 813.786 49.1293 813.414 48.826C813.05 48.514 812.616 48.358 812.114 48.358C811.602 48.358 811.143 48.514 810.736 48.826C810.337 49.1293 810.086 49.541 809.982 50.061ZM816.833 54V47.5H817.951V48.501C818.393 47.747 819.082 47.37 820.018 47.37C820.755 47.37 821.349 47.6083 821.799 48.085C822.25 48.5617 822.475 49.1987 822.475 49.996V54H821.37V50.165C821.37 49.619 821.232 49.19 820.954 48.878C820.677 48.5573 820.304 48.397 819.836 48.397C819.299 48.397 818.848 48.6093 818.484 49.034C818.129 49.4587 817.951 50.0393 817.951 50.776V54H816.833ZM826.934 54.065C826.336 54.065 825.855 53.896 825.491 53.558C825.127 53.22 824.945 52.726 824.945 52.076V48.527H823.567V47.5H824.945V45.693H826.063V47.5H827.935V48.527H826.063V51.933C826.063 52.3403 826.15 52.6263 826.323 52.791C826.497 52.9557 826.77 53.038 827.142 53.038C827.472 53.038 827.736 52.9947 827.935 52.908V53.909C827.623 54.013 827.29 54.065 826.934 54.065ZM833.617 56.717H832.499V47.5H833.617V48.501C833.843 48.1717 834.159 47.903 834.566 47.695C834.982 47.4783 835.429 47.37 835.905 47.37C836.807 47.37 837.561 47.6993 838.167 48.358C838.783 49.0167 839.09 49.814 839.09 50.75C839.09 51.686 838.783 52.4833 838.167 53.142C837.561 53.8007 836.807 54.13 835.905 54.13C835.429 54.13 834.982 54.026 834.566 53.818C834.159 53.6013 833.843 53.3283 833.617 52.999V56.717ZM834.15 52.427C834.566 52.8777 835.095 53.103 835.736 53.103C836.378 53.103 836.906 52.8777 837.322 52.427C837.738 51.9763 837.946 51.4173 837.946 50.75C837.946 50.0827 837.738 49.5237 837.322 49.073C836.906 48.6223 836.378 48.397 835.736 48.397C835.095 48.397 834.566 48.6223 834.15 49.073C833.734 49.5237 833.526 50.0827 833.526 50.75C833.526 51.4173 833.734 51.9763 834.15 52.427ZM840.7 54V44.25H841.818V54H840.7ZM846.616 54.13C845.714 54.13 844.956 53.8007 844.341 53.142C843.734 52.4833 843.431 51.686 843.431 50.75C843.431 49.814 843.734 49.0167 844.341 48.358C844.956 47.6993 845.714 47.37 846.616 47.37C847.092 47.37 847.534 47.4783 847.942 47.695C848.358 47.903 848.678 48.1717 848.904 48.501V47.5H850.022V54H848.904V52.999C848.678 53.3283 848.358 53.6013 847.942 53.818C847.534 54.026 847.092 54.13 846.616 54.13ZM846.785 53.103C847.426 53.103 847.955 52.8777 848.371 52.427C848.787 51.9763 848.995 51.4173 848.995 50.75C848.995 50.0827 848.787 49.5237 848.371 49.073C847.955 48.6223 847.426 48.397 846.785 48.397C846.135 48.397 845.602 48.6223 845.186 49.073C844.77 49.5237 844.562 50.0827 844.562 50.75C844.562 51.4173 844.77 51.9763 845.186 52.427C845.602 52.8777 846.135 53.103 846.785 53.103ZM852.126 54V47.5H853.244V48.501C853.686 47.747 854.375 47.37 855.311 47.37C856.048 47.37 856.642 47.6083 857.092 48.085C857.543 48.5617 857.768 49.1987 857.768 49.996V54H856.663V50.165C856.663 49.619 856.525 49.19 856.247 48.878C855.97 48.5573 855.597 48.397 855.129 48.397C854.592 48.397 854.141 48.6093 853.777 49.034C853.422 49.4587 853.244 50.0393 853.244 50.776V54H852.126Z" fill="black"/>
<rect x="870" y="43" width="31" height="12" rx="6" fill="#D9D9D9"/>
<circle cx="875" cy="49" r="9" fill="#191919"/>
<line x1="218.5" y1="29" x2="218.5" y2="70" stroke="#E3E6EA"/>
<line x1="318.5" y1="29" x2="318.5" y2="70" stroke="#E3E6EA"/>
<line x1="458.5" y1="29" x2="458.5" y2="70" stroke="#E3E6EA"/>
<line x1="608.5" y1="29" x2="608.5" y2="70" stroke="#E3E6EA"/>
<line x1="760.5" y1="29" x2="760.5" y2="70" stroke="#E3E6EA"/>
<path d="M1112.74 54L1108.05 42.64H1110.56L1113.78 50.528L1116.94 42.64H1119.5L1114.8 54H1112.74ZM1121.68 44.688C1121.3 44.688 1120.98 44.5547 1120.7 44.288C1120.42 44.0107 1120.28 43.68 1120.28 43.296C1120.28 42.912 1120.42 42.5867 1120.7 42.32C1120.98 42.0427 1121.3 41.904 1121.68 41.904C1122.07 41.904 1122.4 42.0427 1122.67 42.32C1122.94 42.5867 1123.08 42.912 1123.08 43.296C1123.08 43.68 1122.94 44.0107 1122.67 44.288C1122.4 44.5547 1122.07 44.688 1121.68 44.688ZM1120.59 54V46H1122.78V54H1120.59ZM1128.61 54.176C1127.4 54.176 1126.38 53.792 1125.57 53.024C1124.77 52.256 1124.37 51.248 1124.37 50C1124.37 48.8053 1124.77 47.8133 1125.57 47.024C1126.37 46.224 1127.37 45.824 1128.58 45.824C1129.69 45.824 1130.62 46.1707 1131.38 46.864C1132.14 47.5467 1132.52 48.512 1132.52 49.76C1132.52 50.112 1132.51 50.3627 1132.48 50.512H1126.5C1126.56 51.0347 1126.79 51.4453 1127.19 51.744C1127.59 52.032 1128.07 52.176 1128.63 52.176C1129.57 52.176 1130.25 51.84 1130.69 51.168L1132.32 52.384C1131.5 53.5787 1130.27 54.176 1128.61 54.176ZM1126.58 49.024H1130.32C1130.23 48.5653 1130.01 48.2187 1129.67 47.984C1129.34 47.7493 1128.95 47.632 1128.52 47.632C1128.07 47.632 1127.66 47.7493 1127.28 47.984C1126.91 48.2187 1126.68 48.5653 1126.58 49.024ZM1140.89 54L1139.38 49.456L1137.9 54H1135.72L1133.06 46H1135.4L1136.92 51.12L1138.54 46H1140.22L1141.85 51.12L1143.35 46H1145.7L1143.06 54H1140.89ZM1152.9 54.176C1151.39 54.176 1150.29 53.664 1149.6 52.64L1151.11 51.36C1151.49 51.9787 1152.09 52.288 1152.9 52.288C1153.15 52.288 1153.35 52.24 1153.52 52.144C1153.69 52.048 1153.78 51.904 1153.78 51.712C1153.78 51.5413 1153.71 51.4027 1153.56 51.296C1153.42 51.1787 1153.13 51.0613 1152.71 50.944L1152.12 50.8C1151.38 50.608 1150.82 50.288 1150.44 49.84C1150.06 49.392 1149.89 48.8587 1149.91 48.24C1149.93 47.5147 1150.22 46.9333 1150.77 46.496C1151.34 46.048 1152.05 45.824 1152.92 45.824C1154.14 45.824 1155.07 46.272 1155.68 47.168L1154.24 48.336C1153.87 47.8667 1153.42 47.632 1152.88 47.632C1152.67 47.632 1152.48 47.68 1152.32 47.776C1152.16 47.872 1152.08 48.0053 1152.08 48.176C1152.08 48.496 1152.35 48.7253 1152.87 48.864L1153.62 49.088C1155.17 49.504 1155.94 50.3307 1155.94 51.568C1155.94 52.3253 1155.65 52.9493 1155.08 53.44C1154.5 53.9307 1153.77 54.176 1152.9 54.176ZM1160.8 54.176C1159.75 54.176 1158.86 53.7653 1158.13 52.944C1157.41 52.1227 1157.04 51.1413 1157.04 50C1157.04 48.8587 1157.41 47.8773 1158.13 47.056C1158.86 46.2347 1159.75 45.824 1160.8 45.824C1161.32 45.824 1161.77 45.9307 1162.18 46.144C1162.59 46.3573 1162.89 46.608 1163.11 46.896V46H1165.3V54H1163.11V53.104C1162.89 53.392 1162.59 53.6427 1162.18 53.856C1161.77 54.0693 1161.32 54.176 1160.8 54.176ZM1159.8 51.568C1160.17 51.9733 1160.66 52.176 1161.27 52.176C1161.88 52.176 1162.36 51.9733 1162.72 51.568C1163.1 51.1627 1163.28 50.64 1163.28 50C1163.28 49.36 1163.1 48.8373 1162.72 48.432C1162.36 48.0267 1161.88 47.824 1161.27 47.824C1160.66 47.824 1160.17 48.0267 1159.8 48.432C1159.43 48.8373 1159.25 49.36 1159.25 50C1159.25 50.64 1159.43 51.1627 1159.8 51.568ZM1169.93 54L1166.39 46H1168.81L1170.92 51.12L1173.03 46H1175.48L1171.93 54H1169.93ZM1180.03 54.176C1178.82 54.176 1177.8 53.792 1176.99 53.024C1176.19 52.256 1175.79 51.248 1175.79 50C1175.79 48.8053 1176.19 47.8133 1176.99 47.024C1177.79 46.224 1178.8 45.824 1180 45.824C1181.11 45.824 1182.04 46.1707 1182.8 46.864C1183.56 47.5467 1183.94 48.512 1183.94 49.76C1183.94 50.112 1183.93 50.3627 1183.91 50.512H1177.92C1177.99 51.0347 1178.22 51.4453 1178.61 51.744C1179.02 52.032 1179.5 52.176 1180.05 52.176C1180.99 52.176 1181.68 51.84 1182.11 51.168L1183.75 52.384C1182.92 53.5787 1181.69 54.176 1180.03 54.176ZM1178 49.024H1181.75C1181.65 48.5653 1181.43 48.2187 1181.09 47.984C1180.76 47.7493 1180.38 47.632 1179.94 47.632C1179.49 47.632 1179.08 47.7493 1178.71 47.984C1178.33 48.2187 1178.1 48.5653 1178 49.024ZM1188.8 54.176C1187.75 54.176 1186.86 53.7653 1186.13 52.944C1185.41 52.1227 1185.04 51.1413 1185.04 50C1185.04 48.8587 1185.41 47.8773 1186.13 47.056C1186.86 46.2347 1187.75 45.824 1188.8 45.824C1189.32 45.824 1189.77 45.9307 1190.18 46.144C1190.59 46.3573 1190.89 46.608 1191.11 46.896V42H1193.3V54H1191.11V53.104C1190.89 53.392 1190.59 53.6427 1190.18 53.856C1189.77 54.0693 1189.32 54.176 1188.8 54.176ZM1187.8 51.568C1188.17 51.9733 1188.66 52.176 1189.27 52.176C1189.88 52.176 1190.36 51.9733 1190.72 51.568C1191.1 51.1627 1191.28 50.64 1191.28 50C1191.28 49.36 1191.1 48.8373 1190.72 48.432C1190.36 48.0267 1189.88 47.824 1189.27 47.824C1188.66 47.824 1188.17 48.0267 1187.8 48.432C1187.43 48.8373 1187.25 49.36 1187.25 50C1187.25 50.64 1187.43 51.1627 1187.8 51.568ZM1199.87 54V47.92H1198.26V46H1199.87V44.96C1199.87 44.0107 1200.16 43.264 1200.74 42.72C1201.31 42.176 1202.04 41.904 1202.93 41.904C1203.47 41.904 1203.94 41.9627 1204.32 42.08V44.016C1204.06 43.92 1203.77 43.872 1203.42 43.872C1202.94 43.872 1202.6 43.9787 1202.38 44.192C1202.17 44.3947 1202.06 44.7413 1202.06 45.232V46H1204.32V47.92H1202.06V54H1199.87ZM1206.7 44.688C1206.33 44.688 1206.01 44.5547 1205.73 44.288C1205.45 44.0107 1205.31 43.68 1205.31 43.296C1205.31 42.912 1205.45 42.5867 1205.73 42.32C1206.01 42.0427 1206.33 41.904 1206.7 41.904C1207.1 41.904 1207.43 42.0427 1207.7 42.32C1207.97 42.5867 1208.11 42.912 1208.11 43.296C1208.11 43.68 1207.97 44.0107 1207.7 44.288C1207.43 44.5547 1207.1 44.688 1206.7 44.688ZM1205.62 54V46H1207.81V54H1205.62ZM1209.92 54V42H1212.11V54H1209.92ZM1218.08 54.096C1217.19 54.096 1216.45 53.8507 1215.88 53.36C1215.31 52.8587 1215.03 52.1387 1215.03 51.2V47.92H1213.41V46H1215.03V43.776H1217.22V46H1219.48V47.92H1217.22V50.768C1217.22 51.2587 1217.33 51.6107 1217.54 51.824C1217.75 52.0267 1218.1 52.128 1218.58 52.128C1218.92 52.128 1219.22 52.08 1219.48 51.984V53.92C1219.09 54.0373 1218.63 54.096 1218.08 54.096ZM1224.66 54.176C1223.44 54.176 1222.43 53.792 1221.62 53.024C1220.82 52.256 1220.42 51.248 1220.42 50C1220.42 48.8053 1220.82 47.8133 1221.62 47.024C1222.42 46.224 1223.42 45.824 1224.63 45.824C1225.74 45.824 1226.67 46.1707 1227.43 46.864C1228.18 47.5467 1228.56 48.512 1228.56 49.76C1228.56 50.112 1228.55 50.3627 1228.53 50.512H1222.55C1222.61 51.0347 1222.84 51.4453 1223.24 51.744C1223.64 52.032 1224.12 52.176 1224.68 52.176C1225.61 52.176 1226.3 51.84 1226.74 51.168L1228.37 52.384C1227.55 53.5787 1226.31 54.176 1224.66 54.176ZM1222.63 49.024H1226.37C1226.28 48.5653 1226.06 48.2187 1225.72 47.984C1225.38 47.7493 1225 47.632 1224.56 47.632C1224.12 47.632 1223.7 47.7493 1223.33 47.984C1222.96 48.2187 1222.72 48.5653 1222.63 49.024ZM1230.18 54V46H1232.37V47.28C1232.51 46.8853 1232.76 46.56 1233.12 46.304C1233.5 46.0373 1233.91 45.904 1234.36 45.904C1234.63 45.904 1234.88 45.936 1235.09 46V48.224C1234.74 48.1067 1234.41 48.048 1234.1 48.048C1233.58 48.048 1233.16 48.24 1232.84 48.624C1232.53 48.9973 1232.37 49.5147 1232.37 50.176V54H1230.18Z" fill="#191919"/>
</g>
<defs>
<filter id="filter0_d_11338_75837" x="0" y="0" width="1265" height="116" filterUnits="userSpaceOnUse" color-interpolation-filters="sRGB">
<feFlood flood-opacity="0" result="BackgroundImageFix"/>
<feColorMatrix in="SourceAlpha" type="matrix" values="0 0 0 0 0 0 0 0 0 0 0 0 0 0 0 0 0 0 127 0" result="hardAlpha"/>
<feOffset dy="9"/>
<feGaussianBlur stdDeviation="9.5"/>
<feComposite in2="hardAlpha" operator="out"/>
<feColorMatrix type="matrix" values="0 0 0 0 0.556863 0 0 0 0 0.592157 0 0 0 0 0.619608 0 0 0 0.15 0"/>
<feBlend mode="normal" in2="BackgroundImageFix" result="effect1_dropShadow_11338_75837"/>
<feBlend mode="normal" in="SourceGraphic" in2="effect1_dropShadow_11338_75837" result="shape"/>
</filter>
</defs>
</svg>
