<svg width="407" height="660" viewBox="0 0 407 660" fill="none" xmlns="http://www.w3.org/2000/svg">
<rect width="407" height="737" fill="#F5F5F5"/>
<g clipPath="url(#clip0_11338_75680)">
<rect x="22.5" y="17.5" width="318" height="42" rx="11.5" fill="white" stroke="#E4E4E4"/>
<path d="M316.77 46.7554C321.734 46.7554 325.758 42.7311 325.758 37.7669C325.758 32.8026 321.734 28.7783 316.77 28.7783C311.806 28.7783 307.781 32.8026 307.781 37.7669C307.781 42.7311 311.806 46.7554 316.77 46.7554Z" stroke="#3D3D3D" stroke-width="1.5" stroke-linecap="round" stroke-linejoin="round"/>
<path d="M323.016 44.4854L326.54 48.0003" stroke="#3D3D3D" stroke-width="1.5" stroke-linecap="round" stroke-linejoin="round"/>
<path d="M41.408 43.144C40.72 43.144 40.108 43 39.572 42.712C39.036 42.416 38.668 42.048 38.468 41.608L39.224 41.068C39.728 41.876 40.46 42.28 41.42 42.28C41.916 42.28 42.324 42.152 42.644 41.896C42.972 41.64 43.136 41.3 43.136 40.876C43.136 40.164 42.724 39.648 41.9 39.328L40.64 38.848C39.976 38.6 39.496 38.296 39.2 37.936C38.904 37.576 38.756 37.104 38.756 36.52C38.756 35.864 39 35.336 39.488 34.936C39.984 34.536 40.608 34.336 41.36 34.336C41.88 34.336 42.348 34.444 42.764 34.66C43.188 34.876 43.524 35.156 43.772 35.5L43.064 36.076C42.576 35.492 41.996 35.2 41.324 35.2C40.852 35.2 40.456 35.324 40.136 35.572C39.824 35.812 39.668 36.124 39.668 36.508C39.668 36.884 39.764 37.18 39.956 37.396C40.156 37.604 40.484 37.796 40.94 37.972L42.068 38.404C42.732 38.66 43.228 38.98 43.556 39.364C43.884 39.748 44.048 40.244 44.048 40.852C44.048 41.556 43.804 42.116 43.316 42.532C42.828 42.94 42.192 43.144 41.408 43.144ZM48.2099 43.12C47.2899 43.12 46.5459 42.824 45.9779 42.232C45.4099 41.632 45.1259 40.888 45.1259 40C45.1259 39.12 45.4179 38.38 46.0019 37.78C46.5859 37.18 47.3299 36.88 48.2339 36.88C49.0419 36.88 49.7139 37.152 50.2499 37.696C50.7859 38.24 51.0539 38.98 51.0539 39.916V40.144H45.9899C45.9899 40.768 46.1979 41.292 46.6139 41.716C47.0299 42.132 47.5619 42.34 48.2099 42.34C48.6899 42.34 49.0819 42.248 49.3859 42.064C49.6979 41.872 49.9659 41.588 50.1899 41.212L50.8739 41.656C50.3059 42.632 49.4179 43.12 48.2099 43.12ZM46.0619 39.4H50.1779C50.0979 38.864 49.8779 38.44 49.5179 38.128C49.1579 37.816 48.7179 37.66 48.1979 37.66C47.6779 37.66 47.2139 37.82 46.8059 38.14C46.4059 38.452 46.1579 38.872 46.0619 39.4ZM55.0863 43.12C54.2463 43.12 53.5383 42.816 52.9623 42.208C52.3863 41.6 52.0983 40.864 52.0983 40C52.0983 39.136 52.3863 38.4 52.9623 37.792C53.5383 37.184 54.2463 36.88 55.0863 36.88C55.5423 36.88 55.9703 36.984 56.3703 37.192C56.7783 37.4 57.0903 37.672 57.3063 38.008V37H58.1463V43H57.3063V41.992C57.0903 42.328 56.7783 42.6 56.3703 42.808C55.9703 43.016 55.5423 43.12 55.0863 43.12ZM53.5743 41.668C53.9903 42.116 54.5223 42.34 55.1703 42.34C55.8183 42.34 56.3463 42.116 56.7543 41.668C57.1703 41.212 57.3783 40.656 57.3783 40C57.3783 39.344 57.1703 38.792 56.7543 38.344C56.3463 37.888 55.8183 37.66 55.1703 37.66C54.5223 37.66 53.9903 37.888 53.5743 38.344C53.1663 38.792 52.9623 39.344 52.9623 40C52.9623 40.656 53.1663 41.212 53.5743 41.668ZM60.2078 43V37H61.0478V38.236C61.1758 37.836 61.4038 37.52 61.7318 37.288C62.0598 37.056 62.4118 36.94 62.7878 36.94C62.9558 36.94 63.0998 36.956 63.2198 36.988V37.864C63.0758 37.808 62.9078 37.78 62.7158 37.78C62.2918 37.78 61.9078 37.972 61.5638 38.356C61.2198 38.74 61.0478 39.284 61.0478 39.988V43H60.2078ZM66.9139 43.12C66.0099 43.12 65.2619 42.82 64.6699 42.22C64.0779 41.612 63.7819 40.872 63.7819 40C63.7819 39.128 64.0779 38.392 64.6699 37.792C65.2619 37.184 66.0099 36.88 66.9139 36.88C67.5219 36.88 68.0619 37.02 68.5339 37.3C69.0139 37.58 69.3899 37.964 69.6619 38.452L68.9299 38.872C68.7379 38.496 68.4659 38.2 68.1139 37.984C67.7699 37.768 67.3699 37.66 66.9139 37.66C66.2419 37.66 65.6939 37.888 65.2699 38.344C64.8539 38.792 64.6459 39.344 64.6459 40C64.6459 40.656 64.8539 41.212 65.2699 41.668C65.6939 42.116 66.2419 42.34 66.9139 42.34C67.3699 42.34 67.7699 42.232 68.1139 42.016C68.4659 41.8 68.7379 41.504 68.9299 41.128L69.6619 41.548C69.3899 42.036 69.0139 42.42 68.5339 42.7C68.0619 42.98 67.5219 43.12 66.9139 43.12ZM71.9345 43H71.0945V34H71.9345V38.008C72.3425 37.256 72.9985 36.88 73.9025 36.88C74.5665 36.88 75.1065 37.092 75.5225 37.516C75.9465 37.94 76.1585 38.516 76.1585 39.244V43H75.3185V39.364C75.3185 38.844 75.1785 38.432 74.8985 38.128C74.6265 37.816 74.2625 37.66 73.8065 37.66C73.2625 37.66 72.8145 37.872 72.4625 38.296C72.1105 38.712 71.9345 39.284 71.9345 40.012V43ZM83.6952 43.12C82.7912 43.12 82.0432 42.82 81.4512 42.22C80.8592 41.612 80.5632 40.872 80.5632 40C80.5632 39.128 80.8592 38.392 81.4512 37.792C82.0432 37.184 82.7912 36.88 83.6952 36.88C84.3032 36.88 84.8432 37.02 85.3152 37.3C85.7952 37.58 86.1712 37.964 86.4432 38.452L85.7112 38.872C85.5192 38.496 85.2472 38.2 84.8952 37.984C84.5512 37.768 84.1512 37.66 83.6952 37.66C83.0232 37.66 82.4752 37.888 82.0512 38.344C81.6352 38.792 81.4272 39.344 81.4272 40C81.4272 40.656 81.6352 41.212 82.0512 41.668C82.4752 42.116 83.0232 42.34 83.6952 42.34C84.1512 42.34 84.5512 42.232 84.8952 42.016C85.2472 41.8 85.5192 41.504 85.7112 41.128L86.4432 41.548C86.1712 42.036 85.7952 42.42 85.3152 42.7C84.8432 42.98 84.3032 43.12 83.6952 43.12ZM87.8758 43V34H88.7158V43H87.8758ZM91.214 35.2C91.03 35.2 90.874 35.14 90.746 35.02C90.626 34.892 90.566 34.74 90.566 34.564C90.566 34.388 90.626 34.24 90.746 34.12C90.874 33.992 91.03 33.928 91.214 33.928C91.39 33.928 91.538 33.992 91.658 34.12C91.778 34.24 91.838 34.388 91.838 34.564C91.838 34.74 91.778 34.892 91.658 35.02C91.538 35.14 91.39 35.2 91.214 35.2ZM90.782 43V37H91.622V43H90.782ZM96.2803 43.12C95.3603 43.12 94.6163 42.824 94.0483 42.232C93.4803 41.632 93.1963 40.888 93.1963 40C93.1963 39.12 93.4883 38.38 94.0723 37.78C94.6563 37.18 95.4003 36.88 96.3043 36.88C97.1123 36.88 97.7843 37.152 98.3203 37.696C98.8563 38.24 99.1243 38.98 99.1243 39.916V40.144H94.0603C94.0603 40.768 94.2683 41.292 94.6843 41.716C95.1003 42.132 95.6323 42.34 96.2803 42.34C96.7603 42.34 97.1523 42.248 97.4563 42.064C97.7683 41.872 98.0363 41.588 98.2603 41.212L98.9443 41.656C98.3763 42.632 97.4883 43.12 96.2803 43.12ZM94.1323 39.4H98.2483C98.1683 38.864 97.9483 38.44 97.5883 38.128C97.2283 37.816 96.7883 37.66 96.2683 37.66C95.7483 37.66 95.2843 37.82 94.8763 38.14C94.4763 38.452 94.2283 38.872 94.1323 39.4ZM100.673 43V37H101.513V38.008C101.921 37.256 102.577 36.88 103.481 36.88C104.145 36.88 104.685 37.092 105.101 37.516C105.525 37.94 105.737 38.516 105.737 39.244V43H104.897V39.364C104.897 38.844 104.757 38.432 104.477 38.128C104.205 37.816 103.841 37.66 103.385 37.66C102.841 37.66 102.393 37.872 102.041 38.296C101.689 38.712 101.513 39.284 101.513 40.012V43H100.673ZM109.782 43.06C109.278 43.06 108.866 42.916 108.546 42.628C108.234 42.332 108.078 41.9 108.078 41.332V37.792H106.794V37H108.078V35.332H108.918V37H110.67V37.792H108.918V41.26C108.918 41.628 108.998 41.892 109.158 42.052C109.326 42.204 109.578 42.28 109.914 42.28C110.218 42.28 110.47 42.236 110.67 42.148V42.904C110.406 43.008 110.11 43.06 109.782 43.06ZM113.792 43.12C113.224 43.12 112.732 42.996 112.316 42.748C111.908 42.492 111.624 42.124 111.464 41.644L112.22 41.332C112.316 41.652 112.512 41.904 112.808 42.088C113.112 42.272 113.444 42.364 113.804 42.364C114.14 42.364 114.416 42.284 114.632 42.124C114.856 41.956 114.968 41.728 114.968 41.44C114.968 41.2 114.88 41 114.704 40.84C114.536 40.672 114.248 40.52 113.84 40.384L113.192 40.18C112.232 39.884 111.752 39.316 111.752 38.476C111.752 37.988 111.94 37.6 112.316 37.312C112.7 37.024 113.18 36.88 113.756 36.88C114.66 36.88 115.308 37.232 115.7 37.936L115.028 38.356C114.708 37.868 114.268 37.624 113.708 37.624C113.412 37.624 113.152 37.704 112.928 37.864C112.704 38.016 112.592 38.208 112.592 38.44C112.592 38.888 112.904 39.212 113.528 39.412L114.212 39.628C115.276 39.964 115.808 40.544 115.808 41.368C115.808 41.92 115.62 42.352 115.244 42.664C114.876 42.968 114.392 43.12 113.792 43.12ZM121.188 43H120.348V34H121.188V38.008C121.596 37.256 122.252 36.88 123.156 36.88C123.82 36.88 124.36 37.092 124.776 37.516C125.2 37.94 125.412 38.516 125.412 39.244V43H124.572V39.364C124.572 38.844 124.432 38.432 124.152 38.128C123.88 37.816 123.516 37.66 123.06 37.66C122.516 37.66 122.068 37.872 121.716 38.296C121.364 38.712 121.188 39.284 121.188 40.012V43ZM129.972 43.12C129.052 43.12 128.308 42.824 127.74 42.232C127.172 41.632 126.888 40.888 126.888 40C126.888 39.12 127.18 38.38 127.764 37.78C128.348 37.18 129.092 36.88 129.996 36.88C130.804 36.88 131.476 37.152 132.012 37.696C132.548 38.24 132.816 38.98 132.816 39.916V40.144H127.752C127.752 40.768 127.96 41.292 128.376 41.716C128.792 42.132 129.324 42.34 129.972 42.34C130.452 42.34 130.844 42.248 131.148 42.064C131.46 41.872 131.728 41.588 131.952 41.212L132.636 41.656C132.068 42.632 131.18 43.12 129.972 43.12ZM127.824 39.4H131.94C131.86 38.864 131.64 38.44 131.28 38.128C130.92 37.816 130.48 37.66 129.96 37.66C129.44 37.66 128.976 37.82 128.568 38.14C128.168 38.452 127.92 38.872 127.824 39.4ZM134.364 43V37H135.204V38.236C135.332 37.836 135.56 37.52 135.888 37.288C136.216 37.056 136.568 36.94 136.944 36.94C137.112 36.94 137.256 36.956 137.376 36.988V37.864C137.232 37.808 137.064 37.78 136.872 37.78C136.448 37.78 136.064 37.972 135.72 38.356C135.376 38.74 135.204 39.284 135.204 39.988V43H134.364ZM141.034 43.12C140.114 43.12 139.37 42.824 138.802 42.232C138.234 41.632 137.95 40.888 137.95 40C137.95 39.12 138.242 38.38 138.826 37.78C139.41 37.18 140.154 36.88 141.058 36.88C141.866 36.88 142.538 37.152 143.074 37.696C143.61 38.24 143.878 38.98 143.878 39.916V40.144H138.814C138.814 40.768 139.022 41.292 139.438 41.716C139.854 42.132 140.386 42.34 141.034 42.34C141.514 42.34 141.906 42.248 142.21 42.064C142.522 41.872 142.79 41.588 143.014 41.212L143.698 41.656C143.13 42.632 142.242 43.12 141.034 43.12ZM138.886 39.4H143.002C142.922 38.864 142.702 38.44 142.342 38.128C141.982 37.816 141.542 37.66 141.022 37.66C140.502 37.66 140.038 37.82 139.63 38.14C139.23 38.452 138.982 38.872 138.886 39.4Z" fill="#919191"/>
</g>
<g clipPath="url(#clip1_11338_75680)">
<path d="M362 44H372V46H362V44ZM362 37H382V39H362V37ZM362 30H382V32H362V30ZM378 44V41H380V44H383V46H380V49H378V46H375V44H378Z" fill="#191919"/>
</g>
<defs>
<clipPath id="clip0_11338_75680">
<rect width="319" height="43" fill="white" transform="translate(22 17)"/>
</clipPath>
<clipPath id="clip1_11338_75680">
<rect width="24" height="24" fill="white" transform="translate(360 26)"/>
</clipPath>
</defs>
</svg>
