<svg width="1283" height="731" viewBox="0 0 1283 731" fill="none" xmlns="http://www.w3.org/2000/svg">
<g clipPath="url(#clip0_11325_73608)">
<rect width="1283" height="796" rx="12" fill="white"/>
<path d="M0 24C0 18.4772 4.47715 14 10 14H410C415.523 14 420 18.4772 420 24V76H0V24Z" fill="#F4F5F7"/>
<rect width="420" height="7" transform="translate(0 14)" fill="#E4E4E4"/>
<path d="M32.284 50V38.804H28.306V37.22H37.9V38.804H33.922V50H32.284ZM42.1024 50.18C40.7464 50.18 39.6184 49.73 38.7184 48.83C37.8304 47.918 37.3864 46.808 37.3864 45.5C37.3864 44.192 37.8304 43.088 38.7184 42.188C39.6184 41.276 40.7464 40.82 42.1024 40.82C43.4464 40.82 44.5624 41.276 45.4504 42.188C46.3504 43.088 46.8004 44.192 46.8004 45.5C46.8004 46.808 46.3504 47.918 45.4504 48.83C44.5624 49.73 43.4464 50.18 42.1024 50.18ZM39.8344 47.804C40.4224 48.428 41.1784 48.74 42.1024 48.74C43.0264 48.74 43.7764 48.428 44.3524 47.804C44.9284 47.18 45.2164 46.412 45.2164 45.5C45.2164 44.588 44.9284 43.82 44.3524 43.196C43.7764 42.572 43.0264 42.26 42.1024 42.26C41.1784 42.26 40.4224 42.572 39.8344 43.196C39.2584 43.82 38.9704 44.588 38.9704 45.5C38.9704 46.412 39.2584 47.18 39.8344 47.804ZM53.5983 50V37.22H57.2703C59.2263 37.22 60.8463 37.826 62.1303 39.038C63.4263 40.25 64.0743 41.774 64.0743 43.61C64.0743 45.446 63.4263 46.97 62.1303 48.182C60.8463 49.394 59.2263 50 57.2703 50H53.5983ZM55.2723 48.434H57.2703C58.7943 48.434 60.0243 47.984 60.9603 47.084C61.9083 46.172 62.3823 45.014 62.3823 43.61C62.3823 42.206 61.9083 41.054 60.9603 40.154C60.0243 39.242 58.7943 38.786 57.2703 38.786H55.2723V48.434ZM70.3329 50.18C68.9769 50.18 67.8489 49.73 66.9489 48.83C66.0609 47.918 65.6169 46.808 65.6169 45.5C65.6169 44.192 66.0609 43.088 66.9489 42.188C67.8489 41.276 68.9769 40.82 70.3329 40.82C71.6769 40.82 72.7929 41.276 73.6809 42.188C74.5809 43.088 75.0309 44.192 75.0309 45.5C75.0309 46.808 74.5809 47.918 73.6809 48.83C72.7929 49.73 71.6769 50.18 70.3329 50.18ZM68.0649 47.804C68.6529 48.428 69.4089 48.74 70.3329 48.74C71.2569 48.74 72.0069 48.428 72.5829 47.804C73.1589 47.18 73.4469 46.412 73.4469 45.5C73.4469 44.588 73.1589 43.82 72.5829 43.196C72.0069 42.572 71.2569 42.26 70.3329 42.26C69.4089 42.26 68.6529 42.572 68.0649 43.196C67.4889 43.82 67.2009 44.588 67.2009 45.5C67.2009 46.412 67.4889 47.18 68.0649 47.804Z" fill="#606060"/>
<path d="M386.383 50.18C385.051 50.18 383.965 49.736 383.125 48.848C382.285 47.948 381.865 46.79 381.865 45.374V41.81C381.865 40.394 382.285 39.242 383.125 38.354C383.977 37.454 385.063 37.004 386.383 37.004C387.703 37.004 388.789 37.454 389.641 38.354C390.493 39.254 390.919 40.406 390.919 41.81V45.374C390.919 46.79 390.493 47.948 389.641 48.848C388.789 49.736 387.703 50.18 386.383 50.18ZM386.383 48.668C387.271 48.668 387.991 48.374 388.543 47.786C389.095 47.198 389.371 46.394 389.371 45.374V41.81C389.371 40.79 389.095 39.986 388.543 39.398C387.991 38.81 387.271 38.516 386.383 38.516C385.507 38.516 384.793 38.81 384.241 39.398C383.689 39.986 383.413 40.79 383.413 41.81V45.374C383.413 46.394 383.689 47.198 384.241 47.786C384.793 48.374 385.507 48.668 386.383 48.668Z" fill="#606060"/>
<path d="M432 24C432 18.4772 436.477 14 442 14H842C847.523 14 852 18.4772 852 24V76H432V24Z" fill="#F4F5F7"/>
<rect width="420" height="7" transform="translate(432 14)" fill="#4545FE"/>
<path d="M466.284 50V38.804H462.306V37.22H471.9V38.804H467.922V50H466.284ZM476.102 50.18C474.746 50.18 473.618 49.73 472.718 48.83C471.83 47.918 471.386 46.808 471.386 45.5C471.386 44.192 471.83 43.088 472.718 42.188C473.618 41.276 474.746 40.82 476.102 40.82C477.446 40.82 478.562 41.276 479.45 42.188C480.35 43.088 480.8 44.192 480.8 45.5C480.8 46.808 480.35 47.918 479.45 48.83C478.562 49.73 477.446 50.18 476.102 50.18ZM473.834 47.804C474.422 48.428 475.178 48.74 476.102 48.74C477.026 48.74 477.776 48.428 478.352 47.804C478.928 47.18 479.216 46.412 479.216 45.5C479.216 44.588 478.928 43.82 478.352 43.196C477.776 42.572 477.026 42.26 476.102 42.26C475.178 42.26 474.422 42.572 473.834 43.196C473.258 43.82 472.97 44.588 472.97 45.5C472.97 46.412 473.258 47.18 473.834 47.804ZM487.598 50V37.22H491.954C493.13 37.22 494.06 37.544 494.744 38.192C495.428 38.828 495.77 39.68 495.77 40.748C495.77 41.684 495.488 42.452 494.924 43.052C494.372 43.652 493.598 44.024 492.602 44.168L497.534 50H495.428L490.514 44.186H489.272V50H487.598ZM489.272 42.692H491.756C492.5 42.692 493.076 42.53 493.484 42.206C493.892 41.87 494.096 41.384 494.096 40.748C494.096 40.112 493.892 39.626 493.484 39.29C493.076 38.942 492.5 38.768 491.756 38.768H489.272V42.692ZM502.486 50.18C501.106 50.18 499.984 49.736 499.12 48.848C498.256 47.96 497.824 46.844 497.824 45.5C497.824 44.168 498.262 43.058 499.138 42.17C500.014 41.27 501.136 40.82 502.504 40.82C503.716 40.82 504.73 41.228 505.546 42.044C506.374 42.848 506.788 43.946 506.788 45.338C506.788 45.518 506.782 45.674 506.77 45.806H499.39C499.414 46.646 499.714 47.348 500.29 47.912C500.878 48.476 501.616 48.758 502.504 48.758C503.764 48.758 504.7 48.236 505.312 47.192L506.536 48.038C505.66 49.466 504.31 50.18 502.486 50.18ZM499.498 44.546H505.204C505.084 43.826 504.766 43.256 504.25 42.836C503.746 42.404 503.146 42.188 502.45 42.188C501.742 42.188 501.106 42.404 500.542 42.836C499.99 43.256 499.642 43.826 499.498 44.546ZM511.653 50L507.495 41H509.223L512.301 47.822L515.379 41H517.107L512.949 50H511.653ZM520.237 38.282C520.033 38.486 519.775 38.588 519.463 38.588C519.151 38.588 518.887 38.486 518.671 38.282C518.455 38.066 518.347 37.802 518.347 37.49C518.347 37.19 518.455 36.932 518.671 36.716C518.887 36.5 519.151 36.392 519.463 36.392C519.775 36.392 520.033 36.5 520.237 36.716C520.441 36.932 520.543 37.19 520.543 37.49C520.543 37.802 520.441 38.066 520.237 38.282ZM518.671 50V41H520.219V50H518.671ZM527.113 50.18C525.733 50.18 524.611 49.736 523.747 48.848C522.883 47.96 522.451 46.844 522.451 45.5C522.451 44.168 522.889 43.058 523.765 42.17C524.641 41.27 525.763 40.82 527.131 40.82C528.343 40.82 529.357 41.228 530.173 42.044C531.001 42.848 531.415 43.946 531.415 45.338C531.415 45.518 531.409 45.674 531.397 45.806H524.017C524.041 46.646 524.341 47.348 524.917 47.912C525.505 48.476 526.243 48.758 527.131 48.758C528.391 48.758 529.327 48.236 529.939 47.192L531.163 48.038C530.287 49.466 528.937 50.18 527.113 50.18ZM524.125 44.546H529.831C529.711 43.826 529.393 43.256 528.877 42.836C528.373 42.404 527.773 42.188 527.077 42.188C526.369 42.188 525.733 42.404 525.169 42.836C524.617 43.256 524.269 43.826 524.125 44.546ZM541.227 50L538.995 43.538L536.781 50H535.413L532.353 41H533.973L536.151 47.57L538.401 41H539.589L541.839 47.57L544.017 41H545.655L542.595 50H541.227Z" fill="#606060"/>
<path d="M817.383 50.18C816.051 50.18 814.965 49.736 814.125 48.848C813.285 47.948 812.865 46.79 812.865 45.374V41.81C812.865 40.394 813.285 39.242 814.125 38.354C814.977 37.454 816.063 37.004 817.383 37.004C818.703 37.004 819.789 37.454 820.641 38.354C821.493 39.254 821.919 40.406 821.919 41.81V45.374C821.919 46.79 821.493 47.948 820.641 48.848C819.789 49.736 818.703 50.18 817.383 50.18ZM817.383 48.668C818.271 48.668 818.991 48.374 819.543 47.786C820.095 47.198 820.371 46.394 820.371 45.374V41.81C820.371 40.79 820.095 39.986 819.543 39.398C818.991 38.81 818.271 38.516 817.383 38.516C816.507 38.516 815.793 38.81 815.241 39.398C814.689 39.986 814.413 40.79 814.413 41.81V45.374C814.413 46.394 814.689 47.198 815.241 47.786C815.793 48.374 816.507 48.668 817.383 48.668Z" fill="#606060"/>
<path d="M864 24C864 18.4772 868.477 14 874 14H1274C1279.52 14 1284 18.4772 1284 24V76H864V24Z" fill="#F4F5F7"/>
<rect width="420" height="7" transform="translate(864 14)" fill="#12D8A0"/>
<path d="M893.192 50V37.22H897.548C898.724 37.22 899.654 37.544 900.338 38.192C901.022 38.828 901.364 39.68 901.364 40.748C901.364 41.684 901.082 42.452 900.518 43.052C899.966 43.652 899.192 44.024 898.196 44.168L903.128 50H901.022L896.108 44.186H894.866V50H893.192ZM894.866 42.692H897.35C898.094 42.692 898.67 42.53 899.078 42.206C899.486 41.87 899.69 41.384 899.69 40.748C899.69 40.112 899.486 39.626 899.078 39.29C898.67 38.942 898.094 38.768 897.35 38.768H894.866V42.692ZM908.08 50.18C906.7 50.18 905.578 49.736 904.714 48.848C903.85 47.96 903.418 46.844 903.418 45.5C903.418 44.168 903.856 43.058 904.732 42.17C905.608 41.27 906.73 40.82 908.098 40.82C909.31 40.82 910.324 41.228 911.14 42.044C911.968 42.848 912.382 43.946 912.382 45.338C912.382 45.518 912.376 45.674 912.364 45.806H904.984C905.008 46.646 905.308 47.348 905.884 47.912C906.472 48.476 907.21 48.758 908.098 48.758C909.358 48.758 910.294 48.236 910.906 47.192L912.13 48.038C911.254 49.466 909.904 50.18 908.08 50.18ZM905.092 44.546H910.798C910.678 43.826 910.36 43.256 909.844 42.836C909.34 42.404 908.74 42.188 908.044 42.188C907.336 42.188 906.7 42.404 906.136 42.836C905.584 43.256 905.236 43.826 905.092 44.546ZM917.297 50.18C916.469 50.18 915.743 50.006 915.119 49.658C914.495 49.298 914.045 48.776 913.769 48.092L915.029 47.39C915.197 47.834 915.491 48.182 915.911 48.434C916.331 48.686 916.799 48.812 917.315 48.812C917.759 48.812 918.131 48.704 918.431 48.488C918.731 48.272 918.881 47.978 918.881 47.606C918.881 47.282 918.761 47.012 918.521 46.796C918.293 46.58 917.891 46.382 917.315 46.202L916.415 45.914C914.915 45.482 914.165 44.606 914.165 43.286C914.165 42.542 914.459 41.948 915.047 41.504C915.647 41.048 916.385 40.82 917.261 40.82C918.629 40.82 919.619 41.342 920.231 42.386L919.079 43.178C918.587 42.494 917.963 42.152 917.207 42.152C916.799 42.152 916.445 42.254 916.145 42.458C915.857 42.65 915.713 42.908 915.713 43.232C915.713 43.532 915.803 43.79 915.983 44.006C916.175 44.21 916.511 44.384 916.991 44.528L917.981 44.834C919.613 45.338 920.429 46.22 920.429 47.48C920.429 48.32 920.135 48.98 919.547 49.46C918.971 49.94 918.221 50.18 917.297 50.18ZM926.679 50.18C925.323 50.18 924.195 49.73 923.295 48.83C922.407 47.918 921.963 46.808 921.963 45.5C921.963 44.192 922.407 43.088 923.295 42.188C924.195 41.276 925.323 40.82 926.679 40.82C928.023 40.82 929.139 41.276 930.027 42.188C930.927 43.088 931.377 44.192 931.377 45.5C931.377 46.808 930.927 47.918 930.027 48.83C929.139 49.73 928.023 50.18 926.679 50.18ZM924.411 47.804C924.999 48.428 925.755 48.74 926.679 48.74C927.603 48.74 928.353 48.428 928.929 47.804C929.505 47.18 929.793 46.412 929.793 45.5C929.793 44.588 929.505 43.82 928.929 43.196C928.353 42.572 927.603 42.26 926.679 42.26C925.755 42.26 924.999 42.572 924.411 43.196C923.835 43.82 923.547 44.588 923.547 45.5C923.547 46.412 923.835 47.18 924.411 47.804ZM933.599 50V36.5H935.147V50H933.599ZM940.889 50L936.731 41H938.459L941.537 47.822L944.615 41H946.343L942.185 50H940.889ZM951.674 50.18C950.294 50.18 949.172 49.736 948.308 48.848C947.444 47.96 947.012 46.844 947.012 45.5C947.012 44.168 947.45 43.058 948.326 42.17C949.202 41.27 950.324 40.82 951.692 40.82C952.904 40.82 953.918 41.228 954.734 42.044C955.562 42.848 955.976 43.946 955.976 45.338C955.976 45.518 955.97 45.674 955.958 45.806H948.578C948.602 46.646 948.902 47.348 949.478 47.912C950.066 48.476 950.804 48.758 951.692 48.758C952.952 48.758 953.888 48.236 954.5 47.192L955.724 48.038C954.848 49.466 953.498 50.18 951.674 50.18ZM948.686 44.546H954.392C954.272 43.826 953.954 43.256 953.438 42.836C952.934 42.404 952.334 42.188 951.638 42.188C950.93 42.188 950.294 42.404 949.73 42.836C949.178 43.256 948.83 43.826 948.686 44.546ZM961.881 50.18C960.633 50.18 959.583 49.724 958.731 48.812C957.891 47.9 957.471 46.796 957.471 45.5C957.471 44.204 957.891 43.1 958.731 42.188C959.583 41.276 960.633 40.82 961.881 40.82C962.541 40.82 963.153 40.97 963.717 41.27C964.293 41.558 964.737 41.93 965.049 42.386V36.5H966.597V50H965.049V48.614C964.737 49.07 964.293 49.448 963.717 49.748C963.153 50.036 962.541 50.18 961.881 50.18ZM962.115 48.758C963.003 48.758 963.735 48.446 964.311 47.822C964.887 47.198 965.175 46.424 965.175 45.5C965.175 44.576 964.887 43.802 964.311 43.178C963.735 42.554 963.003 42.242 962.115 42.242C961.215 42.242 960.477 42.554 959.901 43.178C959.325 43.802 959.037 44.576 959.037 45.5C959.037 46.424 959.325 47.198 959.901 47.822C960.477 48.446 961.215 48.758 962.115 48.758Z" fill="#606060"/>
<path d="M1250.88 50.18C1249.55 50.18 1248.47 49.736 1247.63 48.848C1246.79 47.948 1246.37 46.79 1246.37 45.374V41.81C1246.37 40.394 1246.79 39.242 1247.63 38.354C1248.48 37.454 1249.56 37.004 1250.88 37.004C1252.2 37.004 1253.29 37.454 1254.14 38.354C1254.99 39.254 1255.42 40.406 1255.42 41.81V45.374C1255.42 46.79 1254.99 47.948 1254.14 48.848C1253.29 49.736 1252.2 50.18 1250.88 50.18ZM1250.88 48.668C1251.77 48.668 1252.49 48.374 1253.04 47.786C1253.6 47.198 1253.87 46.394 1253.87 45.374V41.81C1253.87 40.79 1253.6 39.986 1253.04 39.398C1252.49 38.81 1251.77 38.516 1250.88 38.516C1250.01 38.516 1249.29 38.81 1248.74 39.398C1248.19 39.986 1247.91 40.79 1247.91 41.81V45.374C1247.91 46.394 1248.19 47.198 1248.74 47.786C1249.29 48.374 1250.01 48.668 1250.88 48.668Z" fill="#606060"/>
<path opacity="0.4" d="M655.118 244.042C654.215 244.042 653.019 244.022 651.53 244.022C647.898 244.022 644.912 241.016 644.912 237.35V230.918C644.912 230.412 644.506 230 644.005 230H633.427C628.492 230 624.5 234.052 624.5 239.018V260.568C624.5 265.778 628.682 270 633.841 270H649.591C654.512 270 658.5 265.974 658.5 261.004V244.942C658.5 244.434 658.096 244.024 657.593 244.026C656.748 244.032 655.734 244.042 655.118 244.042Z" fill="#919191"/>
<path opacity="0.4" d="M649.673 231.135C649.077 230.513 648.031 230.941 648.031 231.803V237.077C648.031 239.289 649.853 241.109 652.065 241.109C653.459 241.125 655.395 241.129 657.039 241.125C657.881 241.123 658.309 240.117 657.725 239.509C655.615 237.315 651.837 233.383 649.673 231.135Z" fill="#919191"/>
<path d="M643.374 251.971L645.816 249.527C646.398 248.947 646.398 248.005 645.816 247.423C645.234 246.841 644.292 246.841 643.71 247.423L641.268 249.863L638.826 247.423C638.244 246.841 637.3 246.841 636.718 247.423C636.136 248.005 636.136 248.947 636.718 249.527L639.162 251.971L636.718 254.413C636.136 254.995 636.136 255.937 636.718 256.517C637.01 256.809 637.39 256.955 637.772 256.955C638.154 256.955 638.534 256.809 638.826 256.517L641.268 254.077L643.71 256.517C644 256.809 644.382 256.955 644.764 256.955C645.144 256.955 645.526 256.809 645.816 256.517C646.398 255.937 646.398 254.995 645.816 254.413L643.374 251.971Z" fill="#919191"/>
<path d="M502.76 310V297.56H498.34V295.8H509V297.56H504.58V310H502.76ZM512.551 310H510.831V295H512.551V301.54C513.231 300.38 514.291 299.8 515.731 299.8C516.864 299.8 517.778 300.167 518.471 300.9C519.164 301.633 519.511 302.613 519.511 303.84V310H517.811V304.1C517.811 303.26 517.598 302.6 517.171 302.12C516.744 301.627 516.171 301.38 515.451 301.38C514.624 301.38 513.931 301.707 513.371 302.36C512.824 303.013 512.551 303.907 512.551 305.04V310ZM527.008 310.2C525.475 310.2 524.228 309.707 523.268 308.72C522.308 307.733 521.828 306.493 521.828 305C521.828 303.52 522.315 302.287 523.288 301.3C524.262 300.3 525.508 299.8 527.028 299.8C528.375 299.8 529.502 300.253 530.408 301.16C531.328 302.053 531.788 303.273 531.788 304.82C531.788 305.02 531.782 305.193 531.768 305.34H523.568C523.595 306.273 523.928 307.053 524.568 307.68C525.222 308.307 526.042 308.62 527.028 308.62C528.428 308.62 529.468 308.04 530.148 306.88L531.508 307.82C530.535 309.407 529.035 310.2 527.008 310.2ZM523.688 303.94H530.028C529.895 303.14 529.542 302.507 528.968 302.04C528.408 301.56 527.742 301.32 526.968 301.32C526.182 301.32 525.475 301.56 524.848 302.04C524.235 302.507 523.848 303.14 523.688 303.94ZM534.229 310V300H535.949V301.94C536.136 301.327 536.496 300.833 537.029 300.46C537.576 300.087 538.149 299.9 538.749 299.9C539.043 299.9 539.303 299.927 539.529 299.98V301.76C539.289 301.653 538.976 301.6 538.589 301.6C537.896 301.6 537.283 301.9 536.749 302.5C536.216 303.1 535.949 303.947 535.949 305.04V310H534.229ZM545.602 310.2C544.069 310.2 542.822 309.707 541.862 308.72C540.902 307.733 540.422 306.493 540.422 305C540.422 303.52 540.909 302.287 541.882 301.3C542.855 300.3 544.102 299.8 545.622 299.8C546.969 299.8 548.095 300.253 549.002 301.16C549.922 302.053 550.382 303.273 550.382 304.82C550.382 305.02 550.375 305.193 550.362 305.34H542.162C542.189 306.273 542.522 307.053 543.162 307.68C543.815 308.307 544.635 308.62 545.622 308.62C547.022 308.62 548.062 308.04 548.742 306.88L550.102 307.82C549.129 309.407 547.629 310.2 545.602 310.2ZM542.282 303.94H548.622C548.489 303.14 548.135 302.507 547.562 302.04C547.002 301.56 546.335 301.32 545.562 301.32C544.775 301.32 544.069 301.56 543.442 302.04C542.829 302.507 542.442 303.14 542.282 303.94ZM559.387 296.98C559.161 297.207 558.874 297.32 558.527 297.32C558.181 297.32 557.887 297.207 557.647 296.98C557.407 296.74 557.287 296.447 557.287 296.1C557.287 295.767 557.407 295.48 557.647 295.24C557.887 295 558.181 294.88 558.527 294.88C558.874 294.88 559.161 295 559.387 295.24C559.614 295.48 559.727 295.767 559.727 296.1C559.727 296.447 559.614 296.74 559.387 296.98ZM557.647 310V300H559.367V310H557.647ZM565.648 310.2C564.728 310.2 563.921 310.007 563.228 309.62C562.534 309.22 562.034 308.64 561.728 307.88L563.128 307.1C563.314 307.593 563.641 307.98 564.108 308.26C564.574 308.54 565.094 308.68 565.668 308.68C566.161 308.68 566.574 308.56 566.908 308.32C567.241 308.08 567.408 307.753 567.408 307.34C567.408 306.98 567.274 306.68 567.008 306.44C566.754 306.2 566.308 305.98 565.668 305.78L564.668 305.46C563.001 304.98 562.168 304.007 562.168 302.54C562.168 301.713 562.494 301.053 563.148 300.56C563.814 300.053 564.634 299.8 565.608 299.8C567.128 299.8 568.228 300.38 568.908 301.54L567.628 302.42C567.081 301.66 566.388 301.28 565.548 301.28C565.094 301.28 564.701 301.393 564.368 301.62C564.048 301.833 563.888 302.12 563.888 302.48C563.888 302.813 563.988 303.1 564.188 303.34C564.401 303.567 564.774 303.76 565.308 303.92L566.408 304.26C568.221 304.82 569.128 305.8 569.128 307.2C569.128 308.133 568.801 308.867 568.148 309.4C567.508 309.933 566.674 310.2 565.648 310.2ZM576.456 310V300H578.176V301.54C578.856 300.38 579.916 299.8 581.356 299.8C582.489 299.8 583.403 300.167 584.096 300.9C584.789 301.633 585.136 302.613 585.136 303.84V310H583.436V304.1C583.436 303.26 583.223 302.6 582.796 302.12C582.369 301.627 581.796 301.38 581.076 301.38C580.249 301.38 579.556 301.707 578.996 302.36C578.449 303.013 578.176 303.907 578.176 305.04V310H576.456ZM592.673 310.2C591.167 310.2 589.913 309.7 588.913 308.7C587.927 307.687 587.433 306.453 587.433 305C587.433 303.547 587.927 302.32 588.913 301.32C589.913 300.307 591.167 299.8 592.673 299.8C594.167 299.8 595.407 300.307 596.393 301.32C597.393 302.32 597.893 303.547 597.893 305C597.893 306.453 597.393 307.687 596.393 308.7C595.407 309.7 594.167 310.2 592.673 310.2ZM590.153 307.56C590.807 308.253 591.647 308.6 592.673 308.6C593.7 308.6 594.533 308.253 595.173 307.56C595.813 306.867 596.133 306.013 596.133 305C596.133 303.987 595.813 303.133 595.173 302.44C594.533 301.747 593.7 301.4 592.673 301.4C591.647 301.4 590.807 301.747 590.153 302.44C589.513 303.133 589.193 303.987 589.193 305C589.193 306.013 589.513 306.867 590.153 307.56ZM608.734 310.1C607.814 310.1 607.074 309.84 606.514 309.32C605.954 308.8 605.674 308.04 605.674 307.04V301.58H603.554V300H605.674V297.22H607.394V300H610.274V301.58H607.394V306.82C607.394 307.447 607.528 307.887 607.794 308.14C608.061 308.393 608.481 308.52 609.054 308.52C609.561 308.52 609.968 308.453 610.274 308.32V309.86C609.794 310.02 609.281 310.1 608.734 310.1ZM614.212 296.98C613.985 297.207 613.698 297.32 613.352 297.32C613.005 297.32 612.712 297.207 612.472 296.98C612.232 296.74 612.112 296.447 612.112 296.1C612.112 295.767 612.232 295.48 612.472 295.24C612.712 295 613.005 294.88 613.352 294.88C613.698 294.88 613.985 295 614.212 295.24C614.438 295.48 614.552 295.767 614.552 296.1C614.552 296.447 614.438 296.74 614.212 296.98ZM612.472 310V300H614.192V310H612.472ZM621.912 310.2C620.405 310.2 619.152 309.7 618.152 308.7C617.165 307.7 616.672 306.467 616.672 305C616.672 303.533 617.165 302.3 618.152 301.3C619.152 300.3 620.405 299.8 621.912 299.8C622.925 299.8 623.832 300.04 624.632 300.52C625.445 301 626.079 301.653 626.532 302.48L625.032 303.32C624.739 302.733 624.319 302.267 623.772 301.92C623.239 301.573 622.619 301.4 621.912 301.4C620.885 301.4 620.045 301.747 619.392 302.44C618.739 303.133 618.412 303.987 618.412 305C618.412 306.013 618.739 306.867 619.392 307.56C620.045 308.253 620.885 308.6 621.912 308.6C622.619 308.6 623.239 308.427 623.772 308.08C624.319 307.733 624.739 307.267 625.032 306.68L626.532 307.52C626.079 308.347 625.445 309 624.632 309.48C623.832 309.96 622.925 310.2 621.912 310.2ZM635.901 310L630.481 305V310H628.761V295H630.481V303.9L634.841 300H637.121L632.201 304.42L638.221 310H635.901ZM643.297 310.2C641.764 310.2 640.517 309.707 639.557 308.72C638.597 307.733 638.117 306.493 638.117 305C638.117 303.52 638.604 302.287 639.577 301.3C640.551 300.3 641.797 299.8 643.317 299.8C644.664 299.8 645.791 300.253 646.697 301.16C647.617 302.053 648.077 303.273 648.077 304.82C648.077 305.02 648.071 305.193 648.057 305.34H639.857C639.884 306.273 640.217 307.053 640.857 307.68C641.511 308.307 642.331 308.62 643.317 308.62C644.717 308.62 645.757 308.04 646.437 306.88L647.797 307.82C646.824 309.407 645.324 310.2 643.297 310.2ZM639.977 303.94H646.317C646.184 303.14 645.831 302.507 645.257 302.04C644.697 301.56 644.031 301.32 643.257 301.32C642.471 301.32 641.764 301.56 641.137 302.04C640.524 302.507 640.137 303.14 639.977 303.94ZM654.262 310.1C653.342 310.1 652.602 309.84 652.042 309.32C651.482 308.8 651.202 308.04 651.202 307.04V301.58H649.082V300H651.202V297.22H652.922V300H655.802V301.58H652.922V306.82C652.922 307.447 653.055 307.887 653.322 308.14C653.588 308.393 654.008 308.52 654.582 308.52C655.088 308.52 655.495 308.453 655.802 308.32V309.86C655.322 310.02 654.808 310.1 654.262 310.1ZM667.263 310.2C665.756 310.2 664.503 309.7 663.503 308.7C662.516 307.687 662.023 306.453 662.023 305C662.023 303.547 662.516 302.32 663.503 301.32C664.503 300.307 665.756 299.8 667.263 299.8C668.756 299.8 669.996 300.307 670.983 301.32C671.983 302.32 672.483 303.547 672.483 305C672.483 306.453 671.983 307.687 670.983 308.7C669.996 309.7 668.756 310.2 667.263 310.2ZM664.743 307.56C665.396 308.253 666.236 308.6 667.263 308.6C668.29 308.6 669.123 308.253 669.763 307.56C670.403 306.867 670.723 306.013 670.723 305C670.723 303.987 670.403 303.133 669.763 302.44C669.123 301.747 668.29 301.4 667.263 301.4C666.236 301.4 665.396 301.747 664.743 302.44C664.103 303.133 663.783 303.987 663.783 305C663.783 306.013 664.103 306.867 664.743 307.56ZM674.952 310V300H676.672V301.54C677.352 300.38 678.412 299.8 679.852 299.8C680.985 299.8 681.899 300.167 682.592 300.9C683.285 301.633 683.632 302.613 683.632 303.84V310H681.932V304.1C681.932 303.26 681.719 302.6 681.292 302.12C680.865 301.627 680.292 301.38 679.572 301.38C678.745 301.38 678.052 301.707 677.492 302.36C676.945 303.013 676.672 303.907 676.672 305.04V310H674.952ZM695.102 310.1C694.182 310.1 693.442 309.84 692.882 309.32C692.322 308.8 692.042 308.04 692.042 307.04V301.58H689.922V300H692.042V297.22H693.762V300H696.642V301.58H693.762V306.82C693.762 307.447 693.895 307.887 694.162 308.14C694.428 308.393 694.848 308.52 695.422 308.52C695.928 308.52 696.335 308.453 696.642 308.32V309.86C696.162 310.02 695.648 310.1 695.102 310.1ZM700.559 310H698.839V295H700.559V301.54C701.239 300.38 702.299 299.8 703.739 299.8C704.872 299.8 705.785 300.167 706.479 300.9C707.172 301.633 707.519 302.613 707.519 303.84V310H705.819V304.1C705.819 303.26 705.605 302.6 705.179 302.12C704.752 301.627 704.179 301.38 703.459 301.38C702.632 301.38 701.939 301.707 701.379 302.36C700.832 303.013 700.559 303.907 700.559 305.04V310ZM712.356 296.98C712.129 297.207 711.843 297.32 711.496 297.32C711.149 297.32 710.856 297.207 710.616 296.98C710.376 296.74 710.256 296.447 710.256 296.1C710.256 295.767 710.376 295.48 710.616 295.24C710.856 295 711.149 294.88 711.496 294.88C711.843 294.88 712.129 295 712.356 295.24C712.583 295.48 712.696 295.767 712.696 296.1C712.696 296.447 712.583 296.74 712.356 296.98ZM710.616 310V300H712.336V310H710.616ZM718.617 310.2C717.697 310.2 716.89 310.007 716.197 309.62C715.503 309.22 715.003 308.64 714.697 307.88L716.097 307.1C716.283 307.593 716.61 307.98 717.077 308.26C717.543 308.54 718.063 308.68 718.637 308.68C719.13 308.68 719.543 308.56 719.877 308.32C720.21 308.08 720.377 307.753 720.377 307.34C720.377 306.98 720.243 306.68 719.977 306.44C719.723 306.2 719.277 305.98 718.637 305.78L717.637 305.46C715.97 304.98 715.137 304.007 715.137 302.54C715.137 301.713 715.463 301.053 716.117 300.56C716.783 300.053 717.603 299.8 718.577 299.8C720.097 299.8 721.197 300.38 721.877 301.54L720.597 302.42C720.05 301.66 719.357 301.28 718.517 301.28C718.063 301.28 717.67 301.393 717.337 301.62C717.017 301.833 716.857 302.12 716.857 302.48C716.857 302.813 716.957 303.1 717.157 303.34C717.37 303.567 717.743 303.76 718.277 303.92L719.377 304.26C721.19 304.82 722.097 305.8 722.097 307.2C722.097 308.133 721.77 308.867 721.117 309.4C720.477 309.933 719.643 310.2 718.617 310.2ZM734.665 310.2C733.931 310.2 733.245 310.04 732.605 309.72C731.978 309.387 731.491 308.967 731.145 308.46V310H729.425V295H731.145V301.54C731.491 301.033 731.978 300.62 732.605 300.3C733.245 299.967 733.931 299.8 734.665 299.8C736.051 299.8 737.211 300.307 738.145 301.32C739.091 302.333 739.565 303.56 739.565 305C739.565 306.44 739.091 307.667 738.145 308.68C737.211 309.693 736.051 310.2 734.665 310.2ZM731.965 307.58C732.605 308.273 733.418 308.62 734.405 308.62C735.391 308.62 736.205 308.273 736.845 307.58C737.485 306.887 737.805 306.027 737.805 305C737.805 303.973 737.485 303.113 736.845 302.42C736.205 301.727 735.391 301.38 734.405 301.38C733.418 301.38 732.605 301.727 731.965 302.42C731.325 303.113 731.005 303.973 731.005 305C731.005 306.027 731.325 306.887 731.965 307.58ZM746.462 310.2C744.956 310.2 743.702 309.7 742.702 308.7C741.716 307.687 741.222 306.453 741.222 305C741.222 303.547 741.716 302.32 742.702 301.32C743.702 300.307 744.956 299.8 746.462 299.8C747.956 299.8 749.196 300.307 750.182 301.32C751.182 302.32 751.682 303.547 751.682 305C751.682 306.453 751.182 307.687 750.182 308.7C749.196 309.7 747.956 310.2 746.462 310.2ZM743.942 307.56C744.596 308.253 745.436 308.6 746.462 308.6C747.489 308.6 748.322 308.253 748.962 307.56C749.602 306.867 749.922 306.013 749.922 305C749.922 303.987 749.602 303.133 748.962 302.44C748.322 301.747 747.489 301.4 746.462 301.4C745.436 301.4 744.596 301.747 743.942 302.44C743.302 303.133 742.982 303.987 742.982 305C742.982 306.013 743.302 306.867 743.942 307.56ZM758.271 310.2C756.885 310.2 755.718 309.693 754.771 308.68C753.838 307.667 753.371 306.44 753.371 305C753.371 303.56 753.838 302.333 754.771 301.32C755.718 300.307 756.885 299.8 758.271 299.8C759.005 299.8 759.685 299.967 760.311 300.3C760.951 300.62 761.445 301.033 761.791 301.54V300H763.511V310H761.791V308.46C761.445 308.967 760.951 309.387 760.311 309.72C759.685 310.04 759.005 310.2 758.271 310.2ZM758.531 308.62C759.518 308.62 760.331 308.273 760.971 307.58C761.611 306.887 761.931 306.027 761.931 305C761.931 303.973 761.611 303.113 760.971 302.42C760.331 301.727 759.518 301.38 758.531 301.38C757.531 301.38 756.711 301.727 756.071 302.42C755.431 303.113 755.111 303.973 755.111 305C755.111 306.027 755.431 306.887 756.071 307.58C756.711 308.273 757.531 308.62 758.531 308.62ZM766.749 310V300H768.469V301.94C768.656 301.327 769.016 300.833 769.549 300.46C770.096 300.087 770.669 299.9 771.269 299.9C771.562 299.9 771.822 299.927 772.049 299.98V301.76C771.809 301.653 771.496 301.6 771.109 301.6C770.416 301.6 769.802 301.9 769.269 302.5C768.736 303.1 768.469 303.947 768.469 305.04V310H766.749ZM777.861 310.2C776.474 310.2 775.308 309.693 774.361 308.68C773.428 307.667 772.961 306.44 772.961 305C772.961 303.56 773.428 302.333 774.361 301.32C775.308 300.307 776.474 299.8 777.861 299.8C778.594 299.8 779.274 299.967 779.901 300.3C780.541 300.62 781.034 301.033 781.381 301.54V295H783.101V310H781.381V308.46C781.034 308.967 780.541 309.387 779.901 309.72C779.274 310.04 778.594 310.2 777.861 310.2ZM778.121 308.62C779.108 308.62 779.921 308.273 780.561 307.58C781.201 306.887 781.521 306.027 781.521 305C781.521 303.973 781.201 303.113 780.561 302.42C779.921 301.727 779.108 301.38 778.121 301.38C777.121 301.38 776.301 301.727 775.661 302.42C775.021 303.113 774.701 303.973 774.701 305C774.701 306.027 775.021 306.887 775.661 307.58C776.301 308.273 777.121 308.62 778.121 308.62Z" fill="#3D3D3D"/>
<g clipPath="url(#clip1_11325_73608)">
<path d="M594 354V348H596V354H602V356H596V362H594V356H588V354H594Z" fill="#4545FE"/>
</g>
<path d="M616.768 360.168C615.34 360.168 614.127 359.673 613.128 358.684C612.129 357.685 611.63 356.467 611.63 355.03C611.63 353.593 612.129 352.379 613.128 351.39C614.127 350.391 615.34 349.892 616.768 349.892C617.711 349.892 618.565 350.107 619.33 350.536C620.095 350.965 620.707 351.553 621.164 352.3L620.072 352.958C619.717 352.389 619.255 351.941 618.686 351.614C618.117 351.287 617.477 351.124 616.768 351.124C615.685 351.124 614.775 351.502 614.038 352.258C613.31 353.014 612.946 353.938 612.946 355.03C612.946 356.122 613.31 357.046 614.038 357.802C614.775 358.558 615.685 358.936 616.768 358.936C617.477 358.936 618.117 358.773 618.686 358.446C619.255 358.119 619.717 357.671 620.072 357.102L621.164 357.76C620.707 358.507 620.095 359.095 619.33 359.524C618.565 359.953 617.711 360.168 616.768 360.168ZM622.702 360V353H623.906V354.358C624.037 353.929 624.289 353.583 624.662 353.322C625.045 353.061 625.446 352.93 625.866 352.93C626.072 352.93 626.254 352.949 626.412 352.986V354.232C626.244 354.157 626.025 354.12 625.754 354.12C625.269 354.12 624.84 354.33 624.466 354.75C624.093 355.17 623.906 355.763 623.906 356.528V360H622.702ZM630.663 360.14C629.59 360.14 628.717 359.795 628.045 359.104C627.373 358.413 627.037 357.545 627.037 356.5C627.037 355.464 627.378 354.601 628.059 353.91C628.741 353.21 629.613 352.86 630.677 352.86C631.62 352.86 632.409 353.177 633.043 353.812C633.687 354.437 634.009 355.291 634.009 356.374C634.009 356.514 634.005 356.635 633.995 356.738H628.255C628.274 357.391 628.507 357.937 628.955 358.376C629.413 358.815 629.987 359.034 630.677 359.034C631.657 359.034 632.385 358.628 632.861 357.816L633.813 358.474C633.132 359.585 632.082 360.14 630.663 360.14ZM628.339 355.758H632.777C632.684 355.198 632.437 354.755 632.035 354.428C631.643 354.092 631.177 353.924 630.635 353.924C630.085 353.924 629.59 354.092 629.151 354.428C628.722 354.755 628.451 355.198 628.339 355.758ZM638.602 360.14C637.631 360.14 636.815 359.785 636.152 359.076C635.499 358.367 635.172 357.508 635.172 356.5C635.172 355.492 635.499 354.633 636.152 353.924C636.815 353.215 637.631 352.86 638.602 352.86C639.115 352.86 639.591 352.977 640.03 353.21C640.478 353.434 640.823 353.723 641.066 354.078V353H642.27V360H641.066V358.922C640.823 359.277 640.478 359.571 640.03 359.804C639.591 360.028 639.115 360.14 638.602 360.14ZM638.784 359.034C639.475 359.034 640.044 358.791 640.492 358.306C640.94 357.821 641.164 357.219 641.164 356.5C641.164 355.781 640.94 355.179 640.492 354.694C640.044 354.209 639.475 353.966 638.784 353.966C638.084 353.966 637.51 354.209 637.062 354.694C636.614 355.179 636.39 355.781 636.39 356.5C636.39 357.219 636.614 357.821 637.062 358.306C637.51 358.791 638.084 359.034 638.784 359.034ZM647.252 360.07C646.608 360.07 646.09 359.888 645.698 359.524C645.306 359.16 645.11 358.628 645.11 357.928V354.106H643.626V353H645.11V351.054H646.314V353H648.33V354.106H646.314V357.774C646.314 358.213 646.408 358.521 646.594 358.698C646.781 358.875 647.075 358.964 647.476 358.964C647.831 358.964 648.116 358.917 648.33 358.824V359.902C647.994 360.014 647.635 360.07 647.252 360.07ZM652.853 360.14C651.779 360.14 650.907 359.795 650.235 359.104C649.563 358.413 649.227 357.545 649.227 356.5C649.227 355.464 649.567 354.601 650.249 353.91C650.93 353.21 651.803 352.86 652.867 352.86C653.809 352.86 654.598 353.177 655.233 353.812C655.877 354.437 656.199 355.291 656.199 356.374C656.199 356.514 656.194 356.635 656.185 356.738H650.445C650.463 357.391 650.697 357.937 651.145 358.376C651.602 358.815 652.176 359.034 652.867 359.034C653.847 359.034 654.575 358.628 655.051 357.816L656.003 358.474C655.321 359.585 654.271 360.14 652.853 360.14ZM650.529 355.758H654.967C654.873 355.198 654.626 354.755 654.225 354.428C653.833 354.092 653.366 353.924 652.825 353.924C652.274 353.924 651.779 354.092 651.341 354.428C650.911 354.755 650.641 355.198 650.529 355.758ZM663.018 360V351.292H659.924V350.06H667.386V351.292H664.292V360H663.018ZM669.899 350.886C669.74 351.045 669.54 351.124 669.297 351.124C669.054 351.124 668.849 351.045 668.681 350.886C668.513 350.718 668.429 350.513 668.429 350.27C668.429 350.037 668.513 349.836 668.681 349.668C668.849 349.5 669.054 349.416 669.297 349.416C669.54 349.416 669.74 349.5 669.899 349.668C670.058 349.836 670.137 350.037 670.137 350.27C670.137 350.513 670.058 350.718 669.899 350.886ZM668.681 360V353H669.885V360H668.681ZM675.289 360.14C674.235 360.14 673.357 359.79 672.657 359.09C671.967 358.39 671.621 357.527 671.621 356.5C671.621 355.473 671.967 354.61 672.657 353.91C673.357 353.21 674.235 352.86 675.289 352.86C675.999 352.86 676.633 353.028 677.193 353.364C677.763 353.7 678.206 354.157 678.523 354.736L677.473 355.324C677.268 354.913 676.974 354.587 676.591 354.344C676.218 354.101 675.784 353.98 675.289 353.98C674.571 353.98 673.983 354.223 673.525 354.708C673.068 355.193 672.839 355.791 672.839 356.5C672.839 357.209 673.068 357.807 673.525 358.292C673.983 358.777 674.571 359.02 675.289 359.02C675.784 359.02 676.218 358.899 676.591 358.656C676.974 358.413 677.268 358.087 677.473 357.676L678.523 358.264C678.206 358.843 677.763 359.3 677.193 359.636C676.633 359.972 675.999 360.14 675.289 360.14ZM685.081 360L681.287 356.5V360H680.083V349.5H681.287V355.73L684.339 353H685.935L682.491 356.094L686.705 360H685.081ZM690.259 360.14C689.186 360.14 688.313 359.795 687.641 359.104C686.969 358.413 686.633 357.545 686.633 356.5C686.633 355.464 686.974 354.601 687.655 353.91C688.336 353.21 689.209 352.86 690.273 352.86C691.216 352.86 692.004 353.177 692.639 353.812C693.283 354.437 693.605 355.291 693.605 356.374C693.605 356.514 693.6 356.635 693.591 356.738H687.851C687.87 357.391 688.103 357.937 688.551 358.376C689.008 358.815 689.582 359.034 690.273 359.034C691.253 359.034 691.981 358.628 692.457 357.816L693.409 358.474C692.728 359.585 691.678 360.14 690.259 360.14ZM687.935 355.758H692.373C692.28 355.198 692.032 354.755 691.631 354.428C691.239 354.092 690.772 353.924 690.231 353.924C689.68 353.924 689.186 354.092 688.747 354.428C688.318 354.755 688.047 355.198 687.935 355.758ZM697.934 360.07C697.29 360.07 696.772 359.888 696.38 359.524C695.988 359.16 695.792 358.628 695.792 357.928V354.106H694.308V353H695.792V351.054H696.996V353H699.012V354.106H696.996V357.774C696.996 358.213 697.089 358.521 697.276 358.698C697.463 358.875 697.757 358.964 698.158 358.964C698.513 358.964 698.797 358.917 699.012 358.824V359.902C698.676 360.014 698.317 360.07 697.934 360.07Z" fill="#4545FE"/>
<rect x="572.5" y="335.5" width="138" height="39" rx="11.5" stroke="#4545FE"/>
</g>
<defs>
<clipPath id="clip0_11325_73608">
<rect width="1283" height="796" rx="12" fill="white"/>
</clipPath>
<clipPath id="clip1_11325_73608">
<rect width="24" height="24" fill="white" transform="translate(583 343)"/>
</clipPath>
</defs>
</svg>
