<svg width="16" height="16" viewBox="0 0 16 16" fill="none" xmlns="http://www.w3.org/2000/svg">
<path fill-rule="evenodd" clip-rule="evenodd" d="M11.2838 6.8005C11.0078 6.8005 10.7838 6.5765 10.7838 6.3005V4.86916C10.7838 3.47183 9.64713 2.33516 8.24979 2.33516H8.23913C7.56379 2.33516 6.93113 2.59516 6.45312 3.06916C5.97179 3.54516 5.70579 4.1805 5.70312 4.85783V6.3005C5.70312 6.5765 5.47913 6.8005 5.20312 6.8005C4.92713 6.8005 4.70312 6.5765 4.70312 6.3005V4.86916C4.70713 3.90916 5.07846 3.02316 5.74846 2.35916C6.41913 1.6945 7.30446 1.30983 8.25179 1.33516C10.1985 1.33516 11.7838 2.9205 11.7838 4.86916V6.3005C11.7838 6.5765 11.5598 6.8005 11.2838 6.8005Z" fill="white"/>
<path fill-rule="evenodd" clip-rule="evenodd" d="M5.69597 6.75293C4.5773 6.75293 3.66797 7.66226 3.66797 8.78093V11.6403C3.66797 12.7589 4.5773 13.6683 5.69597 13.6683H10.79C11.908 13.6683 12.818 12.7589 12.818 11.6403V8.78093C12.818 7.66226 11.908 6.75293 10.79 6.75293H5.69597ZM10.79 14.6683H5.69597C4.02597 14.6683 2.66797 13.3103 2.66797 11.6403V8.78093C2.66797 7.11093 4.02597 5.75293 5.69597 5.75293H10.79C12.46 5.75293 13.818 7.11093 13.818 8.78093V11.6403C13.818 13.3103 12.46 14.6683 10.79 14.6683Z" fill="white"/>
<path fill-rule="evenodd" clip-rule="evenodd" d="M8.24219 11.4504C7.96619 11.4504 7.74219 11.2264 7.74219 10.9504V9.46973C7.74219 9.19373 7.96619 8.96973 8.24219 8.96973C8.51819 8.96973 8.74219 9.19373 8.74219 9.46973V10.9504C8.74219 11.2264 8.51819 11.4504 8.24219 11.4504Z" fill="white"/>
</svg>
