<svg width="30" height="29" viewBox="0 0 30 29" fill="none" xmlns="http://www.w3.org/2000/svg">
<path fill-rule="evenodd" clip-rule="evenodd" d="M16.8485 6.0629H20.4865C24.8591 6.0629 26.9921 8.39735 26.9803 13.1848V18.9557C26.9803 23.5298 24.16 26.3501 19.574 26.3501H10.6747C6.11242 26.3501 3.28027 23.5298 3.28027 18.9439V10.0445C3.28027 5.1386 5.46067 2.6501 9.76222 2.6501H11.6345C12.7378 2.63825 13.7675 3.1478 14.443 4.01285L15.4858 5.3993C15.8176 5.81405 16.3153 6.0629 16.8485 6.0629ZM9.64375 18.3987H20.6168C21.1027 18.3987 21.4937 17.9958 21.4937 17.5099C21.4937 17.0122 21.1027 16.6212 20.6168 16.6212H9.64375C9.14605 16.6212 8.755 17.0122 8.755 17.5099C8.755 17.9958 9.14605 18.3987 9.64375 18.3987Z" fill="#4545FE"/>
</svg>
