<svg width="13" height="14" viewBox="0 0 13 14" fill="none" xmlns="http://www.w3.org/2000/svg">
<g id="Lock">
<path id="Lock_2" fill-rule="evenodd" clip-rule="evenodd" d="M10.2801 3.62956V4.65179C11.4284 5.0102 12.265 6.04965 12.265 7.29116V10.5824C12.265 12.1194 10.9907 13.3656 9.41979 13.3656H3.77751C2.20588 13.3656 0.931641 12.1194 0.931641 10.5824V7.29116C0.931641 6.04965 1.76894 5.0102 2.9165 4.65179V3.62956C2.92327 1.64208 4.56942 0.0322266 6.58815 0.0322266C8.63397 0.0322266 10.2801 1.64208 10.2801 3.62956ZM6.60191 1.19108C7.97709 1.19108 9.09484 2.28419 9.09484 3.62906V4.50752H4.10221V3.61581C4.10899 2.27757 5.22674 1.19108 6.60191 1.19108ZM7.19135 9.66917C7.19135 9.9938 6.92716 10.2522 6.59522 10.2522C6.27006 10.2522 6.00586 9.9938 6.00586 9.66917V8.19844C6.00586 7.88044 6.27006 7.62207 6.59522 7.62207C6.92716 7.62207 7.19135 7.88044 7.19135 8.19844V9.66917Z" fill="#191919"/>
</g>
</svg>
