<svg xmlns="http://www.w3.org/2000/svg" width="24" height="24" viewBox="0 0 24 24" fill="none">
<path d="M2 9.75C1.59 9.75 1.25 9.41 1.25 9V6.5C1.25 3.6 3.61 1.25 6.5 1.25H9C9.41 1.25 9.75 1.59 9.75 2C9.75 2.41 9.41 2.75 9 2.75H6.5C4.43 2.75 2.75 4.43 2.75 6.5V9C2.75 9.41 2.41 9.75 2 9.75Z" fill="#3D8BA6"/>
<path d="M22 9.75C21.59 9.75 21.25 9.41 21.25 9V6.5C21.25 4.43 19.57 2.75 17.5 2.75H15C14.59 2.75 14.25 2.41 14.25 2C14.25 1.59 14.59 1.25 15 1.25H17.5C20.39 1.25 22.75 3.6 22.75 6.5V9C22.75 9.41 22.41 9.75 22 9.75Z" fill="#3D8BA6"/>
<path d="M17.5 22.75H16C15.59 22.75 15.25 22.41 15.25 22C15.25 21.59 15.59 21.25 16 21.25H17.5C19.57 21.25 21.25 19.57 21.25 17.5V16C21.25 15.59 21.59 15.25 22 15.25C22.41 15.25 22.75 15.59 22.75 16V17.5C22.75 20.4 20.39 22.75 17.5 22.75Z" fill="#3D8BA6"/>
<path d="M9 22.75H6.5C3.61 22.75 1.25 20.4 1.25 17.5V15C1.25 14.59 1.59 14.25 2 14.25C2.41 14.25 2.75 14.59 2.75 15V17.5C2.75 19.57 4.43 21.25 6.5 21.25H9C9.41 21.25 9.75 21.59 9.75 22C9.75 22.41 9.41 22.75 9 22.75Z" fill="#3D8BA6"/>
<path d="M8.49914 11.3811C10.0897 11.3811 11.3791 10.0917 11.3791 8.50109C11.3791 6.91051 10.0897 5.62109 8.49914 5.62109C6.90856 5.62109 5.61914 6.91051 5.61914 8.50109C5.61914 10.0917 6.90856 11.3811 8.49914 11.3811Z" fill="#3D8BA6"/>
<path d="M7.49914 18.3811C8.53744 18.3811 9.37914 17.5394 9.37914 16.5011C9.37914 15.4628 8.53744 14.6211 7.49914 14.6211C6.46085 14.6211 5.61914 15.4628 5.61914 16.5011C5.61914 17.5394 6.46085 18.3811 7.49914 18.3811Z" fill="#3D8BA6"/>
<path d="M16.4991 9.38109C17.5374 9.38109 18.3791 8.53939 18.3791 7.50109C18.3791 6.4628 17.5374 5.62109 16.4991 5.62109C15.4608 5.62109 14.6191 6.4628 14.6191 7.50109C14.6191 8.53939 15.4608 9.38109 16.4991 9.38109Z" fill="#3D8BA6"/>
<path d="M15.4991 18.3811C17.0897 18.3811 18.3791 17.0917 18.3791 15.5011C18.3791 13.9105 17.0897 12.6211 15.4991 12.6211C13.9086 12.6211 12.6191 13.9105 12.6191 15.5011C12.6191 17.0917 13.9086 18.3811 15.4991 18.3811Z" fill="#3D8BA6"/>
</svg>