<svg width="710" height="72" viewBox="0 0 710 72" fill="none" xmlns="http://www.w3.org/2000/svg">
<path d="M157.493 41V36.8L153.727 31.06H155.645L158.305 35.176L160.979 31.06H162.911L159.131 36.814V41H157.493ZM168.169 40.09C167.469 40.79 166.601 41.14 165.565 41.14C164.529 41.14 163.657 40.79 162.947 40.09C162.247 39.3807 161.897 38.5173 161.897 37.5C161.897 36.4827 162.247 35.624 162.947 34.924C163.657 34.2147 164.529 33.86 165.565 33.86C166.601 33.86 167.469 34.2147 168.169 34.924C168.879 35.624 169.233 36.4827 169.233 37.5C169.233 38.5173 168.879 39.3807 168.169 40.09ZM165.565 39.712C166.172 39.712 166.671 39.502 167.063 39.082C167.465 38.6527 167.665 38.1253 167.665 37.5C167.665 36.8747 167.465 36.352 167.063 35.932C166.671 35.5027 166.172 35.288 165.565 35.288C164.949 35.288 164.441 35.5027 164.039 35.932C163.647 36.352 163.451 36.8747 163.451 37.5C163.451 38.1253 163.647 38.6527 164.039 39.082C164.441 39.502 164.949 39.712 165.565 39.712ZM173.288 41.14C172.485 41.14 171.851 40.874 171.384 40.342C170.917 39.8007 170.684 39.082 170.684 38.186V34H172.224V37.934C172.224 38.494 172.345 38.9373 172.588 39.264C172.831 39.5813 173.176 39.74 173.624 39.74C174.147 39.74 174.562 39.544 174.87 39.152C175.178 38.7507 175.332 38.1813 175.332 37.444V34H176.872V41H175.332V40.048C174.921 40.776 174.24 41.14 173.288 41.14ZM181.016 32.866L179.504 35.26H178.552L179.532 33.216C179.336 33.1227 179.168 32.978 179.028 32.782C178.898 32.5767 178.832 32.3527 178.832 32.11C178.832 31.774 178.949 31.4893 179.182 31.256C179.425 31.0133 179.71 30.892 180.036 30.892C180.372 30.892 180.657 31.0133 180.89 31.256C181.133 31.4893 181.254 31.774 181.254 32.11C181.254 32.3713 181.175 32.6233 181.016 32.866ZM182.444 41V34H183.984V35.246C184.115 34.854 184.353 34.5367 184.698 34.294C185.053 34.0513 185.431 33.93 185.832 33.93C186.075 33.93 186.276 33.9487 186.434 33.986V35.568C186.21 35.484 185.954 35.442 185.664 35.442C185.198 35.442 184.801 35.6333 184.474 36.016C184.148 36.3893 183.984 36.912 183.984 37.584V41H182.444ZM190.68 41.14C189.616 41.14 188.739 40.7993 188.048 40.118C187.367 39.4367 187.026 38.564 187.026 37.5C187.026 36.464 187.372 35.6007 188.062 34.91C188.753 34.21 189.626 33.86 190.68 33.86C191.651 33.86 192.454 34.168 193.088 34.784C193.732 35.4 194.054 36.2493 194.054 37.332C194.054 37.5187 194.05 37.6867 194.04 37.836H188.538C188.576 38.4053 188.795 38.8673 189.196 39.222C189.598 39.5673 190.097 39.74 190.694 39.74C191.59 39.74 192.258 39.3853 192.696 38.676L193.872 39.516C193.2 40.5987 192.136 41.14 190.68 41.14ZM188.608 36.716H192.5C192.416 36.2307 192.197 35.8527 191.842 35.582C191.497 35.302 191.091 35.162 190.624 35.162C190.139 35.162 189.705 35.2973 189.322 35.568C188.949 35.8387 188.711 36.2213 188.608 36.716ZM202.124 41.14C201.07 41.14 200.188 40.7947 199.478 40.104C198.778 39.404 198.428 38.536 198.428 37.5C198.428 36.464 198.778 35.6007 199.478 34.91C200.188 34.21 201.07 33.86 202.124 33.86C202.843 33.86 203.487 34.0327 204.056 34.378C204.635 34.7233 205.078 35.1947 205.386 35.792L204.042 36.52C203.865 36.1467 203.608 35.848 203.272 35.624C202.936 35.4 202.554 35.288 202.124 35.288C201.508 35.288 201 35.5027 200.598 35.932C200.197 36.352 199.996 36.8747 199.996 37.5C199.996 38.1253 200.197 38.6527 200.598 39.082C201 39.502 201.508 39.712 202.124 39.712C202.554 39.712 202.936 39.6 203.272 39.376C203.608 39.152 203.865 38.8533 204.042 38.48L205.386 39.208C205.078 39.8053 204.635 40.2767 204.056 40.622C203.487 40.9673 202.843 41.14 202.124 41.14ZM209.3 41.14C208.497 41.14 207.862 40.874 207.396 40.342C206.929 39.8007 206.696 39.082 206.696 38.186V34H208.236V37.934C208.236 38.494 208.357 38.9373 208.6 39.264C208.842 39.5813 209.188 39.74 209.636 39.74C210.158 39.74 210.574 39.544 210.882 39.152C211.19 38.7507 211.344 38.1813 211.344 37.444V34H212.884V41H211.344V40.048C210.933 40.776 210.252 41.14 209.3 41.14ZM214.956 41V34H216.496V35.246C216.627 34.854 216.865 34.5367 217.21 34.294C217.565 34.0513 217.943 33.93 218.344 33.93C218.587 33.93 218.787 33.9487 218.946 33.986V35.568C218.722 35.484 218.465 35.442 218.176 35.442C217.709 35.442 217.313 35.6333 216.986 36.016C216.659 36.3893 216.496 36.912 216.496 37.584V41H214.956ZM220.274 41V34H221.814V35.246C221.945 34.854 222.183 34.5367 222.528 34.294C222.883 34.0513 223.261 33.93 223.662 33.93C223.905 33.93 224.106 33.9487 224.264 33.986V35.568C224.04 35.484 223.784 35.442 223.494 35.442C223.028 35.442 222.631 35.6333 222.304 36.016C221.978 36.3893 221.814 36.912 221.814 37.584V41H220.274ZM228.511 41.14C227.447 41.14 226.569 40.7993 225.879 40.118C225.197 39.4367 224.857 38.564 224.857 37.5C224.857 36.464 225.202 35.6007 225.893 34.91C226.583 34.21 227.456 33.86 228.511 33.86C229.481 33.86 230.284 34.168 230.919 34.784C231.563 35.4 231.885 36.2493 231.885 37.332C231.885 37.5187 231.88 37.6867 231.871 37.836H226.369C226.406 38.4053 226.625 38.8673 227.027 39.222C227.428 39.5673 227.927 39.74 228.525 39.74C229.421 39.74 230.088 39.3853 230.527 38.676L231.703 39.516C231.031 40.5987 229.967 41.14 228.511 41.14ZM226.439 36.716H230.331C230.247 36.2307 230.027 35.8527 229.673 35.582C229.327 35.302 228.921 35.162 228.455 35.162C227.969 35.162 227.535 35.2973 227.153 35.568C226.779 35.8387 226.541 36.2213 226.439 36.716ZM233.468 41V34H235.008V34.952C235.446 34.224 236.156 33.86 237.136 33.86C237.948 33.86 238.596 34.126 239.082 34.658C239.567 35.19 239.81 35.8993 239.81 36.786V41H238.27V37.038C238.27 36.478 238.139 36.044 237.878 35.736C237.616 35.4187 237.262 35.26 236.814 35.26C236.282 35.26 235.848 35.4607 235.512 35.862C235.176 36.2633 235.008 36.828 235.008 37.556V41H233.468ZM244.736 41.07C244.027 41.07 243.448 40.874 243 40.482C242.561 40.0807 242.342 39.502 242.342 38.746V35.372H240.886V34H242.342V32.054H243.882V34H245.884V35.372H243.882V38.494C243.882 38.9233 243.975 39.2313 244.162 39.418C244.349 39.5953 244.647 39.684 245.058 39.684C245.394 39.684 245.669 39.6373 245.884 39.544V40.916C245.548 41.0187 245.165 41.07 244.736 41.07ZM247.345 41V30.5H248.885V41H247.345ZM253.194 43.926H251.5L252.998 40.622L249.988 34H251.682L253.824 38.956L255.98 34H257.688L253.194 43.926ZM261.741 41V34H263.281V34.952C263.72 34.224 264.429 33.86 265.409 33.86C266.221 33.86 266.87 34.126 267.355 34.658C267.84 35.19 268.083 35.8993 268.083 36.786V41H266.543V37.038C266.543 36.478 266.412 36.044 266.151 35.736C265.89 35.4187 265.535 35.26 265.087 35.26C264.555 35.26 264.121 35.4607 263.785 35.862C263.449 36.2633 263.281 36.828 263.281 37.556V41H261.741ZM275.822 40.09C275.122 40.79 274.254 41.14 273.218 41.14C272.182 41.14 271.309 40.79 270.6 40.09C269.9 39.3807 269.55 38.5173 269.55 37.5C269.55 36.4827 269.9 35.624 270.6 34.924C271.309 34.2147 272.182 33.86 273.218 33.86C274.254 33.86 275.122 34.2147 275.822 34.924C276.531 35.624 276.886 36.4827 276.886 37.5C276.886 38.5173 276.531 39.3807 275.822 40.09ZM273.218 39.712C273.824 39.712 274.324 39.502 274.716 39.082C275.117 38.6527 275.318 38.1253 275.318 37.5C275.318 36.8747 275.117 36.352 274.716 35.932C274.324 35.5027 273.824 35.288 273.218 35.288C272.602 35.288 272.093 35.5027 271.692 35.932C271.3 36.352 271.104 36.8747 271.104 37.5C271.104 38.1253 271.3 38.6527 271.692 39.082C272.093 39.502 272.602 39.712 273.218 39.712ZM281.336 41.07C280.626 41.07 280.048 40.874 279.6 40.482C279.161 40.0807 278.942 39.502 278.942 38.746V35.372H277.486V34H278.942V32.054H280.482V34H282.484V35.372H280.482V38.494C280.482 38.9233 280.575 39.2313 280.762 39.418C280.948 39.5953 281.247 39.684 281.658 39.684C281.994 39.684 282.269 39.6373 282.484 39.544V40.916C282.148 41.0187 281.765 41.07 281.336 41.07ZM293.007 40.09C292.307 40.79 291.439 41.14 290.403 41.14C289.367 41.14 288.494 40.79 287.785 40.09C287.085 39.3807 286.735 38.5173 286.735 37.5C286.735 36.4827 287.085 35.624 287.785 34.924C288.494 34.2147 289.367 33.86 290.403 33.86C291.439 33.86 292.307 34.2147 293.007 34.924C293.716 35.624 294.071 36.4827 294.071 37.5C294.071 38.5173 293.716 39.3807 293.007 40.09ZM290.403 39.712C291.01 39.712 291.509 39.502 291.901 39.082C292.302 38.6527 292.503 38.1253 292.503 37.5C292.503 36.8747 292.302 36.352 291.901 35.932C291.509 35.5027 291.01 35.288 290.403 35.288C289.787 35.288 289.278 35.5027 288.877 35.932C288.485 36.352 288.289 36.8747 288.289 37.5C288.289 38.1253 288.485 38.6527 288.877 39.082C289.278 39.502 289.787 39.712 290.403 39.712ZM295.62 41V34H297.16V34.952C297.599 34.224 298.308 33.86 299.288 33.86C300.1 33.86 300.749 34.126 301.234 34.658C301.719 35.19 301.962 35.8993 301.962 36.786V41H300.422V37.038C300.422 36.478 300.291 36.044 300.03 35.736C299.769 35.4187 299.414 35.26 298.966 35.26C298.434 35.26 298 35.4607 297.664 35.862C297.328 36.2633 297.16 36.828 297.16 37.556V41H295.62ZM310.097 41.14C309.145 41.14 308.343 40.7853 307.689 40.076C307.045 39.3667 306.723 38.508 306.723 37.5C306.723 36.492 307.045 35.6333 307.689 34.924C308.343 34.2147 309.145 33.86 310.097 33.86C310.573 33.86 311.012 33.9673 311.413 34.182C311.815 34.3873 312.123 34.6393 312.337 34.938V34H313.877V41H312.337V40.062C312.123 40.3607 311.815 40.6173 311.413 40.832C311.012 41.0373 310.573 41.14 310.097 41.14ZM308.879 39.096C309.271 39.5253 309.771 39.74 310.377 39.74C310.984 39.74 311.483 39.5253 311.875 39.096C312.267 38.6667 312.463 38.1347 312.463 37.5C312.463 36.8653 312.267 36.3333 311.875 35.904C311.483 35.4747 310.984 35.26 310.377 35.26C309.771 35.26 309.271 35.4747 308.879 35.904C308.487 36.3333 308.291 36.8653 308.291 37.5C308.291 38.1347 308.487 38.6667 308.879 39.096ZM315.964 41V34H317.504V34.952C317.942 34.224 318.652 33.86 319.632 33.86C320.444 33.86 321.092 34.126 321.578 34.658C322.063 35.19 322.306 35.8993 322.306 36.786V41H320.766V37.038C320.766 36.478 320.635 36.044 320.374 35.736C320.112 35.4187 319.758 35.26 319.31 35.26C318.778 35.26 318.344 35.4607 318.008 35.862C317.672 36.2633 317.504 36.828 317.504 37.556V41H315.964ZM326.352 43.926H324.658L326.156 40.622L323.146 34H324.84L326.982 38.956L329.138 34H330.846L326.352 43.926ZM336.439 43.926H334.899V34H336.439V34.938C336.654 34.6393 336.962 34.3873 337.363 34.182C337.774 33.9673 338.217 33.86 338.693 33.86C339.645 33.86 340.443 34.2147 341.087 34.924C341.741 35.6333 342.067 36.492 342.067 37.5C342.067 38.508 341.741 39.3667 341.087 40.076C340.443 40.7853 339.645 41.14 338.693 41.14C338.217 41.14 337.774 41.0373 337.363 40.832C336.962 40.6173 336.654 40.3607 336.439 40.062V43.926ZM338.413 39.74C339.02 39.74 339.519 39.5253 339.911 39.096C340.303 38.6667 340.499 38.1347 340.499 37.5C340.499 36.8653 340.303 36.3333 339.911 35.904C339.519 35.4747 339.02 35.26 338.413 35.26C337.797 35.26 337.293 35.4747 336.901 35.904C336.509 36.3333 336.313 36.8653 336.313 37.5C336.313 38.1347 336.509 38.6667 336.901 39.096C337.293 39.5253 337.797 39.74 338.413 39.74ZM343.636 41V30.5H345.176V41H343.636ZM350.115 41.14C349.163 41.14 348.36 40.7853 347.707 40.076C347.063 39.3667 346.741 38.508 346.741 37.5C346.741 36.492 347.063 35.6333 347.707 34.924C348.36 34.2147 349.163 33.86 350.115 33.86C350.591 33.86 351.03 33.9673 351.431 34.182C351.832 34.3873 352.14 34.6393 352.355 34.938V34H353.895V41H352.355V40.062C352.14 40.3607 351.832 40.6173 351.431 40.832C351.03 41.0373 350.591 41.14 350.115 41.14ZM348.897 39.096C349.289 39.5253 349.788 39.74 350.395 39.74C351.002 39.74 351.501 39.5253 351.893 39.096C352.285 38.6667 352.481 38.1347 352.481 37.5C352.481 36.8653 352.285 36.3333 351.893 35.904C351.501 35.4747 351.002 35.26 350.395 35.26C349.788 35.26 349.289 35.4747 348.897 35.904C348.505 36.3333 348.309 36.8653 348.309 37.5C348.309 38.1347 348.505 38.6667 348.897 39.096ZM355.981 41V34H357.521V34.952C357.96 34.224 358.669 33.86 359.649 33.86C360.461 33.86 361.11 34.126 361.595 34.658C362.081 35.19 362.323 35.8993 362.323 36.786V41H360.783V37.038C360.783 36.478 360.653 36.044 360.391 35.736C360.13 35.4187 359.775 35.26 359.327 35.26C358.795 35.26 358.361 35.4607 358.025 35.862C357.689 36.2633 357.521 36.828 357.521 37.556V41H355.981ZM365.106 41.112C364.779 41.112 364.494 40.9953 364.252 40.762C364.018 40.5193 363.902 40.23 363.902 39.894C363.902 39.5673 364.018 39.2827 364.252 39.04C364.494 38.7973 364.779 38.676 365.106 38.676C365.442 38.676 365.726 38.7973 365.96 39.04C366.202 39.2827 366.324 39.5673 366.324 39.894C366.324 40.23 366.202 40.5193 365.96 40.762C365.726 40.9953 365.442 41.112 365.106 41.112ZM381.225 41L376.395 36.352V41H374.771V31.06H376.395V35.344L380.385 31.06H382.457L378.033 35.82L383.437 41H381.225ZM384.902 32.474C384.622 32.474 384.379 32.376 384.174 32.18C383.968 31.9747 383.866 31.7273 383.866 31.438C383.866 31.158 383.968 30.92 384.174 30.724C384.379 30.5187 384.622 30.416 384.902 30.416C385.191 30.416 385.434 30.5187 385.63 30.724C385.826 30.92 385.924 31.158 385.924 31.438C385.924 31.7273 385.826 31.9747 385.63 32.18C385.434 32.376 385.191 32.474 384.902 32.474ZM384.132 41V34H385.672V41H384.132ZM387.741 41V34H389.281V34.952C389.72 34.224 390.429 33.86 391.409 33.86C392.221 33.86 392.87 34.126 393.355 34.658C393.84 35.19 394.083 35.8993 394.083 36.786V41H392.543V37.038C392.543 36.478 392.412 36.044 392.151 35.736C391.89 35.4187 391.535 35.26 391.087 35.26C390.555 35.26 390.121 35.4607 389.785 35.862C389.449 36.2633 389.281 36.828 389.281 37.556V41H387.741ZM398.924 41.14C397.972 41.14 397.169 40.7853 396.516 40.076C395.872 39.3667 395.55 38.508 395.55 37.5C395.55 36.492 395.872 35.6333 396.516 34.924C397.169 34.2147 397.972 33.86 398.924 33.86C399.4 33.86 399.838 33.9673 400.24 34.182C400.641 34.3873 400.949 34.6393 401.164 34.938V30.5H402.704V41H401.164V40.062C400.949 40.3607 400.641 40.6173 400.24 40.832C399.838 41.0373 399.4 41.14 398.924 41.14ZM397.706 39.096C398.098 39.5253 398.597 39.74 399.204 39.74C399.81 39.74 400.31 39.5253 400.702 39.096C401.094 38.6667 401.29 38.1347 401.29 37.5C401.29 36.8653 401.094 36.3333 400.702 35.904C400.31 35.4747 399.81 35.26 399.204 35.26C398.597 35.26 398.098 35.4747 397.706 35.904C397.314 36.3333 397.118 36.8653 397.118 37.5C397.118 38.1347 397.314 38.6667 397.706 39.096ZM404.79 41V30.5H406.33V41H404.79ZM410.639 43.926H408.945L410.443 40.622L407.433 34H409.127L411.269 38.956L413.425 34H415.133L410.639 43.926ZM422.378 41.14C421.324 41.14 420.442 40.7947 419.732 40.104C419.032 39.404 418.682 38.536 418.682 37.5C418.682 36.464 419.032 35.6007 419.732 34.91C420.442 34.21 421.324 33.86 422.378 33.86C423.097 33.86 423.741 34.0327 424.31 34.378C424.889 34.7233 425.332 35.1947 425.64 35.792L424.296 36.52C424.119 36.1467 423.862 35.848 423.526 35.624C423.19 35.4 422.808 35.288 422.378 35.288C421.762 35.288 421.254 35.5027 420.852 35.932C420.451 36.352 420.25 36.8747 420.25 37.5C420.25 38.1253 420.451 38.6527 420.852 39.082C421.254 39.502 421.762 39.712 422.378 39.712C422.808 39.712 423.19 39.6 423.526 39.376C423.862 39.152 424.119 38.8533 424.296 38.48L425.64 39.208C425.332 39.8053 424.889 40.2767 424.31 40.622C423.741 40.9673 423.097 41.14 422.378 41.14ZM428.588 41H427.048V30.5H428.588V34.952C429.026 34.224 429.736 33.86 430.716 33.86C431.528 33.86 432.176 34.126 432.662 34.658C433.147 35.19 433.39 35.8993 433.39 36.786V41H431.85V37.038C431.85 36.478 431.719 36.044 431.458 35.736C431.196 35.4187 430.842 35.26 430.394 35.26C429.862 35.26 429.428 35.4607 429.092 35.862C428.756 36.2633 428.588 36.828 428.588 37.556V41ZM441.128 40.09C440.428 40.79 439.56 41.14 438.524 41.14C437.488 41.14 436.616 40.79 435.906 40.09C435.206 39.3807 434.856 38.5173 434.856 37.5C434.856 36.4827 435.206 35.624 435.906 34.924C436.616 34.2147 437.488 33.86 438.524 33.86C439.56 33.86 440.428 34.2147 441.128 34.924C441.838 35.624 442.192 36.4827 442.192 37.5C442.192 38.5173 441.838 39.3807 441.128 40.09ZM438.524 39.712C439.131 39.712 439.63 39.502 440.022 39.082C440.424 38.6527 440.624 38.1253 440.624 37.5C440.624 36.8747 440.424 36.352 440.022 35.932C439.63 35.5027 439.131 35.288 438.524 35.288C437.908 35.288 437.4 35.5027 436.998 35.932C436.606 36.352 436.41 36.8747 436.41 37.5C436.41 38.1253 436.606 38.6527 436.998 39.082C437.4 39.502 437.908 39.712 438.524 39.712ZM449.509 40.09C448.809 40.79 447.941 41.14 446.905 41.14C445.869 41.14 444.996 40.79 444.287 40.09C443.587 39.3807 443.237 38.5173 443.237 37.5C443.237 36.4827 443.587 35.624 444.287 34.924C444.996 34.2147 445.869 33.86 446.905 33.86C447.941 33.86 448.809 34.2147 449.509 34.924C450.218 35.624 450.573 36.4827 450.573 37.5C450.573 38.5173 450.218 39.3807 449.509 40.09ZM446.905 39.712C447.512 39.712 448.011 39.502 448.403 39.082C448.804 38.6527 449.005 38.1253 449.005 37.5C449.005 36.8747 448.804 36.352 448.403 35.932C448.011 35.5027 447.512 35.288 446.905 35.288C446.289 35.288 445.78 35.5027 445.379 35.932C444.987 36.352 444.791 36.8747 444.791 37.5C444.791 38.1253 444.987 38.6527 445.379 39.082C445.78 39.502 446.289 39.712 446.905 39.712ZM454.321 41.14C453.677 41.14 453.107 41.0187 452.613 40.776C452.118 40.524 451.749 40.1507 451.507 39.656L452.641 38.844C452.781 39.1427 453.005 39.3807 453.313 39.558C453.621 39.726 453.957 39.81 454.321 39.81C454.61 39.81 454.848 39.7447 455.035 39.614C455.231 39.4833 455.329 39.3013 455.329 39.068C455.329 38.8627 455.249 38.6947 455.091 38.564C454.941 38.4333 454.661 38.3027 454.251 38.172L453.635 38.004C452.393 37.668 451.782 36.954 451.801 35.862C451.801 35.2553 452.039 34.77 452.515 34.406C452.991 34.042 453.588 33.86 454.307 33.86C455.389 33.86 456.178 34.2567 456.673 35.05L455.609 35.862C455.254 35.386 454.811 35.148 454.279 35.148C454.027 35.148 453.807 35.2087 453.621 35.33C453.434 35.442 453.341 35.6007 453.341 35.806C453.341 35.9927 453.401 36.1513 453.523 36.282C453.644 36.4127 453.863 36.5293 454.181 36.632L454.895 36.842C455.548 37.038 456.038 37.304 456.365 37.64C456.691 37.9667 456.855 38.41 456.855 38.97C456.855 39.6327 456.617 40.16 456.141 40.552C455.665 40.944 455.058 41.14 454.321 41.14ZM461.616 41.14C460.552 41.14 459.675 40.7993 458.984 40.118C458.303 39.4367 457.962 38.564 457.962 37.5C457.962 36.464 458.307 35.6007 458.998 34.91C459.689 34.21 460.561 33.86 461.616 33.86C462.587 33.86 463.389 34.168 464.024 34.784C464.668 35.4 464.99 36.2493 464.99 37.332C464.99 37.5187 464.985 37.6867 464.976 37.836H459.474C459.511 38.4053 459.731 38.8673 460.132 39.222C460.533 39.5673 461.033 39.74 461.63 39.74C462.526 39.74 463.193 39.3853 463.632 38.676L464.808 39.516C464.136 40.5987 463.072 41.14 461.616 41.14ZM459.544 36.716H463.436C463.352 36.2307 463.133 35.8527 462.778 35.582C462.433 35.302 462.027 35.162 461.56 35.162C461.075 35.162 460.641 35.2973 460.258 35.568C459.885 35.8387 459.647 36.2213 459.544 36.716ZM472.738 41.14C471.786 41.14 470.983 40.7853 470.33 40.076C469.686 39.3667 469.364 38.508 469.364 37.5C469.364 36.492 469.686 35.6333 470.33 34.924C470.983 34.2147 471.786 33.86 472.738 33.86C473.214 33.86 473.653 33.9673 474.054 34.182C474.455 34.3873 474.763 34.6393 474.978 34.938V34H476.518V41H474.978V40.062C474.763 40.3607 474.455 40.6173 474.054 40.832C473.653 41.0373 473.214 41.14 472.738 41.14ZM471.52 39.096C471.912 39.5253 472.411 39.74 473.018 39.74C473.625 39.74 474.124 39.5253 474.516 39.096C474.908 38.6667 475.104 38.1347 475.104 37.5C475.104 36.8653 474.908 36.3333 474.516 35.904C474.124 35.4747 473.625 35.26 473.018 35.26C472.411 35.26 471.912 35.4747 471.52 35.904C471.128 36.3333 470.932 36.8653 470.932 37.5C470.932 38.1347 471.128 38.6667 471.52 39.096ZM483.439 43.926H481.899V34H483.439V34.938C483.654 34.6393 483.962 34.3873 484.363 34.182C484.774 33.9673 485.217 33.86 485.693 33.86C486.645 33.86 487.443 34.2147 488.087 34.924C488.741 35.6333 489.067 36.492 489.067 37.5C489.067 38.508 488.741 39.3667 488.087 40.076C487.443 40.7853 486.645 41.14 485.693 41.14C485.217 41.14 484.774 41.0373 484.363 40.832C483.962 40.6173 483.654 40.3607 483.439 40.062V43.926ZM485.413 39.74C486.02 39.74 486.519 39.5253 486.911 39.096C487.303 38.6667 487.499 38.1347 487.499 37.5C487.499 36.8653 487.303 36.3333 486.911 35.904C486.519 35.4747 486.02 35.26 485.413 35.26C484.797 35.26 484.293 35.4747 483.901 35.904C483.509 36.3333 483.313 36.8653 483.313 37.5C483.313 38.1347 483.509 38.6667 483.901 39.096C484.293 39.5253 484.797 39.74 485.413 39.74ZM490.636 41V30.5H492.176V41H490.636ZM497.115 41.14C496.163 41.14 495.36 40.7853 494.707 40.076C494.063 39.3667 493.741 38.508 493.741 37.5C493.741 36.492 494.063 35.6333 494.707 34.924C495.36 34.2147 496.163 33.86 497.115 33.86C497.591 33.86 498.03 33.9673 498.431 34.182C498.832 34.3873 499.14 34.6393 499.355 34.938V34H500.895V41H499.355V40.062C499.14 40.3607 498.832 40.6173 498.431 40.832C498.03 41.0373 497.591 41.14 497.115 41.14ZM495.897 39.096C496.289 39.5253 496.788 39.74 497.395 39.74C498.002 39.74 498.501 39.5253 498.893 39.096C499.285 38.6667 499.481 38.1347 499.481 37.5C499.481 36.8653 499.285 36.3333 498.893 35.904C498.501 35.4747 498.002 35.26 497.395 35.26C496.788 35.26 496.289 35.4747 495.897 35.904C495.505 36.3333 495.309 36.8653 495.309 37.5C495.309 38.1347 495.505 38.6667 495.897 39.096ZM502.981 41V34H504.521V34.952C504.96 34.224 505.669 33.86 506.649 33.86C507.461 33.86 508.11 34.126 508.595 34.658C509.081 35.19 509.323 35.8993 509.323 36.786V41H507.783V37.038C507.783 36.478 507.653 36.044 507.391 35.736C507.13 35.4187 506.775 35.26 506.327 35.26C505.795 35.26 505.361 35.4607 505.025 35.862C504.689 36.2633 504.521 36.828 504.521 37.556V41H502.981ZM518.383 41.14C517.907 41.14 517.463 41.0373 517.053 40.832C516.651 40.6173 516.343 40.3607 516.129 40.062V41H514.589V30.5H516.129V34.938C516.343 34.6393 516.651 34.3873 517.053 34.182C517.463 33.9673 517.907 33.86 518.383 33.86C519.335 33.86 520.133 34.2147 520.777 34.924C521.43 35.6333 521.757 36.492 521.757 37.5C521.757 38.508 521.43 39.3667 520.777 40.076C520.133 40.7853 519.335 41.14 518.383 41.14ZM518.103 39.74C518.709 39.74 519.209 39.5253 519.601 39.096C519.993 38.6667 520.189 38.1347 520.189 37.5C520.189 36.8653 519.993 36.3333 519.601 35.904C519.209 35.4747 518.709 35.26 518.103 35.26C517.487 35.26 516.983 35.4747 516.591 35.904C516.199 36.3333 516.003 36.8653 516.003 37.5C516.003 38.1347 516.199 38.6667 516.591 39.096C516.983 39.5253 517.487 39.74 518.103 39.74ZM526.489 41.14C525.425 41.14 524.548 40.7993 523.857 40.118C523.176 39.4367 522.835 38.564 522.835 37.5C522.835 36.464 523.18 35.6007 523.871 34.91C524.562 34.21 525.434 33.86 526.489 33.86C527.46 33.86 528.262 34.168 528.897 34.784C529.541 35.4 529.863 36.2493 529.863 37.332C529.863 37.5187 529.858 37.6867 529.849 37.836H524.347C524.384 38.4053 524.604 38.8673 525.005 39.222C525.406 39.5673 525.906 39.74 526.503 39.74C527.399 39.74 528.066 39.3853 528.505 38.676L529.681 39.516C529.009 40.5987 527.945 41.14 526.489 41.14ZM524.417 36.716H528.309C528.225 36.2307 528.006 35.8527 527.651 35.582C527.306 35.302 526.9 35.162 526.433 35.162C525.948 35.162 525.514 35.2973 525.131 35.568C524.758 35.8387 524.52 36.2213 524.417 36.716ZM531.446 41V30.5H532.986V41H531.446ZM540.824 40.09C540.124 40.79 539.256 41.14 538.22 41.14C537.184 41.14 536.311 40.79 535.602 40.09C534.902 39.3807 534.552 38.5173 534.552 37.5C534.552 36.4827 534.902 35.624 535.602 34.924C536.311 34.2147 537.184 33.86 538.22 33.86C539.256 33.86 540.124 34.2147 540.824 34.924C541.533 35.624 541.888 36.4827 541.888 37.5C541.888 38.5173 541.533 39.3807 540.824 40.09ZM538.22 39.712C538.826 39.712 539.326 39.502 539.718 39.082C540.119 38.6527 540.32 38.1253 540.32 37.5C540.32 36.8747 540.119 36.352 539.718 35.932C539.326 35.5027 538.826 35.288 538.22 35.288C537.604 35.288 537.095 35.5027 536.694 35.932C536.302 36.352 536.106 36.8747 536.106 37.5C536.106 38.1253 536.302 38.6527 536.694 39.082C537.095 39.502 537.604 39.712 538.22 39.712ZM549.346 41L547.806 36.478L546.28 41H544.824L542.472 34H544.096L545.608 38.83L547.218 34H548.394L549.976 38.83L551.516 34H553.154L550.802 41H549.346ZM554.598 41.112C554.271 41.112 553.987 40.9953 553.744 40.762C553.511 40.5193 553.394 40.23 553.394 39.894C553.394 39.5673 553.511 39.2827 553.744 39.04C553.987 38.7973 554.271 38.676 554.598 38.676C554.934 38.676 555.219 38.7973 555.452 39.04C555.695 39.2827 555.816 39.5673 555.816 39.894C555.816 40.23 555.695 40.5193 555.452 40.762C555.219 40.9953 554.934 41.112 554.598 41.112Z" fill="black"/>
<rect x="0.5" y="0.5" width="709" height="71" rx="19.5" stroke="#4545FE"/>
</svg>
