<svg width="32" height="32" viewBox="0 0 32 32" fill="none" xmlns="http://www.w3.org/2000/svg">
<path d="M20.9432 17.7243C20.6932 17.4744 20.3541 17.3339 20.0005 17.3339C19.647 17.3339 19.3079 17.4744 19.0579 17.7243L17.3339 19.4483V4.00033C17.3339 3.6467 17.1934 3.30756 16.9434 3.05752C16.6933 2.80747 16.3542 2.66699 16.0005 2.66699C15.6469 2.66699 15.3078 2.80747 15.0577 3.05752C14.8077 3.30756 14.6672 3.6467 14.6672 4.00033V19.4483L12.9432 17.7243C12.6917 17.4814 12.3549 17.3471 12.0053 17.3501C11.6557 17.3531 11.3213 17.4934 11.0741 17.7406C10.8269 17.9878 10.6867 18.3222 10.6836 18.6718C10.6806 19.0214 10.815 19.3582 11.0579 19.6097L15.0579 23.6097C15.3079 23.8596 15.647 24 16.0005 24C16.3541 24 16.6932 23.8596 16.9432 23.6097L20.9432 19.6097C21.1932 19.3596 21.3336 19.0205 21.3336 18.667C21.3336 18.3134 21.1932 17.9744 20.9432 17.7243Z" fill="white"/>
<path opacity="0.5" d="M24 12H17.3333V19.448L19.0573 17.724C19.3088 17.4811 19.6456 17.3467 19.9952 17.3498C20.3448 17.3528 20.6792 17.493 20.9264 17.7402C21.1736 17.9875 21.3139 18.3219 21.3169 18.6715C21.3199 19.0211 21.1855 19.3579 20.9427 19.6093L16.9427 23.6093C16.6926 23.8593 16.3536 23.9997 16 23.9997C15.6464 23.9997 15.3074 23.8593 15.0573 23.6093L11.0573 19.6093C10.8145 19.3579 10.6801 19.0211 10.6831 18.6715C10.6861 18.3219 10.8264 17.9875 11.0736 17.7402C11.3208 17.493 11.6552 17.3528 12.0048 17.3498C12.3544 17.3467 12.6912 17.4811 12.9427 17.724L14.6667 19.448V12H8C6.93946 12.0011 5.92266 12.4228 5.17274 13.1727C4.42283 13.9227 4.00106 14.9395 4 16V25.3333C4.00106 26.3939 4.42283 27.4107 5.17274 28.1606C5.92266 28.9105 6.93946 29.3323 8 29.3333H24C25.0605 29.3323 26.0773 28.9105 26.8273 28.1606C27.5772 27.4107 27.9989 26.3939 28 25.3333V16C27.9989 14.9395 27.5772 13.9227 26.8273 13.1727C26.0773 12.4228 25.0605 12.0011 24 12Z" fill="white"/>
</svg>
