<svg width="1291" height="128" viewBox="0 0 1291 128" fill="none" xmlns="http://www.w3.org/2000/svg">
<rect x="5" width="1284" height="128" rx="20" fill="#1D6169"/>
<g opacity="0.5" clip-path="url(#clip0_11038_151309)">
<g clip-path="url(#clip1_11038_151309)">
<mask id="mask0_11038_151309" style="mask-type:alpha" maskUnits="userSpaceOnUse" x="0" y="-1" width="620" height="183">
<rect x="0.5" y="-0.359375" width="618.656" height="182.359" rx="9.957" fill="#4A3AFF"/>
</mask>
<g mask="url(#mask0_11038_151309)">
<path opacity="0.1" d="M183.641 91.8896L93.5303 182L93.5303 91.8896L183.641 91.8896Z" fill="white"/>
<rect opacity="0.2" x="93.5" y="-1.04102" width="92.9304" height="92.9316" transform="rotate(90 93.5 -1.04102)" fill="white"/>
</g>
</g>
</g>
<path d="M78.09 61.7498C75.6873 61.7498 73.6247 61.2398 71.902 60.2198C70.1793 59.1771 68.8533 57.7378 67.924 55.9018C66.9947 54.0431 66.53 51.9011 66.53 49.4758C66.53 47.0505 66.9947 44.9085 67.924 43.0498C68.8533 41.1911 70.1793 39.7405 71.902 38.6978C73.6247 37.6551 75.6873 37.1338 78.09 37.1338C80.946 37.1338 83.2807 37.8478 85.094 39.2758C86.93 40.6811 88.0747 42.6645 88.528 45.2258H83.734C83.4393 43.9338 82.8047 42.9251 81.83 42.1998C80.878 41.4518 79.6087 41.0778 78.022 41.0778C75.8233 41.0778 74.1007 41.8258 72.854 43.3218C71.6073 44.8178 70.984 46.8691 70.984 49.4758C70.984 52.0825 71.6073 54.1338 72.854 55.6298C74.1007 57.1031 75.8233 57.8398 78.022 57.8398C79.6087 57.8398 80.878 57.4998 81.83 56.8198C82.8047 56.1171 83.4393 55.1538 83.734 53.9298H88.528C88.0747 56.3778 86.93 58.2931 85.094 59.6758C83.2807 61.0585 80.946 61.7498 78.09 61.7498ZM100.37 61.7498C98.7384 61.7498 97.265 61.3758 95.9504 60.6278C94.6584 59.8798 93.627 58.8485 92.8564 57.5338C92.1084 56.1965 91.7344 54.6551 91.7344 52.9098C91.7344 51.1645 92.1197 49.6345 92.8904 48.3198C93.661 46.9825 94.6924 45.9398 95.9844 45.1918C97.299 44.4438 98.7724 44.0698 100.404 44.0698C102.014 44.0698 103.464 44.4438 104.756 45.1918C106.071 45.9398 107.102 46.9825 107.85 48.3198C108.621 49.6345 109.006 51.1645 109.006 52.9098C109.006 54.6551 108.621 56.1965 107.85 57.5338C107.102 58.8485 106.071 59.8798 104.756 60.6278C103.442 61.3758 101.98 61.7498 100.37 61.7498ZM100.37 57.9758C101.504 57.9758 102.49 57.5565 103.328 56.7178C104.167 55.8565 104.586 54.5871 104.586 52.9098C104.586 51.2325 104.167 49.9745 103.328 49.1358C102.49 48.2745 101.515 47.8438 100.404 47.8438C99.2484 47.8438 98.251 48.2745 97.4124 49.1358C96.5964 49.9745 96.1884 51.2325 96.1884 52.9098C96.1884 54.5871 96.5964 55.8565 97.4124 56.7178C98.251 57.5565 99.237 57.9758 100.37 57.9758ZM112.898 61.3418V44.4778H116.74L117.114 46.7558C117.658 45.9398 118.372 45.2938 119.256 44.8178C120.162 44.3191 121.205 44.0698 122.384 44.0698C124.99 44.0698 126.838 45.0785 127.926 47.0958C128.538 46.1665 129.354 45.4298 130.374 44.8858C131.416 44.3418 132.55 44.0698 133.774 44.0698C135.972 44.0698 137.661 44.7271 138.84 46.0418C140.018 47.3565 140.608 49.2831 140.608 51.8218V61.3418H136.256V52.2298C136.256 50.7791 135.972 49.6685 135.406 48.8978C134.862 48.1271 134.012 47.7418 132.856 47.7418C131.677 47.7418 130.725 48.1725 130 49.0338C129.297 49.8951 128.946 51.0965 128.946 52.6378V61.3418H124.594V52.2298C124.594 50.7791 124.31 49.6685 123.744 48.8978C123.177 48.1271 122.304 47.7418 121.126 47.7418C119.97 47.7418 119.029 48.1725 118.304 49.0338C117.601 49.8951 117.25 51.0965 117.25 52.6378V61.3418H112.898ZM144.739 68.8218V44.4778H148.615L149.091 46.8918C149.635 46.1438 150.349 45.4865 151.233 44.9198C152.14 44.3531 153.307 44.0698 154.735 44.0698C156.322 44.0698 157.739 44.4551 158.985 45.2258C160.232 45.9965 161.218 47.0505 161.943 48.3878C162.669 49.7251 163.031 51.2438 163.031 52.9438C163.031 54.6438 162.669 56.1625 161.943 57.4998C161.218 58.8145 160.232 59.8571 158.985 60.6278C157.739 61.3758 156.322 61.7498 154.735 61.7498C153.466 61.7498 152.355 61.5118 151.403 61.0358C150.451 60.5598 149.681 59.8911 149.091 59.0298V68.8218H144.739ZM153.817 57.9418C155.2 57.9418 156.345 57.4771 157.251 56.5478C158.158 55.6185 158.611 54.4171 158.611 52.9438C158.611 51.4705 158.158 50.2578 157.251 49.3058C156.345 48.3538 155.2 47.8778 153.817 47.8778C152.412 47.8778 151.256 48.3538 150.349 49.3058C149.465 50.2351 149.023 51.4365 149.023 52.9098C149.023 54.3831 149.465 55.5958 150.349 56.5478C151.256 57.4771 152.412 57.9418 153.817 57.9418ZM166.919 61.3418V36.8618H171.271V61.3418H166.919ZM183.912 61.7498C182.212 61.7498 180.704 61.3871 179.39 60.6618C178.075 59.9365 177.044 58.9165 176.296 57.6018C175.548 56.2871 175.174 54.7685 175.174 53.0458C175.174 51.3005 175.536 49.7478 176.262 48.3878C177.01 47.0278 178.03 45.9738 179.322 45.2258C180.636 44.4551 182.178 44.0698 183.946 44.0698C185.6 44.0698 187.062 44.4325 188.332 45.1578C189.601 45.8831 190.587 46.8805 191.29 48.1498C192.015 49.3965 192.378 50.7905 192.378 52.3318C192.378 52.5811 192.366 52.8418 192.344 53.1138C192.344 53.3858 192.332 53.6691 192.31 53.9638H179.492C179.582 55.2785 180.036 56.3098 180.852 57.0578C181.69 57.8058 182.699 58.1798 183.878 58.1798C184.762 58.1798 185.498 57.9871 186.088 57.6018C186.7 57.1938 187.153 56.6725 187.448 56.0378H191.868C191.55 57.1031 191.018 58.0778 190.27 58.9618C189.544 59.8231 188.638 60.5031 187.55 61.0018C186.484 61.5005 185.272 61.7498 183.912 61.7498ZM183.946 47.6058C182.88 47.6058 181.94 47.9118 181.124 48.5238C180.308 49.1131 179.786 50.0198 179.56 51.2438H187.958C187.89 50.1331 187.482 49.2491 186.734 48.5918C185.986 47.9345 185.056 47.6058 183.946 47.6058ZM203.253 61.3418C201.485 61.3418 200.069 60.9111 199.003 60.0498C197.938 59.1885 197.405 57.6585 197.405 55.4598V48.1158H194.515V44.4778H197.405L197.915 39.9558H201.757V44.4778H206.313V48.1158H201.757V55.4938C201.757 56.3098 201.927 56.8765 202.267 57.1938C202.63 57.4885 203.242 57.6358 204.103 57.6358H206.211V61.3418H203.253ZM217.812 61.7498C216.112 61.7498 214.605 61.3871 213.29 60.6618C211.976 59.9365 210.944 58.9165 210.196 57.6018C209.448 56.2871 209.074 54.7685 209.074 53.0458C209.074 51.3005 209.437 49.7478 210.162 48.3878C210.91 47.0278 211.93 45.9738 213.222 45.2258C214.537 44.4551 216.078 44.0698 217.846 44.0698C219.501 44.0698 220.963 44.4325 222.232 45.1578C223.502 45.8831 224.488 46.8805 225.19 48.1498C225.916 49.3965 226.278 50.7905 226.278 52.3318C226.278 52.5811 226.267 52.8418 226.244 53.1138C226.244 53.3858 226.233 53.6691 226.21 53.9638H213.392C213.483 55.2785 213.936 56.3098 214.752 57.0578C215.591 57.8058 216.6 58.1798 217.778 58.1798C218.662 58.1798 219.399 57.9871 219.988 57.6018C220.6 57.1938 221.054 56.6725 221.348 56.0378H225.768C225.451 57.1031 224.918 58.0778 224.17 58.9618C223.445 59.8231 222.538 60.5031 221.45 61.0018C220.385 61.5005 219.172 61.7498 217.812 61.7498ZM217.846 47.6058C216.781 47.6058 215.84 47.9118 215.024 48.5238C214.208 49.1131 213.687 50.0198 213.46 51.2438H221.858C221.79 50.1331 221.382 49.2491 220.634 48.5918C219.886 47.9345 218.957 47.6058 217.846 47.6058ZM238.04 61.3418V44.4778H241.916L242.324 47.6398C242.936 46.5518 243.763 45.6905 244.806 45.0558C245.871 44.3985 247.118 44.0698 248.546 44.0698V48.6598H247.322C246.37 48.6598 245.52 48.8071 244.772 49.1018C244.024 49.3965 243.435 49.9065 243.004 50.6318C242.596 51.3571 242.392 52.3658 242.392 53.6578V61.3418H238.04ZM259.416 61.7498C257.716 61.7498 256.208 61.3871 254.894 60.6618C253.579 59.9365 252.548 58.9165 251.8 57.6018C251.052 56.2871 250.678 54.7685 250.678 53.0458C250.678 51.3005 251.04 49.7478 251.766 48.3878C252.514 47.0278 253.534 45.9738 254.826 45.2258C256.14 44.4551 257.682 44.0698 259.45 44.0698C261.104 44.0698 262.566 44.4325 263.836 45.1578C265.105 45.8831 266.091 46.8805 266.794 48.1498C267.519 49.3965 267.882 50.7905 267.882 52.3318C267.882 52.5811 267.87 52.8418 267.848 53.1138C267.848 53.3858 267.836 53.6691 267.814 53.9638H254.996C255.086 55.2785 255.54 56.3098 256.356 57.0578C257.194 57.8058 258.203 58.1798 259.382 58.1798C260.266 58.1798 261.002 57.9871 261.592 57.6018C262.204 57.1938 262.657 56.6725 262.952 56.0378H267.372C267.054 57.1031 266.522 58.0778 265.774 58.9618C265.048 59.8231 264.142 60.5031 263.054 61.0018C261.988 61.5005 260.776 61.7498 259.416 61.7498ZM259.45 47.6058C258.384 47.6058 257.444 47.9118 256.628 48.5238C255.812 49.1131 255.29 50.0198 255.064 51.2438H263.462C263.394 50.1331 262.986 49.2491 262.238 48.5918C261.49 47.9345 260.56 47.6058 259.45 47.6058ZM278.317 56.3098C277.501 56.3098 276.741 56.2191 276.039 56.0378L274.781 57.2958C275.166 57.4998 275.687 57.6698 276.345 57.8058C277.002 57.9418 278.067 58.0778 279.541 58.2138C281.785 58.4178 283.417 58.9505 284.437 59.8118C285.457 60.6731 285.967 61.8631 285.967 63.3818C285.967 64.3791 285.695 65.3198 285.151 66.2038C284.607 67.1105 283.768 67.8358 282.635 68.3798C281.501 68.9465 280.051 69.2298 278.283 69.2298C275.88 69.2298 273.942 68.7765 272.469 67.8698C270.995 66.9858 270.259 65.6485 270.259 63.8578C270.259 62.3391 270.995 61.0245 272.469 59.9138C272.015 59.7098 271.619 59.4945 271.279 59.2678C270.961 59.0411 270.678 58.8031 270.429 58.5538V57.7718L273.387 54.6438C272.072 53.4878 271.415 52.0031 271.415 50.1898C271.415 49.0565 271.687 48.0251 272.231 47.0958C272.797 46.1665 273.591 45.4298 274.611 44.8858C275.631 44.3418 276.866 44.0698 278.317 44.0698C279.269 44.0698 280.153 44.2058 280.969 44.4778H287.361V47.1298L284.471 47.3338C284.924 48.1951 285.151 49.1471 285.151 50.1898C285.151 51.3231 284.879 52.3545 284.335 53.2838C283.791 54.2131 282.997 54.9498 281.955 55.4938C280.935 56.0378 279.722 56.3098 278.317 56.3098ZM278.317 52.9778C279.201 52.9778 279.926 52.7398 280.493 52.2638C281.082 51.7878 281.377 51.1078 281.377 50.2238C281.377 49.3398 281.082 48.6598 280.493 48.1838C279.926 47.7078 279.201 47.4698 278.317 47.4698C277.387 47.4698 276.639 47.7078 276.073 48.1838C275.506 48.6598 275.223 49.3398 275.223 50.2238C275.223 51.1078 275.506 51.7878 276.073 52.2638C276.639 52.7398 277.387 52.9778 278.317 52.9778ZM274.237 63.4158C274.237 64.2545 274.622 64.8778 275.393 65.2858C276.186 65.7165 277.149 65.9318 278.283 65.9318C279.371 65.9318 280.255 65.7051 280.935 65.2518C281.615 64.8211 281.955 64.2318 281.955 63.4838C281.955 62.8718 281.728 62.3618 281.275 61.9538C280.844 61.5458 279.971 61.2965 278.657 61.2058C277.727 61.1378 276.866 61.0358 276.073 60.8998C275.415 61.2625 274.939 61.6591 274.645 62.0898C274.373 62.5205 274.237 62.9625 274.237 63.4158ZM292.88 41.8598C292.087 41.8598 291.43 41.6218 290.908 41.1458C290.41 40.6698 290.16 40.0691 290.16 39.3438C290.16 38.6185 290.41 38.0291 290.908 37.5758C291.43 37.0998 292.087 36.8618 292.88 36.8618C293.674 36.8618 294.32 37.0998 294.818 37.5758C295.34 38.0291 295.6 38.6185 295.6 39.3438C295.6 40.0691 295.34 40.6698 294.818 41.1458C294.32 41.6218 293.674 41.8598 292.88 41.8598ZM290.704 61.3418V44.4778H295.056V61.3418H290.704ZM306.569 61.7498C305.073 61.7498 303.758 61.5118 302.625 61.0358C301.491 60.5371 300.585 59.8571 299.905 58.9958C299.225 58.1345 298.817 57.1371 298.681 56.0038H303.067C303.203 56.6611 303.565 57.2278 304.155 57.7038C304.767 58.1571 305.549 58.3838 306.501 58.3838C307.453 58.3838 308.144 58.1911 308.575 57.8058C309.028 57.4205 309.255 56.9785 309.255 56.4798C309.255 55.7545 308.937 55.2671 308.303 55.0178C307.668 54.7458 306.784 54.4851 305.651 54.2358C304.925 54.0771 304.189 53.8845 303.441 53.6578C302.693 53.4311 302.001 53.1478 301.367 52.8078C300.755 52.4451 300.256 51.9918 299.871 51.4478C299.485 50.8811 299.293 50.1898 299.293 49.3738C299.293 47.8778 299.882 46.6198 301.061 45.5998C302.262 44.5798 303.939 44.0698 306.093 44.0698C308.087 44.0698 309.674 44.5345 310.853 45.4638C312.054 46.3931 312.768 47.6738 312.995 49.3058H308.881C308.631 48.0591 307.691 47.4358 306.059 47.4358C305.243 47.4358 304.608 47.5945 304.155 47.9118C303.724 48.2291 303.509 48.6258 303.509 49.1018C303.509 49.6005 303.837 49.9971 304.495 50.2918C305.152 50.5865 306.025 50.8585 307.113 51.1078C308.291 51.3798 309.368 51.6858 310.343 52.0258C311.34 52.3431 312.133 52.8305 312.723 53.4878C313.312 54.1225 313.607 55.0405 313.607 56.2418C313.629 57.2845 313.357 58.2251 312.791 59.0638C312.224 59.9025 311.408 60.5598 310.343 61.0358C309.277 61.5118 308.019 61.7498 306.569 61.7498ZM324.445 61.3418C322.677 61.3418 321.26 60.9111 320.195 60.0498C319.129 59.1885 318.597 57.6585 318.597 55.4598V48.1158H315.707V44.4778H318.597L319.107 39.9558H322.949V44.4778H327.505V48.1158H322.949V55.4938C322.949 56.3098 323.119 56.8765 323.459 57.1938C323.821 57.4885 324.433 57.6358 325.295 57.6358H327.403V61.3418H324.445ZM331.241 61.3418V44.4778H335.117L335.525 47.6398C336.137 46.5518 336.965 45.6905 338.007 45.0558C339.073 44.3985 340.319 44.0698 341.747 44.0698V48.6598H340.523C339.571 48.6598 338.721 48.8071 337.973 49.1018C337.225 49.3965 336.636 49.9065 336.205 50.6318C335.797 51.3571 335.593 52.3658 335.593 53.6578V61.3418H331.241ZM350.536 61.7498C349.085 61.7498 347.895 61.5231 346.966 61.0698C346.036 60.5938 345.345 59.9705 344.892 59.1998C344.438 58.4291 344.212 57.5791 344.212 56.6498C344.212 55.0858 344.824 53.8165 346.048 52.8418C347.272 51.8671 349.108 51.3798 351.556 51.3798H355.84V50.9718C355.84 49.8158 355.511 48.9658 354.854 48.4218C354.196 47.8778 353.38 47.6058 352.406 47.6058C351.522 47.6058 350.751 47.8211 350.094 48.2518C349.436 48.6598 349.028 49.2718 348.87 50.0878H344.62C344.733 48.8638 345.141 47.7985 345.844 46.8918C346.569 45.9851 347.498 45.2938 348.632 44.8178C349.765 44.3191 351.034 44.0698 352.44 44.0698C354.842 44.0698 356.735 44.6705 358.118 45.8718C359.5 47.0731 360.192 48.7731 360.192 50.9718V61.3418H356.486L356.078 58.6218C355.579 59.5285 354.876 60.2765 353.97 60.8658C353.086 61.4551 351.941 61.7498 350.536 61.7498ZM351.522 58.3498C352.768 58.3498 353.732 57.9418 354.412 57.1258C355.114 56.3098 355.556 55.3011 355.738 54.0998H352.032C350.876 54.0998 350.048 54.3151 349.55 54.7458C349.051 55.1538 348.802 55.6638 348.802 56.2758C348.802 56.9331 349.051 57.4431 349.55 57.8058C350.048 58.1685 350.706 58.3498 351.522 58.3498ZM371.626 61.3418C369.858 61.3418 368.442 60.9111 367.376 60.0498C366.311 59.1885 365.778 57.6585 365.778 55.4598V48.1158H362.888V44.4778H365.778L366.288 39.9558H370.13V44.4778H374.686V48.1158H370.13V55.4938C370.13 56.3098 370.3 56.8765 370.64 57.1938C371.003 57.4885 371.615 57.6358 372.476 57.6358H374.584V61.3418H371.626ZM380.769 41.8598C379.976 41.8598 379.318 41.6218 378.797 41.1458C378.298 40.6698 378.049 40.0691 378.049 39.3438C378.049 38.6185 378.298 38.0291 378.797 37.5758C379.318 37.0998 379.976 36.8618 380.769 36.8618C381.562 36.8618 382.208 37.0998 382.707 37.5758C383.228 38.0291 383.489 38.6185 383.489 39.3438C383.489 40.0691 383.228 40.6698 382.707 41.1458C382.208 41.6218 381.562 41.8598 380.769 41.8598ZM378.593 61.3418V44.4778H382.945V61.3418H378.593ZM395.579 61.7498C393.947 61.7498 392.474 61.3758 391.159 60.6278C389.867 59.8798 388.836 58.8485 388.065 57.5338C387.317 56.1965 386.943 54.6551 386.943 52.9098C386.943 51.1645 387.329 49.6345 388.099 48.3198C388.87 46.9825 389.901 45.9398 391.193 45.1918C392.508 44.4438 393.981 44.0698 395.613 44.0698C397.223 44.0698 398.673 44.4438 399.965 45.1918C401.28 45.9398 402.311 46.9825 403.059 48.3198C403.83 49.6345 404.215 51.1645 404.215 52.9098C404.215 54.6551 403.83 56.1965 403.059 57.5338C402.311 58.8485 401.28 59.8798 399.965 60.6278C398.651 61.3758 397.189 61.7498 395.579 61.7498ZM395.579 57.9758C396.713 57.9758 397.699 57.5565 398.537 56.7178C399.376 55.8565 399.795 54.5871 399.795 52.9098C399.795 51.2325 399.376 49.9745 398.537 49.1358C397.699 48.2745 396.724 47.8438 395.613 47.8438C394.457 47.8438 393.46 48.2745 392.621 49.1358C391.805 49.9745 391.397 51.2325 391.397 52.9098C391.397 54.5871 391.805 55.8565 392.621 56.7178C393.46 57.5565 394.446 57.9758 395.579 57.9758ZM408.106 61.3418V44.4778H411.948L412.288 47.3338C412.81 46.3365 413.558 45.5431 414.532 44.9538C415.53 44.3645 416.697 44.0698 418.034 44.0698C420.12 44.0698 421.74 44.7271 422.896 46.0418C424.052 47.3565 424.63 49.2831 424.63 51.8218V61.3418H420.278V52.2298C420.278 50.7791 419.984 49.6685 419.394 48.8978C418.805 48.1271 417.887 47.7418 416.64 47.7418C415.416 47.7418 414.408 48.1725 413.614 49.0338C412.844 49.8951 412.458 51.0965 412.458 52.6378V61.3418H408.106ZM429.71 53.8278L429.234 37.5418H433.892L433.382 53.8278H429.71ZM431.648 61.5798C430.832 61.5798 430.163 61.3305 429.642 60.8318C429.143 60.3331 428.894 59.7325 428.894 59.0298C428.894 58.3045 429.143 57.6925 429.642 57.1938C430.163 56.6951 430.832 56.4458 431.648 56.4458C432.419 56.4458 433.053 56.6951 433.552 57.1938C434.073 57.6925 434.334 58.3045 434.334 59.0298C434.334 59.7325 434.073 60.3331 433.552 60.8318C433.053 61.3305 432.419 61.5798 431.648 61.5798Z" fill="white"/>
<path d="M68.808 98.3418V88.3898H65.272V86.9818H73.8V88.3898H70.264V98.3418H68.808ZM77.5355 98.5018C76.3302 98.5018 75.3275 98.1018 74.5275 97.3018C73.7382 96.4911 73.3435 95.5045 73.3435 94.3418C73.3435 93.1791 73.7382 92.1978 74.5275 91.3978C75.3275 90.5871 76.3302 90.1818 77.5355 90.1818C78.7302 90.1818 79.7222 90.5871 80.5115 91.3978C81.3115 92.1978 81.7115 93.1791 81.7115 94.3418C81.7115 95.5045 81.3115 96.4911 80.5115 97.3018C79.7222 98.1018 78.7302 98.5018 77.5355 98.5018ZM75.5195 96.3898C76.0422 96.9445 76.7142 97.2218 77.5355 97.2218C78.3568 97.2218 79.0235 96.9445 79.5355 96.3898C80.0475 95.8351 80.3035 95.1525 80.3035 94.3418C80.3035 93.5311 80.0475 92.8485 79.5355 92.2938C79.0235 91.7391 78.3568 91.4618 77.5355 91.4618C76.7142 91.4618 76.0422 91.7391 75.5195 92.2938C75.0075 92.8485 74.7515 93.5311 74.7515 94.3418C74.7515 95.1525 75.0075 95.8351 75.5195 96.3898ZM89.082 96.2618C89.5833 96.7845 90.234 97.0458 91.034 97.0458C91.834 97.0458 92.4847 96.7845 92.986 96.2618C93.4873 95.7285 93.738 95.0565 93.738 94.2458C93.738 93.4351 93.482 92.7685 92.97 92.2458C92.4687 91.7125 91.8233 91.4458 91.034 91.4458C90.2447 91.4458 89.594 91.7125 89.082 92.2458C88.5807 92.7685 88.33 93.4351 88.33 94.2458C88.33 95.0565 88.5807 95.7285 89.082 96.2618ZM90.954 101.846C90.1327 101.846 89.3913 101.691 88.73 101.382C88.0687 101.083 87.5567 100.694 87.194 100.214L88.154 99.2538C88.858 100.15 89.7913 100.598 90.954 100.598C91.7007 100.598 92.33 100.363 92.842 99.8938C93.3647 99.4245 93.626 98.7365 93.626 97.8298V96.9178C93.338 97.3445 92.9487 97.6858 92.458 97.9418C91.9673 98.1978 91.4287 98.3258 90.842 98.3258C89.722 98.3258 88.7887 97.9365 88.042 97.1578C87.2953 96.3685 86.922 95.3978 86.922 94.2458C86.922 93.1045 87.2953 92.1445 88.042 91.3658C88.7993 90.5765 89.7327 90.1818 90.842 90.1818C91.4287 90.1818 91.9673 90.3098 92.458 90.5658C92.9487 90.8218 93.338 91.1578 93.626 91.5738V90.3418H95.002V97.8778C95.002 99.1685 94.6233 100.15 93.866 100.822C93.1193 101.504 92.1487 101.846 90.954 101.846ZM101.113 98.5018C99.8862 98.5018 98.8889 98.1071 98.1209 97.3178C97.3529 96.5285 96.9689 95.5365 96.9689 94.3418C96.9689 93.1578 97.3582 92.1711 98.1369 91.3818C98.9155 90.5818 99.9129 90.1818 101.129 90.1818C102.206 90.1818 103.108 90.5445 103.833 91.2698C104.569 91.9845 104.937 92.9605 104.937 94.1978C104.937 94.3578 104.932 94.4965 104.921 94.6138H98.3609C98.3822 95.3605 98.6489 95.9845 99.1609 96.4858C99.6835 96.9871 100.34 97.2378 101.129 97.2378C102.249 97.2378 103.081 96.7738 103.625 95.8458L104.713 96.5978C103.934 97.8671 102.734 98.5018 101.113 98.5018ZM98.4569 93.4938H103.529C103.422 92.8538 103.14 92.3471 102.681 91.9738C102.233 91.5898 101.7 91.3978 101.081 91.3978C100.452 91.3978 99.8862 91.5898 99.3849 91.9738C98.8942 92.3471 98.5849 92.8538 98.4569 93.4938ZM109.884 98.4218C109.148 98.4218 108.556 98.2138 108.108 97.7978C107.66 97.3818 107.436 96.7738 107.436 95.9738V91.6058H105.74V90.3418H107.436V88.1178H108.812V90.3418H111.116V91.6058H108.812V95.7978C108.812 96.2991 108.919 96.6511 109.132 96.8538C109.346 97.0565 109.682 97.1578 110.14 97.1578C110.546 97.1578 110.871 97.1045 111.116 96.9978V98.2298C110.732 98.3578 110.322 98.4218 109.884 98.4218ZM119.15 98.5018C118.414 98.5018 117.768 98.3471 117.214 98.0378C116.659 97.7178 116.259 97.2538 116.014 96.6458L117.134 96.0218C117.283 96.4165 117.544 96.7258 117.918 96.9498C118.291 97.1738 118.707 97.2858 119.166 97.2858C119.56 97.2858 119.891 97.1898 120.158 96.9978C120.424 96.8058 120.558 96.5445 120.558 96.2138C120.558 95.9258 120.451 95.6858 120.238 95.4938C120.035 95.3018 119.678 95.1258 119.166 94.9658L118.366 94.7098C117.032 94.3258 116.366 93.5471 116.366 92.3738C116.366 91.7125 116.627 91.1845 117.15 90.7898C117.683 90.3845 118.339 90.1818 119.118 90.1818C120.334 90.1818 121.214 90.6458 121.758 91.5738L120.734 92.2778C120.296 91.6698 119.742 91.3658 119.07 91.3658C118.707 91.3658 118.392 91.4565 118.126 91.6378C117.87 91.8085 117.742 92.0378 117.742 92.3258C117.742 92.5925 117.822 92.8218 117.982 93.0138C118.152 93.1951 118.451 93.3498 118.878 93.4778L119.758 93.7498C121.208 94.1978 121.934 94.9818 121.934 96.1018C121.934 96.8485 121.672 97.4351 121.15 97.8618C120.638 98.2885 119.971 98.5018 119.15 98.5018ZM126.963 98.4218C126.227 98.4218 125.635 98.2138 125.187 97.7978C124.739 97.3818 124.515 96.7738 124.515 95.9738V91.6058H122.819V90.3418H124.515V88.1178H125.891V90.3418H128.195V91.6058H125.891V95.7978C125.891 96.2991 125.997 96.6511 126.211 96.8538C126.424 97.0565 126.76 97.1578 127.219 97.1578C127.624 97.1578 127.949 97.1045 128.195 96.9978V98.2298C127.811 98.3578 127.4 98.4218 126.963 98.4218ZM133.139 98.5018C132.03 98.5018 131.096 98.0965 130.339 97.2858C129.592 96.4751 129.219 95.4938 129.219 94.3418C129.219 93.1898 129.592 92.2085 130.339 91.3978C131.096 90.5871 132.03 90.1818 133.139 90.1818C133.726 90.1818 134.27 90.3151 134.771 90.5818C135.283 90.8378 135.678 91.1685 135.955 91.5738V90.3418H137.331V98.3418H135.955V97.1098C135.678 97.5151 135.283 97.8511 134.771 98.1178C134.27 98.3738 133.726 98.5018 133.139 98.5018ZM133.347 97.2378C134.136 97.2378 134.787 96.9605 135.299 96.4058C135.811 95.8511 136.067 95.1631 136.067 94.3418C136.067 93.5205 135.811 92.8325 135.299 92.2778C134.787 91.7231 134.136 91.4458 133.347 91.4458C132.547 91.4458 131.891 91.7231 131.379 92.2778C130.867 92.8325 130.611 93.5205 130.611 94.3418C130.611 95.1631 130.867 95.8511 131.379 96.4058C131.891 96.9605 132.547 97.2378 133.347 97.2378ZM139.921 98.3418V90.3418H141.297V91.8938C141.446 91.4031 141.734 91.0085 142.161 90.7098C142.598 90.4111 143.057 90.2618 143.537 90.2618C143.772 90.2618 143.98 90.2831 144.161 90.3258V91.7498C143.969 91.6645 143.718 91.6218 143.409 91.6218C142.854 91.6218 142.364 91.8618 141.937 92.3418C141.51 92.8218 141.297 93.4991 141.297 94.3738V98.3418H139.921ZM148.884 98.4218C148.148 98.4218 147.556 98.2138 147.108 97.7978C146.66 97.3818 146.436 96.7738 146.436 95.9738V91.6058H144.74V90.3418H146.436V88.1178H147.812V90.3418H150.116V91.6058H147.812V95.7978C147.812 96.2991 147.919 96.6511 148.132 96.8538C148.346 97.0565 148.682 97.1578 149.14 97.1578C149.546 97.1578 149.871 97.1045 150.116 96.9978V98.2298C149.732 98.3578 149.322 98.4218 148.884 98.4218ZM155.285 98.5018C154.058 98.5018 153.061 98.1071 152.293 97.3178C151.525 96.5285 151.141 95.5365 151.141 94.3418C151.141 93.1578 151.53 92.1711 152.309 91.3818C153.087 90.5818 154.085 90.1818 155.301 90.1818C156.378 90.1818 157.279 90.5445 158.005 91.2698C158.741 91.9845 159.109 92.9605 159.109 94.1978C159.109 94.3578 159.103 94.4965 159.093 94.6138H152.533C152.554 95.3605 152.821 95.9845 153.333 96.4858C153.855 96.9871 154.511 97.2378 155.301 97.2378C156.421 97.2378 157.253 96.7738 157.797 95.8458L158.885 96.5978C158.106 97.8671 156.906 98.5018 155.285 98.5018ZM152.629 93.4938H157.701C157.594 92.8538 157.311 92.3471 156.853 91.9738C156.405 91.5898 155.871 91.3978 155.253 91.3978C154.623 91.3978 154.058 91.5898 153.557 91.9738C153.066 92.3471 152.757 92.8538 152.629 93.4938ZM164.358 98.5018C163.248 98.5018 162.315 98.0965 161.558 97.2858C160.811 96.4751 160.438 95.4938 160.438 94.3418C160.438 93.1898 160.811 92.2085 161.558 91.3978C162.315 90.5871 163.248 90.1818 164.358 90.1818C164.944 90.1818 165.488 90.3151 165.99 90.5818C166.502 90.8378 166.896 91.1685 167.174 91.5738V86.3418H168.55V98.3418H167.174V97.1098C166.896 97.5151 166.502 97.8511 165.99 98.1178C165.488 98.3738 164.944 98.5018 164.358 98.5018ZM164.566 97.2378C165.355 97.2378 166.006 96.9605 166.518 96.4058C167.03 95.8511 167.286 95.1631 167.286 94.3418C167.286 93.5205 167.03 92.8325 166.518 92.2778C166.006 91.7231 165.355 91.4458 164.566 91.4458C163.766 91.4458 163.11 91.7231 162.598 92.2778C162.086 92.8325 161.83 93.5205 161.83 94.3418C161.83 95.1631 162.086 95.8511 162.598 96.4058C163.11 96.9605 163.766 97.2378 164.566 97.2378ZM178.295 98.5018C177.186 98.5018 176.252 98.0965 175.495 97.2858C174.748 96.4751 174.375 95.4938 174.375 94.3418C174.375 93.1898 174.748 92.2085 175.495 91.3978C176.252 90.5871 177.186 90.1818 178.295 90.1818C178.882 90.1818 179.426 90.3151 179.927 90.5818C180.439 90.8378 180.834 91.1685 181.111 91.5738V90.3418H182.487V98.3418H181.111V97.1098C180.834 97.5151 180.439 97.8511 179.927 98.1178C179.426 98.3738 178.882 98.5018 178.295 98.5018ZM178.503 97.2378C179.292 97.2378 179.943 96.9605 180.455 96.4058C180.967 95.8511 181.223 95.1631 181.223 94.3418C181.223 93.5205 180.967 92.8325 180.455 92.2778C179.943 91.7231 179.292 91.4458 178.503 91.4458C177.703 91.4458 177.047 91.7231 176.535 92.2778C176.023 92.8325 175.767 93.5205 175.767 94.3418C175.767 95.1631 176.023 95.8511 176.535 96.4058C177.047 96.9605 177.703 97.2378 178.503 97.2378ZM185.077 98.3418V90.3418H186.453V91.5738C186.997 90.6458 187.845 90.1818 188.997 90.1818C189.904 90.1818 190.635 90.4751 191.189 91.0618C191.744 91.6485 192.021 92.4325 192.021 93.4138V98.3418H190.661V93.6218C190.661 92.9498 190.491 92.4218 190.149 92.0378C189.808 91.6431 189.349 91.4458 188.773 91.4458C188.112 91.4458 187.557 91.7071 187.109 92.2298C186.672 92.7525 186.453 93.4671 186.453 94.3738V98.3418H185.077ZM197.795 98.5018C196.686 98.5018 195.752 98.0965 194.995 97.2858C194.248 96.4751 193.875 95.4938 193.875 94.3418C193.875 93.1898 194.248 92.2085 194.995 91.3978C195.752 90.5871 196.686 90.1818 197.795 90.1818C198.382 90.1818 198.926 90.3151 199.427 90.5818C199.939 90.8378 200.334 91.1685 200.611 91.5738V86.3418H201.987V98.3418H200.611V97.1098C200.334 97.5151 199.939 97.8511 199.427 98.1178C198.926 98.3738 198.382 98.5018 197.795 98.5018ZM198.003 97.2378C198.792 97.2378 199.443 96.9605 199.955 96.4058C200.467 95.8511 200.723 95.1631 200.723 94.3418C200.723 93.5205 200.467 92.8325 199.955 92.2778C199.443 91.7231 198.792 91.4458 198.003 91.4458C197.203 91.4458 196.547 91.7231 196.035 92.2778C195.523 92.8325 195.267 93.5205 195.267 94.3418C195.267 95.1631 195.523 95.8511 196.035 96.4058C196.547 96.9605 197.203 97.2378 198.003 97.2378ZM211.957 98.5018C210.73 98.5018 209.733 98.1071 208.965 97.3178C208.197 96.5285 207.813 95.5365 207.813 94.3418C207.813 93.1578 208.202 92.1711 208.981 91.3818C209.759 90.5818 210.757 90.1818 211.973 90.1818C213.05 90.1818 213.951 90.5445 214.677 91.2698C215.413 91.9845 215.781 92.9605 215.781 94.1978C215.781 94.3578 215.775 94.4965 215.765 94.6138H209.205C209.226 95.3605 209.493 95.9845 210.005 96.4858C210.527 96.9871 211.183 97.2378 211.973 97.2378C213.093 97.2378 213.925 96.7738 214.469 95.8458L215.557 96.5978C214.778 97.8671 213.578 98.5018 211.957 98.5018ZM209.301 93.4938H214.373C214.266 92.8538 213.983 92.3471 213.525 91.9738C213.077 91.5898 212.543 91.3978 211.925 91.3978C211.295 91.3978 210.73 91.5898 210.229 91.9738C209.738 92.3471 209.429 92.8538 209.301 93.4938ZM217.734 98.3418V90.3418H219.11V91.5738C219.654 90.6458 220.502 90.1818 221.654 90.1818C222.56 90.1818 223.291 90.4751 223.846 91.0618C224.4 91.6485 224.678 92.4325 224.678 93.4138V98.3418H223.318V93.6218C223.318 92.9498 223.147 92.4218 222.806 92.0378C222.464 91.6431 222.006 91.4458 221.43 91.4458C220.768 91.4458 220.214 91.7071 219.766 92.2298C219.328 92.7525 219.11 93.4671 219.11 94.3738V98.3418H217.734ZM228.659 90.3418V99.3978C228.659 100.198 228.435 100.806 227.987 101.222C227.539 101.638 226.958 101.846 226.243 101.846C225.998 101.846 225.779 101.83 225.587 101.798V100.566C225.758 100.587 225.913 100.598 226.051 100.598C226.873 100.598 227.283 100.144 227.283 99.2378V90.3418H228.659ZM228.675 87.9258C228.494 88.1071 228.265 88.1978 227.987 88.1978C227.71 88.1978 227.475 88.1071 227.283 87.9258C227.091 87.7338 226.995 87.4991 226.995 87.2218C226.995 86.9551 227.091 86.7258 227.283 86.5338C227.475 86.3418 227.71 86.2458 227.987 86.2458C228.265 86.2458 228.494 86.3418 228.675 86.5338C228.857 86.7258 228.947 86.9551 228.947 87.2218C228.947 87.4991 228.857 87.7338 228.675 87.9258ZM234.817 98.5018C233.611 98.5018 232.609 98.1018 231.809 97.3018C231.019 96.4911 230.625 95.5045 230.625 94.3418C230.625 93.1791 231.019 92.1978 231.809 91.3978C232.609 90.5871 233.611 90.1818 234.817 90.1818C236.011 90.1818 237.003 90.5871 237.793 91.3978C238.593 92.1978 238.993 93.1791 238.993 94.3418C238.993 95.5045 238.593 96.4911 237.793 97.3018C237.003 98.1018 236.011 98.5018 234.817 98.5018ZM232.801 96.3898C233.323 96.9445 233.995 97.2218 234.817 97.2218C235.638 97.2218 236.305 96.9445 236.817 96.3898C237.329 95.8351 237.585 95.1525 237.585 94.3418C237.585 93.5311 237.329 92.8485 236.817 92.2938C236.305 91.7391 235.638 91.4618 234.817 91.4618C233.995 91.4618 233.323 91.7391 232.801 92.2938C232.289 92.8485 232.033 93.5311 232.033 94.3418C232.033 95.1525 232.289 95.8351 232.801 96.3898ZM242.924 101.686H241.388L243.132 97.9258L239.628 90.3418H241.148L243.9 96.4218L246.636 90.3418H248.172L242.924 101.686ZM256.342 98.5018C255.233 98.5018 254.299 98.0965 253.542 97.2858C252.795 96.4751 252.422 95.4938 252.422 94.3418C252.422 93.1898 252.795 92.2085 253.542 91.3978C254.299 90.5871 255.233 90.1818 256.342 90.1818C256.929 90.1818 257.473 90.3151 257.974 90.5818C258.486 90.8378 258.881 91.1685 259.158 91.5738V90.3418H260.534V98.3418H259.158V97.1098C258.881 97.5151 258.486 97.8511 257.974 98.1178C257.473 98.3738 256.929 98.5018 256.342 98.5018ZM256.55 97.2378C257.339 97.2378 257.99 96.9605 258.502 96.4058C259.014 95.8511 259.27 95.1631 259.27 94.3418C259.27 93.5205 259.014 92.8325 258.502 92.2778C257.99 91.7231 257.339 91.4458 256.55 91.4458C255.75 91.4458 255.094 91.7231 254.582 92.2778C254.07 92.8325 253.814 93.5205 253.814 94.3418C253.814 95.1631 254.07 95.8511 254.582 96.4058C255.094 96.9605 255.75 97.2378 256.55 97.2378ZM270.44 98.5018C269.309 98.5018 268.349 98.1605 267.56 97.4778C266.781 96.7845 266.392 95.9205 266.392 94.8858H267.784C267.826 95.5578 268.098 96.1071 268.6 96.5338C269.101 96.9498 269.714 97.1578 270.44 97.1578C271.101 97.1578 271.65 96.9765 272.088 96.6138C272.525 96.2511 272.744 95.7498 272.744 95.1098C272.744 94.4271 272.52 93.9151 272.072 93.5738C271.634 93.2325 271.032 93.0618 270.264 93.0618H269.416V91.7978H270.328C270.936 91.7978 271.432 91.6271 271.816 91.2858C272.21 90.9445 272.413 90.5018 272.424 89.9578C272.424 89.4245 272.226 88.9871 271.832 88.6458C271.448 88.3045 270.962 88.1338 270.376 88.1338C269.704 88.1338 269.138 88.3311 268.68 88.7258C268.221 89.1205 267.992 89.6698 267.992 90.3738H266.584C266.584 89.2858 266.946 88.4165 267.672 87.7658C268.397 87.1151 269.298 86.7898 270.376 86.7898C271.368 86.7898 272.189 87.0778 272.84 87.6538C273.501 88.2191 273.832 88.9711 273.832 89.9098C273.821 90.4538 273.672 90.9445 273.384 91.3818C273.106 91.8191 272.744 92.1551 272.296 92.3898C272.872 92.6245 273.325 92.9871 273.656 93.4778C273.986 93.9578 274.152 94.5178 274.152 95.1578C274.152 96.1498 273.805 96.9551 273.112 97.5738C272.418 98.1925 271.528 98.5018 270.44 98.5018ZM279.945 98.5018C278.761 98.5018 277.795 98.1071 277.049 97.3178C276.302 96.5178 275.929 95.4885 275.929 94.2298V91.0618C275.929 89.8031 276.302 88.7791 277.049 87.9898C277.806 87.1898 278.771 86.7898 279.945 86.7898C281.118 86.7898 282.083 87.1898 282.841 87.9898C283.598 88.7898 283.977 89.8138 283.977 91.0618V94.2298C283.977 95.4885 283.598 96.5178 282.841 97.3178C282.083 98.1071 281.118 98.5018 279.945 98.5018ZM279.945 97.1578C280.734 97.1578 281.374 96.8965 281.865 96.3738C282.355 95.8511 282.601 95.1365 282.601 94.2298V91.0618C282.601 90.1551 282.355 89.4405 281.865 88.9178C281.374 88.3951 280.734 88.1338 279.945 88.1338C279.166 88.1338 278.531 88.3951 278.041 88.9178C277.55 89.4405 277.305 90.1551 277.305 91.0618V94.2298C277.305 95.1365 277.55 95.8511 278.041 96.3738C278.531 96.8965 279.166 97.1578 279.945 97.1578ZM285.978 94.5498V93.1738H290.058V94.5498H285.978ZM295.701 98.5018C294.592 98.5018 293.659 98.0965 292.901 97.2858C292.155 96.4751 291.781 95.4938 291.781 94.3418C291.781 93.1898 292.155 92.2085 292.901 91.3978C293.659 90.5871 294.592 90.1818 295.701 90.1818C296.288 90.1818 296.832 90.3151 297.333 90.5818C297.845 90.8378 298.24 91.1685 298.517 91.5738V86.3418H299.893V98.3418H298.517V97.1098C298.24 97.5151 297.845 97.8511 297.333 98.1178C296.832 98.3738 296.288 98.5018 295.701 98.5018ZM295.909 97.2378C296.699 97.2378 297.349 96.9605 297.861 96.4058C298.373 95.8511 298.629 95.1631 298.629 94.3418C298.629 93.5205 298.373 92.8325 297.861 92.2778C297.349 91.7231 296.699 91.4458 295.909 91.4458C295.109 91.4458 294.453 91.7231 293.941 92.2778C293.429 92.8325 293.173 93.5205 293.173 94.3418C293.173 95.1631 293.429 95.8511 293.941 96.4058C294.453 96.9605 295.109 97.2378 295.909 97.2378ZM305.78 98.5018C304.67 98.5018 303.737 98.0965 302.98 97.2858C302.233 96.4751 301.86 95.4938 301.86 94.3418C301.86 93.1898 302.233 92.2085 302.98 91.3978C303.737 90.5871 304.67 90.1818 305.78 90.1818C306.366 90.1818 306.91 90.3151 307.412 90.5818C307.924 90.8378 308.318 91.1685 308.596 91.5738V90.3418H309.972V98.3418H308.596V97.1098C308.318 97.5151 307.924 97.8511 307.412 98.1178C306.91 98.3738 306.366 98.5018 305.78 98.5018ZM305.988 97.2378C306.777 97.2378 307.428 96.9605 307.94 96.4058C308.452 95.8511 308.708 95.1631 308.708 94.3418C308.708 93.5205 308.452 92.8325 307.94 92.2778C307.428 91.7231 306.777 91.4458 305.988 91.4458C305.188 91.4458 304.532 91.7231 304.02 92.2778C303.508 92.8325 303.252 93.5205 303.252 94.3418C303.252 95.1631 303.508 95.8511 304.02 96.4058C304.532 96.9605 305.188 97.2378 305.988 97.2378ZM314.69 101.686H313.154L314.898 97.9258L311.394 90.3418H312.914L315.666 96.4218L318.402 90.3418H319.938L314.69 101.686ZM325.281 98.3418V91.6058H323.585V90.3418H325.281V88.7258C325.281 87.9258 325.505 87.3125 325.953 86.8858C326.401 86.4591 326.993 86.2458 327.729 86.2458C328.166 86.2458 328.582 86.3151 328.977 86.4538V87.6698C328.731 87.5631 328.401 87.5098 327.985 87.5098C327.526 87.5098 327.19 87.6111 326.977 87.8138C326.763 88.0165 326.657 88.3685 326.657 88.8698V90.3418H328.977V91.6058H326.657V98.3418H325.281ZM330.484 98.3418V90.3418H331.86V91.8938C332.009 91.4031 332.297 91.0085 332.724 90.7098C333.161 90.4111 333.62 90.2618 334.1 90.2618C334.334 90.2618 334.542 90.2831 334.724 90.3258V91.7498C334.532 91.6645 334.281 91.6218 333.972 91.6218C333.417 91.6218 332.926 91.8618 332.5 92.3418C332.073 92.8218 331.86 93.4991 331.86 94.3738V98.3418H330.484ZM339.582 98.5018C338.355 98.5018 337.358 98.1071 336.59 97.3178C335.822 96.5285 335.438 95.5365 335.438 94.3418C335.438 93.1578 335.827 92.1711 336.606 91.3818C337.384 90.5818 338.382 90.1818 339.598 90.1818C340.675 90.1818 341.576 90.5445 342.302 91.2698C343.038 91.9845 343.406 92.9605 343.406 94.1978C343.406 94.3578 343.4 94.4965 343.39 94.6138H336.83C336.851 95.3605 337.118 95.9845 337.63 96.4858C338.152 96.9871 338.808 97.2378 339.598 97.2378C340.718 97.2378 341.55 96.7738 342.094 95.8458L343.182 96.5978C342.403 97.8671 341.203 98.5018 339.582 98.5018ZM336.926 93.4938H341.998C341.891 92.8538 341.608 92.3471 341.15 91.9738C340.702 91.5898 340.168 91.3978 339.55 91.3978C338.92 91.3978 338.355 91.5898 337.854 91.9738C337.363 92.3471 337.054 92.8538 336.926 93.4938ZM348.879 98.5018C347.652 98.5018 346.655 98.1071 345.887 97.3178C345.119 96.5285 344.735 95.5365 344.735 94.3418C344.735 93.1578 345.124 92.1711 345.903 91.3818C346.681 90.5818 347.679 90.1818 348.895 90.1818C349.972 90.1818 350.873 90.5445 351.599 91.2698C352.335 91.9845 352.703 92.9605 352.703 94.1978C352.703 94.3578 352.697 94.4965 352.687 94.6138H346.127C346.148 95.3605 346.415 95.9845 346.927 96.4858C347.449 96.9871 348.105 97.2378 348.895 97.2378C350.015 97.2378 350.847 96.7738 351.391 95.8458L352.479 96.5978C351.7 97.8671 350.5 98.5018 348.879 98.5018ZM346.223 93.4938H351.295C351.188 92.8538 350.905 92.3471 350.447 91.9738C349.999 91.5898 349.465 91.3978 348.847 91.3978C348.217 91.3978 347.652 91.5898 347.151 91.9738C346.66 92.3471 346.351 92.8538 346.223 93.4938ZM361.353 98.4218C360.617 98.4218 360.025 98.2138 359.577 97.7978C359.129 97.3818 358.905 96.7738 358.905 95.9738V91.6058H357.209V90.3418H358.905V88.1178H360.281V90.3418H362.585V91.6058H360.281V95.7978C360.281 96.2991 360.388 96.6511 360.601 96.8538C360.814 97.0565 361.15 97.1578 361.609 97.1578C362.014 97.1578 362.34 97.1045 362.585 96.9978V98.2298C362.201 98.3578 361.79 98.4218 361.353 98.4218ZM364.343 98.3418V90.3418H365.719V91.8938C365.868 91.4031 366.156 91.0085 366.583 90.7098C367.02 90.4111 367.479 90.2618 367.959 90.2618C368.194 90.2618 368.402 90.2831 368.583 90.3258V91.7498C368.391 91.6645 368.14 91.6218 367.831 91.6218C367.276 91.6218 366.786 91.8618 366.359 92.3418C365.932 92.8218 365.719 93.4991 365.719 94.3738V98.3418H364.343ZM371.594 87.9258C371.413 88.1071 371.184 88.1978 370.906 88.1978C370.629 88.1978 370.394 88.1071 370.202 87.9258C370.01 87.7338 369.914 87.4991 369.914 87.2218C369.914 86.9551 370.01 86.7258 370.202 86.5338C370.394 86.3418 370.629 86.2458 370.906 86.2458C371.184 86.2458 371.413 86.3418 371.594 86.5338C371.776 86.7258 371.866 86.9551 371.866 87.2218C371.866 87.4991 371.776 87.7338 371.594 87.9258ZM370.202 98.3418V90.3418H371.578V98.3418H370.202ZM377.483 98.5018C376.373 98.5018 375.44 98.0965 374.683 97.2858C373.936 96.4751 373.563 95.4938 373.563 94.3418C373.563 93.1898 373.936 92.2085 374.683 91.3978C375.44 90.5871 376.373 90.1818 377.483 90.1818C378.069 90.1818 378.613 90.3151 379.115 90.5818C379.627 90.8378 380.021 91.1685 380.299 91.5738V90.3418H381.675V98.3418H380.299V97.1098C380.021 97.5151 379.627 97.8511 379.115 98.1178C378.613 98.3738 378.069 98.5018 377.483 98.5018ZM377.691 97.2378C378.48 97.2378 379.131 96.9605 379.643 96.4058C380.155 95.8511 380.411 95.1631 380.411 94.3418C380.411 93.5205 380.155 92.8325 379.643 92.2778C379.131 91.7231 378.48 91.4458 377.691 91.4458C376.891 91.4458 376.235 91.7231 375.723 92.2778C375.211 92.8325 374.955 93.5205 374.955 94.3418C374.955 95.1631 375.211 95.8511 375.723 96.4058C376.235 96.9605 376.891 97.2378 377.691 97.2378ZM384.265 98.3418V86.3418H385.641V98.3418H384.265ZM389.961 97.9898L388.313 100.63H387.401L388.473 98.3418C388.036 98.1285 387.817 97.7711 387.817 97.2698C387.817 96.9498 387.934 96.6725 388.169 96.4378C388.404 96.1925 388.681 96.0698 389.001 96.0698C389.321 96.0698 389.598 96.1925 389.833 96.4378C390.068 96.6725 390.185 96.9498 390.185 97.2698C390.185 97.5045 390.11 97.7445 389.961 97.9898ZM397.578 101.686H396.202V90.3418H397.578V91.5738C397.856 91.1685 398.245 90.8378 398.746 90.5818C399.258 90.3151 399.808 90.1818 400.394 90.1818C401.504 90.1818 402.432 90.5871 403.178 91.3978C403.936 92.2085 404.314 93.1898 404.314 94.3418C404.314 95.4938 403.936 96.4751 403.178 97.2858C402.432 98.0965 401.504 98.5018 400.394 98.5018C399.808 98.5018 399.258 98.3738 398.746 98.1178C398.245 97.8511 397.856 97.5151 397.578 97.1098V101.686ZM398.234 96.4058C398.746 96.9605 399.397 97.2378 400.186 97.2378C400.976 97.2378 401.626 96.9605 402.138 96.4058C402.65 95.8511 402.906 95.1631 402.906 94.3418C402.906 93.5205 402.65 92.8325 402.138 92.2778C401.626 91.7231 400.976 91.4458 400.186 91.4458C399.397 91.4458 398.746 91.7231 398.234 92.2778C397.722 92.8325 397.466 93.5205 397.466 94.3418C397.466 95.1631 397.722 95.8511 398.234 96.4058ZM406.296 98.3418V86.3418H407.672V98.3418H406.296ZM413.8 98.5018C412.574 98.5018 411.576 98.1071 410.808 97.3178C410.04 96.5285 409.656 95.5365 409.656 94.3418C409.656 93.1578 410.046 92.1711 410.824 91.3818C411.603 90.5818 412.6 90.1818 413.816 90.1818C414.894 90.1818 415.795 90.5445 416.52 91.2698C417.256 91.9845 417.624 92.9605 417.624 94.1978C417.624 94.3578 417.619 94.4965 417.608 94.6138H411.048C411.07 95.3605 411.336 95.9845 411.848 96.4858C412.371 96.9871 413.027 97.2378 413.816 97.2378C414.936 97.2378 415.768 96.7738 416.312 95.8458L417.4 96.5978C416.622 97.8671 415.422 98.5018 413.8 98.5018ZM411.144 93.4938H416.216C416.11 92.8538 415.827 92.3471 415.368 91.9738C414.92 91.5898 414.387 91.3978 413.768 91.3978C413.139 91.3978 412.574 91.5898 412.072 91.9738C411.582 92.3471 411.272 92.8538 411.144 93.4938ZM422.873 98.5018C421.764 98.5018 420.831 98.0965 420.073 97.2858C419.327 96.4751 418.953 95.4938 418.953 94.3418C418.953 93.1898 419.327 92.2085 420.073 91.3978C420.831 90.5871 421.764 90.1818 422.873 90.1818C423.46 90.1818 424.004 90.3151 424.505 90.5818C425.017 90.8378 425.412 91.1685 425.689 91.5738V90.3418H427.065V98.3418H425.689V97.1098C425.412 97.5151 425.017 97.8511 424.505 98.1178C424.004 98.3738 423.46 98.5018 422.873 98.5018ZM423.081 97.2378C423.871 97.2378 424.521 96.9605 425.033 96.4058C425.545 95.8511 425.801 95.1631 425.801 94.3418C425.801 93.5205 425.545 92.8325 425.033 92.2778C424.521 91.7231 423.871 91.4458 423.081 91.4458C422.281 91.4458 421.625 91.7231 421.113 92.2778C420.601 92.8325 420.345 93.5205 420.345 94.3418C420.345 95.1631 420.601 95.8511 421.113 96.4058C421.625 96.9605 422.281 97.2378 423.081 97.2378ZM432.071 98.5018C431.335 98.5018 430.69 98.3471 430.135 98.0378C429.581 97.7178 429.181 97.2538 428.935 96.6458L430.055 96.0218C430.205 96.4165 430.466 96.7258 430.839 96.9498C431.213 97.1738 431.629 97.2858 432.087 97.2858C432.482 97.2858 432.813 97.1898 433.079 96.9978C433.346 96.8058 433.479 96.5445 433.479 96.2138C433.479 95.9258 433.373 95.6858 433.159 95.4938C432.957 95.3018 432.599 95.1258 432.087 94.9658L431.287 94.7098C429.954 94.3258 429.287 93.5471 429.287 92.3738C429.287 91.7125 429.549 91.1845 430.071 90.7898C430.605 90.3845 431.261 90.1818 432.039 90.1818C433.255 90.1818 434.135 90.6458 434.679 91.5738L433.655 92.2778C433.218 91.6698 432.663 91.3658 431.991 91.3658C431.629 91.3658 431.314 91.4565 431.047 91.6378C430.791 91.8085 430.663 92.0378 430.663 92.3258C430.663 92.5925 430.743 92.8218 430.903 93.0138C431.074 93.1951 431.373 93.3498 431.799 93.4778L432.679 93.7498C434.13 94.1978 434.855 94.9818 434.855 96.1018C434.855 96.8485 434.594 97.4351 434.071 97.8618C433.559 98.2885 432.893 98.5018 432.071 98.5018ZM440.379 98.5018C439.152 98.5018 438.155 98.1071 437.387 97.3178C436.619 96.5285 436.235 95.5365 436.235 94.3418C436.235 93.1578 436.624 92.1711 437.403 91.3818C438.181 90.5818 439.179 90.1818 440.395 90.1818C441.472 90.1818 442.373 90.5445 443.099 91.2698C443.835 91.9845 444.203 92.9605 444.203 94.1978C444.203 94.3578 444.197 94.4965 444.187 94.6138H437.627C437.648 95.3605 437.915 95.9845 438.427 96.4858C438.949 96.9871 439.605 97.2378 440.395 97.2378C441.515 97.2378 442.347 96.7738 442.891 95.8458L443.979 96.5978C443.2 97.8671 442 98.5018 440.379 98.5018ZM437.723 93.4938H442.795C442.688 92.8538 442.405 92.3471 441.947 91.9738C441.499 91.5898 440.965 91.3978 440.347 91.3978C439.717 91.3978 439.152 91.5898 438.651 91.9738C438.16 92.3471 437.851 92.8538 437.723 93.4938ZM453.583 98.5018C452.377 98.5018 451.375 98.1018 450.575 97.3018C449.785 96.5018 449.391 95.5151 449.391 94.3418C449.391 93.1685 449.785 92.1818 450.575 91.3818C451.375 90.5818 452.377 90.1818 453.583 90.1818C454.393 90.1818 455.119 90.3738 455.759 90.7578C456.409 91.1418 456.916 91.6645 457.279 92.3258L456.079 92.9978C455.844 92.5285 455.508 92.1551 455.071 91.8778C454.644 91.6005 454.148 91.4618 453.583 91.4618C452.761 91.4618 452.089 91.7391 451.567 92.2938C451.044 92.8485 450.783 93.5311 450.783 94.3418C450.783 95.1525 451.044 95.8351 451.567 96.3898C452.089 96.9445 452.761 97.2218 453.583 97.2218C454.148 97.2218 454.644 97.0831 455.071 96.8058C455.508 96.5285 455.844 96.1551 456.079 95.6858L457.279 96.3578C456.916 97.0191 456.409 97.5418 455.759 97.9258C455.119 98.3098 454.393 98.5018 453.583 98.5018ZM462.614 98.5018C461.408 98.5018 460.406 98.1018 459.606 97.3018C458.816 96.4911 458.422 95.5045 458.422 94.3418C458.422 93.1791 458.816 92.1978 459.606 91.3978C460.406 90.5871 461.408 90.1818 462.614 90.1818C463.808 90.1818 464.8 90.5871 465.59 91.3978C466.39 92.1978 466.79 93.1791 466.79 94.3418C466.79 95.5045 466.39 96.4911 465.59 97.3018C464.8 98.1018 463.808 98.5018 462.614 98.5018ZM460.598 96.3898C461.12 96.9445 461.792 97.2218 462.614 97.2218C463.435 97.2218 464.102 96.9445 464.614 96.3898C465.126 95.8351 465.382 95.1525 465.382 94.3418C465.382 93.5311 465.126 92.8485 464.614 92.2938C464.102 91.7391 463.435 91.4618 462.614 91.4618C461.792 91.4618 461.12 91.7391 460.598 92.2938C460.086 92.8485 459.83 93.5311 459.83 94.3418C459.83 95.1525 460.086 95.8351 460.598 96.3898ZM479.069 98.3418V93.6378C479.069 92.9765 478.93 92.4485 478.653 92.0538C478.386 91.6485 477.997 91.4458 477.485 91.4458C476.845 91.4458 476.322 91.6965 475.917 92.1978C475.522 92.6991 475.314 93.3818 475.293 94.2458V98.3418H473.917V93.6378C473.917 92.9658 473.778 92.4325 473.501 92.0378C473.234 91.6431 472.85 91.4458 472.349 91.4458C471.687 91.4458 471.154 91.7125 470.749 92.2458C470.343 92.7685 470.141 93.4778 470.141 94.3738V98.3418H468.765V90.3418H470.141V91.5738C470.653 90.6458 471.458 90.1818 472.557 90.1818C473.773 90.1818 474.594 90.7525 475.021 91.8938C475.234 91.3711 475.575 90.9551 476.045 90.6458C476.514 90.3365 477.047 90.1818 477.645 90.1818C478.509 90.1818 479.191 90.4751 479.693 91.0618C480.194 91.6485 480.445 92.4378 480.445 93.4298V98.3418H479.069ZM484.297 101.686H482.921V90.3418H484.297V91.5738C484.574 91.1685 484.964 90.8378 485.465 90.5818C485.977 90.3151 486.526 90.1818 487.113 90.1818C488.222 90.1818 489.15 90.5871 489.897 91.3978C490.654 92.2085 491.033 93.1898 491.033 94.3418C491.033 95.4938 490.654 96.4751 489.897 97.2858C489.15 98.0965 488.222 98.5018 487.113 98.5018C486.526 98.5018 485.977 98.3738 485.465 98.1178C484.964 97.8511 484.574 97.5151 484.297 97.1098V101.686ZM484.953 96.4058C485.465 96.9605 486.116 97.2378 486.905 97.2378C487.694 97.2378 488.345 96.9605 488.857 96.4058C489.369 95.8511 489.625 95.1631 489.625 94.3418C489.625 93.5205 489.369 92.8325 488.857 92.2778C488.345 91.7231 487.694 91.4458 486.905 91.4458C486.116 91.4458 485.465 91.7231 484.953 92.2778C484.441 92.8325 484.185 93.5205 484.185 94.3418C484.185 95.1631 484.441 95.8511 484.953 96.4058ZM493.015 98.3418V86.3418H494.391V98.3418H493.015ZM500.519 98.5018C499.292 98.5018 498.295 98.1071 497.527 97.3178C496.759 96.5285 496.375 95.5365 496.375 94.3418C496.375 93.1578 496.764 92.1711 497.543 91.3818C498.322 90.5818 499.319 90.1818 500.535 90.1818C501.612 90.1818 502.514 90.5445 503.239 91.2698C503.975 91.9845 504.343 92.9605 504.343 94.1978C504.343 94.3578 504.338 94.4965 504.327 94.6138H497.767C497.788 95.3605 498.055 95.9845 498.567 96.4858C499.09 96.9871 499.746 97.2378 500.535 97.2378C501.655 97.2378 502.487 96.7738 503.031 95.8458L504.119 96.5978C503.34 97.8671 502.14 98.5018 500.519 98.5018ZM497.863 93.4938H502.935C502.828 92.8538 502.546 92.3471 502.087 91.9738C501.639 91.5898 501.106 91.3978 500.487 91.3978C499.858 91.3978 499.292 91.5898 498.791 91.9738C498.3 92.3471 497.991 92.8538 497.863 93.4938ZM509.291 98.4218C508.555 98.4218 507.963 98.2138 507.515 97.7978C507.067 97.3818 506.843 96.7738 506.843 95.9738V91.6058H505.147V90.3418H506.843V88.1178H508.219V90.3418H510.523V91.6058H508.219V95.7978C508.219 96.2991 508.325 96.6511 508.539 96.8538C508.752 97.0565 509.088 97.1578 509.547 97.1578C509.952 97.1578 510.277 97.1045 510.523 96.9978V98.2298C510.139 98.3578 509.728 98.4218 509.291 98.4218ZM515.691 98.5018C514.464 98.5018 513.467 98.1071 512.699 97.3178C511.931 96.5285 511.547 95.5365 511.547 94.3418C511.547 93.1578 511.936 92.1711 512.715 91.3818C513.494 90.5818 514.491 90.1818 515.707 90.1818C516.784 90.1818 517.686 90.5445 518.411 91.2698C519.147 91.9845 519.515 92.9605 519.515 94.1978C519.515 94.3578 519.51 94.4965 519.499 94.6138H512.939C512.96 95.3605 513.227 95.9845 513.739 96.4858C514.262 96.9871 514.918 97.2378 515.707 97.2378C516.827 97.2378 517.659 96.7738 518.203 95.8458L519.291 96.5978C518.512 97.8671 517.312 98.5018 515.691 98.5018ZM513.035 93.4938H518.107C518 92.8538 517.718 92.3471 517.259 91.9738C516.811 91.5898 516.278 91.3978 515.659 91.3978C515.03 91.3978 514.464 91.5898 513.963 91.9738C513.472 92.3471 513.163 92.8538 513.035 93.4938ZM527.08 101.686H525.544L527.288 97.9258L523.784 90.3418H525.304L528.056 96.4218L530.792 90.3418H532.328L527.08 101.686ZM537.082 98.5018C535.877 98.5018 534.874 98.1018 534.074 97.3018C533.285 96.4911 532.89 95.5045 532.89 94.3418C532.89 93.1791 533.285 92.1978 534.074 91.3978C534.874 90.5871 535.877 90.1818 537.082 90.1818C538.277 90.1818 539.269 90.5871 540.058 91.3978C540.858 92.1978 541.258 93.1791 541.258 94.3418C541.258 95.5045 540.858 96.4911 540.058 97.3018C539.269 98.1018 538.277 98.5018 537.082 98.5018ZM535.066 96.3898C535.589 96.9445 536.261 97.2218 537.082 97.2218C537.904 97.2218 538.57 96.9445 539.082 96.3898C539.594 95.8351 539.85 95.1525 539.85 94.3418C539.85 93.5311 539.594 92.8485 539.082 92.2938C538.57 91.7391 537.904 91.4618 537.082 91.4618C536.261 91.4618 535.589 91.7391 535.066 92.2938C534.554 92.8485 534.298 93.5311 534.298 94.3418C534.298 95.1525 534.554 95.8351 535.066 96.3898ZM546.066 98.5018C545.191 98.5018 544.482 98.2085 543.938 97.6218C543.394 97.0245 543.122 96.2351 543.122 95.2538V90.3418H544.498V95.0458C544.498 95.7178 544.658 96.2511 544.978 96.6458C545.308 97.0405 545.751 97.2378 546.306 97.2378C546.946 97.2378 547.474 96.9765 547.89 96.4538C548.316 95.9205 548.53 95.2058 548.53 94.3098V90.3418H549.906V98.3418H548.53V97.1098C548.007 98.0378 547.186 98.5018 546.066 98.5018ZM552.499 98.3418V90.3418H553.875V91.8938C554.024 91.4031 554.312 91.0085 554.739 90.7098C555.176 90.4111 555.635 90.2618 556.115 90.2618C556.35 90.2618 556.558 90.2831 556.739 90.3258V91.7498C556.547 91.6645 556.296 91.6218 555.987 91.6218C555.432 91.6218 554.942 91.8618 554.515 92.3418C554.088 92.8218 553.875 93.4991 553.875 94.3738V98.3418H552.499ZM561.812 98.3418V90.3418H563.188V91.8938C563.337 91.4031 563.625 91.0085 564.052 90.7098C564.489 90.4111 564.948 90.2618 565.428 90.2618C565.662 90.2618 565.87 90.2831 566.052 90.3258V91.7498C565.86 91.6645 565.609 91.6218 565.3 91.6218C564.745 91.6218 564.254 91.8618 563.828 92.3418C563.401 92.8218 563.188 93.4991 563.188 94.3738V98.3418H561.812ZM570.91 98.5018C569.683 98.5018 568.686 98.1071 567.918 97.3178C567.15 96.5285 566.766 95.5365 566.766 94.3418C566.766 93.1578 567.155 92.1711 567.934 91.3818C568.712 90.5818 569.71 90.1818 570.926 90.1818C572.003 90.1818 572.904 90.5445 573.63 91.2698C574.366 91.9845 574.734 92.9605 574.734 94.1978C574.734 94.3578 574.728 94.4965 574.718 94.6138H568.158C568.179 95.3605 568.446 95.9845 568.958 96.4858C569.48 96.9871 570.136 97.2378 570.926 97.2378C572.046 97.2378 572.878 96.7738 573.422 95.8458L574.51 96.5978C573.731 97.8671 572.531 98.5018 570.91 98.5018ZM568.254 93.4938H573.326C573.219 92.8538 572.936 92.3471 572.478 91.9738C572.03 91.5898 571.496 91.3978 570.878 91.3978C570.248 91.3978 569.683 91.5898 569.182 91.9738C568.691 92.3471 568.382 92.8538 568.254 93.4938ZM578.223 96.2618C578.724 96.7845 579.375 97.0458 580.175 97.0458C580.975 97.0458 581.625 96.7845 582.127 96.2618C582.628 95.7285 582.879 95.0565 582.879 94.2458C582.879 93.4351 582.623 92.7685 582.111 92.2458C581.609 91.7125 580.964 91.4458 580.175 91.4458C579.385 91.4458 578.735 91.7125 578.223 92.2458C577.721 92.7685 577.471 93.4351 577.471 94.2458C577.471 95.0565 577.721 95.7285 578.223 96.2618ZM580.095 101.846C579.273 101.846 578.532 101.691 577.871 101.382C577.209 101.083 576.697 100.694 576.335 100.214L577.295 99.2538C577.999 100.15 578.932 100.598 580.095 100.598C580.841 100.598 581.471 100.363 581.983 99.8938C582.505 99.4245 582.767 98.7365 582.767 97.8298V96.9178C582.479 97.3445 582.089 97.6858 581.599 97.9418C581.108 98.1978 580.569 98.3258 579.983 98.3258C578.863 98.3258 577.929 97.9365 577.183 97.1578C576.436 96.3685 576.063 95.3978 576.063 94.2458C576.063 93.1045 576.436 92.1445 577.183 91.3658C577.94 90.5765 578.873 90.1818 579.983 90.1818C580.569 90.1818 581.108 90.3098 581.599 90.5658C582.089 90.8218 582.479 91.1578 582.767 91.5738V90.3418H584.143V97.8778C584.143 99.1685 583.764 100.15 583.007 100.822C582.26 101.504 581.289 101.846 580.095 101.846ZM588.126 87.9258C587.944 88.1071 587.715 88.1978 587.438 88.1978C587.16 88.1978 586.926 88.1071 586.734 87.9258C586.542 87.7338 586.446 87.4991 586.446 87.2218C586.446 86.9551 586.542 86.7258 586.734 86.5338C586.926 86.3418 587.16 86.2458 587.438 86.2458C587.715 86.2458 587.944 86.3418 588.126 86.5338C588.307 86.7258 588.398 86.9551 588.398 87.2218C588.398 87.4991 588.307 87.7338 588.126 87.9258ZM586.734 98.3418V90.3418H588.11V98.3418H586.734ZM593.134 98.5018C592.398 98.5018 591.753 98.3471 591.198 98.0378C590.643 97.7178 590.243 97.2538 589.998 96.6458L591.118 96.0218C591.267 96.4165 591.529 96.7258 591.902 96.9498C592.275 97.1738 592.691 97.2858 593.15 97.2858C593.545 97.2858 593.875 97.1898 594.142 96.9978C594.409 96.8058 594.542 96.5445 594.542 96.2138C594.542 95.9258 594.435 95.6858 594.222 95.4938C594.019 95.3018 593.662 95.1258 593.15 94.9658L592.35 94.7098C591.017 94.3258 590.35 93.5471 590.35 92.3738C590.35 91.7125 590.611 91.1845 591.134 90.7898C591.667 90.3845 592.323 90.1818 593.102 90.1818C594.318 90.1818 595.198 90.6458 595.742 91.5738L594.718 92.2778C594.281 91.6698 593.726 91.3658 593.054 91.3658C592.691 91.3658 592.377 91.4565 592.11 91.6378C591.854 91.8085 591.726 92.0378 591.726 92.3258C591.726 92.5925 591.806 92.8218 591.966 93.0138C592.137 93.1951 592.435 93.3498 592.862 93.4778L593.742 93.7498C595.193 94.1978 595.918 94.9818 595.918 96.1018C595.918 96.8485 595.657 97.4351 595.134 97.8618C594.622 98.2885 593.955 98.5018 593.134 98.5018ZM600.947 98.4218C600.211 98.4218 599.619 98.2138 599.171 97.7978C598.723 97.3818 598.499 96.7738 598.499 95.9738V91.6058H596.803V90.3418H598.499V88.1178H599.875V90.3418H602.179V91.6058H599.875V95.7978C599.875 96.2991 599.982 96.6511 600.195 96.8538C600.408 97.0565 600.744 97.1578 601.203 97.1578C601.608 97.1578 601.934 97.1045 602.179 96.9978V98.2298C601.795 98.3578 601.384 98.4218 600.947 98.4218ZM603.937 98.3418V90.3418H605.313V91.8938C605.462 91.4031 605.75 91.0085 606.177 90.7098C606.614 90.4111 607.073 90.2618 607.553 90.2618C607.787 90.2618 607.995 90.2831 608.177 90.3258V91.7498C607.985 91.6645 607.734 91.6218 607.425 91.6218C606.87 91.6218 606.379 91.8618 605.953 92.3418C605.526 92.8218 605.313 93.4991 605.313 94.3738V98.3418H603.937ZM612.826 98.5018C611.717 98.5018 610.784 98.0965 610.026 97.2858C609.28 96.4751 608.906 95.4938 608.906 94.3418C608.906 93.1898 609.28 92.2085 610.026 91.3978C610.784 90.5871 611.717 90.1818 612.826 90.1818C613.413 90.1818 613.957 90.3151 614.458 90.5818C614.97 90.8378 615.365 91.1685 615.642 91.5738V90.3418H617.018V98.3418H615.642V97.1098C615.365 97.5151 614.97 97.8511 614.458 98.1178C613.957 98.3738 613.413 98.5018 612.826 98.5018ZM613.034 97.2378C613.824 97.2378 614.474 96.9605 614.986 96.4058C615.498 95.8511 615.754 95.1631 615.754 94.3418C615.754 93.5205 615.498 92.8325 614.986 92.2778C614.474 91.7231 613.824 91.4458 613.034 91.4458C612.234 91.4458 611.578 91.7231 611.066 92.2778C610.554 92.8325 610.298 93.5205 610.298 94.3418C610.298 95.1631 610.554 95.8511 611.066 96.4058C611.578 96.9605 612.234 97.2378 613.034 97.2378ZM622.713 98.4218C621.977 98.4218 621.385 98.2138 620.937 97.7978C620.489 97.3818 620.265 96.7738 620.265 95.9738V91.6058H618.569V90.3418H620.265V88.1178H621.641V90.3418H623.945V91.6058H621.641V95.7978C621.641 96.2991 621.747 96.6511 621.961 96.8538C622.174 97.0565 622.51 97.1578 622.969 97.1578C623.374 97.1578 623.699 97.1045 623.945 96.9978V98.2298C623.561 98.3578 623.15 98.4218 622.713 98.4218ZM627.094 87.9258C626.913 88.1071 626.684 88.1978 626.406 88.1978C626.129 88.1978 625.894 88.1071 625.702 87.9258C625.51 87.7338 625.414 87.4991 625.414 87.2218C625.414 86.9551 625.51 86.7258 625.702 86.5338C625.894 86.3418 626.129 86.2458 626.406 86.2458C626.684 86.2458 626.913 86.3418 627.094 86.5338C627.276 86.7258 627.366 86.9551 627.366 87.2218C627.366 87.4991 627.276 87.7338 627.094 87.9258ZM625.702 98.3418V90.3418H627.078V98.3418H625.702ZM633.239 98.5018C632.033 98.5018 631.031 98.1018 630.231 97.3018C629.441 96.4911 629.047 95.5045 629.047 94.3418C629.047 93.1791 629.441 92.1978 630.231 91.3978C631.031 90.5871 632.033 90.1818 633.239 90.1818C634.433 90.1818 635.425 90.5871 636.215 91.3978C637.015 92.1978 637.415 93.1791 637.415 94.3418C637.415 95.5045 637.015 96.4911 636.215 97.3018C635.425 98.1018 634.433 98.5018 633.239 98.5018ZM631.223 96.3898C631.745 96.9445 632.417 97.2218 633.239 97.2218C634.06 97.2218 634.727 96.9445 635.239 96.3898C635.751 95.8351 636.007 95.1525 636.007 94.3418C636.007 93.5311 635.751 92.8485 635.239 92.2938C634.727 91.7391 634.06 91.4618 633.239 91.4618C632.417 91.4618 631.745 91.7391 631.223 92.2938C630.711 92.8485 630.455 93.5311 630.455 94.3418C630.455 95.1525 630.711 95.8351 631.223 96.3898ZM639.39 98.3418V90.3418H640.766V91.5738C641.31 90.6458 642.158 90.1818 643.31 90.1818C644.216 90.1818 644.947 90.4751 645.502 91.0618C646.056 91.6485 646.334 92.4325 646.334 93.4138V98.3418H644.974V93.6218C644.974 92.9498 644.803 92.4218 644.462 92.0378C644.12 91.6431 643.662 91.4458 643.086 91.4458C642.424 91.4458 641.87 91.7071 641.422 92.2298C640.984 92.7525 640.766 93.4671 640.766 94.3738V98.3418H639.39ZM656.863 98.5018C656.276 98.5018 655.727 98.3738 655.215 98.1178C654.714 97.8511 654.324 97.5151 654.047 97.1098V98.3418H652.671V86.3418H654.047V91.5738C654.324 91.1685 654.714 90.8378 655.215 90.5818C655.727 90.3151 656.276 90.1818 656.863 90.1818C657.972 90.1818 658.9 90.5871 659.647 91.3978C660.404 92.2085 660.783 93.1898 660.783 94.3418C660.783 95.4938 660.404 96.4751 659.647 97.2858C658.9 98.0965 657.972 98.5018 656.863 98.5018ZM654.703 96.4058C655.215 96.9605 655.866 97.2378 656.655 97.2378C657.444 97.2378 658.095 96.9605 658.607 96.4058C659.119 95.8511 659.375 95.1631 659.375 94.3418C659.375 93.5205 659.119 92.8325 658.607 92.2778C658.095 91.7231 657.444 91.4458 656.655 91.4458C655.866 91.4458 655.215 91.7231 654.703 92.2778C654.191 92.8325 653.935 93.5205 653.935 94.3418C653.935 95.1631 654.191 95.8511 654.703 96.4058ZM664.721 101.686H663.185L664.929 97.9258L661.425 90.3418H662.945L665.697 96.4218L668.433 90.3418H669.969L664.721 101.686ZM676.98 98.3418L673.284 90.3418H674.82L677.556 96.4058L680.292 90.3418H681.828L678.132 98.3418H676.98ZM684.61 87.9258C684.429 88.1071 684.199 88.1978 683.922 88.1978C683.645 88.1978 683.41 88.1071 683.218 87.9258C683.026 87.7338 682.93 87.4991 682.93 87.2218C682.93 86.9551 683.026 86.7258 683.218 86.5338C683.41 86.3418 683.645 86.2458 683.922 86.2458C684.199 86.2458 684.429 86.3418 684.61 86.5338C684.791 86.7258 684.882 86.9551 684.882 87.2218C684.882 87.4991 684.791 87.7338 684.61 87.9258ZM683.218 98.3418V90.3418H684.594V98.3418H683.218ZM689.618 98.5018C688.882 98.5018 688.237 98.3471 687.682 98.0378C687.128 97.7178 686.728 97.2538 686.482 96.6458L687.602 96.0218C687.752 96.4165 688.013 96.7258 688.386 96.9498C688.76 97.1738 689.176 97.2858 689.634 97.2858C690.029 97.2858 690.36 97.1898 690.626 96.9978C690.893 96.8058 691.026 96.5445 691.026 96.2138C691.026 95.9258 690.92 95.6858 690.706 95.4938C690.504 95.3018 690.146 95.1258 689.634 94.9658L688.834 94.7098C687.501 94.3258 686.834 93.5471 686.834 92.3738C686.834 91.7125 687.096 91.1845 687.618 90.7898C688.152 90.3845 688.808 90.1818 689.586 90.1818C690.802 90.1818 691.682 90.6458 692.226 91.5738L691.202 92.2778C690.765 91.6698 690.21 91.3658 689.538 91.3658C689.176 91.3658 688.861 91.4565 688.594 91.6378C688.338 91.8085 688.21 92.0378 688.21 92.3258C688.21 92.5925 688.29 92.8218 688.45 93.0138C688.621 93.1951 688.92 93.3498 689.346 93.4778L690.226 93.7498C691.677 94.1978 692.402 94.9818 692.402 96.1018C692.402 96.8485 692.141 97.4351 691.618 97.8618C691.106 98.2885 690.44 98.5018 689.618 98.5018ZM695.797 87.9258C695.616 88.1071 695.387 88.1978 695.109 88.1978C694.832 88.1978 694.597 88.1071 694.405 87.9258C694.213 87.7338 694.117 87.4991 694.117 87.2218C694.117 86.9551 694.213 86.7258 694.405 86.5338C694.597 86.3418 694.832 86.2458 695.109 86.2458C695.387 86.2458 695.616 86.3418 695.797 86.5338C695.979 86.7258 696.069 86.9551 696.069 87.2218C696.069 87.4991 695.979 87.7338 695.797 87.9258ZM694.405 98.3418V90.3418H695.781V98.3418H694.405ZM701.494 98.4218C700.758 98.4218 700.166 98.2138 699.718 97.7978C699.27 97.3818 699.046 96.7738 699.046 95.9738V91.6058H697.35V90.3418H699.046V88.1178H700.422V90.3418H702.726V91.6058H700.422V95.7978C700.422 96.2991 700.528 96.6511 700.742 96.8538C700.955 97.0565 701.291 97.1578 701.75 97.1578C702.155 97.1578 702.48 97.1045 702.726 96.9978V98.2298C702.342 98.3578 701.931 98.4218 701.494 98.4218ZM705.876 87.9258C705.694 88.1071 705.465 88.1978 705.188 88.1978C704.91 88.1978 704.676 88.1071 704.484 87.9258C704.292 87.7338 704.196 87.4991 704.196 87.2218C704.196 86.9551 704.292 86.7258 704.484 86.5338C704.676 86.3418 704.91 86.2458 705.188 86.2458C705.465 86.2458 705.694 86.3418 705.876 86.5338C706.057 86.7258 706.148 86.9551 706.148 87.2218C706.148 87.4991 706.057 87.7338 705.876 87.9258ZM704.484 98.3418V90.3418H705.86V98.3418H704.484ZM708.468 98.3418V90.3418H709.844V91.5738C710.388 90.6458 711.236 90.1818 712.388 90.1818C713.295 90.1818 714.025 90.4751 714.58 91.0618C715.135 91.6485 715.412 92.4325 715.412 93.4138V98.3418H714.052V93.6218C714.052 92.9498 713.881 92.4218 713.54 92.0378C713.199 91.6431 712.74 91.4458 712.164 91.4458C711.503 91.4458 710.948 91.7071 710.5 92.2298C710.063 92.7525 709.844 93.4671 709.844 94.3738V98.3418H708.468ZM719.426 96.2618C719.927 96.7845 720.578 97.0458 721.378 97.0458C722.178 97.0458 722.828 96.7845 723.33 96.2618C723.831 95.7285 724.082 95.0565 724.082 94.2458C724.082 93.4351 723.826 92.7685 723.314 92.2458C722.812 91.7125 722.167 91.4458 721.378 91.4458C720.588 91.4458 719.938 91.7125 719.426 92.2458C718.924 92.7685 718.674 93.4351 718.674 94.2458C718.674 95.0565 718.924 95.7285 719.426 96.2618ZM721.298 101.846C720.476 101.846 719.735 101.691 719.074 101.382C718.412 101.083 717.9 100.694 717.538 100.214L718.498 99.2538C719.202 100.15 720.135 100.598 721.298 100.598C722.044 100.598 722.674 100.363 723.186 99.8938C723.708 99.4245 723.97 98.7365 723.97 97.8298V96.9178C723.682 97.3445 723.292 97.6858 722.802 97.9418C722.311 98.1978 721.772 98.3258 721.186 98.3258C720.066 98.3258 719.132 97.9365 718.386 97.1578C717.639 96.3685 717.266 95.3978 717.266 94.2458C717.266 93.1045 717.639 92.1445 718.386 91.3658C719.143 90.5765 720.076 90.1818 721.186 90.1818C721.772 90.1818 722.311 90.3098 722.802 90.5658C723.292 90.8218 723.682 91.1578 723.97 91.5738V90.3418H725.346V97.8778C725.346 99.1685 724.967 100.15 724.21 100.822C723.463 101.504 722.492 101.846 721.298 101.846ZM734.634 98.4218C733.898 98.4218 733.306 98.2138 732.858 97.7978C732.41 97.3818 732.186 96.7738 732.186 95.9738V91.6058H730.49V90.3418H732.186V88.1178H733.562V90.3418H735.866V91.6058H733.562V95.7978C733.562 96.2991 733.669 96.6511 733.882 96.8538C734.096 97.0565 734.432 97.1578 734.89 97.1578C735.296 97.1578 735.621 97.1045 735.866 96.9978V98.2298C735.482 98.3578 735.072 98.4218 734.634 98.4218ZM739 98.3418H737.624V86.3418H739V91.5738C739.544 90.6458 740.392 90.1818 741.544 90.1818C742.451 90.1818 743.181 90.4751 743.736 91.0618C744.291 91.6485 744.568 92.4325 744.568 93.4138V98.3418H743.208V93.6218C743.208 92.9498 743.037 92.4218 742.696 92.0378C742.355 91.6431 741.896 91.4458 741.32 91.4458C740.659 91.4458 740.104 91.7071 739.656 92.2298C739.219 92.7525 739 93.4671 739 94.3738V98.3418ZM750.566 98.5018C749.339 98.5018 748.342 98.1071 747.574 97.3178C746.806 96.5285 746.422 95.5365 746.422 94.3418C746.422 93.1578 746.811 92.1711 747.59 91.3818C748.369 90.5818 749.366 90.1818 750.582 90.1818C751.659 90.1818 752.561 90.5445 753.286 91.2698C754.022 91.9845 754.39 92.9605 754.39 94.1978C754.39 94.3578 754.385 94.4965 754.374 94.6138H747.814C747.835 95.3605 748.102 95.9845 748.614 96.4858C749.137 96.9871 749.793 97.2378 750.582 97.2378C751.702 97.2378 752.534 96.7738 753.078 95.8458L754.166 96.5978C753.387 97.8671 752.187 98.5018 750.566 98.5018ZM747.91 93.4938H752.982C752.875 92.8538 752.593 92.3471 752.134 91.9738C751.686 91.5898 751.153 91.3978 750.534 91.3978C749.905 91.3978 749.339 91.5898 748.838 91.9738C748.347 92.3471 748.038 92.8538 747.91 93.4938ZM762.618 98.5018C761.882 98.5018 761.237 98.3471 760.682 98.0378C760.128 97.7178 759.728 97.2538 759.482 96.6458L760.602 96.0218C760.752 96.4165 761.013 96.7258 761.386 96.9498C761.76 97.1738 762.176 97.2858 762.634 97.2858C763.029 97.2858 763.36 97.1898 763.626 96.9978C763.893 96.8058 764.026 96.5445 764.026 96.2138C764.026 95.9258 763.92 95.6858 763.706 95.4938C763.504 95.3018 763.146 95.1258 762.634 94.9658L761.834 94.7098C760.501 94.3258 759.834 93.5471 759.834 92.3738C759.834 91.7125 760.096 91.1845 760.618 90.7898C761.152 90.3845 761.808 90.1818 762.586 90.1818C763.802 90.1818 764.682 90.6458 765.226 91.5738L764.202 92.2778C763.765 91.6698 763.21 91.3658 762.538 91.3658C762.176 91.3658 761.861 91.4565 761.594 91.6378C761.338 91.8085 761.21 92.0378 761.21 92.3258C761.21 92.5925 761.29 92.8218 761.45 93.0138C761.621 93.1951 761.92 93.3498 762.346 93.4778L763.226 93.7498C764.677 94.1978 765.402 94.9818 765.402 96.1018C765.402 96.8485 765.141 97.4351 764.618 97.8618C764.106 98.2885 763.44 98.5018 762.618 98.5018ZM770.925 98.5018C769.699 98.5018 768.701 98.1071 767.933 97.3178C767.165 96.5285 766.781 95.5365 766.781 94.3418C766.781 93.1578 767.171 92.1711 767.949 91.3818C768.728 90.5818 769.725 90.1818 770.941 90.1818C772.019 90.1818 772.92 90.5445 773.645 91.2698C774.381 91.9845 774.749 92.9605 774.749 94.1978C774.749 94.3578 774.744 94.4965 774.733 94.6138H768.173C768.195 95.3605 768.461 95.9845 768.973 96.4858C769.496 96.9871 770.152 97.2378 770.941 97.2378C772.061 97.2378 772.893 96.7738 773.437 95.8458L774.525 96.5978C773.747 97.8671 772.547 98.5018 770.925 98.5018ZM768.269 93.4938H773.341C773.235 92.8538 772.952 92.3471 772.493 91.9738C772.045 91.5898 771.512 91.3978 770.893 91.3978C770.264 91.3978 769.699 91.5898 769.197 91.9738C768.707 92.3471 768.397 92.8538 768.269 93.4938ZM785.553 98.4218C784.817 98.4218 784.225 98.2138 783.777 97.7978C783.329 97.3818 783.105 96.7738 783.105 95.9738V91.6058H781.601V90.3418H783.105V88.1178H784.481V90.3418H786.801V91.6058H784.481V95.7978C784.481 96.2991 784.588 96.6511 784.801 96.8538C785.014 97.0565 785.35 97.1578 785.809 97.1578C786.225 97.1578 786.556 97.1045 786.801 96.9978V98.2298C786.385 98.3578 785.969 98.4218 785.553 98.4218ZM779.697 98.4218C778.961 98.4218 778.369 98.2138 777.921 97.7978C777.473 97.3818 777.249 96.7738 777.249 95.9738V91.6058H775.553V90.3418H777.249V88.1178H778.625V90.3418H780.705V91.6058H778.625V95.7978C778.625 96.2991 778.732 96.6511 778.945 96.8538C779.158 97.0565 779.494 97.1578 779.953 97.1578C780.358 97.1578 780.684 97.1045 780.929 96.9978V98.2298C780.545 98.3578 780.134 98.4218 779.697 98.4218ZM789.954 87.9258C789.772 88.1071 789.543 88.1978 789.266 88.1978C788.988 88.1978 788.754 88.1071 788.562 87.9258C788.37 87.7338 788.274 87.4991 788.274 87.2218C788.274 86.9551 788.37 86.7258 788.562 86.5338C788.754 86.3418 788.988 86.2458 789.266 86.2458C789.543 86.2458 789.772 86.3418 789.954 86.5338C790.135 86.7258 790.226 86.9551 790.226 87.2218C790.226 87.4991 790.135 87.7338 789.954 87.9258ZM788.562 98.3418V90.3418H789.938V98.3418H788.562ZM792.546 98.3418V90.3418H793.922V91.5738C794.466 90.6458 795.314 90.1818 796.466 90.1818C797.373 90.1818 798.103 90.4751 798.658 91.0618C799.213 91.6485 799.49 92.4325 799.49 93.4138V98.3418H798.13V93.6218C798.13 92.9498 797.959 92.4218 797.618 92.0378C797.277 91.6431 796.818 91.4458 796.242 91.4458C795.581 91.4458 795.026 91.7071 794.578 92.2298C794.141 92.7525 793.922 93.4671 793.922 94.3738V98.3418H792.546ZM803.504 96.2618C804.005 96.7845 804.656 97.0458 805.456 97.0458C806.256 97.0458 806.907 96.7845 807.408 96.2618C807.909 95.7285 808.16 95.0565 808.16 94.2458C808.16 93.4351 807.904 92.7685 807.392 92.2458C806.891 91.7125 806.245 91.4458 805.456 91.4458C804.667 91.4458 804.016 91.7125 803.504 92.2458C803.003 92.7685 802.752 93.4351 802.752 94.2458C802.752 95.0565 803.003 95.7285 803.504 96.2618ZM805.376 101.846C804.555 101.846 803.813 101.691 803.152 101.382C802.491 101.083 801.979 100.694 801.616 100.214L802.576 99.2538C803.28 100.15 804.213 100.598 805.376 100.598C806.123 100.598 806.752 100.363 807.264 99.8938C807.787 99.4245 808.048 98.7365 808.048 97.8298V96.9178C807.76 97.3445 807.371 97.6858 806.88 97.9418C806.389 98.1978 805.851 98.3258 805.264 98.3258C804.144 98.3258 803.211 97.9365 802.464 97.1578C801.717 96.3685 801.344 95.3978 801.344 94.2458C801.344 93.1045 801.717 92.1445 802.464 91.3658C803.221 90.5765 804.155 90.1818 805.264 90.1818C805.851 90.1818 806.389 90.3098 806.88 90.5658C807.371 90.8218 807.76 91.1578 808.048 91.5738V90.3418H809.424V97.8778C809.424 99.1685 809.045 100.15 808.288 100.822C807.541 101.504 806.571 101.846 805.376 101.846ZM814.431 98.5018C813.695 98.5018 813.049 98.3471 812.495 98.0378C811.94 97.7178 811.54 97.2538 811.295 96.6458L812.415 96.0218C812.564 96.4165 812.825 96.7258 813.199 96.9498C813.572 97.1738 813.988 97.2858 814.447 97.2858C814.841 97.2858 815.172 97.1898 815.439 96.9978C815.705 96.8058 815.839 96.5445 815.839 96.2138C815.839 95.9258 815.732 95.6858 815.519 95.4938C815.316 95.3018 814.959 95.1258 814.447 94.9658L813.647 94.7098C812.313 94.3258 811.647 93.5471 811.647 92.3738C811.647 91.7125 811.908 91.1845 812.431 90.7898C812.964 90.3845 813.62 90.1818 814.399 90.1818C815.615 90.1818 816.495 90.6458 817.039 91.5738L816.015 92.2778C815.577 91.6698 815.023 91.3658 814.351 91.3658C813.988 91.3658 813.673 91.4565 813.407 91.6378C813.151 91.8085 813.023 92.0378 813.023 92.3258C813.023 92.5925 813.103 92.8218 813.263 93.0138C813.433 93.1951 813.732 93.3498 814.159 93.4778L815.039 93.7498C816.489 94.1978 817.215 94.9818 817.215 96.1018C817.215 96.8485 816.953 97.4351 816.431 97.8618C815.919 98.2885 815.252 98.5018 814.431 98.5018ZM825.493 98.5018C824.757 98.5018 824.112 98.3471 823.557 98.0378C823.003 97.7178 822.603 97.2538 822.357 96.6458L823.477 96.0218C823.627 96.4165 823.888 96.7258 824.261 96.9498C824.635 97.1738 825.051 97.2858 825.509 97.2858C825.904 97.2858 826.235 97.1898 826.501 96.9978C826.768 96.8058 826.901 96.5445 826.901 96.2138C826.901 95.9258 826.795 95.6858 826.581 95.4938C826.379 95.3018 826.021 95.1258 825.509 94.9658L824.709 94.7098C823.376 94.3258 822.709 93.5471 822.709 92.3738C822.709 91.7125 822.971 91.1845 823.493 90.7898C824.027 90.3845 824.683 90.1818 825.461 90.1818C826.677 90.1818 827.557 90.6458 828.101 91.5738L827.077 92.2778C826.64 91.6698 826.085 91.3658 825.413 91.3658C825.051 91.3658 824.736 91.4565 824.469 91.6378C824.213 91.8085 824.085 92.0378 824.085 92.3258C824.085 92.5925 824.165 92.8218 824.325 93.0138C824.496 93.1951 824.795 93.3498 825.221 93.4778L826.101 93.7498C827.552 94.1978 828.277 94.9818 828.277 96.1018C828.277 96.8485 828.016 97.4351 827.493 97.8618C826.981 98.2885 826.315 98.5018 825.493 98.5018ZM833.8 98.5018C832.574 98.5018 831.576 98.1071 830.808 97.3178C830.04 96.5285 829.656 95.5365 829.656 94.3418C829.656 93.1578 830.046 92.1711 830.824 91.3818C831.603 90.5818 832.6 90.1818 833.816 90.1818C834.894 90.1818 835.795 90.5445 836.52 91.2698C837.256 91.9845 837.624 92.9605 837.624 94.1978C837.624 94.3578 837.619 94.4965 837.608 94.6138H831.048C831.07 95.3605 831.336 95.9845 831.848 96.4858C832.371 96.9871 833.027 97.2378 833.816 97.2378C834.936 97.2378 835.768 96.7738 836.312 95.8458L837.4 96.5978C836.622 97.8671 835.422 98.5018 833.8 98.5018ZM831.144 93.4938H836.216C836.11 92.8538 835.827 92.3471 835.368 91.9738C834.92 91.5898 834.387 91.3978 833.768 91.3978C833.139 91.3978 832.574 91.5898 832.072 91.9738C831.582 92.3471 831.272 92.8538 831.144 93.4938ZM843.145 98.5018C841.94 98.5018 840.937 98.1018 840.137 97.3018C839.348 96.5018 838.953 95.5151 838.953 94.3418C838.953 93.1685 839.348 92.1818 840.137 91.3818C840.937 90.5818 841.94 90.1818 843.145 90.1818C843.956 90.1818 844.681 90.3738 845.321 90.7578C845.972 91.1418 846.479 91.6645 846.841 92.3258L845.641 92.9978C845.407 92.5285 845.071 92.1551 844.633 91.8778C844.207 91.6005 843.711 91.4618 843.145 91.4618C842.324 91.4618 841.652 91.7391 841.129 92.2938C840.607 92.8485 840.345 93.5311 840.345 94.3418C840.345 95.1525 840.607 95.8351 841.129 96.3898C841.652 96.9445 842.324 97.2218 843.145 97.2218C843.711 97.2218 844.207 97.0831 844.633 96.8058C845.071 96.5285 845.407 96.1551 845.641 95.6858L846.841 96.3578C846.479 97.0191 845.972 97.5418 845.321 97.9258C844.681 98.3098 843.956 98.5018 843.145 98.5018ZM851.728 98.4218C850.992 98.4218 850.4 98.2138 849.952 97.7978C849.504 97.3818 849.28 96.7738 849.28 95.9738V91.6058H847.584V90.3418H849.28V88.1178H850.656V90.3418H852.96V91.6058H850.656V95.7978C850.656 96.2991 850.763 96.6511 850.976 96.8538C851.189 97.0565 851.525 97.1578 851.984 97.1578C852.389 97.1578 852.715 97.1045 852.96 96.9978V98.2298C852.576 98.3578 852.165 98.4218 851.728 98.4218ZM856.11 87.9258C855.929 88.1071 855.699 88.1978 855.422 88.1978C855.145 88.1978 854.91 88.1071 854.718 87.9258C854.526 87.7338 854.43 87.4991 854.43 87.2218C854.43 86.9551 854.526 86.7258 854.718 86.5338C854.91 86.3418 855.145 86.2458 855.422 86.2458C855.699 86.2458 855.929 86.3418 856.11 86.5338C856.291 86.7258 856.382 86.9551 856.382 87.2218C856.382 87.4991 856.291 87.7338 856.11 87.9258ZM854.718 98.3418V90.3418H856.094V98.3418H854.718ZM862.254 98.5018C861.049 98.5018 860.046 98.1018 859.246 97.3018C858.457 96.4911 858.062 95.5045 858.062 94.3418C858.062 93.1791 858.457 92.1978 859.246 91.3978C860.046 90.5871 861.049 90.1818 862.254 90.1818C863.449 90.1818 864.441 90.5871 865.23 91.3978C866.03 92.1978 866.43 93.1791 866.43 94.3418C866.43 95.5045 866.03 96.4911 865.23 97.3018C864.441 98.1018 863.449 98.5018 862.254 98.5018ZM860.238 96.3898C860.761 96.9445 861.433 97.2218 862.254 97.2218C863.076 97.2218 863.742 96.9445 864.254 96.3898C864.766 95.8351 865.022 95.1525 865.022 94.3418C865.022 93.5311 864.766 92.8485 864.254 92.2938C863.742 91.7391 863.076 91.4618 862.254 91.4618C861.433 91.4618 860.761 91.7391 860.238 92.2938C859.726 92.8485 859.47 93.5311 859.47 94.3418C859.47 95.1525 859.726 95.8351 860.238 96.3898ZM868.405 98.3418V90.3418H869.781V91.5738C870.325 90.6458 871.173 90.1818 872.325 90.1818C873.232 90.1818 873.963 90.4751 874.517 91.0618C875.072 91.6485 875.349 92.4325 875.349 93.4138V98.3418H873.989V93.6218C873.989 92.9498 873.819 92.4218 873.477 92.0378C873.136 91.6431 872.677 91.4458 872.101 91.4458C871.44 91.4458 870.885 91.7071 870.437 92.2298C870 92.7525 869.781 93.4671 869.781 94.3738V98.3418H868.405ZM879.379 98.1178C879.155 98.3525 878.878 98.4698 878.547 98.4698C878.217 98.4698 877.934 98.3525 877.699 98.1178C877.475 97.8831 877.363 97.6005 877.363 97.2698C877.363 96.9498 877.481 96.6725 877.715 96.4378C877.95 96.1925 878.227 96.0698 878.547 96.0698C878.867 96.0698 879.145 96.1925 879.379 96.4378C879.614 96.6725 879.731 96.9498 879.731 97.2698C879.731 97.6005 879.614 97.8831 879.379 98.1178Z" fill="white"/>
<g opacity="0.5" clip-path="url(#clip2_11038_151309)">
<circle cx="1244.64" cy="87.6614" r="46.3" transform="rotate(90 1244.64 87.6614)" fill="white" fill-opacity="0.1"/>
<path opacity="0.1" d="M1105.06 -4.93872C1105.06 1.14149 1106.26 7.16216 1108.59 12.7795C1110.91 18.3969 1114.32 23.501 1118.62 27.8004C1122.92 32.0997 1128.03 35.5102 1133.64 37.8369C1139.26 40.1637 1145.28 41.3613 1151.36 41.3613C1157.44 41.3613 1163.46 40.1637 1169.08 37.8369C1174.7 35.5101 1179.8 32.0997 1184.1 27.8003C1188.4 23.501 1191.81 18.3969 1194.14 12.7795C1196.47 7.16215 1197.66 1.14148 1197.66 -4.93874L1151.36 -4.93872L1105.06 -4.93872Z" fill="white"/>
<path opacity="0.1" d="M1058.53 134.043C1064.64 134.043 1070.68 132.841 1076.32 130.505C1081.96 128.169 1087.09 124.745 1091.4 120.429C1095.72 116.113 1099.14 110.989 1101.48 105.35C1103.81 99.7103 1105.02 93.6661 1105.02 87.5622C1105.02 81.4582 1103.81 75.4141 1101.48 69.7748C1099.14 64.1354 1095.72 59.0114 1091.4 54.6953C1087.09 50.3792 1081.96 46.9554 1076.32 44.6195C1070.68 42.2837 1064.64 41.0814 1058.53 41.0814L1058.53 87.5622L1058.53 134.043Z" fill="white"/>
<rect opacity="0.2" x="1198" y="41.1104" width="92.9304" height="92.9316" transform="rotate(90 1198 41.1104)" fill="white"/>
<path d="M1198 41.1104L1247.51 -7.04298L1290.93 -51.8201L1290.93 41.1104L1198 41.1104Z" fill="white" fill-opacity="0.15"/>
</g>
<rect x="1030.5" y="37.5" width="198" height="54" rx="11.5" stroke="white"/>
<path d="M1077.7 71.216C1075.7 71.216 1074.05 70.586 1072.75 69.326C1071.47 68.066 1070.83 66.494 1070.83 64.61C1070.83 62.75 1071.46 61.184 1072.74 59.912C1074.01 58.64 1075.59 58.004 1077.49 58.004C1079.44 58.004 1081.05 58.598 1082.29 59.786L1081.18 60.992C1080.16 60.056 1078.93 59.588 1077.49 59.588C1076.05 59.588 1074.85 60.074 1073.91 61.046C1072.97 62.006 1072.5 63.194 1072.5 64.61C1072.5 66.05 1072.98 67.25 1073.92 68.21C1074.88 69.158 1076.14 69.632 1077.7 69.632C1079.17 69.632 1080.3 69.314 1081.11 68.678V65.258H1077.49V63.692H1082.73V69.416C1082.16 70.004 1081.44 70.454 1080.55 70.766C1079.66 71.066 1078.71 71.216 1077.7 71.216ZM1089.22 71.18C1087.86 71.18 1086.73 70.73 1085.83 69.83C1084.95 68.918 1084.5 67.808 1084.5 66.5C1084.5 65.192 1084.95 64.088 1085.83 63.188C1086.73 62.276 1087.86 61.82 1089.22 61.82C1090.56 61.82 1091.68 62.276 1092.57 63.188C1093.47 64.088 1093.92 65.192 1093.92 66.5C1093.92 67.808 1093.47 68.918 1092.57 69.83C1091.68 70.73 1090.56 71.18 1089.22 71.18ZM1086.95 68.804C1087.54 69.428 1088.29 69.74 1089.22 69.74C1090.14 69.74 1090.89 69.428 1091.47 68.804C1092.04 68.18 1092.33 67.412 1092.33 66.5C1092.33 65.588 1092.04 64.82 1091.47 64.196C1090.89 63.572 1090.14 63.26 1089.22 63.26C1088.29 63.26 1087.54 63.572 1086.95 64.196C1086.37 64.82 1086.09 65.588 1086.09 66.5C1086.09 67.412 1086.37 68.18 1086.95 68.804ZM1103.67 71.09C1102.84 71.09 1102.18 70.856 1101.67 70.388C1101.17 69.92 1100.92 69.236 1100.92 68.336V63.422H1099.01V62H1100.92V59.498H1102.47V62H1105.06V63.422H1102.47V68.138C1102.47 68.702 1102.59 69.098 1102.83 69.326C1103.07 69.554 1103.44 69.668 1103.96 69.668C1104.42 69.668 1104.78 69.608 1105.06 69.488V70.874C1104.63 71.018 1104.16 71.09 1103.67 71.09ZM1110.91 71.18C1109.55 71.18 1108.43 70.73 1107.53 69.83C1106.64 68.918 1106.19 67.808 1106.19 66.5C1106.19 65.192 1106.64 64.088 1107.53 63.188C1108.43 62.276 1109.55 61.82 1110.91 61.82C1112.25 61.82 1113.37 62.276 1114.26 63.188C1115.16 64.088 1115.61 65.192 1115.61 66.5C1115.61 67.808 1115.16 68.918 1114.26 69.83C1113.37 70.73 1112.25 71.18 1110.91 71.18ZM1108.64 68.804C1109.23 69.428 1109.99 69.74 1110.91 69.74C1111.83 69.74 1112.58 69.428 1113.16 68.804C1113.74 68.18 1114.02 67.412 1114.02 66.5C1114.02 65.588 1113.74 64.82 1113.16 64.196C1112.58 63.572 1111.83 63.26 1110.91 63.26C1109.99 63.26 1109.23 63.572 1108.64 64.196C1108.07 64.82 1107.78 65.588 1107.78 66.5C1107.78 67.412 1108.07 68.18 1108.64 68.804ZM1125.84 71.216C1124.82 71.216 1123.9 71 1123.09 70.568C1122.28 70.136 1121.71 69.584 1121.36 68.912L1122.71 67.904C1123.47 69.068 1124.52 69.65 1125.88 69.65C1126.56 69.65 1127.13 69.482 1127.57 69.146C1128.01 68.798 1128.24 68.33 1128.24 67.742C1128.24 66.758 1127.62 66.038 1126.4 65.582L1124.71 64.934C1123.7 64.562 1122.96 64.1 1122.49 63.548C1122.04 62.984 1121.81 62.27 1121.81 61.406C1121.81 60.374 1122.18 59.552 1122.93 58.94C1123.68 58.316 1124.64 58.004 1125.81 58.004C1126.59 58.004 1127.3 58.166 1127.95 58.49C1128.6 58.802 1129.12 59.222 1129.53 59.75L1128.31 60.83C1127.6 59.99 1126.75 59.57 1125.77 59.57C1125.12 59.57 1124.58 59.738 1124.13 60.074C1123.69 60.398 1123.47 60.818 1123.47 61.334C1123.47 61.85 1123.62 62.258 1123.92 62.558C1124.22 62.858 1124.71 63.134 1125.39 63.386L1126.94 63.98C1127.92 64.352 1128.66 64.832 1129.15 65.42C1129.66 66.008 1129.91 66.758 1129.91 67.67C1129.91 68.738 1129.53 69.596 1128.76 70.244C1128 70.892 1127.03 71.216 1125.84 71.216ZM1136.1 71.18C1134.72 71.18 1133.6 70.736 1132.73 69.848C1131.87 68.96 1131.44 67.844 1131.44 66.5C1131.44 65.168 1131.87 64.058 1132.75 63.17C1133.63 62.27 1134.75 61.82 1136.12 61.82C1137.33 61.82 1138.34 62.228 1139.16 63.044C1139.99 63.848 1140.4 64.946 1140.4 66.338C1140.4 66.518 1140.39 66.674 1140.38 66.806H1133C1133.03 67.646 1133.33 68.348 1133.9 68.912C1134.49 69.476 1135.23 69.758 1136.12 69.758C1137.38 69.758 1138.31 69.236 1138.92 68.192L1140.15 69.038C1139.27 70.466 1137.92 71.18 1136.1 71.18ZM1133.11 65.546H1138.82C1138.7 64.826 1138.38 64.256 1137.86 63.836C1137.36 63.404 1136.76 63.188 1136.06 63.188C1135.35 63.188 1134.72 63.404 1134.15 63.836C1133.6 64.256 1133.25 64.826 1133.11 65.546ZM1152.55 71.09C1151.73 71.09 1151.06 70.856 1150.56 70.388C1150.05 69.92 1149.8 69.236 1149.8 68.336V63.422H1148.11V62H1149.8V59.498H1151.35V62H1153.96V63.422H1151.35V68.138C1151.35 68.702 1151.47 69.098 1151.71 69.326C1151.95 69.554 1152.33 69.668 1152.84 69.668C1153.31 69.668 1153.68 69.608 1153.96 69.488V70.874C1153.49 71.018 1153.02 71.09 1152.55 71.09ZM1145.97 71.09C1145.14 71.09 1144.47 70.856 1143.97 70.388C1143.46 69.92 1143.21 69.236 1143.21 68.336V63.422H1141.3V62H1143.21V59.498H1144.76V62H1147.1V63.422H1144.76V68.138C1144.76 68.702 1144.88 69.098 1145.12 69.326C1145.36 69.554 1145.74 69.668 1146.25 69.668C1146.71 69.668 1147.08 69.608 1147.35 69.488V70.874C1146.92 71.018 1146.46 71.09 1145.97 71.09ZM1157.5 59.282C1157.3 59.486 1157.04 59.588 1156.73 59.588C1156.42 59.588 1156.15 59.486 1155.94 59.282C1155.72 59.066 1155.61 58.802 1155.61 58.49C1155.61 58.19 1155.72 57.932 1155.94 57.716C1156.15 57.5 1156.42 57.392 1156.73 57.392C1157.04 57.392 1157.3 57.5 1157.5 57.716C1157.71 57.932 1157.81 58.19 1157.81 58.49C1157.81 58.802 1157.71 59.066 1157.5 59.282ZM1155.94 71V62H1157.49V71H1155.94ZM1160.42 71V62H1161.97V63.386C1162.58 62.342 1163.53 61.82 1164.83 61.82C1165.85 61.82 1166.67 62.15 1167.3 62.81C1167.92 63.47 1168.23 64.352 1168.23 65.456V71H1166.7V65.69C1166.7 64.934 1166.51 64.34 1166.13 63.908C1165.74 63.464 1165.23 63.242 1164.58 63.242C1163.83 63.242 1163.21 63.536 1162.71 64.124C1162.21 64.712 1161.97 65.516 1161.97 66.536V71H1160.42ZM1172.75 68.66C1173.31 69.248 1174.04 69.542 1174.94 69.542C1175.84 69.542 1176.58 69.248 1177.14 68.66C1177.7 68.06 1177.99 67.304 1177.99 66.392C1177.99 65.48 1177.7 64.73 1177.12 64.142C1176.56 63.542 1175.83 63.242 1174.94 63.242C1174.06 63.242 1173.32 63.542 1172.75 64.142C1172.18 64.73 1171.9 65.48 1171.9 66.392C1171.9 67.304 1172.18 68.06 1172.75 68.66ZM1174.85 74.942C1173.93 74.942 1173.1 74.768 1172.35 74.42C1171.61 74.084 1171.03 73.646 1170.62 73.106L1171.7 72.026C1172.5 73.034 1173.55 73.538 1174.85 73.538C1175.69 73.538 1176.4 73.274 1176.98 72.746C1177.57 72.218 1177.86 71.444 1177.86 70.424V69.398C1177.54 69.878 1177.1 70.262 1176.55 70.55C1175.99 70.838 1175.39 70.982 1174.73 70.982C1173.47 70.982 1172.42 70.544 1171.58 69.668C1170.74 68.78 1170.32 67.688 1170.32 66.392C1170.32 65.108 1170.74 64.028 1171.58 63.152C1172.43 62.264 1173.48 61.82 1174.73 61.82C1175.39 61.82 1175.99 61.964 1176.55 62.252C1177.1 62.54 1177.54 62.918 1177.86 63.386V62H1179.41V70.478C1179.41 71.93 1178.98 73.034 1178.13 73.79C1177.29 74.558 1176.2 74.942 1174.85 74.942ZM1185.04 71.18C1184.21 71.18 1183.49 71.006 1182.86 70.658C1182.24 70.298 1181.79 69.776 1181.51 69.092L1182.77 68.39C1182.94 68.834 1183.24 69.182 1183.66 69.434C1184.08 69.686 1184.54 69.812 1185.06 69.812C1185.5 69.812 1185.88 69.704 1186.18 69.488C1186.48 69.272 1186.63 68.978 1186.63 68.606C1186.63 68.282 1186.51 68.012 1186.27 67.796C1186.04 67.58 1185.64 67.382 1185.06 67.202L1184.16 66.914C1182.66 66.482 1181.91 65.606 1181.91 64.286C1181.91 63.542 1182.2 62.948 1182.79 62.504C1183.39 62.048 1184.13 61.82 1185.01 61.82C1186.37 61.82 1187.36 62.342 1187.98 63.386L1186.82 64.178C1186.33 63.494 1185.71 63.152 1184.95 63.152C1184.54 63.152 1184.19 63.254 1183.89 63.458C1183.6 63.65 1183.46 63.908 1183.46 64.232C1183.46 64.532 1183.55 64.79 1183.73 65.006C1183.92 65.21 1184.26 65.384 1184.74 65.528L1185.73 65.834C1187.36 66.338 1188.17 67.22 1188.17 68.48C1188.17 69.32 1187.88 69.98 1187.29 70.46C1186.72 70.94 1185.97 71.18 1185.04 71.18Z" fill="white"/>
<defs>
<clipPath id="clip0_11038_151309">
<rect width="619" height="128" fill="white"/>
</clipPath>
<clipPath id="clip1_11038_151309">
<rect width="618.656" height="182.359" fill="white" transform="translate(0.5 -0.359375)"/>
</clipPath>
<clipPath id="clip2_11038_151309">
<rect width="232" height="128" fill="white" transform="translate(1059)"/>
</clipPath>
</defs>
</svg>
