<svg width="386" height="235" viewBox="0 0 386 235" fill="none" xmlns="http://www.w3.org/2000/svg">
<g clip-path="url(#clip0_17512_93527)">
<path d="M0 11.2919C0 5.05555 5.05554 0 11.2919 0H373.761C379.997 0 385.053 5.05554 385.053 11.2919V236H0V11.2919Z" fill="#061520"/>
<line x1="-0.375" y1="28.3325" x2="383.935" y2="28.3325" stroke="white" stroke-opacity="0.08" stroke-width="0.915023"/>
<circle cx="19.7558" cy="14.1483" r="5.49014" fill="white" fill-opacity="0.08"/>
<circle cx="39.8847" cy="14.1483" r="5.49014" fill="white" fill-opacity="0.08"/>
<circle cx="60.0175" cy="14.1483" r="5.49014" fill="white" fill-opacity="0.08"/>
<rect x="33.1684" y="51.1684" width="319.663" height="38.384" rx="19.192" fill="#031B2E"/>
<rect x="33.1684" y="51.1684" width="319.663" height="38.384" rx="19.192" stroke="#0C2841" stroke-width="0.336702"/>
<path d="M75.2492 75H74.0909V64.8989H75.2492V69.303C75.7071 68.5218 76.4209 68.1313 77.3906 68.1313C78.1538 68.1313 78.7688 68.3782 79.2357 68.872C79.7026 69.3658 79.9361 70.0258 79.9361 70.8518V75H78.7913V71.0269C78.7913 70.4613 78.6476 70.0168 78.3603 69.6936C78.073 69.3614 77.6869 69.1953 77.202 69.1953C76.6454 69.1953 76.1785 69.4152 75.8014 69.8552C75.4332 70.2951 75.2492 70.8967 75.2492 71.6599V75ZM89.485 75.0673C88.8655 75.0673 88.3672 74.8923 87.9901 74.5421C87.613 74.1919 87.4244 73.6801 87.4244 73.0067V69.3299H86.1584V68.266H87.4244V66.3939H88.5827V68.266H90.5356V69.3299H88.5827V72.8586C88.5827 73.2806 88.6725 73.5769 88.852 73.7475C89.0316 73.9181 89.3145 74.0034 89.7005 74.0034C90.0507 74.0034 90.329 73.9585 90.5356 73.8687V74.9057C90.1854 75.0135 89.8352 75.0673 89.485 75.0673ZM84.5557 75.0673C83.9362 75.0673 83.4379 74.8923 83.0608 74.5421C82.6837 74.1919 82.4951 73.6801 82.4951 73.0067V69.3299H81.0675V68.266H82.4951V66.3939H83.6534V68.266H85.4042V69.3299H83.6534V72.8586C83.6534 73.2806 83.7432 73.5769 83.9227 73.7475C84.1023 73.9181 84.3851 74.0034 84.7712 74.0034C85.1124 74.0034 85.3863 73.9585 85.5928 73.8687V74.9057C85.2695 75.0135 84.9239 75.0673 84.5557 75.0673ZM93.1759 77.8148H92.0177V68.266H93.1759V69.303C93.4094 68.9618 93.7371 68.6835 94.1591 68.468C94.5901 68.2435 95.0525 68.1313 95.5463 68.1313C96.4801 68.1313 97.2613 68.4725 97.8898 69.1548C98.5273 69.8372 98.846 70.6633 98.846 71.633C98.846 72.6027 98.5273 73.4287 97.8898 74.1111C97.2613 74.7935 96.4801 75.1347 95.5463 75.1347C95.0525 75.1347 94.5901 75.0269 94.1591 74.8114C93.7371 74.587 93.4094 74.3041 93.1759 73.963V77.8148ZM93.7281 73.3704C94.1591 73.8373 94.7068 74.0707 95.3712 74.0707C96.0357 74.0707 96.5834 73.8373 97.0143 73.3704C97.4453 72.9035 97.6608 72.3243 97.6608 71.633C97.6608 70.9416 97.4453 70.3625 97.0143 69.8956C96.5834 69.4287 96.0357 69.1953 95.3712 69.1953C94.7068 69.1953 94.1591 69.4287 93.7281 69.8956C93.2971 70.3625 93.0817 70.9416 93.0817 71.633C93.0817 72.3243 93.2971 72.9035 93.7281 73.3704ZM102.535 75.1347C101.915 75.1347 101.372 75.0045 100.905 74.7441C100.438 74.4747 100.101 74.0842 99.8949 73.5724L100.838 73.0471C100.963 73.3793 101.183 73.6397 101.498 73.8283C101.812 74.0168 102.162 74.1111 102.548 74.1111C102.88 74.1111 103.159 74.0303 103.383 73.8687C103.608 73.7071 103.72 73.4871 103.72 73.2087C103.72 72.9663 103.63 72.7643 103.451 72.6027C103.28 72.4411 102.979 72.2929 102.548 72.1582L101.875 71.9427C100.752 71.6195 100.191 70.9641 100.191 69.9764C100.191 69.4197 100.411 68.9753 100.851 68.6431C101.3 68.3019 101.852 68.1313 102.508 68.1313C103.531 68.1313 104.272 68.5218 104.73 69.303L103.868 69.8956C103.5 69.3838 103.033 69.1279 102.467 69.1279C102.162 69.1279 101.897 69.2042 101.673 69.3569C101.457 69.5005 101.349 69.6936 101.349 69.936C101.349 70.1605 101.417 70.3535 101.552 70.5151C101.695 70.6678 101.947 70.798 102.306 70.9057L103.046 71.1347C104.268 71.5118 104.878 72.1717 104.878 73.1145C104.878 73.743 104.658 74.2368 104.218 74.596C103.787 74.9551 103.226 75.1347 102.535 75.1347ZM108.019 69.8283C107.83 70.0258 107.597 70.1246 107.318 70.1246C107.04 70.1246 106.802 70.0258 106.605 69.8283C106.416 69.6307 106.322 69.3928 106.322 69.1144C106.322 68.8451 106.421 68.6116 106.618 68.4141C106.816 68.2076 107.049 68.1043 107.318 68.1043C107.588 68.1043 107.821 68.2076 108.019 68.4141C108.216 68.6116 108.315 68.8451 108.315 69.1144C108.315 69.3928 108.216 69.6307 108.019 69.8283ZM108.019 74.8114C107.83 75.009 107.597 75.1077 107.318 75.1077C107.04 75.1077 106.802 75.009 106.605 74.8114C106.416 74.6139 106.322 74.376 106.322 74.0976C106.322 73.8283 106.421 73.5948 106.618 73.3973C106.816 73.1908 107.049 73.0875 107.318 73.0875C107.588 73.0875 107.821 73.1908 108.019 73.3973C108.216 73.5948 108.315 73.8283 108.315 74.0976C108.315 74.376 108.216 74.6139 108.019 74.8114ZM109.452 76.4815L114.651 65.4377H115.742L110.543 76.4815H109.452ZM113.7 76.4815L118.899 65.4377H119.99L114.791 76.4815H113.7ZM127.071 75L125.401 70.165L123.745 75H122.721L120.431 68.266H121.644L123.273 73.1818L124.957 68.266H125.846L127.529 73.1818L129.159 68.266H130.384L128.095 75H127.071ZM137.343 75L135.673 70.165L134.017 75H132.993L130.704 68.266H131.916L133.545 73.1818L135.229 68.266H136.118L137.801 73.1818L139.431 68.266H140.656L138.367 75H137.343ZM147.615 75L145.945 70.165L144.289 75H143.265L140.976 68.266H142.188L143.817 73.1818L145.501 68.266H146.39L148.073 73.1818L149.703 68.266H150.928L148.639 75H147.615ZM152.97 74.8114C152.782 75.009 152.548 75.1077 152.27 75.1077C151.992 75.1077 151.754 75.009 151.556 74.8114C151.368 74.6139 151.273 74.376 151.273 74.0976C151.273 73.8283 151.372 73.5948 151.57 73.3973C151.767 73.1908 152.001 73.0875 152.27 73.0875C152.539 73.0875 152.773 73.1908 152.97 73.3973C153.168 73.5948 153.267 73.8283 153.267 74.0976C153.267 74.376 153.168 74.6139 152.97 74.8114Z" fill="#F1F1F1"/>
<rect x="294.445" y="57.7334" width="47.9802" height="26.0944" rx="10.1011" fill="#031B2E"/>
<rect x="294.782" y="58.0701" width="47.3068" height="25.421" rx="9.76437" stroke="white" stroke-opacity="0.08" stroke-width="0.673403"/>
<circle cx="317.553" cy="69.901" r="4.3541" stroke="#F1F1F1" stroke-width="0.81248" stroke-linecap="square"/>
<path d="M320.523 73.1084L322.99 75.5684" stroke="#F1F1F1" stroke-width="0.81248" stroke-linecap="square"/>
<rect x="160.105" y="57.7334" width="119.53" height="26.0944" rx="10.1011" fill="#031B2E"/>
<rect x="160.442" y="58.0701" width="118.856" height="25.421" rx="9.76437" stroke="white" stroke-opacity="0.08" stroke-width="0.673403"/>
<path d="M55.5703 68.9277V67.7229C55.5703 66.3126 54.4322 65.169 53.0287 65.169C51.6253 65.1628 50.4827 66.3009 50.4766 67.7116V67.7229V68.9277" stroke="#F1F1F1" stroke-width="0.841756" stroke-linecap="round" stroke-linejoin="round"/>
<path fill-rule="evenodd" clip-rule="evenodd" d="M55.1583 75.5505H50.8911C49.7217 75.5505 48.7734 74.5982 48.7734 73.4225V71.0157C48.7734 69.84 49.7217 68.8877 50.8911 68.8877H55.1583C56.3278 68.8877 57.276 69.84 57.276 71.0157V73.4225C57.276 74.5982 56.3278 75.5505 55.1583 75.5505Z" stroke="#F1F1F1" stroke-width="0.841756" stroke-linecap="round" stroke-linejoin="round"/>
<path d="M53.0253 71.5957V72.8421" stroke="#F1F1F1" stroke-width="0.841756" stroke-linecap="round" stroke-linejoin="round"/>
<rect x="33.15" y="100.15" width="100.7" height="80.7" fill="#031B2E"/>
<rect x="33.15" y="100.15" width="100.7" height="80.7" stroke="#0C2841" stroke-width="0.3"/>
<g opacity="0.8">
<rect x="37" y="155" width="64" height="5" rx="2.5" fill="#0A2336"/>
<rect x="37" y="163" width="57" height="5" rx="2.5" fill="#0A2336"/>
<rect x="37" y="171" width="43" height="5" rx="2.5" fill="#0A2336"/>
</g>
<g opacity="0.6">
<g clip-path="url(#clip1_17512_93527)">
<rect x="37" y="104" width="93" height="47" fill="#0A2336"/>
<line y1="-0.144441" x2="104.202" y2="-0.144441" transform="matrix(0.8925 0.451048 -0.592907 0.805271 37 104)" stroke="#0C2841" stroke-width="0.288881"/>
<line y1="-0.144441" x2="104.202" y2="-0.144441" transform="matrix(0.8925 -0.451048 0.592907 0.805271 37 151)" stroke="#0C2841" stroke-width="0.288881"/>
</g>
<rect x="37.15" y="104.15" width="92.7" height="46.7" stroke="#0C2841" stroke-width="0.3"/>
</g>
<rect x="142.15" y="100.15" width="100.7" height="80.7" fill="#031B2E"/>
<rect x="142.15" y="100.15" width="100.7" height="80.7" stroke="#0C2841" stroke-width="0.3"/>
<g opacity="0.8">
<rect x="146" y="155" width="64" height="5" rx="2.5" fill="#0A2336"/>
<rect x="146" y="163" width="57" height="5" rx="2.5" fill="#0A2336"/>
<rect x="146" y="171" width="43" height="5" rx="2.5" fill="#0A2336"/>
</g>
<g opacity="0.6">
<g clip-path="url(#clip2_17512_93527)">
<rect x="146" y="104" width="93" height="47" fill="#0A2336"/>
<line y1="-0.144441" x2="104.202" y2="-0.144441" transform="matrix(0.8925 0.451048 -0.592907 0.805271 146 104)" stroke="#0C2841" stroke-width="0.288881"/>
<line y1="-0.144441" x2="104.202" y2="-0.144441" transform="matrix(0.8925 -0.451048 0.592907 0.805271 146 151)" stroke="#0C2841" stroke-width="0.288881"/>
</g>
<rect x="146.15" y="104.15" width="92.7" height="46.7" stroke="#0C2841" stroke-width="0.3"/>
</g>
<rect x="251.15" y="100.15" width="100.7" height="80.7" fill="#031B2E"/>
<rect x="251.15" y="100.15" width="100.7" height="80.7" stroke="#0C2841" stroke-width="0.3"/>
<g opacity="0.8">
<rect x="255" y="155" width="64" height="5" rx="2.5" fill="#0A2336"/>
<rect x="255" y="163" width="57" height="5" rx="2.5" fill="#0A2336"/>
<rect x="255" y="171" width="43" height="5" rx="2.5" fill="#0A2336"/>
</g>
<g opacity="0.6">
<g clip-path="url(#clip3_17512_93527)">
<rect x="255" y="104" width="93" height="47" fill="#0A2336"/>
<line y1="-0.144441" x2="104.202" y2="-0.144441" transform="matrix(0.8925 0.451048 -0.592907 0.805271 255 104)" stroke="#0C2841" stroke-width="0.288881"/>
<line y1="-0.144441" x2="104.202" y2="-0.144441" transform="matrix(0.8925 -0.451048 0.592907 0.805271 255 151)" stroke="#0C2841" stroke-width="0.288881"/>
</g>
<rect x="255.15" y="104.15" width="92.7" height="46.7" stroke="#0C2841" stroke-width="0.3"/>
</g>
<rect x="33.15" y="189.15" width="100.7" height="80.7" fill="#031B2E"/>
<rect x="33.15" y="189.15" width="100.7" height="80.7" stroke="#0C2841" stroke-width="0.3"/>
<g opacity="0.6">
<g clip-path="url(#clip4_17512_93527)">
<rect x="37" y="193" width="93" height="47" fill="#0A2336"/>
<line y1="-0.144441" x2="104.202" y2="-0.144441" transform="matrix(0.8925 0.451048 -0.592907 0.805271 37 193)" stroke="#0C2841" stroke-width="0.288881"/>
<line y1="-0.144441" x2="104.202" y2="-0.144441" transform="matrix(0.8925 -0.451048 0.592907 0.805271 37 240)" stroke="#0C2841" stroke-width="0.288881"/>
</g>
<rect x="37.15" y="193.15" width="92.7" height="46.7" stroke="#0C2841" stroke-width="0.3"/>
</g>
<rect x="142.15" y="189.15" width="100.7" height="80.7" fill="#031B2E"/>
<rect x="142.15" y="189.15" width="100.7" height="80.7" stroke="#0C2841" stroke-width="0.3"/>
<g opacity="0.6">
<g clip-path="url(#clip5_17512_93527)">
<rect x="146" y="193" width="93" height="47" fill="#0A2336"/>
<line y1="-0.144441" x2="104.202" y2="-0.144441" transform="matrix(0.8925 0.451048 -0.592907 0.805271 146 193)" stroke="#0C2841" stroke-width="0.288881"/>
<line y1="-0.144441" x2="104.202" y2="-0.144441" transform="matrix(0.8925 -0.451048 0.592907 0.805271 146 240)" stroke="#0C2841" stroke-width="0.288881"/>
</g>
<rect x="146.15" y="193.15" width="92.7" height="46.7" stroke="#0C2841" stroke-width="0.3"/>
</g>
<rect x="251.15" y="189.15" width="100.7" height="80.7" fill="#031B2E"/>
<rect x="251.15" y="189.15" width="100.7" height="80.7" stroke="#0C2841" stroke-width="0.3"/>
<g opacity="0.6">
<g clip-path="url(#clip6_17512_93527)">
<rect x="255" y="193" width="93" height="47" fill="#0A2336"/>
<line y1="-0.144441" x2="104.202" y2="-0.144441" transform="matrix(0.8925 0.451048 -0.592907 0.805271 255 193)" stroke="#0C2841" stroke-width="0.288881"/>
<line y1="-0.144441" x2="104.202" y2="-0.144441" transform="matrix(0.8925 -0.451048 0.592907 0.805271 255 240)" stroke="#0C2841" stroke-width="0.288881"/>
</g>
<rect x="255.15" y="193.15" width="92.7" height="46.7" stroke="#0C2841" stroke-width="0.3"/>
</g>
</g>
<path d="M0.457512 11.2919C0.457512 5.30822 5.30822 0.457512 11.2919 0.457512H373.761C379.744 0.457512 384.595 5.30822 384.595 11.2919V235.542H0.457512V11.2919Z" stroke="white" stroke-opacity="0.08" stroke-width="0.915023"/>
<defs>
<clipPath id="clip0_17512_93527">
<path d="M0 11.2919C0 5.05555 5.05554 0 11.2919 0H373.761C379.997 0 385.053 5.05554 385.053 11.2919V236H0V11.2919Z" fill="white"/>
</clipPath>
<clipPath id="clip1_17512_93527">
<rect x="37" y="104" width="93" height="47" fill="white"/>
</clipPath>
<clipPath id="clip2_17512_93527">
<rect x="146" y="104" width="93" height="47" fill="white"/>
</clipPath>
<clipPath id="clip3_17512_93527">
<rect x="255" y="104" width="93" height="47" fill="white"/>
</clipPath>
<clipPath id="clip4_17512_93527">
<rect x="37" y="193" width="93" height="47" fill="white"/>
</clipPath>
<clipPath id="clip5_17512_93527">
<rect x="146" y="193" width="93" height="47" fill="white"/>
</clipPath>
<clipPath id="clip6_17512_93527">
<rect x="255" y="193" width="93" height="47" fill="white"/>
</clipPath>
</defs>
</svg>
