<svg width="48" height="48" viewBox="0 0 48 48" fill="none" xmlns="http://www.w3.org/2000/svg">
<rect x="0.25" y="0.25" width="47.5" height="47.5" rx="7.75" fill="url(#paint0_linear_34056_5981)"/>
<rect x="0.25" y="0.25" width="47.5" height="47.5" rx="7.75" stroke="#E4E4E4" stroke-width="0.5"/>
<path d="M35.1211 33.3794C35.1211 33.6766 34.9982 33.9616 34.7795 34.1718C34.5608 34.3819 34.2642 34.5 33.9549 34.5H15.2873C14.978 34.5 14.6814 34.3819 14.4627 34.1718C14.244 33.9616 14.1211 33.6766 14.1211 33.3794V21.5964C14.1211 21.4256 14.1617 21.2571 14.2398 21.1036C14.3179 20.9502 14.4315 20.816 14.5719 20.7112L23.9043 13.7361C24.109 13.5831 24.361 13.5 24.6204 13.5C24.8798 13.5 25.1318 13.5831 25.3365 13.7361L34.6703 20.7112C34.8107 20.816 34.9243 20.9502 35.0024 21.1036C35.0805 21.2571 35.1211 21.4256 35.1211 21.5964V33.3781V33.3794ZM32.7873 32.2588V22.1439L24.6211 16.0405L16.4549 22.1439V32.2575L32.7873 32.2588Z" fill="#191919"/>
<defs>
<linearGradient id="paint0_linear_34056_5981" x1="24" y1="0" x2="24" y2="48" gradientUnits="userSpaceOnUse">
<stop stop-color="#FEFEFE"/>
<stop offset="1" stop-color="#F9F9FB"/>
</linearGradient>
</defs>
</svg>
