<svg width="48" height="48" viewBox="0 0 48 48" fill="none" xmlns="http://www.w3.org/2000/svg">
<rect x="0.25" y="0.25" width="47.5" height="47.5" rx="7.75" fill="url(#paint0_linear_34056_4951)"/>
<rect x="0.25" y="0.25" width="47.5" height="47.5" rx="7.75" stroke="#E4E4E4" stroke-width="0.5"/>
<path d="M29 28H27V34H24V29H20V34H17V28H15L22 22L29 28ZM18 14L22 18H21V21H19V18H17V21H15V18H14L18 14ZM30 15L35 20H34V24H31V21H29V24H27.34L26 22.87V20H25L30 15Z" fill="#191919"/>
<defs>
<linearGradient id="paint0_linear_34056_4951" x1="24" y1="0" x2="24" y2="48" gradientUnits="userSpaceOnUse">
<stop stop-color="#FEFEFE"/>
<stop offset="1" stop-color="#F9F9FB"/>
</linearGradient>
</defs>
</svg>
