<svg width="48" height="48" viewBox="0 0 48 48" fill="none" xmlns="http://www.w3.org/2000/svg">
<rect x="0.25" y="0.25" width="47.5" height="47.5" rx="7.75" fill="url(#paint0_linear_34056_5892)"/>
<rect x="0.25" y="0.25" width="47.5" height="47.5" rx="7.75" stroke="#E4E4E4" stroke-width="0.5"/>
<path d="M32 14H16C14.9 14 14 14.9 14 16V32C14 33.1 14.9 34 16 34H32C33.1 34 34 33.1 34 32V16C34 14.9 33.1 14 32 14ZM27.3 16C26.5 17.1 26 18.5 26 20H22C22 18.4 22.8 16.9 24 16H27.3ZM26 26H22C22 24.5 21.5 23.1 20.7 22H24C25.2 22.9 26 24.4 26 26ZM16 16H21.3C20.5 17.1 20 18.5 20 20H16V16ZM16 22H18C19.2 22.9 20 24.3 20 26H16V22ZM16 32V28H21.3C20.5 29.1 20 30.5 20 32H16ZM22 32C22 30.4 22.8 28.9 24 28H27.3C26.5 29.1 26 30.5 26 32H22ZM32 32H28C28 30.4 28.8 28.9 30 28H32V32ZM32 26H28C28 24.5 27.5 23.1 26.7 22H32V26ZM32 20H28C28 18.4 28.8 16.9 30 16H32V20Z" fill="#191919"/>
<defs>
<linearGradient id="paint0_linear_34056_5892" x1="24" y1="0" x2="24" y2="48" gradientUnits="userSpaceOnUse">
<stop stop-color="#FEFEFE"/>
<stop offset="1" stop-color="#F9F9FB"/>
</linearGradient>
</defs>
</svg>
