<svg width="48" height="48" viewBox="0 0 48 48" fill="none" xmlns="http://www.w3.org/2000/svg">
<rect x="0.25" y="0.25" width="47.5" height="47.5" rx="7.75" fill="url(#paint0_linear_34056_87)"/>
<rect x="0.25" y="0.25" width="47.5" height="47.5" rx="7.75" stroke="#E4E4E4" stroke-width="0.5"/>
<path d="M33.818 21.364L32.124 15.435C32.0881 15.3096 32.0124 15.1994 31.9083 15.1209C31.8042 15.0424 31.6774 15 31.547 15H27.5L27.975 20.704C27.9823 20.7957 28.0114 20.8843 28.0597 20.9625C28.1081 21.0408 28.1743 21.1064 28.253 21.154C28.643 21.387 29.405 21.817 30 22C31.016 22.313 32.5 22.2 33.346 22.096C33.4282 22.0854 33.5072 22.0569 33.5773 22.0126C33.6474 21.9683 33.707 21.9093 33.752 21.8396C33.7969 21.7699 33.8261 21.6912 33.8375 21.6091C33.8489 21.5269 33.8423 21.4433 33.818 21.364Z" stroke="#191919" stroke-width="1.5"/>
<path d="M25.9999 22C26.5679 21.825 27.2879 21.426 27.6899 21.188C27.7835 21.132 27.8594 21.0509 27.9089 20.9538C27.9584 20.8567 27.9796 20.7476 27.9699 20.639L27.4999 15H20.4999L20.0299 20.639C20.0201 20.7477 20.0412 20.857 20.0907 20.9543C20.1402 21.0516 20.2162 21.133 20.3099 21.189C20.7119 21.426 21.4319 21.825 21.9999 22C23.4929 22.46 24.5069 22.46 25.9999 22Z" stroke="#191919" stroke-width="1.5"/>
<path d="M15.8761 15.435L14.1821 21.365C14.1581 21.4442 14.1517 21.5276 14.1633 21.6095C14.1749 21.6914 14.2041 21.7698 14.2491 21.8393C14.294 21.9087 14.3535 21.9676 14.4234 22.0117C14.4933 22.0559 14.572 22.0843 14.6541 22.095C15.4991 22.2 16.9841 22.312 18.0001 22C18.5951 21.817 19.3581 21.387 19.7471 21.155C19.8259 21.1073 19.8922 21.0415 19.9406 20.9631C19.9889 20.8847 20.0179 20.7959 20.0251 20.704L20.5001 15H16.4531C16.3227 15 16.1958 15.0424 16.0917 15.1209C15.9876 15.1994 15.9119 15.3096 15.8761 15.435Z" stroke="#191919" stroke-width="1.5"/>
<path d="M15 22V31C15 31.5304 15.2107 32.0391 15.5858 32.4142C15.9609 32.7893 16.4696 33 17 33H31C31.5304 33 32.0391 32.7893 32.4142 32.4142C32.7893 32.0391 33 31.5304 33 31V22" stroke="#191919" stroke-width="1.5"/>
<defs>
<linearGradient id="paint0_linear_34056_87" x1="24" y1="0" x2="24" y2="48" gradientUnits="userSpaceOnUse">
<stop stop-color="#FEFEFE"/>
<stop offset="1" stop-color="#F9F9FB"/>
</linearGradient>
</defs>
</svg>
