<svg width="48" height="48" viewBox="0 0 48 48" fill="none" xmlns="http://www.w3.org/2000/svg">
<rect x="0.25" y="0.25" width="47.5" height="47.5" rx="7.75" fill="url(#paint0_linear_34056_5646)"/>
<rect x="0.25" y="0.25" width="47.5" height="47.5" rx="7.75" stroke="#E4E4E4" stroke-width="0.5"/>
<g clip-path="url(#clip0_34056_5646)">
<path d="M31.9123 20.5734C31.9123 20.5497 31.9123 20.526 31.9123 20.5012C31.9123 16.133 28.3712 12.5918 24.0029 12.5918C19.6347 12.5918 16.0935 16.133 16.0935 20.5012C16.0935 20.5259 16.0935 20.5496 16.0935 20.5734C12.2695 22.6849 10.8812 27.4965 12.9927 31.3206C15.1042 35.1446 19.9159 36.5329 23.7399 34.4214C23.8285 34.3725 23.9163 34.3218 24.003 34.2695C27.7431 36.5263 32.6046 35.3238 34.8613 31.5837C37.1181 27.8436 35.9156 22.9821 32.1755 20.7254C32.0887 20.673 32.001 20.6223 31.9123 20.5734ZM24.0029 31.8443C22.9393 30.894 22.2541 29.592 22.0731 28.1773C23.3388 28.4943 24.6631 28.4943 25.9289 28.1773C25.7478 29.5897 25.0641 30.8897 24.0029 31.8394V31.8443ZM24.0029 26.4333C23.3788 26.4336 22.7584 26.3352 22.165 26.1416C22.4347 24.9296 23.0775 23.8325 24.0029 23.0046C24.9284 23.8325 25.5711 24.9296 25.8409 26.1416C25.2475 26.3352 24.6271 26.4336 24.0029 26.4333ZM20.3706 25.1875C19.2763 24.3401 18.5122 23.1372 18.2103 21.7865C19.5403 21.3534 20.9805 21.4042 22.2767 21.9299C21.388 22.8462 20.734 23.9639 20.3706 25.1875ZM25.7292 21.9249C27.0253 21.3992 28.4656 21.3484 29.7956 21.7815C29.4947 23.134 28.7305 24.3389 27.6353 25.1875C27.2726 23.9621 26.6186 22.8427 25.7292 21.9249ZM24.0029 14.5692C26.9876 14.573 29.5061 16.7906 29.8875 19.7508C27.8935 19.2501 25.7829 19.5455 24.0029 20.5744C22.223 19.5455 20.1124 19.2501 18.1183 19.7508C18.4998 16.7907 21.0183 14.573 24.0029 14.5692ZM14.1162 27.4219C14.1164 25.5882 14.9655 23.8578 16.4158 22.7356C16.9929 24.6811 18.2925 26.3321 20.0482 27.3497C20.0482 27.3735 20.0482 27.3972 20.0482 27.4219C20.0472 29.4745 20.8466 31.4466 22.2767 32.919C19.2405 34.1497 15.7814 32.6861 14.5507 29.6499C14.2638 28.9421 14.1163 28.1857 14.1162 27.4219ZM27.9576 33.354C27.1937 33.3545 26.4369 33.2068 25.7292 32.919C27.1593 31.4466 27.9587 29.4745 27.9576 27.422C27.9576 27.3973 27.9576 27.3735 27.9576 27.3498C29.7137 26.3323 31.0138 24.6813 31.591 22.7356C34.1792 24.7443 34.649 28.4707 32.6404 31.059C31.5174 32.5058 29.7891 33.3529 27.9576 33.354Z" fill="#191919"/>
</g>
<defs>
<linearGradient id="paint0_linear_34056_5646" x1="24" y1="0" x2="24" y2="48" gradientUnits="userSpaceOnUse">
<stop stop-color="#FEFEFE"/>
<stop offset="1" stop-color="#F9F9FB"/>
</linearGradient>
<clipPath id="clip0_34056_5646">
<rect width="24" height="24" fill="white" transform="translate(12 12)"/>
</clipPath>
</defs>
</svg>
