<svg width="48" height="48" viewBox="0 0 48 48" fill="none" xmlns="http://www.w3.org/2000/svg">
<rect x="0.25" y="0.25" width="47.5" height="47.5" rx="7.75" fill="url(#paint0_linear_34056_5658)"/>
<rect x="0.25" y="0.25" width="47.5" height="47.5" rx="7.75" stroke="#E4E4E4" stroke-width="0.5"/>
<g clip-path="url(#clip0_34056_5658)">
<path d="M23.9783 15.2188C23.5847 15.222 23.2089 15.3092 22.9306 15.462L8.44264 23.4128C8.30216 23.4898 8.19071 23.5813 8.11468 23.682C8.03865 23.7827 7.99951 23.8906 7.99951 23.9996C7.99951 24.1086 8.03865 24.2166 8.11468 24.3173C8.19071 24.418 8.30216 24.5095 8.44264 24.5865L22.9306 32.5372C23.0711 32.6143 23.2378 32.6755 23.4213 32.7172C23.6048 32.7589 23.8015 32.7804 24.0001 32.7804C24.1987 32.7804 24.3954 32.7589 24.5789 32.7172C24.7624 32.6755 24.9291 32.6143 25.0695 32.5372L39.5575 24.5865C39.698 24.5095 39.8094 24.418 39.8855 24.3173C39.9615 24.2166 40.0006 24.1086 40.0006 23.9996C40.0006 23.8906 39.9615 23.7827 39.8855 23.682C39.8094 23.5813 39.698 23.4898 39.5575 23.4128L25.0695 15.462C24.9265 15.3835 24.7563 15.3215 24.5688 15.2797C24.3814 15.238 24.1806 15.2172 23.9783 15.2188ZM24.0001 17.222L26.7882 18.7523C26.3902 18.9043 26.0044 19.0867 25.6343 19.2979C24.7297 19.8131 23.8878 20.5056 23.3962 21.4214C21.4452 21.1142 19.4519 20.9292 17.4865 20.7964L24.0001 17.222ZM28.8951 19.9084L36.3508 23.9996L33.9063 25.3408C31.4062 23.4656 28.3607 22.384 25.1252 21.728C25.451 21.352 25.9095 20.9824 26.4257 20.6883C27.2033 20.2457 28.1015 19.9756 28.6538 19.951C28.736 19.9493 28.8174 19.9349 28.8951 19.9084ZM14.8814 22.2265C14.9343 22.2404 14.9886 22.2487 15.0433 22.2515C21.2596 22.5939 27.8596 23.2044 32.347 26.1964L31.2801 26.782C28.8506 25.2144 26.0634 24.0768 22.5988 24.2566C20.5329 24.3638 18.2244 24.943 15.61 26.1728L11.65 23.9996L14.8814 22.2265ZM23.6039 25.7721C25.9303 25.8163 27.8529 26.583 29.6711 27.6652L24.0001 30.7772L17.3687 27.1379C19.777 26.1318 21.8103 25.7382 23.6039 25.7721Z" fill="#191919"/>
</g>
<defs>
<linearGradient id="paint0_linear_34056_5658" x1="24" y1="0" x2="24" y2="48" gradientUnits="userSpaceOnUse">
<stop stop-color="#FEFEFE"/>
<stop offset="1" stop-color="#F9F9FB"/>
</linearGradient>
<clipPath id="clip0_34056_5658">
<rect width="32" height="32" fill="white" transform="translate(8 8)"/>
</clipPath>
</defs>
</svg>
