<svg width="48" height="48" viewBox="0 0 48 48" fill="none" xmlns="http://www.w3.org/2000/svg">
<rect x="0.25" y="0.25" width="47.5" height="47.5" rx="7.75" fill="url(#paint0_linear_34056_6106)"/>
<rect x="0.25" y="0.25" width="47.5" height="47.5" rx="7.75" stroke="#E4E4E4" stroke-width="0.5"/>
<path d="M5.41514 29.5869V20.1743C5.4151 20.0291 5.45973 19.8874 5.54298 19.7684C5.62624 19.6495 5.74408 19.559 5.88051 19.5093L12.7243 17.0212C12.7778 17.0018 12.8351 16.9956 12.8915 17.0031C12.9479 17.0106 13.0016 17.0315 13.0482 17.0642C13.0948 17.0968 13.1328 17.1402 13.159 17.1907C13.1853 17.2411 13.199 17.2972 13.199 17.3541V20.8587L17.6718 22.3483C17.8128 22.3952 17.9355 22.4853 18.0223 22.6059C18.1092 22.7265 18.1559 22.8714 18.1558 23.02V29.5869H19.5715V31H3.99951V29.5869H5.41514ZM6.83077 29.5869H11.7842V18.869L6.82993 20.6702L6.83077 29.5869ZM16.7385 29.5869V23.527L13.199 22.3508V29.5869H16.7385Z" fill="#191919"/>
<path d="M17.3053 29.5869V20.1743C17.3052 20.0291 17.3499 19.8874 17.4331 19.7684C17.5164 19.6495 17.6342 19.559 17.7706 19.5093L24.6144 17.0212C24.6679 17.0018 24.7253 16.9956 24.7816 17.0031C24.838 17.0106 24.8918 17.0315 24.9383 17.0642C24.9849 17.0968 25.0229 17.1402 25.0492 17.1907C25.0754 17.2411 25.0891 17.2972 25.0891 17.3541V20.8587L29.5619 22.3483C29.7029 22.3952 29.8256 22.4853 29.9125 22.6059C29.9994 22.7265 30.0461 22.8714 30.046 23.02V29.5869H31.4616V31H15.8896V29.5869H17.3053ZM18.7209 29.5869H23.6743V18.869L18.7201 20.6702L18.7209 29.5869ZM28.6286 29.5869V23.527L25.0891 22.3508V29.5869H28.6286Z" fill="#191919"/>
<path d="M29.193 29.5869V20.1743C29.1929 20.0291 29.2376 19.8874 29.3208 19.7684C29.4041 19.6495 29.5219 19.559 29.6583 19.5093L36.5021 17.0212C36.5556 17.0018 36.6129 16.9956 36.6693 17.0031C36.7257 17.0106 36.7795 17.0315 36.826 17.0642C36.8726 17.0968 36.9106 17.1402 36.9369 17.1907C36.9631 17.2411 36.9768 17.2972 36.9768 17.3541V20.8587L41.4496 22.3483C41.5906 22.3952 41.7133 22.4853 41.8002 22.6059C41.8871 22.7265 41.9338 22.8714 41.9337 23.02V29.5869H43.3493V31H27.7773V29.5869H29.193ZM30.6086 29.5869H35.562V18.869L30.6078 20.6702L30.6086 29.5869ZM40.5163 29.5869V23.527L36.9768 22.3508V29.5869H40.5163Z" fill="#191919"/>
<defs>
<linearGradient id="paint0_linear_34056_6106" x1="24" y1="0" x2="24" y2="48" gradientUnits="userSpaceOnUse">
<stop stop-color="#FEFEFE"/>
<stop offset="1" stop-color="#F9F9FB"/>
</linearGradient>
</defs>
</svg>
