<svg width="24" height="24" viewBox="0 0 24 24" fill="none" xmlns="http://www.w3.org/2000/svg">
<g clip-path="url(#clip0_14705_8794)">
<path d="M24 14C23.9976 11.879 23.154 9.84555 21.6542 8.34578C20.1544 6.846 18.121 6.00238 16 6V4H23C23.2652 4 23.5196 3.89464 23.7071 3.70711C23.8946 3.51957 24 3.26522 24 3C24 2.73478 23.8946 2.48043 23.7071 2.29289C23.5196 2.10536 23.2652 2 23 2H16C16 1.73478 15.8946 1.48043 15.7071 1.29289C15.5196 1.10536 15.2652 1 15 1C14.7348 1 14.4804 1.10536 14.2929 1.29289C14.1054 1.48043 14 1.73478 14 2H7C6.73478 2 6.48043 2.10536 6.29289 2.29289C6.10536 2.48043 6 2.73478 6 3C6 3.26522 6.10536 3.51957 6.29289 3.70711C6.48043 3.89464 6.73478 4 7 4H14V6H2V5C2 4.73478 1.89464 4.48043 1.70711 4.29289C1.51957 4.10536 1.26522 4 1 4C0.734784 4 0.48043 4.10536 0.292893 4.29289C0.105357 4.48043 0 4.73478 0 5C0 5 0.012 7.18 0.035 7.264C0.139879 8.03523 0.466446 8.75942 0.975035 9.3486C1.48362 9.93778 2.15235 10.3666 2.9 10.583L7 11.754V13C7.00143 14.2404 7.38665 15.4501 8.10281 16.4629C8.81897 17.4757 9.83098 18.2421 11 18.657V21H7C6.73478 21 6.48043 21.1054 6.29289 21.2929C6.10536 21.4804 6 21.7348 6 22C6 22.2652 6.10536 22.5196 6.29289 22.7071C6.48043 22.8946 6.73478 23 7 23H21C21.7956 23 22.5587 22.6839 23.1213 22.1213C23.6839 21.5587 24 20.7956 24 20C24 19.7348 23.8946 19.4804 23.7071 19.2929C23.5196 19.1054 23.2652 19 23 19C22.7348 19 22.4804 19.1054 22.2929 19.2929C22.1054 19.4804 22 19.7348 22 20C22 20.2652 21.8946 20.5196 21.7071 20.7071C21.5196 20.8946 21.2652 21 21 21H19V19C20.3256 18.9984 21.5964 18.4711 22.5338 17.5338C23.4711 16.5964 23.9984 15.3256 24 14ZM21.916 13H17C16.7348 13 16.4804 12.8946 16.2929 12.7071C16.1054 12.5196 16 12.2652 16 12V8C17.4174 8.00181 18.7886 8.50462 19.8711 9.41957C20.9537 10.3345 21.678 11.6027 21.916 13ZM9 13V11C8.9999 10.7828 8.9291 10.5716 8.7983 10.3982C8.6675 10.2248 8.48381 10.0987 8.275 10.039L3.45 8.66C3.05705 8.54736 2.70805 8.31702 2.45 8H14V12C14 12.7956 14.3161 13.5587 14.8787 14.1213C15.4413 14.6839 16.2044 15 17 15H21.828C21.6212 15.5848 21.2383 16.0912 20.7318 16.4494C20.2253 16.8075 19.6203 16.9999 19 17H13C11.9391 17 10.9217 16.5786 10.1716 15.8284C9.42143 15.0783 9 14.0609 9 13ZM17 21H13V19H17V21Z" fill="#3D3D3D"/>
</g>
<defs>
<clipPath id="clip0_14705_8794">
<rect width="24" height="24" fill="white"/>
</clipPath>
</defs>
</svg>
