<svg width="24" height="24" viewBox="0 0 24 24" fill="none" xmlns="http://www.w3.org/2000/svg">
<g clip-path="url(#clip0_14705_8809)">
<path d="M21 2H3C1.346 2 0 3.346 0 5V22H2V19H22V22H24V5C24 3.346 22.654 2 21 2ZM3 4H21C21.552 4 22 4.449 22 5V13H20V12C20 10.346 18.654 9 17 9H14C13.232 9 12.531 9.29 12 9.766C11.469 9.29 10.768 9 10 9H7C5.346 9 4 10.346 4 12V13H2V5C2 4.449 2.449 4 3 4ZM11 13H6V12C6 11.449 6.449 11 7 11H10C10.551 11 11 11.449 11 12V13ZM13 12C13 11.449 13.448 11 14 11H17C17.552 11 18 11.449 18 12V13H13V12ZM2 17V15H22V17H2Z" fill="#3D3D3D"/>
</g>
<defs>
<clipPath id="clip0_14705_8809">
<rect width="24" height="24" fill="white"/>
</clipPath>
</defs>
</svg>
