<svg width="24" height="24" viewBox="0 0 24 24" fill="none" xmlns="http://www.w3.org/2000/svg">
<g clip-path="url(#clip0_14705_8819)">
<path d="M11.948 24.0098L11.594 23.8528C11.2 23.6798 2 19.5248 2 12.0008V5.47677C2.00035 4.84894 2.19878 4.23722 2.56704 3.72874C2.9353 3.22025 3.4546 2.84092 4.051 2.64477L12 0.00976562L19.949 2.64477C20.5454 2.84092 21.0647 3.22025 21.433 3.72874C21.8012 4.23722 21.9997 4.84894 22 5.47677V12.0008C22 20.5778 12.712 23.7558 12.316 23.8878L11.948 24.0098ZM12 2.10677L4.684 4.53277C4.48495 4.59778 4.31157 4.72412 4.1887 4.89369C4.06584 5.06326 3.99978 5.26736 4 5.47677V12.0008C4 17.4948 10.44 21.0588 12.047 21.8618C13.651 21.2168 20 18.2638 20 12.0008V5.47677C20.0002 5.26736 19.9342 5.06326 19.8113 4.89369C19.6884 4.72412 19.5151 4.59778 19.316 4.53277L12 2.10677Z" fill="#3D3D3D"/>
<path d="M11.1117 14.5433H11.0787C10.8256 14.5394 10.5759 14.4843 10.3448 14.3811C10.1136 14.278 9.90571 14.1291 9.73373 13.9433L7.42773 11.5433L8.86873 10.1613L11.1127 12.5013L16.2937 7.32031L17.7077 8.73431L12.4467 13.9953C12.2715 14.1704 12.0633 14.309 11.8341 14.403C11.605 14.4971 11.3594 14.5448 11.1117 14.5433Z" fill="#3D3D3D"/>
</g>
<defs>
<clipPath id="clip0_14705_8819">
<rect width="24" height="24" fill="white"/>
</clipPath>
</defs>
</svg>
