<svg width="32" height="32" viewBox="0 0 32 32" fill="none" xmlns="http://www.w3.org/2000/svg">
<path fill-rule="evenodd" clip-rule="evenodd" d="M9.77366 2.66602H22.2137C26.747 2.66602 29.3337 5.22602 29.3337 9.77268V22.226C29.3337 26.746 26.7603 29.3327 22.227 29.3327H9.77366C5.22699 29.3327 2.66699 26.746 2.66699 22.226V9.77268C2.66699 5.22602 5.22699 2.66602 9.77366 2.66602ZM17.0937 17.106H20.8803C21.4937 17.0927 21.987 16.5993 21.987 15.986C21.987 15.3727 21.4937 14.8793 20.8803 14.8793H17.0937V11.1193C17.0937 10.506 16.6003 10.0127 15.987 10.0127C15.3737 10.0127 14.8803 10.506 14.8803 11.1193V14.8793H11.107C10.8137 14.8793 10.5337 14.9993 10.3203 15.1993C10.1203 15.4127 10.0003 15.6913 10.0003 15.986C10.0003 16.5993 10.4937 17.0927 11.107 17.106H14.8803V20.8793C14.8803 21.4927 15.3737 21.986 15.987 21.986C16.6003 21.986 17.0937 21.4927 17.0937 20.8793V17.106Z" fill="white"/>
</svg>
