<svg width="261" height="181" viewBox="0 0 261 181" fill="none" xmlns="http://www.w3.org/2000/svg">
<g opacity="0.8">
<path d="M260.875 171.048H0.875V171.178H260.875V171.048Z" fill="#EBEBEB"/>
<path d="M124.113 147.856H23.7062C22.9196 147.855 22.1657 147.541 21.61 146.985C21.0543 146.428 20.7422 145.674 20.7422 144.887V3.74205C20.749 2.95998 21.0642 2.21219 21.6191 1.66111C22.1741 1.11003 22.9241 0.800168 23.7062 0.798828H124.113C124.9 0.798828 125.656 1.11166 126.213 1.66849C126.769 2.22533 127.082 2.98057 127.082 3.76805V144.887C127.082 145.674 126.769 146.43 126.213 146.987C125.656 147.543 124.9 147.856 124.113 147.856ZM23.7062 0.902829C22.9541 0.904207 22.2333 1.20395 21.7019 1.73625C21.1706 2.26856 20.8722 2.98995 20.8722 3.74205V144.887C20.8722 145.639 21.1706 146.36 21.7019 146.893C22.2333 147.425 22.9541 147.725 23.7062 147.726H124.113C124.866 147.725 125.587 147.425 126.119 146.893C126.651 146.361 126.951 145.64 126.952 144.887V3.74205C126.951 2.98947 126.651 2.2681 126.119 1.73594C125.587 1.20378 124.866 0.904204 124.113 0.902829H23.7062Z" fill="#EBEBEB"/>
<path d="M236.6 147.856H136.188C135.401 147.855 134.646 147.542 134.09 146.985C133.533 146.428 133.22 145.674 133.219 144.887V3.74205C133.227 2.95951 133.543 2.21172 134.099 1.66078C134.655 1.10985 135.405 0.800153 136.188 0.798828H236.6C237.381 0.801534 238.13 1.112 238.684 1.66293C239.237 2.21387 239.552 2.96088 239.559 3.74205V144.887C239.559 145.673 239.247 146.426 238.693 146.983C238.138 147.539 237.386 147.853 236.6 147.856ZM136.188 0.902829C135.435 0.904204 134.714 1.20378 134.182 1.73594C133.65 2.2681 133.35 2.98947 133.349 3.74205V144.887C133.35 145.64 133.65 146.361 134.182 146.893C134.714 147.425 135.435 147.725 136.188 147.726H236.6C237.353 147.725 238.074 147.425 238.606 146.893C239.138 146.361 239.438 145.64 239.439 144.887V3.74205C239.438 2.98947 239.138 2.2681 238.606 1.73594C238.074 1.20378 237.353 0.904204 236.6 0.902829H136.188Z" fill="#EBEBEB"/>
<path d="M41.0669 175.999H27.5469V176.129H41.0669V175.999Z" fill="#EBEBEB"/>
<path d="M99.7672 174.589H76.3516V174.719H99.7672V174.589Z" fill="#EBEBEB"/>
<path d="M73.1889 180.83H41.5781V180.96H73.1889V180.83Z" fill="#EBEBEB"/>
<path d="M234.203 179.956H224.203V180.086H234.203V179.956Z" fill="#EBEBEB"/>
<path d="M219.579 179.956H190.828V180.086H219.579V179.956Z" fill="#EBEBEB"/>
<path d="M173.271 177.761H134.547V177.891H173.271V177.761Z" fill="#EBEBEB"/>
<path d="M100.109 84.2285L93.5312 171.069H156.971L163.549 84.2285H100.109ZM139.998 145.589C139.692 149.055 138.111 152.285 135.562 154.654C133.013 157.024 129.677 158.364 126.198 158.418C124.55 158.443 122.916 158.121 121.401 157.473C119.887 156.824 118.526 155.863 117.408 154.653C116.29 153.443 115.439 152.011 114.912 150.45C114.384 148.889 114.192 147.235 114.347 145.594L116.661 115.07C116.968 111.605 118.547 108.376 121.095 106.006C123.643 103.637 126.978 102.296 130.456 102.241C132.105 102.215 133.741 102.537 135.256 103.185C136.772 103.834 138.134 104.795 139.253 106.005C140.373 107.216 141.224 108.649 141.752 110.211C142.28 111.773 142.473 113.429 142.318 115.07L139.998 145.589Z" fill="#606060"/>
<path d="M177.091 171.048H84.5938L85.1293 165.349H177.622L177.091 171.048Z" fill="#606060"/>
<path d="M212.63 138.814H220.835C220.945 138.814 221.054 138.792 221.155 138.748C221.256 138.705 221.347 138.641 221.423 138.561C221.498 138.481 221.556 138.387 221.594 138.284C221.632 138.18 221.648 138.071 221.641 137.961L221.61 137.378C221.597 137.151 221.498 136.937 221.333 136.779C221.168 136.622 220.949 136.533 220.721 136.531H212.515C212.406 136.53 212.297 136.552 212.195 136.594C212.094 136.637 212.003 136.7 211.927 136.779C211.851 136.859 211.792 136.953 211.754 137.056C211.715 137.159 211.699 137.269 211.704 137.378L211.735 137.961C211.749 138.19 211.848 138.405 212.014 138.564C212.18 138.722 212.4 138.811 212.63 138.814Z" fill="#817C7C"/>
<path d="M198.942 138.814H207.132C207.242 138.815 207.352 138.793 207.453 138.75C207.554 138.707 207.646 138.643 207.721 138.563C207.797 138.483 207.855 138.388 207.893 138.284C207.93 138.181 207.945 138.071 207.938 137.961L207.907 137.378C207.894 137.151 207.795 136.937 207.63 136.779C207.465 136.622 207.246 136.533 207.018 136.531H198.828C198.718 136.53 198.609 136.552 198.508 136.594C198.407 136.637 198.315 136.7 198.239 136.779C198.163 136.859 198.104 136.953 198.066 137.056C198.028 137.159 198.011 137.269 198.017 137.378L198.048 137.961C198.062 138.189 198.162 138.404 198.328 138.562C198.494 138.72 198.713 138.81 198.942 138.814Z" fill="#817C7C"/>
<path d="M227.193 138.169H36.0252C34.9508 138.157 33.9207 137.739 33.1428 136.998C32.3649 136.256 31.8972 135.248 31.834 134.175L26.0776 19.3476C26.0454 18.8321 26.1199 18.3156 26.2964 17.8302C26.4729 17.3449 26.7476 16.9011 27.1034 16.5268C27.4592 16.1525 27.8884 15.8555 28.3642 15.6546C28.8399 15.4537 29.352 15.3531 29.8684 15.3591H221.036C222.11 15.3691 223.14 15.7865 223.918 16.5269C224.696 17.2673 225.164 18.2754 225.227 19.3476L230.984 134.175C231.016 134.691 230.941 135.207 230.765 135.693C230.588 136.179 230.314 136.623 229.958 136.998C229.602 137.372 229.173 137.67 228.697 137.871C228.222 138.073 227.71 138.174 227.193 138.169Z" fill="#606060"/>
<path d="M229.537 138.169H38.3742C37.296 138.161 36.2608 137.745 35.4779 137.004C34.695 136.262 34.2229 135.251 34.157 134.175L28.437 19.3475C28.4048 18.8329 28.479 18.3172 28.6549 17.8326C28.8308 17.348 29.1046 16.9047 29.4592 16.5305C29.8139 16.1564 30.2418 15.8592 30.7164 15.6577C31.1909 15.4561 31.7019 15.3545 32.2174 15.359H223.38C224.458 15.3649 225.493 15.7802 226.276 16.5207C227.059 17.2613 227.531 18.2717 227.597 19.3475L233.317 134.175C233.349 134.69 233.275 135.206 233.099 135.691C232.923 136.175 232.65 136.619 232.295 136.994C231.94 137.368 231.513 137.666 231.038 137.868C230.563 138.07 230.052 138.172 229.537 138.169Z" fill="#606060"/>
<path d="M39.4956 130.155L34.1604 23.3719C34.1412 23.049 34.1885 22.7255 34.2995 22.4216C34.4105 22.1177 34.5827 21.8399 34.8056 21.6053C35.0284 21.3708 35.2971 21.1845 35.5949 21.0582C35.8927 20.9318 36.2133 20.868 36.5368 20.8707H219.639C220.313 20.8762 220.959 21.1378 221.447 21.6023C221.934 22.0668 222.227 22.6995 222.265 23.3719L227.6 130.155C227.62 130.478 227.574 130.801 227.463 131.105C227.353 131.409 227.181 131.687 226.959 131.921C226.736 132.156 226.468 132.342 226.171 132.469C225.873 132.595 225.553 132.659 225.229 132.656H42.1216C41.4485 132.649 40.803 132.387 40.3156 131.923C39.8282 131.459 39.5351 130.827 39.4956 130.155Z" fill="#191919"/>
</g>
</svg>
