<svg width="150" height="44" viewBox="0 0 150 44" fill="none" xmlns="http://www.w3.org/2000/svg">
<path d="M149.165 38.3356C149.165 40.6449 147.256 42.5155 144.894 42.5155H5.10906C2.74828 42.5155 0.832031 40.6449 0.832031 38.3356V5.00269C0.832031 2.6945 2.74828 0.817383 5.10906 0.817383H144.893C147.256 0.817383 149.164 2.6945 149.164 5.00269L149.165 38.3356Z" fill="white" fill-opacity="0.1"/>
<path d="M144.444 0.867699C147.017 0.867699 149.11 2.90843 149.11 5.41634V37.9163C149.11 40.4243 147.017 42.465 144.444 42.465H5.55555C2.98333 42.465 0.890277 40.4243 0.890277 37.9163V5.41634C0.890277 2.90843 2.98333 0.867699 5.55555 0.867699H144.444ZM144.444 -0.000320435H5.55555C2.50139 -0.000320435 0 2.43853 0 5.41634V37.9163C0 40.8942 2.50139 43.333 5.55555 43.333H144.444C147.499 43.333 150 40.8942 150 37.9163V5.41634C150 2.43853 147.499 -0.000320435 144.444 -0.000320435Z" fill="white"/>
<path d="M33.4733 21.4329C33.441 17.9413 36.4055 16.2427 36.541 16.1636C34.8622 13.777 32.2599 13.4509 31.3455 13.4249C29.1599 13.2007 27.0399 14.7 25.9266 14.7C24.791 14.7 23.0766 13.4466 21.2288 13.4834C18.851 13.5192 16.6266 14.8614 15.4066 16.9458C12.8888 21.1957 14.7666 27.4411 17.1788 30.8763C18.3855 32.5588 19.7955 34.4373 21.641 34.3712C23.4466 34.2986 24.121 33.2488 26.2999 33.2488C28.4588 33.2488 29.0922 34.3712 30.9744 34.3289C32.9122 34.2986 34.1322 32.6389 35.2966 30.9413C36.691 29.013 37.251 27.1139 37.2733 27.0164C37.2277 27.0013 33.5099 25.6178 33.4733 21.4329Z" fill="white"/>
<path d="M29.9177 11.1651C30.8888 9.98102 31.5533 8.3701 31.3688 6.73535C29.9633 6.79602 28.2055 7.68327 27.1933 8.84135C26.2977 9.86185 25.4977 11.5345 25.7044 13.1075C27.2833 13.2224 28.9044 12.3308 29.9177 11.1651Z" fill="white"/>
<path d="M48.7784 14L47.1648 8.18182H48.0881L49.2216 12.6875H49.2756L50.4545 8.18182H51.3693L52.5483 12.6903H52.6023L53.733 8.18182H54.6591L53.0426 14H52.1591L50.9347 9.64205H50.8892L49.6648 14H48.7784ZM55.3913 14V9.63636H56.2408V14H55.3913ZM55.8203 8.96307C55.6726 8.96307 55.5457 8.91383 55.4396 8.81534C55.3355 8.71496 55.2834 8.59564 55.2834 8.45739C55.2834 8.31723 55.3355 8.19792 55.4396 8.09943C55.5457 7.99905 55.6726 7.94886 55.8203 7.94886C55.968 7.94886 56.094 7.99905 56.1982 8.09943C56.3042 8.19792 56.3572 8.31723 56.3572 8.45739C56.3572 8.59564 56.3042 8.71496 56.1982 8.81534C56.094 8.91383 55.968 8.96307 55.8203 8.96307ZM58.233 8.18182V14H57.3835V8.18182H58.233ZM60.2251 8.18182V14H59.3757V8.18182H60.2251ZM63.5533 14V8.18182H64.4027V10.3438H64.4538C64.5031 10.2528 64.5741 10.1477 64.6669 10.0284C64.7597 9.90909 64.8885 9.80492 65.0533 9.71591C65.218 9.625 65.4358 9.57955 65.7067 9.57955C66.0589 9.57955 66.3733 9.66856 66.6499 9.84659C66.9264 10.0246 67.1432 10.2812 67.3004 10.6165C67.4595 10.9517 67.5391 11.3551 67.5391 11.8267C67.5391 12.2983 67.4605 12.7027 67.3033 13.0398C67.1461 13.375 66.9302 13.6335 66.6555 13.8153C66.3809 13.9953 66.0675 14.0852 65.7152 14.0852C65.45 14.0852 65.2332 14.0407 65.0646 13.9517C64.898 13.8627 64.7673 13.7585 64.6726 13.6392C64.5779 13.5199 64.505 13.4138 64.4538 13.321H64.3828V14H63.5533ZM64.3857 11.8182C64.3857 12.125 64.4302 12.3939 64.5192 12.625C64.6082 12.8561 64.737 13.0369 64.9055 13.1676C65.0741 13.2964 65.2805 13.3608 65.5249 13.3608C65.7786 13.3608 65.9908 13.2936 66.1612 13.1591C66.3317 13.0227 66.4605 12.8381 66.5476 12.6051C66.6366 12.3722 66.6811 12.1098 66.6811 11.8182C66.6811 11.5303 66.6375 11.2718 66.5504 11.0426C66.4652 10.8134 66.3364 10.6326 66.1641 10.5C65.9936 10.3674 65.7805 10.3011 65.5249 10.3011C65.2786 10.3011 65.0703 10.3646 64.8999 10.4915C64.7313 10.6184 64.6035 10.7955 64.5163 11.0227C64.4292 11.25 64.3857 11.5152 64.3857 11.8182ZM70.3736 14.0881C69.9437 14.0881 69.5734 13.9962 69.2628 13.8125C68.9541 13.6269 68.7154 13.3665 68.5469 13.0312C68.3802 12.6941 68.2969 12.2992 68.2969 11.8466C68.2969 11.3996 68.3802 11.0057 68.5469 10.6648C68.7154 10.3239 68.9503 10.0578 69.2514 9.86648C69.5545 9.67519 69.9086 9.57955 70.3139 9.57955C70.5601 9.57955 70.7988 9.62027 71.0298 9.7017C71.2609 9.78314 71.4683 9.91098 71.652 10.0852C71.8357 10.2595 71.9806 10.4858 72.0866 10.7642C72.1927 11.0407 72.2457 11.3769 72.2457 11.7727V12.0739H68.777V11.4375H71.4134C71.4134 11.214 71.3679 11.0161 71.277 10.8438C71.1861 10.6695 71.0582 10.5322 70.8935 10.4318C70.7306 10.3314 70.5393 10.2812 70.3196 10.2812C70.081 10.2812 69.8726 10.34 69.6946 10.4574C69.5185 10.5729 69.3821 10.7244 69.2855 10.9119C69.1908 11.0975 69.1435 11.2992 69.1435 11.517V12.0142C69.1435 12.3059 69.1946 12.554 69.2969 12.7585C69.401 12.9631 69.5459 13.1193 69.7315 13.2273C69.9171 13.3333 70.134 13.3864 70.3821 13.3864C70.5431 13.3864 70.6899 13.3636 70.8224 13.3182C70.955 13.2708 71.0696 13.2008 71.1662 13.108C71.2628 13.0152 71.3366 12.9006 71.3878 12.7642L72.1918 12.9091C72.1274 13.1458 72.0118 13.3532 71.8452 13.5312C71.6804 13.7074 71.473 13.8447 71.223 13.9432C70.9749 14.0398 70.6918 14.0881 70.3736 14.0881ZM76.5753 14.0966C76.2988 14.0966 76.0488 14.0455 75.8253 13.9432C75.6018 13.839 75.4247 13.6884 75.294 13.4915C75.1652 13.2945 75.1009 13.053 75.1009 12.767C75.1009 12.5208 75.1482 12.3182 75.2429 12.1591C75.3376 12 75.4654 11.8741 75.6264 11.7812C75.7874 11.6884 75.9673 11.6184 76.1662 11.571C76.3651 11.5237 76.5677 11.4877 76.7741 11.4631C77.0355 11.4328 77.2476 11.4081 77.4105 11.3892C77.5734 11.3684 77.6918 11.3352 77.7656 11.2898C77.8395 11.2443 77.8764 11.1705 77.8764 11.0682V11.0483C77.8764 10.8002 77.8063 10.608 77.6662 10.4716C77.5279 10.3352 77.3215 10.267 77.0469 10.267C76.7609 10.267 76.5355 10.3305 76.3707 10.4574C76.2079 10.5824 76.0952 10.7216 76.0327 10.875L75.2344 10.6932C75.3291 10.428 75.4673 10.214 75.6491 10.0511C75.8329 9.88636 76.044 9.76705 76.2827 9.69318C76.5213 9.61742 76.7723 9.57955 77.0355 9.57955C77.2098 9.57955 77.3944 9.60038 77.5895 9.64205C77.7865 9.68182 77.9702 9.75568 78.1406 9.86364C78.313 9.97159 78.4541 10.1259 78.5639 10.3267C78.6738 10.5256 78.7287 10.7841 78.7287 11.1023V14H77.8991V13.4034H77.8651C77.8101 13.5133 77.7277 13.6212 77.6179 13.7273C77.508 13.8333 77.367 13.9214 77.1946 13.9915C77.0223 14.0616 76.8158 14.0966 76.5753 14.0966ZM76.7599 13.4148C76.9948 13.4148 77.1955 13.3684 77.3622 13.2756C77.5308 13.1828 77.6586 13.0616 77.7457 12.9119C77.8348 12.7604 77.8793 12.5985 77.8793 12.4261V11.8636C77.849 11.8939 77.7902 11.9223 77.7031 11.9489C77.6179 11.9735 77.5204 11.9953 77.4105 12.0142C77.3007 12.0312 77.1937 12.0473 77.0895 12.0625C76.9853 12.0758 76.8982 12.0871 76.8281 12.0966C76.6634 12.1174 76.5128 12.1525 76.3764 12.2017C76.242 12.2509 76.134 12.322 76.0526 12.4148C75.973 12.5057 75.9332 12.6269 75.9332 12.7784C75.9332 12.9886 76.0109 13.1477 76.1662 13.2557C76.3215 13.3617 76.5194 13.4148 76.7599 13.4148ZM83.4368 9.63636L81.8544 14H80.9453L79.3601 9.63636H80.272L81.3771 12.9943H81.4226L82.5249 9.63636H83.4368ZM85.38 14.0966C85.1035 14.0966 84.8535 14.0455 84.63 13.9432C84.4065 13.839 84.2294 13.6884 84.0987 13.4915C83.9699 13.2945 83.9055 13.053 83.9055 12.767C83.9055 12.5208 83.9529 12.3182 84.0476 12.1591C84.1423 12 84.2701 11.8741 84.4311 11.7812C84.5921 11.6884 84.772 11.6184 84.9709 11.571C85.1697 11.5237 85.3724 11.4877 85.5788 11.4631C85.8402 11.4328 86.0523 11.4081 86.2152 11.3892C86.3781 11.3684 86.4964 11.3352 86.5703 11.2898C86.6442 11.2443 86.6811 11.1705 86.6811 11.0682V11.0483C86.6811 10.8002 86.611 10.608 86.4709 10.4716C86.3326 10.3352 86.1262 10.267 85.8516 10.267C85.5656 10.267 85.3402 10.3305 85.1754 10.4574C85.0125 10.5824 84.8999 10.7216 84.8374 10.875L84.0391 10.6932C84.1338 10.428 84.272 10.214 84.4538 10.0511C84.6375 9.88636 84.8487 9.76705 85.0874 9.69318C85.326 9.61742 85.5769 9.57955 85.8402 9.57955C86.0144 9.57955 86.1991 9.60038 86.3942 9.64205C86.5911 9.68182 86.7749 9.75568 86.9453 9.86364C87.1177 9.97159 87.2588 10.1259 87.3686 10.3267C87.4785 10.5256 87.5334 10.7841 87.5334 11.1023V14H86.7038V13.4034H86.6697C86.6148 13.5133 86.5324 13.6212 86.4226 13.7273C86.3127 13.8333 86.1716 13.9214 85.9993 13.9915C85.8269 14.0616 85.6205 14.0966 85.38 14.0966ZM85.5646 13.4148C85.7995 13.4148 86.0002 13.3684 86.1669 13.2756C86.3355 13.1828 86.4633 13.0616 86.5504 12.9119C86.6394 12.7604 86.6839 12.5985 86.6839 12.4261V11.8636C86.6536 11.8939 86.5949 11.9223 86.5078 11.9489C86.4226 11.9735 86.325 11.9953 86.2152 12.0142C86.1054 12.0312 85.9983 12.0473 85.8942 12.0625C85.79 12.0758 85.7029 12.0871 85.6328 12.0966C85.468 12.1174 85.3175 12.1525 85.1811 12.2017C85.0466 12.2509 84.9387 12.322 84.8572 12.4148C84.7777 12.5057 84.7379 12.6269 84.7379 12.7784C84.7379 12.9886 84.8156 13.1477 84.9709 13.2557C85.1262 13.3617 85.3241 13.4148 85.5646 13.4148ZM88.6648 14V9.63636H89.5142V14H88.6648ZM89.0938 8.96307C88.946 8.96307 88.8191 8.91383 88.7131 8.81534C88.6089 8.71496 88.5568 8.59564 88.5568 8.45739C88.5568 8.31723 88.6089 8.19792 88.7131 8.09943C88.8191 7.99905 88.946 7.94886 89.0938 7.94886C89.2415 7.94886 89.3674 7.99905 89.4716 8.09943C89.5777 8.19792 89.6307 8.31723 89.6307 8.45739C89.6307 8.59564 89.5777 8.71496 89.4716 8.81534C89.3674 8.91383 89.2415 8.96307 89.0938 8.96307ZM91.5064 8.18182V14H90.657V8.18182H91.5064ZM93.919 14.0966C93.6425 14.0966 93.3925 14.0455 93.169 13.9432C92.9455 13.839 92.7685 13.6884 92.6378 13.4915C92.509 13.2945 92.4446 13.053 92.4446 12.767C92.4446 12.5208 92.492 12.3182 92.5866 12.1591C92.6813 12 92.8092 11.8741 92.9702 11.7812C93.1312 11.6884 93.3111 11.6184 93.5099 11.571C93.7088 11.5237 93.9115 11.4877 94.1179 11.4631C94.3793 11.4328 94.5914 11.4081 94.7543 11.3892C94.9171 11.3684 95.0355 11.3352 95.1094 11.2898C95.1832 11.2443 95.2202 11.1705 95.2202 11.0682V11.0483C95.2202 10.8002 95.1501 10.608 95.0099 10.4716C94.8717 10.3352 94.6652 10.267 94.3906 10.267C94.1046 10.267 93.8793 10.3305 93.7145 10.4574C93.5516 10.5824 93.4389 10.7216 93.3764 10.875L92.5781 10.6932C92.6728 10.428 92.8111 10.214 92.9929 10.0511C93.1766 9.88636 93.3878 9.76705 93.6264 9.69318C93.8651 9.61742 94.116 9.57955 94.3793 9.57955C94.5535 9.57955 94.7382 9.60038 94.9332 9.64205C95.1302 9.68182 95.3139 9.75568 95.4844 9.86364C95.6567 9.97159 95.7978 10.1259 95.9077 10.3267C96.0175 10.5256 96.0724 10.7841 96.0724 11.1023V14H95.2429V13.4034H95.2088C95.1539 13.5133 95.0715 13.6212 94.9616 13.7273C94.8518 13.8333 94.7107 13.9214 94.5384 13.9915C94.366 14.0616 94.1596 14.0966 93.919 14.0966ZM94.1037 13.4148C94.3385 13.4148 94.5393 13.3684 94.706 13.2756C94.8745 13.1828 95.0024 13.0616 95.0895 12.9119C95.1785 12.7604 95.223 12.5985 95.223 12.4261V11.8636C95.1927 11.8939 95.134 11.9223 95.0469 11.9489C94.9616 11.9735 94.8641 11.9953 94.7543 12.0142C94.6444 12.0312 94.5374 12.0473 94.4332 12.0625C94.3291 12.0758 94.242 12.0871 94.1719 12.0966C94.0071 12.1174 93.8565 12.1525 93.7202 12.2017C93.5857 12.2509 93.4777 12.322 93.3963 12.4148C93.3168 12.5057 93.277 12.6269 93.277 12.7784C93.277 12.9886 93.3546 13.1477 93.5099 13.2557C93.6652 13.3617 93.8632 13.4148 94.1037 13.4148ZM97.272 14V8.18182H98.1214V10.3438H98.1726C98.2218 10.2528 98.2929 10.1477 98.3857 10.0284C98.4785 9.90909 98.6072 9.80492 98.772 9.71591C98.9368 9.625 99.1546 9.57955 99.4254 9.57955C99.7777 9.57955 100.092 9.66856 100.369 9.84659C100.645 10.0246 100.862 10.2812 101.019 10.6165C101.178 10.9517 101.258 11.3551 101.258 11.8267C101.258 12.2983 101.179 12.7027 101.022 13.0398C100.865 13.375 100.649 13.6335 100.374 13.8153C100.1 13.9953 99.7862 14.0852 99.4339 14.0852C99.1688 14.0852 98.9519 14.0407 98.7834 13.9517C98.6167 13.8627 98.486 13.7585 98.3913 13.6392C98.2966 13.5199 98.2237 13.4138 98.1726 13.321H98.1016V14H97.272ZM98.1044 11.8182C98.1044 12.125 98.1489 12.3939 98.2379 12.625C98.3269 12.8561 98.4557 13.0369 98.6243 13.1676C98.7929 13.2964 98.9993 13.3608 99.2436 13.3608C99.4974 13.3608 99.7095 13.2936 99.88 13.1591C100.05 13.0227 100.179 12.8381 100.266 12.6051C100.355 12.3722 100.4 12.1098 100.4 11.8182C100.4 11.5303 100.356 11.2718 100.269 11.0426C100.184 10.8134 100.055 10.6326 99.8828 10.5C99.7124 10.3674 99.4993 10.3011 99.2436 10.3011C98.9974 10.3011 98.7891 10.3646 98.6186 10.4915C98.45 10.6184 98.3222 10.7955 98.2351 11.0227C98.148 11.25 98.1044 11.5152 98.1044 11.8182ZM103.061 8.18182V14H102.212V8.18182H103.061ZM106.085 14.0881C105.655 14.0881 105.284 13.9962 104.974 13.8125C104.665 13.6269 104.426 13.3665 104.258 13.0312C104.091 12.6941 104.008 12.2992 104.008 11.8466C104.008 11.3996 104.091 11.0057 104.258 10.6648C104.426 10.3239 104.661 10.0578 104.962 9.86648C105.265 9.67519 105.62 9.57955 106.025 9.57955C106.271 9.57955 106.51 9.62027 106.741 9.7017C106.972 9.78314 107.179 9.91098 107.363 10.0852C107.547 10.2595 107.692 10.4858 107.798 10.7642C107.904 11.0407 107.957 11.3769 107.957 11.7727V12.0739H104.488V11.4375H107.124C107.124 11.214 107.079 11.0161 106.988 10.8438C106.897 10.6695 106.769 10.5322 106.604 10.4318C106.442 10.3314 106.25 10.2812 106.031 10.2812C105.792 10.2812 105.584 10.34 105.406 10.4574C105.229 10.5729 105.093 10.7244 104.996 10.9119C104.902 11.0975 104.854 11.2992 104.854 11.517V12.0142C104.854 12.3059 104.906 12.554 105.008 12.7585C105.112 12.9631 105.257 13.1193 105.442 13.2273C105.628 13.3333 105.845 13.3864 106.093 13.3864C106.254 13.3864 106.401 13.3636 106.533 13.3182C106.666 13.2708 106.781 13.2008 106.877 13.108C106.974 13.0152 107.048 12.9006 107.099 12.7642L107.903 12.9091C107.838 13.1458 107.723 13.3532 107.556 13.5312C107.391 13.7074 107.184 13.8447 106.934 13.9432C106.686 14.0398 106.403 14.0881 106.085 14.0881ZM116.138 11.0909C116.138 11.7121 116.025 12.2462 115.798 12.6932C115.57 13.1383 115.259 13.4811 114.863 13.7216C114.469 13.9602 114.021 14.0795 113.519 14.0795C113.015 14.0795 112.566 13.9602 112.17 13.7216C111.776 13.4811 111.465 13.1373 111.238 12.6903C111.011 12.2434 110.897 11.7102 110.897 11.0909C110.897 10.4697 111.011 9.93655 111.238 9.49148C111.465 9.04451 111.776 8.7017 112.17 8.46307C112.566 8.22254 113.015 8.10227 113.519 8.10227C114.021 8.10227 114.469 8.22254 114.863 8.46307C115.259 8.7017 115.57 9.04451 115.798 9.49148C116.025 9.93655 116.138 10.4697 116.138 11.0909ZM115.269 11.0909C115.269 10.6174 115.192 10.2187 115.039 9.89489C114.888 9.56913 114.679 9.32292 114.414 9.15625C114.151 8.98769 113.853 8.90341 113.519 8.90341C113.184 8.90341 112.885 8.98769 112.621 9.15625C112.358 9.32292 112.15 9.56913 111.996 9.89489C111.845 10.2187 111.769 10.6174 111.769 11.0909C111.769 11.5644 111.845 11.964 111.996 12.2898C112.15 12.6136 112.358 12.8598 112.621 13.0284C112.885 13.1951 113.184 13.2784 113.519 13.2784C113.853 13.2784 114.151 13.1951 114.414 13.0284C114.679 12.8598 114.888 12.6136 115.039 12.2898C115.192 11.964 115.269 11.5644 115.269 11.0909ZM118.014 11.4091V14H117.165V9.63636H117.98V10.3466H118.034C118.134 10.1155 118.292 9.92992 118.506 9.78977C118.722 9.64962 118.993 9.57955 119.321 9.57955C119.618 9.57955 119.879 9.64205 120.102 9.76705C120.326 9.89015 120.499 10.0739 120.622 10.3182C120.745 10.5625 120.807 10.8646 120.807 11.2244V14H119.957V11.3267C119.957 11.0104 119.875 10.7633 119.71 10.5852C119.545 10.4053 119.319 10.3153 119.031 10.3153C118.834 10.3153 118.659 10.358 118.506 10.4432C118.354 10.5284 118.234 10.6534 118.145 10.8182C118.058 10.9811 118.014 11.178 118.014 11.4091Z" fill="white"/>
<path d="M59.6083 34.1289H57.085L55.7028 29.8942H50.8983L49.5817 34.1289H47.125L51.885 19.7119H54.825L59.6083 34.1289ZM55.2861 28.1175L54.0361 24.3529C53.9039 23.9683 53.6561 23.0627 53.2906 21.637H53.2461C53.1006 22.2502 52.8661 23.1558 52.5439 24.3529L51.3161 28.1175H55.2861Z" fill="white"/>
<path d="M71.8498 28.8039C71.8498 30.5719 71.3598 31.9694 70.3798 32.9953C69.502 33.9086 68.412 34.3647 67.1109 34.3647C65.7065 34.3647 64.6976 33.8728 64.0831 32.8892H64.0387V38.3654H61.6698V27.1562C61.6698 26.0447 61.6398 24.9039 61.582 23.7339H63.6654L63.7976 25.3817H63.842C64.632 24.1402 65.8309 23.5205 67.4398 23.5205C68.6976 23.5205 69.7476 24.0048 70.5876 24.9743C71.4298 25.945 71.8498 27.2212 71.8498 28.8039ZM69.4365 28.8884C69.4365 27.8766 69.2031 27.0424 68.7343 26.3859C68.222 25.7013 67.5342 25.3589 66.672 25.3589C66.0876 25.3589 65.5565 25.5496 65.082 25.9255C64.6065 26.3047 64.2954 26.7998 64.1498 27.4129C64.0765 27.6989 64.0398 27.9329 64.0398 28.1171V29.8504C64.0398 30.6066 64.2776 31.2447 64.7531 31.7658C65.2287 32.2868 65.8465 32.5468 66.6065 32.5468C67.4987 32.5468 68.1931 32.211 68.6898 31.5415C69.1876 30.8709 69.4365 29.9869 69.4365 28.8884Z" fill="white"/>
<path d="M84.1143 28.8039C84.1143 30.5719 83.6243 31.9694 82.6432 32.9953C81.7665 33.9086 80.6765 34.3647 79.3754 34.3647C77.971 34.3647 76.9621 33.8728 76.3488 32.8892H76.3043V38.3654H73.9354V27.1562C73.9354 26.0447 73.9054 24.9039 73.8477 23.7339H75.931L76.0632 25.3817H76.1077C76.8965 24.1402 78.0954 23.5205 79.7054 23.5205C80.9621 23.5205 82.0121 24.0048 82.8543 24.9743C83.6932 25.945 84.1143 27.2212 84.1143 28.8039ZM81.701 28.8884C81.701 27.8766 81.4665 27.0424 80.9977 26.3859C80.4854 25.7013 79.7999 25.3589 78.9365 25.3589C78.351 25.3589 77.821 25.5496 77.3454 25.9255C76.8699 26.3047 76.5599 26.7998 76.4143 27.4129C76.3421 27.6989 76.3043 27.9329 76.3043 28.1171V29.8504C76.3043 30.6066 76.5421 31.2447 77.0154 31.7658C77.491 32.2858 78.1088 32.5468 78.871 32.5468C79.7632 32.5468 80.4577 32.211 80.9543 31.5415C81.4521 30.8709 81.701 29.9869 81.701 28.8884Z" fill="white"/>
<path d="M97.8257 30.0862C97.8257 31.3126 97.389 32.3103 96.5123 33.0806C95.549 33.9223 94.2079 34.3426 92.4846 34.3426C90.8935 34.3426 89.6179 34.0436 88.6523 33.4446L89.2012 31.5195C90.2412 32.1326 91.3823 32.4403 92.6257 32.4403C93.5179 32.4403 94.2123 32.2431 94.7112 31.851C95.2079 31.4588 95.4557 30.9323 95.4557 30.2758C95.4557 29.6908 95.2512 29.1979 94.8412 28.7981C94.4335 28.3984 93.7523 28.0268 92.8012 27.6834C90.2123 26.742 88.919 25.3629 88.919 23.5494C88.919 22.3642 89.3723 21.3925 90.2801 20.6363C91.1846 19.8791 92.3912 19.501 93.9001 19.501C95.2457 19.501 96.3635 19.7296 97.2557 20.1856L96.6635 22.0685C95.8301 21.6265 94.8879 21.4055 93.8335 21.4055C93.0001 21.4055 92.349 21.6059 91.8823 22.0046C91.4879 22.361 91.2901 22.7954 91.2901 23.31C91.2901 23.8798 91.5157 24.3511 91.969 24.7216C92.3635 25.0639 93.0801 25.4344 94.1201 25.8341C95.3923 26.3336 96.3268 26.9175 96.9279 27.587C97.5268 28.2543 97.8257 29.0896 97.8257 30.0862Z" fill="white"/>
<path d="M105.657 25.4671H103.046V30.5144C103.046 31.7981 103.506 32.4395 104.429 32.4395C104.852 32.4395 105.203 32.4037 105.481 32.3322L105.546 34.0861C105.08 34.2562 104.465 34.3418 103.704 34.3418C102.769 34.3418 102.037 34.0634 101.51 33.5076C100.984 32.9508 100.72 32.017 100.72 30.7051V25.465H99.1641V23.7316H100.72V21.8282L103.046 21.1436V23.7316H105.657V25.4671Z" fill="white"/>
<path d="M117.436 28.8461C117.436 30.444 116.967 31.7559 116.031 32.7818C115.05 33.8381 113.748 34.3646 112.124 34.3646C110.56 34.3646 109.314 33.8587 108.386 32.8468C107.457 31.835 106.992 30.5577 106.992 29.0183C106.992 27.4074 107.47 26.0879 108.429 25.062C109.386 24.035 110.677 23.5215 112.3 23.5215C113.864 23.5215 115.123 24.0274 116.073 25.0403C116.982 26.0229 117.436 27.2915 117.436 28.8461ZM114.978 28.9208C114.978 27.9621 114.768 27.1398 114.342 26.4541C113.846 25.6242 113.136 25.2104 112.216 25.2104C111.263 25.2104 110.54 25.6253 110.043 26.4541C109.618 27.1409 109.408 27.9762 109.408 28.9642C109.408 29.9229 109.618 30.7451 110.043 31.4298C110.556 32.2596 111.271 32.6735 112.194 32.6735C113.099 32.6735 113.809 32.251 114.321 31.4082C114.758 30.7094 114.978 29.8785 114.978 28.9208Z" fill="white"/>
<path d="M125.138 25.7652C124.904 25.7229 124.654 25.7013 124.391 25.7013C123.558 25.7013 122.914 26.0078 122.46 26.6221C122.066 27.1638 121.868 27.8484 121.868 28.675V34.1296H119.5L119.522 27.0078C119.522 25.8096 119.492 24.7187 119.434 23.735H121.497L121.584 25.724H121.649C121.899 25.0404 122.294 24.4901 122.834 24.0773C123.361 23.7058 123.931 23.5205 124.546 23.5205C124.765 23.5205 124.963 23.5357 125.138 23.5628V25.7652Z" fill="white"/>
<path d="M135.733 28.4399C135.733 28.8537 135.706 29.2026 135.647 29.4875H128.54C128.568 30.5145 128.911 31.2999 129.571 31.8416C130.17 32.3258 130.944 32.5685 131.896 32.5685C132.948 32.5685 133.908 32.4049 134.771 32.0766L135.142 33.68C134.133 34.109 132.942 34.3224 131.568 34.3224C129.914 34.3224 128.617 33.8479 127.672 32.9C126.73 31.9521 126.258 30.6791 126.258 29.0823C126.258 27.5147 126.697 26.2093 127.576 25.1682C128.496 24.0567 129.739 23.501 131.303 23.501C132.84 23.501 134.003 24.0567 134.793 25.1682C135.419 26.0511 135.733 27.1431 135.733 28.4399ZM133.474 27.8408C133.49 27.1561 133.336 26.5646 133.014 26.0652C132.604 25.4228 131.974 25.1021 131.127 25.1021C130.352 25.1021 129.722 25.4152 129.241 26.0436C128.847 26.543 128.612 27.1421 128.54 27.8397H133.474V27.8408Z" fill="white"/>
</svg>
