<svg width="80" height="81" viewBox="0 0 80 81" fill="none" xmlns="http://www.w3.org/2000/svg">
<path d="M40 18.9277H73.3333" stroke="white" stroke-width="2.66667" stroke-miterlimit="10" stroke-linecap="round" stroke-linejoin="round"/>
<path d="M47.4 7.06104H65.9333C71.8667 7.06104 73.3333 8.5277 73.3333 14.3944V28.0944C73.3333 33.961 71.8667 35.4277 65.9333 35.4277H47.4C41.4667 35.4277 40 33.961 40 28.0944V14.3944C40 8.5277 41.4667 7.06104 47.4 7.06104Z" stroke="white" stroke-width="2.66667" stroke-linecap="round" stroke-linejoin="round"/>
<path d="M6.66797 57.2612H40.0013" stroke="white" stroke-width="2.66667" stroke-miterlimit="10" stroke-linecap="round" stroke-linejoin="round"/>
<path d="M14.068 45.3945H32.6013C38.5346 45.3945 40.0013 46.8612 40.0013 52.7279V66.4279C40.0013 72.2945 38.5346 73.7612 32.6013 73.7612H14.068C8.13464 73.7612 6.66797 72.2945 6.66797 66.4279V52.7279C6.66797 46.8612 8.13464 45.3945 14.068 45.3945Z" stroke="white" stroke-width="2.66667" stroke-linecap="round" stroke-linejoin="round"/>
<path opacity="0.4" d="M73.3333 50.3945C73.3333 63.2945 62.9 73.7279 50 73.7279L53.5 67.8945" stroke="white" stroke-width="2.66667" stroke-linecap="round" stroke-linejoin="round"/>
<path opacity="0.4" d="M6.66797 30.3944C6.66797 17.4944 17.1013 7.06104 30.0013 7.06104L26.5013 12.8944" stroke="white" stroke-width="2.66667" stroke-linecap="round" stroke-linejoin="round"/>
</svg>
