<svg width="120" height="121" viewBox="0 0 120 121" fill="none" xmlns="http://www.w3.org/2000/svg">
<path d="M116.808 70.623C116.743 70.6011 116.724 70.6154 116.704 70.649C116.222 71.4666 115.466 71.9107 114.572 72.0857C112.99 72.3994 111.516 72.0958 110.214 71.1268C109.141 70.3277 108.538 69.225 108.363 67.9112C108.169 66.5824 108.378 65.2259 108.962 64.0168C109.814 62.2504 111.227 61.1864 113.133 60.7743C113.905 60.5967 114.702 60.5568 115.488 60.6565C117.448 60.9248 118.782 61.9846 119.507 63.8141C119.76 64.433 119.891 65.095 119.893 65.7638C119.879 67.7329 119.963 69.6994 119.998 71.6676C120.014 72.4445 119.882 73.2174 119.607 73.9445C118.977 75.6133 117.815 76.7505 116.125 77.3141C114.764 77.7733 113.296 77.8114 111.913 77.4234C111.402 77.2894 110.92 77.064 110.489 76.7581C109.761 76.2349 109.352 75.5494 109.395 74.6267C109.411 74.302 109.395 73.9757 109.4 73.6501C109.4 73.5862 109.414 73.5189 109.48 73.4979C109.511 73.4913 109.543 73.4935 109.573 73.5044C109.602 73.5152 109.628 73.5343 109.648 73.5593C109.942 73.8363 110.279 74.0635 110.646 74.2322C111.153 74.4672 111.688 74.6322 112.239 74.7226C112.801 74.8168 113.371 74.8484 113.94 74.8168C114.406 74.8017 114.865 74.7067 115.298 74.5358C116.126 74.1994 116.621 73.5829 116.794 72.7157C116.887 72.2734 116.909 71.8191 116.86 71.3699C116.833 71.1201 116.825 70.8635 116.808 70.623ZM116.749 66.4174C116.749 65.6553 116.664 65.1809 116.455 64.7166C116.041 63.7855 115.248 63.3557 114.256 63.4061C113.265 63.4566 112.49 63.9495 112.005 64.8268C111.739 65.2921 111.579 65.8109 111.538 66.3456C111.497 66.8803 111.576 67.4174 111.768 67.9179C112.169 69.0114 113.198 69.7751 114.676 69.4673C115.601 69.2738 116.19 68.6716 116.521 67.8044C116.682 67.3611 116.759 66.8915 116.749 66.4199V66.4174Z" fill="#FFFEFE"/>
<path d="M48.3943 61.5803C48.2782 61.5702 48.2261 61.4835 48.1613 61.4221C47.3084 60.6348 46.2848 60.2446 45.1476 60.1049C44.4701 60.0218 43.785 60.0232 43.1079 60.1091C42.644 60.1531 42.1915 60.2786 41.7714 60.4801C41.0825 60.8333 40.7477 61.3935 40.7704 62.1724C40.7727 62.3512 40.8137 62.5274 40.8905 62.6888C40.9673 62.8503 41.0781 62.9932 41.2154 63.1077C41.4292 63.2877 41.6691 63.434 41.927 63.5418C42.5121 63.789 43.1185 63.9824 43.7387 64.1196C44.2653 64.2458 44.7969 64.3551 45.3192 64.499C46.0255 64.686 46.6921 64.9994 47.2866 65.4242C48.1411 66.0449 48.7165 66.8633 48.8426 67.9164C49.1261 70.2463 48.1983 72.4829 45.6354 73.4199C44.4814 73.8404 43.2803 73.9414 42.0624 73.8455C41.4586 73.8115 40.8612 73.7042 40.2834 73.5259C39.8841 73.4016 39.5042 73.2221 39.1546 72.9926C38.353 72.4475 37.9359 71.6914 37.9157 70.7216C37.9064 70.2875 37.9157 69.8535 37.9157 69.4195C37.9157 69.3228 37.9947 69.2816 38.0696 69.3354C38.1688 69.4094 38.2622 69.4918 38.3598 69.5675C39.8418 70.7182 41.5165 71.1657 43.3754 70.9487C43.7773 70.912 44.1719 70.8177 44.547 70.6686C44.9609 70.4936 45.299 70.2312 45.4882 69.814C45.7162 69.3093 45.7212 68.7904 45.5951 68.2672C45.5311 68.0031 45.3427 67.8088 45.1291 67.6464C44.8894 67.4745 44.6266 67.3371 44.3485 67.2385C43.6359 66.9803 42.9049 66.7762 42.1616 66.6278C41.5996 66.5158 41.0466 66.3623 40.5072 66.1686C39.9077 65.9542 39.3493 65.639 38.856 65.2366C37.8904 64.4241 37.4817 63.371 37.5809 62.1421C37.7609 59.9796 38.9629 58.5531 40.9092 57.7077C41.5948 57.4136 42.3294 57.2507 43.0751 57.2275C43.9751 57.193 44.8726 57.209 45.7549 57.4235C46.2395 57.5319 46.7045 57.7143 47.1335 57.9643C47.581 58.2188 47.9468 58.5955 48.1882 59.0502C48.3258 59.2946 48.4065 59.5668 48.4246 59.8467C48.4389 60.3884 48.4431 60.9309 48.4473 61.4734C48.4473 61.5071 48.4162 61.5458 48.3943 61.5803Z" fill="#FFFEFE"/>
<path d="M64.4653 68.5963C63.8925 68.5963 63.3189 68.5963 62.7452 68.5963C62.5703 68.5963 62.524 68.6569 62.561 68.826C62.6524 69.2521 62.8471 69.6493 63.1279 69.9825C63.6376 70.589 64.3004 70.9305 65.0625 71.1012C65.6917 71.2425 66.3242 71.2181 66.9601 71.1651C67.4393 71.1266 67.9125 71.0334 68.3706 70.8876C68.9198 70.7178 69.4305 70.442 69.8737 70.0759C69.9696 69.9918 70.0646 70.0372 70.0646 70.1558C70.0646 70.6049 70.0915 71.0533 70.0175 71.5016C69.9713 71.8168 69.8598 72.1189 69.6902 72.3885C69.5206 72.6582 69.2966 72.8895 69.0326 73.0677C68.5821 73.3736 68.0718 73.5803 67.5354 73.6742C66.5891 73.8592 65.637 73.9375 64.6705 73.8105C62.36 73.5085 60.1689 71.8414 59.4834 69.2861C59.2708 68.4916 59.1979 67.6662 59.268 66.8468C59.3152 66.1198 59.454 65.4017 59.681 64.7095C60.1411 63.3789 60.9192 62.2879 62.1203 61.5259C62.9202 61.0212 63.7983 60.7512 64.7378 60.6452C65.7104 60.5213 66.6985 60.6623 67.5976 61.0532C69.0999 61.716 70.0621 62.8439 70.4162 64.4589C70.5493 65.0185 70.5685 65.5992 70.4726 66.1664C70.3489 66.8393 70.0175 67.3759 69.4397 67.7527C69.0174 68.0145 68.5525 68.2004 68.0661 68.302C67.3248 68.4682 66.5689 68.5606 65.8094 68.5778C65.3603 68.5913 64.9111 68.5778 64.4636 68.5778L64.4653 68.5963ZM64.0885 66.3607C64.716 66.3539 65.3964 66.3607 66.0727 66.2639C66.3952 66.2267 66.7113 66.1461 67.0122 66.0242C67.1802 65.9597 67.3239 65.8446 67.4235 65.6948C67.5231 65.545 67.5737 65.3679 67.5682 65.1881C67.5783 64.469 67.2923 63.8356 66.5588 63.5059C65.9034 63.211 65.1662 63.1516 64.472 63.3377C63.6351 63.5547 63.0876 64.1182 62.7477 64.8971C62.5837 65.2714 62.5366 65.6709 62.5013 66.0747C62.4794 66.3178 62.5055 66.3531 62.7376 66.3556C63.17 66.364 63.6032 66.3607 64.0885 66.3607Z" fill="#FFFEFE"/>
<path d="M106.347 69.4163C106.347 70.5939 106.347 71.7714 106.347 72.949C106.347 73.0424 106.347 73.1357 106.347 73.2283C106.339 73.579 106.333 73.5866 105.976 73.5899C105.604 73.5899 105.231 73.6034 104.865 73.5168C104.065 73.3275 103.5 72.8775 103.261 72.0692C103.19 71.8278 103.199 71.578 103.199 71.3298C103.199 69.7637 103.199 68.1978 103.199 66.6322C103.205 66.151 103.152 65.6709 103.043 65.2023C102.981 64.9458 102.883 64.6995 102.752 64.4705C102.522 64.0597 102.152 63.7457 101.709 63.5865C101.169 63.3794 100.578 63.345 100.017 63.4881C99.5304 63.6086 99.1075 63.9092 98.8336 64.3292C98.5925 64.692 98.4385 65.1057 98.3836 65.5379C98.337 65.8757 98.3133 66.2163 98.313 66.5573C98.3169 68.7285 98.3169 70.8992 98.313 73.0693C98.313 73.6379 98.35 73.5899 97.7797 73.5899C97.47 73.6017 97.16 73.5814 96.8545 73.5294C95.8965 73.3342 95.2942 72.6883 95.1916 71.7243C95.1749 71.5547 95.1671 71.3843 95.1681 71.2138C95.1681 69.554 95.1681 67.895 95.1681 66.2369C95.1681 65.564 95.2311 64.9045 95.4414 64.2644C95.9865 62.6066 97.074 61.4728 98.7403 60.9319C99.9927 60.5257 101.264 60.4676 102.54 60.8343C104.545 61.4122 105.737 62.7563 106.196 64.7733C106.303 65.2912 106.353 65.8192 106.346 66.3479C106.351 67.369 106.347 68.3927 106.347 69.4163Z" fill="#FFFEFE"/>
<path d="M51.0169 65.2213C51.0169 63.9336 51.0169 62.6466 51.0169 61.3597C51.0114 61.1118 51.0249 60.8638 51.0573 60.6179C51.2179 59.5841 51.8286 58.8465 52.6554 58.2678C53.0608 57.9852 53.5318 57.991 54.0012 58.0289C54.0406 58.0313 54.0775 58.0492 54.1038 58.0786C54.1301 58.1081 54.1437 58.1467 54.1417 58.1862C54.1475 58.2947 54.1475 58.4032 54.1475 58.5117C54.1475 59.1316 54.1475 59.7524 54.1475 60.3723C54.1475 60.4808 54.1475 60.5893 54.1475 60.6978C54.1445 60.721 54.1466 60.7447 54.1539 60.767C54.1611 60.7894 54.1732 60.8098 54.1893 60.8269C54.2054 60.844 54.2251 60.8572 54.247 60.8657C54.2689 60.8743 54.2924 60.8778 54.3158 60.8761C54.4402 60.8761 54.5639 60.8811 54.6875 60.8811H57.9443C58.0377 60.8811 58.1302 60.8811 58.2236 60.8811C58.5256 60.8879 58.5323 60.8929 58.5373 61.1999C58.5373 61.464 58.5373 61.7273 58.5373 61.9906C58.5314 62.8872 57.9889 63.5189 57.1007 63.6476C56.8701 63.6775 56.6377 63.6918 56.4051 63.6905C55.8315 63.6964 55.2578 63.6905 54.6842 63.6905C54.5757 63.6905 54.4672 63.6905 54.3587 63.6905C54.2081 63.6989 54.1593 63.7435 54.1501 63.8806C54.1433 63.9731 54.145 64.0665 54.145 64.1598C54.145 65.6323 54.145 67.1054 54.145 68.5791C54.133 68.9358 54.1707 69.2925 54.2569 69.6389C54.4739 70.3959 54.939 70.8165 55.7515 70.8905C56.6204 70.9645 57.4876 70.9191 58.301 70.5355C58.4734 70.4514 58.5323 70.4909 58.5348 70.6718C58.5348 71.0082 58.5474 71.3548 58.5348 71.6946C58.4953 72.5138 58.1008 73.0976 57.3471 73.4349C57.0643 73.5634 56.7622 73.6447 56.453 73.6754C55.5833 73.7595 54.7178 73.7259 53.8742 73.4685C52.4661 73.0404 51.5821 72.1034 51.207 70.6852C51.0739 70.1745 51.0083 69.6485 51.0119 69.1208C51.0119 67.8187 51.0119 66.5164 51.0119 65.2138L51.0169 65.2213Z" fill="#FFFEFE"/>
<path d="M80.9766 63.6001C80.9766 61.43 80.9766 59.2605 80.9766 57.0915C80.9766 56.6457 80.9623 56.6634 81.4106 56.6651C81.6436 56.6651 81.8758 56.6651 82.1079 56.6701C82.3718 56.6771 82.6326 56.7288 82.8792 56.8232C83.5143 57.052 83.8944 57.507 84.0568 58.1555C84.1167 58.428 84.1433 58.7068 84.1359 58.9857C84.1359 62.3636 84.1359 65.7416 84.1359 69.1195C84.1359 69.3365 84.1359 69.5544 84.1502 69.7697C84.2031 70.4224 84.543 70.8304 85.1687 70.9978C85.4384 71.0702 85.7164 71.1064 85.9956 71.1054C86.3059 71.1054 86.6155 71.1054 86.9258 71.1105C87.0293 71.1105 87.11 71.1508 87.1134 71.2669C87.1252 71.6875 87.1428 72.108 87.0293 72.5134C86.9729 72.7483 86.8579 72.9651 86.6951 73.1435C86.5323 73.3219 86.3269 73.4562 86.0982 73.5337C85.8817 73.6142 85.6554 73.6654 85.4253 73.686C84.729 73.7498 84.027 73.6769 83.3587 73.4715C82.0844 73.0677 81.3593 72.1795 81.0876 70.8909C81.0115 70.495 80.9771 70.0921 80.985 69.689C80.98 67.6596 80.9772 65.63 80.9766 63.6001Z" fill="#FFFEFE"/>
<path d="M75.5486 69.5448C75.5486 70.7555 75.5486 71.9653 75.5486 73.1742C75.5486 73.5948 75.5436 73.5948 75.144 73.5948C74.7445 73.5948 74.3374 73.6032 73.9404 73.5107C73.2263 73.3509 72.6922 72.9757 72.4651 72.249C72.3925 72.0113 72.3565 71.764 72.3583 71.5156C72.3583 69.5616 72.349 67.6077 72.3642 65.6538C72.3572 64.8287 72.5294 64.012 72.8688 63.26C73.5072 61.8889 74.5813 61.0983 76.0651 60.8518C76.6769 60.7383 77.3046 60.7409 77.9155 60.8594C78.2052 60.9155 78.4827 61.022 78.7356 61.174C79.0198 61.3373 79.2563 61.5722 79.4217 61.8552C79.5871 62.1382 79.6756 62.4595 79.6785 62.7872C79.6903 63.0968 79.6844 63.4071 79.6785 63.7175C79.6785 63.9429 79.618 63.9783 79.3883 63.9059C79.2849 63.874 79.1839 63.8328 79.0805 63.8C78.4872 63.6117 77.8597 63.5566 77.2426 63.6385C76.5344 63.7327 76.0457 64.1145 75.7833 64.7782C75.665 65.0657 75.5962 65.3711 75.5797 65.6815C75.5646 66.0373 75.552 66.394 75.5511 66.7506C75.5461 67.6817 75.5486 68.612 75.5486 69.5448Z" fill="#FFFEFE"/>
<path d="M88.3332 65.8622C88.3332 64.4345 88.3332 63.0077 88.3332 61.5817C88.3332 61.1687 88.3332 61.1679 88.7344 61.1611C89.1064 61.1454 89.4789 61.1677 89.8464 61.2276C90.6791 61.3958 91.1922 61.8887 91.3932 62.7071C91.4627 63.0105 91.4952 63.3212 91.4899 63.6323C91.486 65.4935 91.486 67.3546 91.4899 69.2157C91.4899 69.4167 91.4849 69.6194 91.5042 69.8196C91.5639 70.4294 91.8356 70.8904 92.575 71.0409C92.9112 71.0963 93.2521 71.1183 93.5927 71.1065C94.0074 71.1065 94.0057 71.1023 94.0032 71.5153C94.0153 71.8563 93.9902 72.1976 93.9283 72.5331C93.7954 73.1219 93.4514 73.4894 92.8584 73.6265C92.6625 73.6724 92.4624 73.6983 92.2612 73.7039C91.7647 73.72 91.2685 73.6633 90.7884 73.5357C89.6109 73.2127 88.8673 72.449 88.5292 71.2865C88.3931 70.8085 88.3268 70.3133 88.3324 69.8163C88.3324 68.4982 88.3324 67.1802 88.3324 65.863L88.3332 65.8622Z" fill="#FFFEFE"/>
<path d="M88.055 58.1351C88.0561 57.6504 88.249 57.1858 88.5917 56.843C88.9344 56.5002 89.3988 56.307 89.8835 56.3057C90.903 56.3057 91.7777 57.1645 91.7458 58.1637C91.7392 58.6501 91.5425 59.1146 91.1977 59.4578C90.853 59.8009 90.3876 59.9955 89.9012 59.9999C89.6567 60.0016 89.4143 59.9544 89.1883 59.861C88.9624 59.7677 88.7573 59.6301 88.5853 59.4564C88.4133 59.2826 88.2777 59.0762 88.1867 58.8493C88.0956 58.6224 88.0508 58.3796 88.055 58.1351Z" fill="#FFFEFE"/>
<path d="M33.6445 60.5265C33.6849 69.601 26.32 77.3319 16.8374 77.3441C7.58613 77.3549 -0.00720327 69.8973 5.12801e-06 60.5092C0.00721353 50.9987 7.75192 43.67 16.8532 43.6895C26.1715 43.709 33.6899 51.3158 33.6445 60.5265ZM17.4869 53.8827C17.4573 56.5973 19.733 58.7973 22.4001 58.7966C24.9497 58.7966 27.309 56.7379 27.3148 53.8755C27.3206 50.9864 24.9605 48.9421 22.4246 48.9371C19.8036 48.9321 17.4559 51.1162 17.4869 53.8827Z" fill="#DB353A"/>
<path d="M17.4847 53.8821C17.4537 51.1156 19.8015 48.9315 22.4224 48.9365C24.9583 48.9416 27.3184 50.9858 27.3126 53.8749C27.3068 56.7373 24.9475 58.796 22.3979 58.796C19.7308 58.796 17.4551 56.5967 17.4847 53.8821Z" fill="#FFFEFE"/>
</svg>
