<svg width="120" height="121" viewBox="0 0 120 121" fill="none" xmlns="http://www.w3.org/2000/svg">
<path d="M26.668 60.4149C26.668 42.0149 41.468 27.0815 60.0013 27.0815C82.2346 27.0815 93.3346 45.6149 93.3346 45.6149M93.3346 45.6149V28.9482M93.3346 45.6149H78.5346" stroke="white" stroke-width="2.66667" stroke-linecap="round" stroke-linejoin="round"/>
<path d="M92.9667 60.415C92.9667 78.815 78.0333 93.7484 59.6333 93.7484C41.2333 93.7484 30 75.215 30 75.215M30 75.215H45.0667M30 75.215V91.8817" stroke="white" stroke-width="2.66667" stroke-linecap="round" stroke-linejoin="round"/>
<path opacity="0.4" d="M60.2994 58.3854C60.1199 58.3674 59.9045 58.3674 59.7071 58.3854C55.4353 58.2418 52.043 54.7418 52.043 50.4341C52.043 46.0366 55.5968 42.4648 60.0122 42.4648C64.4096 42.4648 67.9814 46.0366 67.9814 50.4341C67.9635 54.7418 64.5712 58.2418 60.2994 58.3854Z" stroke="white" stroke-width="2.69231" stroke-linecap="round" stroke-linejoin="round"/>
<path d="M51.3046 65.0123C46.961 67.92 46.961 72.6584 51.3046 75.5482C56.2405 78.8507 64.3353 78.8507 69.2712 75.5482C73.6148 72.6405 73.6148 67.902 69.2712 65.0123C64.3533 61.7277 56.2584 61.7277 51.3046 65.0123Z" stroke="white" stroke-width="2.69231" stroke-linecap="round" stroke-linejoin="round"/>
</svg>
