<svg width="150" height="44" viewBox="0 0 150 44" fill="none" xmlns="http://www.w3.org/2000/svg">
<path d="M144.444 43.333H5.55556C2.50139 43.333 0 40.8942 0 37.9163V5.41634C0 2.43853 2.50139 -0.000322342 5.55556 -0.000322342H144.444C147.499 -0.000322342 150 2.43853 150 5.41634V37.9163C150 40.8942 147.499 43.333 144.444 43.333Z" fill="white" fill-opacity="0.1"/>
<path d="M144.444 0.867698C147.017 0.867698 149.11 2.90843 149.11 5.41634V37.9163C149.11 40.4243 147.017 42.465 144.444 42.465H5.55556C2.98333 42.465 0.890278 40.4243 0.890278 37.9163V5.41634C0.890278 2.90843 2.98333 0.867698 5.55556 0.867698H144.444ZM144.444 -0.000322342H5.55556C2.50139 -0.000322342 0 2.43853 0 5.41634V37.9163C0 40.8942 2.50139 43.333 5.55556 43.333H144.444C147.499 43.333 150 40.8942 150 37.9163V5.41634C150 2.43853 147.499 -0.000322342 144.444 -0.000322342Z" fill="white"/>
<path d="M10.7653 8.1672C10.4389 8.50032 10.25 9.01897 10.25 9.69063V33.6486C10.25 34.3202 10.4389 34.8389 10.7653 35.172L10.8458 35.2451L24.6153 21.8253V21.5084L10.8458 8.08866L10.7653 8.1672Z" fill="white"/>
<path d="M30.866 26.3008L26.2812 21.8253V21.5084L30.8715 17.0329L30.9743 17.0911L36.4104 20.1068C37.9618 20.9627 37.9618 22.371 36.4104 23.2322L30.9743 26.2426L30.866 26.3008Z" fill="white"/>
<path d="M30.1407 27.0758L25.4477 22.5001L11.5977 36.0052C12.1129 36.5333 12.9532 36.597 13.9088 36.0689L30.1407 27.0758Z" fill="white"/>
<path d="M30.1407 16.2573L13.9088 7.26426C12.9532 6.74155 12.1129 6.8052 11.5977 7.33332L25.4477 20.833L30.1407 16.2573Z" fill="white"/>
<path d="M47.7784 14L46.1648 8.18182H47.0881L48.2216 12.6875H48.2756L49.4545 8.18182H50.3693L51.5483 12.6903H51.6023L52.733 8.18182H53.6591L52.0426 14H51.1591L49.9347 9.64205H49.8892L48.6648 14H47.7784ZM54.3913 14V9.63636H55.2408V14H54.3913ZM54.8203 8.96307C54.6726 8.96307 54.5457 8.91383 54.4396 8.81534C54.3355 8.71496 54.2834 8.59564 54.2834 8.45739C54.2834 8.31723 54.3355 8.19792 54.4396 8.09943C54.5457 7.99905 54.6726 7.94886 54.8203 7.94886C54.968 7.94886 55.094 7.99905 55.1982 8.09943C55.3042 8.19792 55.3572 8.31723 55.3572 8.45739C55.3572 8.59564 55.3042 8.71496 55.1982 8.81534C55.094 8.91383 54.968 8.96307 54.8203 8.96307ZM57.233 8.18182V14H56.3835V8.18182H57.233ZM59.2251 8.18182V14H58.3757V8.18182H59.2251ZM62.5533 14V8.18182H63.4027V10.3438H63.4538C63.5031 10.2528 63.5741 10.1477 63.6669 10.0284C63.7597 9.90909 63.8885 9.80492 64.0533 9.71591C64.218 9.625 64.4358 9.57955 64.7067 9.57955C65.0589 9.57955 65.3733 9.66856 65.6499 9.84659C65.9264 10.0246 66.1432 10.2812 66.3004 10.6165C66.4595 10.9517 66.5391 11.3551 66.5391 11.8267C66.5391 12.2983 66.4605 12.7027 66.3033 13.0398C66.1461 13.375 65.9302 13.6335 65.6555 13.8153C65.3809 13.9953 65.0675 14.0852 64.7152 14.0852C64.45 14.0852 64.2332 14.0407 64.0646 13.9517C63.898 13.8627 63.7673 13.7585 63.6726 13.6392C63.5779 13.5199 63.505 13.4138 63.4538 13.321H63.3828V14H62.5533ZM63.3857 11.8182C63.3857 12.125 63.4302 12.3939 63.5192 12.625C63.6082 12.8561 63.737 13.0369 63.9055 13.1676C64.0741 13.2964 64.2805 13.3608 64.5249 13.3608C64.7786 13.3608 64.9908 13.2936 65.1612 13.1591C65.3317 13.0227 65.4605 12.8381 65.5476 12.6051C65.6366 12.3722 65.6811 12.1098 65.6811 11.8182C65.6811 11.5303 65.6375 11.2718 65.5504 11.0426C65.4652 10.8134 65.3364 10.6326 65.1641 10.5C64.9936 10.3674 64.7805 10.3011 64.5249 10.3011C64.2786 10.3011 64.0703 10.3646 63.8999 10.4915C63.7313 10.6184 63.6035 10.7955 63.5163 11.0227C63.4292 11.25 63.3857 11.5152 63.3857 11.8182ZM69.3736 14.0881C68.9437 14.0881 68.5734 13.9962 68.2628 13.8125C67.9541 13.6269 67.7154 13.3665 67.5469 13.0312C67.3802 12.6941 67.2969 12.2992 67.2969 11.8466C67.2969 11.3996 67.3802 11.0057 67.5469 10.6648C67.7154 10.3239 67.9503 10.0578 68.2514 9.86648C68.5545 9.67519 68.9086 9.57955 69.3139 9.57955C69.5601 9.57955 69.7988 9.62027 70.0298 9.7017C70.2609 9.78314 70.4683 9.91098 70.652 10.0852C70.8357 10.2595 70.9806 10.4858 71.0866 10.7642C71.1927 11.0407 71.2457 11.3769 71.2457 11.7727V12.0739H67.777V11.4375H70.4134C70.4134 11.214 70.3679 11.0161 70.277 10.8438C70.1861 10.6695 70.0582 10.5322 69.8935 10.4318C69.7306 10.3314 69.5393 10.2812 69.3196 10.2812C69.081 10.2812 68.8726 10.34 68.6946 10.4574C68.5185 10.5729 68.3821 10.7244 68.2855 10.9119C68.1908 11.0975 68.1435 11.2992 68.1435 11.517V12.0142C68.1435 12.3059 68.1946 12.554 68.2969 12.7585C68.401 12.9631 68.5459 13.1193 68.7315 13.2273C68.9171 13.3333 69.134 13.3864 69.3821 13.3864C69.5431 13.3864 69.6899 13.3636 69.8224 13.3182C69.955 13.2708 70.0696 13.2008 70.1662 13.108C70.2628 13.0152 70.3366 12.9006 70.3878 12.7642L71.1918 12.9091C71.1274 13.1458 71.0118 13.3532 70.8452 13.5312C70.6804 13.7074 70.473 13.8447 70.223 13.9432C69.9749 14.0398 69.6918 14.0881 69.3736 14.0881ZM75.5753 14.0966C75.2988 14.0966 75.0488 14.0455 74.8253 13.9432C74.6018 13.839 74.4247 13.6884 74.294 13.4915C74.1652 13.2945 74.1009 13.053 74.1009 12.767C74.1009 12.5208 74.1482 12.3182 74.2429 12.1591C74.3376 12 74.4654 11.8741 74.6264 11.7812C74.7874 11.6884 74.9673 11.6184 75.1662 11.571C75.3651 11.5237 75.5677 11.4877 75.7741 11.4631C76.0355 11.4328 76.2476 11.4081 76.4105 11.3892C76.5734 11.3684 76.6918 11.3352 76.7656 11.2898C76.8395 11.2443 76.8764 11.1705 76.8764 11.0682V11.0483C76.8764 10.8002 76.8063 10.608 76.6662 10.4716C76.5279 10.3352 76.3215 10.267 76.0469 10.267C75.7609 10.267 75.5355 10.3305 75.3707 10.4574C75.2079 10.5824 75.0952 10.7216 75.0327 10.875L74.2344 10.6932C74.3291 10.428 74.4673 10.214 74.6491 10.0511C74.8329 9.88636 75.044 9.76705 75.2827 9.69318C75.5213 9.61742 75.7723 9.57955 76.0355 9.57955C76.2098 9.57955 76.3944 9.60038 76.5895 9.64205C76.7865 9.68182 76.9702 9.75568 77.1406 9.86364C77.313 9.97159 77.4541 10.1259 77.5639 10.3267C77.6738 10.5256 77.7287 10.7841 77.7287 11.1023V14H76.8991V13.4034H76.8651C76.8101 13.5133 76.7277 13.6212 76.6179 13.7273C76.508 13.8333 76.367 13.9214 76.1946 13.9915C76.0223 14.0616 75.8158 14.0966 75.5753 14.0966ZM75.7599 13.4148C75.9948 13.4148 76.1955 13.3684 76.3622 13.2756C76.5308 13.1828 76.6586 13.0616 76.7457 12.9119C76.8348 12.7604 76.8793 12.5985 76.8793 12.4261V11.8636C76.849 11.8939 76.7902 11.9223 76.7031 11.9489C76.6179 11.9735 76.5204 11.9953 76.4105 12.0142C76.3007 12.0312 76.1937 12.0473 76.0895 12.0625C75.9853 12.0758 75.8982 12.0871 75.8281 12.0966C75.6634 12.1174 75.5128 12.1525 75.3764 12.2017C75.242 12.2509 75.134 12.322 75.0526 12.4148C74.973 12.5057 74.9332 12.6269 74.9332 12.7784C74.9332 12.9886 75.0109 13.1477 75.1662 13.2557C75.3215 13.3617 75.5194 13.4148 75.7599 13.4148ZM82.4368 9.63636L80.8544 14H79.9453L78.3601 9.63636H79.272L80.3771 12.9943H80.4226L81.5249 9.63636H82.4368ZM84.38 14.0966C84.1035 14.0966 83.8535 14.0455 83.63 13.9432C83.4065 13.839 83.2294 13.6884 83.0987 13.4915C82.9699 13.2945 82.9055 13.053 82.9055 12.767C82.9055 12.5208 82.9529 12.3182 83.0476 12.1591C83.1423 12 83.2701 11.8741 83.4311 11.7812C83.5921 11.6884 83.772 11.6184 83.9709 11.571C84.1697 11.5237 84.3724 11.4877 84.5788 11.4631C84.8402 11.4328 85.0523 11.4081 85.2152 11.3892C85.3781 11.3684 85.4964 11.3352 85.5703 11.2898C85.6442 11.2443 85.6811 11.1705 85.6811 11.0682V11.0483C85.6811 10.8002 85.611 10.608 85.4709 10.4716C85.3326 10.3352 85.1262 10.267 84.8516 10.267C84.5656 10.267 84.3402 10.3305 84.1754 10.4574C84.0125 10.5824 83.8999 10.7216 83.8374 10.875L83.0391 10.6932C83.1338 10.428 83.272 10.214 83.4538 10.0511C83.6375 9.88636 83.8487 9.76705 84.0874 9.69318C84.326 9.61742 84.5769 9.57955 84.8402 9.57955C85.0144 9.57955 85.1991 9.60038 85.3942 9.64205C85.5911 9.68182 85.7749 9.75568 85.9453 9.86364C86.1177 9.97159 86.2588 10.1259 86.3686 10.3267C86.4785 10.5256 86.5334 10.7841 86.5334 11.1023V14H85.7038V13.4034H85.6697C85.6148 13.5133 85.5324 13.6212 85.4226 13.7273C85.3127 13.8333 85.1716 13.9214 84.9993 13.9915C84.8269 14.0616 84.6205 14.0966 84.38 14.0966ZM84.5646 13.4148C84.7995 13.4148 85.0002 13.3684 85.1669 13.2756C85.3355 13.1828 85.4633 13.0616 85.5504 12.9119C85.6394 12.7604 85.6839 12.5985 85.6839 12.4261V11.8636C85.6536 11.8939 85.5949 11.9223 85.5078 11.9489C85.4226 11.9735 85.325 11.9953 85.2152 12.0142C85.1054 12.0312 84.9983 12.0473 84.8942 12.0625C84.79 12.0758 84.7029 12.0871 84.6328 12.0966C84.468 12.1174 84.3175 12.1525 84.1811 12.2017C84.0466 12.2509 83.9387 12.322 83.8572 12.4148C83.7777 12.5057 83.7379 12.6269 83.7379 12.7784C83.7379 12.9886 83.8156 13.1477 83.9709 13.2557C84.1262 13.3617 84.3241 13.4148 84.5646 13.4148ZM87.6648 14V9.63636H88.5142V14H87.6648ZM88.0938 8.96307C87.946 8.96307 87.8191 8.91383 87.7131 8.81534C87.6089 8.71496 87.5568 8.59564 87.5568 8.45739C87.5568 8.31723 87.6089 8.19792 87.7131 8.09943C87.8191 7.99905 87.946 7.94886 88.0938 7.94886C88.2415 7.94886 88.3674 7.99905 88.4716 8.09943C88.5777 8.19792 88.6307 8.31723 88.6307 8.45739C88.6307 8.59564 88.5777 8.71496 88.4716 8.81534C88.3674 8.91383 88.2415 8.96307 88.0938 8.96307ZM90.5064 8.18182V14H89.657V8.18182H90.5064ZM92.919 14.0966C92.6425 14.0966 92.3925 14.0455 92.169 13.9432C91.9455 13.839 91.7685 13.6884 91.6378 13.4915C91.509 13.2945 91.4446 13.053 91.4446 12.767C91.4446 12.5208 91.492 12.3182 91.5866 12.1591C91.6813 12 91.8092 11.8741 91.9702 11.7812C92.1312 11.6884 92.3111 11.6184 92.5099 11.571C92.7088 11.5237 92.9115 11.4877 93.1179 11.4631C93.3793 11.4328 93.5914 11.4081 93.7543 11.3892C93.9171 11.3684 94.0355 11.3352 94.1094 11.2898C94.1832 11.2443 94.2202 11.1705 94.2202 11.0682V11.0483C94.2202 10.8002 94.1501 10.608 94.0099 10.4716C93.8717 10.3352 93.6652 10.267 93.3906 10.267C93.1046 10.267 92.8793 10.3305 92.7145 10.4574C92.5516 10.5824 92.4389 10.7216 92.3764 10.875L91.5781 10.6932C91.6728 10.428 91.8111 10.214 91.9929 10.0511C92.1766 9.88636 92.3878 9.76705 92.6264 9.69318C92.8651 9.61742 93.116 9.57955 93.3793 9.57955C93.5535 9.57955 93.7382 9.60038 93.9332 9.64205C94.1302 9.68182 94.3139 9.75568 94.4844 9.86364C94.6567 9.97159 94.7978 10.1259 94.9077 10.3267C95.0175 10.5256 95.0724 10.7841 95.0724 11.1023V14H94.2429V13.4034H94.2088C94.1539 13.5133 94.0715 13.6212 93.9616 13.7273C93.8518 13.8333 93.7107 13.9214 93.5384 13.9915C93.366 14.0616 93.1596 14.0966 92.919 14.0966ZM93.1037 13.4148C93.3385 13.4148 93.5393 13.3684 93.706 13.2756C93.8745 13.1828 94.0024 13.0616 94.0895 12.9119C94.1785 12.7604 94.223 12.5985 94.223 12.4261V11.8636C94.1927 11.8939 94.134 11.9223 94.0469 11.9489C93.9616 11.9735 93.8641 11.9953 93.7543 12.0142C93.6444 12.0312 93.5374 12.0473 93.4332 12.0625C93.3291 12.0758 93.242 12.0871 93.1719 12.0966C93.0071 12.1174 92.8565 12.1525 92.7202 12.2017C92.5857 12.2509 92.4777 12.322 92.3963 12.4148C92.3168 12.5057 92.277 12.6269 92.277 12.7784C92.277 12.9886 92.3546 13.1477 92.5099 13.2557C92.6652 13.3617 92.8632 13.4148 93.1037 13.4148ZM96.272 14V8.18182H97.1214V10.3438H97.1726C97.2218 10.2528 97.2929 10.1477 97.3857 10.0284C97.4785 9.90909 97.6072 9.80492 97.772 9.71591C97.9368 9.625 98.1546 9.57955 98.4254 9.57955C98.7777 9.57955 99.0921 9.66856 99.3686 9.84659C99.6451 10.0246 99.862 10.2812 100.019 10.6165C100.178 10.9517 100.258 11.3551 100.258 11.8267C100.258 12.2983 100.179 12.7027 100.022 13.0398C99.8648 13.375 99.6489 13.6335 99.3743 13.8153C99.0997 13.9953 98.7862 14.0852 98.4339 14.0852C98.1688 14.0852 97.9519 14.0407 97.7834 13.9517C97.6167 13.8627 97.486 13.7585 97.3913 13.6392C97.2966 13.5199 97.2237 13.4138 97.1726 13.321H97.1016V14H96.272ZM97.1044 11.8182C97.1044 12.125 97.1489 12.3939 97.2379 12.625C97.3269 12.8561 97.4557 13.0369 97.6243 13.1676C97.7929 13.2964 97.9993 13.3608 98.2436 13.3608C98.4974 13.3608 98.7095 13.2936 98.88 13.1591C99.0504 13.0227 99.1792 12.8381 99.2663 12.6051C99.3554 12.3722 99.3999 12.1098 99.3999 11.8182C99.3999 11.5303 99.3563 11.2718 99.2692 11.0426C99.1839 10.8134 99.0552 10.6326 98.8828 10.5C98.7124 10.3674 98.4993 10.3011 98.2436 10.3011C97.9974 10.3011 97.7891 10.3646 97.6186 10.4915C97.45 10.6184 97.3222 10.7955 97.2351 11.0227C97.148 11.25 97.1044 11.5152 97.1044 11.8182ZM102.061 8.18182V14H101.212V8.18182H102.061ZM105.085 14.0881C104.655 14.0881 104.284 13.9962 103.974 13.8125C103.665 13.6269 103.426 13.3665 103.258 13.0312C103.091 12.6941 103.008 12.2992 103.008 11.8466C103.008 11.3996 103.091 11.0057 103.258 10.6648C103.426 10.3239 103.661 10.0578 103.962 9.86648C104.265 9.67519 104.62 9.57955 105.025 9.57955C105.271 9.57955 105.51 9.62027 105.741 9.7017C105.972 9.78314 106.179 9.91098 106.363 10.0852C106.547 10.2595 106.692 10.4858 106.798 10.7642C106.904 11.0407 106.957 11.3769 106.957 11.7727V12.0739H103.488V11.4375H106.124C106.124 11.214 106.079 11.0161 105.988 10.8438C105.897 10.6695 105.769 10.5322 105.604 10.4318C105.442 10.3314 105.25 10.2812 105.031 10.2812C104.792 10.2812 104.584 10.34 104.406 10.4574C104.229 10.5729 104.093 10.7244 103.996 10.9119C103.902 11.0975 103.854 11.2992 103.854 11.517V12.0142C103.854 12.3059 103.906 12.554 104.008 12.7585C104.112 12.9631 104.257 13.1193 104.442 13.2273C104.628 13.3333 104.845 13.3864 105.093 13.3864C105.254 13.3864 105.401 13.3636 105.533 13.3182C105.666 13.2708 105.781 13.2008 105.877 13.108C105.974 13.0152 106.048 12.9006 106.099 12.7642L106.903 12.9091C106.838 13.1458 106.723 13.3532 106.556 13.5312C106.391 13.7074 106.184 13.8447 105.934 13.9432C105.686 14.0398 105.403 14.0881 105.085 14.0881ZM115.138 11.0909C115.138 11.7121 115.025 12.2462 114.798 12.6932C114.57 13.1383 114.259 13.4811 113.863 13.7216C113.469 13.9602 113.021 14.0795 112.519 14.0795C112.015 14.0795 111.566 13.9602 111.17 13.7216C110.776 13.4811 110.465 13.1373 110.238 12.6903C110.011 12.2434 109.897 11.7102 109.897 11.0909C109.897 10.4697 110.011 9.93655 110.238 9.49148C110.465 9.04451 110.776 8.7017 111.17 8.46307C111.566 8.22254 112.015 8.10227 112.519 8.10227C113.021 8.10227 113.469 8.22254 113.863 8.46307C114.259 8.7017 114.57 9.04451 114.798 9.49148C115.025 9.93655 115.138 10.4697 115.138 11.0909ZM114.269 11.0909C114.269 10.6174 114.192 10.2187 114.039 9.89489C113.888 9.56913 113.679 9.32292 113.414 9.15625C113.151 8.98769 112.853 8.90341 112.519 8.90341C112.184 8.90341 111.885 8.98769 111.621 9.15625C111.358 9.32292 111.15 9.56913 110.996 9.89489C110.845 10.2187 110.769 10.6174 110.769 11.0909C110.769 11.5644 110.845 11.964 110.996 12.2898C111.15 12.6136 111.358 12.8598 111.621 13.0284C111.885 13.1951 112.184 13.2784 112.519 13.2784C112.853 13.2784 113.151 13.1951 113.414 13.0284C113.679 12.8598 113.888 12.6136 114.039 12.2898C114.192 11.964 114.269 11.5644 114.269 11.0909ZM117.014 11.4091V14H116.165V9.63636H116.98V10.3466H117.034C117.134 10.1155 117.292 9.92992 117.506 9.78977C117.722 9.64962 117.993 9.57955 118.321 9.57955C118.618 9.57955 118.879 9.64205 119.102 9.76705C119.326 9.89015 119.499 10.0739 119.622 10.3182C119.745 10.5625 119.807 10.8646 119.807 11.2244V14H118.957V11.3267C118.957 11.0104 118.875 10.7633 118.71 10.5852C118.545 10.4053 118.319 10.3153 118.031 10.3153C117.834 10.3153 117.659 10.358 117.506 10.4432C117.354 10.5284 117.234 10.6534 117.145 10.8182C117.058 10.9811 117.014 11.178 117.014 11.4091Z" fill="white"/>
<path d="M75.7071 23.5649C73.0974 23.5649 70.9654 25.5014 70.9654 28.1731C70.9654 30.8232 73.0974 32.78 75.7071 32.78C78.3224 32.78 80.4543 30.8232 80.4543 28.1731C80.4543 25.5014 78.3224 23.5649 75.7071 23.5649ZM75.7071 30.9654C74.2752 30.9654 73.0432 29.813 73.0432 28.1731C73.0432 26.5116 74.2752 25.3795 75.7071 25.3795C77.1391 25.3795 78.3766 26.5116 78.3766 28.1731C78.3766 29.813 77.1391 30.9654 75.7071 30.9654ZM65.3613 23.5649C62.746 23.5649 60.6196 25.5014 60.6196 28.1731C60.6196 30.8232 62.746 32.78 65.3613 32.78C67.9752 32.78 70.1029 30.8232 70.1029 28.1731C70.1029 25.5014 67.9752 23.5649 65.3613 23.5649ZM65.3613 30.9654C63.9279 30.9654 62.6918 29.813 62.6918 28.1731C62.6918 26.5116 63.9279 25.3795 65.3613 25.3795C66.7932 25.3795 68.0252 26.5116 68.0252 28.1731C68.0252 29.813 66.7932 30.9654 65.3613 30.9654ZM53.0502 24.9773V26.9354H57.846C57.7057 28.0296 57.3307 28.834 56.7557 29.3946C56.0557 30.0717 54.9654 30.8232 53.0502 30.8232C50.0988 30.8232 47.7877 28.5008 47.7877 25.6232C47.7877 22.7456 50.0988 20.4232 53.0502 20.4232C54.646 20.4232 55.8071 21.0313 56.6641 21.8194L58.0793 20.4395C56.8807 19.3237 55.2863 18.4665 53.0502 18.4665C49.0029 18.4665 45.6016 21.6772 45.6016 25.6232C45.6016 29.5693 49.0029 32.78 53.0502 32.78C55.2377 32.78 56.8807 32.0813 58.1724 30.7704C59.496 29.4799 59.9085 27.6653 59.9085 26.2001C59.9085 25.7451 59.8696 25.3267 59.8002 24.9773H53.0502ZM103.392 26.4953C103.002 25.4648 101.797 23.5649 99.3446 23.5649C96.914 23.5649 94.8904 25.4323 94.8904 28.1731C94.8904 30.7542 96.8932 32.78 99.5779 32.78C101.749 32.78 103.002 31.4895 103.517 30.7379L101.906 29.6912C101.368 30.4576 100.636 30.9654 99.5779 30.9654C98.5265 30.9654 97.7724 30.4955 97.289 29.5693L103.61 27.0194L103.392 26.4953ZM96.9474 28.0296C96.8932 26.2529 98.3627 25.3429 99.4154 25.3429C100.24 25.3429 100.94 25.7451 101.174 26.3206L96.9474 28.0296ZM91.8099 32.4997H93.8877V18.958H91.8099V32.4997ZM88.4071 24.5914H88.3377C87.871 24.0524 86.9807 23.5649 85.8529 23.5649C83.4863 23.5649 81.3224 25.5907 81.3224 28.188C81.3224 30.7704 83.4863 32.78 85.8529 32.78C86.9807 32.78 87.871 32.2885 88.3377 31.7332H88.4071V32.3941C88.4071 34.1558 87.4418 35.1024 85.8849 35.1024C84.6154 35.1024 83.8279 34.2087 83.5029 33.4571L81.696 34.1924C82.2168 35.4139 83.596 36.917 85.8849 36.917C88.321 36.917 90.3765 35.5195 90.3765 32.1192V23.8452H88.4071V24.5914ZM86.0307 30.9654C84.5988 30.9654 83.4002 29.7968 83.4002 28.188C83.4002 26.5644 84.5988 25.3795 86.0307 25.3795C87.4418 25.3795 88.5543 26.5644 88.5543 28.188C88.5543 29.7968 87.4418 30.9654 86.0307 30.9654ZM113.12 18.958H108.15V32.4997H110.222V27.3688H113.12C115.421 27.3688 117.678 25.7451 117.678 23.1627C117.678 20.5817 115.415 18.958 113.12 18.958ZM113.174 25.4851H110.222V20.8417H113.174C114.721 20.8417 115.604 22.0943 115.604 23.1627C115.604 24.2108 114.721 25.4851 113.174 25.4851ZM125.983 23.5392C124.486 23.5392 122.929 24.1838 122.289 25.6124L124.128 26.364C124.524 25.6124 125.252 25.3687 126.021 25.3687C127.096 25.3687 128.186 25.9983 128.203 27.1101V27.2523C127.828 27.0411 127.025 26.7282 126.038 26.7282C124.057 26.7282 122.039 27.7913 122.039 29.7751C122.039 31.5897 123.661 32.7583 125.485 32.7583C126.879 32.7583 127.649 32.1449 128.132 31.4313H128.203V32.478H130.204V27.2835C130.204 24.8825 128.365 23.5392 125.983 23.5392ZM125.733 30.96C125.056 30.96 124.111 30.6323 124.111 29.813C124.111 28.7649 125.289 28.3627 126.308 28.3627C127.221 28.3627 127.649 28.5591 128.203 28.8177C128.04 30.0717 126.933 30.96 125.733 30.96ZM137.496 23.8357L135.114 29.7061H135.043L132.581 23.8357H130.346L134.046 32.0393L131.935 36.6042H134.1L139.802 23.8357H137.496ZM118.817 32.4997H120.895V18.958H118.817V32.4997Z" fill="white"/>
</svg>
