<svg width="48" height="48" viewBox="0 0 48 48" fill="none" xmlns="http://www.w3.org/2000/svg">
<path d="M38.1434 39.6402C37.7634 39.6402 37.3834 39.5002 37.0834 39.2002C36.5034 38.6202 36.5034 37.6602 37.0834 37.0802C44.3034 29.8602 44.3034 18.1202 37.0834 10.9202C36.5034 10.3402 36.5034 9.38023 37.0834 8.80023C37.6634 8.22023 38.6234 8.22023 39.2034 8.80023C47.5834 17.1802 47.5834 30.8202 39.2034 39.2002C38.9034 39.5002 38.5234 39.6402 38.1434 39.6402Z" fill="white"/>
<path d="M9.86062 39.6402C9.48062 39.6402 9.10063 39.5002 8.80062 39.2002C0.420625 30.8202 0.420625 17.1802 8.80062 8.80023C9.38062 8.22023 10.3406 8.22023 10.9206 8.80023C11.5006 9.38023 11.5006 10.3402 10.9206 10.9202C3.70062 18.1402 3.70062 29.8802 10.9206 37.0802C11.5006 37.6602 11.5006 38.6202 10.9206 39.2002C10.6206 39.5002 10.2406 39.6402 9.86062 39.6402Z" fill="white"/>
<path d="M23.9976 45.4199C21.4976 45.3999 19.1176 44.9999 16.8976 44.2199C16.1176 43.9399 15.6976 43.0799 15.9776 42.2999C16.2576 41.5199 17.0976 41.0999 17.8976 41.3799C19.8176 42.0399 21.8576 42.3999 24.0176 42.3999C26.1576 42.3999 28.2176 42.0399 30.1176 41.3799C30.8976 41.1199 31.7576 41.5199 32.0376 42.2999C32.3176 43.0799 31.8976 43.9399 31.1176 44.2199C28.8776 44.9999 26.4976 45.4199 23.9976 45.4199Z" fill="white"/>
<path d="M30.5976 6.68008C30.4376 6.68008 30.2576 6.66008 30.0976 6.60008C28.1976 5.92008 26.1376 5.58008 23.9976 5.58008C21.8576 5.58008 19.8176 5.94008 17.8976 6.60008C17.0976 6.86008 16.2576 6.46008 15.9776 5.68008C15.6976 4.90008 16.1176 4.04008 16.8976 3.76008C19.1376 2.98008 21.5176 2.58008 23.9976 2.58008C26.4776 2.58008 28.8776 2.98008 31.0976 3.76008C31.8776 4.04008 32.2976 4.90008 32.0176 5.68008C31.7976 6.30008 31.2176 6.68008 30.5976 6.68008Z" fill="white"/>
<path d="M17.4766 24.0003V20.6603C17.4766 16.5003 20.4166 14.8003 24.0166 16.8803L26.9166 18.5603L29.8166 20.2403C33.4166 22.3203 33.4166 25.7203 29.8166 27.8003L26.9166 29.4803L24.0166 31.1603C20.4166 33.2403 17.4766 31.5403 17.4766 27.3803V24.0003Z" fill="white"/>
</svg>
