<svg width="408" height="233" viewBox="0 0 408 233" fill="none" xmlns="http://www.w3.org/2000/svg">
<g clipPath="url(#clip0_11469_48916)">
<rect x="156.406" width="95.3766" height="95.3766" rx="18.7013" fill="#830AB3"/>
<g clipPath="url(#clip1_11469_48916)">
<path d="M206.899 31.3806C206.105 31.3806 205.461 30.7365 205.461 29.9429V26.1916C205.461 25.398 206.105 24.7539 206.899 24.7539C207.692 24.7539 208.336 25.398 208.336 26.1916V29.9429C208.336 30.7365 207.692 31.3806 206.899 31.3806Z" fill="white"/>
<path d="M219.492 36.5981C219.124 36.5981 218.756 36.4581 218.476 36.1764C217.914 35.6147 217.914 34.7042 218.476 34.1426L221.129 31.4896C221.691 30.9279 222.601 30.9279 223.163 31.4896C223.724 32.0512 223.724 32.9618 223.163 33.5234L220.51 36.1764C220.228 36.4562 219.86 36.5981 219.492 36.5981Z" fill="white"/>
<path d="M228.462 49.1937H224.711C223.918 49.1937 223.273 48.5496 223.273 47.756C223.273 46.9624 223.918 46.3184 224.711 46.3184H228.462C229.256 46.3184 229.9 46.9624 229.9 47.756C229.9 48.5496 229.256 49.1937 228.462 49.1937Z" fill="white"/>
<path d="M222.145 64.4428C221.777 64.4428 221.409 64.3029 221.129 64.0211L218.476 61.3681C217.914 60.8065 217.914 59.896 218.476 59.3343C219.038 58.7727 219.948 58.7727 220.51 59.3343L223.163 61.9873C223.724 62.5489 223.724 63.4594 223.163 64.0211C222.881 64.3029 222.513 64.4428 222.145 64.4428Z" fill="white"/>
<path d="M191.648 64.4428C191.28 64.4428 190.912 64.3029 190.632 64.0211C190.071 63.4594 190.071 62.5489 190.632 61.9873L193.285 59.3343C193.847 58.7727 194.757 58.7727 195.319 59.3343C195.881 59.896 195.881 60.8065 195.319 61.3681L192.666 64.0211C192.384 64.3029 192.016 64.4428 191.648 64.4428Z" fill="white"/>
<path d="M189.087 49.1937H185.336C184.543 49.1937 183.898 48.5496 183.898 47.756C183.898 46.9624 184.543 46.3184 185.336 46.3184H189.087C189.881 46.3184 190.525 46.9624 190.525 47.756C190.525 48.5496 189.881 49.1937 189.087 49.1937Z" fill="white"/>
<path d="M194.301 36.5981C193.933 36.5981 193.565 36.4581 193.285 36.1764L190.632 33.5234C190.071 32.9618 190.071 32.0512 190.632 31.4896C191.194 30.9279 192.104 30.9279 192.666 31.4896L195.319 34.1426C195.881 34.7042 195.881 35.6147 195.319 36.1764C195.035 36.4562 194.669 36.5981 194.301 36.5981Z" fill="white"/>
<path d="M212.658 65.0078V67.4039C212.658 69.2441 211.143 70.7585 209.303 70.7585H204.511C202.901 70.7585 201.156 69.5317 201.156 66.848V65.0078H212.658Z" fill="white"/>
<path d="M215.358 37.3295C212.215 34.7801 208.074 33.7833 204.03 34.6459C198.95 35.7002 194.829 39.8406 193.774 44.9204C192.701 50.1343 194.656 55.3099 198.835 58.4727C199.966 59.3161 200.752 60.6196 201.02 62.134V62.1531C201.059 62.134 201.116 62.134 201.154 62.134H212.656C212.694 62.134 212.713 62.134 212.752 62.1531V62.134C213.02 60.6771 213.882 59.3353 215.205 58.3002C218.445 55.7316 220.323 51.8978 220.323 47.7573C220.323 43.6936 218.521 39.8981 215.358 37.3295ZM206.186 47.2781H207.624C209.87 47.2781 211.697 49.1049 211.697 51.3515C211.697 53.3508 210.246 55.0108 208.343 55.352V57.821C208.343 58.6146 207.699 59.2586 206.905 59.2586C206.111 59.2586 205.467 58.6146 205.467 57.821V55.4249H203.55C202.757 55.4249 202.113 54.7808 202.113 53.9872C202.113 53.1936 202.757 52.5495 203.55 52.5495H207.624C208.285 52.5495 208.822 52.0128 208.822 51.3515C208.822 50.6902 208.285 50.1534 207.624 50.1534H206.186C203.94 50.1534 202.113 48.3267 202.113 46.0801C202.113 44.0808 203.564 42.4207 205.467 42.0795V39.6106C205.467 38.817 206.111 38.1729 206.905 38.1729C207.699 38.1729 208.343 38.817 208.343 39.6106V42.0067H210.26C211.053 42.0067 211.697 42.6508 211.697 43.4444C211.697 44.2379 211.053 44.882 210.26 44.882H206.186C205.525 44.882 204.988 45.4187 204.988 46.0801C204.988 46.7414 205.525 47.2781 206.186 47.2781Z" fill="white"/>
<path d="M201.016 62.1328H201.151C201.112 62.1328 201.054 62.1328 201.016 62.1522V62.1328Z" fill="white"/>
<path d="M212.745 62.1328V62.1522C212.706 62.1328 212.687 62.1328 212.648 62.1328H212.745Z" fill="white"/>
</g>
<path d="M145.802 139.377V123.556H152.714C154.375 123.556 155.662 123.922 156.574 124.655C157.487 125.373 157.943 126.376 157.943 127.662C157.943 128.515 157.726 129.248 157.292 129.862C156.859 130.475 156.26 130.924 155.497 131.208C156.395 131.463 157.091 131.911 157.584 132.555C158.093 133.183 158.347 133.983 158.347 134.956C158.347 136.362 157.868 137.454 156.911 138.232C155.968 138.995 154.652 139.377 152.961 139.377H145.802ZM148.563 130.266H152.221C154.181 130.266 155.161 129.51 155.161 127.999C155.161 126.488 154.181 125.732 152.221 125.732H148.563V130.266ZM148.563 137.2H152.602C154.577 137.2 155.564 136.407 155.564 134.821C155.564 133.235 154.577 132.443 152.602 132.443H148.563V137.2ZM161.432 139.377V128.403H164.17V130.333C164.709 129.031 165.861 128.313 167.626 128.179L168.479 128.111L168.659 130.49L167.043 130.647C165.203 130.827 164.283 131.769 164.283 133.475V139.377H161.432ZM174.173 139.601C173.38 139.601 172.669 139.452 172.041 139.153C171.428 138.838 170.941 138.419 170.582 137.896C170.238 137.372 170.066 136.781 170.066 136.123C170.066 135.315 170.276 134.679 170.694 134.215C171.113 133.737 171.794 133.393 172.737 133.183C173.679 132.974 174.943 132.869 176.529 132.869H177.315V132.398C177.315 131.65 177.15 131.111 176.821 130.782C176.492 130.453 175.938 130.288 175.16 130.288C174.547 130.288 173.919 130.385 173.275 130.58C172.632 130.759 171.981 131.044 171.323 131.433L170.515 129.525C170.904 129.256 171.36 129.024 171.884 128.829C172.422 128.62 172.984 128.463 173.567 128.358C174.165 128.238 174.726 128.179 175.25 128.179C176.851 128.179 178.04 128.553 178.818 129.301C179.596 130.034 179.985 131.178 179.985 132.734V139.377H177.36V137.627C177.105 138.24 176.701 138.726 176.148 139.085C175.594 139.429 174.936 139.601 174.173 139.601ZM174.756 137.671C175.49 137.671 176.095 137.417 176.574 136.908C177.068 136.4 177.315 135.756 177.315 134.978V134.485H176.552C175.145 134.485 174.165 134.597 173.612 134.821C173.073 135.031 172.804 135.42 172.804 135.988C172.804 136.482 172.976 136.886 173.32 137.2C173.664 137.514 174.143 137.671 174.756 137.671ZM183.102 126.047V123.309H186.244V126.047H183.102ZM183.281 139.377V128.403H186.087V139.377H183.281ZM189.45 139.377V128.403H192.188V130.109C192.562 129.48 193.063 129.001 193.692 128.672C194.335 128.343 195.053 128.179 195.846 128.179C198.434 128.179 199.728 129.682 199.728 132.689V139.377H196.923V132.824C196.923 131.971 196.759 131.35 196.43 130.961C196.115 130.572 195.622 130.378 194.948 130.378C194.126 130.378 193.467 130.64 192.974 131.163C192.495 131.672 192.255 132.353 192.255 133.206V139.377H189.45ZM207.044 139.601C206.116 139.601 205.248 139.489 204.44 139.265C203.632 139.04 202.959 138.719 202.421 138.3L203.139 136.46C203.692 136.834 204.313 137.125 205.001 137.335C205.69 137.529 206.378 137.627 207.066 137.627C207.784 137.627 208.315 137.507 208.659 137.267C209.018 137.013 209.198 136.684 209.198 136.28C209.198 135.652 208.734 135.248 207.807 135.068L205.562 134.642C203.662 134.283 202.712 133.295 202.712 131.679C202.712 130.961 202.907 130.34 203.296 129.817C203.7 129.293 204.253 128.889 204.956 128.605C205.66 128.321 206.468 128.179 207.38 128.179C208.158 128.179 208.906 128.291 209.624 128.515C210.342 128.725 210.956 129.046 211.464 129.48L210.701 131.32C210.268 130.961 209.744 130.677 209.131 130.468C208.532 130.258 207.956 130.153 207.403 130.153C206.669 130.153 206.123 130.281 205.764 130.535C205.42 130.789 205.248 131.126 205.248 131.545C205.248 132.203 205.675 132.607 206.527 132.757L208.772 133.183C209.744 133.363 210.477 133.692 210.971 134.171C211.479 134.649 211.734 135.293 211.734 136.1C211.734 137.193 211.307 138.053 210.455 138.681C209.602 139.295 208.465 139.601 207.044 139.601ZM219.35 139.601C216.448 139.601 214.997 138.165 214.997 135.293V130.513H212.887V128.403H214.997V125.127H217.802V128.403H221.123V130.513H217.802V135.135C217.802 135.854 217.959 136.392 218.273 136.751C218.587 137.11 219.096 137.29 219.799 137.29C220.009 137.29 220.226 137.267 220.45 137.223C220.674 137.163 220.906 137.103 221.146 137.043L221.572 139.108C221.303 139.257 220.959 139.377 220.54 139.467C220.136 139.556 219.739 139.601 219.35 139.601ZM228.28 139.601C227.143 139.601 226.156 139.369 225.318 138.906C224.48 138.442 223.829 137.784 223.365 136.931C222.902 136.063 222.67 135.046 222.67 133.879C222.67 132.712 222.902 131.702 223.365 130.849C223.829 129.996 224.48 129.338 225.318 128.874C226.156 128.411 227.143 128.179 228.28 128.179C229.417 128.179 230.405 128.411 231.242 128.874C232.08 129.338 232.731 129.996 233.195 130.849C233.659 131.702 233.89 132.712 233.89 133.879C233.89 135.046 233.659 136.063 233.195 136.931C232.731 137.784 232.08 138.442 231.242 138.906C230.405 139.369 229.417 139.601 228.28 139.601ZM228.28 137.469C229.118 137.469 229.791 137.17 230.3 136.572C230.808 135.958 231.063 135.061 231.063 133.879C231.063 132.682 230.808 131.792 230.3 131.208C229.791 130.61 229.118 130.311 228.28 130.311C227.442 130.311 226.769 130.61 226.26 131.208C225.752 131.792 225.497 132.682 225.497 133.879C225.497 135.061 225.752 135.958 226.26 136.572C226.769 137.17 227.442 137.469 228.28 137.469ZM236.655 139.377V128.403H239.392V130.333C239.931 129.031 241.083 128.313 242.848 128.179L243.701 128.111L243.881 130.49L242.265 130.647C240.425 130.827 239.505 131.769 239.505 133.475V139.377H236.655ZM245.936 139.377V128.403H248.674V130.086C249.003 129.488 249.46 129.024 250.043 128.695C250.627 128.351 251.3 128.179 252.063 128.179C253.709 128.179 254.786 128.897 255.295 130.333C255.639 129.66 256.132 129.136 256.776 128.762C257.419 128.373 258.152 128.179 258.975 128.179C261.444 128.179 262.678 129.682 262.678 132.689V139.377H259.873V132.802C259.873 131.964 259.731 131.35 259.446 130.961C259.177 130.572 258.713 130.378 258.055 130.378C257.322 130.378 256.746 130.64 256.327 131.163C255.908 131.672 255.699 132.383 255.699 133.295V139.377H252.893V132.802C252.893 131.964 252.751 131.35 252.467 130.961C252.198 130.572 251.741 130.378 251.098 130.378C250.365 130.378 249.789 130.64 249.37 131.163C248.951 131.672 248.742 132.383 248.742 133.295V139.377H245.936Z" fill="#191919"/>
<path d="M12.014 191.601C10.9418 191.601 9.988 191.377 9.15267 190.928C8.31735 190.467 7.74384 189.893 7.43216 189.208L8.61034 188.366C9.39579 189.625 10.5366 190.255 12.0327 190.255C12.8057 190.255 13.4415 190.055 13.9402 189.656C14.4514 189.257 14.707 188.728 14.707 188.067C14.707 186.957 14.0649 186.153 12.7807 185.654L10.8171 184.906C9.78229 184.52 9.03423 184.046 8.57293 183.485C8.11164 182.924 7.88099 182.188 7.88099 181.278C7.88099 180.256 8.26125 179.433 9.02177 178.81C9.79475 178.186 10.7672 177.875 11.9392 177.875C12.7496 177.875 13.4789 178.043 14.1272 178.38C14.788 178.716 15.3116 179.153 15.6981 179.689L14.5948 180.586C13.8342 179.676 12.9303 179.221 11.8831 179.221C11.1475 179.221 10.5303 179.414 10.0316 179.801C9.5454 180.175 9.30229 180.661 9.30229 181.26C9.30229 181.846 9.4519 182.307 9.75112 182.643C10.0628 182.968 10.574 183.267 11.2846 183.541L13.0425 184.214C14.0774 184.613 14.8503 185.112 15.3615 185.71C15.8727 186.309 16.1283 187.082 16.1283 188.029C16.1283 189.127 15.748 189.999 14.9875 190.648C14.227 191.283 13.2358 191.601 12.014 191.601ZM20.258 191.377H18.9489V177.351H20.258V183.597C20.8939 182.425 21.9162 181.839 23.325 181.839C24.3599 181.839 25.2014 182.17 25.8497 182.83C26.5105 183.491 26.8409 184.389 26.8409 185.523V191.377H25.5318V185.71C25.5318 184.9 25.3136 184.258 24.8773 183.784C24.4534 183.298 23.8861 183.055 23.1754 183.055C22.3276 183.055 21.6295 183.385 21.0809 184.046C20.5323 184.694 20.258 185.586 20.258 186.72V191.377ZM34.1519 191.564C32.8428 191.564 31.7395 191.09 30.8418 190.143C29.9441 189.195 29.4953 188.048 29.4953 186.702C29.4953 185.355 29.9441 184.208 30.8418 183.261C31.7395 182.313 32.8428 181.839 34.1519 181.839C34.8626 181.839 35.5296 182.001 36.153 182.326C36.7888 182.65 37.275 183.074 37.6117 183.597V182.026H38.9208V191.377H37.6117V189.806C37.275 190.33 36.7888 190.754 36.153 191.078C35.5296 191.402 34.8626 191.564 34.1519 191.564ZM31.7956 189.301C32.4439 189.999 33.273 190.348 34.2828 190.348C35.2927 190.348 36.1156 189.999 36.7514 189.301C37.3997 188.59 37.7239 187.724 37.7239 186.702C37.7239 185.679 37.3997 184.819 36.7514 184.121C36.1156 183.41 35.2927 183.055 34.2828 183.055C33.273 183.055 32.4439 183.41 31.7956 184.121C31.1597 184.819 30.8418 185.679 30.8418 186.702C30.8418 187.724 31.1597 188.59 31.7956 189.301ZM42.5075 191.377V182.026H43.8166V183.953C44.016 183.329 44.3714 182.837 44.8825 182.475C45.3937 182.114 45.9423 181.933 46.5282 181.933C46.7901 181.933 47.0145 181.958 47.2015 182.008V183.373C46.9771 183.286 46.7153 183.242 46.416 183.242C45.7553 183.242 45.1568 183.541 44.6207 184.14C44.0846 184.738 43.8166 185.586 43.8166 186.683V191.377H42.5075ZM53.2765 191.564C51.8427 191.564 50.6832 191.103 49.798 190.18C48.9129 189.245 48.4703 188.086 48.4703 186.702C48.4703 185.33 48.9253 184.177 49.8354 183.242C50.7456 182.307 51.9051 181.839 53.3139 181.839C54.5731 181.839 55.6204 182.263 56.4557 183.111C57.291 183.959 57.7087 185.112 57.7087 186.571V186.926H49.8167C49.8167 187.899 50.1409 188.715 50.7892 189.376C51.4375 190.024 52.2666 190.348 53.2765 190.348C54.0245 190.348 54.6354 190.205 55.1092 189.918C55.5954 189.619 56.0131 189.176 56.3622 188.59L57.4282 189.282C56.543 190.803 55.1591 191.564 53.2765 191.564ZM49.929 185.767H56.3435C56.2188 184.931 55.876 184.27 55.3149 183.784C54.7539 183.298 54.0682 183.055 53.2578 183.055C52.4474 183.055 51.7243 183.304 51.0884 183.803C50.4651 184.289 50.0786 184.944 49.929 185.767ZM66.1271 179.221C65.8403 179.221 65.5972 179.128 65.3977 178.941C65.2107 178.741 65.1172 178.504 65.1172 178.23C65.1172 177.956 65.2107 177.725 65.3977 177.538C65.5972 177.339 65.8403 177.239 66.1271 177.239C66.4013 177.239 66.632 177.339 66.819 177.538C67.006 177.725 67.0995 177.956 67.0995 178.23C67.0995 178.504 67.006 178.741 66.819 178.941C66.632 179.128 66.4013 179.221 66.1271 179.221ZM65.4538 191.377V182.026H66.7629V191.377H65.4538ZM74.2282 191.564C72.9191 191.564 71.8158 191.09 70.9181 190.143C70.0204 189.195 69.5716 188.048 69.5716 186.702C69.5716 185.355 70.0204 184.208 70.9181 183.261C71.8158 182.313 72.9191 181.839 74.2282 181.839C74.9389 181.839 75.6059 182.001 76.2293 182.326C76.8651 182.65 77.3513 183.074 77.688 183.597V177.351H78.9971V191.377H77.688V189.806C77.3513 190.33 76.8651 190.754 76.2293 191.078C75.6059 191.402 74.9389 191.564 74.2282 191.564ZM71.8719 189.301C72.5202 189.999 73.3493 190.348 74.3591 190.348C75.369 190.348 76.1919 189.999 76.8277 189.301C77.476 188.59 77.8002 187.724 77.8002 186.702C77.8002 185.679 77.476 184.819 76.8277 184.121C76.1919 183.41 75.369 183.055 74.3591 183.055C73.3493 183.055 72.5202 183.41 71.8719 184.121C71.236 184.819 70.9181 185.679 70.9181 186.702C70.9181 187.724 71.236 188.59 71.8719 189.301ZM86.6232 191.564C85.1895 191.564 84.03 191.103 83.1448 190.18C82.2596 189.245 81.817 188.086 81.817 186.702C81.817 185.33 82.2721 184.177 83.1822 183.242C84.0923 182.307 85.2518 181.839 86.6606 181.839C87.9199 181.839 88.9671 182.263 89.8025 183.111C90.6378 183.959 91.0554 185.112 91.0554 186.571V186.926H83.1635C83.1635 187.899 83.4877 188.715 84.136 189.376C84.7843 190.024 85.6134 190.348 86.6232 190.348C87.3713 190.348 87.9822 190.205 88.456 189.918C88.9422 189.619 89.3599 189.176 89.709 188.59L90.7749 189.282C89.8897 190.803 88.5058 191.564 86.6232 191.564ZM83.2757 185.767H89.6903C89.5656 184.931 89.2227 184.27 88.6617 183.784C88.1006 183.298 87.4149 183.055 86.6045 183.055C85.7942 183.055 85.071 183.304 84.4352 183.803C83.8118 184.289 83.4253 184.944 83.2757 185.767ZM97.7137 191.564C96.4046 191.564 95.3012 191.09 94.4036 190.143C93.5059 189.195 93.0571 188.048 93.0571 186.702C93.0571 185.355 93.5059 184.208 94.4036 183.261C95.3012 182.313 96.4046 181.839 97.7137 181.839C98.4243 181.839 99.0914 182.001 99.7147 182.326C100.351 182.65 100.837 183.074 101.173 183.597V182.026H102.483V191.377H101.173V189.806C100.837 190.33 100.351 190.754 99.7147 191.078C99.0914 191.402 98.4243 191.564 97.7137 191.564ZM95.3573 189.301C96.0056 189.999 96.8347 190.348 97.8446 190.348C98.8545 190.348 99.6773 189.999 100.313 189.301C100.961 188.59 101.286 187.724 101.286 186.702C101.286 185.679 100.961 184.819 100.313 184.121C99.6773 183.41 98.8545 183.055 97.8446 183.055C96.8347 183.055 96.0056 183.41 95.3573 184.121C94.7215 184.819 94.4036 185.679 94.4036 186.702C94.4036 187.724 94.7215 188.59 95.3573 189.301ZM108.8 191.564C107.914 191.564 107.148 191.371 106.499 190.984C105.864 190.585 105.421 190.012 105.172 189.264L106.35 188.777C106.499 189.276 106.805 189.669 107.266 189.956C107.74 190.242 108.257 190.386 108.818 190.386C109.342 190.386 109.772 190.261 110.109 190.012C110.458 189.75 110.632 189.395 110.632 188.946C110.632 188.572 110.495 188.26 110.221 188.011C109.959 187.749 109.51 187.512 108.874 187.3L107.865 186.982C106.368 186.521 105.62 185.636 105.62 184.327C105.62 183.566 105.913 182.961 106.499 182.513C107.098 182.064 107.846 181.839 108.744 181.839C110.152 181.839 111.162 182.388 111.773 183.485L110.726 184.14C110.227 183.379 109.541 182.999 108.669 182.999C108.207 182.999 107.802 183.123 107.453 183.373C107.104 183.61 106.929 183.909 106.929 184.27C106.929 184.969 107.416 185.474 108.388 185.785L109.454 186.122C111.112 186.646 111.941 187.549 111.941 188.834C111.941 189.694 111.648 190.367 111.062 190.853C110.489 191.327 109.735 191.564 108.8 191.564ZM127.311 191.377L124.823 184.252L122.355 191.377H121.27L118.072 182.026H119.419L121.831 189.133L124.318 182.026H125.328L127.797 189.133L130.228 182.026H131.593L128.395 191.377H127.311ZM134.51 179.221C134.224 179.221 133.98 179.128 133.781 178.941C133.594 178.741 133.5 178.504 133.5 178.23C133.5 177.956 133.594 177.725 133.781 177.538C133.98 177.339 134.224 177.239 134.51 177.239C134.785 177.239 135.015 177.339 135.202 177.538C135.389 177.725 135.483 177.956 135.483 178.23C135.483 178.504 135.389 178.741 135.202 178.941C135.015 179.128 134.785 179.221 134.51 179.221ZM133.837 191.377V182.026H135.146V191.377H133.837ZM142.088 191.47C141.302 191.47 140.66 191.246 140.162 190.797C139.675 190.336 139.432 189.663 139.432 188.777V183.261H137.431V182.026H139.432V179.427H140.741V182.026H143.472V183.261H140.741V188.665C140.741 189.239 140.866 189.65 141.115 189.9C141.377 190.136 141.77 190.255 142.294 190.255C142.767 190.255 143.16 190.186 143.472 190.049V191.227C143.06 191.389 142.599 191.47 142.088 191.47ZM147.29 191.377H145.981V177.351H147.29V183.597C147.926 182.425 148.948 181.839 150.357 181.839C151.392 181.839 152.234 182.17 152.882 182.83C153.543 183.491 153.873 184.389 153.873 185.523V191.377H152.564V185.71C152.564 184.9 152.346 184.258 151.909 183.784C151.486 183.298 150.918 183.055 150.208 183.055C149.36 183.055 148.662 183.385 148.113 184.046C147.565 184.694 147.29 185.586 147.29 186.72V191.377ZM165.308 191.47C164.523 191.47 163.881 191.246 163.382 190.797C162.896 190.336 162.652 189.663 162.652 188.777V183.261H160.651V182.026H162.652V179.427H163.962V182.026H166.692V183.261H163.962V188.665C163.962 189.239 164.086 189.65 164.336 189.9C164.597 190.136 164.99 190.255 165.514 190.255C165.988 190.255 166.38 190.186 166.692 190.049V191.227C166.281 191.389 165.819 191.47 165.308 191.47ZM173.113 191.564C171.679 191.564 170.52 191.103 169.635 190.18C168.749 189.245 168.307 188.086 168.307 186.702C168.307 185.33 168.762 184.177 169.672 183.242C170.582 182.307 171.742 181.839 173.15 181.839C174.41 181.839 175.457 182.263 176.292 183.111C177.128 183.959 177.545 185.112 177.545 186.571V186.926H169.653C169.653 187.899 169.978 188.715 170.626 189.376C171.274 190.024 172.103 190.348 173.113 190.348C173.861 190.348 174.472 190.205 174.946 189.918C175.432 189.619 175.85 189.176 176.199 188.59L177.265 189.282C176.38 190.803 174.996 191.564 173.113 191.564ZM169.766 185.767H176.18C176.055 184.931 175.713 184.27 175.152 183.784C174.59 183.298 173.905 183.055 173.094 183.055C172.284 183.055 171.561 183.304 170.925 183.803C170.302 184.289 169.915 184.944 169.766 185.767ZM184.204 191.564C182.894 191.564 181.791 191.09 180.893 190.143C179.996 189.195 179.547 188.048 179.547 186.702C179.547 185.355 179.996 184.208 180.893 183.261C181.791 182.313 182.894 181.839 184.204 181.839C184.914 181.839 185.581 182.001 186.205 182.326C186.84 182.65 187.327 183.074 187.663 183.597V182.026H188.972V191.377H187.663V189.806C187.327 190.33 186.84 190.754 186.205 191.078C185.581 191.402 184.914 191.564 184.204 191.564ZM181.847 189.301C182.495 189.999 183.325 190.348 184.334 190.348C185.344 190.348 186.167 189.999 186.803 189.301C187.451 188.59 187.775 187.724 187.775 186.702C187.775 185.679 187.451 184.819 186.803 184.121C186.167 183.41 185.344 183.055 184.334 183.055C183.325 183.055 182.495 183.41 181.847 184.121C181.211 184.819 180.893 185.679 180.893 186.702C180.893 187.724 181.211 188.59 181.847 189.301ZM204.678 191.377V185.71C204.678 184.913 204.503 184.27 204.154 183.784C203.817 183.298 203.331 183.055 202.695 183.055C201.86 183.055 201.187 183.391 200.675 184.065C200.177 184.726 199.927 185.611 199.927 186.72V191.377H198.618V185.71C198.618 184.913 198.444 184.27 198.095 183.784C197.758 183.298 197.278 183.055 196.655 183.055C195.832 183.055 195.159 183.391 194.635 184.065C194.124 184.726 193.868 185.611 193.868 186.72V191.377H192.559V182.026H193.868V183.597C194.142 183.049 194.535 182.619 195.046 182.307C195.558 181.995 196.137 181.839 196.786 181.839C197.484 181.839 198.082 182.026 198.581 182.4C199.092 182.774 199.46 183.292 199.684 183.953C199.921 183.304 200.308 182.793 200.844 182.419C201.392 182.033 202.041 181.839 202.789 181.839C203.761 181.839 204.534 182.182 205.108 182.868C205.694 183.541 205.987 184.426 205.987 185.523V191.377H204.678ZM218.254 191.564C216.945 191.564 215.841 191.09 214.944 190.143C214.046 189.195 213.597 188.048 213.597 186.702C213.597 185.355 214.046 184.208 214.944 183.261C215.841 182.313 216.945 181.839 218.254 181.839C218.964 181.839 219.631 182.001 220.255 182.326C220.891 182.65 221.377 183.074 221.714 183.597V182.026H223.023V191.377H221.714V189.806C221.377 190.33 220.891 190.754 220.255 191.078C219.631 191.402 218.964 191.564 218.254 191.564ZM215.897 189.301C216.546 189.999 217.375 190.348 218.385 190.348C219.395 190.348 220.217 189.999 220.853 189.301C221.502 188.59 221.826 187.724 221.826 186.702C221.826 185.679 221.502 184.819 220.853 184.121C220.217 183.41 219.395 183.055 218.385 183.055C217.375 183.055 216.546 183.41 215.897 184.121C215.262 184.819 214.944 185.679 214.944 186.702C214.944 187.724 215.262 188.59 215.897 189.301ZM226.609 191.377V182.026H227.918V183.597C228.554 182.425 229.577 181.839 230.985 181.839C232.02 181.839 232.862 182.17 233.51 182.83C234.171 183.491 234.501 184.389 234.501 185.523V191.377H233.192V185.71C233.192 184.9 232.974 184.258 232.538 183.784C232.114 183.298 231.546 183.055 230.836 183.055C229.988 183.055 229.29 183.385 228.741 184.046C228.193 184.694 227.918 185.586 227.918 186.72V191.377H226.609ZM241.812 191.564C240.503 191.564 239.4 191.09 238.502 190.143C237.605 189.195 237.156 188.048 237.156 186.702C237.156 185.355 237.605 184.208 238.502 183.261C239.4 182.313 240.503 181.839 241.812 181.839C242.523 181.839 243.19 182.001 243.813 182.326C244.449 182.65 244.935 183.074 245.272 183.597V177.351H246.581V191.377H245.272V189.806C244.935 190.33 244.449 190.754 243.813 191.078C243.19 191.402 242.523 191.564 241.812 191.564ZM239.456 189.301C240.104 189.999 240.933 190.348 241.943 190.348C242.953 190.348 243.776 189.999 244.412 189.301C245.06 188.59 245.384 187.724 245.384 186.702C245.384 185.679 245.06 184.819 244.412 184.121C243.776 183.41 242.953 183.055 241.943 183.055C240.933 183.055 240.104 183.41 239.456 184.121C238.82 184.819 238.502 185.679 238.502 186.702C238.502 187.724 238.82 188.59 239.456 189.301ZM256.641 189.151C257.277 189.825 258.099 190.161 259.109 190.161C260.119 190.161 260.936 189.825 261.559 189.151C262.195 188.478 262.513 187.63 262.513 186.608C262.513 185.586 262.195 184.738 261.559 184.065C260.936 183.391 260.119 183.055 259.109 183.055C258.099 183.055 257.277 183.391 256.641 184.065C256.017 184.738 255.706 185.586 255.706 186.608C255.706 187.63 256.017 188.478 256.641 189.151ZM259.091 195.473C258.081 195.473 257.189 195.279 256.416 194.893C255.643 194.506 255.064 194.02 254.677 193.434L255.706 192.555C256.516 193.69 257.644 194.257 259.091 194.257C259.988 194.257 260.761 193.97 261.41 193.397C262.07 192.823 262.401 191.963 262.401 190.816V189.619C262.052 190.143 261.572 190.567 260.961 190.891C260.35 191.215 259.689 191.377 258.978 191.377C257.657 191.377 256.553 190.922 255.668 190.012C254.795 189.089 254.359 187.955 254.359 186.608C254.359 185.262 254.795 184.133 255.668 183.223C256.553 182.301 257.657 181.839 258.978 181.839C259.689 181.839 260.35 182.001 260.961 182.326C261.572 182.65 262.052 183.074 262.401 183.597V182.026H263.71V190.891C263.71 192.362 263.28 193.49 262.419 194.276C261.559 195.074 260.45 195.473 259.091 195.473ZM271.337 191.564C269.903 191.564 268.744 191.103 267.859 190.18C266.974 189.245 266.531 188.086 266.531 186.702C266.531 185.33 266.986 184.177 267.896 183.242C268.806 182.307 269.966 181.839 271.375 181.839C272.634 181.839 273.681 182.263 274.516 183.111C275.352 183.959 275.769 185.112 275.769 186.571V186.926H267.878C267.878 187.899 268.202 188.715 268.85 189.376C269.498 190.024 270.327 190.348 271.337 190.348C272.085 190.348 272.696 190.205 273.17 189.918C273.656 189.619 274.074 189.176 274.423 188.59L275.489 189.282C274.604 190.803 273.22 191.564 271.337 191.564ZM267.99 185.767H274.404C274.28 184.931 273.937 184.27 273.376 183.784C272.815 183.298 272.129 183.055 271.319 183.055C270.508 183.055 269.785 183.304 269.149 183.803C268.526 184.289 268.139 184.944 267.99 185.767ZM278.557 191.377V182.026H279.866V183.597C280.501 182.425 281.524 181.839 282.933 181.839C283.967 181.839 284.809 182.17 285.457 182.83C286.118 183.491 286.449 184.389 286.449 185.523V191.377H285.139V185.71C285.139 184.9 284.921 184.258 284.485 183.784C284.061 183.298 283.494 183.055 282.783 183.055C281.935 183.055 281.237 183.385 280.689 184.046C280.14 184.694 279.866 185.586 279.866 186.72V191.377H278.557ZM293.928 191.564C292.494 191.564 291.335 191.103 290.449 190.18C289.564 189.245 289.122 188.086 289.122 186.702C289.122 185.33 289.577 184.177 290.487 183.242C291.397 182.307 292.556 181.839 293.965 181.839C295.225 181.839 296.272 182.263 297.107 183.111C297.942 183.959 298.36 185.112 298.36 186.571V186.926H290.468C290.468 187.899 290.792 188.715 291.441 189.376C292.089 190.024 292.918 190.348 293.928 190.348C294.676 190.348 295.287 190.205 295.761 189.918C296.247 189.619 296.665 189.176 297.014 188.59L298.08 189.282C297.194 190.803 295.81 191.564 293.928 191.564ZM290.58 185.767H296.995C296.87 184.931 296.527 184.27 295.966 183.784C295.405 183.298 294.72 183.055 293.909 183.055C293.099 183.055 292.376 183.304 291.74 183.803C291.116 184.289 290.73 184.944 290.58 185.767ZM301.147 191.377V182.026H302.456V183.953C302.656 183.329 303.011 182.837 303.522 182.475C304.033 182.114 304.582 181.933 305.168 181.933C305.43 181.933 305.654 181.958 305.841 182.008V183.373C305.617 183.286 305.355 183.242 305.056 183.242C304.395 183.242 303.796 183.541 303.26 184.14C302.724 184.738 302.456 185.586 302.456 186.683V191.377H301.147ZM311.766 191.564C310.457 191.564 309.354 191.09 308.456 190.143C307.558 189.195 307.109 188.048 307.109 186.702C307.109 185.355 307.558 184.208 308.456 183.261C309.354 182.313 310.457 181.839 311.766 181.839C312.477 181.839 313.144 182.001 313.767 182.326C314.403 182.65 314.889 183.074 315.226 183.597V182.026H316.535V191.377H315.226V189.806C314.889 190.33 314.403 190.754 313.767 191.078C313.144 191.402 312.477 191.564 311.766 191.564ZM309.41 189.301C310.058 189.999 310.887 190.348 311.897 190.348C312.907 190.348 313.73 189.999 314.366 189.301C315.014 188.59 315.338 187.724 315.338 186.702C315.338 185.679 315.014 184.819 314.366 184.121C313.73 183.41 312.907 183.055 311.897 183.055C310.887 183.055 310.058 183.41 309.41 184.121C308.774 184.819 308.456 185.679 308.456 186.702C308.456 187.724 308.774 188.59 309.41 189.301ZM323.469 191.47C322.684 191.47 322.042 191.246 321.543 190.797C321.057 190.336 320.814 189.663 320.814 188.777V183.261H318.813V182.026H320.814V179.427H322.123V182.026H324.853V183.261H322.123V188.665C322.123 189.239 322.247 189.65 322.497 189.9C322.759 190.136 323.151 190.255 323.675 190.255C324.149 190.255 324.541 190.186 324.853 190.049V191.227C324.442 191.389 323.98 191.47 323.469 191.47ZM331.274 191.564C329.84 191.564 328.681 191.103 327.796 190.18C326.911 189.245 326.468 188.086 326.468 186.702C326.468 185.33 326.923 184.177 327.833 183.242C328.743 182.307 329.903 181.839 331.312 181.839C332.571 181.839 333.618 182.263 334.453 183.111C335.289 183.959 335.706 185.112 335.706 186.571V186.926H327.814C327.814 187.899 328.139 188.715 328.787 189.376C329.435 190.024 330.264 190.348 331.274 190.348C332.022 190.348 332.633 190.205 333.107 189.918C333.593 189.619 334.011 189.176 334.36 188.59L335.426 189.282C334.541 190.803 333.157 191.564 331.274 191.564ZM327.927 185.767H334.341C334.217 184.931 333.874 184.27 333.313 183.784C332.752 183.298 332.066 183.055 331.255 183.055C330.445 183.055 329.722 183.304 329.086 183.803C328.463 184.289 328.076 184.944 327.927 185.767ZM347.323 191.564C346.014 191.564 344.91 191.09 344.013 190.143C343.115 189.195 342.666 188.048 342.666 186.702C342.666 185.355 343.115 184.208 344.013 183.261C344.91 182.313 346.014 181.839 347.323 181.839C348.033 181.839 348.7 182.001 349.324 182.326C349.96 182.65 350.446 183.074 350.782 183.597V182.026H352.092V191.377H350.782V189.806C350.446 190.33 349.96 190.754 349.324 191.078C348.7 191.402 348.033 191.564 347.323 191.564ZM344.966 189.301C345.615 189.999 346.444 190.348 347.454 190.348C348.463 190.348 349.286 189.999 349.922 189.301C350.57 188.59 350.895 187.724 350.895 186.702C350.895 185.679 350.57 184.819 349.922 184.121C349.286 183.41 348.463 183.055 347.454 183.055C346.444 183.055 345.615 183.41 344.966 184.121C344.33 184.819 344.013 185.679 344.013 186.702C344.013 187.724 344.33 188.59 344.966 189.301ZM368.181 191.377L365.694 184.252L363.225 191.377H362.141L358.943 182.026H360.289L362.702 189.133L365.189 182.026H366.199L368.667 189.133L371.099 182.026H372.464L369.266 191.377H368.181ZM375.381 179.221C375.094 179.221 374.851 179.128 374.651 178.941C374.464 178.741 374.371 178.504 374.371 178.23C374.371 177.956 374.464 177.725 374.651 177.538C374.851 177.339 375.094 177.239 375.381 177.239C375.655 177.239 375.886 177.339 376.073 177.538C376.26 177.725 376.353 177.956 376.353 178.23C376.353 178.504 376.26 178.741 376.073 178.941C375.886 179.128 375.655 179.221 375.381 179.221ZM374.708 191.377V182.026H376.017V191.377H374.708ZM383.482 191.564C382.173 191.564 381.069 191.09 380.172 190.143C379.274 189.195 378.825 188.048 378.825 186.702C378.825 185.355 379.274 184.208 380.172 183.261C381.069 182.313 382.173 181.839 383.482 181.839C384.193 181.839 384.86 182.001 385.483 182.326C386.119 182.65 386.605 183.074 386.942 183.597V177.351H388.251V191.377H386.942V189.806C386.605 190.33 386.119 190.754 385.483 191.078C384.86 191.402 384.193 191.564 383.482 191.564ZM381.126 189.301C381.774 189.999 382.603 190.348 383.613 190.348C384.623 190.348 385.446 189.999 386.081 189.301C386.73 188.59 387.054 187.724 387.054 186.702C387.054 185.679 386.73 184.819 386.081 184.121C385.446 183.41 384.623 183.055 383.613 183.055C382.603 183.055 381.774 183.41 381.126 184.121C380.49 184.819 380.172 185.679 380.172 186.702C380.172 187.724 380.49 188.59 381.126 189.301ZM395.877 191.564C394.443 191.564 393.284 191.103 392.399 190.18C391.513 189.245 391.071 188.086 391.071 186.702C391.071 185.33 391.526 184.177 392.436 183.242C393.346 182.307 394.506 181.839 395.914 181.839C397.174 181.839 398.221 182.263 399.056 183.111C399.892 183.959 400.309 185.112 400.309 186.571V186.926H392.417C392.417 187.899 392.741 188.715 393.39 189.376C394.038 190.024 394.867 190.348 395.877 190.348C396.625 190.348 397.236 190.205 397.71 189.918C398.196 189.619 398.614 189.176 398.963 188.59L400.029 189.282C399.143 190.803 397.76 191.564 395.877 191.564ZM392.529 185.767H398.944C398.819 184.931 398.476 184.27 397.915 183.784C397.354 183.298 396.669 183.055 395.858 183.055C395.048 183.055 394.325 183.304 393.689 183.803C393.066 184.289 392.679 184.944 392.529 185.767ZM21.3966 223.377V214.026H22.7056V215.953C22.9051 215.329 23.2604 214.837 23.7716 214.475C24.2828 214.114 24.8314 213.933 25.4173 213.933C25.6791 213.933 25.9036 213.958 26.0906 214.008V215.373C25.8662 215.286 25.6043 215.242 25.3051 215.242C24.6443 215.242 24.0459 215.541 23.5098 216.14C22.9737 216.738 22.7056 217.586 22.7056 218.683V223.377H21.3966ZM32.0155 223.564C30.7064 223.564 29.6031 223.09 28.7054 222.143C27.8077 221.195 27.3589 220.048 27.3589 218.702C27.3589 217.355 27.8077 216.208 28.7054 215.261C29.6031 214.313 30.7064 213.839 32.0155 213.839C32.7262 213.839 33.3932 214.001 34.0166 214.326C34.6524 214.65 35.1386 215.074 35.4753 215.597V214.026H36.7844V223.377H35.4753V221.806C35.1386 222.33 34.6524 222.754 34.0166 223.078C33.3932 223.402 32.7262 223.564 32.0155 223.564ZM29.6592 221.301C30.3075 221.999 31.1366 222.348 32.1464 222.348C33.1563 222.348 33.9792 221.999 34.615 221.301C35.2633 220.59 35.5875 219.724 35.5875 218.702C35.5875 217.679 35.2633 216.819 34.615 216.121C33.9792 215.41 33.1563 215.055 32.1464 215.055C31.1366 215.055 30.3075 215.41 29.6592 216.121C29.0233 216.819 28.7054 217.679 28.7054 218.702C28.7054 219.724 29.0233 220.59 29.6592 221.301ZM40.3711 223.377V214.026H41.6802V215.597C42.316 214.425 43.3383 213.839 44.7472 213.839C45.782 213.839 46.6235 214.17 47.2718 214.83C47.9326 215.491 48.263 216.389 48.263 217.523V223.377H46.9539V217.71C46.9539 216.9 46.7357 216.258 46.2994 215.784C45.8755 215.298 45.3082 215.055 44.5976 215.055C43.7498 215.055 43.0516 215.385 42.503 216.046C41.9544 216.694 41.6802 217.586 41.6802 218.72V223.377H40.3711ZM53.2177 221.151C53.8535 221.825 54.6764 222.161 55.6863 222.161C56.6961 222.161 57.5127 221.825 58.1361 221.151C58.772 220.478 59.0899 219.63 59.0899 218.608C59.0899 217.586 58.772 216.738 58.1361 216.065C57.5127 215.391 56.6961 215.055 55.6863 215.055C54.6764 215.055 53.8535 215.391 53.2177 216.065C52.5943 216.738 52.2826 217.586 52.2826 218.608C52.2826 219.63 52.5943 220.478 53.2177 221.151ZM55.6676 227.473C54.6577 227.473 53.7663 227.279 52.9933 226.893C52.2203 226.506 51.6405 226.02 51.254 225.434L52.2826 224.555C53.093 225.69 54.2213 226.257 55.6676 226.257C56.5652 226.257 57.3382 225.97 57.9865 225.397C58.6473 224.823 58.9777 223.963 58.9777 222.816V221.619C58.6286 222.143 58.1486 222.567 57.5377 222.891C56.9268 223.215 56.266 223.377 55.5553 223.377C54.2338 223.377 53.1304 222.922 52.2452 222.012C51.3725 221.089 50.9361 219.955 50.9361 218.608C50.9361 217.262 51.3725 216.133 52.2452 215.223C53.1304 214.301 54.2338 213.839 55.5553 213.839C56.266 213.839 56.9268 214.001 57.5377 214.326C58.1486 214.65 58.6286 215.074 58.9777 215.597V214.026H60.2868V222.891C60.2868 224.362 59.8566 225.49 58.9964 226.276C58.1361 227.074 57.0265 227.473 55.6676 227.473ZM67.9143 223.564C66.4805 223.564 65.321 223.103 64.4358 222.18C63.5506 221.245 63.108 220.086 63.108 218.702C63.108 217.33 63.5631 216.177 64.4732 215.242C65.3834 214.307 66.5428 213.839 67.9517 213.839C69.2109 213.839 70.2582 214.263 71.0935 215.111C71.9288 215.959 72.3465 217.112 72.3465 218.571V218.926H64.4545C64.4545 219.899 64.7787 220.715 65.427 221.376C66.0753 222.024 66.9044 222.348 67.9143 222.348C68.6623 222.348 69.2732 222.205 69.747 221.918C70.2332 221.619 70.6509 221.176 71 220.59L72.066 221.282C71.1808 222.803 69.7969 223.564 67.9143 223.564ZM64.5667 217.767H70.9813C70.8566 216.931 70.5138 216.27 69.9527 215.784C69.3917 215.298 68.706 215.055 67.8956 215.055C67.0852 215.055 66.3621 215.304 65.7262 215.803C65.1028 216.289 64.7164 216.944 64.5667 217.767ZM87.6843 222.161C86.7617 223.096 85.596 223.564 84.1872 223.564C82.7783 223.564 81.6126 223.096 80.69 222.161C79.7674 221.214 79.3061 220.061 79.3061 218.702C79.3061 217.343 79.7674 216.196 80.69 215.261C81.6126 214.313 82.7783 213.839 84.1872 213.839C85.596 213.839 86.7617 214.313 87.6843 215.261C88.6069 216.196 89.0682 217.343 89.0682 218.702C89.0682 220.061 88.6069 221.214 87.6843 222.161ZM81.6251 221.301C82.2859 221.999 83.1399 222.348 84.1872 222.348C85.2345 222.348 86.0822 221.999 86.7306 221.301C87.3913 220.59 87.7217 219.724 87.7217 218.702C87.7217 217.679 87.3913 216.819 86.7306 216.121C86.0822 215.41 85.2345 215.055 84.1872 215.055C83.1399 215.055 82.2859 215.41 81.6251 216.121C80.9768 216.819 80.6526 217.679 80.6526 218.702C80.6526 219.724 80.9768 220.59 81.6251 221.301ZM92.4445 223.377V215.261H90.4435V214.026H92.4445V211.932C92.4445 211.047 92.6814 210.38 93.1552 209.931C93.6414 209.469 94.2835 209.239 95.0814 209.239C95.6051 209.239 96.0726 209.32 96.484 209.482V210.66C96.1723 210.523 95.7734 210.454 95.2871 210.454C94.7635 210.454 94.377 210.579 94.1277 210.828C93.8783 211.065 93.7536 211.47 93.7536 212.044V214.026H96.484V215.261H93.7536V223.377H92.4445ZM107.243 223.564C105.834 223.564 104.669 223.096 103.746 222.161C102.823 221.214 102.362 220.061 102.362 218.702C102.362 217.343 102.823 216.196 103.746 215.261C104.669 214.313 105.834 213.839 107.243 213.839C108.191 213.839 109.032 214.057 109.768 214.494C110.516 214.93 111.102 215.529 111.526 216.289L110.385 216.944C110.086 216.358 109.662 215.896 109.113 215.56C108.577 215.223 107.954 215.055 107.243 215.055C106.196 215.055 105.342 215.41 104.681 216.121C104.033 216.819 103.709 217.679 103.709 218.702C103.709 219.724 104.033 220.59 104.681 221.301C105.342 221.999 106.196 222.348 107.243 222.348C107.954 222.348 108.577 222.18 109.113 221.843C109.662 221.507 110.086 221.046 110.385 220.46L111.526 221.114C111.102 221.875 110.516 222.473 109.768 222.909C109.032 223.346 108.191 223.564 107.243 223.564ZM114.132 223.377V214.026H115.441V215.953C115.641 215.329 115.996 214.837 116.507 214.475C117.019 214.114 117.567 213.933 118.153 213.933C118.415 213.933 118.639 213.958 118.826 214.008V215.373C118.602 215.286 118.34 215.242 118.041 215.242C117.38 215.242 116.782 215.541 116.246 216.14C115.709 216.738 115.441 217.586 115.441 218.683V223.377H114.132ZM124.901 223.564C123.468 223.564 122.308 223.103 121.423 222.18C120.538 221.245 120.095 220.086 120.095 218.702C120.095 217.33 120.55 216.177 121.46 215.242C122.37 214.307 123.53 213.839 124.939 213.839C126.198 213.839 127.245 214.263 128.081 215.111C128.916 215.959 129.334 217.112 129.334 218.571V218.926H121.442C121.442 219.899 121.766 220.715 122.414 221.376C123.062 222.024 123.892 222.348 124.901 222.348C125.649 222.348 126.26 222.205 126.734 221.918C127.22 221.619 127.638 221.176 127.987 220.59L129.053 221.282C128.168 222.803 126.784 223.564 124.901 223.564ZM121.554 217.767H127.968C127.844 216.931 127.501 216.27 126.94 215.784C126.379 215.298 125.693 215.055 124.883 215.055C124.072 215.055 123.349 215.304 122.713 215.803C122.09 216.289 121.703 216.944 121.554 217.767ZM135.992 223.564C134.683 223.564 133.579 223.09 132.682 222.143C131.784 221.195 131.335 220.048 131.335 218.702C131.335 217.355 131.784 216.208 132.682 215.261C133.579 214.313 134.683 213.839 135.992 213.839C136.702 213.839 137.369 214.001 137.993 214.326C138.629 214.65 139.115 215.074 139.452 215.597V214.026H140.761V223.377H139.452V221.806C139.115 222.33 138.629 222.754 137.993 223.078C137.369 223.402 136.702 223.564 135.992 223.564ZM133.635 221.301C134.284 221.999 135.113 222.348 136.123 222.348C137.133 222.348 137.955 221.999 138.591 221.301C139.24 220.59 139.564 219.724 139.564 218.702C139.564 217.679 139.24 216.819 138.591 216.121C137.955 215.41 137.133 215.055 136.123 215.055C135.113 215.055 134.284 215.41 133.635 216.121C133 216.819 132.682 217.679 132.682 218.702C132.682 219.724 133 220.59 133.635 221.301ZM147.695 223.47C146.909 223.47 146.267 223.246 145.769 222.797C145.282 222.336 145.039 221.663 145.039 220.777V215.261H143.038V214.026H145.039V211.427H146.348V214.026H149.079V215.261H146.348V220.665C146.348 221.239 146.473 221.65 146.722 221.9C146.984 222.136 147.377 222.255 147.901 222.255C148.374 222.255 148.767 222.186 149.079 222.049V223.227C148.667 223.389 148.206 223.47 147.695 223.47ZM152.262 211.221C151.975 211.221 151.732 211.128 151.532 210.941C151.345 210.741 151.252 210.504 151.252 210.23C151.252 209.956 151.345 209.725 151.532 209.538C151.732 209.339 151.975 209.239 152.262 209.239C152.536 209.239 152.766 209.339 152.953 209.538C153.14 209.725 153.234 209.956 153.234 210.23C153.234 210.504 153.14 210.741 152.953 210.941C152.766 211.128 152.536 211.221 152.262 211.221ZM151.588 223.377V214.026H152.897V223.377H151.588ZM159.409 223.377L155.033 214.026H156.492L159.914 221.451L163.336 214.026H164.814L160.437 223.377H159.409ZM170.822 223.564C169.388 223.564 168.229 223.103 167.343 222.18C166.458 221.245 166.016 220.086 166.016 218.702C166.016 217.33 166.471 216.177 167.381 215.242C168.291 214.307 169.45 213.839 170.859 213.839C172.118 213.839 173.166 214.263 174.001 215.111C174.836 215.959 175.254 217.112 175.254 218.571V218.926H167.362C167.362 219.899 167.686 220.715 168.335 221.376C168.983 222.024 169.812 222.348 170.822 222.348C171.57 222.348 172.181 222.205 172.655 221.918C173.141 221.619 173.558 221.176 173.908 220.59L174.974 221.282C174.088 222.803 172.704 223.564 170.822 223.564ZM167.474 217.767H173.889C173.764 216.931 173.421 216.27 172.86 215.784C172.299 215.298 171.614 215.055 170.803 215.055C169.993 215.055 169.27 215.304 168.634 215.803C168.01 216.289 167.624 216.944 167.474 217.767ZM183.672 211.221C183.386 211.221 183.143 211.128 182.943 210.941C182.756 210.741 182.663 210.504 182.663 210.23C182.663 209.956 182.756 209.725 182.943 209.538C183.143 209.339 183.386 209.239 183.672 209.239C183.947 209.239 184.177 209.339 184.364 209.538C184.551 209.725 184.645 209.956 184.645 210.23C184.645 210.504 184.551 210.741 184.364 210.941C184.177 211.128 183.947 211.221 183.672 211.221ZM182.999 223.377V214.026H184.308V223.377H182.999ZM191.774 223.564C190.464 223.564 189.361 223.09 188.463 222.143C187.566 221.195 187.117 220.048 187.117 218.702C187.117 217.355 187.566 216.208 188.463 215.261C189.361 214.313 190.464 213.839 191.774 213.839C192.484 213.839 193.151 214.001 193.775 214.326C194.41 214.65 194.897 215.074 195.233 215.597V209.351H196.542V223.377H195.233V221.806C194.897 222.33 194.41 222.754 193.775 223.078C193.151 223.402 192.484 223.564 191.774 223.564ZM189.417 221.301C190.066 221.999 190.895 222.348 191.904 222.348C192.914 222.348 193.737 221.999 194.373 221.301C195.021 220.59 195.346 219.724 195.346 218.702C195.346 217.679 195.021 216.819 194.373 216.121C193.737 215.41 192.914 215.055 191.904 215.055C190.895 215.055 190.066 215.41 189.417 216.121C188.781 216.819 188.463 217.679 188.463 218.702C188.463 219.724 188.781 220.59 189.417 221.301ZM204.169 223.564C202.735 223.564 201.575 223.103 200.69 222.18C199.805 221.245 199.362 220.086 199.362 218.702C199.362 217.33 199.817 216.177 200.728 215.242C201.638 214.307 202.797 213.839 204.206 213.839C205.465 213.839 206.512 214.263 207.348 215.111C208.183 215.959 208.601 217.112 208.601 218.571V218.926H200.709C200.709 219.899 201.033 220.715 201.681 221.376C202.33 222.024 203.159 222.348 204.169 222.348C204.917 222.348 205.528 222.205 206.001 221.918C206.488 221.619 206.905 221.176 207.254 220.59L208.32 221.282C207.435 222.803 206.051 223.564 204.169 223.564ZM200.821 217.767H207.236C207.111 216.931 206.768 216.27 206.207 215.784C205.646 215.298 204.96 215.055 204.15 215.055C203.339 215.055 202.616 215.304 201.981 215.803C201.357 216.289 200.971 216.944 200.821 217.767ZM215.259 223.564C213.95 223.564 212.847 223.09 211.949 222.143C211.051 221.195 210.602 220.048 210.602 218.702C210.602 217.355 211.051 216.208 211.949 215.261C212.847 214.313 213.95 213.839 215.259 213.839C215.97 213.839 216.637 214.001 217.26 214.326C217.896 214.65 218.382 215.074 218.719 215.597V214.026H220.028V223.377H218.719V221.806C218.382 222.33 217.896 222.754 217.26 223.078C216.637 223.402 215.97 223.564 215.259 223.564ZM212.903 221.301C213.551 221.999 214.38 222.348 215.39 222.348C216.4 222.348 217.223 221.999 217.859 221.301C218.507 220.59 218.831 219.724 218.831 218.702C218.831 217.679 218.507 216.819 217.859 216.121C217.223 215.41 216.4 215.055 215.39 215.055C214.38 215.055 213.551 215.41 212.903 216.121C212.267 216.819 211.949 217.679 211.949 218.702C211.949 219.724 212.267 220.59 212.903 221.301ZM226.345 223.564C225.46 223.564 224.693 223.371 224.045 222.984C223.409 222.585 222.966 222.012 222.717 221.264L223.895 220.777C224.045 221.276 224.35 221.669 224.811 221.956C225.285 222.242 225.803 222.386 226.364 222.386C226.887 222.386 227.317 222.261 227.654 222.012C228.003 221.75 228.178 221.395 228.178 220.946C228.178 220.572 228.041 220.26 227.766 220.011C227.504 219.749 227.056 219.512 226.42 219.3L225.41 218.982C223.914 218.521 223.166 217.636 223.166 216.327C223.166 215.566 223.459 214.961 224.045 214.513C224.643 214.064 225.391 213.839 226.289 213.839C227.698 213.839 228.708 214.388 229.318 215.485L228.271 216.14C227.772 215.379 227.087 214.999 226.214 214.999C225.753 214.999 225.348 215.123 224.998 215.373C224.649 215.61 224.475 215.909 224.475 216.27C224.475 216.969 224.961 217.474 225.934 217.785L227 218.122C228.658 218.646 229.487 219.549 229.487 220.834C229.487 221.694 229.194 222.367 228.608 222.853C228.034 223.327 227.28 223.564 226.345 223.564ZM237.73 223.377V215.261H235.728V214.026H237.73V211.932C237.73 211.047 237.966 210.38 238.44 209.931C238.926 209.469 239.568 209.239 240.366 209.239C240.89 209.239 241.358 209.32 241.769 209.482V210.66C241.457 210.523 241.058 210.454 240.572 210.454C240.048 210.454 239.662 210.579 239.413 210.828C239.163 211.065 239.039 211.47 239.039 212.044V214.026H241.769V215.261H239.039V223.377H237.73ZM251.359 222.161C250.437 223.096 249.271 223.564 247.862 223.564C246.453 223.564 245.288 223.096 244.365 222.161C243.443 221.214 242.981 220.061 242.981 218.702C242.981 217.343 243.443 216.196 244.365 215.261C245.288 214.313 246.453 213.839 247.862 213.839C249.271 213.839 250.437 214.313 251.359 215.261C252.282 216.196 252.743 217.343 252.743 218.702C252.743 220.061 252.282 221.214 251.359 222.161ZM245.3 221.301C245.961 221.999 246.815 222.348 247.862 222.348C248.91 222.348 249.757 221.999 250.406 221.301C251.066 220.59 251.397 219.724 251.397 218.702C251.397 217.679 251.066 216.819 250.406 216.121C249.757 215.41 248.91 215.055 247.862 215.055C246.815 215.055 245.961 215.41 245.3 216.121C244.652 216.819 244.328 217.679 244.328 218.702C244.328 219.724 244.652 220.59 245.3 221.301ZM255.555 223.377V214.026H256.864V215.953C257.064 215.329 257.419 214.837 257.93 214.475C258.441 214.114 258.99 213.933 259.576 213.933C259.838 213.933 260.062 213.958 260.249 214.008V215.373C260.025 215.286 259.763 215.242 259.464 215.242C258.803 215.242 258.204 215.541 257.668 216.14C257.132 216.738 256.864 217.586 256.864 218.683V223.377H255.555ZM268.791 227.286H267.313L269.37 222.909L265.219 214.026H266.677L270.1 221.451L273.522 214.026H274.999L268.791 227.286ZM284.542 222.161C283.619 223.096 282.453 223.564 281.045 223.564C279.636 223.564 278.47 223.096 277.548 222.161C276.625 221.214 276.164 220.061 276.164 218.702C276.164 217.343 276.625 216.196 277.548 215.261C278.47 214.313 279.636 213.839 281.045 213.839C282.453 213.839 283.619 214.313 284.542 215.261C285.464 216.196 285.926 217.343 285.926 218.702C285.926 220.061 285.464 221.214 284.542 222.161ZM278.483 221.301C279.143 221.999 279.997 222.348 281.045 222.348C282.092 222.348 282.94 221.999 283.588 221.301C284.249 220.59 284.579 219.724 284.579 218.702C284.579 217.679 284.249 216.819 283.588 216.121C282.94 215.41 282.092 215.055 281.045 215.055C279.997 215.055 279.143 215.41 278.483 216.121C277.834 216.819 277.51 217.679 277.51 218.702C277.51 219.724 277.834 220.59 278.483 221.301ZM292.01 223.564C291 223.564 290.177 223.227 289.542 222.554C288.906 221.881 288.588 220.989 288.588 219.88V214.026H289.897V219.693C289.897 220.503 290.109 221.151 290.533 221.638C290.957 222.111 291.505 222.348 292.179 222.348C292.989 222.348 293.656 222.018 294.18 221.357C294.716 220.684 294.984 219.793 294.984 218.683V214.026H296.293V223.377H294.984V221.806C294.348 222.978 293.357 223.564 292.01 223.564ZM299.887 223.377V214.026H301.196V215.953C301.395 215.329 301.751 214.837 302.262 214.475C302.773 214.114 303.321 213.933 303.907 213.933C304.169 213.933 304.394 213.958 304.581 214.008V215.373C304.356 215.286 304.094 215.242 303.795 215.242C303.134 215.242 302.536 215.541 302 216.14C301.464 216.738 301.196 217.586 301.196 218.683V223.377H299.887ZM312.719 227.286H311.41V214.026H312.719V215.597C313.056 215.074 313.536 214.65 314.159 214.326C314.795 214.001 315.468 213.839 316.179 213.839C317.488 213.839 318.591 214.313 319.489 215.261C320.386 216.208 320.835 217.355 320.835 218.702C320.835 220.048 320.386 221.195 319.489 222.143C318.591 223.09 317.488 223.564 316.179 223.564C315.468 223.564 314.795 223.402 314.159 223.078C313.536 222.754 313.056 222.33 312.719 221.806V227.286ZM313.561 221.301C314.209 221.999 315.038 222.348 316.048 222.348C317.058 222.348 317.881 221.999 318.516 221.301C319.165 220.59 319.489 219.724 319.489 218.702C319.489 217.679 319.165 216.819 318.516 216.121C317.881 215.41 317.058 215.055 316.048 215.055C315.038 215.055 314.209 215.41 313.561 216.121C312.925 216.819 312.607 217.679 312.607 218.702C312.607 219.724 312.925 220.59 313.561 221.301ZM323.655 223.377V214.026H324.964V215.953C325.163 215.329 325.519 214.837 326.03 214.475C326.541 214.114 327.09 213.933 327.676 213.933C327.937 213.933 328.162 213.958 328.349 214.008V215.373C328.124 215.286 327.863 215.242 327.563 215.242C326.903 215.242 326.304 215.541 325.768 216.14C325.232 216.738 324.964 217.586 324.964 218.683V223.377H323.655ZM337.977 222.161C337.055 223.096 335.889 223.564 334.48 223.564C333.071 223.564 331.905 223.096 330.983 222.161C330.06 221.214 329.599 220.061 329.599 218.702C329.599 217.343 330.06 216.196 330.983 215.261C331.905 214.313 333.071 213.839 334.48 213.839C335.889 213.839 337.055 214.313 337.977 215.261C338.9 216.196 339.361 217.343 339.361 218.702C339.361 220.061 338.9 221.214 337.977 222.161ZM331.918 221.301C332.579 221.999 333.433 222.348 334.48 222.348C335.527 222.348 336.375 221.999 337.023 221.301C337.684 220.59 338.015 219.724 338.015 218.702C338.015 217.679 337.684 216.819 337.023 216.121C336.375 215.41 335.527 215.055 334.48 215.055C333.433 215.055 332.579 215.41 331.918 216.121C331.27 216.819 330.945 217.679 330.945 218.702C330.945 219.724 331.27 220.59 331.918 221.301ZM343.631 214.026V224.78C343.631 225.665 343.388 226.332 342.902 226.781C342.428 227.242 341.793 227.473 340.995 227.473C340.745 227.473 340.527 227.454 340.34 227.416V226.22C340.54 226.244 340.72 226.257 340.882 226.257C341.842 226.257 342.322 225.727 342.322 224.667V214.026H343.631ZM342.996 211.221C342.709 211.221 342.466 211.128 342.266 210.941C342.079 210.741 341.986 210.504 341.986 210.23C341.986 209.956 342.079 209.725 342.266 209.538C342.466 209.339 342.709 209.239 342.996 209.239C343.27 209.239 343.501 209.339 343.688 209.538C343.875 209.725 343.968 209.956 343.968 210.23C343.968 210.504 343.875 210.741 343.688 210.941C343.501 211.128 343.27 211.221 342.996 211.221ZM351.262 223.564C349.828 223.564 348.668 223.103 347.783 222.18C346.898 221.245 346.455 220.086 346.455 218.702C346.455 217.33 346.91 216.177 347.821 215.242C348.731 214.307 349.89 213.839 351.299 213.839C352.558 213.839 353.605 214.263 354.441 215.111C355.276 215.959 355.694 217.112 355.694 218.571V218.926H347.802C347.802 219.899 348.126 220.715 348.774 221.376C349.423 222.024 350.252 222.348 351.262 222.348C352.01 222.348 352.621 222.205 353.094 221.918C353.581 221.619 353.998 221.176 354.347 220.59L355.413 221.282C354.528 222.803 353.144 223.564 351.262 223.564ZM347.914 217.767H354.329C354.204 216.931 353.861 216.27 353.3 215.784C352.739 215.298 352.053 215.055 351.243 215.055C350.433 215.055 349.709 215.304 349.074 215.803C348.45 216.289 348.064 216.944 347.914 217.767ZM362.576 223.564C361.168 223.564 360.002 223.096 359.079 222.161C358.157 221.214 357.695 220.061 357.695 218.702C357.695 217.343 358.157 216.196 359.079 215.261C360.002 214.313 361.168 213.839 362.576 213.839C363.524 213.839 364.366 214.057 365.101 214.494C365.849 214.93 366.435 215.529 366.859 216.289L365.718 216.944C365.419 216.358 364.995 215.896 364.447 215.56C363.91 215.223 363.287 215.055 362.576 215.055C361.529 215.055 360.675 215.41 360.014 216.121C359.366 216.819 359.042 217.679 359.042 218.702C359.042 219.724 359.366 220.59 360.014 221.301C360.675 221.999 361.529 222.348 362.576 222.348C363.287 222.348 363.91 222.18 364.447 221.843C364.995 221.507 365.419 221.046 365.718 220.46L366.859 221.114C366.435 221.875 365.849 222.473 365.101 222.909C364.366 223.346 363.524 223.564 362.576 223.564ZM372.813 223.47C372.028 223.47 371.386 223.246 370.887 222.797C370.401 222.336 370.158 221.663 370.158 220.777V215.261H368.157V214.026H370.158V211.427H371.467V214.026H374.197V215.261H371.467V220.665C371.467 221.239 371.591 221.65 371.841 221.9C372.103 222.136 372.495 222.255 373.019 222.255C373.493 222.255 373.885 222.186 374.197 222.049V223.227C373.786 223.389 373.324 223.47 372.813 223.47ZM379.437 223.564C378.552 223.564 377.785 223.371 377.137 222.984C376.501 222.585 376.058 222.012 375.809 221.264L376.987 220.777C377.137 221.276 377.442 221.669 377.903 221.956C378.377 222.242 378.895 222.386 379.456 222.386C379.979 222.386 380.409 222.261 380.746 222.012C381.095 221.75 381.27 221.395 381.27 220.946C381.27 220.572 381.133 220.26 380.858 220.011C380.596 219.749 380.148 219.512 379.512 219.3L378.502 218.982C377.006 218.521 376.258 217.636 376.258 216.327C376.258 215.566 376.551 214.961 377.137 214.513C377.735 214.064 378.483 213.839 379.381 213.839C380.79 213.839 381.8 214.388 382.411 215.485L381.363 216.14C380.865 215.379 380.179 214.999 379.306 214.999C378.845 214.999 378.44 215.123 378.091 215.373C377.741 215.61 377.567 215.909 377.567 216.27C377.567 216.969 378.053 217.474 379.026 217.785L380.092 218.122C381.75 218.646 382.579 219.549 382.579 220.834C382.579 221.694 382.286 222.367 381.7 222.853C381.126 223.327 380.372 223.564 379.437 223.564ZM386.979 223.153C386.742 223.402 386.455 223.527 386.118 223.527C385.782 223.527 385.489 223.402 385.239 223.153C385.002 222.903 384.884 222.61 384.884 222.274C384.884 221.937 385.002 221.644 385.239 221.395C385.489 221.145 385.782 221.021 386.118 221.021C386.455 221.021 386.742 221.145 386.979 221.395C387.228 221.644 387.353 221.937 387.353 222.274C387.353 222.61 387.228 222.903 386.979 223.153Z" fill="#585858"/>
</g>
<defs>
<clipPath id="clip0_11469_48916">
<rect width="406.753" height="232.377" fill="white" transform="translate(0.71875)"/>
</clipPath>
<clipPath id="clip1_11469_48916">
<rect width="46.0052" height="46.0052" fill="white" transform="translate(183.898 24.7539)"/>
</clipPath>
</defs>
</svg>
