<svg width="377" height="233" viewBox="0 0 377 233" fill="none" xmlns="http://www.w3.org/2000/svg">
<g clipPath="url(#clip0_11469_48899)">
<rect x="141.031" width="95.3766" height="95.3766" rx="18.7013" fill="#FF9103"/>
<path d="M188.34 52.6221C181.728 52.6221 176.148 53.7026 176.148 57.8728C176.148 62.0447 181.764 63.0872 188.34 63.0872C194.953 63.0872 200.532 62.0067 200.532 57.8365C200.532 53.6646 194.917 52.6221 188.34 52.6221Z" fill="white"/>
<path opacity="0.4" d="M188.349 48.6484C192.827 48.6484 196.417 45.0375 196.417 40.5342C196.417 36.0291 192.827 32.4199 188.349 32.4199C183.872 32.4199 180.281 36.0291 180.281 40.5342C180.281 45.0375 183.872 48.6484 188.349 48.6484Z" fill="white"/>
<path opacity="0.4" d="M205.856 42.4247C207.015 37.8679 203.618 33.7754 199.294 33.7754C198.823 33.7754 198.374 33.8272 197.934 33.9152C197.876 33.929 197.811 33.9584 197.776 34.0101C197.737 34.0757 197.766 34.1638 197.809 34.2207C199.108 36.0538 199.855 38.2856 199.855 40.6814C199.855 42.977 199.17 45.1174 197.969 46.8935C197.845 47.0765 197.955 47.3233 198.173 47.3613C198.475 47.4148 198.784 47.4424 199.1 47.451C202.249 47.5339 205.075 45.4954 205.856 42.4247Z" fill="white"/>
<path d="M209.153 53.1518C208.576 51.916 207.184 51.0685 205.068 50.6525C204.069 50.4074 201.366 50.0622 198.852 50.1088C198.814 50.1139 198.794 50.1398 198.79 50.1571C198.785 50.1813 198.795 50.2227 198.845 50.2486C200.007 50.8268 204.498 53.3417 203.934 58.6459C203.91 58.8754 204.093 59.0739 204.322 59.0394C205.427 58.8806 208.27 58.2661 209.153 56.3519C209.64 55.3405 209.64 54.165 209.153 53.1518Z" fill="white"/>
<path opacity="0.4" d="M178.939 33.9152C178.501 33.8254 178.05 33.7754 177.58 33.7754C173.255 33.7754 169.859 37.8679 171.019 42.4247C171.798 45.4954 174.624 47.5339 177.774 47.451C178.089 47.4424 178.4 47.413 178.7 47.3613C178.918 47.3233 179.028 47.0765 178.905 46.8935C177.703 45.1156 177.019 42.977 177.019 40.6814C177.019 38.2839 177.767 36.0521 179.066 34.2207C179.107 34.1638 179.138 34.0757 179.097 34.0101C179.062 33.9566 178.999 33.929 178.939 33.9152Z" fill="white"/>
<path d="M171.809 50.653C169.693 51.069 168.303 51.9165 167.726 53.1523C167.237 54.1655 167.237 55.341 167.726 56.3542C168.608 58.2667 171.452 58.8829 172.557 59.04C172.786 59.0745 172.967 58.8777 172.943 58.6464C172.379 53.3439 176.87 50.8291 178.034 50.2508C178.082 50.2232 178.092 50.1835 178.087 50.1576C178.083 50.1404 178.065 50.1145 178.027 50.111C175.511 50.0627 172.81 50.4079 171.809 50.653Z" fill="white"/>
</g>
<path d="M134.572 139.601C132.927 139.601 131.513 139.272 130.331 138.614C129.164 137.941 128.266 136.998 127.638 135.786C127.01 134.559 126.695 133.116 126.695 131.455C126.695 129.794 127.01 128.358 127.638 127.146C128.266 125.934 129.164 124.999 130.331 124.341C131.513 123.668 132.927 123.331 134.572 123.331C135.635 123.331 136.637 123.496 137.58 123.825C138.537 124.154 139.322 124.625 139.936 125.239L138.993 127.528C138.32 126.959 137.632 126.548 136.929 126.294C136.226 126.024 135.47 125.89 134.662 125.89C133.061 125.89 131.842 126.376 131.004 127.348C130.166 128.306 129.747 129.675 129.747 131.455C129.747 133.235 130.166 134.612 131.004 135.584C131.842 136.557 133.061 137.043 134.662 137.043C135.47 137.043 136.226 136.916 136.929 136.662C137.632 136.392 138.32 135.973 138.993 135.405L139.936 137.694C139.322 138.292 138.537 138.764 137.58 139.108C136.637 139.437 135.635 139.601 134.572 139.601ZM146.838 139.601C145.701 139.601 144.713 139.369 143.876 138.906C143.038 138.442 142.387 137.784 141.923 136.931C141.459 136.063 141.228 135.046 141.228 133.879C141.228 132.712 141.459 131.702 141.923 130.849C142.387 129.996 143.038 129.338 143.876 128.874C144.713 128.411 145.701 128.179 146.838 128.179C147.975 128.179 148.962 128.411 149.8 128.874C150.638 129.338 151.289 129.996 151.753 130.849C152.216 131.702 152.448 132.712 152.448 133.879C152.448 135.046 152.216 136.063 151.753 136.931C151.289 137.784 150.638 138.442 149.8 138.906C148.962 139.369 147.975 139.601 146.838 139.601ZM146.838 137.469C147.676 137.469 148.349 137.17 148.858 136.572C149.366 135.958 149.621 135.061 149.621 133.879C149.621 132.682 149.366 131.792 148.858 131.208C148.349 130.61 147.676 130.311 146.838 130.311C146 130.311 145.327 130.61 144.818 131.208C144.309 131.792 144.055 132.682 144.055 133.879C144.055 135.061 144.309 135.958 144.818 136.572C145.327 137.17 146 137.469 146.838 137.469ZM159.028 139.601C157.726 139.601 156.761 139.25 156.133 138.547C155.519 137.828 155.212 136.781 155.212 135.405V123.556H158.018V135.27C158.018 136.617 158.586 137.29 159.723 137.29C159.888 137.29 160.052 137.282 160.217 137.267C160.381 137.252 160.539 137.223 160.688 137.178L160.643 139.399C160.105 139.534 159.566 139.601 159.028 139.601ZM166.643 139.601C165.341 139.601 164.376 139.25 163.748 138.547C163.134 137.828 162.828 136.781 162.828 135.405V123.556H165.633V135.27C165.633 136.617 166.201 137.29 167.338 137.29C167.503 137.29 167.668 137.282 167.832 137.267C167.997 137.252 168.154 137.223 168.303 137.178L168.259 139.399C167.72 139.534 167.181 139.601 166.643 139.601ZM174.056 139.601C173.263 139.601 172.552 139.452 171.924 139.153C171.311 138.838 170.824 138.419 170.465 137.896C170.121 137.372 169.949 136.781 169.949 136.123C169.949 135.315 170.159 134.679 170.578 134.215C170.996 133.737 171.677 133.393 172.62 133.183C173.562 132.974 174.826 132.869 176.412 132.869H177.198V132.398C177.198 131.65 177.033 131.111 176.704 130.782C176.375 130.453 175.821 130.288 175.043 130.288C174.43 130.288 173.802 130.385 173.158 130.58C172.515 130.759 171.864 131.044 171.206 131.433L170.398 129.525C170.787 129.256 171.243 129.024 171.767 128.829C172.306 128.62 172.867 128.463 173.45 128.358C174.049 128.238 174.61 128.179 175.133 128.179C176.734 128.179 177.923 128.553 178.701 129.301C179.479 130.034 179.868 131.178 179.868 132.734V139.377H177.243V137.627C176.988 138.24 176.584 138.726 176.031 139.085C175.477 139.429 174.819 139.601 174.056 139.601ZM174.639 137.671C175.373 137.671 175.978 137.417 176.457 136.908C176.951 136.4 177.198 135.756 177.198 134.978V134.485H176.435C175.028 134.485 174.049 134.597 173.495 134.821C172.956 135.031 172.687 135.42 172.687 135.988C172.687 136.482 172.859 136.886 173.203 137.2C173.547 137.514 174.026 137.671 174.639 137.671ZM189.493 139.601C188.685 139.601 187.959 139.422 187.316 139.063C186.688 138.704 186.217 138.217 185.902 137.604V139.377H183.164V123.556H185.97V130.019C186.299 129.465 186.77 129.024 187.383 128.695C188.012 128.351 188.715 128.179 189.493 128.179C190.465 128.179 191.311 128.411 192.029 128.874C192.747 129.338 193.308 129.996 193.712 130.849C194.116 131.687 194.318 132.697 194.318 133.879C194.318 135.046 194.116 136.063 193.712 136.931C193.308 137.784 192.74 138.442 192.006 138.906C191.288 139.369 190.45 139.601 189.493 139.601ZM188.708 137.469C189.545 137.469 190.219 137.17 190.727 136.572C191.236 135.958 191.49 135.061 191.49 133.879C191.49 132.682 191.236 131.792 190.727 131.208C190.219 130.61 189.545 130.311 188.708 130.311C187.87 130.311 187.196 130.61 186.688 131.208C186.179 131.792 185.925 132.682 185.925 133.879C185.925 135.061 186.179 135.958 186.688 136.572C187.196 137.17 187.87 137.469 188.708 137.469ZM202.074 139.601C200.937 139.601 199.949 139.369 199.112 138.906C198.274 138.442 197.623 137.784 197.159 136.931C196.695 136.063 196.464 135.046 196.464 133.879C196.464 132.712 196.695 131.702 197.159 130.849C197.623 129.996 198.274 129.338 199.112 128.874C199.949 128.411 200.937 128.179 202.074 128.179C203.211 128.179 204.198 128.411 205.036 128.874C205.874 129.338 206.525 129.996 206.989 130.849C207.452 131.702 207.684 132.712 207.684 133.879C207.684 135.046 207.452 136.063 206.989 136.931C206.525 137.784 205.874 138.442 205.036 138.906C204.198 139.369 203.211 139.601 202.074 139.601ZM202.074 137.469C202.912 137.469 203.585 137.17 204.094 136.572C204.602 135.958 204.857 135.061 204.857 133.879C204.857 132.682 204.602 131.792 204.094 131.208C203.585 130.61 202.912 130.311 202.074 130.311C201.236 130.311 200.563 130.61 200.054 131.208C199.546 131.792 199.291 132.682 199.291 133.879C199.291 135.061 199.546 135.958 200.054 136.572C200.563 137.17 201.236 137.469 202.074 137.469ZM210.448 139.377V128.403H213.186V130.333C213.725 129.031 214.877 128.313 216.642 128.179L217.495 128.111L217.675 130.49L216.059 130.647C214.219 130.827 213.299 131.769 213.299 133.475V139.377H210.448ZM223.189 139.601C222.396 139.601 221.685 139.452 221.057 139.153C220.444 138.838 219.957 138.419 219.598 137.896C219.254 137.372 219.082 136.781 219.082 136.123C219.082 135.315 219.292 134.679 219.711 134.215C220.129 133.737 220.81 133.393 221.753 133.183C222.695 132.974 223.959 132.869 225.545 132.869H226.331V132.398C226.331 131.65 226.166 131.111 225.837 130.782C225.508 130.453 224.954 130.288 224.176 130.288C223.563 130.288 222.935 130.385 222.291 130.58C221.648 130.759 220.997 131.044 220.339 131.433L219.531 129.525C219.92 129.256 220.376 129.024 220.9 128.829C221.439 128.62 222 128.463 222.583 128.358C223.181 128.238 223.743 128.179 224.266 128.179C225.867 128.179 227.056 128.553 227.834 129.301C228.612 130.034 229.001 131.178 229.001 132.734V139.377H226.376V137.627C226.121 138.24 225.717 138.726 225.164 139.085C224.61 139.429 223.952 139.601 223.189 139.601ZM223.772 137.671C224.506 137.671 225.111 137.417 225.59 136.908C226.084 136.4 226.331 135.756 226.331 134.978V134.485H225.568C224.161 134.485 223.181 134.597 222.628 134.821C222.089 135.031 221.82 135.42 221.82 135.988C221.82 136.482 221.992 136.886 222.336 137.2C222.68 137.514 223.159 137.671 223.772 137.671ZM237.324 139.601C234.422 139.601 232.971 138.165 232.971 135.293V130.513H230.861V128.403H232.971V125.127H235.776V128.403H239.097V130.513H235.776V135.135C235.776 135.854 235.933 136.392 236.247 136.751C236.561 137.11 237.07 137.29 237.773 137.29C237.983 137.29 238.2 137.267 238.424 137.223C238.648 137.163 238.88 137.103 239.12 137.043L239.546 139.108C239.277 139.257 238.933 139.377 238.514 139.467C238.11 139.556 237.713 139.601 237.324 139.601ZM246.658 139.601C245.416 139.601 244.346 139.369 243.449 138.906C242.551 138.442 241.855 137.784 241.362 136.931C240.883 136.078 240.644 135.068 240.644 133.901C240.644 132.764 240.876 131.769 241.339 130.916C241.818 130.064 242.469 129.398 243.292 128.919C244.13 128.425 245.08 128.179 246.142 128.179C247.698 128.179 248.925 128.672 249.822 129.66C250.735 130.647 251.191 131.994 251.191 133.699V134.53H243.337C243.546 136.489 244.668 137.469 246.703 137.469C247.316 137.469 247.93 137.38 248.543 137.2C249.156 137.006 249.717 136.706 250.226 136.302L251.012 138.188C250.488 138.621 249.83 138.966 249.037 139.22C248.244 139.474 247.451 139.601 246.658 139.601ZM246.254 130.086C245.431 130.086 244.765 130.34 244.257 130.849C243.748 131.358 243.441 132.046 243.337 132.914H248.857C248.797 132.001 248.543 131.305 248.094 130.827C247.66 130.333 247.047 130.086 246.254 130.086Z" fill="#191919"/>
<path d="M34.9769 191.601C33.0569 191.601 31.4299 190.941 30.0959 189.619C28.7743 188.297 28.1135 186.67 28.1135 184.738C28.1135 182.806 28.7743 181.179 30.0959 179.857C31.4299 178.535 33.0569 177.875 34.9769 177.875C36.1863 177.875 37.2959 178.155 38.3058 178.716C39.3156 179.265 40.1322 180.019 40.7556 180.979L39.5774 181.727C39.0912 180.954 38.4491 180.343 37.6512 179.894C36.8533 179.446 35.9619 179.221 34.9769 179.221C33.4434 179.221 32.153 179.757 31.1058 180.829C30.0709 181.889 29.5535 183.192 29.5535 184.738C29.5535 186.296 30.0709 187.606 31.1058 188.665C32.153 189.725 33.4434 190.255 34.9769 190.255C35.9619 190.255 36.8533 190.03 37.6512 189.582C38.4491 189.133 39.0912 188.522 39.5774 187.749L40.7556 188.497C40.1322 189.457 39.3156 190.217 38.3058 190.779C37.2959 191.327 36.1863 191.601 34.9769 191.601ZM50.9265 190.161C50.0039 191.096 48.8382 191.564 47.4294 191.564C46.0205 191.564 44.8548 191.096 43.9322 190.161C43.0096 189.214 42.5483 188.061 42.5483 186.702C42.5483 185.343 43.0096 184.196 43.9322 183.261C44.8548 182.313 46.0205 181.839 47.4294 181.839C48.8382 181.839 50.0039 182.313 50.9265 183.261C51.8491 184.196 52.3104 185.343 52.3104 186.702C52.3104 188.061 51.8491 189.214 50.9265 190.161ZM44.8673 189.301C45.5281 189.999 46.3821 190.348 47.4294 190.348C48.4766 190.348 49.3244 189.999 49.9727 189.301C50.6335 188.59 50.9639 187.724 50.9639 186.702C50.9639 185.679 50.6335 184.819 49.9727 184.121C49.3244 183.41 48.4766 183.055 47.4294 183.055C46.3821 183.055 45.5281 183.41 44.8673 184.121C44.219 184.819 43.8948 185.679 43.8948 186.702C43.8948 187.724 44.219 188.59 44.8673 189.301ZM55.1222 191.377V177.351H56.4313V191.377H55.1222ZM60.0254 191.377V177.351H61.3345V191.377H60.0254ZM68.7998 191.564C67.4907 191.564 66.3874 191.09 65.4897 190.143C64.592 189.195 64.1432 188.048 64.1432 186.702C64.1432 185.355 64.592 184.208 65.4897 183.261C66.3874 182.313 67.4907 181.839 68.7998 181.839C69.5105 181.839 70.1775 182.001 70.8009 182.326C71.4367 182.65 71.9229 183.074 72.2596 183.597V182.026H73.5687V191.377H72.2596V189.806C71.9229 190.33 71.4367 190.754 70.8009 191.078C70.1775 191.402 69.5105 191.564 68.7998 191.564ZM66.4435 189.301C67.0918 189.999 67.9209 190.348 68.9307 190.348C69.9406 190.348 70.7635 189.999 71.3993 189.301C72.0476 188.59 72.3718 187.724 72.3718 186.702C72.3718 185.679 72.0476 184.819 71.3993 184.121C70.7635 183.41 69.9406 183.055 68.9307 183.055C67.9209 183.055 67.0918 183.41 66.4435 184.121C65.8076 184.819 65.4897 185.679 65.4897 186.702C65.4897 187.724 65.8076 188.59 66.4435 189.301ZM81.9242 191.564C81.2135 191.564 80.5403 191.402 79.9045 191.078C79.2811 190.754 78.8011 190.33 78.4645 189.806V191.377H77.1554V177.351H78.4645V183.597C78.8011 183.074 79.2811 182.65 79.9045 182.326C80.5403 182.001 81.2135 181.839 81.9242 181.839C83.2333 181.839 84.3367 182.313 85.2343 183.261C86.132 184.208 86.5808 185.355 86.5808 186.702C86.5808 188.048 86.132 189.195 85.2343 190.143C84.3367 191.09 83.2333 191.564 81.9242 191.564ZM79.306 189.301C79.9543 189.999 80.7834 190.348 81.7933 190.348C82.8032 190.348 83.626 189.999 84.2619 189.301C84.9102 188.59 85.2343 187.724 85.2343 186.702C85.2343 185.679 84.9102 184.819 84.2619 184.121C83.626 183.41 82.8032 183.055 81.7933 183.055C80.7834 183.055 79.9543 183.41 79.306 184.121C78.6702 184.819 78.3522 185.679 78.3522 186.702C78.3522 187.724 78.6702 188.59 79.306 189.301ZM96.9748 190.161C96.0522 191.096 94.8865 191.564 93.4777 191.564C92.0688 191.564 90.9031 191.096 89.9805 190.161C89.0579 189.214 88.5966 188.061 88.5966 186.702C88.5966 185.343 89.0579 184.196 89.9805 183.261C90.9031 182.313 92.0688 181.839 93.4777 181.839C94.8865 181.839 96.0522 182.313 96.9748 183.261C97.8974 184.196 98.3587 185.343 98.3587 186.702C98.3587 188.061 97.8974 189.214 96.9748 190.161ZM90.9156 189.301C91.5764 189.999 92.4304 190.348 93.4777 190.348C94.5249 190.348 95.3727 189.999 96.021 189.301C96.6818 188.59 97.0122 187.724 97.0122 186.702C97.0122 185.679 96.6818 184.819 96.021 184.121C95.3727 183.41 94.5249 183.055 93.4777 183.055C92.4304 183.055 91.5764 183.41 90.9156 184.121C90.2673 184.819 89.9431 185.679 89.9431 186.702C89.9431 187.724 90.2673 188.59 90.9156 189.301ZM101.17 191.377V182.026H102.48V183.953C102.679 183.329 103.034 182.837 103.546 182.475C104.057 182.114 104.605 181.933 105.191 181.933C105.453 181.933 105.677 181.958 105.864 182.008V183.373C105.64 183.286 105.378 183.242 105.079 183.242C104.418 183.242 103.82 183.541 103.284 184.14C102.748 184.738 102.48 185.586 102.48 186.683V191.377H101.17ZM111.789 191.564C110.48 191.564 109.377 191.09 108.479 190.143C107.582 189.195 107.133 188.048 107.133 186.702C107.133 185.355 107.582 184.208 108.479 183.261C109.377 182.313 110.48 181.839 111.789 181.839C112.5 181.839 113.167 182.001 113.79 182.326C114.426 182.65 114.913 183.074 115.249 183.597V182.026H116.558V191.377H115.249V189.806C114.913 190.33 114.426 190.754 113.79 191.078C113.167 191.402 112.5 191.564 111.789 191.564ZM109.433 189.301C110.081 189.999 110.91 190.348 111.92 190.348C112.93 190.348 113.753 189.999 114.389 189.301C115.037 188.59 115.361 187.724 115.361 186.702C115.361 185.679 115.037 184.819 114.389 184.121C113.753 183.41 112.93 183.055 111.92 183.055C110.91 183.055 110.081 183.41 109.433 184.121C108.797 184.819 108.479 185.679 108.479 186.702C108.479 187.724 108.797 188.59 109.433 189.301ZM123.493 191.47C122.707 191.47 122.065 191.246 121.566 190.797C121.08 190.336 120.837 189.663 120.837 188.777V183.261H118.836V182.026H120.837V179.427H122.146V182.026H124.876V183.261H122.146V188.665C122.146 189.239 122.271 189.65 122.52 189.9C122.782 190.136 123.175 190.255 123.698 190.255C124.172 190.255 124.565 190.186 124.876 190.049V191.227C124.465 191.389 124.004 191.47 123.493 191.47ZM131.298 191.564C129.864 191.564 128.704 191.103 127.819 190.18C126.934 189.245 126.491 188.086 126.491 186.702C126.491 185.33 126.946 184.177 127.856 183.242C128.767 182.307 129.926 181.839 131.335 181.839C132.594 181.839 133.641 182.263 134.477 183.111C135.312 183.959 135.73 185.112 135.73 186.571V186.926H127.838C127.838 187.899 128.162 188.715 128.81 189.376C129.459 190.024 130.288 190.348 131.298 190.348C132.046 190.348 132.656 190.205 133.13 189.918C133.616 189.619 134.034 189.176 134.383 188.59L135.449 189.282C134.564 190.803 133.18 191.564 131.298 191.564ZM127.95 185.767H134.365C134.24 184.931 133.897 184.27 133.336 183.784C132.775 183.298 132.089 183.055 131.279 183.055C130.468 183.055 129.745 183.304 129.109 183.803C128.486 184.289 128.1 184.944 127.95 185.767ZM151.02 191.377L148.533 184.252L146.064 191.377H144.979L141.781 182.026H143.128L145.54 189.133L148.028 182.026H149.037L151.506 189.133L153.937 182.026H155.302L152.104 191.377H151.02ZM158.219 179.221C157.933 179.221 157.689 179.128 157.49 178.941C157.303 178.741 157.209 178.504 157.209 178.23C157.209 177.956 157.303 177.725 157.49 177.538C157.689 177.339 157.933 177.239 158.219 177.239C158.494 177.239 158.724 177.339 158.911 177.538C159.098 177.725 159.192 177.956 159.192 178.23C159.192 178.504 159.098 178.741 158.911 178.941C158.724 179.128 158.494 179.221 158.219 179.221ZM157.546 191.377V182.026H158.855V191.377H157.546ZM165.797 191.47C165.011 191.47 164.369 191.246 163.871 190.797C163.384 190.336 163.141 189.663 163.141 188.777V183.261H161.14V182.026H163.141V179.427H164.45V182.026H167.181V183.261H164.45V188.665C164.45 189.239 164.575 189.65 164.824 189.9C165.086 190.136 165.479 190.255 166.003 190.255C166.476 190.255 166.869 190.186 167.181 190.049V191.227C166.769 191.389 166.308 191.47 165.797 191.47ZM170.999 191.377H169.69V177.351H170.999V183.597C171.635 182.425 172.658 181.839 174.066 181.839C175.101 181.839 175.943 182.17 176.591 182.83C177.252 183.491 177.582 184.389 177.582 185.523V191.377H176.273V185.71C176.273 184.9 176.055 184.258 175.619 183.784C175.195 183.298 174.627 183.055 173.917 183.055C173.069 183.055 172.371 183.385 171.822 184.046C171.274 184.694 170.999 185.586 170.999 186.72V191.377ZM189.017 191.47C188.232 191.47 187.59 191.246 187.091 190.797C186.605 190.336 186.362 189.663 186.362 188.777V183.261H184.361V182.026H186.362V179.427H187.671V182.026H190.401V183.261H187.671V188.665C187.671 189.239 187.795 189.65 188.045 189.9C188.307 190.136 188.699 190.255 189.223 190.255C189.697 190.255 190.089 190.186 190.401 190.049V191.227C189.99 191.389 189.528 191.47 189.017 191.47ZM196.822 191.564C195.388 191.564 194.229 191.103 193.344 190.18C192.459 189.245 192.016 188.086 192.016 186.702C192.016 185.33 192.471 184.177 193.381 183.242C194.291 182.307 195.451 181.839 196.86 181.839C198.119 181.839 199.166 182.263 200.001 183.111C200.837 183.959 201.254 185.112 201.254 186.571V186.926H193.362C193.362 187.899 193.687 188.715 194.335 189.376C194.983 190.024 195.812 190.348 196.822 190.348C197.57 190.348 198.181 190.205 198.655 189.918C199.141 189.619 199.559 189.176 199.908 188.59L200.974 189.282C200.089 190.803 198.705 191.564 196.822 191.564ZM193.475 185.767H199.889C199.765 184.931 199.422 184.27 198.861 183.784C198.3 183.298 197.614 183.055 196.803 183.055C195.993 183.055 195.27 183.304 194.634 183.803C194.011 184.289 193.624 184.944 193.475 185.767ZM207.913 191.564C206.604 191.564 205.5 191.09 204.603 190.143C203.705 189.195 203.256 188.048 203.256 186.702C203.256 185.355 203.705 184.208 204.603 183.261C205.5 182.313 206.604 181.839 207.913 181.839C208.623 181.839 209.29 182.001 209.914 182.326C210.55 182.65 211.036 183.074 211.372 183.597V182.026H212.681V191.377H211.372V189.806C211.036 190.33 210.55 190.754 209.914 191.078C209.29 191.402 208.623 191.564 207.913 191.564ZM205.556 189.301C206.205 189.999 207.034 190.348 208.044 190.348C209.053 190.348 209.876 189.999 210.512 189.301C211.16 188.59 211.485 187.724 211.485 186.702C211.485 185.679 211.16 184.819 210.512 184.121C209.876 183.41 209.053 183.055 208.044 183.055C207.034 183.055 206.205 183.41 205.556 184.121C204.92 184.819 204.603 185.679 204.603 186.702C204.603 187.724 204.92 188.59 205.556 189.301ZM228.387 191.377V185.71C228.387 184.913 228.212 184.27 227.863 183.784C227.526 183.298 227.04 183.055 226.404 183.055C225.569 183.055 224.896 183.391 224.385 184.065C223.886 184.726 223.636 185.611 223.636 186.72V191.377H222.327V185.71C222.327 184.913 222.153 184.27 221.804 183.784C221.467 183.298 220.987 183.055 220.364 183.055C219.541 183.055 218.868 183.391 218.344 184.065C217.833 184.726 217.577 185.611 217.577 186.72V191.377H216.268V182.026H217.577V183.597C217.852 183.049 218.244 182.619 218.755 182.307C219.267 181.995 219.846 181.839 220.495 181.839C221.193 181.839 221.791 182.026 222.29 182.4C222.801 182.774 223.169 183.292 223.393 183.953C223.63 183.304 224.017 182.793 224.553 182.419C225.101 182.033 225.75 181.839 226.498 181.839C227.47 181.839 228.243 182.182 228.817 182.868C229.403 183.541 229.696 184.426 229.696 185.523V191.377H228.387ZM250.21 191.377V185.71C250.21 184.913 250.036 184.27 249.687 183.784C249.35 183.298 248.864 183.055 248.228 183.055C247.392 183.055 246.719 183.391 246.208 184.065C245.709 184.726 245.46 185.611 245.46 186.72V191.377H244.151V185.71C244.151 184.913 243.976 184.27 243.627 183.784C243.291 183.298 242.811 183.055 242.187 183.055C241.364 183.055 240.691 183.391 240.168 184.065C239.656 184.726 239.401 185.611 239.401 186.72V191.377H238.092V182.026H239.401V183.597C239.675 183.049 240.068 182.619 240.579 182.307C241.09 181.995 241.67 181.839 242.318 181.839C243.016 181.839 243.615 182.026 244.114 182.4C244.625 182.774 244.992 183.292 245.217 183.953C245.454 183.304 245.84 182.793 246.376 182.419C246.925 182.033 247.573 181.839 248.321 181.839C249.294 181.839 250.067 182.182 250.64 182.868C251.226 183.541 251.519 184.426 251.519 185.523V191.377H250.21ZM258.828 191.564C257.519 191.564 256.416 191.09 255.518 190.143C254.621 189.195 254.172 188.048 254.172 186.702C254.172 185.355 254.621 184.208 255.518 183.261C256.416 182.313 257.519 181.839 258.828 181.839C259.539 181.839 260.206 182.001 260.829 182.326C261.465 182.65 261.952 183.074 262.288 183.597V182.026H263.597V191.377H262.288V189.806C261.952 190.33 261.465 190.754 260.829 191.078C260.206 191.402 259.539 191.564 258.828 191.564ZM256.472 189.301C257.12 189.999 257.949 190.348 258.959 190.348C259.969 190.348 260.792 189.999 261.428 189.301C262.076 188.59 262.4 187.724 262.4 186.702C262.4 185.679 262.076 184.819 261.428 184.121C260.792 183.41 259.969 183.055 258.959 183.055C257.949 183.055 257.12 183.41 256.472 184.121C255.836 184.819 255.518 185.679 255.518 186.702C255.518 187.724 255.836 188.59 256.472 189.301ZM270.531 191.47C269.746 191.47 269.104 191.246 268.605 190.797C268.119 190.336 267.876 189.663 267.876 188.777V183.261H265.875V182.026H267.876V179.427H269.185V182.026H271.915V183.261H269.185V188.665C269.185 189.239 269.31 189.65 269.559 189.9C269.821 190.136 270.214 190.255 270.737 190.255C271.211 190.255 271.604 190.186 271.915 190.049V191.227C271.504 191.389 271.043 191.47 270.531 191.47ZM278.336 191.564C276.903 191.564 275.743 191.103 274.858 190.18C273.973 189.245 273.53 188.086 273.53 186.702C273.53 185.33 273.985 184.177 274.895 183.242C275.806 182.307 276.965 181.839 278.374 181.839C279.633 181.839 280.68 182.263 281.516 183.111C282.351 183.959 282.769 185.112 282.769 186.571V186.926H274.877C274.877 187.899 275.201 188.715 275.849 189.376C276.497 190.024 277.327 190.348 278.336 190.348C279.085 190.348 279.695 190.205 280.169 189.918C280.655 189.619 281.073 189.176 281.422 188.59L282.488 189.282C281.603 190.803 280.219 191.564 278.336 191.564ZM274.989 185.767H281.403C281.279 184.931 280.936 184.27 280.375 183.784C279.814 183.298 279.128 183.055 278.318 183.055C277.507 183.055 276.784 183.304 276.148 183.803C275.525 184.289 275.139 184.944 274.989 185.767ZM288.286 191.564C287.401 191.564 286.634 191.371 285.986 190.984C285.35 190.585 284.907 190.012 284.658 189.264L285.836 188.777C285.986 189.276 286.291 189.669 286.753 189.956C287.226 190.242 287.744 190.386 288.305 190.386C288.828 190.386 289.259 190.261 289.595 190.012C289.944 189.75 290.119 189.395 290.119 188.946C290.119 188.572 289.982 188.26 289.707 188.011C289.446 187.749 288.997 187.512 288.361 187.3L287.351 186.982C285.855 186.521 285.107 185.636 285.107 184.327C285.107 183.566 285.4 182.961 285.986 182.513C286.584 182.064 287.332 181.839 288.23 181.839C289.639 181.839 290.649 182.388 291.26 183.485L290.212 184.14C289.714 183.379 289.028 182.999 288.155 182.999C287.694 182.999 287.289 183.123 286.94 183.373C286.591 183.61 286.416 183.909 286.416 184.27C286.416 184.969 286.902 185.474 287.875 185.785L288.941 186.122C290.599 186.646 291.428 187.549 291.428 188.834C291.428 189.694 291.135 190.367 290.549 190.853C289.976 191.327 289.221 191.564 288.286 191.564ZM311.371 191.377V185.71C311.371 184.913 311.196 184.27 310.847 183.784C310.51 183.298 310.024 183.055 309.388 183.055C308.553 183.055 307.88 183.391 307.369 184.065C306.87 184.726 306.621 185.611 306.621 186.72V191.377H305.311V185.71C305.311 184.913 305.137 184.27 304.788 183.784C304.451 183.298 303.971 183.055 303.348 183.055C302.525 183.055 301.852 183.391 301.328 184.065C300.817 184.726 300.561 185.611 300.561 186.72V191.377H299.252V182.026H300.561V183.597C300.836 183.049 301.228 182.619 301.74 182.307C302.251 181.995 302.83 181.839 303.479 181.839C304.177 181.839 304.775 182.026 305.274 182.4C305.785 182.774 306.153 183.292 306.377 183.953C306.614 183.304 307.001 182.793 307.537 182.419C308.086 182.033 308.734 181.839 309.482 181.839C310.454 181.839 311.227 182.182 311.801 182.868C312.387 183.541 312.68 184.426 312.68 185.523V191.377H311.371ZM319.989 191.564C318.68 191.564 317.576 191.09 316.679 190.143C315.781 189.195 315.332 188.048 315.332 186.702C315.332 185.355 315.781 184.208 316.679 183.261C317.576 182.313 318.68 181.839 319.989 181.839C320.7 181.839 321.367 182.001 321.99 182.326C322.626 182.65 323.112 183.074 323.449 183.597V182.026H324.758V191.377H323.449V189.806C323.112 190.33 322.626 190.754 321.99 191.078C321.367 191.402 320.7 191.564 319.989 191.564ZM317.633 189.301C318.281 189.999 319.11 190.348 320.12 190.348C321.13 190.348 321.953 189.999 322.588 189.301C323.237 188.59 323.561 187.724 323.561 186.702C323.561 185.679 323.237 184.819 322.588 184.121C321.953 183.41 321.13 183.055 320.12 183.055C319.11 183.055 318.281 183.41 317.633 184.121C316.997 184.819 316.679 185.679 316.679 186.702C316.679 187.724 316.997 188.59 317.633 189.301ZM332.216 191.564C330.907 191.564 329.803 191.09 328.905 190.143C328.008 189.195 327.559 188.048 327.559 186.702C327.559 185.355 328.008 184.208 328.905 183.261C329.803 182.313 330.907 181.839 332.216 181.839C332.926 181.839 333.593 182.001 334.217 182.326C334.853 182.65 335.339 183.074 335.675 183.597V177.351H336.984V191.377H335.675V189.806C335.339 190.33 334.853 190.754 334.217 191.078C333.593 191.402 332.926 191.564 332.216 191.564ZM329.859 189.301C330.508 189.999 331.337 190.348 332.347 190.348C333.356 190.348 334.179 189.999 334.815 189.301C335.463 188.59 335.788 187.724 335.788 186.702C335.788 185.679 335.463 184.819 334.815 184.121C334.179 183.41 333.356 183.055 332.347 183.055C331.337 183.055 330.508 183.41 329.859 184.121C329.223 184.819 328.905 185.679 328.905 186.702C328.905 187.724 329.223 188.59 329.859 189.301ZM344.611 191.564C343.177 191.564 342.017 191.103 341.132 190.18C340.247 189.245 339.804 188.086 339.804 186.702C339.804 185.33 340.259 184.177 341.17 183.242C342.08 182.307 343.239 181.839 344.648 181.839C345.907 181.839 346.955 182.263 347.79 183.111C348.625 183.959 349.043 185.112 349.043 186.571V186.926H341.151C341.151 187.899 341.475 188.715 342.123 189.376C342.772 190.024 343.601 190.348 344.611 190.348C345.359 190.348 345.97 190.205 346.443 189.918C346.93 189.619 347.347 189.176 347.696 188.59L348.762 189.282C347.877 190.803 346.493 191.564 344.611 191.564ZM341.263 185.767H347.678C347.553 184.931 347.21 184.27 346.649 183.784C346.088 183.298 345.402 183.055 344.592 183.055C343.782 183.055 343.058 183.304 342.423 183.803C341.799 184.289 341.413 184.944 341.263 185.767ZM120.29 223.564C118.856 223.564 117.697 223.103 116.812 222.18C115.926 221.245 115.484 220.086 115.484 218.702C115.484 217.33 115.939 216.177 116.849 215.242C117.759 214.307 118.919 213.839 120.327 213.839C121.587 213.839 122.634 214.263 123.469 215.111C124.305 215.959 124.722 217.112 124.722 218.571V218.926H116.83C116.83 219.899 117.154 220.715 117.803 221.376C118.451 222.024 119.28 222.348 120.29 222.348C121.038 222.348 121.649 222.205 122.123 221.918C122.609 221.619 123.027 221.176 123.376 220.59L124.442 221.282C123.557 222.803 122.173 223.564 120.29 223.564ZM116.943 217.767H123.357C123.232 216.931 122.89 216.27 122.328 215.784C121.767 215.298 121.082 215.055 120.271 215.055C119.461 215.055 118.738 215.304 118.102 215.803C117.479 216.289 117.092 216.944 116.943 217.767ZM131.38 223.564C130.071 223.564 128.968 223.09 128.07 222.143C127.173 221.195 126.724 220.048 126.724 218.702C126.724 217.355 127.173 216.208 128.07 215.261C128.968 214.313 130.071 213.839 131.38 213.839C132.091 213.839 132.758 214.001 133.382 214.326C134.017 214.65 134.504 215.074 134.84 215.597V214.026H136.149V223.377H134.84V221.806C134.504 222.33 134.017 222.754 133.382 223.078C132.758 223.402 132.091 223.564 131.38 223.564ZM129.024 221.301C129.672 221.999 130.502 222.348 131.511 222.348C132.521 222.348 133.344 221.999 133.98 221.301C134.628 220.59 134.952 219.724 134.952 218.702C134.952 217.679 134.628 216.819 133.98 216.121C133.344 215.41 132.521 215.055 131.511 215.055C130.502 215.055 129.672 215.41 129.024 216.121C128.388 216.819 128.07 217.679 128.07 218.702C128.07 219.724 128.388 220.59 129.024 221.301ZM142.466 223.564C141.581 223.564 140.814 223.371 140.166 222.984C139.53 222.585 139.088 222.012 138.838 221.264L140.017 220.777C140.166 221.276 140.472 221.669 140.933 221.956C141.407 222.242 141.924 222.386 142.485 222.386C143.009 222.386 143.439 222.261 143.776 222.012C144.125 221.75 144.299 221.395 144.299 220.946C144.299 220.572 144.162 220.26 143.888 220.011C143.626 219.749 143.177 219.512 142.541 219.3L141.531 218.982C140.035 218.521 139.287 217.636 139.287 216.327C139.287 215.566 139.58 214.961 140.166 214.513C140.765 214.064 141.513 213.839 142.41 213.839C143.819 213.839 144.829 214.388 145.44 215.485L144.393 216.14C143.894 215.379 143.208 214.999 142.336 214.999C141.874 214.999 141.469 215.123 141.12 215.373C140.771 215.61 140.596 215.909 140.596 216.27C140.596 216.969 141.083 217.474 142.055 217.785L143.121 218.122C144.779 218.646 145.608 219.549 145.608 220.834C145.608 221.694 145.315 222.367 144.729 222.853C144.156 223.327 143.401 223.564 142.466 223.564ZM149.148 211.221C148.861 211.221 148.618 211.128 148.418 210.941C148.231 210.741 148.138 210.504 148.138 210.23C148.138 209.956 148.231 209.725 148.418 209.538C148.618 209.339 148.861 209.239 149.148 209.239C149.422 209.239 149.653 209.339 149.84 209.538C150.027 209.725 150.12 209.956 150.12 210.23C150.12 210.504 150.027 210.741 149.84 210.941C149.653 211.128 149.422 211.221 149.148 211.221ZM148.475 223.377V214.026H149.784V223.377H148.475ZM157.417 223.564C155.983 223.564 154.824 223.103 153.939 222.18C153.054 221.245 152.611 220.086 152.611 218.702C152.611 217.33 153.066 216.177 153.976 215.242C154.886 214.307 156.046 213.839 157.455 213.839C158.714 213.839 159.761 214.263 160.596 215.111C161.432 215.959 161.849 217.112 161.849 218.571V218.926H153.957C153.957 219.899 154.282 220.715 154.93 221.376C155.578 222.024 156.407 222.348 157.417 222.348C158.165 222.348 158.776 222.205 159.25 221.918C159.736 221.619 160.154 221.176 160.503 220.59L161.569 221.282C160.684 222.803 159.3 223.564 157.417 223.564ZM154.07 217.767H160.484C160.36 216.931 160.017 216.27 159.456 215.784C158.895 215.298 158.209 215.055 157.399 215.055C156.588 215.055 155.865 215.304 155.229 215.803C154.606 216.289 154.219 216.944 154.07 217.767ZM164.637 223.377V214.026H165.946V215.953C166.145 215.329 166.5 214.837 167.012 214.475C167.523 214.114 168.071 213.933 168.657 213.933C168.919 213.933 169.144 213.958 169.331 214.008V215.373C169.106 215.286 168.844 215.242 168.545 215.242C167.884 215.242 167.286 215.541 166.75 216.14C166.214 216.738 165.946 217.586 165.946 218.683V223.377H164.637ZM183.705 223.377L181.217 216.252L178.749 223.377H177.664L174.466 214.026H175.813L178.225 221.133L180.712 214.026H181.722L184.191 221.133L186.622 214.026H187.987L184.789 223.377H183.705ZM190.904 211.221C190.617 211.221 190.374 211.128 190.175 210.941C189.988 210.741 189.894 210.504 189.894 210.23C189.894 209.956 189.988 209.725 190.175 209.538C190.374 209.339 190.617 209.239 190.904 209.239C191.179 209.239 191.409 209.339 191.596 209.538C191.783 209.725 191.877 209.956 191.877 210.23C191.877 210.504 191.783 210.741 191.596 210.941C191.409 211.128 191.179 211.221 190.904 211.221ZM190.231 223.377V214.026H191.54V223.377H190.231ZM198.482 223.47C197.696 223.47 197.054 223.246 196.556 222.797C196.069 222.336 195.826 221.663 195.826 220.777V215.261H193.825V214.026H195.826V211.427H197.135V214.026H199.866V215.261H197.135V220.665C197.135 221.239 197.26 221.65 197.509 221.9C197.771 222.136 198.164 222.255 198.687 222.255C199.161 222.255 199.554 222.186 199.866 222.049V223.227C199.454 223.389 198.993 223.47 198.482 223.47ZM203.684 223.377H202.375V209.351H203.684V215.597C204.32 214.425 205.342 213.839 206.751 213.839C207.786 213.839 208.628 214.17 209.276 214.83C209.937 215.491 210.267 216.389 210.267 217.523V223.377H208.958V217.71C208.958 216.9 208.74 216.258 208.303 215.784C207.88 215.298 207.312 215.055 206.602 215.055C205.754 215.055 205.056 215.385 204.507 216.046C203.959 216.694 203.684 217.586 203.684 218.72V223.377ZM218.908 223.377V210.099H220.329V222.03H226.968V223.377H218.908ZM236.549 222.161C235.626 223.096 234.46 223.564 233.051 223.564C231.643 223.564 230.477 223.096 229.554 222.161C228.632 221.214 228.17 220.061 228.17 218.702C228.17 217.343 228.632 216.196 229.554 215.261C230.477 214.313 231.643 213.839 233.051 213.839C234.46 213.839 235.626 214.313 236.549 215.261C237.471 216.196 237.932 217.343 237.932 218.702C237.932 220.061 237.471 221.214 236.549 222.161ZM230.489 221.301C231.15 221.999 232.004 222.348 233.051 222.348C234.099 222.348 234.946 221.999 235.595 221.301C236.256 220.59 236.586 219.724 236.586 218.702C236.586 217.679 236.256 216.819 235.595 216.121C234.946 215.41 234.099 215.055 233.051 215.055C232.004 215.055 231.15 215.41 230.489 216.121C229.841 216.819 229.517 217.679 229.517 218.702C229.517 219.724 229.841 220.59 230.489 221.301ZM248.337 222.161C247.414 223.096 246.249 223.564 244.84 223.564C243.431 223.564 242.265 223.096 241.343 222.161C240.42 221.214 239.959 220.061 239.959 218.702C239.959 217.343 240.42 216.196 241.343 215.261C242.265 214.313 243.431 213.839 244.84 213.839C246.249 213.839 247.414 214.313 248.337 215.261C249.26 216.196 249.721 217.343 249.721 218.702C249.721 220.061 249.26 221.214 248.337 222.161ZM242.278 221.301C242.939 221.999 243.793 222.348 244.84 222.348C245.887 222.348 246.735 221.999 247.383 221.301C248.044 220.59 248.374 219.724 248.374 218.702C248.374 217.679 248.044 216.819 247.383 216.121C246.735 215.41 245.887 215.055 244.84 215.055C243.793 215.055 242.939 215.41 242.278 216.121C241.629 216.819 241.305 217.679 241.305 218.702C241.305 219.724 241.629 220.59 242.278 221.301ZM253.842 227.286H252.533V214.026H253.842V215.597C254.178 215.074 254.658 214.65 255.282 214.326C255.918 214.001 256.591 213.839 257.301 213.839C258.611 213.839 259.714 214.313 260.612 215.261C261.509 216.208 261.958 217.355 261.958 218.702C261.958 220.048 261.509 221.195 260.612 222.143C259.714 223.09 258.611 223.564 257.301 223.564C256.591 223.564 255.918 223.402 255.282 223.078C254.658 222.754 254.178 222.33 253.842 221.806V227.286ZM254.683 221.301C255.332 221.999 256.161 222.348 257.171 222.348C258.18 222.348 259.003 221.999 259.639 221.301C260.287 220.59 260.612 219.724 260.612 218.702C260.612 217.679 260.287 216.819 259.639 216.121C259.003 215.41 258.18 215.055 257.171 215.055C256.161 215.055 255.332 215.41 254.683 216.121C254.047 216.819 253.73 217.679 253.73 218.702C253.73 219.724 254.047 220.59 254.683 221.301Z" fill="#585858"/>
<defs>
<clipPath id="clip0_11469_48899">
<rect width="95.3766" height="95.3766" fill="white" transform="translate(141.031)"/>
</clipPath>
</defs>
</svg>
