<svg width="76" height="75" viewBox="0 0 76 75" fill="none" xmlns="http://www.w3.org/2000/svg">
<rect x="0.742188" width="74.4206" height="74.4206" rx="24.8069" fill="#060623"/>
<path fill-rule="evenodd" clip-rule="evenodd" d="M45.0033 33.9317C44.3757 33.9317 43.8663 33.4223 43.8663 32.7947V29.5399C43.8663 26.3624 41.2816 23.7776 38.1041 23.7776H38.0798C36.5441 23.7776 35.1055 24.3689 34.0185 25.4467C32.924 26.5291 32.3191 27.9739 32.313 29.5141V32.7947C32.313 33.4223 31.8037 33.9317 31.176 33.9317C30.5484 33.9317 30.0391 33.4223 30.0391 32.7947V29.5399C30.0482 27.3569 30.8926 25.3421 32.4161 23.8322C33.9412 22.3208 35.9544 21.446 38.1086 21.5037C42.5353 21.5037 46.1403 25.1087 46.1403 29.5399V32.7947C46.1403 33.4223 45.6309 33.9317 45.0033 33.9317Z" fill="white"/>
<path fill-rule="evenodd" clip-rule="evenodd" d="M32.2996 33.8248C29.7558 33.8248 27.688 35.8925 27.688 38.4364V44.9384C27.688 47.4822 29.7558 49.55 32.2996 49.55H43.8832C46.4255 49.55 48.4949 47.4822 48.4949 44.9384V38.4364C48.4949 35.8925 46.4255 33.8248 43.8832 33.8248H32.2996ZM43.8832 51.824H32.2996C28.5021 51.824 25.4141 48.7359 25.4141 44.9384V38.4364C25.4141 34.6388 28.5021 31.5508 32.2996 31.5508H43.8832C47.6808 31.5508 50.7688 34.6388 50.7688 38.4364V44.9384C50.7688 48.7359 47.6808 51.824 43.8832 51.824Z" fill="white"/>
<path fill-rule="evenodd" clip-rule="evenodd" d="M38.0901 44.5062C37.4625 44.5062 36.9531 43.9968 36.9531 43.3692V40.0022C36.9531 39.3746 37.4625 38.8652 38.0901 38.8652C38.7177 38.8652 39.2271 39.3746 39.2271 40.0022V43.3692C39.2271 43.9968 38.7177 44.5062 38.0901 44.5062Z" fill="white"/>
</svg>
