<svg width="75" height="75" viewBox="0 0 75 75" fill="none" xmlns="http://www.w3.org/2000/svg">
<rect width="74.4206" height="74.4206" rx="24.8069" fill="#060623"/>
<path fill-rule="evenodd" clip-rule="evenodd" d="M36.7926 23.9107C29.6872 23.9107 23.9068 29.6911 23.9068 36.7965C23.9068 43.9019 29.6872 49.6823 36.7926 49.6823C43.898 49.6823 49.6784 43.9019 49.6784 36.7965C49.6784 29.6911 43.898 23.9107 36.7926 23.9107ZM36.7926 51.9563C28.4335 51.9563 21.6328 45.1556 21.6328 36.7965C21.6328 28.4374 28.4335 21.6367 36.7926 21.6367C45.1517 21.6367 51.9524 28.4374 51.9524 36.7965C51.9524 45.1556 45.1517 51.9563 36.7926 51.9563Z" fill="white"/>
<path fill-rule="evenodd" clip-rule="evenodd" d="M42.7736 38.3337C41.9352 38.3337 41.25 37.6561 41.25 36.8177C41.25 35.9794 41.9216 35.3018 42.7584 35.3018H42.7736C43.6119 35.3018 44.2895 35.9794 44.2895 36.8177C44.2895 37.6561 43.6119 38.3337 42.7736 38.3337Z" fill="white"/>
<path fill-rule="evenodd" clip-rule="evenodd" d="M36.6939 38.3337C35.8556 38.3337 35.1719 37.6561 35.1719 36.8177C35.1719 35.9794 35.8419 35.3018 36.6803 35.3018H36.6939C37.5323 35.3018 38.2099 35.9794 38.2099 36.8177C38.2099 37.6561 37.5323 38.3337 36.6939 38.3337Z" fill="white"/>
<path fill-rule="evenodd" clip-rule="evenodd" d="M30.6251 38.3337C29.7868 38.3337 29.1016 37.6561 29.1016 36.8177C29.1016 35.9794 29.7731 35.3018 30.6115 35.3018H30.6251C31.4635 35.3018 32.1411 35.9794 32.1411 36.8177C32.1411 37.6561 31.4635 38.3337 30.6251 38.3337Z" fill="white"/>
</svg>
