<svg width="409" height="233" viewBox="0 0 409 233" fill="none" xmlns="http://www.w3.org/2000/svg">
<g clipPath="url(#clip0_11469_48890)">
<rect x="156.719" width="95.3766" height="95.3766" rx="24.3117" fill="#7255CB"/>
<path d="M222.353 29.6963C221.395 28.7169 219.976 28.3546 218.654 28.738L187.815 37.6485C186.419 38.0357 185.43 39.1416 185.164 40.5446C184.892 41.9745 185.842 43.7915 187.084 44.5505L196.727 50.4385C197.716 51.0441 198.993 50.8927 199.811 50.0724L210.853 39.0305C211.409 38.4535 212.329 38.4535 212.885 39.0305C213.441 39.5844 213.441 40.4871 212.885 41.0621L201.824 52.104C201.003 52.9244 200.85 54.197 201.454 55.188L207.346 64.8671C208.036 66.0152 209.224 66.6688 210.527 66.6688C210.681 66.6688 210.853 66.6688 211.006 66.6477C212.501 66.458 213.69 65.4402 214.131 64.0027L223.273 33.3955C223.676 32.0921 223.311 30.6738 222.353 29.6963Z" fill="white"/>
<path opacity="0.4" fill-rule="evenodd" clip-rule="evenodd" d="M187.046 56.9688C186.678 56.9688 186.31 56.8289 186.031 56.5471C185.469 55.9855 185.469 55.077 186.031 54.5155L188.647 51.8973C189.208 51.3376 190.119 51.3376 190.68 51.8973C191.24 52.4589 191.24 53.3693 190.68 53.9309L188.062 56.5471C187.782 56.8289 187.414 56.9688 187.046 56.9688ZM194.249 59.2542C193.881 59.2542 193.513 59.1143 193.233 58.8325C192.671 58.2709 192.671 57.3624 193.233 56.8009L195.849 54.1827C196.411 53.623 197.321 53.623 197.883 54.1827C198.443 54.7443 198.443 55.6547 197.883 56.2163L195.265 58.8325C194.985 59.1143 194.617 59.2542 194.249 59.2542ZM194.745 66.093C195.025 66.3748 195.393 66.5147 195.761 66.5147C196.129 66.5147 196.497 66.3748 196.777 66.093L199.395 63.4768C199.955 62.9152 199.955 62.0048 199.395 61.4432C198.834 60.8835 197.923 60.8835 197.362 61.4432L194.745 64.0614C194.184 64.6229 194.184 65.5314 194.745 66.093Z" fill="white"/>
</g>
<path d="M180.523 139.601C179.281 139.601 178.129 139.444 177.067 139.13C176.005 138.801 175.107 138.36 174.374 137.806L175.249 135.539C175.982 136.063 176.783 136.467 177.651 136.751C178.533 137.036 179.491 137.178 180.523 137.178C181.705 137.178 182.565 136.983 183.104 136.594C183.642 136.19 183.912 135.674 183.912 135.046C183.912 134.522 183.717 134.111 183.328 133.811C182.954 133.512 182.303 133.265 181.376 133.071L178.907 132.555C176.095 131.956 174.688 130.513 174.688 128.223C174.688 127.236 174.95 126.376 175.474 125.643C175.997 124.91 176.723 124.341 177.651 123.937C178.578 123.533 179.648 123.331 180.86 123.331C181.937 123.331 182.947 123.496 183.889 123.825C184.832 124.139 185.617 124.588 186.246 125.171L185.37 127.326C184.129 126.279 182.618 125.755 180.837 125.755C179.805 125.755 178.997 125.972 178.414 126.406C177.83 126.84 177.538 127.408 177.538 128.111C177.538 128.65 177.718 129.084 178.077 129.413C178.436 129.727 179.049 129.974 179.917 130.153L182.363 130.67C183.844 130.984 184.944 131.478 185.662 132.151C186.395 132.824 186.762 133.722 186.762 134.844C186.762 135.786 186.508 136.617 185.999 137.335C185.49 138.053 184.765 138.614 183.822 139.018C182.894 139.407 181.795 139.601 180.523 139.601ZM189.407 139.377V123.556H192.212V129.996C192.586 129.398 193.087 128.949 193.716 128.65C194.344 128.336 195.04 128.179 195.803 128.179C198.391 128.179 199.685 129.682 199.685 132.689V139.377H196.88V132.824C196.88 131.971 196.715 131.35 196.386 130.961C196.072 130.572 195.578 130.378 194.905 130.378C194.082 130.378 193.424 130.64 192.93 131.163C192.451 131.672 192.212 132.353 192.212 133.206V139.377H189.407ZM206.596 139.601C205.803 139.601 205.093 139.452 204.464 139.153C203.851 138.838 203.365 138.419 203.005 137.896C202.661 137.372 202.489 136.781 202.489 136.123C202.489 135.315 202.699 134.679 203.118 134.215C203.537 133.737 204.217 133.393 205.16 133.183C206.102 132.974 207.367 132.869 208.953 132.869H209.738V132.398C209.738 131.65 209.573 131.111 209.244 130.782C208.915 130.453 208.362 130.288 207.584 130.288C206.97 130.288 206.342 130.385 205.698 130.58C205.055 130.759 204.404 131.044 203.746 131.433L202.938 129.525C203.327 129.256 203.783 129.024 204.307 128.829C204.846 128.62 205.407 128.463 205.99 128.358C206.589 128.238 207.15 128.179 207.673 128.179C209.274 128.179 210.464 128.553 211.242 129.301C212.02 130.034 212.409 131.178 212.409 132.734V139.377H209.783V137.627C209.529 138.24 209.125 138.726 208.571 139.085C208.017 139.429 207.359 139.601 206.596 139.601ZM207.18 137.671C207.913 137.671 208.519 137.417 208.997 136.908C209.491 136.4 209.738 135.756 209.738 134.978V134.485H208.975C207.569 134.485 206.589 134.597 206.035 134.821C205.497 135.031 205.227 135.42 205.227 135.988C205.227 136.482 205.399 136.886 205.743 137.2C206.087 137.514 206.566 137.671 207.18 137.671ZM215.705 139.377V128.403H218.442V130.333C218.981 129.031 220.133 128.313 221.898 128.179L222.751 128.111L222.931 130.49L221.315 130.647C219.475 130.827 218.555 131.769 218.555 133.475V139.377H215.705ZM230.175 139.601C228.933 139.601 227.863 139.369 226.966 138.906C226.068 138.442 225.372 137.784 224.878 136.931C224.4 136.078 224.16 135.068 224.16 133.901C224.16 132.764 224.392 131.769 224.856 130.916C225.335 130.064 225.986 129.398 226.808 128.919C227.646 128.425 228.596 128.179 229.659 128.179C231.214 128.179 232.441 128.672 233.339 129.66C234.252 130.647 234.708 131.994 234.708 133.699V134.53H226.853C227.063 136.489 228.185 137.469 230.22 137.469C230.833 137.469 231.446 137.38 232.06 137.2C232.673 137.006 233.234 136.706 233.743 136.302L234.528 138.188C234.005 138.621 233.346 138.966 232.553 139.22C231.761 139.474 230.968 139.601 230.175 139.601ZM229.771 130.086C228.948 130.086 228.282 130.34 227.773 130.849C227.265 131.358 226.958 132.046 226.853 132.914H232.374C232.314 132.001 232.06 131.305 231.611 130.827C231.177 130.333 230.564 130.086 229.771 130.086Z" fill="#191919"/>
<path d="M41.9871 191.601C40.9149 191.601 39.9612 191.377 39.1258 190.928C38.2905 190.467 37.717 189.893 37.4053 189.208L38.5835 188.366C39.369 189.625 40.5097 190.255 42.0058 190.255C42.7788 190.255 43.4147 190.055 43.9134 189.656C44.4246 189.257 44.6801 188.728 44.6801 188.067C44.6801 186.957 44.0381 186.153 42.7539 185.654L40.7903 184.906C39.7555 184.52 39.0074 184.046 38.5461 183.485C38.0848 182.924 37.8542 182.188 37.8542 181.278C37.8542 180.256 38.2344 179.433 38.9949 178.81C39.7679 178.186 40.7404 177.875 41.9123 177.875C42.7227 177.875 43.4521 178.043 44.1004 178.38C44.7612 178.716 45.2848 179.153 45.6713 179.689L44.5679 180.586C43.8074 179.676 42.9035 179.221 41.8562 179.221C41.1207 179.221 40.5035 179.414 40.0048 179.801C39.5186 180.175 39.2755 180.661 39.2755 181.26C39.2755 181.846 39.4251 182.307 39.7243 182.643C40.036 182.968 40.5471 183.267 41.2578 183.541L43.0157 184.214C44.0505 184.613 44.8235 185.112 45.3347 185.71C45.8458 186.309 46.1014 187.082 46.1014 188.029C46.1014 189.127 45.7212 189.999 44.9607 190.648C44.2001 191.283 43.209 191.601 41.9871 191.601ZM50.2312 191.377H48.9221V177.351H50.2312V183.597C50.8671 182.425 51.8894 181.839 53.2982 181.839C54.333 181.839 55.1746 182.17 55.8229 182.83C56.4837 183.491 56.8141 184.389 56.8141 185.523V191.377H55.505V185.71C55.505 184.9 55.2868 184.258 54.8504 183.784C54.4265 183.298 53.8593 183.055 53.1486 183.055C52.3008 183.055 51.6026 183.385 51.0541 184.046C50.5055 184.694 50.2312 185.586 50.2312 186.72V191.377ZM64.1251 191.564C62.816 191.564 61.7126 191.09 60.815 190.143C59.9173 189.195 59.4685 188.048 59.4685 186.702C59.4685 185.355 59.9173 184.208 60.815 183.261C61.7126 182.313 62.816 181.839 64.1251 181.839C64.8358 181.839 65.5028 182.001 66.1261 182.326C66.762 182.65 67.2482 183.074 67.5848 183.597V182.026H68.8939V191.377H67.5848V189.806C67.2482 190.33 66.762 190.754 66.1261 191.078C65.5028 191.402 64.8358 191.564 64.1251 191.564ZM61.7687 189.301C62.4171 189.999 63.2461 190.348 64.256 190.348C65.2659 190.348 66.0887 189.999 66.7246 189.301C67.3729 188.59 67.6971 187.724 67.6971 186.702C67.6971 185.679 67.3729 184.819 66.7246 184.121C66.0887 183.41 65.2659 183.055 64.256 183.055C63.2461 183.055 62.4171 183.41 61.7687 184.121C61.1329 184.819 60.815 185.679 60.815 186.702C60.815 187.724 61.1329 188.59 61.7687 189.301ZM72.4806 191.377V182.026H73.7897V183.953C73.9892 183.329 74.3445 182.837 74.8557 182.475C75.3669 182.114 75.9154 181.933 76.5014 181.933C76.7632 181.933 76.9877 181.958 77.1747 182.008V183.373C76.9503 183.286 76.6884 183.242 76.3892 183.242C75.7284 183.242 75.13 183.541 74.5939 184.14C74.0578 184.738 73.7897 185.586 73.7897 186.683V191.377H72.4806ZM83.2497 191.564C81.8159 191.564 80.6564 191.103 79.7712 190.18C78.886 189.245 78.4434 188.086 78.4434 186.702C78.4434 185.33 78.8985 184.177 79.8086 183.242C80.7188 182.307 81.8782 181.839 83.2871 181.839C84.5463 181.839 85.5936 182.263 86.4289 183.111C87.2642 183.959 87.6819 185.112 87.6819 186.571V186.926H79.7899C79.7899 187.899 80.1141 188.715 80.7624 189.376C81.4107 190.024 82.2398 190.348 83.2497 190.348C83.9977 190.348 84.6086 190.205 85.0824 189.918C85.5686 189.619 85.9863 189.176 86.3354 188.59L87.4013 189.282C86.5162 190.803 85.1323 191.564 83.2497 191.564ZM79.9021 185.767H86.3167C86.192 184.931 85.8491 184.27 85.2881 183.784C84.7271 183.298 84.0413 183.055 83.231 183.055C82.4206 183.055 81.6975 183.304 81.0616 183.803C80.4382 184.289 80.0517 184.944 79.9021 185.767ZM95.8454 191.377V183.261H93.8444V182.026H95.8454V179.932C95.8454 179.047 96.0823 178.38 96.5561 177.931C97.0423 177.469 97.6844 177.239 98.4823 177.239C99.0059 177.239 99.4735 177.32 99.8849 177.482V178.66C99.5732 178.523 99.1743 178.454 98.688 178.454C98.1644 178.454 97.7779 178.579 97.5285 178.828C97.2792 179.065 97.1545 179.47 97.1545 180.044V182.026H99.8849V183.261H97.1545V191.377H95.8454ZM102.41 179.221C102.123 179.221 101.88 179.128 101.68 178.941C101.493 178.741 101.4 178.504 101.4 178.23C101.4 177.956 101.493 177.725 101.68 177.538C101.88 177.339 102.123 177.239 102.41 177.239C102.684 177.239 102.915 177.339 103.102 177.538C103.289 177.725 103.382 177.956 103.382 178.23C103.382 178.504 103.289 178.741 103.102 178.941C102.915 179.128 102.684 179.221 102.41 179.221ZM101.736 191.377V182.026H103.045V191.377H101.736ZM106.631 191.377V177.351H107.94V191.377H106.631ZM115.574 191.564C114.14 191.564 112.98 191.103 112.095 190.18C111.21 189.245 110.767 188.086 110.767 186.702C110.767 185.33 111.223 184.177 112.133 183.242C113.043 182.307 114.202 181.839 115.611 181.839C116.87 181.839 117.918 182.263 118.753 183.111C119.588 183.959 120.006 185.112 120.006 186.571V186.926H112.114C112.114 187.899 112.438 188.715 113.086 189.376C113.735 190.024 114.564 190.348 115.574 190.348C116.322 190.348 116.933 190.205 117.406 189.918C117.893 189.619 118.31 189.176 118.659 188.59L119.725 189.282C118.84 190.803 117.456 191.564 115.574 191.564ZM112.226 185.767H118.641C118.516 184.931 118.173 184.27 117.612 183.784C117.051 183.298 116.365 183.055 115.555 183.055C114.745 183.055 114.021 183.304 113.386 183.803C112.762 184.289 112.376 184.944 112.226 185.767ZM125.523 191.564C124.638 191.564 123.871 191.371 123.223 190.984C122.587 190.585 122.145 190.012 121.895 189.264L123.073 188.777C123.223 189.276 123.529 189.669 123.99 189.956C124.464 190.242 124.981 190.386 125.542 190.386C126.066 190.386 126.496 190.261 126.832 190.012C127.182 189.75 127.356 189.395 127.356 188.946C127.356 188.572 127.219 188.26 126.945 188.011C126.683 187.749 126.234 187.512 125.598 187.3L124.588 186.982C123.092 186.521 122.344 185.636 122.344 184.327C122.344 183.566 122.637 182.961 123.223 182.513C123.822 182.064 124.57 181.839 125.467 181.839C126.876 181.839 127.886 182.388 128.497 183.485L127.45 184.14C126.951 183.379 126.265 182.999 125.392 182.999C124.931 182.999 124.526 183.123 124.177 183.373C123.828 183.61 123.653 183.909 123.653 184.27C123.653 184.969 124.139 185.474 125.112 185.785L126.178 186.122C127.836 186.646 128.665 187.549 128.665 188.834C128.665 189.694 128.372 190.367 127.786 190.853C127.213 191.327 126.458 191.564 125.523 191.564ZM140.529 191.564C139.095 191.564 137.936 191.103 137.051 190.18C136.165 189.245 135.723 188.086 135.723 186.702C135.723 185.33 136.178 184.177 137.088 183.242C137.998 182.307 139.158 181.839 140.566 181.839C141.826 181.839 142.873 182.263 143.708 183.111C144.544 183.959 144.961 185.112 144.961 186.571V186.926H137.069C137.069 187.899 137.393 188.715 138.042 189.376C138.69 190.024 139.519 190.348 140.529 190.348C141.277 190.348 141.888 190.205 142.362 189.918C142.848 189.619 143.266 189.176 143.615 188.59L144.681 189.282C143.795 190.803 142.412 191.564 140.529 191.564ZM137.181 185.767H143.596C143.471 184.931 143.128 184.27 142.567 183.784C142.006 183.298 141.321 183.055 140.51 183.055C139.7 183.055 138.977 183.304 138.341 183.803C137.718 184.289 137.331 184.944 137.181 185.767ZM148.421 179.221C148.135 179.221 147.892 179.128 147.692 178.941C147.505 178.741 147.412 178.504 147.412 178.23C147.412 177.956 147.505 177.725 147.692 177.538C147.892 177.339 148.135 177.239 148.421 177.239C148.696 177.239 148.926 177.339 149.113 177.538C149.3 177.725 149.394 177.956 149.394 178.23C149.394 178.504 149.3 178.741 149.113 178.941C148.926 179.128 148.696 179.221 148.421 179.221ZM147.748 191.377V182.026H149.057V191.377H147.748ZM155.999 191.47C155.214 191.47 154.571 191.246 154.073 190.797C153.587 190.336 153.343 189.663 153.343 188.777V183.261H151.342V182.026H153.343V179.427H154.653V182.026H157.383V183.261H154.653V188.665C154.653 189.239 154.777 189.65 155.027 189.9C155.288 190.136 155.681 190.255 156.205 190.255C156.679 190.255 157.071 190.186 157.383 190.049V191.227C156.971 191.389 156.51 191.47 155.999 191.47ZM161.201 191.377H159.892V177.351H161.201V183.597C161.837 182.425 162.86 181.839 164.269 181.839C165.303 181.839 166.145 182.17 166.793 182.83C167.454 183.491 167.784 184.389 167.784 185.523V191.377H166.475V185.71C166.475 184.9 166.257 184.258 165.821 183.784C165.397 183.298 164.83 183.055 164.119 183.055C163.271 183.055 162.573 183.385 162.024 184.046C161.476 184.694 161.201 185.586 161.201 186.72V191.377ZM175.264 191.564C173.83 191.564 172.67 191.103 171.785 190.18C170.9 189.245 170.457 188.086 170.457 186.702C170.457 185.33 170.913 184.177 171.823 183.242C172.733 182.307 173.892 181.839 175.301 181.839C176.56 181.839 177.608 182.263 178.443 183.111C179.278 183.959 179.696 185.112 179.696 186.571V186.926H171.804C171.804 187.899 172.128 188.715 172.776 189.376C173.425 190.024 174.254 190.348 175.264 190.348C176.012 190.348 176.623 190.205 177.096 189.918C177.583 189.619 178 189.176 178.349 188.59L179.415 189.282C178.53 190.803 177.146 191.564 175.264 191.564ZM171.916 185.767H178.331C178.206 184.931 177.863 184.27 177.302 183.784C176.741 183.298 176.055 183.055 175.245 183.055C174.435 183.055 173.711 183.304 173.076 183.803C172.452 184.289 172.066 184.944 171.916 185.767ZM182.483 191.377V182.026H183.792V183.953C183.992 183.329 184.347 182.837 184.858 182.475C185.369 182.114 185.918 181.933 186.504 181.933C186.766 181.933 186.99 181.958 187.177 182.008V183.373C186.953 183.286 186.691 183.242 186.392 183.242C185.731 183.242 185.132 183.541 184.596 184.14C184.06 184.738 183.792 185.586 183.792 186.683V191.377H182.483ZM195.315 195.286H194.006V182.026H195.315V183.597C195.652 183.074 196.132 182.65 196.755 182.326C197.391 182.001 198.064 181.839 198.775 181.839C200.084 181.839 201.187 182.313 202.085 183.261C202.983 184.208 203.432 185.355 203.432 186.702C203.432 188.048 202.983 189.195 202.085 190.143C201.187 191.09 200.084 191.564 198.775 191.564C198.064 191.564 197.391 191.402 196.755 191.078C196.132 190.754 195.652 190.33 195.315 189.806V195.286ZM196.157 189.301C196.805 189.999 197.634 190.348 198.644 190.348C199.654 190.348 200.477 189.999 201.113 189.301C201.761 188.59 202.085 187.724 202.085 186.702C202.085 185.679 201.761 184.819 201.113 184.121C200.477 183.41 199.654 183.055 198.644 183.055C197.634 183.055 196.805 183.41 196.157 184.121C195.521 184.819 195.203 185.679 195.203 186.702C195.203 187.724 195.521 188.59 196.157 189.301ZM209.524 191.564C208.514 191.564 207.691 191.227 207.055 190.554C206.419 189.881 206.102 188.989 206.102 187.88V182.026H207.411V187.693C207.411 188.503 207.623 189.151 208.046 189.638C208.47 190.111 209.019 190.348 209.692 190.348C210.503 190.348 211.17 190.018 211.693 189.357C212.229 188.684 212.497 187.793 212.497 186.683V182.026H213.806V191.377H212.497V189.806C211.862 190.978 210.87 191.564 209.524 191.564ZM222.169 191.564C221.459 191.564 220.785 191.402 220.149 191.078C219.526 190.754 219.046 190.33 218.709 189.806V191.377H217.4V177.351H218.709V183.597C219.046 183.074 219.526 182.65 220.149 182.326C220.785 182.001 221.459 181.839 222.169 181.839C223.478 181.839 224.582 182.313 225.479 183.261C226.377 184.208 226.826 185.355 226.826 186.702C226.826 188.048 226.377 189.195 225.479 190.143C224.582 191.09 223.478 191.564 222.169 191.564ZM219.551 189.301C220.199 189.999 221.028 190.348 222.038 190.348C223.048 190.348 223.871 189.999 224.507 189.301C225.155 188.59 225.479 187.724 225.479 186.702C225.479 185.679 225.155 184.819 224.507 184.121C223.871 183.41 223.048 183.055 222.038 183.055C221.028 183.055 220.199 183.41 219.551 184.121C218.915 184.819 218.597 185.679 218.597 186.702C218.597 187.724 218.915 188.59 219.551 189.301ZM229.627 191.377V177.351H230.936V191.377H229.627ZM235.204 179.221C234.917 179.221 234.674 179.128 234.474 178.941C234.287 178.741 234.194 178.504 234.194 178.23C234.194 177.956 234.287 177.725 234.474 177.538C234.674 177.339 234.917 177.239 235.204 177.239C235.478 177.239 235.708 177.339 235.896 177.538C236.083 177.725 236.176 177.956 236.176 178.23C236.176 178.504 236.083 178.741 235.896 178.941C235.708 179.128 235.478 179.221 235.204 179.221ZM234.53 191.377V182.026H235.839V191.377H234.53ZM243.529 191.564C242.12 191.564 240.955 191.096 240.032 190.161C239.109 189.214 238.648 188.061 238.648 186.702C238.648 185.343 239.109 184.196 240.032 183.261C240.955 182.313 242.12 181.839 243.529 181.839C244.477 181.839 245.318 182.057 246.054 182.494C246.802 182.93 247.388 183.529 247.812 184.289L246.671 184.944C246.372 184.358 245.948 183.896 245.399 183.56C244.863 183.223 244.24 183.055 243.529 183.055C242.482 183.055 241.628 183.41 240.967 184.121C240.319 184.819 239.995 185.679 239.995 186.702C239.995 187.724 240.319 188.59 240.967 189.301C241.628 189.999 242.482 190.348 243.529 190.348C244.24 190.348 244.863 190.18 245.399 189.843C245.948 189.507 246.372 189.046 246.671 188.46L247.812 189.114C247.388 189.875 246.802 190.473 246.054 190.909C245.318 191.346 244.477 191.564 243.529 191.564ZM250.418 191.377V177.351H251.727V191.377H250.418ZM257.472 195.286H255.995L258.052 190.909L253.9 182.026H255.359L258.781 189.451L262.204 182.026H263.681L257.472 195.286ZM277.926 190.161C277.003 191.096 275.837 191.564 274.429 191.564C273.02 191.564 271.854 191.096 270.931 190.161C270.009 189.214 269.548 188.061 269.548 186.702C269.548 185.343 270.009 184.196 270.931 183.261C271.854 182.313 273.02 181.839 274.429 181.839C275.837 181.839 277.003 182.313 277.926 183.261C278.848 184.196 279.31 185.343 279.31 186.702C279.31 188.061 278.848 189.214 277.926 190.161ZM271.867 189.301C272.527 189.999 273.381 190.348 274.429 190.348C275.476 190.348 276.324 189.999 276.972 189.301C277.633 188.59 277.963 187.724 277.963 186.702C277.963 185.679 277.633 184.819 276.972 184.121C276.324 183.41 275.476 183.055 274.429 183.055C273.381 183.055 272.527 183.41 271.867 184.121C271.218 184.819 270.894 185.679 270.894 186.702C270.894 187.724 271.218 188.59 271.867 189.301ZM282.121 191.377V182.026H283.431V183.953C283.63 183.329 283.985 182.837 284.496 182.475C285.008 182.114 285.556 181.933 286.142 181.933C286.404 181.933 286.628 181.958 286.815 182.008V183.373C286.591 183.286 286.329 183.242 286.03 183.242C285.369 183.242 284.771 183.541 284.235 184.14C283.699 184.738 283.431 185.586 283.431 186.683V191.377H282.121ZM294.954 195.286H293.645V182.026H294.954V183.597C295.29 183.074 295.77 182.65 296.394 182.326C297.03 182.001 297.703 181.839 298.414 181.839C299.723 181.839 300.826 182.313 301.724 183.261C302.621 184.208 303.07 185.355 303.07 186.702C303.07 188.048 302.621 189.195 301.724 190.143C300.826 191.09 299.723 191.564 298.414 191.564C297.703 191.564 297.03 191.402 296.394 191.078C295.77 190.754 295.29 190.33 294.954 189.806V195.286ZM295.795 189.301C296.444 189.999 297.273 190.348 298.283 190.348C299.292 190.348 300.115 189.999 300.751 189.301C301.399 188.59 301.724 187.724 301.724 186.702C301.724 185.679 301.399 184.819 300.751 184.121C300.115 183.41 299.292 183.055 298.283 183.055C297.273 183.055 296.444 183.41 295.795 184.121C295.159 184.819 294.842 185.679 294.842 186.702C294.842 187.724 295.159 188.59 295.795 189.301ZM305.89 191.377V182.026H307.199V183.953C307.398 183.329 307.754 182.837 308.265 182.475C308.776 182.114 309.324 181.933 309.91 181.933C310.172 181.933 310.397 181.958 310.584 182.008V183.373C310.359 183.286 310.097 183.242 309.798 183.242C309.137 183.242 308.539 183.541 308.003 184.14C307.467 184.738 307.199 185.586 307.199 186.683V191.377H305.89ZM313.621 179.221C313.334 179.221 313.091 179.128 312.892 178.941C312.705 178.741 312.611 178.504 312.611 178.23C312.611 177.956 312.705 177.725 312.892 177.538C313.091 177.339 313.334 177.239 313.621 177.239C313.895 177.239 314.126 177.339 314.313 177.538C314.5 177.725 314.594 177.956 314.594 178.23C314.594 178.504 314.5 178.741 314.313 178.941C314.126 179.128 313.895 179.221 313.621 179.221ZM312.948 191.377V182.026H314.257V191.377H312.948ZM320.769 191.377L316.392 182.026H317.851L321.274 189.451L324.696 182.026H326.173L321.797 191.377H320.769ZM332.013 191.564C330.704 191.564 329.601 191.09 328.703 190.143C327.805 189.195 327.357 188.048 327.357 186.702C327.357 185.355 327.805 184.208 328.703 183.261C329.601 182.313 330.704 181.839 332.013 181.839C332.724 181.839 333.391 182.001 334.014 182.326C334.65 182.65 335.136 183.074 335.473 183.597V182.026H336.782V191.377H335.473V189.806C335.136 190.33 334.65 190.754 334.014 191.078C333.391 191.402 332.724 191.564 332.013 191.564ZM329.657 189.301C330.305 189.999 331.134 190.348 332.144 190.348C333.154 190.348 333.977 189.999 334.613 189.301C335.261 188.59 335.585 187.724 335.585 186.702C335.585 185.679 335.261 184.819 334.613 184.121C333.977 183.41 333.154 183.055 332.144 183.055C331.134 183.055 330.305 183.41 329.657 184.121C329.021 184.819 328.703 185.679 328.703 186.702C328.703 187.724 329.021 188.59 329.657 189.301ZM343.716 191.47C342.931 191.47 342.289 191.246 341.79 190.797C341.304 190.336 341.061 189.663 341.061 188.777V183.261H339.06V182.026H341.061V179.427H342.37V182.026H345.1V183.261H342.37V188.665C342.37 189.239 342.494 189.65 342.744 189.9C343.006 190.136 343.398 190.255 343.922 190.255C344.396 190.255 344.788 190.186 345.1 190.049V191.227C344.689 191.389 344.227 191.47 343.716 191.47ZM351.521 191.564C350.088 191.564 348.928 191.103 348.043 190.18C347.158 189.245 346.715 188.086 346.715 186.702C346.715 185.33 347.17 184.177 348.08 183.242C348.99 182.307 350.15 181.839 351.559 181.839C352.818 181.839 353.865 182.263 354.7 183.111C355.536 183.959 355.953 185.112 355.953 186.571V186.926H348.062C348.062 187.899 348.386 188.715 349.034 189.376C349.682 190.024 350.511 190.348 351.521 190.348C352.269 190.348 352.88 190.205 353.354 189.918C353.84 189.619 354.258 189.176 354.607 188.59L355.673 189.282C354.788 190.803 353.404 191.564 351.521 191.564ZM348.174 185.767H354.588C354.464 184.931 354.121 184.27 353.56 183.784C352.999 183.298 352.313 183.055 351.503 183.055C350.692 183.055 349.969 183.304 349.333 183.803C348.71 184.289 348.323 184.944 348.174 185.767ZM358.741 191.377V177.351H360.05V191.377H358.741ZM365.794 195.286H364.317L366.374 190.909L362.222 182.026H363.681L367.104 189.451L370.526 182.026H372.003L365.794 195.286ZM126.872 223.377L124.384 216.252L121.916 223.377H120.831L117.633 214.026H118.98L121.392 221.133L123.879 214.026H124.889L127.358 221.133L129.789 214.026H131.154L127.956 223.377H126.872ZM134.071 211.221C133.784 211.221 133.541 211.128 133.342 210.941C133.155 210.741 133.061 210.504 133.061 210.23C133.061 209.956 133.155 209.725 133.342 209.538C133.541 209.339 133.784 209.239 134.071 209.239C134.345 209.239 134.576 209.339 134.763 209.538C134.95 209.725 135.044 209.956 135.044 210.23C135.044 210.504 134.95 210.741 134.763 210.941C134.576 211.128 134.345 211.221 134.071 211.221ZM133.398 223.377V214.026H134.707V223.377H133.398ZM141.649 223.47C140.863 223.47 140.221 223.246 139.722 222.797C139.236 222.336 138.993 221.663 138.993 220.777V215.261H136.992V214.026H138.993V211.427H140.302V214.026H143.033V215.261H140.302V220.665C140.302 221.239 140.427 221.65 140.676 221.9C140.938 222.136 141.331 222.255 141.854 222.255C142.328 222.255 142.721 222.186 143.033 222.049V223.227C142.621 223.389 142.16 223.47 141.649 223.47ZM146.851 223.377H145.542V209.351H146.851V215.597C147.487 214.425 148.509 213.839 149.918 213.839C150.953 213.839 151.795 214.17 152.443 214.83C153.104 215.491 153.434 216.389 153.434 217.523V223.377H152.125V217.71C152.125 216.9 151.907 216.258 151.47 215.784C151.047 215.298 150.479 215.055 149.769 215.055C148.921 215.055 148.223 215.385 147.674 216.046C147.125 216.694 146.851 217.586 146.851 218.72V223.377ZM164.869 223.47C164.084 223.47 163.441 223.246 162.943 222.797C162.457 222.336 162.213 221.663 162.213 220.777V215.261H160.212V214.026H162.213V211.427H163.522V214.026H166.253V215.261H163.522V220.665C163.522 221.239 163.647 221.65 163.897 221.9C164.158 222.136 164.551 222.255 165.075 222.255C165.548 222.255 165.941 222.186 166.253 222.049V223.227C165.841 223.389 165.38 223.47 164.869 223.47ZM172.674 223.564C171.24 223.564 170.081 223.103 169.196 222.18C168.31 221.245 167.868 220.086 167.868 218.702C167.868 217.33 168.323 216.177 169.233 215.242C170.143 214.307 171.303 213.839 172.711 213.839C173.971 213.839 175.018 214.263 175.853 215.111C176.689 215.959 177.106 217.112 177.106 218.571V218.926H169.214C169.214 219.899 169.538 220.715 170.187 221.376C170.835 222.024 171.664 222.348 172.674 222.348C173.422 222.348 174.033 222.205 174.507 221.918C174.993 221.619 175.411 221.176 175.76 220.59L176.826 221.282C175.941 222.803 174.557 223.564 172.674 223.564ZM169.326 217.767H175.741C175.616 216.931 175.273 216.27 174.712 215.784C174.151 215.298 173.466 215.055 172.655 215.055C171.845 215.055 171.122 215.304 170.486 215.803C169.863 216.289 169.476 216.944 169.326 217.767ZM183.764 223.564C182.455 223.564 181.352 223.09 180.454 222.143C179.557 221.195 179.108 220.048 179.108 218.702C179.108 217.355 179.557 216.208 180.454 215.261C181.352 214.313 182.455 213.839 183.764 213.839C184.475 213.839 185.142 214.001 185.766 214.326C186.401 214.65 186.888 215.074 187.224 215.597V214.026H188.533V223.377H187.224V221.806C186.888 222.33 186.401 222.754 185.766 223.078C185.142 223.402 184.475 223.564 183.764 223.564ZM181.408 221.301C182.056 221.999 182.886 222.348 183.895 222.348C184.905 222.348 185.728 221.999 186.364 221.301C187.012 220.59 187.336 219.724 187.336 218.702C187.336 217.679 187.012 216.819 186.364 216.121C185.728 215.41 184.905 215.055 183.895 215.055C182.886 215.055 182.056 215.41 181.408 216.121C180.772 216.819 180.454 217.679 180.454 218.702C180.454 219.724 180.772 220.59 181.408 221.301ZM204.238 223.377V217.71C204.238 216.913 204.064 216.27 203.715 215.784C203.378 215.298 202.892 215.055 202.256 215.055C201.421 215.055 200.748 215.391 200.236 216.065C199.738 216.726 199.488 217.611 199.488 218.72V223.377H198.179V217.71C198.179 216.913 198.005 216.27 197.656 215.784C197.319 215.298 196.839 215.055 196.216 215.055C195.393 215.055 194.719 215.391 194.196 216.065C193.685 216.726 193.429 217.611 193.429 218.72V223.377H192.12V214.026H193.429V215.597C193.703 215.049 194.096 214.619 194.607 214.307C195.118 213.995 195.698 213.839 196.346 213.839C197.045 213.839 197.643 214.026 198.142 214.4C198.653 214.774 199.021 215.292 199.245 215.953C199.482 215.304 199.869 214.793 200.405 214.419C200.953 214.033 201.602 213.839 202.35 213.839C203.322 213.839 204.095 214.182 204.669 214.868C205.255 215.541 205.548 216.426 205.548 217.523V223.377H204.238ZM226.062 223.377V217.71C226.062 216.913 225.887 216.27 225.538 215.784C225.202 215.298 224.715 215.055 224.08 215.055C223.244 215.055 222.571 215.391 222.06 216.065C221.561 216.726 221.312 217.611 221.312 218.72V223.377H220.003V217.71C220.003 216.913 219.828 216.27 219.479 215.784C219.143 215.298 218.663 215.055 218.039 215.055C217.216 215.055 216.543 215.391 216.019 216.065C215.508 216.726 215.253 217.611 215.253 218.72V223.377H213.944V214.026H215.253V215.597C215.527 215.049 215.92 214.619 216.431 214.307C216.942 213.995 217.522 213.839 218.17 213.839C218.868 213.839 219.467 214.026 219.965 214.4C220.477 214.774 220.844 215.292 221.069 215.953C221.306 215.304 221.692 214.793 222.228 214.419C222.777 214.033 223.425 213.839 224.173 213.839C225.146 213.839 225.919 214.182 226.492 214.868C227.078 215.541 227.371 216.426 227.371 217.523V223.377H226.062ZM234.849 223.564C233.415 223.564 232.255 223.103 231.37 222.18C230.485 221.245 230.042 220.086 230.042 218.702C230.042 217.33 230.497 216.177 231.407 215.242C232.318 214.307 233.477 213.839 234.886 213.839C236.145 213.839 237.192 214.263 238.028 215.111C238.863 215.959 239.281 217.112 239.281 218.571V218.926H231.389C231.389 219.899 231.713 220.715 232.361 221.376C233.01 222.024 233.839 222.348 234.849 222.348C235.597 222.348 236.207 222.205 236.681 221.918C237.167 221.619 237.585 221.176 237.934 220.59L239 221.282C238.115 222.803 236.731 223.564 234.849 223.564ZM231.501 217.767H237.916C237.791 216.931 237.448 216.27 236.887 215.784C236.326 215.298 235.64 215.055 234.83 215.055C234.019 215.055 233.296 215.304 232.66 215.803C232.037 216.289 231.651 216.944 231.501 217.767ZM254.186 223.377V217.71C254.186 216.913 254.012 216.27 253.663 215.784C253.326 215.298 252.84 215.055 252.204 215.055C251.369 215.055 250.695 215.391 250.184 216.065C249.685 216.726 249.436 217.611 249.436 218.72V223.377H248.127V217.71C248.127 216.913 247.952 216.27 247.603 215.784C247.267 215.298 246.787 215.055 246.163 215.055C245.341 215.055 244.667 215.391 244.144 216.065C243.632 216.726 243.377 217.611 243.377 218.72V223.377H242.068V214.026H243.377V215.597C243.651 215.049 244.044 214.619 244.555 214.307C245.066 213.995 245.646 213.839 246.294 213.839C246.992 213.839 247.591 214.026 248.09 214.4C248.601 214.774 248.969 215.292 249.193 215.953C249.43 215.304 249.816 214.793 250.352 214.419C250.901 214.033 251.549 213.839 252.297 213.839C253.27 213.839 254.043 214.182 254.616 214.868C255.202 215.541 255.495 216.426 255.495 217.523V223.377H254.186ZM263.702 223.564C262.992 223.564 262.318 223.402 261.682 223.078C261.059 222.754 260.579 222.33 260.242 221.806V223.377H258.933V209.351H260.242V215.597C260.579 215.074 261.059 214.65 261.682 214.326C262.318 214.001 262.992 213.839 263.702 213.839C265.011 213.839 266.115 214.313 267.012 215.261C267.91 216.208 268.359 217.355 268.359 218.702C268.359 220.048 267.91 221.195 267.012 222.143C266.115 223.09 265.011 223.564 263.702 223.564ZM261.084 221.301C261.732 221.999 262.561 222.348 263.571 222.348C264.581 222.348 265.404 221.999 266.04 221.301C266.688 220.59 267.012 219.724 267.012 218.702C267.012 217.679 266.688 216.819 266.04 216.121C265.404 215.41 264.581 215.055 263.571 215.055C262.561 215.055 261.732 215.41 261.084 216.121C260.448 216.819 260.13 217.679 260.13 218.702C260.13 219.724 260.448 220.59 261.084 221.301ZM275.199 223.564C273.766 223.564 272.606 223.103 271.721 222.18C270.836 221.245 270.393 220.086 270.393 218.702C270.393 217.33 270.848 216.177 271.758 215.242C272.669 214.307 273.828 213.839 275.237 213.839C276.496 213.839 277.543 214.263 278.379 215.111C279.214 215.959 279.632 217.112 279.632 218.571V218.926H271.74C271.74 219.899 272.064 220.715 272.712 221.376C273.361 222.024 274.19 222.348 275.199 222.348C275.948 222.348 276.558 222.205 277.032 221.918C277.518 221.619 277.936 221.176 278.285 220.59L279.351 221.282C278.466 222.803 277.082 223.564 275.199 223.564ZM271.852 217.767H278.267C278.142 216.931 277.799 216.27 277.238 215.784C276.677 215.298 275.991 215.055 275.181 215.055C274.37 215.055 273.647 215.304 273.011 215.803C272.388 216.289 272.002 216.944 271.852 217.767ZM282.419 223.377V214.026H283.728V215.953C283.927 215.329 284.283 214.837 284.794 214.475C285.305 214.114 285.854 213.933 286.44 213.933C286.701 213.933 286.926 213.958 287.113 214.008V215.373C286.888 215.286 286.627 215.242 286.327 215.242C285.667 215.242 285.068 215.541 284.532 216.14C283.996 216.738 283.728 217.586 283.728 218.683V223.377H282.419ZM292.025 223.564C291.14 223.564 290.373 223.371 289.725 222.984C289.089 222.585 288.646 222.012 288.397 221.264L289.575 220.777C289.725 221.276 290.03 221.669 290.491 221.956C290.965 222.242 291.482 222.386 292.043 222.386C292.567 222.386 292.997 222.261 293.334 222.012C293.683 221.75 293.858 221.395 293.858 220.946C293.858 220.572 293.72 220.26 293.446 220.011C293.184 219.749 292.735 219.512 292.1 219.3L291.09 218.982C289.594 218.521 288.846 217.636 288.846 216.327C288.846 215.566 289.139 214.961 289.725 214.513C290.323 214.064 291.071 213.839 291.969 213.839C293.378 213.839 294.387 214.388 294.998 215.485L293.951 216.14C293.452 215.379 292.767 214.999 291.894 214.999C291.433 214.999 291.027 215.123 290.678 215.373C290.329 215.61 290.155 215.909 290.155 216.27C290.155 216.969 290.641 217.474 291.613 217.785L292.679 218.122C294.338 218.646 295.167 219.549 295.167 220.834C295.167 221.694 294.874 222.367 294.288 222.853C293.714 223.327 292.96 223.564 292.025 223.564Z" fill="#585858"/>
<defs>
<clipPath id="clip0_11469_48890">
<rect width="95.3766" height="95.3766" fill="white" transform="translate(156.719)"/>
</clipPath>
</defs>
</svg>
