<svg width="425" height="105" viewBox="0 0 425 105" fill="none" xmlns="http://www.w3.org/2000/svg">
<rect width="425" height="105" fill="#1E1E1E"/>
<rect x="-31" y="-82" width="486" height="463" rx="16" fill="white"/>
<rect width="425" height="105" rx="16" fill="#12D8A0" fill-opacity="0.2"/>
<path d="M17.752 48V43.184L13.272 36.64H14.744L18.36 41.936L21.976 36.64H23.448L18.952 43.2V48H17.752ZM29.8251 46.96C29.0358 47.76 28.0385 48.16 26.8331 48.16C25.6278 48.16 24.6305 47.76 23.8411 46.96C23.0518 46.1493 22.6571 45.1627 22.6571 44C22.6571 42.8373 23.0518 41.856 23.8411 41.056C24.6305 40.2453 25.6278 39.84 26.8331 39.84C28.0385 39.84 29.0358 40.2453 29.8251 41.056C30.6145 41.856 31.0091 42.8373 31.0091 44C31.0091 45.1627 30.6145 46.1493 29.8251 46.96ZM24.6411 46.224C25.2065 46.8213 25.9371 47.12 26.8331 47.12C27.7291 47.12 28.4545 46.8213 29.0091 46.224C29.5745 45.616 29.8571 44.8747 29.8571 44C29.8571 43.1253 29.5745 42.3893 29.0091 41.792C28.4545 41.184 27.7291 40.88 26.8331 40.88C25.9371 40.88 25.2065 41.184 24.6411 41.792C24.0865 42.3893 23.8091 43.1253 23.8091 44C23.8091 44.8747 24.0865 45.616 24.6411 46.224ZM35.8948 48.16C35.0308 48.16 34.3268 47.872 33.7828 47.296C33.2388 46.72 32.9668 45.9573 32.9668 45.008V40H34.0868V44.848C34.0868 45.5413 34.2681 46.096 34.6308 46.512C34.9934 46.9173 35.4628 47.12 36.0388 47.12C36.7321 47.12 37.3028 46.8373 37.7508 46.272C38.2094 45.696 38.4388 44.9333 38.4388 43.984V40H39.5588V48H38.4388V46.656C37.8948 47.6587 37.0468 48.16 35.8948 48.16ZM49.7394 48.16C48.534 48.16 47.5367 47.76 46.7474 46.96C45.958 46.1493 45.5634 45.1627 45.5634 44C45.5634 42.8373 45.958 41.856 46.7474 41.056C47.5367 40.2453 48.534 39.84 49.7394 39.84C50.55 39.84 51.27 40.0267 51.8994 40.4C52.5394 40.7733 53.0407 41.2853 53.4034 41.936L52.4274 42.496C52.1714 41.9947 51.8087 41.6 51.3394 41.312C50.8807 41.024 50.3474 40.88 49.7394 40.88C48.8434 40.88 48.1127 41.184 47.5474 41.792C46.9927 42.3893 46.7154 43.1253 46.7154 44C46.7154 44.8747 46.9927 45.616 47.5474 46.224C48.1127 46.8213 48.8434 47.12 49.7394 47.12C50.3474 47.12 50.8807 46.976 51.3394 46.688C51.8087 46.4 52.1714 46.0053 52.4274 45.504L53.4034 46.064C53.0407 46.7147 52.5394 47.2267 51.8994 47.6C51.27 47.9733 50.55 48.16 49.7394 48.16ZM58.6255 48.16C57.5055 48.16 56.5615 47.7547 55.7935 46.944C55.0255 46.1333 54.6415 45.152 54.6415 44C54.6415 42.848 55.0255 41.8667 55.7935 41.056C56.5615 40.2453 57.5055 39.84 58.6255 39.84C59.2335 39.84 59.8042 39.9787 60.3375 40.256C60.8815 40.5333 61.2975 40.896 61.5855 41.344V40H62.7055V48H61.5855V46.656C61.2975 47.104 60.8815 47.4667 60.3375 47.744C59.8042 48.0213 59.2335 48.16 58.6255 48.16ZM56.6095 46.224C57.1642 46.8213 57.8735 47.12 58.7375 47.12C59.6015 47.12 60.3055 46.8213 60.8495 46.224C61.4042 45.616 61.6815 44.8747 61.6815 44C61.6815 43.1253 61.4042 42.3893 60.8495 41.792C60.3055 41.184 59.6015 40.88 58.7375 40.88C57.8735 40.88 57.1642 41.184 56.6095 41.792C56.0655 42.3893 55.7935 43.1253 55.7935 44C55.7935 44.8747 56.0655 45.616 56.6095 46.224ZM65.4541 48V40H66.5741V41.344C67.1181 40.3413 67.9928 39.84 69.1981 39.84C70.0835 39.84 70.8035 40.1227 71.3581 40.688C71.9235 41.2533 72.2061 42.0213 72.2061 42.992V48H71.0861V43.152C71.0861 42.4587 70.8995 41.9093 70.5261 41.504C70.1635 41.088 69.6781 40.88 69.0701 40.88C68.3448 40.88 67.7475 41.1627 67.2781 41.728C66.8088 42.2827 66.5741 43.0453 66.5741 44.016V48H65.4541ZM85.247 46.96C84.4577 47.76 83.4603 48.16 82.255 48.16C81.0497 48.16 80.0523 47.76 79.263 46.96C78.4737 46.1493 78.079 45.1627 78.079 44C78.079 42.8373 78.4737 41.856 79.263 41.056C80.0523 40.2453 81.0497 39.84 82.255 39.84C83.4603 39.84 84.4577 40.2453 85.247 41.056C86.0363 41.856 86.431 42.8373 86.431 44C86.431 45.1627 86.0363 46.1493 85.247 46.96ZM80.063 46.224C80.6283 46.8213 81.359 47.12 82.255 47.12C83.151 47.12 83.8763 46.8213 84.431 46.224C84.9963 45.616 85.279 44.8747 85.279 44C85.279 43.1253 84.9963 42.3893 84.431 41.792C83.8763 41.184 83.151 40.88 82.255 40.88C81.359 40.88 80.6283 41.184 80.063 41.792C79.5083 42.3893 79.231 43.1253 79.231 44C79.231 44.8747 79.5083 45.616 80.063 46.224ZM88.5166 48V40H89.6366V41.344C90.1806 40.3413 91.0553 39.84 92.2606 39.84C93.146 39.84 93.866 40.1227 94.4206 40.688C94.986 41.2533 95.2686 42.0213 95.2686 42.992V48H94.1486V43.152C94.1486 42.4587 93.962 41.9093 93.5886 41.504C93.226 41.088 92.7406 40.88 92.1326 40.88C91.4073 40.88 90.81 41.1627 90.3406 41.728C89.8713 42.2827 89.6366 43.0453 89.6366 44.016V48H88.5166ZM97.8916 48V36H99.0116V48H97.8916ZM103.607 51.344H102.343L104.103 47.6L100.551 40H101.799L104.727 46.352L107.655 40H108.919L103.607 51.344ZM113.97 48V36H115.09V48H113.97ZM118.421 37.6C118.175 37.6 117.967 37.52 117.797 37.36C117.637 37.1893 117.557 36.9867 117.557 36.752C117.557 36.5173 117.637 36.32 117.797 36.16C117.967 35.9893 118.175 35.904 118.421 35.904C118.655 35.904 118.853 35.9893 119.013 36.16C119.173 36.32 119.253 36.5173 119.253 36.752C119.253 36.9867 119.173 37.1893 119.013 37.36C118.853 37.52 118.655 37.6 118.421 37.6ZM117.845 48V40H118.965V48H117.845ZM121.72 48V40H122.84V41.344C123.384 40.3413 124.258 39.84 125.464 39.84C126.349 39.84 127.069 40.1227 127.624 40.688C128.189 41.2533 128.472 42.0213 128.472 42.992V48H127.352V43.152C127.352 42.4587 127.165 41.9093 126.792 41.504C126.429 41.088 125.944 40.88 125.336 40.88C124.61 40.88 124.013 41.1627 123.544 41.728C123.074 42.2827 122.84 43.0453 122.84 44.016V48H121.72ZM136.871 48L132.215 43.92V48H131.095V36H132.215V43.152L135.975 40H137.559L133.351 43.52L138.471 48H136.871ZM144.716 51.344H143.452L145.212 47.6L141.66 40H142.908L145.836 46.352L148.764 40H150.028L144.716 51.344ZM157.872 46.96C157.083 47.76 156.085 48.16 154.88 48.16C153.675 48.16 152.677 47.76 151.888 46.96C151.099 46.1493 150.704 45.1627 150.704 44C150.704 42.8373 151.099 41.856 151.888 41.056C152.677 40.2453 153.675 39.84 154.88 39.84C156.085 39.84 157.083 40.2453 157.872 41.056C158.661 41.856 159.056 42.8373 159.056 44C159.056 45.1627 158.661 46.1493 157.872 46.96ZM152.688 46.224C153.253 46.8213 153.984 47.12 154.88 47.12C155.776 47.12 156.501 46.8213 157.056 46.224C157.621 45.616 157.904 44.8747 157.904 44C157.904 43.1253 157.621 42.3893 157.056 41.792C156.501 41.184 155.776 40.88 154.88 40.88C153.984 40.88 153.253 41.184 152.688 41.792C152.133 42.3893 151.856 43.1253 151.856 44C151.856 44.8747 152.133 45.616 152.688 46.224ZM163.942 48.16C163.078 48.16 162.374 47.872 161.83 47.296C161.286 46.72 161.014 45.9573 161.014 45.008V40H162.134V44.848C162.134 45.5413 162.315 46.096 162.678 46.512C163.04 46.9173 163.51 47.12 164.086 47.12C164.779 47.12 165.35 46.8373 165.798 46.272C166.256 45.696 166.486 44.9333 166.486 43.984V40H167.606V48H166.486V46.656C165.942 47.6587 165.094 48.16 163.942 48.16ZM170.36 48V40H171.48V41.648C171.651 41.1147 171.955 40.6933 172.392 40.384C172.83 40.0747 173.299 39.92 173.8 39.92C174.024 39.92 174.216 39.9413 174.376 39.984V41.152C174.184 41.0773 173.96 41.04 173.704 41.04C173.139 41.04 172.627 41.296 172.168 41.808C171.71 42.32 171.48 43.0453 171.48 43.984V48H170.36ZM186.075 46.96C185.286 47.76 184.288 48.16 183.083 48.16C181.878 48.16 180.88 47.76 180.091 46.96C179.302 46.1493 178.907 45.1627 178.907 44C178.907 42.8373 179.302 41.856 180.091 41.056C180.88 40.2453 181.878 39.84 183.083 39.84C184.288 39.84 185.286 40.2453 186.075 41.056C186.864 41.856 187.259 42.8373 187.259 44C187.259 45.1627 186.864 46.1493 186.075 46.96ZM180.891 46.224C181.456 46.8213 182.187 47.12 183.083 47.12C183.979 47.12 184.704 46.8213 185.259 46.224C185.824 45.616 186.107 44.8747 186.107 44C186.107 43.1253 185.824 42.3893 185.259 41.792C184.704 41.184 183.979 40.88 183.083 40.88C182.187 40.88 181.456 41.184 180.891 41.792C180.336 42.3893 180.059 43.1253 180.059 44C180.059 44.8747 180.336 45.616 180.891 46.224ZM196.097 48L193.969 41.904L191.857 48H190.929L188.193 40H189.345L191.409 46.08L193.537 40H194.401L196.513 46.08L198.593 40H199.761L197.025 48H196.097ZM201.36 48V40H202.48V41.344C203.024 40.3413 203.899 39.84 205.104 39.84C205.99 39.84 206.71 40.1227 207.264 40.688C207.83 41.2533 208.112 42.0213 208.112 42.992V48H206.992V43.152C206.992 42.4587 206.806 41.9093 206.432 41.504C206.07 41.088 205.584 40.88 204.976 40.88C204.251 40.88 203.654 41.1627 203.184 41.728C202.715 42.2827 202.48 43.0453 202.48 44.016V48H201.36ZM218.737 48.16C218.129 48.16 217.553 48.0213 217.009 47.744C216.476 47.4667 216.065 47.104 215.777 46.656V48H214.657V36H215.777V41.344C216.065 40.896 216.476 40.5333 217.009 40.256C217.553 39.9787 218.129 39.84 218.737 39.84C219.857 39.84 220.801 40.2453 221.569 41.056C222.337 41.8667 222.721 42.848 222.721 44C222.721 45.152 222.337 46.1333 221.569 46.944C220.801 47.7547 219.857 48.16 218.737 48.16ZM216.497 46.224C217.052 46.8213 217.761 47.12 218.625 47.12C219.489 47.12 220.193 46.8213 220.737 46.224C221.292 45.616 221.569 44.8747 221.569 44C221.569 43.1253 221.292 42.3893 220.737 41.792C220.193 41.184 219.489 40.88 218.625 40.88C217.761 40.88 217.052 41.184 216.497 41.792C215.953 42.3893 215.681 43.1253 215.681 44C215.681 44.8747 215.953 45.616 216.497 46.224ZM228.11 48.16C226.99 48.16 226.046 47.7547 225.278 46.944C224.51 46.1333 224.126 45.152 224.126 44C224.126 42.848 224.51 41.8667 225.278 41.056C226.046 40.2453 226.99 39.84 228.11 39.84C228.718 39.84 229.289 39.9787 229.822 40.256C230.366 40.5333 230.782 40.896 231.07 41.344V40H232.19V48H231.07V46.656C230.782 47.104 230.366 47.4667 229.822 47.744C229.289 48.0213 228.718 48.16 228.11 48.16ZM226.094 46.224C226.649 46.8213 227.358 47.12 228.222 47.12C229.086 47.12 229.79 46.8213 230.334 46.224C230.889 45.616 231.166 44.8747 231.166 44C231.166 43.1253 230.889 42.3893 230.334 41.792C229.79 41.184 229.086 40.88 228.222 40.88C227.358 40.88 226.649 41.184 226.094 41.792C225.55 42.3893 225.278 43.1253 225.278 44C225.278 44.8747 225.55 45.616 226.094 46.224ZM234.939 48V40H236.059V41.344C236.603 40.3413 237.477 39.84 238.683 39.84C239.568 39.84 240.288 40.1227 240.843 40.688C241.408 41.2533 241.691 42.0213 241.691 42.992V48H240.571V43.152C240.571 42.4587 240.384 41.9093 240.011 41.504C239.648 41.088 239.163 40.88 238.555 40.88C237.829 40.88 237.232 41.1627 236.763 41.728C236.293 42.2827 236.059 43.0453 236.059 44.016V48H234.939ZM250.09 48L245.434 43.92V48H244.314V36H245.434V43.152L249.194 40H250.778L246.57 43.52L251.69 48H250.09ZM259.782 48.16C258.662 48.16 257.718 47.7547 256.95 46.944C256.182 46.1333 255.798 45.152 255.798 44C255.798 42.848 256.182 41.8667 256.95 41.056C257.718 40.2453 258.662 39.84 259.782 39.84C260.39 39.84 260.96 39.9787 261.494 40.256C262.038 40.5333 262.454 40.896 262.742 41.344V40H263.862V48H262.742V46.656C262.454 47.104 262.038 47.4667 261.494 47.744C260.96 48.0213 260.39 48.16 259.782 48.16ZM257.766 46.224C258.32 46.8213 259.03 47.12 259.894 47.12C260.758 47.12 261.462 46.8213 262.006 46.224C262.56 45.616 262.838 44.8747 262.838 44C262.838 43.1253 262.56 42.3893 262.006 41.792C261.462 41.184 260.758 40.88 259.894 40.88C259.03 40.88 258.32 41.184 257.766 41.792C257.222 42.3893 256.95 43.1253 256.95 44C256.95 44.8747 257.222 45.616 257.766 46.224ZM270.114 48.16C268.909 48.16 267.912 47.76 267.122 46.96C266.333 46.1493 265.938 45.1627 265.938 44C265.938 42.8373 266.333 41.856 267.122 41.056C267.912 40.2453 268.909 39.84 270.114 39.84C270.925 39.84 271.645 40.0267 272.274 40.4C272.914 40.7733 273.416 41.2853 273.778 41.936L272.802 42.496C272.546 41.9947 272.184 41.6 271.714 41.312C271.256 41.024 270.722 40.88 270.114 40.88C269.218 40.88 268.488 41.184 267.922 41.792C267.368 42.3893 267.09 43.1253 267.09 44C267.09 44.8747 267.368 45.616 267.922 46.224C268.488 46.8213 269.218 47.12 270.114 47.12C270.722 47.12 271.256 46.976 271.714 46.688C272.184 46.4 272.546 46.0053 272.802 45.504L273.778 46.064C273.416 46.7147 272.914 47.2267 272.274 47.6C271.645 47.9733 270.925 48.16 270.114 48.16ZM279.193 48.16C277.987 48.16 276.99 47.76 276.201 46.96C275.411 46.1493 275.017 45.1627 275.017 44C275.017 42.8373 275.411 41.856 276.201 41.056C276.99 40.2453 277.987 39.84 279.193 39.84C280.003 39.84 280.723 40.0267 281.353 40.4C281.993 40.7733 282.494 41.2853 282.857 41.936L281.881 42.496C281.625 41.9947 281.262 41.6 280.793 41.312C280.334 41.024 279.801 40.88 279.193 40.88C278.297 40.88 277.566 41.184 277.001 41.792C276.446 42.3893 276.169 43.1253 276.169 44C276.169 44.8747 276.446 45.616 277.001 46.224C277.566 46.8213 278.297 47.12 279.193 47.12C279.801 47.12 280.334 46.976 280.793 46.688C281.262 46.4 281.625 46.0053 281.881 45.504L282.857 46.064C282.494 46.7147 281.993 47.2267 281.353 47.6C280.723 47.9733 280.003 48.16 279.193 48.16ZM291.263 46.96C290.473 47.76 289.476 48.16 288.271 48.16C287.065 48.16 286.068 47.76 285.279 46.96C284.489 46.1493 284.095 45.1627 284.095 44C284.095 42.8373 284.489 41.856 285.279 41.056C286.068 40.2453 287.065 39.84 288.271 39.84C289.476 39.84 290.473 40.2453 291.263 41.056C292.052 41.856 292.447 42.8373 292.447 44C292.447 45.1627 292.052 46.1493 291.263 46.96ZM286.079 46.224C286.644 46.8213 287.375 47.12 288.271 47.12C289.167 47.12 289.892 46.8213 290.447 46.224C291.012 45.616 291.295 44.8747 291.295 44C291.295 43.1253 291.012 42.3893 290.447 41.792C289.892 41.184 289.167 40.88 288.271 40.88C287.375 40.88 286.644 41.184 286.079 41.792C285.524 42.3893 285.247 43.1253 285.247 44C285.247 44.8747 285.524 45.616 286.079 46.224ZM297.332 48.16C296.468 48.16 295.764 47.872 295.22 47.296C294.676 46.72 294.404 45.9573 294.404 45.008V40H295.524V44.848C295.524 45.5413 295.706 46.096 296.068 46.512C296.431 46.9173 296.9 47.12 297.476 47.12C298.17 47.12 298.74 46.8373 299.188 46.272C299.647 45.696 299.876 44.9333 299.876 43.984V40H300.996V48H299.876V46.656C299.332 47.6587 298.484 48.16 297.332 48.16ZM303.751 48V40H304.871V41.344C305.415 40.3413 306.29 39.84 307.495 39.84C308.38 39.84 309.1 40.1227 309.655 40.688C310.22 41.2533 310.503 42.0213 310.503 42.992V48H309.383V43.152C309.383 42.4587 309.196 41.9093 308.823 41.504C308.46 41.088 307.975 40.88 307.367 40.88C306.642 40.88 306.044 41.1627 305.575 41.728C305.106 42.2827 304.871 43.0453 304.871 44.016V48H303.751ZM315.896 48.08C315.224 48.08 314.675 47.888 314.248 47.504C313.832 47.1093 313.624 46.5333 313.624 45.776V41.056H311.912V40H313.624V37.776H314.744V40H317.08V41.056H314.744V45.68C314.744 46.1707 314.851 46.5227 315.064 46.736C315.288 46.9387 315.624 47.04 316.072 47.04C316.478 47.04 316.814 46.9813 317.08 46.864V47.872C316.728 48.0107 316.334 48.08 315.896 48.08ZM326.141 48.16C325.021 48.16 324.077 47.7547 323.309 46.944C322.541 46.1333 322.157 45.152 322.157 44C322.157 42.848 322.541 41.8667 323.309 41.056C324.077 40.2453 325.021 39.84 326.141 39.84C326.749 39.84 327.32 39.9787 327.853 40.256C328.397 40.5333 328.813 40.896 329.101 41.344V40H330.221V48H329.101V46.656C328.813 47.104 328.397 47.4667 327.853 47.744C327.32 48.0213 326.749 48.16 326.141 48.16ZM324.125 46.224C324.68 46.8213 325.389 47.12 326.253 47.12C327.117 47.12 327.821 46.8213 328.365 46.224C328.92 45.616 329.197 44.8747 329.197 44C329.197 43.1253 328.92 42.3893 328.365 41.792C327.821 41.184 327.117 40.88 326.253 40.88C325.389 40.88 324.68 41.184 324.125 41.792C323.581 42.3893 323.309 43.1253 323.309 44C323.309 44.8747 323.581 45.616 324.125 46.224ZM332.97 48V40H334.09V41.344C334.634 40.3413 335.508 39.84 336.714 39.84C337.599 39.84 338.319 40.1227 338.874 40.688C339.439 41.2533 339.722 42.0213 339.722 42.992V48H338.602V43.152C338.602 42.4587 338.415 41.9093 338.042 41.504C337.679 41.088 337.194 40.88 336.586 40.88C335.86 40.88 335.263 41.1627 334.794 41.728C334.324 42.2827 334.09 43.0453 334.09 44.016V48H332.97ZM345.657 48.16C344.537 48.16 343.593 47.7547 342.825 46.944C342.057 46.1333 341.673 45.152 341.673 44C341.673 42.848 342.057 41.8667 342.825 41.056C343.593 40.2453 344.537 39.84 345.657 39.84C346.265 39.84 346.835 39.9787 347.369 40.256C347.913 40.5333 348.329 40.896 348.617 41.344V36H349.737V48H348.617V46.656C348.329 47.104 347.913 47.4667 347.369 47.744C346.835 48.0213 346.265 48.16 345.657 48.16ZM343.641 46.224C344.195 46.8213 344.905 47.12 345.769 47.12C346.633 47.12 347.337 46.8213 347.881 46.224C348.435 45.616 348.713 44.8747 348.713 44C348.713 43.1253 348.435 42.3893 347.881 41.792C347.337 41.184 346.633 40.88 345.769 40.88C344.905 40.88 344.195 41.184 343.641 41.792C343.097 42.3893 342.825 43.1253 342.825 44C342.825 44.8747 343.097 45.616 343.641 46.224ZM359.911 48.16C358.706 48.16 357.709 47.76 356.919 46.96C356.13 46.1493 355.735 45.1627 355.735 44C355.735 42.8373 356.13 41.856 356.919 41.056C357.709 40.2453 358.706 39.84 359.911 39.84C360.722 39.84 361.442 40.0267 362.071 40.4C362.711 40.7733 363.213 41.2853 363.575 41.936L362.599 42.496C362.343 41.9947 361.981 41.6 361.511 41.312C361.053 41.024 360.519 40.88 359.911 40.88C359.015 40.88 358.285 41.184 357.719 41.792C357.165 42.3893 356.887 43.1253 356.887 44C356.887 44.8747 357.165 45.616 357.719 46.224C358.285 46.8213 359.015 47.12 359.911 47.12C360.519 47.12 361.053 46.976 361.511 46.688C361.981 46.4 362.343 46.0053 362.599 45.504L363.575 46.064C363.213 46.7147 362.711 47.2267 362.071 47.6C361.442 47.9733 360.722 48.16 359.911 48.16ZM368.797 48.16C367.677 48.16 366.733 47.7547 365.965 46.944C365.197 46.1333 364.813 45.152 364.813 44C364.813 42.848 365.197 41.8667 365.965 41.056C366.733 40.2453 367.677 39.84 368.797 39.84C369.405 39.84 369.976 39.9787 370.509 40.256C371.053 40.5333 371.469 40.896 371.757 41.344V40H372.877V48H371.757V46.656C371.469 47.104 371.053 47.4667 370.509 47.744C369.976 48.0213 369.405 48.16 368.797 48.16ZM366.781 46.224C367.336 46.8213 368.045 47.12 368.909 47.12C369.773 47.12 370.477 46.8213 371.021 46.224C371.576 45.616 371.853 44.8747 371.853 44C371.853 43.1253 371.576 42.3893 371.021 41.792C370.477 41.184 369.773 40.88 368.909 40.88C368.045 40.88 367.336 41.184 366.781 41.792C366.237 42.3893 365.965 43.1253 365.965 44C365.965 44.8747 366.237 45.616 366.781 46.224ZM375.626 48V40H376.746V41.344C377.29 40.3413 378.165 39.84 379.37 39.84C380.255 39.84 380.975 40.1227 381.53 40.688C382.095 41.2533 382.378 42.0213 382.378 42.992V48H381.258V43.152C381.258 42.4587 381.071 41.9093 380.698 41.504C380.335 41.088 379.85 40.88 379.242 40.88C378.517 40.88 377.919 41.1627 377.45 41.728C376.981 42.2827 376.746 43.0453 376.746 44.016V48H375.626ZM385.001 48V40H386.121V41.344C386.665 40.3413 387.54 39.84 388.745 39.84C389.63 39.84 390.35 40.1227 390.905 40.688C391.47 41.2533 391.753 42.0213 391.753 42.992V48H390.633V43.152C390.633 42.4587 390.446 41.9093 390.073 41.504C389.71 41.088 389.225 40.88 388.617 40.88C387.892 40.88 387.294 41.1627 386.825 41.728C386.356 42.2827 386.121 43.0453 386.121 44.016V48H385.001ZM400.872 46.96C400.083 47.76 399.085 48.16 397.88 48.16C396.675 48.16 395.677 47.76 394.888 46.96C394.099 46.1493 393.704 45.1627 393.704 44C393.704 42.8373 394.099 41.856 394.888 41.056C395.677 40.2453 396.675 39.84 397.88 39.84C399.085 39.84 400.083 40.2453 400.872 41.056C401.661 41.856 402.056 42.8373 402.056 44C402.056 45.1627 401.661 46.1493 400.872 46.96ZM395.688 46.224C396.253 46.8213 396.984 47.12 397.88 47.12C398.776 47.12 399.501 46.8213 400.056 46.224C400.621 45.616 400.904 44.8747 400.904 44C400.904 43.1253 400.621 42.3893 400.056 41.792C399.501 41.184 398.776 40.88 397.88 40.88C396.984 40.88 396.253 41.184 395.688 41.792C395.133 42.3893 394.856 43.1253 394.856 44C394.856 44.8747 395.133 45.616 395.688 46.224ZM406.881 48.08C406.209 48.08 405.659 47.888 405.233 47.504C404.817 47.1093 404.609 46.5333 404.609 45.776V41.056H402.897V40H404.609V37.776H405.729V40H408.065V41.056H405.729V45.68C405.729 46.1707 405.835 46.5227 406.049 46.736C406.273 46.9387 406.609 47.04 407.057 47.04C407.462 47.04 407.798 46.9813 408.065 46.864V47.872C407.713 48.0107 407.318 48.08 406.881 48.08ZM17.688 68.16C16.568 68.16 15.624 67.7547 14.856 66.944C14.088 66.1333 13.704 65.152 13.704 64C13.704 62.848 14.088 61.8667 14.856 61.056C15.624 60.2453 16.568 59.84 17.688 59.84C18.296 59.84 18.8667 59.9787 19.4 60.256C19.944 60.5333 20.36 60.896 20.648 61.344V60H21.768V68H20.648V66.656C20.36 67.104 19.944 67.4667 19.4 67.744C18.8667 68.0213 18.296 68.16 17.688 68.16ZM15.672 66.224C16.2267 66.8213 16.936 67.12 17.8 67.12C18.664 67.12 19.368 66.8213 19.912 66.224C20.4667 65.616 20.744 64.8747 20.744 64C20.744 63.1253 20.4667 62.3893 19.912 61.792C19.368 61.184 18.664 60.88 17.8 60.88C16.936 60.88 16.2267 61.184 15.672 61.792C15.128 62.3893 14.856 63.1253 14.856 64C14.856 64.8747 15.128 65.616 15.672 66.224ZM27.8286 68.16C26.7086 68.16 25.7646 67.7547 24.9966 66.944C24.2286 66.1333 23.8446 65.152 23.8446 64C23.8446 62.848 24.2286 61.8667 24.9966 61.056C25.7646 60.2453 26.7086 59.84 27.8286 59.84C28.4366 59.84 29.0073 59.9787 29.5406 60.256C30.0846 60.5333 30.5006 60.896 30.7886 61.344V56H31.9086V68H30.7886V66.656C30.5006 67.104 30.0846 67.4667 29.5406 67.744C29.0073 68.0213 28.4366 68.16 27.8286 68.16ZM25.8126 66.224C26.3673 66.8213 27.0766 67.12 27.9406 67.12C28.8046 67.12 29.5086 66.8213 30.0526 66.224C30.6073 65.616 30.8846 64.8747 30.8846 64C30.8846 63.1253 30.6073 62.3893 30.0526 61.792C29.5086 61.184 28.8046 60.88 27.9406 60.88C27.0766 60.88 26.3673 61.184 25.8126 61.792C25.2686 62.3893 24.9966 63.1253 24.9966 64C24.9966 64.8747 25.2686 65.616 25.8126 66.224ZM37.9693 68.16C36.8493 68.16 35.9053 67.7547 35.1373 66.944C34.3693 66.1333 33.9853 65.152 33.9853 64C33.9853 62.848 34.3693 61.8667 35.1373 61.056C35.9053 60.2453 36.8493 59.84 37.9693 59.84C38.5773 59.84 39.1479 59.9787 39.6813 60.256C40.2253 60.5333 40.6413 60.896 40.9293 61.344V56H42.0493V68H40.9293V66.656C40.6413 67.104 40.2253 67.4667 39.6813 67.744C39.1479 68.0213 38.5773 68.16 37.9693 68.16ZM35.9533 66.224C36.5079 66.8213 37.2173 67.12 38.0813 67.12C38.9453 67.12 39.6493 66.8213 40.1933 66.224C40.7479 65.616 41.0253 64.8747 41.0253 64C41.0253 63.1253 40.7479 62.3893 40.1933 61.792C39.6493 61.184 38.9453 60.88 38.0813 60.88C37.2173 60.88 36.5079 61.184 35.9533 61.792C35.4093 62.3893 35.1373 63.1253 35.1373 64C35.1373 64.8747 35.4093 65.616 35.9533 66.224ZM52.0318 68.16C50.9118 68.16 49.9678 67.7547 49.1998 66.944C48.4318 66.1333 48.0478 65.152 48.0478 64C48.0478 62.848 48.4318 61.8667 49.1998 61.056C49.9678 60.2453 50.9118 59.84 52.0318 59.84C52.6398 59.84 53.2104 59.9787 53.7438 60.256C54.2878 60.5333 54.7038 60.896 54.9918 61.344V60H56.1118V68H54.9918V66.656C54.7038 67.104 54.2878 67.4667 53.7438 67.744C53.2104 68.0213 52.6398 68.16 52.0318 68.16ZM50.0158 66.224C50.5704 66.8213 51.2798 67.12 52.1438 67.12C53.0078 67.12 53.7118 66.8213 54.2558 66.224C54.8104 65.616 55.0878 64.8747 55.0878 64C55.0878 63.1253 54.8104 62.3893 54.2558 61.792C53.7118 61.184 53.0078 60.88 52.1438 60.88C51.2798 60.88 50.5704 61.184 50.0158 61.792C49.4718 62.3893 49.1998 63.1253 49.1998 64C49.1998 64.8747 49.4718 65.616 50.0158 66.224ZM65.3806 68.08C64.7086 68.08 64.1593 67.888 63.7326 67.504C63.3166 67.1093 63.1086 66.5333 63.1086 65.776V61.056H61.3966V60H63.1086V57.776H64.2286V60H66.5646V61.056H64.2286V65.68C64.2286 66.1707 64.3353 66.5227 64.5486 66.736C64.7726 66.9387 65.1086 67.04 65.5566 67.04C65.962 67.04 66.298 66.9813 66.5646 66.864V67.872C66.2126 68.0107 65.818 68.08 65.3806 68.08ZM69.5116 68H68.3916V56H69.5116V61.344C70.0556 60.3413 70.9303 59.84 72.1356 59.84C73.021 59.84 73.741 60.1227 74.2956 60.688C74.861 61.2533 75.1436 62.0213 75.1436 62.992V68H74.0236V63.152C74.0236 62.4587 73.837 61.9093 73.4636 61.504C73.101 61.088 72.6156 60.88 72.0076 60.88C71.2823 60.88 70.685 61.1627 70.2156 61.728C69.7463 62.2827 69.5116 63.0453 69.5116 64.016V68ZM78.3426 57.6C78.0973 57.6 77.8893 57.52 77.7186 57.36C77.5586 57.1893 77.4786 56.9867 77.4786 56.752C77.4786 56.5173 77.5586 56.32 77.7186 56.16C77.8893 55.9893 78.0973 55.904 78.3426 55.904C78.5773 55.904 78.7746 55.9893 78.9346 56.16C79.0946 56.32 79.1746 56.5173 79.1746 56.752C79.1746 56.9867 79.0946 57.1893 78.9346 57.36C78.7746 57.52 78.5773 57.6 78.3426 57.6ZM77.7666 68V60H78.8866V68H77.7666ZM81.6416 68V60H82.7616V61.648C82.9323 61.1147 83.2363 60.6933 83.6736 60.384C84.111 60.0747 84.5803 59.92 85.0816 59.92C85.3056 59.92 85.4976 59.9413 85.6576 59.984V61.152C85.4656 61.0773 85.2416 61.04 84.9856 61.04C84.4203 61.04 83.9083 61.296 83.4496 61.808C82.991 62.32 82.7616 63.0453 82.7616 63.984V68H81.6416ZM90.4068 68.16C89.2868 68.16 88.3428 67.7547 87.5748 66.944C86.8068 66.1333 86.4228 65.152 86.4228 64C86.4228 62.848 86.8068 61.8667 87.5748 61.056C88.3428 60.2453 89.2868 59.84 90.4068 59.84C91.0148 59.84 91.5854 59.9787 92.1188 60.256C92.6628 60.5333 93.0788 60.896 93.3668 61.344V56H94.4868V68H93.3668V66.656C93.0788 67.104 92.6628 67.4667 92.1188 67.744C91.5854 68.0213 91.0148 68.16 90.4068 68.16ZM88.3908 66.224C88.9454 66.8213 89.6548 67.12 90.5188 67.12C91.3828 67.12 92.0868 66.8213 92.6308 66.224C93.1854 65.616 93.4628 64.8747 93.4628 64C93.4628 63.1253 93.1854 62.3893 92.6308 61.792C92.0868 61.184 91.3828 60.88 90.5188 60.88C89.6548 60.88 88.9454 61.184 88.3908 61.792C87.8468 62.3893 87.5748 63.1253 87.5748 64C87.5748 64.8747 87.8468 65.616 88.3908 66.224ZM96.9474 64.096V62.944H100.867V64.096H96.9474ZM104.449 71.344H103.329V60H104.449V61.344C104.737 60.896 105.148 60.5333 105.681 60.256C106.225 59.9787 106.801 59.84 107.409 59.84C108.529 59.84 109.473 60.2453 110.241 61.056C111.009 61.8667 111.393 62.848 111.393 64C111.393 65.152 111.009 66.1333 110.241 66.944C109.473 67.7547 108.529 68.16 107.409 68.16C106.801 68.16 106.225 68.0213 105.681 67.744C105.148 67.4667 104.737 67.104 104.449 66.656V71.344ZM105.169 66.224C105.724 66.8213 106.433 67.12 107.297 67.12C108.161 67.12 108.865 66.8213 109.409 66.224C109.964 65.616 110.241 64.8747 110.241 64C110.241 63.1253 109.964 62.3893 109.409 61.792C108.865 61.184 108.161 60.88 107.297 60.88C106.433 60.88 105.724 61.184 105.169 61.792C104.625 62.3893 104.353 63.1253 104.353 64C104.353 64.8747 104.625 65.616 105.169 66.224ZM116.797 68.16C115.677 68.16 114.733 67.7547 113.965 66.944C113.197 66.1333 112.813 65.152 112.813 64C112.813 62.848 113.197 61.8667 113.965 61.056C114.733 60.2453 115.677 59.84 116.797 59.84C117.405 59.84 117.976 59.9787 118.509 60.256C119.053 60.5333 119.469 60.896 119.757 61.344V60H120.877V68H119.757V66.656C119.469 67.104 119.053 67.4667 118.509 67.744C117.976 68.0213 117.405 68.16 116.797 68.16ZM114.781 66.224C115.336 66.8213 116.045 67.12 116.909 67.12C117.773 67.12 118.477 66.8213 119.021 66.224C119.576 65.616 119.853 64.8747 119.853 64C119.853 63.1253 119.576 62.3893 119.021 61.792C118.477 61.184 117.773 60.88 116.909 60.88C116.045 60.88 115.336 61.184 114.781 61.792C114.237 62.3893 113.965 63.1253 113.965 64C113.965 64.8747 114.237 65.616 114.781 66.224ZM123.626 68V60H124.746V61.648C124.917 61.1147 125.221 60.6933 125.658 60.384C126.095 60.0747 126.565 59.92 127.066 59.92C127.29 59.92 127.482 59.9413 127.642 59.984V61.152C127.45 61.0773 127.226 61.04 126.97 61.04C126.405 61.04 125.893 61.296 125.434 61.808C124.975 62.32 124.746 63.0453 124.746 63.984V68H123.626ZM132.209 68.08C131.537 68.08 130.987 67.888 130.561 67.504C130.145 67.1093 129.937 66.5333 129.937 65.776V61.056H128.225V60H129.937V57.776H131.057V60H133.393V61.056H131.057V65.68C131.057 66.1707 131.163 66.5227 131.377 66.736C131.601 66.9387 131.937 67.04 132.385 67.04C132.79 67.04 133.126 66.9813 133.393 66.864V67.872C133.041 68.0107 132.646 68.08 132.209 68.08ZM137.06 71.344H135.796L137.556 67.6L134.004 60H135.252L138.18 66.352L141.108 60H142.372L137.06 71.344ZM150.735 68.16C149.615 68.16 148.671 67.7547 147.903 66.944C147.135 66.1333 146.751 65.152 146.751 64C146.751 62.848 147.135 61.8667 147.903 61.056C148.671 60.2453 149.615 59.84 150.735 59.84C151.343 59.84 151.914 59.9787 152.447 60.256C152.991 60.5333 153.407 60.896 153.695 61.344V60H154.815V68H153.695V66.656C153.407 67.104 152.991 67.4667 152.447 67.744C151.914 68.0213 151.343 68.16 150.735 68.16ZM148.719 66.224C149.274 66.8213 149.983 67.12 150.847 67.12C151.711 67.12 152.415 66.8213 152.959 66.224C153.514 65.616 153.791 64.8747 153.791 64C153.791 63.1253 153.514 62.3893 152.959 61.792C152.415 61.184 151.711 60.88 150.847 60.88C149.983 60.88 149.274 61.184 148.719 61.792C148.175 62.3893 147.903 63.1253 147.903 64C147.903 64.8747 148.175 65.616 148.719 66.224ZM161.068 68.16C159.862 68.16 158.865 67.76 158.076 66.96C157.286 66.1493 156.892 65.1627 156.892 64C156.892 62.8373 157.286 61.856 158.076 61.056C158.865 60.2453 159.862 59.84 161.068 59.84C161.878 59.84 162.598 60.0267 163.228 60.4C163.868 60.7733 164.369 61.2853 164.732 61.936L163.756 62.496C163.5 61.9947 163.137 61.6 162.668 61.312C162.209 61.024 161.676 60.88 161.068 60.88C160.172 60.88 159.441 61.184 158.876 61.792C158.321 62.3893 158.044 63.1253 158.044 64C158.044 64.8747 158.321 65.616 158.876 66.224C159.441 66.8213 160.172 67.12 161.068 67.12C161.676 67.12 162.209 66.976 162.668 66.688C163.137 66.4 163.5 66.0053 163.756 65.504L164.732 66.064C164.369 66.7147 163.868 67.2267 163.228 67.6C162.598 67.9733 161.878 68.16 161.068 68.16ZM170.146 68.16C168.94 68.16 167.943 67.76 167.154 66.96C166.364 66.1493 165.97 65.1627 165.97 64C165.97 62.8373 166.364 61.856 167.154 61.056C167.943 60.2453 168.94 59.84 170.146 59.84C170.956 59.84 171.676 60.0267 172.306 60.4C172.946 60.7733 173.447 61.2853 173.81 61.936L172.834 62.496C172.578 61.9947 172.215 61.6 171.746 61.312C171.287 61.024 170.754 60.88 170.146 60.88C169.25 60.88 168.519 61.184 167.954 61.792C167.399 62.3893 167.122 63.1253 167.122 64C167.122 64.8747 167.399 65.616 167.954 66.224C168.519 66.8213 169.25 67.12 170.146 67.12C170.754 67.12 171.287 66.976 171.746 66.688C172.215 66.4 172.578 66.0053 172.834 65.504L173.81 66.064C173.447 66.7147 172.946 67.2267 172.306 67.6C171.676 67.9733 170.956 68.16 170.146 68.16ZM182.216 66.96C181.426 67.76 180.429 68.16 179.224 68.16C178.018 68.16 177.021 67.76 176.232 66.96C175.442 66.1493 175.048 65.1627 175.048 64C175.048 62.8373 175.442 61.856 176.232 61.056C177.021 60.2453 178.018 59.84 179.224 59.84C180.429 59.84 181.426 60.2453 182.216 61.056C183.005 61.856 183.4 62.8373 183.4 64C183.4 65.1627 183.005 66.1493 182.216 66.96ZM177.032 66.224C177.597 66.8213 178.328 67.12 179.224 67.12C180.12 67.12 180.845 66.8213 181.4 66.224C181.965 65.616 182.248 64.8747 182.248 64C182.248 63.1253 181.965 62.3893 181.4 61.792C180.845 61.184 180.12 60.88 179.224 60.88C178.328 60.88 177.597 61.184 177.032 61.792C176.477 62.3893 176.2 63.1253 176.2 64C176.2 64.8747 176.477 65.616 177.032 66.224ZM188.285 68.16C187.421 68.16 186.717 67.872 186.173 67.296C185.629 66.72 185.357 65.9573 185.357 65.008V60H186.477V64.848C186.477 65.5413 186.659 66.096 187.021 66.512C187.384 66.9173 187.853 67.12 188.429 67.12C189.123 67.12 189.693 66.8373 190.141 66.272C190.6 65.696 190.829 64.9333 190.829 63.984V60H191.949V68H190.829V66.656C190.285 67.6587 189.437 68.16 188.285 68.16ZM194.704 68V60H195.824V61.344C196.368 60.3413 197.243 59.84 198.448 59.84C199.333 59.84 200.053 60.1227 200.608 60.688C201.173 61.2533 201.456 62.0213 201.456 62.992V68H200.336V63.152C200.336 62.4587 200.149 61.9093 199.776 61.504C199.413 61.088 198.928 60.88 198.32 60.88C197.595 60.88 196.997 61.1627 196.528 61.728C196.059 62.2827 195.824 63.0453 195.824 64.016V68H194.704ZM206.849 68.08C206.177 68.08 205.628 67.888 205.201 67.504C204.785 67.1093 204.577 66.5333 204.577 65.776V61.056H202.865V60H204.577V57.776H205.697V60H208.033V61.056H205.697V65.68C205.697 66.1707 205.804 66.5227 206.017 66.736C206.241 66.9387 206.577 67.04 207.025 67.04C207.431 67.04 207.767 66.9813 208.033 66.864V67.872C207.681 68.0107 207.287 68.08 206.849 68.08ZM211.172 67.808C210.97 68.0213 210.724 68.128 210.436 68.128C210.148 68.128 209.898 68.0213 209.684 67.808C209.482 67.5947 209.38 67.344 209.38 67.056C209.38 66.768 209.482 66.5173 209.684 66.304C209.898 66.0907 210.148 65.984 210.436 65.984C210.724 65.984 210.97 66.0907 211.172 66.304C211.386 66.5173 211.492 66.768 211.492 67.056C211.492 67.344 211.386 67.5947 211.172 67.808Z" fill="#3D3D3D"/>
</svg>
