<svg width="425" height="136" viewBox="0 0 425 136" fill="none" xmlns="http://www.w3.org/2000/svg">
<rect width="425" height="136" rx="16" fill="#12D8A0" fill-opacity="0.2"/>
<path d="M18.056 40L13.16 28.64H14.52L18.552 38.016L22.584 28.64H23.928L19.048 40H18.056ZM28.0508 40.16C26.8241 40.16 25.8321 39.7653 25.0748 38.976C24.3174 38.176 23.9388 37.184 23.9388 36C23.9388 34.8267 24.3281 33.84 25.1068 33.04C25.8854 32.24 26.8774 31.84 28.0828 31.84C29.1601 31.84 30.0561 32.2027 30.7708 32.928C31.4854 33.6533 31.8428 34.64 31.8428 35.888V36.192H25.0908C25.0908 37.024 25.3681 37.7227 25.9228 38.288C26.4774 38.8427 27.1868 39.12 28.0508 39.12C28.6908 39.12 29.2134 38.9973 29.6188 38.752C30.0348 38.496 30.3921 38.1173 30.6908 37.616L31.6028 38.208C30.8454 39.5093 29.6614 40.16 28.0508 40.16ZM25.1868 35.2H30.6748C30.5681 34.4853 30.2748 33.92 29.7948 33.504C29.3148 33.088 28.7281 32.88 28.0348 32.88C27.3414 32.88 26.7228 33.0933 26.1788 33.52C25.6454 33.936 25.3148 34.496 25.1868 35.2ZM37.3633 40.16C36.1366 40.16 35.1446 39.7653 34.3873 38.976C33.6299 38.176 33.2513 37.184 33.2513 36C33.2513 34.8267 33.6406 33.84 34.4193 33.04C35.1979 32.24 36.1899 31.84 37.3953 31.84C38.4726 31.84 39.3686 32.2027 40.0833 32.928C40.7979 33.6533 41.1553 34.64 41.1553 35.888V36.192H34.4033C34.4033 37.024 34.6806 37.7227 35.2353 38.288C35.7899 38.8427 36.4993 39.12 37.3633 39.12C38.0033 39.12 38.5259 38.9973 38.9313 38.752C39.3473 38.496 39.7046 38.1173 40.0033 37.616L40.9153 38.208C40.1579 39.5093 38.9739 40.16 37.3633 40.16ZM34.4993 35.2H39.9873C39.8806 34.4853 39.5873 33.92 39.1073 33.504C38.6273 33.088 38.0406 32.88 37.3473 32.88C36.6539 32.88 36.0353 33.0933 35.4913 33.52C34.9579 33.936 34.6273 34.496 34.4993 35.2ZM43.2198 40V32H44.3398V33.648C44.5104 33.1147 44.8144 32.6933 45.2518 32.384C45.6891 32.0747 46.1584 31.92 46.6598 31.92C46.8838 31.92 47.0758 31.9413 47.2358 31.984V33.152C47.0438 33.0773 46.8198 33.04 46.5638 33.04C45.9984 33.04 45.4864 33.296 45.0278 33.808C44.5691 34.32 44.3398 35.0453 44.3398 35.984V40H43.2198ZM50.0001 38.096C50.5441 38.672 51.2481 38.96 52.1121 38.96C52.9761 38.96 53.6748 38.672 54.2081 38.096C54.7521 37.52 55.0241 36.7947 55.0241 35.92C55.0241 35.0453 54.7521 34.32 54.2081 33.744C53.6748 33.168 52.9761 32.88 52.1121 32.88C51.2481 32.88 50.5441 33.168 50.0001 33.744C49.4668 34.32 49.2001 35.0453 49.2001 35.92C49.2001 36.7947 49.4668 37.52 50.0001 38.096ZM52.0961 43.504C51.2321 43.504 50.4695 43.3387 49.8081 43.008C49.1468 42.6773 48.6508 42.2613 48.3201 41.76L49.2001 41.008C49.8935 41.9787 50.8588 42.464 52.0961 42.464C52.8641 42.464 53.5255 42.2187 54.0801 41.728C54.6455 41.2373 54.9281 40.5013 54.9281 39.52V38.496C54.6295 38.944 54.2188 39.3067 53.6961 39.584C53.1735 39.8613 52.6081 40 52.0001 40C50.8695 40 49.9255 39.6107 49.1681 38.832C48.4215 38.0427 48.0481 37.072 48.0481 35.92C48.0481 34.768 48.4215 33.8027 49.1681 33.024C49.9255 32.2347 50.8695 31.84 52.0001 31.84C52.6081 31.84 53.1735 31.9787 53.6961 32.256C54.2188 32.5333 54.6295 32.896 54.9281 33.344V32H56.0481V39.584C56.0481 40.8427 55.6801 41.808 54.9441 42.48C54.2081 43.1627 53.2588 43.504 52.0961 43.504ZM62.2539 40.16C61.0272 40.16 60.0352 39.7653 59.2779 38.976C58.5205 38.176 58.1419 37.184 58.1419 36C58.1419 34.8267 58.5312 33.84 59.3099 33.04C60.0885 32.24 61.0805 31.84 62.2859 31.84C63.3632 31.84 64.2592 32.2027 64.9739 32.928C65.6885 33.6533 66.0459 34.64 66.0459 35.888V36.192H59.2939C59.2939 37.024 59.5712 37.7227 60.1259 38.288C60.6805 38.8427 61.3899 39.12 62.2539 39.12C62.8939 39.12 63.4165 38.9973 63.8219 38.752C64.2379 38.496 64.5952 38.1173 64.8939 37.616L65.8059 38.208C65.0485 39.5093 63.8645 40.16 62.2539 40.16ZM59.3899 35.2H64.8779C64.7712 34.4853 64.4779 33.92 63.9979 33.504C63.5179 33.088 62.9312 32.88 62.2379 32.88C61.5445 32.88 60.9259 33.0933 60.3819 33.52C59.8485 33.936 59.5179 34.496 59.3899 35.2ZM78.5283 38.96C77.7389 39.76 76.7416 40.16 75.5363 40.16C74.3309 40.16 73.3336 39.76 72.5443 38.96C71.7549 38.1493 71.3603 37.1627 71.3603 36C71.3603 34.8373 71.7549 33.856 72.5443 33.056C73.3336 32.2453 74.3309 31.84 75.5363 31.84C76.7416 31.84 77.7389 32.2453 78.5283 33.056C79.3176 33.856 79.7123 34.8373 79.7123 36C79.7123 37.1627 79.3176 38.1493 78.5283 38.96ZM73.3443 38.224C73.9096 38.8213 74.6403 39.12 75.5363 39.12C76.4323 39.12 77.1576 38.8213 77.7123 38.224C78.2776 37.616 78.5603 36.8747 78.5603 36C78.5603 35.1253 78.2776 34.3893 77.7123 33.792C77.1576 33.184 76.4323 32.88 75.5363 32.88C74.6403 32.88 73.9096 33.184 73.3443 33.792C72.7896 34.3893 72.5123 35.1253 72.5123 36C72.5123 36.8747 72.7896 37.616 73.3443 38.224ZM81.7979 40V32H82.9179V33.344C83.4619 32.3413 84.3365 31.84 85.5419 31.84C86.4272 31.84 87.1472 32.1227 87.7019 32.688C88.2672 33.2533 88.5499 34.0213 88.5499 34.992V40H87.4299V35.152C87.4299 34.4587 87.2432 33.9093 86.8699 33.504C86.5072 33.088 86.0219 32.88 85.4139 32.88C84.6885 32.88 84.0912 33.1627 83.6219 33.728C83.1525 34.2827 82.9179 35.0453 82.9179 36.016V40H81.7979ZM91.1729 40V28H92.2929V40H91.1729ZM96.8879 43.344H95.6239L97.3839 39.6L93.8319 32H95.0799L98.0079 38.352L100.936 32H102.2L96.8879 43.344ZM110.563 40.16C109.443 40.16 108.499 39.7547 107.731 38.944C106.963 38.1333 106.579 37.152 106.579 36C106.579 34.848 106.963 33.8667 107.731 33.056C108.499 32.2453 109.443 31.84 110.563 31.84C111.171 31.84 111.742 31.9787 112.275 32.256C112.819 32.5333 113.235 32.896 113.523 33.344V32H114.643V40H113.523V38.656C113.235 39.104 112.819 39.4667 112.275 39.744C111.742 40.0213 111.171 40.16 110.563 40.16ZM108.547 38.224C109.102 38.8213 109.811 39.12 110.675 39.12C111.539 39.12 112.243 38.8213 112.787 38.224C113.342 37.616 113.619 36.8747 113.619 36C113.619 35.1253 113.342 34.3893 112.787 33.792C112.243 33.184 111.539 32.88 110.675 32.88C109.811 32.88 109.102 33.184 108.547 33.792C108.003 34.3893 107.731 35.1253 107.731 36C107.731 36.8747 108.003 37.616 108.547 38.224ZM120.896 40.16C119.69 40.16 118.693 39.76 117.904 38.96C117.114 38.1493 116.72 37.1627 116.72 36C116.72 34.8373 117.114 33.856 117.904 33.056C118.693 32.2453 119.69 31.84 120.896 31.84C121.706 31.84 122.426 32.0267 123.056 32.4C123.696 32.7733 124.197 33.2853 124.56 33.936L123.584 34.496C123.328 33.9947 122.965 33.6 122.496 33.312C122.037 33.024 121.504 32.88 120.896 32.88C120 32.88 119.269 33.184 118.704 33.792C118.149 34.3893 117.872 35.1253 117.872 36C117.872 36.8747 118.149 37.616 118.704 38.224C119.269 38.8213 120 39.12 120.896 39.12C121.504 39.12 122.037 38.976 122.496 38.688C122.965 38.4 123.328 38.0053 123.584 37.504L124.56 38.064C124.197 38.7147 123.696 39.2267 123.056 39.6C122.426 39.9733 121.706 40.16 120.896 40.16ZM129.974 40.16C128.768 40.16 127.771 39.76 126.982 38.96C126.192 38.1493 125.798 37.1627 125.798 36C125.798 34.8373 126.192 33.856 126.982 33.056C127.771 32.2453 128.768 31.84 129.974 31.84C130.784 31.84 131.504 32.0267 132.134 32.4C132.774 32.7733 133.275 33.2853 133.638 33.936L132.662 34.496C132.406 33.9947 132.043 33.6 131.574 33.312C131.115 33.024 130.582 32.88 129.974 32.88C129.078 32.88 128.347 33.184 127.782 33.792C127.227 34.3893 126.95 35.1253 126.95 36C126.95 36.8747 127.227 37.616 127.782 38.224C128.347 38.8213 129.078 39.12 129.974 39.12C130.582 39.12 131.115 38.976 131.574 38.688C132.043 38.4 132.406 38.0053 132.662 37.504L133.638 38.064C133.275 38.7147 132.774 39.2267 132.134 39.6C131.504 39.9733 130.784 40.16 129.974 40.16ZM139.004 40.16C137.777 40.16 136.785 39.7653 136.028 38.976C135.271 38.176 134.892 37.184 134.892 36C134.892 34.8267 135.281 33.84 136.06 33.04C136.839 32.24 137.831 31.84 139.036 31.84C140.113 31.84 141.009 32.2027 141.724 32.928C142.439 33.6533 142.796 34.64 142.796 35.888V36.192H136.044C136.044 37.024 136.321 37.7227 136.876 38.288C137.431 38.8427 138.14 39.12 139.004 39.12C139.644 39.12 140.167 38.9973 140.572 38.752C140.988 38.496 141.345 38.1173 141.644 37.616L142.556 38.208C141.799 39.5093 140.615 40.16 139.004 40.16ZM136.14 35.2H141.628C141.521 34.4853 141.228 33.92 140.748 33.504C140.268 33.088 139.681 32.88 138.988 32.88C138.295 32.88 137.676 33.0933 137.132 33.52C136.599 33.936 136.268 34.496 136.14 35.2ZM145.98 43.344H144.86V32H145.98V33.344C146.268 32.896 146.679 32.5333 147.212 32.256C147.756 31.9787 148.332 31.84 148.94 31.84C150.06 31.84 151.004 32.2453 151.772 33.056C152.54 33.8667 152.924 34.848 152.924 36C152.924 37.152 152.54 38.1333 151.772 38.944C151.004 39.7547 150.06 40.16 148.94 40.16C148.332 40.16 147.756 40.0213 147.212 39.744C146.679 39.4667 146.268 39.104 145.98 38.656V43.344ZM146.7 38.224C147.255 38.8213 147.964 39.12 148.828 39.12C149.692 39.12 150.396 38.8213 150.94 38.224C151.495 37.616 151.772 36.8747 151.772 36C151.772 35.1253 151.495 34.3893 150.94 33.792C150.396 33.184 149.692 32.88 148.828 32.88C147.964 32.88 147.255 33.184 146.7 33.792C146.156 34.3893 145.884 35.1253 145.884 36C145.884 36.8747 146.156 37.616 146.7 38.224ZM157.756 40.08C157.084 40.08 156.534 39.888 156.108 39.504C155.692 39.1093 155.484 38.5333 155.484 37.776V33.056H153.772V32H155.484V29.776H156.604V32H158.94V33.056H156.604V37.68C156.604 38.1707 156.71 38.5227 156.924 38.736C157.148 38.9387 157.484 39.04 157.932 39.04C158.337 39.04 158.673 38.9813 158.94 38.864V39.872C158.588 40.0107 158.193 40.08 157.756 40.08ZM169.953 40.192C168.31 40.192 166.918 39.6267 165.777 38.496C164.646 37.3653 164.081 35.9733 164.081 34.32C164.081 32.6667 164.646 31.2747 165.777 30.144C166.918 29.0133 168.31 28.448 169.953 28.448C170.987 28.448 171.937 28.688 172.801 29.168C173.665 29.6373 174.363 30.2827 174.897 31.104L173.889 31.744C173.473 31.0827 172.923 30.56 172.241 30.176C171.558 29.792 170.795 29.6 169.953 29.6C168.641 29.6 167.537 30.0587 166.641 30.976C165.755 31.8827 165.312 32.9973 165.312 34.32C165.312 35.6533 165.755 36.7733 166.641 37.68C167.537 38.5867 168.641 39.04 169.953 39.04C170.795 39.04 171.558 38.848 172.241 38.464C172.923 38.08 173.473 37.5573 173.889 36.896L174.897 37.536C174.363 38.3573 173.665 39.008 172.801 39.488C171.937 39.9573 170.987 40.192 169.953 40.192ZM183.278 38.96C182.489 39.76 181.492 40.16 180.286 40.16C179.081 40.16 178.084 39.76 177.294 38.96C176.505 38.1493 176.11 37.1627 176.11 36C176.11 34.8373 176.505 33.856 177.294 33.056C178.084 32.2453 179.081 31.84 180.286 31.84C181.492 31.84 182.489 32.2453 183.278 33.056C184.068 33.856 184.462 34.8373 184.462 36C184.462 37.1627 184.068 38.1493 183.278 38.96ZM178.094 38.224C178.66 38.8213 179.39 39.12 180.286 39.12C181.182 39.12 181.908 38.8213 182.462 38.224C183.028 37.616 183.31 36.8747 183.31 36C183.31 35.1253 183.028 34.3893 182.462 33.792C181.908 33.184 181.182 32.88 180.286 32.88C179.39 32.88 178.66 33.184 178.094 33.792C177.54 34.3893 177.262 35.1253 177.262 36C177.262 36.8747 177.54 37.616 178.094 38.224ZM186.548 40V32H187.668V33.648C187.839 33.1147 188.143 32.6933 188.58 32.384C189.017 32.0747 189.487 31.92 189.988 31.92C190.212 31.92 190.404 31.9413 190.564 31.984V33.152C190.372 33.0773 190.148 33.04 189.892 33.04C189.327 33.04 188.815 33.296 188.356 33.808C187.897 34.32 187.668 35.0453 187.668 35.984V40H186.548ZM193.387 43.344H192.267V32H193.387V33.344C193.675 32.896 194.085 32.5333 194.619 32.256C195.163 31.9787 195.739 31.84 196.347 31.84C197.467 31.84 198.411 32.2453 199.179 33.056C199.947 33.8667 200.331 34.848 200.331 36C200.331 37.152 199.947 38.1333 199.179 38.944C198.411 39.7547 197.467 40.16 196.347 40.16C195.739 40.16 195.163 40.0213 194.619 39.744C194.085 39.4667 193.675 39.104 193.387 38.656V43.344ZM194.107 38.224C194.661 38.8213 195.371 39.12 196.235 39.12C197.099 39.12 197.803 38.8213 198.347 38.224C198.901 37.616 199.179 36.8747 199.179 36C199.179 35.1253 198.901 34.3893 198.347 33.792C197.803 33.184 197.099 32.88 196.235 32.88C195.371 32.88 194.661 33.184 194.107 33.792C193.563 34.3893 193.291 35.1253 193.291 36C193.291 36.8747 193.563 37.616 194.107 38.224ZM205.879 40.16C204.652 40.16 203.66 39.7653 202.903 38.976C202.146 38.176 201.767 37.184 201.767 36C201.767 34.8267 202.156 33.84 202.935 33.04C203.714 32.24 204.706 31.84 205.911 31.84C206.988 31.84 207.884 32.2027 208.599 32.928C209.314 33.6533 209.671 34.64 209.671 35.888V36.192H202.919C202.919 37.024 203.196 37.7227 203.751 38.288C204.306 38.8427 205.015 39.12 205.879 39.12C206.519 39.12 207.042 38.9973 207.447 38.752C207.863 38.496 208.22 38.1173 208.519 37.616L209.431 38.208C208.674 39.5093 207.49 40.16 205.879 40.16ZM203.015 35.2H208.503C208.396 34.4853 208.103 33.92 207.623 33.504C207.143 33.088 206.556 32.88 205.863 32.88C205.17 32.88 204.551 33.0933 204.007 33.52C203.474 33.936 203.143 34.496 203.015 35.2ZM211.735 40V32H212.855V33.648C213.026 33.1147 213.33 32.6933 213.767 32.384C214.205 32.0747 214.674 31.92 215.175 31.92C215.399 31.92 215.591 31.9413 215.751 31.984V33.152C215.559 33.0773 215.335 33.04 215.079 33.04C214.514 33.04 214.002 33.296 213.543 33.808C213.085 34.32 212.855 35.0453 212.855 35.984V40H211.735ZM220.501 40.16C219.381 40.16 218.437 39.7547 217.669 38.944C216.901 38.1333 216.517 37.152 216.517 36C216.517 34.848 216.901 33.8667 217.669 33.056C218.437 32.2453 219.381 31.84 220.501 31.84C221.109 31.84 221.679 31.9787 222.213 32.256C222.757 32.5333 223.173 32.896 223.461 33.344V32H224.581V40H223.461V38.656C223.173 39.104 222.757 39.4667 222.213 39.744C221.679 40.0213 221.109 40.16 220.501 40.16ZM218.485 38.224C219.039 38.8213 219.749 39.12 220.613 39.12C221.477 39.12 222.181 38.8213 222.725 38.224C223.279 37.616 223.557 36.8747 223.557 36C223.557 35.1253 223.279 34.3893 222.725 33.792C222.181 33.184 221.477 32.88 220.613 32.88C219.749 32.88 219.039 33.184 218.485 33.792C217.941 34.3893 217.669 35.1253 217.669 36C217.669 36.8747 217.941 37.616 218.485 38.224ZM230.193 40.08C229.521 40.08 228.972 39.888 228.545 39.504C228.129 39.1093 227.921 38.5333 227.921 37.776V33.056H226.209V32H227.921V29.776H229.041V32H231.377V33.056H229.041V37.68C229.041 38.1707 229.148 38.5227 229.361 38.736C229.585 38.9387 229.921 39.04 230.369 39.04C230.774 39.04 231.11 38.9813 231.377 38.864V39.872C231.025 40.0107 230.63 40.08 230.193 40.08ZM236.551 40.16C235.324 40.16 234.332 39.7653 233.575 38.976C232.817 38.176 232.439 37.184 232.439 36C232.439 34.8267 232.828 33.84 233.607 33.04C234.385 32.24 235.377 31.84 236.583 31.84C237.66 31.84 238.556 32.2027 239.271 32.928C239.985 33.6533 240.343 34.64 240.343 35.888V36.192H233.591C233.591 37.024 233.868 37.7227 234.423 38.288C234.977 38.8427 235.687 39.12 236.551 39.12C237.191 39.12 237.713 38.9973 238.119 38.752C238.535 38.496 238.892 38.1173 239.191 37.616L240.103 38.208C239.345 39.5093 238.161 40.16 236.551 40.16ZM233.687 35.2H239.175C239.068 34.4853 238.775 33.92 238.295 33.504C237.815 33.088 237.228 32.88 236.535 32.88C235.841 32.88 235.223 33.0933 234.679 33.52C234.145 33.936 233.815 34.496 233.687 35.2ZM250.409 40.16C249.801 40.16 249.225 40.0213 248.681 39.744C248.148 39.4667 247.737 39.104 247.449 38.656V40H246.329V28H247.449V33.344C247.737 32.896 248.148 32.5333 248.681 32.256C249.225 31.9787 249.801 31.84 250.409 31.84C251.529 31.84 252.473 32.2453 253.241 33.056C254.009 33.8667 254.393 34.848 254.393 36C254.393 37.152 254.009 38.1333 253.241 38.944C252.473 39.7547 251.529 40.16 250.409 40.16ZM248.169 38.224C248.724 38.8213 249.433 39.12 250.297 39.12C251.161 39.12 251.865 38.8213 252.409 38.224C252.964 37.616 253.241 36.8747 253.241 36C253.241 35.1253 252.964 34.3893 252.409 33.792C251.865 33.184 251.161 32.88 250.297 32.88C249.433 32.88 248.724 33.184 248.169 33.792C247.625 34.3893 247.353 35.1253 247.353 36C247.353 36.8747 247.625 37.616 248.169 38.224ZM259.782 40.16C258.662 40.16 257.718 39.7547 256.95 38.944C256.182 38.1333 255.798 37.152 255.798 36C255.798 34.848 256.182 33.8667 256.95 33.056C257.718 32.2453 258.662 31.84 259.782 31.84C260.39 31.84 260.96 31.9787 261.494 32.256C262.038 32.5333 262.454 32.896 262.742 33.344V32H263.862V40H262.742V38.656C262.454 39.104 262.038 39.4667 261.494 39.744C260.96 40.0213 260.39 40.16 259.782 40.16ZM257.766 38.224C258.32 38.8213 259.03 39.12 259.894 39.12C260.758 39.12 261.462 38.8213 262.006 38.224C262.56 37.616 262.838 36.8747 262.838 36C262.838 35.1253 262.56 34.3893 262.006 33.792C261.462 33.184 260.758 32.88 259.894 32.88C259.03 32.88 258.32 33.184 257.766 33.792C257.222 34.3893 256.95 35.1253 256.95 36C256.95 36.8747 257.222 37.616 257.766 38.224ZM266.61 40V32H267.73V33.344C268.274 32.3413 269.149 31.84 270.354 31.84C271.24 31.84 271.96 32.1227 272.514 32.688C273.08 33.2533 273.362 34.0213 273.362 34.992V40H272.242V35.152C272.242 34.4587 272.056 33.9093 271.682 33.504C271.32 33.088 270.834 32.88 270.226 32.88C269.501 32.88 268.904 33.1627 268.434 33.728C267.965 34.2827 267.73 35.0453 267.73 36.016V40H266.61ZM281.761 40L277.105 35.92V40H275.985V28H277.105V35.152L280.865 32H282.449L278.241 35.52L283.361 40H281.761ZM291.454 40.16C290.334 40.16 289.39 39.7547 288.622 38.944C287.854 38.1333 287.47 37.152 287.47 36C287.47 34.848 287.854 33.8667 288.622 33.056C289.39 32.2453 290.334 31.84 291.454 31.84C292.062 31.84 292.632 31.9787 293.166 32.256C293.71 32.5333 294.126 32.896 294.414 33.344V32H295.534V40H294.414V38.656C294.126 39.104 293.71 39.4667 293.166 39.744C292.632 40.0213 292.062 40.16 291.454 40.16ZM289.438 38.224C289.992 38.8213 290.702 39.12 291.566 39.12C292.43 39.12 293.134 38.8213 293.678 38.224C294.232 37.616 294.51 36.8747 294.51 36C294.51 35.1253 294.232 34.3893 293.678 33.792C293.134 33.184 292.43 32.88 291.566 32.88C290.702 32.88 289.992 33.184 289.438 33.792C288.894 34.3893 288.622 35.1253 288.622 36C288.622 36.8747 288.894 37.616 289.438 38.224ZM301.786 40.16C300.581 40.16 299.584 39.76 298.794 38.96C298.005 38.1493 297.61 37.1627 297.61 36C297.61 34.8373 298.005 33.856 298.794 33.056C299.584 32.2453 300.581 31.84 301.786 31.84C302.597 31.84 303.317 32.0267 303.946 32.4C304.586 32.7733 305.088 33.2853 305.45 33.936L304.474 34.496C304.218 33.9947 303.856 33.6 303.386 33.312C302.928 33.024 302.394 32.88 301.786 32.88C300.89 32.88 300.16 33.184 299.594 33.792C299.04 34.3893 298.762 35.1253 298.762 36C298.762 36.8747 299.04 37.616 299.594 38.224C300.16 38.8213 300.89 39.12 301.786 39.12C302.394 39.12 302.928 38.976 303.386 38.688C303.856 38.4 304.218 38.0053 304.474 37.504L305.45 38.064C305.088 38.7147 304.586 39.2267 303.946 39.6C303.317 39.9733 302.597 40.16 301.786 40.16ZM310.864 40.16C309.659 40.16 308.662 39.76 307.872 38.96C307.083 38.1493 306.688 37.1627 306.688 36C306.688 34.8373 307.083 33.856 307.872 33.056C308.662 32.2453 309.659 31.84 310.864 31.84C311.675 31.84 312.395 32.0267 313.024 32.4C313.664 32.7733 314.166 33.2853 314.528 33.936L313.552 34.496C313.296 33.9947 312.934 33.6 312.464 33.312C312.006 33.024 311.472 32.88 310.864 32.88C309.968 32.88 309.238 33.184 308.672 33.792C308.118 34.3893 307.84 35.1253 307.84 36C307.84 36.8747 308.118 37.616 308.672 38.224C309.238 38.8213 309.968 39.12 310.864 39.12C311.472 39.12 312.006 38.976 312.464 38.688C312.934 38.4 313.296 38.0053 313.552 37.504L314.528 38.064C314.166 38.7147 313.664 39.2267 313.024 39.6C312.395 39.9733 311.675 40.16 310.864 40.16ZM322.935 38.96C322.145 39.76 321.148 40.16 319.943 40.16C318.737 40.16 317.74 39.76 316.951 38.96C316.161 38.1493 315.767 37.1627 315.767 36C315.767 34.8373 316.161 33.856 316.951 33.056C317.74 32.2453 318.737 31.84 319.943 31.84C321.148 31.84 322.145 32.2453 322.935 33.056C323.724 33.856 324.119 34.8373 324.119 36C324.119 37.1627 323.724 38.1493 322.935 38.96ZM317.751 38.224C318.316 38.8213 319.047 39.12 319.943 39.12C320.839 39.12 321.564 38.8213 322.119 38.224C322.684 37.616 322.967 36.8747 322.967 36C322.967 35.1253 322.684 34.3893 322.119 33.792C321.564 33.184 320.839 32.88 319.943 32.88C319.047 32.88 318.316 33.184 317.751 33.792C317.196 34.3893 316.919 35.1253 316.919 36C316.919 36.8747 317.196 37.616 317.751 38.224ZM329.004 40.16C328.14 40.16 327.436 39.872 326.892 39.296C326.348 38.72 326.076 37.9573 326.076 37.008V32H327.196V36.848C327.196 37.5413 327.377 38.096 327.74 38.512C328.103 38.9173 328.572 39.12 329.148 39.12C329.841 39.12 330.412 38.8373 330.86 38.272C331.319 37.696 331.548 36.9333 331.548 35.984V32H332.668V40H331.548V38.656C331.004 39.6587 330.156 40.16 329.004 40.16ZM335.423 40V32H336.543V33.344C337.087 32.3413 337.962 31.84 339.167 31.84C340.052 31.84 340.772 32.1227 341.327 32.688C341.892 33.2533 342.175 34.0213 342.175 34.992V40H341.055V35.152C341.055 34.4587 340.868 33.9093 340.495 33.504C340.132 33.088 339.647 32.88 339.039 32.88C338.314 32.88 337.716 33.1627 337.247 33.728C336.778 34.2827 336.543 35.0453 336.543 36.016V40H335.423ZM347.568 40.08C346.896 40.08 346.347 39.888 345.92 39.504C345.504 39.1093 345.296 38.5333 345.296 37.776V33.056H343.584V32H345.296V29.776H346.416V32H348.752V33.056H346.416V37.68C346.416 38.1707 346.523 38.5227 346.736 38.736C346.96 38.9387 347.296 39.04 347.744 39.04C348.149 39.04 348.485 38.9813 348.752 38.864V39.872C348.4 40.0107 348.005 40.08 347.568 40.08ZM357.813 40.16C356.693 40.16 355.749 39.7547 354.981 38.944C354.213 38.1333 353.829 37.152 353.829 36C353.829 34.848 354.213 33.8667 354.981 33.056C355.749 32.2453 356.693 31.84 357.813 31.84C358.421 31.84 358.992 31.9787 359.525 32.256C360.069 32.5333 360.485 32.896 360.773 33.344V32H361.893V40H360.773V38.656C360.485 39.104 360.069 39.4667 359.525 39.744C358.992 40.0213 358.421 40.16 357.813 40.16ZM355.797 38.224C356.352 38.8213 357.061 39.12 357.925 39.12C358.789 39.12 359.493 38.8213 360.037 38.224C360.592 37.616 360.869 36.8747 360.869 36C360.869 35.1253 360.592 34.3893 360.037 33.792C359.493 33.184 358.789 32.88 357.925 32.88C357.061 32.88 356.352 33.184 355.797 33.792C355.253 34.3893 354.981 35.1253 354.981 36C354.981 36.8747 355.253 37.616 355.797 38.224ZM364.642 40V32H365.762V33.344C366.306 32.3413 367.18 31.84 368.386 31.84C369.271 31.84 369.991 32.1227 370.546 32.688C371.111 33.2533 371.394 34.0213 371.394 34.992V40H370.274V35.152C370.274 34.4587 370.087 33.9093 369.714 33.504C369.351 33.088 368.866 32.88 368.258 32.88C367.532 32.88 366.935 33.1627 366.466 33.728C365.996 34.2827 365.762 35.0453 365.762 36.016V40H364.642ZM377.329 40.16C376.209 40.16 375.265 39.7547 374.497 38.944C373.729 38.1333 373.345 37.152 373.345 36C373.345 34.848 373.729 33.8667 374.497 33.056C375.265 32.2453 376.209 31.84 377.329 31.84C377.937 31.84 378.507 31.9787 379.041 32.256C379.585 32.5333 380.001 32.896 380.289 33.344V28H381.409V40H380.289V38.656C380.001 39.104 379.585 39.4667 379.041 39.744C378.507 40.0213 377.937 40.16 377.329 40.16ZM375.313 38.224C375.867 38.8213 376.577 39.12 377.441 39.12C378.305 39.12 379.009 38.8213 379.553 38.224C380.107 37.616 380.385 36.8747 380.385 36C380.385 35.1253 380.107 34.3893 379.553 33.792C379.009 33.184 378.305 32.88 377.441 32.88C376.577 32.88 375.867 33.184 375.313 33.792C374.769 34.3893 374.497 35.1253 374.497 36C374.497 36.8747 374.769 37.616 375.313 38.224ZM19.64 60.192C17.9973 60.192 16.6053 59.6267 15.464 58.496C14.3333 57.3653 13.768 55.9733 13.768 54.32C13.768 52.6667 14.3333 51.2747 15.464 50.144C16.6053 49.0133 17.9973 48.448 19.64 48.448C20.6747 48.448 21.624 48.688 22.488 49.168C23.352 49.6373 24.0507 50.2827 24.584 51.104L23.576 51.744C23.16 51.0827 22.6107 50.56 21.928 50.176C21.2453 49.792 20.4827 49.6 19.64 49.6C18.328 49.6 17.224 50.0587 16.328 50.976C15.4427 51.8827 15 52.9973 15 54.32C15 55.6533 15.4427 56.7733 16.328 57.68C17.224 58.5867 18.328 59.04 19.64 59.04C20.4827 59.04 21.2453 58.848 21.928 58.464C22.6107 58.08 23.16 57.5573 23.576 56.896L24.584 57.536C24.0507 58.3573 23.352 59.008 22.488 59.488C21.624 59.9573 20.6747 60.192 19.64 60.192ZM32.9658 58.96C32.1764 59.76 31.1791 60.16 29.9738 60.16C28.7684 60.16 27.7711 59.76 26.9818 58.96C26.1924 58.1493 25.7978 57.1627 25.7978 56C25.7978 54.8373 26.1924 53.856 26.9818 53.056C27.7711 52.2453 28.7684 51.84 29.9738 51.84C31.1791 51.84 32.1764 52.2453 32.9658 53.056C33.7551 53.856 34.1498 54.8373 34.1498 56C34.1498 57.1627 33.7551 58.1493 32.9658 58.96ZM27.7818 58.224C28.3471 58.8213 29.0778 59.12 29.9738 59.12C30.8698 59.12 31.5951 58.8213 32.1498 58.224C32.7151 57.616 32.9978 56.8747 32.9978 56C32.9978 55.1253 32.7151 54.3893 32.1498 53.792C31.5951 53.184 30.8698 52.88 29.9738 52.88C29.0778 52.88 28.3471 53.184 27.7818 53.792C27.2271 54.3893 26.9498 55.1253 26.9498 56C26.9498 56.8747 27.2271 57.616 27.7818 58.224ZM37.3554 63.344H36.2354V52H37.3554V53.344C37.6434 52.896 38.054 52.5333 38.5874 52.256C39.1314 51.9787 39.7074 51.84 40.3154 51.84C41.4354 51.84 42.3794 52.2453 43.1474 53.056C43.9154 53.8667 44.2994 54.848 44.2994 56C44.2994 57.152 43.9154 58.1333 43.1474 58.944C42.3794 59.7547 41.4354 60.16 40.3154 60.16C39.7074 60.16 39.1314 60.0213 38.5874 59.744C38.054 59.4667 37.6434 59.104 37.3554 58.656V63.344ZM38.0754 58.224C38.63 58.8213 39.3394 59.12 40.2034 59.12C41.0674 59.12 41.7714 58.8213 42.3154 58.224C42.87 57.616 43.1474 56.8747 43.1474 56C43.1474 55.1253 42.87 54.3893 42.3154 53.792C41.7714 53.184 41.0674 52.88 40.2034 52.88C39.3394 52.88 38.63 53.184 38.0754 53.792C37.5314 54.3893 37.2594 55.1253 37.2594 56C37.2594 56.8747 37.5314 57.616 38.0754 58.224ZM49.8476 60.16C48.621 60.16 47.629 59.7653 46.8716 58.976C46.1143 58.176 45.7356 57.184 45.7356 56C45.7356 54.8267 46.125 53.84 46.9036 53.04C47.6823 52.24 48.6743 51.84 49.8796 51.84C50.957 51.84 51.853 52.2027 52.5676 52.928C53.2823 53.6533 53.6396 54.64 53.6396 55.888V56.192H46.8876C46.8876 57.024 47.165 57.7227 47.7196 58.288C48.2743 58.8427 48.9836 59.12 49.8476 59.12C50.4876 59.12 51.0103 58.9973 51.4156 58.752C51.8316 58.496 52.189 58.1173 52.4876 57.616L53.3996 58.208C52.6423 59.5093 51.4583 60.16 49.8476 60.16ZM46.9836 55.2H52.4716C52.365 54.4853 52.0716 53.92 51.5916 53.504C51.1116 53.088 50.525 52.88 49.8316 52.88C49.1383 52.88 48.5196 53.0933 47.9756 53.52C47.4423 53.936 47.1116 54.496 46.9836 55.2ZM55.7041 60V52H56.8241V53.648C56.9948 53.1147 57.2988 52.6933 57.7361 52.384C58.1735 52.0747 58.6428 51.92 59.1441 51.92C59.3681 51.92 59.5601 51.9413 59.7201 51.984V53.152C59.5281 53.0773 59.3041 53.04 59.0481 53.04C58.4828 53.04 57.9708 53.296 57.5121 53.808C57.0535 54.32 56.8241 55.0453 56.8241 55.984V60H55.7041ZM64.4693 60.16C63.3493 60.16 62.4053 59.7547 61.6373 58.944C60.8693 58.1333 60.4853 57.152 60.4853 56C60.4853 54.848 60.8693 53.8667 61.6373 53.056C62.4053 52.2453 63.3493 51.84 64.4693 51.84C65.0773 51.84 65.6479 51.9787 66.1813 52.256C66.7253 52.5333 67.1413 52.896 67.4293 53.344V52H68.5493V60H67.4293V58.656C67.1413 59.104 66.7253 59.4667 66.1813 59.744C65.6479 60.0213 65.0773 60.16 64.4693 60.16ZM62.4533 58.224C63.0079 58.8213 63.7173 59.12 64.5813 59.12C65.4453 59.12 66.1493 58.8213 66.6933 58.224C67.2479 57.616 67.5253 56.8747 67.5253 56C67.5253 55.1253 67.2479 54.3893 66.6933 53.792C66.1493 53.184 65.4453 52.88 64.5813 52.88C63.7173 52.88 63.0079 53.184 62.4533 53.792C61.9093 54.3893 61.6373 55.1253 61.6373 56C61.6373 56.8747 61.9093 57.616 62.4533 58.224ZM74.1619 60.08C73.4899 60.08 72.9405 59.888 72.5139 59.504C72.0979 59.1093 71.8899 58.5333 71.8899 57.776V53.056H70.1779V52H71.8899V49.776H73.0099V52H75.3459V53.056H73.0099V57.68C73.0099 58.1707 73.1165 58.5227 73.3299 58.736C73.5539 58.9387 73.8899 59.04 74.3379 59.04C74.7432 59.04 75.0792 58.9813 75.3459 58.864V59.872C74.9939 60.0107 74.5992 60.08 74.1619 60.08ZM80.5195 60.16C79.2928 60.16 78.3008 59.7653 77.5435 58.976C76.7862 58.176 76.4075 57.184 76.4075 56C76.4075 54.8267 76.7968 53.84 77.5755 53.04C78.3542 52.24 79.3462 51.84 80.5515 51.84C81.6288 51.84 82.5248 52.2027 83.2395 52.928C83.9542 53.6533 84.3115 54.64 84.3115 55.888V56.192H77.5595C77.5595 57.024 77.8368 57.7227 78.3915 58.288C78.9462 58.8427 79.6555 59.12 80.5195 59.12C81.1595 59.12 81.6822 58.9973 82.0875 58.752C82.5035 58.496 82.8608 58.1173 83.1595 57.616L84.0715 58.208C83.3142 59.5093 82.1302 60.16 80.5195 60.16ZM77.6555 55.2H83.1435C83.0368 54.4853 82.7435 53.92 82.2635 53.504C81.7835 53.088 81.1968 52.88 80.5035 52.88C79.8102 52.88 79.1915 53.0933 78.6475 53.52C78.1142 53.936 77.7835 54.496 77.6555 55.2ZM90.5059 48.64H91.6259L96.0099 54.48L100.394 48.64H101.514V60H100.298V50.736L96.0099 56.448L91.7219 50.736V60H90.5059V48.64ZM110.841 58.96C110.051 59.76 109.054 60.16 107.849 60.16C106.643 60.16 105.646 59.76 104.857 58.96C104.067 58.1493 103.673 57.1627 103.673 56C103.673 54.8373 104.067 53.856 104.857 53.056C105.646 52.2453 106.643 51.84 107.849 51.84C109.054 51.84 110.051 52.2453 110.841 53.056C111.63 53.856 112.025 54.8373 112.025 56C112.025 57.1627 111.63 58.1493 110.841 58.96ZM105.657 58.224C106.222 58.8213 106.953 59.12 107.849 59.12C108.745 59.12 109.47 58.8213 110.025 58.224C110.59 57.616 110.873 56.8747 110.873 56C110.873 55.1253 110.59 54.3893 110.025 53.792C109.47 53.184 108.745 52.88 107.849 52.88C106.953 52.88 106.222 53.184 105.657 53.792C105.102 54.3893 104.825 55.1253 104.825 56C104.825 56.8747 105.102 57.616 105.657 58.224ZM118.19 60.16C117.582 60.16 117.006 60.0213 116.462 59.744C115.929 59.4667 115.518 59.104 115.23 58.656V60H114.11V48H115.23V53.344C115.518 52.896 115.929 52.5333 116.462 52.256C117.006 51.9787 117.582 51.84 118.19 51.84C119.31 51.84 120.254 52.2453 121.022 53.056C121.79 53.8667 122.174 54.848 122.174 56C122.174 57.152 121.79 58.1333 121.022 58.944C120.254 59.7547 119.31 60.16 118.19 60.16ZM115.95 58.224C116.505 58.8213 117.214 59.12 118.078 59.12C118.942 59.12 119.646 58.8213 120.19 58.224C120.745 57.616 121.022 56.8747 121.022 56C121.022 55.1253 120.745 54.3893 120.19 53.792C119.646 53.184 118.942 52.88 118.078 52.88C117.214 52.88 116.505 53.184 115.95 53.792C115.406 54.3893 115.134 55.1253 115.134 56C115.134 56.8747 115.406 57.616 115.95 58.224ZM124.827 49.6C124.582 49.6 124.374 49.52 124.203 49.36C124.043 49.1893 123.963 48.9867 123.963 48.752C123.963 48.5173 124.043 48.32 124.203 48.16C124.374 47.9893 124.582 47.904 124.827 47.904C125.062 47.904 125.259 47.9893 125.419 48.16C125.579 48.32 125.659 48.5173 125.659 48.752C125.659 48.9867 125.579 49.1893 125.419 49.36C125.259 49.52 125.062 49.6 124.827 49.6ZM124.251 60V52H125.371V60H124.251ZM128.126 60V48H129.246V60H128.126ZM135.457 60.16C134.23 60.16 133.238 59.7653 132.481 58.976C131.724 58.176 131.345 57.184 131.345 56C131.345 54.8267 131.734 53.84 132.513 53.04C133.292 52.24 134.284 51.84 135.489 51.84C136.566 51.84 137.462 52.2027 138.177 52.928C138.892 53.6533 139.249 54.64 139.249 55.888V56.192H132.497C132.497 57.024 132.774 57.7227 133.329 58.288C133.884 58.8427 134.593 59.12 135.457 59.12C136.097 59.12 136.62 58.9973 137.025 58.752C137.441 58.496 137.798 58.1173 138.097 57.616L139.009 58.208C138.252 59.5093 137.068 60.16 135.457 60.16ZM132.593 55.2H138.081C137.974 54.4853 137.681 53.92 137.201 53.504C136.721 53.088 136.134 52.88 135.441 52.88C134.748 52.88 134.129 53.0933 133.585 53.52C133.052 53.936 132.721 54.496 132.593 55.2ZM145.443 48.64H146.563L150.947 54.48L155.331 48.64H156.451V60H155.235V50.736L150.947 56.448L146.659 50.736V60H145.443V48.64ZM165.778 58.96C164.989 59.76 163.992 60.16 162.786 60.16C161.581 60.16 160.584 59.76 159.794 58.96C159.005 58.1493 158.61 57.1627 158.61 56C158.61 54.8373 159.005 53.856 159.794 53.056C160.584 52.2453 161.581 51.84 162.786 51.84C163.992 51.84 164.989 52.2453 165.778 53.056C166.568 53.856 166.962 54.8373 166.962 56C166.962 57.1627 166.568 58.1493 165.778 58.96ZM160.594 58.224C161.16 58.8213 161.89 59.12 162.786 59.12C163.682 59.12 164.408 58.8213 164.962 58.224C165.528 57.616 165.81 56.8747 165.81 56C165.81 55.1253 165.528 54.3893 164.962 53.792C164.408 53.184 163.682 52.88 162.786 52.88C161.89 52.88 161.16 53.184 160.594 53.792C160.04 54.3893 159.762 55.1253 159.762 56C159.762 56.8747 160.04 57.616 160.594 58.224ZM169.048 60V52H170.168V53.344C170.712 52.3413 171.587 51.84 172.792 51.84C173.677 51.84 174.397 52.1227 174.952 52.688C175.517 53.2533 175.8 54.0213 175.8 54.992V60H174.68V55.152C174.68 54.4587 174.493 53.9093 174.12 53.504C173.757 53.088 173.272 52.88 172.664 52.88C171.939 52.88 171.341 53.1627 170.872 53.728C170.403 54.2827 170.168 55.0453 170.168 56.016V60H169.048ZM181.879 60.16C180.652 60.16 179.66 59.7653 178.903 58.976C178.146 58.176 177.767 57.184 177.767 56C177.767 54.8267 178.156 53.84 178.935 53.04C179.714 52.24 180.706 51.84 181.911 51.84C182.988 51.84 183.884 52.2027 184.599 52.928C185.314 53.6533 185.671 54.64 185.671 55.888V56.192H178.919C178.919 57.024 179.196 57.7227 179.751 58.288C180.306 58.8427 181.015 59.12 181.879 59.12C182.519 59.12 183.042 58.9973 183.447 58.752C183.863 58.496 184.22 58.1173 184.519 57.616L185.431 58.208C184.674 59.5093 183.49 60.16 181.879 60.16ZM179.015 55.2H184.503C184.396 54.4853 184.103 53.92 183.623 53.504C183.143 53.088 182.556 52.88 181.863 52.88C181.17 52.88 180.551 53.0933 180.007 53.52C179.474 53.936 179.143 54.496 179.015 55.2ZM189.482 63.344H188.218L189.978 59.6L186.426 52H187.674L190.602 58.352L193.53 52H194.794L189.482 63.344ZM198.05 60L203.106 48.64H204.082L209.154 60H207.874L206.29 56.464H200.866L199.298 60H198.05ZM203.57 50.352L201.362 55.328H205.794L203.57 50.352ZM214.036 60.16C212.831 60.16 211.834 59.76 211.044 58.96C210.255 58.1493 209.86 57.1627 209.86 56C209.86 54.8373 210.255 53.856 211.044 53.056C211.834 52.2453 212.831 51.84 214.036 51.84C214.847 51.84 215.567 52.0267 216.196 52.4C216.836 52.7733 217.338 53.2853 217.7 53.936L216.724 54.496C216.468 53.9947 216.106 53.6 215.636 53.312C215.178 53.024 214.644 52.88 214.036 52.88C213.14 52.88 212.41 53.184 211.844 53.792C211.29 54.3893 211.012 55.1253 211.012 56C211.012 56.8747 211.29 57.616 211.844 58.224C212.41 58.8213 213.14 59.12 214.036 59.12C214.644 59.12 215.178 58.976 215.636 58.688C216.106 58.4 216.468 58.0053 216.724 57.504L217.7 58.064C217.338 58.7147 216.836 59.2267 216.196 59.6C215.567 59.9733 214.847 60.16 214.036 60.16ZM223.114 60.16C221.909 60.16 220.912 59.76 220.122 58.96C219.333 58.1493 218.938 57.1627 218.938 56C218.938 54.8373 219.333 53.856 220.122 53.056C220.912 52.2453 221.909 51.84 223.114 51.84C223.925 51.84 224.645 52.0267 225.274 52.4C225.914 52.7733 226.416 53.2853 226.778 53.936L225.802 54.496C225.546 53.9947 225.184 53.6 224.714 53.312C224.256 53.024 223.722 52.88 223.114 52.88C222.218 52.88 221.488 53.184 220.922 53.792C220.368 54.3893 220.09 55.1253 220.09 56C220.09 56.8747 220.368 57.616 220.922 58.224C221.488 58.8213 222.218 59.12 223.114 59.12C223.722 59.12 224.256 58.976 224.714 58.688C225.184 58.4 225.546 58.0053 225.802 57.504L226.778 58.064C226.416 58.7147 225.914 59.2267 225.274 59.6C224.645 59.9733 223.925 60.16 223.114 60.16ZM235.185 58.96C234.395 59.76 233.398 60.16 232.193 60.16C230.987 60.16 229.99 59.76 229.201 58.96C228.411 58.1493 228.017 57.1627 228.017 56C228.017 54.8373 228.411 53.856 229.201 53.056C229.99 52.2453 230.987 51.84 232.193 51.84C233.398 51.84 234.395 52.2453 235.185 53.056C235.974 53.856 236.369 54.8373 236.369 56C236.369 57.1627 235.974 58.1493 235.185 58.96ZM230.001 58.224C230.566 58.8213 231.297 59.12 232.193 59.12C233.089 59.12 233.814 58.8213 234.369 58.224C234.934 57.616 235.217 56.8747 235.217 56C235.217 55.1253 234.934 54.3893 234.369 53.792C233.814 53.184 233.089 52.88 232.193 52.88C231.297 52.88 230.566 53.184 230.001 53.792C229.446 54.3893 229.169 55.1253 229.169 56C229.169 56.8747 229.446 57.616 230.001 58.224ZM241.254 60.16C240.39 60.16 239.686 59.872 239.142 59.296C238.598 58.72 238.326 57.9573 238.326 57.008V52H239.446V56.848C239.446 57.5413 239.627 58.096 239.99 58.512C240.353 58.9173 240.822 59.12 241.398 59.12C242.091 59.12 242.662 58.8373 243.11 58.272C243.569 57.696 243.798 56.9333 243.798 55.984V52H244.918V60H243.798V58.656C243.254 59.6587 242.406 60.16 241.254 60.16ZM247.673 60V52H248.793V53.344C249.337 52.3413 250.212 51.84 251.417 51.84C252.302 51.84 253.022 52.1227 253.577 52.688C254.142 53.2533 254.425 54.0213 254.425 54.992V60H253.305V55.152C253.305 54.4587 253.118 53.9093 252.745 53.504C252.382 53.088 251.897 52.88 251.289 52.88C250.564 52.88 249.966 53.1627 249.497 53.728C249.028 54.2827 248.793 55.0453 248.793 56.016V60H247.673ZM259.818 60.08C259.146 60.08 258.597 59.888 258.17 59.504C257.754 59.1093 257.546 58.5333 257.546 57.776V53.056H255.834V52H257.546V49.776H258.666V52H261.002V53.056H258.666V57.68C258.666 58.1707 258.773 58.5227 258.986 58.736C259.21 58.9387 259.546 59.04 259.994 59.04C260.399 59.04 260.735 58.9813 261.002 58.864V59.872C260.65 60.0107 260.255 60.08 259.818 60.08ZM265.165 60.16C264.408 60.16 263.752 59.9947 263.197 59.664C262.653 59.3227 262.274 58.832 262.061 58.192L263.069 57.776C263.197 58.2027 263.458 58.5387 263.853 58.784C264.258 59.0293 264.701 59.152 265.181 59.152C265.629 59.152 265.997 59.0453 266.285 58.832C266.584 58.608 266.733 58.304 266.733 57.92C266.733 57.6 266.616 57.3333 266.381 57.12C266.157 56.896 265.773 56.6933 265.229 56.512L264.365 56.24C263.085 55.8453 262.445 55.088 262.445 53.968C262.445 53.3173 262.696 52.8 263.197 52.416C263.709 52.032 264.349 51.84 265.117 51.84C266.322 51.84 267.186 52.3093 267.709 53.248L266.813 53.808C266.386 53.1573 265.8 52.832 265.053 52.832C264.658 52.832 264.312 52.9387 264.013 53.152C263.714 53.3547 263.565 53.6107 263.565 53.92C263.565 54.5173 263.981 54.9493 264.813 55.216L265.725 55.504C267.144 55.952 267.853 56.7253 267.853 57.824C267.853 58.56 267.602 59.136 267.101 59.552C266.61 59.9573 265.965 60.16 265.165 60.16ZM274.265 60V53.056H272.553V52H274.265V50.208C274.265 49.4507 274.468 48.88 274.873 48.496C275.289 48.1013 275.839 47.904 276.521 47.904C276.969 47.904 277.369 47.9733 277.721 48.112V49.12C277.455 49.0027 277.113 48.944 276.697 48.944C276.249 48.944 275.919 49.0507 275.705 49.264C275.492 49.4667 275.385 49.8133 275.385 50.304V52H277.721V53.056H275.385V60H274.265ZM285.606 58.96C284.817 59.76 283.82 60.16 282.614 60.16C281.409 60.16 280.412 59.76 279.622 58.96C278.833 58.1493 278.438 57.1627 278.438 56C278.438 54.8373 278.833 53.856 279.622 53.056C280.412 52.2453 281.409 51.84 282.614 51.84C283.82 51.84 284.817 52.2453 285.606 53.056C286.396 53.856 286.79 54.8373 286.79 56C286.79 57.1627 286.396 58.1493 285.606 58.96ZM280.422 58.224C280.988 58.8213 281.718 59.12 282.614 59.12C283.51 59.12 284.236 58.8213 284.79 58.224C285.356 57.616 285.638 56.8747 285.638 56C285.638 55.1253 285.356 54.3893 284.79 53.792C284.236 53.184 283.51 52.88 282.614 52.88C281.718 52.88 280.988 53.184 280.422 53.792C279.868 54.3893 279.59 55.1253 279.59 56C279.59 56.8747 279.868 57.616 280.422 58.224ZM288.876 60V52H289.996V53.648C290.167 53.1147 290.471 52.6933 290.908 52.384C291.345 52.0747 291.815 51.92 292.316 51.92C292.54 51.92 292.732 51.9413 292.892 51.984V53.152C292.7 53.0773 292.476 53.04 292.22 53.04C291.655 53.04 291.143 53.296 290.684 53.808C290.225 54.32 289.996 55.0453 289.996 55.984V60H288.876ZM298.303 60V48.64H302.015C303.06 48.64 303.881 48.9173 304.479 49.472C305.076 50.016 305.375 50.7573 305.375 51.696C305.375 52.5707 305.108 53.28 304.575 53.824C304.052 54.3573 303.327 54.6613 302.399 54.736L306.895 60H305.311L300.815 54.72H299.519V60H298.303ZM299.519 53.6H301.871C303.385 53.6 304.143 52.9653 304.143 51.696C304.143 50.416 303.385 49.776 301.871 49.776H299.519V53.6ZM311.41 60.16C310.183 60.16 309.191 59.7653 308.434 58.976C307.677 58.176 307.298 57.184 307.298 56C307.298 54.8267 307.687 53.84 308.466 53.04C309.245 52.24 310.237 51.84 311.442 51.84C312.519 51.84 313.415 52.2027 314.13 52.928C314.845 53.6533 315.202 54.64 315.202 55.888V56.192H308.45C308.45 57.024 308.727 57.7227 309.282 58.288C309.837 58.8427 310.546 59.12 311.41 59.12C312.05 59.12 312.573 58.9973 312.978 58.752C313.394 58.496 313.751 58.1173 314.05 57.616L314.962 58.208C314.205 59.5093 313.021 60.16 311.41 60.16ZM308.546 55.2H314.034C313.927 54.4853 313.634 53.92 313.154 53.504C312.674 53.088 312.087 52.88 311.394 52.88C310.701 52.88 310.082 53.0933 309.538 53.52C309.005 53.936 308.674 54.496 308.546 55.2ZM318.563 58.096C319.107 58.672 319.811 58.96 320.675 58.96C321.539 58.96 322.237 58.672 322.771 58.096C323.315 57.52 323.587 56.7947 323.587 55.92C323.587 55.0453 323.315 54.32 322.771 53.744C322.237 53.168 321.539 52.88 320.675 52.88C319.811 52.88 319.107 53.168 318.563 53.744C318.029 54.32 317.763 55.0453 317.763 55.92C317.763 56.7947 318.029 57.52 318.563 58.096ZM320.659 63.504C319.795 63.504 319.032 63.3387 318.371 63.008C317.709 62.6773 317.213 62.2613 316.883 61.76L317.763 61.008C318.456 61.9787 319.421 62.464 320.659 62.464C321.427 62.464 322.088 62.2187 322.643 61.728C323.208 61.2373 323.491 60.5013 323.491 59.52V58.496C323.192 58.944 322.781 59.3067 322.259 59.584C321.736 59.8613 321.171 60 320.563 60C319.432 60 318.488 59.6107 317.731 58.832C316.984 58.0427 316.611 57.072 316.611 55.92C316.611 54.768 316.984 53.8027 317.731 53.024C318.488 52.2347 319.432 51.84 320.563 51.84C321.171 51.84 321.736 51.9787 322.259 52.256C322.781 52.5333 323.192 52.896 323.491 53.344V52H324.611V59.584C324.611 60.8427 324.243 61.808 323.507 62.48C322.771 63.1627 321.821 63.504 320.659 63.504ZM327.936 49.6C327.691 49.6 327.483 49.52 327.312 49.36C327.152 49.1893 327.072 48.9867 327.072 48.752C327.072 48.5173 327.152 48.32 327.312 48.16C327.483 47.9893 327.691 47.904 327.936 47.904C328.171 47.904 328.368 47.9893 328.528 48.16C328.688 48.32 328.768 48.5173 328.768 48.752C328.768 48.9867 328.688 49.1893 328.528 49.36C328.368 49.52 328.171 49.6 327.936 49.6ZM327.36 60V52H328.48V60H327.36ZM333.571 60.16C332.814 60.16 332.158 59.9947 331.603 59.664C331.059 59.3227 330.681 58.832 330.467 58.192L331.475 57.776C331.603 58.2027 331.865 58.5387 332.259 58.784C332.665 59.0293 333.107 59.152 333.587 59.152C334.035 59.152 334.403 59.0453 334.691 58.832C334.99 58.608 335.139 58.304 335.139 57.92C335.139 57.6 335.022 57.3333 334.787 57.12C334.563 56.896 334.179 56.6933 333.635 56.512L332.771 56.24C331.491 55.8453 330.851 55.088 330.851 53.968C330.851 53.3173 331.102 52.8 331.603 52.416C332.115 52.032 332.755 51.84 333.523 51.84C334.729 51.84 335.593 52.3093 336.115 53.248L335.219 53.808C334.793 53.1573 334.206 52.832 333.459 52.832C333.065 52.832 332.718 52.9387 332.419 53.152C332.121 53.3547 331.971 53.6107 331.971 53.92C331.971 54.5173 332.387 54.9493 333.219 55.216L334.131 55.504C335.55 55.952 336.259 56.7253 336.259 57.824C336.259 58.56 336.009 59.136 335.507 59.552C335.017 59.9573 334.371 60.16 333.571 60.16ZM341.193 60.08C340.521 60.08 339.972 59.888 339.545 59.504C339.129 59.1093 338.921 58.5333 338.921 57.776V53.056H337.209V52H338.921V49.776H340.041V52H342.377V53.056H340.041V57.68C340.041 58.1707 340.148 58.5227 340.361 58.736C340.585 58.9387 340.921 59.04 341.369 59.04C341.774 59.04 342.11 58.9813 342.377 58.864V59.872C342.025 60.0107 341.63 60.08 341.193 60.08ZM347.551 60.16C346.324 60.16 345.332 59.7653 344.575 58.976C343.817 58.176 343.439 57.184 343.439 56C343.439 54.8267 343.828 53.84 344.607 53.04C345.385 52.24 346.377 51.84 347.583 51.84C348.66 51.84 349.556 52.2027 350.271 52.928C350.985 53.6533 351.343 54.64 351.343 55.888V56.192H344.591C344.591 57.024 344.868 57.7227 345.423 58.288C345.977 58.8427 346.687 59.12 347.551 59.12C348.191 59.12 348.713 58.9973 349.119 58.752C349.535 58.496 349.892 58.1173 350.191 57.616L351.103 58.208C350.345 59.5093 349.161 60.16 347.551 60.16ZM344.687 55.2H350.175C350.068 54.4853 349.775 53.92 349.295 53.504C348.815 53.088 348.228 52.88 347.535 52.88C346.841 52.88 346.223 53.0933 345.679 53.52C345.145 53.936 344.815 54.496 344.687 55.2ZM353.407 60V52H354.527V53.648C354.698 53.1147 355.002 52.6933 355.439 52.384C355.877 52.0747 356.346 51.92 356.847 51.92C357.071 51.92 357.263 51.9413 357.423 51.984V53.152C357.231 53.0773 357.007 53.04 356.751 53.04C356.186 53.04 355.674 53.296 355.215 53.808C354.757 54.32 354.527 55.0453 354.527 55.984V60H353.407ZM362.301 60.16C361.074 60.16 360.082 59.7653 359.325 58.976C358.567 58.176 358.189 57.184 358.189 56C358.189 54.8267 358.578 53.84 359.357 53.04C360.135 52.24 361.127 51.84 362.333 51.84C363.41 51.84 364.306 52.2027 365.021 52.928C365.735 53.6533 366.093 54.64 366.093 55.888V56.192H359.341C359.341 57.024 359.618 57.7227 360.173 58.288C360.727 58.8427 361.437 59.12 362.301 59.12C362.941 59.12 363.463 58.9973 363.869 58.752C364.285 58.496 364.642 58.1173 364.941 57.616L365.853 58.208C365.095 59.5093 363.911 60.16 362.301 60.16ZM359.437 55.2H364.925C364.818 54.4853 364.525 53.92 364.045 53.504C363.565 53.088 362.978 52.88 362.285 52.88C361.591 52.88 360.973 53.0933 360.429 53.52C359.895 53.936 359.565 54.496 359.437 55.2ZM371.469 60.16C370.349 60.16 369.405 59.7547 368.637 58.944C367.869 58.1333 367.485 57.152 367.485 56C367.485 54.848 367.869 53.8667 368.637 53.056C369.405 52.2453 370.349 51.84 371.469 51.84C372.077 51.84 372.648 51.9787 373.181 52.256C373.725 52.5333 374.141 52.896 374.429 53.344V48H375.549V60H374.429V58.656C374.141 59.104 373.725 59.4667 373.181 59.744C372.648 60.0213 372.077 60.16 371.469 60.16ZM369.453 58.224C370.008 58.8213 370.717 59.12 371.581 59.12C372.445 59.12 373.149 58.8213 373.693 58.224C374.248 57.616 374.525 56.8747 374.525 56C374.525 55.1253 374.248 54.3893 373.693 53.792C373.149 53.184 372.445 52.88 371.581 52.88C370.717 52.88 370.008 53.184 369.453 53.792C368.909 54.3893 368.637 55.1253 368.637 56C368.637 56.8747 368.909 57.616 369.453 58.224ZM14.584 80V68.64H18.168C19.2133 68.64 20.04 68.9227 20.648 69.488C21.256 70.0533 21.56 70.7413 21.56 71.552C21.56 72.6613 21.128 73.4667 20.264 73.968C21.6293 74.4267 22.312 75.3333 22.312 76.688C22.312 77.6587 21.9547 78.4533 21.24 79.072C20.536 79.6907 19.5973 80 18.424 80H14.584ZM15.8 78.896H18.552C19.384 78.896 20.0187 78.704 20.456 78.32C20.8933 77.936 21.112 77.424 21.112 76.784C21.112 76.144 20.8933 75.632 20.456 75.248C20.0293 74.8533 19.4 74.656 18.568 74.656H15.8V78.896ZM15.8 73.6H18.248C18.9093 73.6 19.4267 73.424 19.8 73.072C20.1733 72.7093 20.36 72.2453 20.36 71.68C20.36 71.1467 20.168 70.6933 19.784 70.32C19.4107 69.936 18.8987 69.744 18.248 69.744H15.8V73.6ZM27.2229 80.16C26.3589 80.16 25.6549 79.872 25.1109 79.296C24.5669 78.72 24.2949 77.9573 24.2949 77.008V72H25.4149V76.848C25.4149 77.5413 25.5962 78.096 25.9589 78.512C26.3215 78.9173 26.7909 79.12 27.3669 79.12C28.0602 79.12 28.6309 78.8373 29.0789 78.272C29.5375 77.696 29.7669 76.9333 29.7669 75.984V72H30.8869V80H29.7669V78.656C29.2229 79.6587 28.3749 80.16 27.2229 80.16ZM35.9776 80.16C35.2203 80.16 34.5643 79.9947 34.0096 79.664C33.4656 79.3227 33.087 78.832 32.8736 78.192L33.8816 77.776C34.0096 78.2027 34.271 78.5387 34.6656 78.784C35.071 79.0293 35.5136 79.152 35.9936 79.152C36.4416 79.152 36.8096 79.0453 37.0976 78.832C37.3963 78.608 37.5456 78.304 37.5456 77.92C37.5456 77.6 37.4283 77.3333 37.1936 77.12C36.9696 76.896 36.5856 76.6933 36.0416 76.512L35.1776 76.24C33.8976 75.8453 33.2576 75.088 33.2576 73.968C33.2576 73.3173 33.5083 72.8 34.0096 72.416C34.5216 72.032 35.1616 71.84 35.9296 71.84C37.135 71.84 37.999 72.3093 38.5216 73.248L37.6256 73.808C37.199 73.1573 36.6123 72.832 35.8656 72.832C35.471 72.832 35.1243 72.9387 34.8256 73.152C34.527 73.3547 34.3776 73.6107 34.3776 73.92C34.3776 74.5173 34.7936 74.9493 35.6256 75.216L36.5376 75.504C37.9563 75.952 38.6656 76.7253 38.6656 77.824C38.6656 78.56 38.415 79.136 37.9136 79.552C37.423 79.9573 36.7776 80.16 35.9776 80.16ZM41.3739 69.6C41.1285 69.6 40.9205 69.52 40.7499 69.36C40.5899 69.1893 40.5099 68.9867 40.5099 68.752C40.5099 68.5173 40.5899 68.32 40.7499 68.16C40.9205 67.9893 41.1285 67.904 41.3739 67.904C41.6085 67.904 41.8059 67.9893 41.9659 68.16C42.1259 68.32 42.2059 68.5173 42.2059 68.752C42.2059 68.9867 42.1259 69.1893 41.9659 69.36C41.8059 69.52 41.6085 69.6 41.3739 69.6ZM40.7979 80V72H41.9179V80H40.7979ZM44.6729 80V72H45.7929V73.344C46.3369 72.3413 47.2115 71.84 48.4169 71.84C49.3022 71.84 50.0222 72.1227 50.5769 72.688C51.1422 73.2533 51.4249 74.0213 51.4249 74.992V80H50.3049V75.152C50.3049 74.4587 50.1182 73.9093 49.7449 73.504C49.3822 73.088 48.8969 72.88 48.2889 72.88C47.5635 72.88 46.9662 73.1627 46.4969 73.728C46.0275 74.2827 45.7929 75.0453 45.7929 76.016V80H44.6729ZM57.5039 80.16C56.2772 80.16 55.2852 79.7653 54.5279 78.976C53.7705 78.176 53.3919 77.184 53.3919 76C53.3919 74.8267 53.7812 73.84 54.5599 73.04C55.3385 72.24 56.3305 71.84 57.5359 71.84C58.6132 71.84 59.5092 72.2027 60.2239 72.928C60.9385 73.6533 61.2959 74.64 61.2959 75.888V76.192H54.5439C54.5439 77.024 54.8212 77.7227 55.3759 78.288C55.9305 78.8427 56.6399 79.12 57.5039 79.12C58.1439 79.12 58.6665 78.9973 59.0719 78.752C59.4879 78.496 59.8452 78.1173 60.1439 77.616L61.0559 78.208C60.2985 79.5093 59.1145 80.16 57.5039 80.16ZM54.6399 75.2H60.1279C60.0212 74.4853 59.7279 73.92 59.2479 73.504C58.7679 73.088 58.1812 72.88 57.4879 72.88C56.7945 72.88 56.1759 73.0933 55.6319 73.52C55.0985 73.936 54.7679 74.496 54.6399 75.2ZM65.6964 80.16C64.939 80.16 64.283 79.9947 63.7284 79.664C63.1844 79.3227 62.8057 78.832 62.5924 78.192L63.6004 77.776C63.7284 78.2027 63.9897 78.5387 64.3844 78.784C64.7897 79.0293 65.2324 79.152 65.7124 79.152C66.1604 79.152 66.5284 79.0453 66.8164 78.832C67.115 78.608 67.2644 78.304 67.2644 77.92C67.2644 77.6 67.147 77.3333 66.9124 77.12C66.6884 76.896 66.3044 76.6933 65.7604 76.512L64.8964 76.24C63.6164 75.8453 62.9764 75.088 62.9764 73.968C62.9764 73.3173 63.227 72.8 63.7284 72.416C64.2404 72.032 64.8804 71.84 65.6484 71.84C66.8537 71.84 67.7177 72.3093 68.2404 73.248L67.3444 73.808C66.9177 73.1573 66.331 72.832 65.5844 72.832C65.1897 72.832 64.843 72.9387 64.5444 73.152C64.2457 73.3547 64.0964 73.6107 64.0964 73.92C64.0964 74.5173 64.5124 74.9493 65.3444 75.216L66.2564 75.504C67.675 75.952 68.3844 76.7253 68.3844 77.824C68.3844 78.56 68.1337 79.136 67.6324 79.552C67.1417 79.9573 66.4964 80.16 65.6964 80.16ZM72.8526 80.16C72.0953 80.16 71.4393 79.9947 70.8846 79.664C70.3406 79.3227 69.962 78.832 69.7486 78.192L70.7566 77.776C70.8846 78.2027 71.146 78.5387 71.5406 78.784C71.946 79.0293 72.3886 79.152 72.8686 79.152C73.3166 79.152 73.6846 79.0453 73.9726 78.832C74.2713 78.608 74.4206 78.304 74.4206 77.92C74.4206 77.6 74.3033 77.3333 74.0686 77.12C73.8446 76.896 73.4606 76.6933 72.9166 76.512L72.0526 76.24C70.7726 75.8453 70.1326 75.088 70.1326 73.968C70.1326 73.3173 70.3833 72.8 70.8846 72.416C71.3966 72.032 72.0366 71.84 72.8046 71.84C74.01 71.84 74.874 72.3093 75.3966 73.248L74.5006 73.808C74.074 73.1573 73.4873 72.832 72.7406 72.832C72.346 72.832 71.9993 72.9387 71.7006 73.152C71.402 73.3547 71.2526 73.6107 71.2526 73.92C71.2526 74.5173 71.6686 74.9493 72.5006 75.216L73.4126 75.504C74.8313 75.952 75.5406 76.7253 75.5406 77.824C75.5406 78.56 75.29 79.136 74.7886 79.552C74.298 79.9573 73.6526 80.16 72.8526 80.16ZM81.1289 80.16C79.9022 80.16 78.9102 79.7653 78.1529 78.976C77.3955 78.176 77.0169 77.184 77.0169 76C77.0169 74.8267 77.4062 73.84 78.1849 73.04C78.9635 72.24 79.9555 71.84 81.1609 71.84C82.2382 71.84 83.1342 72.2027 83.8489 72.928C84.5635 73.6533 84.9209 74.64 84.9209 75.888V76.192H78.1689C78.1689 77.024 78.4462 77.7227 79.0009 78.288C79.5555 78.8427 80.2649 79.12 81.1289 79.12C81.7689 79.12 82.2915 78.9973 82.6969 78.752C83.1129 78.496 83.4702 78.1173 83.7689 77.616L84.6809 78.208C83.9235 79.5093 82.7395 80.16 81.1289 80.16ZM78.2649 75.2H83.7529C83.6462 74.4853 83.3529 73.92 82.8729 73.504C82.3929 73.088 81.8062 72.88 81.1129 72.88C80.4195 72.88 79.8009 73.0933 79.2569 73.52C78.7235 73.936 78.3929 74.496 78.2649 75.2ZM89.3214 80.16C88.564 80.16 87.908 79.9947 87.3534 79.664C86.8094 79.3227 86.4307 78.832 86.2174 78.192L87.2254 77.776C87.3534 78.2027 87.6147 78.5387 88.0094 78.784C88.4147 79.0293 88.8574 79.152 89.3374 79.152C89.7854 79.152 90.1534 79.0453 90.4414 78.832C90.74 78.608 90.8894 78.304 90.8894 77.92C90.8894 77.6 90.772 77.3333 90.5374 77.12C90.3134 76.896 89.9294 76.6933 89.3854 76.512L88.5214 76.24C87.2414 75.8453 86.6014 75.088 86.6014 73.968C86.6014 73.3173 86.852 72.8 87.3534 72.416C87.8654 72.032 88.5054 71.84 89.2734 71.84C90.4787 71.84 91.3427 72.3093 91.8654 73.248L90.9694 73.808C90.5427 73.1573 89.956 72.832 89.2094 72.832C88.8147 72.832 88.468 72.9387 88.1694 73.152C87.8707 73.3547 87.7214 73.6107 87.7214 73.92C87.7214 74.5173 88.1374 74.9493 88.9694 75.216L89.8814 75.504C91.3 75.952 92.0094 76.7253 92.0094 77.824C92.0094 78.56 91.7587 79.136 91.2574 79.552C90.7667 79.9573 90.1214 80.16 89.3214 80.16Z" fill="#3D3D3D"/>
</svg>
