<svg width="100" height="100" viewBox="0 0 100 100" fill="none" xmlns="http://www.w3.org/2000/svg">
<path fill-rule="evenodd" clip-rule="evenodd" d="M31.9426 91.6668H68.0535C82.1797 91.6668 91.6668 81.7581 91.6668 67.0139V32.9865C91.6668 18.2423 82.1797 8.3335 68.0577 8.3335H31.9426C17.8206 8.3335 8.3335 18.2423 8.3335 32.9865V67.0139C8.3335 81.7581 17.8206 91.6668 31.9426 91.6668ZM35.4121 45.8335C29.6677 45.8335 25.0002 41.1596 25.0002 35.4168C25.0002 29.674 29.6677 25.0002 35.4121 25.0002C41.1522 25.0002 45.8239 29.674 45.8239 35.4168C45.8239 41.1596 41.1522 45.8335 35.4121 45.8335ZM82.5868 62.2252C83.9823 65.8027 83.2572 70.1027 81.7656 73.6456C79.9977 77.8597 76.6123 81.0502 72.3468 82.4435C70.4531 83.0627 68.4668 83.3335 66.4852 83.3335H31.3695C27.8751 83.3335 24.783 82.4952 22.2481 80.9339C20.6601 79.9539 20.3794 77.6918 21.5567 76.2256C23.526 73.7747 25.4701 71.3152 27.431 68.8339C31.1684 64.0868 33.6865 62.711 36.4854 63.9193C37.6208 64.4181 38.7605 65.166 39.9337 65.9573C43.0593 68.0814 47.4043 71.001 53.1277 67.8322C57.0443 65.6385 59.316 61.8756 61.2943 58.5989L61.3273 58.5443C61.4677 58.3143 61.6064 58.0843 61.7448 57.8552C62.4097 56.7552 63.0656 55.6698 63.8077 54.6698C64.7381 53.4185 68.186 49.5056 72.6527 52.2923C75.4977 54.0464 77.8902 56.4202 80.4502 58.9614C81.4264 59.9331 82.1218 61.0381 82.5868 62.2252Z" fill="#E4E4E4"/>
</svg>
