<svg width="480" height="284" viewBox="0 0 480 284" fill="none" xmlns="http://www.w3.org/2000/svg">
<rect width="480" height="278" fill="#0C2841"/>
<g clip-path="url(#clip0_31979_65463)">
<path d="M47.7192 59.2919C47.7192 53.0555 52.7748 48 59.0111 48H421.48C427.716 48 432.772 53.0555 432.772 59.2919V284H47.7192V59.2919Z" fill="#061520"/>
<line x1="47.3442" y1="76.3325" x2="431.655" y2="76.3325" stroke="white" stroke-opacity="0.08" stroke-width="0.915023"/>
<circle cx="67.4743" cy="62.1483" r="5.49014" fill="white" fill-opacity="0.08"/>
<circle cx="87.6049" cy="62.1483" r="5.49014" fill="white" fill-opacity="0.08"/>
<circle cx="107.735" cy="62.1483" r="5.49014" fill="white" fill-opacity="0.08"/>
<rect x="65.15" y="84.15" width="349.7" height="190.7" fill="#031B2E"/>
<rect x="65.15" y="84.15" width="349.7" height="190.7" stroke="#0C2841" stroke-width="0.3"/>
<g opacity="0.6">
<rect x="73.15" y="90.15" width="333.7" height="46.7" fill="#0A2336"/>
<rect x="73.15" y="90.15" width="333.7" height="46.7" stroke="#0C2841" stroke-width="0.3"/>
</g>
<rect x="73" y="143" width="52" height="5" rx="2.5" fill="#0A2336"/>
<rect x="129.4" y="143" width="52" height="5" rx="2.5" fill="#0A2336"/>
<rect x="185.8" y="143" width="52" height="5" rx="2.5" fill="#0A2336"/>
<rect x="242.2" y="143" width="52" height="5" rx="2.5" fill="#0A2336"/>
<rect x="298.6" y="143" width="52" height="5" rx="2.5" fill="#0A2336"/>
<rect x="355" y="143" width="52" height="5" rx="2.5" fill="#0A2336"/>
<rect x="73" y="154" width="52" height="5" rx="2.5" fill="#0A2336"/>
<rect x="129.4" y="154" width="52" height="5" rx="2.5" fill="#0A2336"/>
<rect x="185.8" y="154" width="52" height="5" rx="2.5" fill="#0A2336"/>
<rect x="242.2" y="154" width="52" height="5" rx="2.5" fill="#0A2336"/>
<rect x="298.6" y="154" width="52" height="5" rx="2.5" fill="#0A2336"/>
<rect x="355" y="154" width="52" height="5" rx="2.5" fill="#0A2336"/>
<rect x="73" y="165" width="52" height="5" rx="2.5" fill="#0A2336"/>
<rect x="129.4" y="165" width="52" height="5" rx="2.5" fill="#0A2336"/>
<rect x="185.8" y="165" width="52" height="5" rx="2.5" fill="#0A2336"/>
<rect x="242.2" y="165" width="52" height="5" rx="2.5" fill="#0A2336"/>
<rect x="298.6" y="165" width="52" height="5" rx="2.5" fill="#0A2336"/>
<rect x="355" y="165" width="52" height="5" rx="2.5" fill="#0A2336"/>
<rect x="73" y="176" width="52" height="5" rx="2.5" fill="#0A2336"/>
<rect x="129.4" y="176" width="52" height="5" rx="2.5" fill="#0A2336"/>
<rect x="185.8" y="176" width="52" height="5" rx="2.5" fill="#0A2336"/>
<rect x="242.2" y="176" width="52" height="5" rx="2.5" fill="#0A2336"/>
<rect x="298.6" y="176" width="52" height="5" rx="2.5" fill="#0A2336"/>
<rect x="355" y="176" width="52" height="5" rx="2.5" fill="#0A2336"/>
<rect x="73" y="187" width="52" height="5" rx="2.5" fill="#0A2336"/>
<rect x="129.4" y="187" width="52" height="5" rx="2.5" fill="#0A2336"/>
<rect x="185.8" y="187" width="52" height="5" rx="2.5" fill="#0A2336"/>
<rect x="242.2" y="187" width="52" height="5" rx="2.5" fill="#0A2336"/>
<rect x="298.6" y="187" width="52" height="5" rx="2.5" fill="#0A2336"/>
<rect x="355" y="187" width="52" height="5" rx="2.5" fill="#0A2336"/>
<rect x="73" y="198" width="52" height="5" rx="2.5" fill="#0A2336"/>
<rect x="129.4" y="198" width="52" height="5" rx="2.5" fill="#0A2336"/>
<rect x="185.8" y="198" width="52" height="5" rx="2.5" fill="#0A2336"/>
<rect x="242.2" y="198" width="52" height="5" rx="2.5" fill="#0A2336"/>
<rect x="298.6" y="198" width="52" height="5" rx="2.5" fill="#0A2336"/>
<rect x="355" y="198" width="52" height="5" rx="2.5" fill="#0A2336"/>
<rect x="73" y="209" width="52" height="5" rx="2.5" fill="#0A2336"/>
<rect x="129.4" y="209" width="52" height="5" rx="2.5" fill="#0A2336"/>
<rect x="185.8" y="209" width="52" height="5" rx="2.5" fill="#0A2336"/>
<rect x="242.2" y="209" width="52" height="5" rx="2.5" fill="#0A2336"/>
<rect x="298.6" y="209" width="52" height="5" rx="2.5" fill="#0A2336"/>
<rect x="355" y="209" width="52" height="5" rx="2.5" fill="#0A2336"/>
<rect x="73" y="220" width="52" height="5" rx="2.5" fill="#0A2336"/>
<rect x="129.4" y="220" width="52" height="5" rx="2.5" fill="#0A2336"/>
<rect x="185.8" y="220" width="52" height="5" rx="2.5" fill="#0A2336"/>
<rect x="242.2" y="220" width="52" height="5" rx="2.5" fill="#0A2336"/>
<rect x="298.6" y="220" width="52" height="5" rx="2.5" fill="#0A2336"/>
<rect x="355" y="220" width="52" height="5" rx="2.5" fill="#0A2336"/>
<rect x="73" y="231" width="52" height="5" rx="2.5" fill="#0A2336"/>
<rect x="129.4" y="231" width="52" height="5" rx="2.5" fill="#0A2336"/>
<rect x="185.8" y="231" width="52" height="5" rx="2.5" fill="#0A2336"/>
<rect x="242.2" y="231" width="52" height="5" rx="2.5" fill="#0A2336"/>
<rect x="298.6" y="231" width="52" height="5" rx="2.5" fill="#0A2336"/>
<rect x="355" y="231" width="52" height="5" rx="2.5" fill="#0A2336"/>
<rect x="73" y="242" width="52" height="5" rx="2.5" fill="#0A2336"/>
<rect x="129.4" y="242" width="52" height="5" rx="2.5" fill="#0A2336"/>
<rect x="185.8" y="242" width="52" height="5" rx="2.5" fill="#0A2336"/>
<rect x="242.2" y="242" width="52" height="5" rx="2.5" fill="#0A2336"/>
<rect x="298.6" y="242" width="52" height="5" rx="2.5" fill="#0A2336"/>
<rect x="355" y="242" width="52" height="5" rx="2.5" fill="#0A2336"/>
<rect x="73" y="253" width="52" height="5" rx="2.5" fill="#0A2336"/>
<rect x="129.4" y="253" width="52" height="5" rx="2.5" fill="#0A2336"/>
<rect x="185.8" y="253" width="52" height="5" rx="2.5" fill="#0A2336"/>
<rect x="242.2" y="253" width="52" height="5" rx="2.5" fill="#0A2336"/>
<rect x="298.6" y="253" width="52" height="5" rx="2.5" fill="#0A2336"/>
<rect x="355" y="253" width="52" height="5" rx="2.5" fill="#0A2336"/>
<rect x="73" y="264" width="52" height="5" rx="2.5" fill="#0A2336"/>
<rect x="129.4" y="264" width="52" height="5" rx="2.5" fill="#0A2336"/>
<rect x="185.8" y="264" width="52" height="5" rx="2.5" fill="#0A2336"/>
<rect x="242.2" y="264" width="52" height="5" rx="2.5" fill="#0A2336"/>
<rect x="298.6" y="264" width="52" height="5" rx="2.5" fill="#0A2336"/>
<rect x="355" y="264" width="52" height="5" rx="2.5" fill="#0A2336"/>
</g>
<path d="M48.1767 59.2919C48.1767 53.3082 53.0275 48.4575 59.0111 48.4575H421.48C427.464 48.4575 432.314 53.3082 432.314 59.2919V283.542H48.1767V59.2919Z" stroke="white" stroke-opacity="0.08" stroke-width="0.915023"/>
<defs>
<clipPath id="clip0_31979_65463">
<path d="M47.7192 59.2919C47.7192 53.0555 52.7748 48 59.0111 48H421.48C427.716 48 432.772 53.0555 432.772 59.2919V284H47.7192V59.2919Z" fill="white"/>
</clipPath>
</defs>
</svg>
