<svg width="396" height="316" viewBox="0 0 396 316" fill="none" xmlns="http://www.w3.org/2000/svg">
<g filter="url(#filter0_d_6674_46327)">
<rect x="8" y="4" width="380" height="300" rx="16" fill="white"/>
</g>
<rect x="42.3809" y="224.595" width="13.8125" height="13.8125" rx="1.38125" fill="#5A3FFF"/>
<path d="M72.909 238V226.804H68.931V225.22H78.525V226.804H74.547V238H72.909ZM82.7274 238.18C81.3714 238.18 80.2434 237.73 79.3434 236.83C78.4554 235.918 78.0114 234.808 78.0114 233.5C78.0114 232.192 78.4554 231.088 79.3434 230.188C80.2434 229.276 81.3714 228.82 82.7274 228.82C84.0714 228.82 85.1874 229.276 86.0754 230.188C86.9754 231.088 87.4254 232.192 87.4254 233.5C87.4254 234.808 86.9754 235.918 86.0754 236.83C85.1874 237.73 84.0714 238.18 82.7274 238.18ZM80.4594 235.804C81.0474 236.428 81.8034 236.74 82.7274 236.74C83.6514 236.74 84.4014 236.428 84.9774 235.804C85.5534 235.18 85.8414 234.412 85.8414 233.5C85.8414 232.588 85.5534 231.82 84.9774 231.196C84.4014 230.572 83.6514 230.26 82.7274 230.26C81.8034 230.26 81.0474 230.572 80.4594 231.196C79.8834 231.82 79.5954 232.588 79.5954 233.5C79.5954 234.412 79.8834 235.18 80.4594 235.804ZM92.9813 238.09C92.1533 238.09 91.4873 237.856 90.9833 237.388C90.4793 236.92 90.2273 236.236 90.2273 235.336V230.422H88.3193V229H90.2273V226.498H91.7753V229H94.3673V230.422H91.7753V235.138C91.7753 235.702 91.8953 236.098 92.1353 236.326C92.3753 236.554 92.7533 236.668 93.2693 236.668C93.7253 236.668 94.0913 236.608 94.3673 236.488V237.874C93.9353 238.018 93.4733 238.09 92.9813 238.09ZM99.9297 238.18C98.6817 238.18 97.6317 237.724 96.7797 236.812C95.9397 235.9 95.5197 234.796 95.5197 233.5C95.5197 232.204 95.9397 231.1 96.7797 230.188C97.6317 229.276 98.6817 228.82 99.9297 228.82C100.59 228.82 101.202 228.97 101.766 229.27C102.342 229.558 102.786 229.93 103.098 230.386V229H104.646V238H103.098V236.614C102.786 237.07 102.342 237.448 101.766 237.748C101.202 238.036 100.59 238.18 99.9297 238.18ZM100.164 236.758C101.052 236.758 101.784 236.446 102.36 235.822C102.936 235.198 103.224 234.424 103.224 233.5C103.224 232.576 102.936 231.802 102.36 231.178C101.784 230.554 101.052 230.242 100.164 230.242C99.2637 230.242 98.5257 230.554 97.9497 231.178C97.3737 231.802 97.0857 232.576 97.0857 233.5C97.0857 234.424 97.3737 235.198 97.9497 235.822C98.5257 236.446 99.2637 236.758 100.164 236.758ZM107.56 238V224.5H109.108V238H107.56ZM120.092 238.18C118.844 238.18 117.794 237.724 116.942 236.812C116.102 235.9 115.682 234.796 115.682 233.5C115.682 232.204 116.102 231.1 116.942 230.188C117.794 229.276 118.844 228.82 120.092 228.82C120.752 228.82 121.364 228.97 121.928 229.27C122.504 229.558 122.948 229.93 123.26 230.386V229H124.808V238H123.26V236.614C122.948 237.07 122.504 237.448 121.928 237.748C121.364 238.036 120.752 238.18 120.092 238.18ZM120.326 236.758C121.214 236.758 121.946 236.446 122.522 235.822C123.098 235.198 123.386 234.424 123.386 233.5C123.386 232.576 123.098 231.802 122.522 231.178C121.946 230.554 121.214 230.242 120.326 230.242C119.426 230.242 118.688 230.554 118.112 231.178C117.536 231.802 117.248 232.576 117.248 233.5C117.248 234.424 117.536 235.198 118.112 235.822C118.688 236.446 119.426 236.758 120.326 236.758ZM130.53 238L126.372 229H128.1L131.178 235.822L134.256 229H135.984L131.826 238H130.53ZM141.08 238.18C139.832 238.18 138.782 237.724 137.93 236.812C137.09 235.9 136.67 234.796 136.67 233.5C136.67 232.204 137.09 231.1 137.93 230.188C138.782 229.276 139.832 228.82 141.08 228.82C141.74 228.82 142.352 228.97 142.916 229.27C143.492 229.558 143.936 229.93 144.248 230.386V229H145.796V238H144.248V236.614C143.936 237.07 143.492 237.448 142.916 237.748C142.352 238.036 141.74 238.18 141.08 238.18ZM141.314 236.758C142.202 236.758 142.934 236.446 143.51 235.822C144.086 235.198 144.374 234.424 144.374 233.5C144.374 232.576 144.086 231.802 143.51 231.178C142.934 230.554 142.202 230.242 141.314 230.242C140.414 230.242 139.676 230.554 139.1 231.178C138.524 231.802 138.236 232.576 138.236 233.5C138.236 234.424 138.524 235.198 139.1 235.822C139.676 236.446 140.414 236.758 141.314 236.758ZM150.276 226.282C150.072 226.486 149.814 226.588 149.502 226.588C149.19 226.588 148.926 226.486 148.71 226.282C148.494 226.066 148.386 225.802 148.386 225.49C148.386 225.19 148.494 224.932 148.71 224.716C148.926 224.5 149.19 224.392 149.502 224.392C149.814 224.392 150.072 224.5 150.276 224.716C150.48 224.932 150.582 225.19 150.582 225.49C150.582 225.802 150.48 226.066 150.276 226.282ZM148.71 238V229H150.258V238H148.71ZM153.192 238V224.5H154.74V238H153.192ZM161.383 238.18C160.135 238.18 159.085 237.724 158.233 236.812C157.393 235.9 156.973 234.796 156.973 233.5C156.973 232.204 157.393 231.1 158.233 230.188C159.085 229.276 160.135 228.82 161.383 228.82C162.043 228.82 162.655 228.97 163.219 229.27C163.795 229.558 164.239 229.93 164.551 230.386V229H166.099V238H164.551V236.614C164.239 237.07 163.795 237.448 163.219 237.748C162.655 238.036 162.043 238.18 161.383 238.18ZM161.617 236.758C162.505 236.758 163.237 236.446 163.813 235.822C164.389 235.198 164.677 234.424 164.677 233.5C164.677 232.576 164.389 231.802 163.813 231.178C163.237 230.554 162.505 230.242 161.617 230.242C160.717 230.242 159.979 230.554 159.403 231.178C158.827 231.802 158.539 232.576 158.539 233.5C158.539 234.424 158.827 235.198 159.403 235.822C159.979 236.446 160.717 236.758 161.617 236.758ZM173.729 238.18C173.069 238.18 172.451 238.036 171.875 237.748C171.311 237.448 170.873 237.07 170.561 236.614V238H169.013V224.5H170.561V230.386C170.873 229.93 171.311 229.558 171.875 229.27C172.451 228.97 173.069 228.82 173.729 228.82C174.977 228.82 176.021 229.276 176.861 230.188C177.713 231.1 178.139 232.204 178.139 233.5C178.139 234.796 177.713 235.9 176.861 236.812C176.021 237.724 174.977 238.18 173.729 238.18ZM171.299 235.822C171.875 236.446 172.607 236.758 173.495 236.758C174.383 236.758 175.115 236.446 175.691 235.822C176.267 235.198 176.555 234.424 176.555 233.5C176.555 232.576 176.267 231.802 175.691 231.178C175.115 230.554 174.383 230.242 173.495 230.242C172.607 230.242 171.875 230.554 171.299 231.178C170.723 231.802 170.435 232.576 170.435 233.5C170.435 234.424 170.723 235.198 171.299 235.822ZM180.351 238V224.5H181.899V238H180.351ZM188.793 238.18C187.413 238.18 186.291 237.736 185.427 236.848C184.563 235.96 184.131 234.844 184.131 233.5C184.131 232.168 184.569 231.058 185.445 230.17C186.321 229.27 187.443 228.82 188.811 228.82C190.023 228.82 191.037 229.228 191.853 230.044C192.681 230.848 193.095 231.946 193.095 233.338C193.095 233.518 193.089 233.674 193.077 233.806H185.697C185.721 234.646 186.021 235.348 186.597 235.912C187.185 236.476 187.923 236.758 188.811 236.758C190.071 236.758 191.007 236.236 191.619 235.192L192.843 236.038C191.967 237.466 190.617 238.18 188.793 238.18ZM185.805 232.546H191.511C191.391 231.826 191.073 231.256 190.557 230.836C190.053 230.404 189.453 230.188 188.757 230.188C188.049 230.188 187.413 230.404 186.849 230.836C186.297 231.256 185.949 231.826 185.805 232.546ZM199.634 238V224.5H201.182V238H199.634ZM205.682 226.282C205.478 226.486 205.22 226.588 204.908 226.588C204.596 226.588 204.332 226.486 204.116 226.282C203.9 226.066 203.792 225.802 203.792 225.49C203.792 225.19 203.9 224.932 204.116 224.716C204.332 224.5 204.596 224.392 204.908 224.392C205.22 224.392 205.478 224.5 205.682 224.716C205.886 224.932 205.988 225.19 205.988 225.49C205.988 225.802 205.886 226.066 205.682 226.282ZM204.116 238V229H205.664V238H204.116ZM211.317 238.18C210.489 238.18 209.763 238.006 209.139 237.658C208.515 237.298 208.065 236.776 207.789 236.092L209.049 235.39C209.217 235.834 209.511 236.182 209.931 236.434C210.351 236.686 210.819 236.812 211.335 236.812C211.779 236.812 212.151 236.704 212.451 236.488C212.751 236.272 212.901 235.978 212.901 235.606C212.901 235.282 212.781 235.012 212.541 234.796C212.313 234.58 211.911 234.382 211.335 234.202L210.435 233.914C208.935 233.482 208.185 232.606 208.185 231.286C208.185 230.542 208.479 229.948 209.067 229.504C209.667 229.048 210.405 228.82 211.281 228.82C212.649 228.82 213.639 229.342 214.251 230.386L213.099 231.178C212.607 230.494 211.983 230.152 211.227 230.152C210.819 230.152 210.465 230.254 210.165 230.458C209.877 230.65 209.733 230.908 209.733 231.232C209.733 231.532 209.823 231.79 210.003 232.006C210.195 232.21 210.531 232.384 211.011 232.528L212.001 232.834C213.633 233.338 214.449 234.22 214.449 235.48C214.449 236.32 214.155 236.98 213.567 237.46C212.991 237.94 212.241 238.18 211.317 238.18ZM220.106 238.09C219.278 238.09 218.612 237.856 218.108 237.388C217.604 236.92 217.352 236.236 217.352 235.336V230.422H215.444V229H217.352V226.498H218.9V229H221.492V230.422H218.9V235.138C218.9 235.702 219.02 236.098 219.26 236.326C219.5 236.554 219.878 236.668 220.394 236.668C220.85 236.668 221.216 236.608 221.492 236.488V237.874C221.06 238.018 220.598 238.09 220.106 238.09ZM225.036 226.282C224.832 226.486 224.574 226.588 224.262 226.588C223.95 226.588 223.686 226.486 223.47 226.282C223.254 226.066 223.146 225.802 223.146 225.49C223.146 225.19 223.254 224.932 223.47 224.716C223.686 224.5 223.95 224.392 224.262 224.392C224.574 224.392 224.832 224.5 225.036 224.716C225.24 224.932 225.342 225.19 225.342 225.49C225.342 225.802 225.24 226.066 225.036 226.282ZM223.47 238V229H225.018V238H223.47ZM227.952 238V229H229.5V230.386C230.112 229.342 231.066 228.82 232.362 228.82C233.382 228.82 234.204 229.15 234.828 229.81C235.452 230.47 235.764 231.352 235.764 232.456V238H234.234V232.69C234.234 231.934 234.042 231.34 233.658 230.908C233.274 230.464 232.758 230.242 232.11 230.242C231.366 230.242 230.742 230.536 230.238 231.124C229.746 231.712 229.5 232.516 229.5 233.536V238H227.952ZM240.28 235.66C240.844 236.248 241.576 236.542 242.476 236.542C243.376 236.542 244.108 236.248 244.672 235.66C245.236 235.06 245.518 234.304 245.518 233.392C245.518 232.48 245.23 231.73 244.654 231.142C244.09 230.542 243.364 230.242 242.476 230.242C241.588 230.242 240.856 230.542 240.28 231.142C239.716 231.73 239.434 232.48 239.434 233.392C239.434 234.304 239.716 235.06 240.28 235.66ZM242.386 241.942C241.462 241.942 240.628 241.768 239.884 241.42C239.14 241.084 238.564 240.646 238.156 240.106L239.236 239.026C240.028 240.034 241.078 240.538 242.386 240.538C243.226 240.538 243.934 240.274 244.51 239.746C245.098 239.218 245.392 238.444 245.392 237.424V236.398C245.068 236.878 244.63 237.262 244.078 237.55C243.526 237.838 242.92 237.982 242.26 237.982C241 237.982 239.95 237.544 239.11 236.668C238.27 235.78 237.85 234.688 237.85 233.392C237.85 232.108 238.27 231.028 239.11 230.152C239.962 229.264 241.012 228.82 242.26 228.82C242.92 228.82 243.526 228.964 244.078 229.252C244.63 229.54 245.068 229.918 245.392 230.386V229H246.94V237.478C246.94 238.93 246.514 240.034 245.662 240.79C244.822 241.558 243.73 241.942 242.386 241.942ZM252.572 238.18C251.744 238.18 251.018 238.006 250.394 237.658C249.77 237.298 249.32 236.776 249.044 236.092L250.304 235.39C250.472 235.834 250.766 236.182 251.186 236.434C251.606 236.686 252.074 236.812 252.59 236.812C253.034 236.812 253.406 236.704 253.706 236.488C254.006 236.272 254.156 235.978 254.156 235.606C254.156 235.282 254.036 235.012 253.796 234.796C253.568 234.58 253.166 234.382 252.59 234.202L251.69 233.914C250.19 233.482 249.44 232.606 249.44 231.286C249.44 230.542 249.734 229.948 250.322 229.504C250.922 229.048 251.66 228.82 252.536 228.82C253.904 228.82 254.894 229.342 255.506 230.386L254.354 231.178C253.862 230.494 253.238 230.152 252.482 230.152C252.074 230.152 251.72 230.254 251.42 230.458C251.132 230.65 250.988 230.908 250.988 231.232C250.988 231.532 251.078 231.79 251.258 232.006C251.45 232.21 251.786 232.384 252.266 232.528L253.256 232.834C254.888 233.338 255.704 234.22 255.704 235.48C255.704 236.32 255.41 236.98 254.822 237.46C254.246 237.94 253.496 238.18 252.572 238.18Z" fill="#191919" fill-opacity="0.6"/>
<path d="M343.284 238.18C341.952 238.18 340.866 237.736 340.026 236.848C339.186 235.948 338.766 234.79 338.766 233.374V229.81C338.766 228.394 339.186 227.242 340.026 226.354C340.878 225.454 341.964 225.004 343.284 225.004C344.604 225.004 345.69 225.454 346.542 226.354C347.394 227.254 347.82 228.406 347.82 229.81V233.374C347.82 234.79 347.394 235.948 346.542 236.848C345.69 237.736 344.604 238.18 343.284 238.18ZM343.284 236.668C344.172 236.668 344.892 236.374 345.444 235.786C345.996 235.198 346.272 234.394 346.272 233.374V229.81C346.272 228.79 345.996 227.986 345.444 227.398C344.892 226.81 344.172 226.516 343.284 226.516C342.408 226.516 341.694 226.81 341.142 227.398C340.59 227.986 340.314 228.79 340.314 229.81V233.374C340.314 234.394 340.59 235.198 341.142 235.786C341.694 236.374 342.408 236.668 343.284 236.668Z" fill="#191919"/>
<rect x="42.3809" y="260.595" width="13.8125" height="13.8125" rx="1.38125" fill="#1ED6FF"/>
<path d="M72.909 274V262.804H68.931V261.22H78.525V262.804H74.547V274H72.909ZM82.7274 274.18C81.3714 274.18 80.2434 273.73 79.3434 272.83C78.4554 271.918 78.0114 270.808 78.0114 269.5C78.0114 268.192 78.4554 267.088 79.3434 266.188C80.2434 265.276 81.3714 264.82 82.7274 264.82C84.0714 264.82 85.1874 265.276 86.0754 266.188C86.9754 267.088 87.4254 268.192 87.4254 269.5C87.4254 270.808 86.9754 271.918 86.0754 272.83C85.1874 273.73 84.0714 274.18 82.7274 274.18ZM80.4594 271.804C81.0474 272.428 81.8034 272.74 82.7274 272.74C83.6514 272.74 84.4014 272.428 84.9774 271.804C85.5534 271.18 85.8414 270.412 85.8414 269.5C85.8414 268.588 85.5534 267.82 84.9774 267.196C84.4014 266.572 83.6514 266.26 82.7274 266.26C81.8034 266.26 81.0474 266.572 80.4594 267.196C79.8834 267.82 79.5954 268.588 79.5954 269.5C79.5954 270.412 79.8834 271.18 80.4594 271.804ZM92.9813 274.09C92.1533 274.09 91.4873 273.856 90.9833 273.388C90.4793 272.92 90.2273 272.236 90.2273 271.336V266.422H88.3193V265H90.2273V262.498H91.7753V265H94.3673V266.422H91.7753V271.138C91.7753 271.702 91.8953 272.098 92.1353 272.326C92.3753 272.554 92.7533 272.668 93.2693 272.668C93.7253 272.668 94.0913 272.608 94.3673 272.488V273.874C93.9353 274.018 93.4733 274.09 92.9813 274.09ZM99.9297 274.18C98.6817 274.18 97.6317 273.724 96.7797 272.812C95.9397 271.9 95.5197 270.796 95.5197 269.5C95.5197 268.204 95.9397 267.1 96.7797 266.188C97.6317 265.276 98.6817 264.82 99.9297 264.82C100.59 264.82 101.202 264.97 101.766 265.27C102.342 265.558 102.786 265.93 103.098 266.386V265H104.646V274H103.098V272.614C102.786 273.07 102.342 273.448 101.766 273.748C101.202 274.036 100.59 274.18 99.9297 274.18ZM100.164 272.758C101.052 272.758 101.784 272.446 102.36 271.822C102.936 271.198 103.224 270.424 103.224 269.5C103.224 268.576 102.936 267.802 102.36 267.178C101.784 266.554 101.052 266.242 100.164 266.242C99.2637 266.242 98.5257 266.554 97.9497 267.178C97.3737 267.802 97.0857 268.576 97.0857 269.5C97.0857 270.424 97.3737 271.198 97.9497 271.822C98.5257 272.446 99.2637 272.758 100.164 272.758ZM107.56 274V260.5H109.108V274H107.56ZM119.102 274.18C118.274 274.18 117.548 274.006 116.924 273.658C116.3 273.298 115.85 272.776 115.574 272.092L116.834 271.39C117.002 271.834 117.296 272.182 117.716 272.434C118.136 272.686 118.604 272.812 119.12 272.812C119.564 272.812 119.936 272.704 120.236 272.488C120.536 272.272 120.686 271.978 120.686 271.606C120.686 271.282 120.566 271.012 120.326 270.796C120.098 270.58 119.696 270.382 119.12 270.202L118.22 269.914C116.72 269.482 115.97 268.606 115.97 267.286C115.97 266.542 116.264 265.948 116.852 265.504C117.452 265.048 118.19 264.82 119.066 264.82C120.434 264.82 121.424 265.342 122.036 266.386L120.884 267.178C120.392 266.494 119.768 266.152 119.012 266.152C118.604 266.152 118.25 266.254 117.95 266.458C117.662 266.65 117.518 266.908 117.518 267.232C117.518 267.532 117.608 267.79 117.788 268.006C117.98 268.21 118.316 268.384 118.796 268.528L119.786 268.834C121.418 269.338 122.234 270.22 122.234 271.48C122.234 272.32 121.94 272.98 121.352 273.46C120.776 273.94 120.026 274.18 119.102 274.18ZM128.483 274.18C127.127 274.18 125.999 273.73 125.099 272.83C124.211 271.918 123.767 270.808 123.767 269.5C123.767 268.192 124.211 267.088 125.099 266.188C125.999 265.276 127.127 264.82 128.483 264.82C129.827 264.82 130.943 265.276 131.831 266.188C132.731 267.088 133.181 268.192 133.181 269.5C133.181 270.808 132.731 271.918 131.831 272.83C130.943 273.73 129.827 274.18 128.483 274.18ZM126.215 271.804C126.803 272.428 127.559 272.74 128.483 272.74C129.407 272.74 130.157 272.428 130.733 271.804C131.309 271.18 131.597 270.412 131.597 269.5C131.597 268.588 131.309 267.82 130.733 267.196C130.157 266.572 129.407 266.26 128.483 266.26C127.559 266.26 126.803 266.572 126.215 267.196C125.639 267.82 125.351 268.588 125.351 269.5C125.351 270.412 125.639 271.18 126.215 271.804ZM135.403 274V260.5H136.951V274H135.403ZM143.594 274.18C142.346 274.18 141.296 273.724 140.444 272.812C139.604 271.9 139.184 270.796 139.184 269.5C139.184 268.204 139.604 267.1 140.444 266.188C141.296 265.276 142.346 264.82 143.594 264.82C144.254 264.82 144.866 264.97 145.43 265.27C146.006 265.558 146.45 265.93 146.762 266.386V260.5H148.31V274H146.762V272.614C146.45 273.07 146.006 273.448 145.43 273.748C144.866 274.036 144.254 274.18 143.594 274.18ZM143.828 272.758C144.716 272.758 145.448 272.446 146.024 271.822C146.6 271.198 146.888 270.424 146.888 269.5C146.888 268.576 146.6 267.802 146.024 267.178C145.448 266.554 144.716 266.242 143.828 266.242C142.928 266.242 142.19 266.554 141.614 267.178C141.038 267.802 140.75 268.576 140.75 269.5C140.75 270.424 141.038 271.198 141.614 271.822C142.19 272.446 142.928 272.758 143.828 272.758ZM150.936 269.734V268.186H155.526V269.734H150.936ZM162.163 274.18C160.807 274.18 159.679 273.73 158.779 272.83C157.891 271.918 157.447 270.808 157.447 269.5C157.447 268.192 157.891 267.088 158.779 266.188C159.679 265.276 160.807 264.82 162.163 264.82C163.507 264.82 164.623 265.276 165.511 266.188C166.411 267.088 166.861 268.192 166.861 269.5C166.861 270.808 166.411 271.918 165.511 272.83C164.623 273.73 163.507 274.18 162.163 274.18ZM159.895 271.804C160.483 272.428 161.239 272.74 162.163 272.74C163.087 272.74 163.837 272.428 164.413 271.804C164.989 271.18 165.277 270.412 165.277 269.5C165.277 268.588 164.989 267.82 164.413 267.196C163.837 266.572 163.087 266.26 162.163 266.26C161.239 266.26 160.483 266.572 159.895 267.196C159.319 267.82 159.031 268.588 159.031 269.5C159.031 270.412 159.319 271.18 159.895 271.804ZM172.269 274.18C171.285 274.18 170.487 273.85 169.875 273.19C169.263 272.518 168.957 271.63 168.957 270.526V265H170.505V270.292C170.505 271.048 170.685 271.648 171.045 272.092C171.417 272.536 171.915 272.758 172.539 272.758C173.259 272.758 173.853 272.464 174.321 271.876C174.801 271.276 175.041 270.472 175.041 269.464V265H176.589V274H175.041V272.614C174.453 273.658 173.529 274.18 172.269 274.18ZM182.999 274.09C182.171 274.09 181.505 273.856 181.001 273.388C180.497 272.92 180.245 272.236 180.245 271.336V266.422H178.337V265H180.245V262.498H181.793V265H184.385V266.422H181.793V271.138C181.793 271.702 181.913 272.098 182.153 272.326C182.393 272.554 182.771 272.668 183.287 272.668C183.743 272.668 184.109 272.608 184.385 272.488V273.874C183.953 274.018 183.491 274.09 182.999 274.09ZM190.704 274V260.5H192.252V274H190.704ZM196.753 262.282C196.549 262.486 196.291 262.588 195.979 262.588C195.667 262.588 195.403 262.486 195.187 262.282C194.971 262.066 194.863 261.802 194.863 261.49C194.863 261.19 194.971 260.932 195.187 260.716C195.403 260.5 195.667 260.392 195.979 260.392C196.291 260.392 196.549 260.5 196.753 260.716C196.957 260.932 197.059 261.19 197.059 261.49C197.059 261.802 196.957 262.066 196.753 262.282ZM195.187 274V265H196.735V274H195.187ZM202.387 274.18C201.559 274.18 200.833 274.006 200.209 273.658C199.585 273.298 199.135 272.776 198.859 272.092L200.119 271.39C200.287 271.834 200.581 272.182 201.001 272.434C201.421 272.686 201.889 272.812 202.405 272.812C202.849 272.812 203.221 272.704 203.521 272.488C203.821 272.272 203.971 271.978 203.971 271.606C203.971 271.282 203.851 271.012 203.611 270.796C203.383 270.58 202.981 270.382 202.405 270.202L201.505 269.914C200.005 269.482 199.255 268.606 199.255 267.286C199.255 266.542 199.549 265.948 200.137 265.504C200.737 265.048 201.475 264.82 202.351 264.82C203.719 264.82 204.709 265.342 205.321 266.386L204.169 267.178C203.677 266.494 203.053 266.152 202.297 266.152C201.889 266.152 201.535 266.254 201.235 266.458C200.947 266.65 200.803 266.908 200.803 267.232C200.803 267.532 200.893 267.79 201.073 268.006C201.265 268.21 201.601 268.384 202.081 268.528L203.071 268.834C204.703 269.338 205.519 270.22 205.519 271.48C205.519 272.32 205.225 272.98 204.637 273.46C204.061 273.94 203.311 274.18 202.387 274.18ZM211.177 274.09C210.349 274.09 209.683 273.856 209.179 273.388C208.675 272.92 208.423 272.236 208.423 271.336V266.422H206.515V265H208.423V262.498H209.971V265H212.563V266.422H209.971V271.138C209.971 271.702 210.091 272.098 210.331 272.326C210.571 272.554 210.949 272.668 211.465 272.668C211.921 272.668 212.287 272.608 212.563 272.488V273.874C212.131 274.018 211.669 274.09 211.177 274.09ZM216.106 262.282C215.902 262.486 215.644 262.588 215.332 262.588C215.02 262.588 214.756 262.486 214.54 262.282C214.324 262.066 214.216 261.802 214.216 261.49C214.216 261.19 214.324 260.932 214.54 260.716C214.756 260.5 215.02 260.392 215.332 260.392C215.644 260.392 215.902 260.5 216.106 260.716C216.31 260.932 216.412 261.19 216.412 261.49C216.412 261.802 216.31 262.066 216.106 262.282ZM214.54 274V265H216.088V274H214.54ZM219.022 274V265H220.57V266.386C221.182 265.342 222.136 264.82 223.432 264.82C224.452 264.82 225.274 265.15 225.898 265.81C226.522 266.47 226.834 267.352 226.834 268.456V274H225.304V268.69C225.304 267.934 225.112 267.34 224.728 266.908C224.344 266.464 223.828 266.242 223.18 266.242C222.436 266.242 221.812 266.536 221.308 267.124C220.816 267.712 220.57 268.516 220.57 269.536V274H219.022ZM231.35 271.66C231.914 272.248 232.646 272.542 233.546 272.542C234.446 272.542 235.178 272.248 235.742 271.66C236.306 271.06 236.588 270.304 236.588 269.392C236.588 268.48 236.3 267.73 235.724 267.142C235.16 266.542 234.434 266.242 233.546 266.242C232.658 266.242 231.926 266.542 231.35 267.142C230.786 267.73 230.504 268.48 230.504 269.392C230.504 270.304 230.786 271.06 231.35 271.66ZM233.456 277.942C232.532 277.942 231.698 277.768 230.954 277.42C230.21 277.084 229.634 276.646 229.226 276.106L230.306 275.026C231.098 276.034 232.148 276.538 233.456 276.538C234.296 276.538 235.004 276.274 235.58 275.746C236.168 275.218 236.462 274.444 236.462 273.424V272.398C236.138 272.878 235.7 273.262 235.148 273.55C234.596 273.838 233.99 273.982 233.33 273.982C232.07 273.982 231.02 273.544 230.18 272.668C229.34 271.78 228.92 270.688 228.92 269.392C228.92 268.108 229.34 267.028 230.18 266.152C231.032 265.264 232.082 264.82 233.33 264.82C233.99 264.82 234.596 264.964 235.148 265.252C235.7 265.54 236.138 265.918 236.462 266.386V265H238.01V273.478C238.01 274.93 237.584 276.034 236.732 276.79C235.892 277.558 234.8 277.942 233.456 277.942ZM243.643 274.18C242.815 274.18 242.089 274.006 241.465 273.658C240.841 273.298 240.391 272.776 240.115 272.092L241.375 271.39C241.543 271.834 241.837 272.182 242.257 272.434C242.677 272.686 243.145 272.812 243.661 272.812C244.105 272.812 244.477 272.704 244.777 272.488C245.077 272.272 245.227 271.978 245.227 271.606C245.227 271.282 245.107 271.012 244.867 270.796C244.639 270.58 244.237 270.382 243.661 270.202L242.761 269.914C241.261 269.482 240.511 268.606 240.511 267.286C240.511 266.542 240.805 265.948 241.393 265.504C241.993 265.048 242.731 264.82 243.607 264.82C244.975 264.82 245.965 265.342 246.577 266.386L245.425 267.178C244.933 266.494 244.309 266.152 243.553 266.152C243.145 266.152 242.791 266.254 242.491 266.458C242.203 266.65 242.059 266.908 242.059 267.232C242.059 267.532 242.149 267.79 242.329 268.006C242.521 268.21 242.857 268.384 243.337 268.528L244.327 268.834C245.959 269.338 246.775 270.22 246.775 271.48C246.775 272.32 246.481 272.98 245.893 273.46C245.317 273.94 244.567 274.18 243.643 274.18Z" fill="#191919" fill-opacity="0.6"/>
<path d="M344.133 274.205C342.801 274.205 341.715 273.761 340.875 272.873C340.035 271.973 339.615 270.815 339.615 269.399V265.835C339.615 264.419 340.035 263.267 340.875 262.379C341.727 261.479 342.813 261.029 344.133 261.029C345.453 261.029 346.539 261.479 347.391 262.379C348.243 263.279 348.669 264.431 348.669 265.835V269.399C348.669 270.815 348.243 271.973 347.391 272.873C346.539 273.761 345.453 274.205 344.133 274.205ZM344.133 272.693C345.021 272.693 345.741 272.399 346.293 271.811C346.845 271.223 347.121 270.419 347.121 269.399V265.835C347.121 264.815 346.845 264.011 346.293 263.423C345.741 262.835 345.021 262.541 344.133 262.541C343.257 262.541 342.543 262.835 341.991 263.423C341.439 264.011 341.163 264.815 341.163 265.835V269.399C341.163 270.419 341.439 271.223 341.991 271.811C342.543 272.399 343.257 272.693 344.133 272.693Z" fill="#191919"/>
<path d="M296 116C296 135.812 289.463 155.071 277.402 170.789C265.341 186.507 248.431 197.806 229.294 202.933C210.157 208.061 189.862 206.731 171.558 199.149C153.255 191.567 137.964 178.158 128.058 161L143.646 152C151.571 165.726 163.804 176.454 178.447 182.519C193.09 188.585 209.325 189.649 224.635 185.547C239.945 181.444 253.473 172.405 263.121 159.831C272.77 147.256 278 131.85 278 116H296Z" fill="#CBCBCB"/>
<path d="M128.058 161C119.158 145.584 115.029 127.876 116.193 110.114C117.357 92.3515 123.762 75.3334 134.598 61.2115C145.434 47.0895 160.215 36.498 177.07 30.7763C193.926 25.0546 212.1 24.4596 229.294 29.0667L224.635 46.4533C210.88 42.7677 196.341 43.2437 182.856 47.821C169.372 52.3984 157.547 60.8716 148.879 72.1692C140.21 83.4667 135.086 97.0812 134.154 111.291C133.223 125.501 136.526 139.668 143.646 152L128.058 161Z" fill="#CBCBCB"/>
<path d="M229.294 29.0667C244.554 33.1556 258.469 41.1893 269.64 52.3604C280.811 63.5315 288.844 77.4463 292.933 92.7063L275.547 97.365C272.276 85.1571 265.849 74.0252 256.912 65.0883C247.975 56.1514 236.843 49.7245 224.635 46.4533L229.294 29.0667Z" fill="#CBCBCB"/>
<path d="M292.933 92.7063C294.969 100.304 296 108.135 296 116H278C278 109.708 277.175 103.443 275.547 97.365L292.933 92.7063Z" fill="#CBCBCB"/>
<path d="M292.933 92.7063C294.969 100.304 296 108.135 296 116H278C278 109.708 277.175 103.443 275.547 97.365L292.933 92.7063Z" fill="#CBCBCB"/>
<path d="M292.933 92.7063C294.969 100.304 296 108.135 296 116H278C278 109.708 277.175 103.443 275.547 97.365L292.933 92.7063Z" fill="#CBCBCB"/>
<path d="M292.933 92.7063C294.969 100.304 296 108.135 296 116H278C278 109.708 277.175 103.443 275.547 97.365L292.933 92.7063Z" fill="#CBCBCB"/>
<path d="M292.933 92.7063C294.969 100.304 296 108.135 296 116H278C278 109.708 277.175 103.443 275.547 97.365L292.933 92.7063Z" fill="#CBCBCB"/>
<path d="M292.933 92.7063C294.969 100.304 296 108.135 296 116H278C278 109.708 277.175 103.443 275.547 97.365L292.933 92.7063Z" fill="#CBCBCB"/>
<path d="M205.98 119.451C203.203 119.451 200.939 118.526 199.188 116.674C197.436 114.798 196.561 112.384 196.561 109.431V102.001C196.561 99.0486 197.436 96.6468 199.188 94.7954C200.964 92.9189 203.228 91.9807 205.98 91.9807C208.732 91.9807 210.997 92.9189 212.773 94.7954C214.549 96.6718 215.437 99.0736 215.437 102.001V109.431C215.437 112.384 214.549 114.798 212.773 116.674C210.997 118.526 208.732 119.451 205.98 119.451ZM205.98 116.299C207.832 116.299 209.333 115.686 210.484 114.46C211.635 113.234 212.21 111.558 212.21 109.431V102.001C212.21 99.8742 211.635 98.1979 210.484 96.972C209.333 95.7461 207.832 95.1331 205.98 95.1331C204.154 95.1331 202.665 95.7461 201.514 96.972C200.364 98.1979 199.788 99.8742 199.788 102.001V109.431C199.788 111.558 200.364 113.234 201.514 114.46C202.665 115.686 204.154 116.299 205.98 116.299Z" fill="#191919"/>
<path d="M162.191 146.076V135.864H158.562V134.419H167.314V135.864H163.685V146.076H162.191ZM171.147 146.24C169.91 146.24 168.881 145.83 168.06 145.009C167.25 144.177 166.845 143.165 166.845 141.972C166.845 140.778 167.25 139.771 168.06 138.95C168.881 138.119 169.91 137.703 171.147 137.703C172.373 137.703 173.391 138.119 174.201 138.95C175.022 139.771 175.432 140.778 175.432 141.972C175.432 143.165 175.022 144.177 174.201 145.009C173.391 145.83 172.373 146.24 171.147 146.24ZM169.078 144.073C169.614 144.642 170.304 144.927 171.147 144.927C171.99 144.927 172.674 144.642 173.199 144.073C173.725 143.504 173.987 142.803 173.987 141.972C173.987 141.14 173.725 140.439 173.199 139.87C172.674 139.301 171.99 139.016 171.147 139.016C170.304 139.016 169.614 139.301 169.078 139.87C168.553 140.439 168.29 141.14 168.29 141.972C168.29 142.803 168.553 143.504 169.078 144.073ZM180.5 146.158C179.745 146.158 179.137 145.945 178.677 145.518C178.218 145.091 177.988 144.467 177.988 143.646V139.164H176.247V137.867H177.988V135.585H179.4V137.867H181.764V139.164H179.4V143.466C179.4 143.98 179.509 144.341 179.728 144.549C179.947 144.757 180.292 144.861 180.763 144.861C181.178 144.861 181.512 144.806 181.764 144.697V145.961C181.37 146.093 180.949 146.158 180.5 146.158ZM186.838 146.24C185.699 146.24 184.742 145.824 183.965 144.993C183.198 144.161 182.815 143.154 182.815 141.972C182.815 140.789 183.198 139.782 183.965 138.95C184.742 138.119 185.699 137.703 186.838 137.703C187.44 137.703 187.998 137.839 188.512 138.113C189.038 138.376 189.443 138.715 189.727 139.131V137.867H191.139V146.076H189.727V144.812C189.443 145.228 189.038 145.573 188.512 145.846C187.998 146.109 187.44 146.24 186.838 146.24ZM187.051 144.943C187.861 144.943 188.529 144.659 189.054 144.09C189.58 143.52 189.842 142.814 189.842 141.972C189.842 141.129 189.58 140.423 189.054 139.854C188.529 139.284 187.861 139 187.051 139C186.23 139 185.557 139.284 185.032 139.854C184.506 140.423 184.244 141.129 184.244 141.972C184.244 142.814 184.506 143.52 185.032 144.09C185.557 144.659 186.23 144.943 187.051 144.943ZM193.797 146.076V133.762H195.209V146.076H193.797ZM201.846 146.076V133.762H203.258V146.076H201.846ZM207.363 135.388C207.177 135.574 206.942 135.667 206.657 135.667C206.373 135.667 206.132 135.574 205.935 135.388C205.738 135.191 205.639 134.95 205.639 134.665C205.639 134.392 205.738 134.156 205.935 133.959C206.132 133.762 206.373 133.664 206.657 133.664C206.942 133.664 207.177 133.762 207.363 133.959C207.549 134.156 207.643 134.392 207.643 134.665C207.643 134.95 207.549 135.191 207.363 135.388ZM205.935 146.076V137.867H207.347V146.076H205.935ZM212.503 146.24C211.748 146.24 211.085 146.082 210.516 145.764C209.947 145.436 209.537 144.96 209.285 144.336L210.434 143.695C210.587 144.1 210.855 144.418 211.239 144.648C211.622 144.878 212.049 144.993 212.519 144.993C212.924 144.993 213.264 144.894 213.537 144.697C213.811 144.5 213.948 144.232 213.948 143.892C213.948 143.597 213.838 143.351 213.619 143.154C213.411 142.957 213.045 142.776 212.519 142.612L211.698 142.349C210.33 141.955 209.646 141.156 209.646 139.952C209.646 139.273 209.914 138.732 210.45 138.327C210.998 137.911 211.671 137.703 212.47 137.703C213.718 137.703 214.621 138.179 215.179 139.131L214.128 139.854C213.679 139.23 213.11 138.918 212.421 138.918C212.049 138.918 211.726 139.011 211.452 139.197C211.189 139.372 211.058 139.607 211.058 139.903C211.058 140.176 211.14 140.412 211.304 140.609C211.479 140.795 211.786 140.954 212.224 141.085L213.127 141.364C214.615 141.824 215.36 142.628 215.36 143.778C215.36 144.544 215.091 145.146 214.555 145.584C214.03 146.021 213.346 146.24 212.503 146.24ZM220.52 146.158C219.765 146.158 219.157 145.945 218.698 145.518C218.238 145.091 218.008 144.467 218.008 143.646V139.164H216.268V137.867H218.008V135.585H219.42V137.867H221.784V139.164H219.42V143.466C219.42 143.98 219.53 144.341 219.749 144.549C219.967 144.757 220.312 144.861 220.783 144.861C221.199 144.861 221.533 144.806 221.784 144.697V145.961C221.39 146.093 220.969 146.158 220.52 146.158ZM225.017 135.388C224.831 135.574 224.595 135.667 224.311 135.667C224.026 135.667 223.785 135.574 223.588 135.388C223.391 135.191 223.293 134.95 223.293 134.665C223.293 134.392 223.391 134.156 223.588 133.959C223.785 133.762 224.026 133.664 224.311 133.664C224.595 133.664 224.831 133.762 225.017 133.959C225.203 134.156 225.296 134.392 225.296 134.665C225.296 134.95 225.203 135.191 225.017 135.388ZM223.588 146.076V137.867H225V146.076H223.588ZM227.677 146.076V137.867H229.089V139.131C229.647 138.179 230.517 137.703 231.699 137.703C232.63 137.703 233.38 138.004 233.949 138.606C234.518 139.208 234.803 140.012 234.803 141.019V146.076H233.407V141.233C233.407 140.543 233.232 140.001 232.882 139.607C232.531 139.202 232.061 139 231.47 139C230.791 139 230.222 139.268 229.762 139.804C229.313 140.341 229.089 141.074 229.089 142.004V146.076H227.677ZM238.921 143.942C239.436 144.478 240.104 144.746 240.924 144.746C241.745 144.746 242.413 144.478 242.928 143.942C243.442 143.394 243.699 142.705 243.699 141.873C243.699 141.041 243.437 140.357 242.911 139.821C242.397 139.273 241.734 139 240.924 139C240.114 139 239.447 139.273 238.921 139.821C238.407 140.357 238.15 141.041 238.15 141.873C238.15 142.705 238.407 143.394 238.921 143.942ZM240.842 149.672C240 149.672 239.239 149.513 238.56 149.196C237.882 148.889 237.356 148.49 236.984 147.997L237.969 147.012C238.692 147.931 239.649 148.391 240.842 148.391C241.609 148.391 242.254 148.15 242.78 147.669C243.316 147.187 243.584 146.481 243.584 145.551V144.615C243.289 145.053 242.889 145.403 242.386 145.666C241.882 145.928 241.329 146.06 240.727 146.06C239.578 146.06 238.62 145.66 237.854 144.861C237.088 144.051 236.705 143.055 236.705 141.873C236.705 140.702 237.088 139.717 237.854 138.918C238.631 138.108 239.589 137.703 240.727 137.703C241.329 137.703 241.882 137.834 242.386 138.097C242.889 138.359 243.289 138.704 243.584 139.131V137.867H244.996V145.6C244.996 146.924 244.608 147.931 243.831 148.621C243.064 149.322 242.068 149.672 240.842 149.672ZM250.134 146.24C249.379 146.24 248.717 146.082 248.148 145.764C247.578 145.436 247.168 144.96 246.916 144.336L248.065 143.695C248.219 144.1 248.487 144.418 248.87 144.648C249.253 144.878 249.68 144.993 250.151 144.993C250.556 144.993 250.895 144.894 251.169 144.697C251.442 144.5 251.579 144.232 251.579 143.892C251.579 143.597 251.47 143.351 251.251 143.154C251.043 142.957 250.676 142.776 250.151 142.612L249.33 142.349C247.961 141.955 247.277 141.156 247.277 139.952C247.277 139.273 247.546 138.732 248.082 138.327C248.629 137.911 249.302 137.703 250.101 137.703C251.349 137.703 252.252 138.179 252.81 139.131L251.76 139.854C251.311 139.23 250.742 138.918 250.052 138.918C249.68 138.918 249.357 139.011 249.083 139.197C248.821 139.372 248.689 139.607 248.689 139.903C248.689 140.176 248.771 140.412 248.936 140.609C249.111 140.795 249.417 140.954 249.855 141.085L250.758 141.364C252.247 141.824 252.991 142.628 252.991 143.778C252.991 144.544 252.723 145.146 252.187 145.584C251.661 146.021 250.977 146.24 250.134 146.24Z" fill="#191919" fill-opacity="0.6"/>
<defs>
<filter id="filter0_d_6674_46327" x="0" y="0" width="396" height="316" filterUnits="userSpaceOnUse" color-interpolation-filters="sRGB">
<feFlood flood-opacity="0" result="BackgroundImageFix"/>
<feColorMatrix in="SourceAlpha" type="matrix" values="0 0 0 0 0 0 0 0 0 0 0 0 0 0 0 0 0 0 127 0" result="hardAlpha"/>
<feOffset dy="4"/>
<feGaussianBlur stdDeviation="4"/>
<feComposite in2="hardAlpha" operator="out"/>
<feColorMatrix type="matrix" values="0 0 0 0 0 0 0 0 0 0 0 0 0 0 0 0 0 0 0.02 0"/>
<feBlend mode="normal" in2="BackgroundImageFix" result="effect1_dropShadow_6674_46327"/>
<feBlend mode="normal" in="SourceGraphic" in2="effect1_dropShadow_6674_46327" result="shape"/>
</filter>
</defs>
</svg>
