<svg width="396" height="316" viewBox="0 0 396 316" fill="none" xmlns="http://www.w3.org/2000/svg">
<g filter="url(#filter0_d_6674_46301)">
<rect x="8" y="4" width="380" height="300" rx="16" fill="white"/>
</g>
<path d="M296 116C296 135.812 289.463 155.071 277.402 170.789C265.341 186.507 248.431 197.806 229.294 202.933C210.157 208.061 189.862 206.731 171.558 199.149C153.255 191.567 137.964 178.158 128.058 161L143.646 152C151.571 165.726 163.804 176.454 178.447 182.519C193.09 188.585 209.325 189.649 224.635 185.547C239.945 181.444 253.473 172.405 263.121 159.831C272.77 147.256 278 131.85 278 116H296Z" fill="#CBCBCB"/>
<path d="M128.058 161C119.158 145.584 115.029 127.876 116.193 110.114C117.357 92.3515 123.762 75.3334 134.598 61.2115C145.434 47.0895 160.215 36.498 177.07 30.7763C193.926 25.0546 212.1 24.4596 229.294 29.0667L224.635 46.4533C210.88 42.7677 196.341 43.2437 182.856 47.821C169.372 52.3984 157.547 60.8716 148.879 72.1692C140.21 83.4667 135.086 97.0812 134.154 111.291C133.223 125.501 136.526 139.668 143.646 152L128.058 161Z" fill="#CBCBCB"/>
<path d="M229.294 29.0667C244.554 33.1556 258.469 41.1893 269.64 52.3604C280.811 63.5315 288.844 77.4463 292.933 92.7063L275.547 97.365C272.276 85.1571 265.849 74.0252 256.912 65.0883C247.975 56.1514 236.843 49.7245 224.635 46.4533L229.294 29.0667Z" fill="#CBCBCB"/>
<path d="M292.933 92.7063C294.969 100.304 296 108.135 296 116H278C278 109.708 277.175 103.443 275.547 97.365L292.933 92.7063Z" fill="#CBCBCB"/>
<path d="M292.933 92.7063C294.969 100.304 296 108.135 296 116H278C278 109.708 277.175 103.443 275.547 97.365L292.933 92.7063Z" fill="#CBCBCB"/>
<path d="M292.933 92.7063C294.969 100.304 296 108.135 296 116H278C278 109.708 277.175 103.443 275.547 97.365L292.933 92.7063Z" fill="#CBCBCB"/>
<path d="M292.933 92.7063C294.969 100.304 296 108.135 296 116H278C278 109.708 277.175 103.443 275.547 97.365L292.933 92.7063Z" fill="#CBCBCB"/>
<path d="M292.933 92.7063C294.969 100.304 296 108.135 296 116H278C278 109.708 277.175 103.443 275.547 97.365L292.933 92.7063Z" fill="#CBCBCB"/>
<path d="M292.933 92.7063C294.969 100.304 296 108.135 296 116H278C278 109.708 277.175 103.443 275.547 97.365L292.933 92.7063Z" fill="#CBCBCB"/>
<path d="M205.98 119.451C203.203 119.451 200.939 118.526 199.188 116.674C197.436 114.798 196.561 112.384 196.561 109.431V102.001C196.561 99.0486 197.436 96.6468 199.188 94.7954C200.964 92.9189 203.228 91.9807 205.98 91.9807C208.732 91.9807 210.997 92.9189 212.773 94.7954C214.549 96.6718 215.437 99.0736 215.437 102.001V109.431C215.437 112.384 214.549 114.798 212.773 116.674C210.997 118.526 208.732 119.451 205.98 119.451ZM205.98 116.299C207.832 116.299 209.333 115.686 210.484 114.46C211.635 113.234 212.21 111.558 212.21 109.431V102.001C212.21 99.8742 211.635 98.1979 210.484 96.972C209.333 95.7461 207.832 95.1331 205.98 95.1331C204.154 95.1331 202.665 95.7461 201.514 96.972C200.364 98.1979 199.788 99.8742 199.788 102.001V109.431C199.788 111.558 200.364 113.234 201.514 114.46C202.665 115.686 204.154 116.299 205.98 116.299Z" fill="#191919"/>
<path d="M170.336 146.076V135.864H166.708V134.419H175.459V135.864H171.83V146.076H170.336ZM179.292 146.24C178.055 146.24 177.026 145.83 176.205 145.009C175.395 144.177 174.99 143.165 174.99 141.972C174.99 140.778 175.395 139.771 176.205 138.95C177.026 138.119 178.055 137.703 179.292 137.703C180.518 137.703 181.536 138.119 182.346 138.95C183.167 139.771 183.577 140.778 183.577 141.972C183.577 143.165 183.167 144.177 182.346 145.009C181.536 145.83 180.518 146.24 179.292 146.24ZM177.223 144.073C177.76 144.642 178.449 144.927 179.292 144.927C180.135 144.927 180.819 144.642 181.344 144.073C181.87 143.504 182.132 142.803 182.132 141.972C182.132 141.14 181.87 140.439 181.344 139.87C180.819 139.301 180.135 139.016 179.292 139.016C178.449 139.016 177.76 139.301 177.223 139.87C176.698 140.439 176.435 141.14 176.435 141.972C176.435 142.803 176.698 143.504 177.223 144.073ZM188.645 146.158C187.89 146.158 187.282 145.945 186.823 145.518C186.363 145.091 186.133 144.467 186.133 143.646V139.164H184.393V137.867H186.133V135.585H187.545V137.867H189.909V139.164H187.545V143.466C187.545 143.98 187.654 144.341 187.873 144.549C188.092 144.757 188.437 144.861 188.908 144.861C189.324 144.861 189.657 144.806 189.909 144.697V145.961C189.515 146.093 189.094 146.158 188.645 146.158ZM194.983 146.24C193.845 146.24 192.887 145.824 192.11 144.993C191.344 144.161 190.96 143.154 190.96 141.972C190.96 140.789 191.344 139.782 192.11 138.95C192.887 138.119 193.845 137.703 194.983 137.703C195.585 137.703 196.143 137.839 196.658 138.113C197.183 138.376 197.588 138.715 197.873 139.131V137.867H199.285V146.076H197.873V144.812C197.588 145.228 197.183 145.573 196.658 145.846C196.143 146.109 195.585 146.24 194.983 146.24ZM195.196 144.943C196.006 144.943 196.674 144.659 197.199 144.09C197.725 143.52 197.988 142.814 197.988 141.972C197.988 141.129 197.725 140.423 197.199 139.854C196.674 139.284 196.006 139 195.196 139C194.375 139 193.702 139.284 193.177 139.854C192.652 140.423 192.389 141.129 192.389 141.972C192.389 142.814 192.652 143.52 193.177 144.09C193.702 144.659 194.375 144.943 195.196 144.943ZM201.943 146.076V133.762H203.355V146.076H201.943ZM212.898 146.24C212 146.24 211.272 145.939 210.714 145.337C210.156 144.724 209.877 143.914 209.877 142.907V137.867H211.289V142.694C211.289 143.384 211.453 143.931 211.781 144.336C212.12 144.741 212.575 144.943 213.144 144.943C213.801 144.943 214.342 144.675 214.769 144.139C215.207 143.591 215.426 142.858 215.426 141.939V137.867H216.838V146.076H215.426V144.812C214.89 145.764 214.047 146.24 212.898 146.24ZM219.5 146.076V137.867H220.912V139.131C221.47 138.179 222.34 137.703 223.522 137.703C224.453 137.703 225.202 138.004 225.771 138.606C226.341 139.208 226.625 140.012 226.625 141.019V146.076H225.23V141.233C225.23 140.543 225.055 140.001 224.704 139.607C224.354 139.202 223.883 139 223.292 139C222.614 139 222.044 139.268 221.585 139.804C221.136 140.341 220.912 141.074 220.912 142.004V146.076H219.5ZM230.596 135.388C230.41 135.574 230.175 135.667 229.89 135.667C229.606 135.667 229.365 135.574 229.168 135.388C228.971 135.191 228.872 134.95 228.872 134.665C228.872 134.392 228.971 134.156 229.168 133.959C229.365 133.762 229.606 133.664 229.89 133.664C230.175 133.664 230.41 133.762 230.596 133.959C230.782 134.156 230.876 134.392 230.876 134.665C230.876 134.95 230.782 135.191 230.596 135.388ZM229.168 146.076V137.867H230.58V146.076H229.168ZM236.442 146.158C235.687 146.158 235.079 145.945 234.619 145.518C234.16 145.091 233.93 144.467 233.93 143.646V139.164H232.189V137.867H233.93V135.585H235.342V137.867H237.706V139.164H235.342V143.466C235.342 143.98 235.451 144.341 235.67 144.549C235.889 144.757 236.234 144.861 236.705 144.861C237.12 144.861 237.454 144.806 237.706 144.697V145.961C237.312 146.093 236.891 146.158 236.442 146.158ZM241.989 146.24C241.234 146.24 240.572 146.082 240.002 145.764C239.433 145.436 239.023 144.96 238.771 144.336L239.92 143.695C240.073 144.1 240.342 144.418 240.725 144.648C241.108 144.878 241.535 144.993 242.005 144.993C242.41 144.993 242.75 144.894 243.023 144.697C243.297 144.5 243.434 144.232 243.434 143.892C243.434 143.597 243.324 143.351 243.105 143.154C242.897 142.957 242.531 142.776 242.005 142.612L241.184 142.349C239.816 141.955 239.132 141.156 239.132 139.952C239.132 139.273 239.4 138.732 239.937 138.327C240.484 137.911 241.157 137.703 241.956 137.703C243.204 137.703 244.107 138.179 244.665 139.131L243.614 139.854C243.166 139.23 242.596 138.918 241.907 138.918C241.535 138.918 241.212 139.011 240.938 139.197C240.676 139.372 240.544 139.607 240.544 139.903C240.544 140.176 240.626 140.412 240.79 140.609C240.966 140.795 241.272 140.954 241.71 141.085L242.613 141.364C244.102 141.824 244.846 142.628 244.846 143.778C244.846 144.544 244.578 145.146 244.041 145.584C243.516 146.021 242.832 146.24 241.989 146.24Z" fill="#191919" fill-opacity="0.6"/>
<rect x="42.3809" y="224.595" width="13.8125" height="13.8125" rx="1.38125" fill="#5A3FFF"/>
<path d="M72.909 238V226.804H68.931V225.22H78.525V226.804H74.547V238H72.909ZM82.7274 238.18C81.3714 238.18 80.2434 237.73 79.3434 236.83C78.4554 235.918 78.0114 234.808 78.0114 233.5C78.0114 232.192 78.4554 231.088 79.3434 230.188C80.2434 229.276 81.3714 228.82 82.7274 228.82C84.0714 228.82 85.1874 229.276 86.0754 230.188C86.9754 231.088 87.4254 232.192 87.4254 233.5C87.4254 234.808 86.9754 235.918 86.0754 236.83C85.1874 237.73 84.0714 238.18 82.7274 238.18ZM80.4594 235.804C81.0474 236.428 81.8034 236.74 82.7274 236.74C83.6514 236.74 84.4014 236.428 84.9774 235.804C85.5534 235.18 85.8414 234.412 85.8414 233.5C85.8414 232.588 85.5534 231.82 84.9774 231.196C84.4014 230.572 83.6514 230.26 82.7274 230.26C81.8034 230.26 81.0474 230.572 80.4594 231.196C79.8834 231.82 79.5954 232.588 79.5954 233.5C79.5954 234.412 79.8834 235.18 80.4594 235.804ZM92.9813 238.09C92.1533 238.09 91.4873 237.856 90.9833 237.388C90.4793 236.92 90.2273 236.236 90.2273 235.336V230.422H88.3193V229H90.2273V226.498H91.7753V229H94.3673V230.422H91.7753V235.138C91.7753 235.702 91.8953 236.098 92.1353 236.326C92.3753 236.554 92.7533 236.668 93.2693 236.668C93.7253 236.668 94.0913 236.608 94.3673 236.488V237.874C93.9353 238.018 93.4733 238.09 92.9813 238.09ZM99.9297 238.18C98.6817 238.18 97.6317 237.724 96.7797 236.812C95.9397 235.9 95.5197 234.796 95.5197 233.5C95.5197 232.204 95.9397 231.1 96.7797 230.188C97.6317 229.276 98.6817 228.82 99.9297 228.82C100.59 228.82 101.202 228.97 101.766 229.27C102.342 229.558 102.786 229.93 103.098 230.386V229H104.646V238H103.098V236.614C102.786 237.07 102.342 237.448 101.766 237.748C101.202 238.036 100.59 238.18 99.9297 238.18ZM100.164 236.758C101.052 236.758 101.784 236.446 102.36 235.822C102.936 235.198 103.224 234.424 103.224 233.5C103.224 232.576 102.936 231.802 102.36 231.178C101.784 230.554 101.052 230.242 100.164 230.242C99.2637 230.242 98.5257 230.554 97.9497 231.178C97.3737 231.802 97.0857 232.576 97.0857 233.5C97.0857 234.424 97.3737 235.198 97.9497 235.822C98.5257 236.446 99.2637 236.758 100.164 236.758ZM107.56 238V224.5H109.108V238H107.56ZM120.092 238.18C118.844 238.18 117.794 237.724 116.942 236.812C116.102 235.9 115.682 234.796 115.682 233.5C115.682 232.204 116.102 231.1 116.942 230.188C117.794 229.276 118.844 228.82 120.092 228.82C120.752 228.82 121.364 228.97 121.928 229.27C122.504 229.558 122.948 229.93 123.26 230.386V229H124.808V238H123.26V236.614C122.948 237.07 122.504 237.448 121.928 237.748C121.364 238.036 120.752 238.18 120.092 238.18ZM120.326 236.758C121.214 236.758 121.946 236.446 122.522 235.822C123.098 235.198 123.386 234.424 123.386 233.5C123.386 232.576 123.098 231.802 122.522 231.178C121.946 230.554 121.214 230.242 120.326 230.242C119.426 230.242 118.688 230.554 118.112 231.178C117.536 231.802 117.248 232.576 117.248 233.5C117.248 234.424 117.536 235.198 118.112 235.822C118.688 236.446 119.426 236.758 120.326 236.758ZM130.53 238L126.372 229H128.1L131.178 235.822L134.256 229H135.984L131.826 238H130.53ZM141.08 238.18C139.832 238.18 138.782 237.724 137.93 236.812C137.09 235.9 136.67 234.796 136.67 233.5C136.67 232.204 137.09 231.1 137.93 230.188C138.782 229.276 139.832 228.82 141.08 228.82C141.74 228.82 142.352 228.97 142.916 229.27C143.492 229.558 143.936 229.93 144.248 230.386V229H145.796V238H144.248V236.614C143.936 237.07 143.492 237.448 142.916 237.748C142.352 238.036 141.74 238.18 141.08 238.18ZM141.314 236.758C142.202 236.758 142.934 236.446 143.51 235.822C144.086 235.198 144.374 234.424 144.374 233.5C144.374 232.576 144.086 231.802 143.51 231.178C142.934 230.554 142.202 230.242 141.314 230.242C140.414 230.242 139.676 230.554 139.1 231.178C138.524 231.802 138.236 232.576 138.236 233.5C138.236 234.424 138.524 235.198 139.1 235.822C139.676 236.446 140.414 236.758 141.314 236.758ZM150.276 226.282C150.072 226.486 149.814 226.588 149.502 226.588C149.19 226.588 148.926 226.486 148.71 226.282C148.494 226.066 148.386 225.802 148.386 225.49C148.386 225.19 148.494 224.932 148.71 224.716C148.926 224.5 149.19 224.392 149.502 224.392C149.814 224.392 150.072 224.5 150.276 224.716C150.48 224.932 150.582 225.19 150.582 225.49C150.582 225.802 150.48 226.066 150.276 226.282ZM148.71 238V229H150.258V238H148.71ZM153.192 238V224.5H154.74V238H153.192ZM161.383 238.18C160.135 238.18 159.085 237.724 158.233 236.812C157.393 235.9 156.973 234.796 156.973 233.5C156.973 232.204 157.393 231.1 158.233 230.188C159.085 229.276 160.135 228.82 161.383 228.82C162.043 228.82 162.655 228.97 163.219 229.27C163.795 229.558 164.239 229.93 164.551 230.386V229H166.099V238H164.551V236.614C164.239 237.07 163.795 237.448 163.219 237.748C162.655 238.036 162.043 238.18 161.383 238.18ZM161.617 236.758C162.505 236.758 163.237 236.446 163.813 235.822C164.389 235.198 164.677 234.424 164.677 233.5C164.677 232.576 164.389 231.802 163.813 231.178C163.237 230.554 162.505 230.242 161.617 230.242C160.717 230.242 159.979 230.554 159.403 231.178C158.827 231.802 158.539 232.576 158.539 233.5C158.539 234.424 158.827 235.198 159.403 235.822C159.979 236.446 160.717 236.758 161.617 236.758ZM173.729 238.18C173.069 238.18 172.451 238.036 171.875 237.748C171.311 237.448 170.873 237.07 170.561 236.614V238H169.013V224.5H170.561V230.386C170.873 229.93 171.311 229.558 171.875 229.27C172.451 228.97 173.069 228.82 173.729 228.82C174.977 228.82 176.021 229.276 176.861 230.188C177.713 231.1 178.139 232.204 178.139 233.5C178.139 234.796 177.713 235.9 176.861 236.812C176.021 237.724 174.977 238.18 173.729 238.18ZM171.299 235.822C171.875 236.446 172.607 236.758 173.495 236.758C174.383 236.758 175.115 236.446 175.691 235.822C176.267 235.198 176.555 234.424 176.555 233.5C176.555 232.576 176.267 231.802 175.691 231.178C175.115 230.554 174.383 230.242 173.495 230.242C172.607 230.242 171.875 230.554 171.299 231.178C170.723 231.802 170.435 232.576 170.435 233.5C170.435 234.424 170.723 235.198 171.299 235.822ZM180.351 238V224.5H181.899V238H180.351ZM188.793 238.18C187.413 238.18 186.291 237.736 185.427 236.848C184.563 235.96 184.131 234.844 184.131 233.5C184.131 232.168 184.569 231.058 185.445 230.17C186.321 229.27 187.443 228.82 188.811 228.82C190.023 228.82 191.037 229.228 191.853 230.044C192.681 230.848 193.095 231.946 193.095 233.338C193.095 233.518 193.089 233.674 193.077 233.806H185.697C185.721 234.646 186.021 235.348 186.597 235.912C187.185 236.476 187.923 236.758 188.811 236.758C190.071 236.758 191.007 236.236 191.619 235.192L192.843 236.038C191.967 237.466 190.617 238.18 188.793 238.18ZM185.805 232.546H191.511C191.391 231.826 191.073 231.256 190.557 230.836C190.053 230.404 189.453 230.188 188.757 230.188C188.049 230.188 187.413 230.404 186.849 230.836C186.297 231.256 185.949 231.826 185.805 232.546ZM202.82 238.18C201.836 238.18 201.038 237.85 200.426 237.19C199.814 236.518 199.508 235.63 199.508 234.526V229H201.056V234.292C201.056 235.048 201.236 235.648 201.596 236.092C201.968 236.536 202.466 236.758 203.09 236.758C203.81 236.758 204.404 236.464 204.872 235.876C205.352 235.276 205.592 234.472 205.592 233.464V229H207.14V238H205.592V236.614C205.004 237.658 204.08 238.18 202.82 238.18ZM210.058 238V229H211.606V230.386C212.218 229.342 213.172 228.82 214.468 228.82C215.488 228.82 216.31 229.15 216.934 229.81C217.558 230.47 217.87 231.352 217.87 232.456V238H216.34V232.69C216.34 231.934 216.148 231.34 215.764 230.908C215.38 230.464 214.864 230.242 214.216 230.242C213.472 230.242 212.848 230.536 212.344 231.124C211.852 231.712 211.606 232.516 211.606 233.536V238H210.058ZM222.223 226.282C222.019 226.486 221.761 226.588 221.449 226.588C221.137 226.588 220.873 226.486 220.657 226.282C220.441 226.066 220.333 225.802 220.333 225.49C220.333 225.19 220.441 224.932 220.657 224.716C220.873 224.5 221.137 224.392 221.449 224.392C221.761 224.392 222.019 224.5 222.223 224.716C222.427 224.932 222.529 225.19 222.529 225.49C222.529 225.802 222.427 226.066 222.223 226.282ZM220.657 238V229H222.205V238H220.657ZM228.632 238.09C227.804 238.09 227.138 237.856 226.634 237.388C226.13 236.92 225.878 236.236 225.878 235.336V230.422H223.97V229H225.878V226.498H227.426V229H230.018V230.422H227.426V235.138C227.426 235.702 227.546 236.098 227.786 236.326C228.026 236.554 228.404 236.668 228.92 236.668C229.376 236.668 229.742 236.608 230.018 236.488V237.874C229.586 238.018 229.124 238.09 228.632 238.09ZM234.713 238.18C233.885 238.18 233.159 238.006 232.535 237.658C231.911 237.298 231.461 236.776 231.185 236.092L232.445 235.39C232.613 235.834 232.907 236.182 233.327 236.434C233.747 236.686 234.215 236.812 234.731 236.812C235.175 236.812 235.547 236.704 235.847 236.488C236.147 236.272 236.297 235.978 236.297 235.606C236.297 235.282 236.177 235.012 235.937 234.796C235.709 234.58 235.307 234.382 234.731 234.202L233.831 233.914C232.331 233.482 231.581 232.606 231.581 231.286C231.581 230.542 231.875 229.948 232.463 229.504C233.063 229.048 233.801 228.82 234.677 228.82C236.045 228.82 237.035 229.342 237.647 230.386L236.495 231.178C236.003 230.494 235.379 230.152 234.623 230.152C234.215 230.152 233.861 230.254 233.561 230.458C233.273 230.65 233.129 230.908 233.129 231.232C233.129 231.532 233.219 231.79 233.399 232.006C233.591 232.21 233.927 232.384 234.407 232.528L235.397 232.834C237.029 233.338 237.845 234.22 237.845 235.48C237.845 236.32 237.551 236.98 236.963 237.46C236.387 237.94 235.637 238.18 234.713 238.18Z" fill="#191919" fill-opacity="0.6"/>
<path d="M349.284 238.18C347.952 238.18 346.866 237.736 346.026 236.848C345.186 235.948 344.766 234.79 344.766 233.374V229.81C344.766 228.394 345.186 227.242 346.026 226.354C346.878 225.454 347.964 225.004 349.284 225.004C350.604 225.004 351.69 225.454 352.542 226.354C353.394 227.254 353.82 228.406 353.82 229.81V233.374C353.82 234.79 353.394 235.948 352.542 236.848C351.69 237.736 350.604 238.18 349.284 238.18ZM349.284 236.668C350.172 236.668 350.892 236.374 351.444 235.786C351.996 235.198 352.272 234.394 352.272 233.374V229.81C352.272 228.79 351.996 227.986 351.444 227.398C350.892 226.81 350.172 226.516 349.284 226.516C348.408 226.516 347.694 226.81 347.142 227.398C346.59 227.986 346.314 228.79 346.314 229.81V233.374C346.314 234.394 346.59 235.198 347.142 235.786C347.694 236.374 348.408 236.668 349.284 236.668Z" fill="#191919"/>
<rect x="42.3809" y="260.595" width="13.8125" height="13.8125" rx="1.38125" fill="#1ED6FF"/>
<path d="M72.909 274V262.804H68.931V261.22H78.525V262.804H74.547V274H72.909ZM82.7274 274.18C81.3714 274.18 80.2434 273.73 79.3434 272.83C78.4554 271.918 78.0114 270.808 78.0114 269.5C78.0114 268.192 78.4554 267.088 79.3434 266.188C80.2434 265.276 81.3714 264.82 82.7274 264.82C84.0714 264.82 85.1874 265.276 86.0754 266.188C86.9754 267.088 87.4254 268.192 87.4254 269.5C87.4254 270.808 86.9754 271.918 86.0754 272.83C85.1874 273.73 84.0714 274.18 82.7274 274.18ZM80.4594 271.804C81.0474 272.428 81.8034 272.74 82.7274 272.74C83.6514 272.74 84.4014 272.428 84.9774 271.804C85.5534 271.18 85.8414 270.412 85.8414 269.5C85.8414 268.588 85.5534 267.82 84.9774 267.196C84.4014 266.572 83.6514 266.26 82.7274 266.26C81.8034 266.26 81.0474 266.572 80.4594 267.196C79.8834 267.82 79.5954 268.588 79.5954 269.5C79.5954 270.412 79.8834 271.18 80.4594 271.804ZM92.9813 274.09C92.1533 274.09 91.4873 273.856 90.9833 273.388C90.4793 272.92 90.2273 272.236 90.2273 271.336V266.422H88.3193V265H90.2273V262.498H91.7753V265H94.3673V266.422H91.7753V271.138C91.7753 271.702 91.8953 272.098 92.1353 272.326C92.3753 272.554 92.7533 272.668 93.2693 272.668C93.7253 272.668 94.0913 272.608 94.3673 272.488V273.874C93.9353 274.018 93.4733 274.09 92.9813 274.09ZM99.9297 274.18C98.6817 274.18 97.6317 273.724 96.7797 272.812C95.9397 271.9 95.5197 270.796 95.5197 269.5C95.5197 268.204 95.9397 267.1 96.7797 266.188C97.6317 265.276 98.6817 264.82 99.9297 264.82C100.59 264.82 101.202 264.97 101.766 265.27C102.342 265.558 102.786 265.93 103.098 266.386V265H104.646V274H103.098V272.614C102.786 273.07 102.342 273.448 101.766 273.748C101.202 274.036 100.59 274.18 99.9297 274.18ZM100.164 272.758C101.052 272.758 101.784 272.446 102.36 271.822C102.936 271.198 103.224 270.424 103.224 269.5C103.224 268.576 102.936 267.802 102.36 267.178C101.784 266.554 101.052 266.242 100.164 266.242C99.2637 266.242 98.5257 266.554 97.9497 267.178C97.3737 267.802 97.0857 268.576 97.0857 269.5C97.0857 270.424 97.3737 271.198 97.9497 271.822C98.5257 272.446 99.2637 272.758 100.164 272.758ZM107.56 274V260.5H109.108V274H107.56ZM119.102 274.18C118.274 274.18 117.548 274.006 116.924 273.658C116.3 273.298 115.85 272.776 115.574 272.092L116.834 271.39C117.002 271.834 117.296 272.182 117.716 272.434C118.136 272.686 118.604 272.812 119.12 272.812C119.564 272.812 119.936 272.704 120.236 272.488C120.536 272.272 120.686 271.978 120.686 271.606C120.686 271.282 120.566 271.012 120.326 270.796C120.098 270.58 119.696 270.382 119.12 270.202L118.22 269.914C116.72 269.482 115.97 268.606 115.97 267.286C115.97 266.542 116.264 265.948 116.852 265.504C117.452 265.048 118.19 264.82 119.066 264.82C120.434 264.82 121.424 265.342 122.036 266.386L120.884 267.178C120.392 266.494 119.768 266.152 119.012 266.152C118.604 266.152 118.25 266.254 117.95 266.458C117.662 266.65 117.518 266.908 117.518 267.232C117.518 267.532 117.608 267.79 117.788 268.006C117.98 268.21 118.316 268.384 118.796 268.528L119.786 268.834C121.418 269.338 122.234 270.22 122.234 271.48C122.234 272.32 121.94 272.98 121.352 273.46C120.776 273.94 120.026 274.18 119.102 274.18ZM128.483 274.18C127.127 274.18 125.999 273.73 125.099 272.83C124.211 271.918 123.767 270.808 123.767 269.5C123.767 268.192 124.211 267.088 125.099 266.188C125.999 265.276 127.127 264.82 128.483 264.82C129.827 264.82 130.943 265.276 131.831 266.188C132.731 267.088 133.181 268.192 133.181 269.5C133.181 270.808 132.731 271.918 131.831 272.83C130.943 273.73 129.827 274.18 128.483 274.18ZM126.215 271.804C126.803 272.428 127.559 272.74 128.483 272.74C129.407 272.74 130.157 272.428 130.733 271.804C131.309 271.18 131.597 270.412 131.597 269.5C131.597 268.588 131.309 267.82 130.733 267.196C130.157 266.572 129.407 266.26 128.483 266.26C127.559 266.26 126.803 266.572 126.215 267.196C125.639 267.82 125.351 268.588 125.351 269.5C125.351 270.412 125.639 271.18 126.215 271.804ZM135.403 274V260.5H136.951V274H135.403ZM143.594 274.18C142.346 274.18 141.296 273.724 140.444 272.812C139.604 271.9 139.184 270.796 139.184 269.5C139.184 268.204 139.604 267.1 140.444 266.188C141.296 265.276 142.346 264.82 143.594 264.82C144.254 264.82 144.866 264.97 145.43 265.27C146.006 265.558 146.45 265.93 146.762 266.386V260.5H148.31V274H146.762V272.614C146.45 273.07 146.006 273.448 145.43 273.748C144.866 274.036 144.254 274.18 143.594 274.18ZM143.828 272.758C144.716 272.758 145.448 272.446 146.024 271.822C146.6 271.198 146.888 270.424 146.888 269.5C146.888 268.576 146.6 267.802 146.024 267.178C145.448 266.554 144.716 266.242 143.828 266.242C142.928 266.242 142.19 266.554 141.614 267.178C141.038 267.802 140.75 268.576 140.75 269.5C140.75 270.424 141.038 271.198 141.614 271.822C142.19 272.446 142.928 272.758 143.828 272.758ZM158.751 274.18C157.767 274.18 156.969 273.85 156.357 273.19C155.745 272.518 155.439 271.63 155.439 270.526V265H156.987V270.292C156.987 271.048 157.167 271.648 157.527 272.092C157.899 272.536 158.397 272.758 159.021 272.758C159.741 272.758 160.335 272.464 160.803 271.876C161.283 271.276 161.523 270.472 161.523 269.464V265H163.071V274H161.523V272.614C160.935 273.658 160.011 274.18 158.751 274.18ZM165.989 274V265H167.537V266.386C168.149 265.342 169.103 264.82 170.399 264.82C171.419 264.82 172.241 265.15 172.865 265.81C173.489 266.47 173.801 267.352 173.801 268.456V274H172.271V268.69C172.271 267.934 172.079 267.34 171.695 266.908C171.311 266.464 170.795 266.242 170.147 266.242C169.403 266.242 168.779 266.536 168.275 267.124C167.783 267.712 167.537 268.516 167.537 269.536V274H165.989ZM178.155 262.282C177.951 262.486 177.693 262.588 177.381 262.588C177.069 262.588 176.805 262.486 176.589 262.282C176.373 262.066 176.265 261.802 176.265 261.49C176.265 261.19 176.373 260.932 176.589 260.716C176.805 260.5 177.069 260.392 177.381 260.392C177.693 260.392 177.951 260.5 178.155 260.716C178.359 260.932 178.461 261.19 178.461 261.49C178.461 261.802 178.359 262.066 178.155 262.282ZM176.589 274V265H178.137V274H176.589ZM184.563 274.09C183.735 274.09 183.069 273.856 182.565 273.388C182.061 272.92 181.809 272.236 181.809 271.336V266.422H179.901V265H181.809V262.498H183.357V265H185.949V266.422H183.357V271.138C183.357 271.702 183.477 272.098 183.717 272.326C183.957 272.554 184.335 272.668 184.851 272.668C185.307 272.668 185.673 272.608 185.949 272.488V273.874C185.517 274.018 185.055 274.09 184.563 274.09ZM190.645 274.18C189.817 274.18 189.091 274.006 188.467 273.658C187.843 273.298 187.393 272.776 187.117 272.092L188.377 271.39C188.545 271.834 188.839 272.182 189.259 272.434C189.679 272.686 190.147 272.812 190.663 272.812C191.107 272.812 191.479 272.704 191.779 272.488C192.079 272.272 192.229 271.978 192.229 271.606C192.229 271.282 192.109 271.012 191.869 270.796C191.641 270.58 191.239 270.382 190.663 270.202L189.763 269.914C188.263 269.482 187.513 268.606 187.513 267.286C187.513 266.542 187.807 265.948 188.395 265.504C188.995 265.048 189.733 264.82 190.609 264.82C191.977 264.82 192.967 265.342 193.579 266.386L192.427 267.178C191.935 266.494 191.311 266.152 190.555 266.152C190.147 266.152 189.793 266.254 189.493 266.458C189.205 266.65 189.061 266.908 189.061 267.232C189.061 267.532 189.151 267.79 189.331 268.006C189.523 268.21 189.859 268.384 190.339 268.528L191.329 268.834C192.961 269.338 193.777 270.22 193.777 271.48C193.777 272.32 193.483 272.98 192.895 273.46C192.319 273.94 191.569 274.18 190.645 274.18Z" fill="#191919" fill-opacity="0.6"/>
<path d="M349.133 274.205C347.801 274.205 346.715 273.761 345.875 272.873C345.035 271.973 344.615 270.815 344.615 269.399V265.835C344.615 264.419 345.035 263.267 345.875 262.379C346.727 261.479 347.813 261.029 349.133 261.029C350.453 261.029 351.539 261.479 352.391 262.379C353.243 263.279 353.669 264.431 353.669 265.835V269.399C353.669 270.815 353.243 271.973 352.391 272.873C351.539 273.761 350.453 274.205 349.133 274.205ZM349.133 272.693C350.021 272.693 350.741 272.399 351.293 271.811C351.845 271.223 352.121 270.419 352.121 269.399V265.835C352.121 264.815 351.845 264.011 351.293 263.423C350.741 262.835 350.021 262.541 349.133 262.541C348.257 262.541 347.543 262.835 346.991 263.423C346.439 264.011 346.163 264.815 346.163 265.835V269.399C346.163 270.419 346.439 271.223 346.991 271.811C347.543 272.399 348.257 272.693 349.133 272.693Z" fill="#191919"/>
<defs>
<filter id="filter0_d_6674_46301" x="0" y="0" width="396" height="316" filterUnits="userSpaceOnUse" color-interpolation-filters="sRGB">
<feFlood flood-opacity="0" result="BackgroundImageFix"/>
<feColorMatrix in="SourceAlpha" type="matrix" values="0 0 0 0 0 0 0 0 0 0 0 0 0 0 0 0 0 0 127 0" result="hardAlpha"/>
<feOffset dy="4"/>
<feGaussianBlur stdDeviation="4"/>
<feComposite in2="hardAlpha" operator="out"/>
<feColorMatrix type="matrix" values="0 0 0 0 0 0 0 0 0 0 0 0 0 0 0 0 0 0 0.02 0"/>
<feBlend mode="normal" in2="BackgroundImageFix" result="effect1_dropShadow_6674_46301"/>
<feBlend mode="normal" in="SourceGraphic" in2="effect1_dropShadow_6674_46301" result="shape"/>
</filter>
</defs>
</svg>
