<svg width="108" height="27" viewBox="0 0 108 27" fill="none" xmlns="http://www.w3.org/2000/svg">
<g clipPath="url(#clip0_10962_89342)">
<path d="M20.1321 7.13737C19.3327 6.42319 18.3537 5.94054 17.3004 5.74134C16.2471 5.54214 15.1594 5.63394 14.1544 6.00687C13.1495 6.37979 12.2652 7.01971 11.5968 7.85777C10.9284 8.69583 10.5012 9.70029 10.3612 10.7631C10.2354 11.6949 10.336 12.6434 10.6544 13.5281C10.9728 14.4129 11.4997 15.2079 12.1904 15.846C12.6175 16.2205 12.9622 16.6798 13.2026 17.1945C13.4429 17.7093 13.5738 18.2684 13.5867 18.8364V18.9418C13.5874 19.5826 13.8422 20.1968 14.2953 20.6499C14.7484 21.103 15.3627 21.3578 16.0034 21.3585H16.4095C17.0502 21.3578 17.6645 21.103 18.1176 20.6499C18.5706 20.1968 18.8255 19.5826 18.8261 18.9418V18.5823C18.836 18.0802 18.9541 17.5862 19.1725 17.1341C19.3909 16.682 19.7043 16.2823 20.0915 15.9625C20.7193 15.4127 21.2231 14.7357 21.5695 13.9765C21.9159 13.2172 22.0971 12.393 22.1009 11.5585C22.1047 10.7239 21.9312 9.89807 21.5918 9.13566C21.2524 8.37325 20.7548 7.69166 20.1321 7.13606V7.13737ZM16.4095 20.0486H16.0034C15.71 20.0483 15.4286 19.9316 15.2211 19.7241C15.0136 19.5166 14.8969 19.2353 14.8966 18.9418C14.8966 18.9418 14.892 18.7715 14.8913 18.7388H17.5163V18.9418C17.5159 19.2353 17.3992 19.5166 17.1917 19.7241C16.9842 19.9316 16.7029 20.0483 16.4095 20.0486ZM19.2257 14.9788C18.48 15.6256 17.9415 16.4778 17.6774 17.4289H16.8614V12.7239C17.2431 12.5889 17.5739 12.3393 17.8083 12.0092C18.0428 11.6791 18.1695 11.2846 18.1712 10.8796C18.1712 10.7059 18.1022 10.5394 17.9794 10.4165C17.8566 10.2937 17.69 10.2247 17.5163 10.2247C17.3426 10.2247 17.176 10.2937 17.0532 10.4165C16.9304 10.5394 16.8614 10.7059 16.8614 10.8796C16.8614 11.0533 16.7924 11.2199 16.6695 11.3427C16.5467 11.4656 16.3801 11.5346 16.2064 11.5346C16.0327 11.5346 15.8661 11.4656 15.7433 11.3427C15.6205 11.2199 15.5515 11.0533 15.5515 10.8796C15.5515 10.7059 15.4825 10.5394 15.3597 10.4165C15.2369 10.2937 15.0703 10.2247 14.8966 10.2247C14.7229 10.2247 14.5563 10.2937 14.4335 10.4165C14.3106 10.5394 14.2416 10.7059 14.2416 10.8796C14.2433 11.2846 14.3701 11.6791 14.6045 12.0092C14.839 12.3393 15.1697 12.5889 15.5515 12.7239V17.4289H14.6857C14.3903 16.4526 13.8363 15.5743 13.0824 14.8871C12.4425 14.2909 11.9865 13.524 11.7683 12.6771C11.55 11.8301 11.5786 10.9384 11.8506 10.1071C12.1227 9.27589 12.6268 8.5398 13.3036 7.98574C13.9803 7.43168 14.8014 7.08277 15.67 6.98018C15.8501 6.96008 16.0311 6.95003 16.2123 6.95006C17.3372 6.94671 18.4232 7.36176 19.2591 8.11452C19.7435 8.54651 20.1306 9.07654 20.3947 9.66947C20.6587 10.2624 20.7938 10.9047 20.7908 11.5538C20.7878 12.2028 20.6469 12.8439 20.3774 13.4344C20.1079 14.0248 19.716 14.5513 19.2276 14.9788H19.2257Z" fill="#4545FE"/>
</g>
<path d="M29.8836 18V8.7H31.1018V16.8473H35.5946V18H29.8836ZM39.5664 18.131C38.5622 18.131 37.7457 17.8079 37.117 17.1617C36.4883 16.5155 36.1739 15.7034 36.1739 14.7254C36.1739 13.7561 36.4926 12.9483 37.1301 12.3021C37.7676 11.6472 38.584 11.3197 39.5795 11.3197C40.4615 11.3197 41.1994 11.6166 41.7932 12.2104C42.3957 12.7955 42.697 13.5945 42.697 14.6075C42.697 14.7385 42.6926 14.852 42.6839 14.948H37.3135C37.3309 15.5593 37.5493 16.0701 37.9684 16.4806C38.3963 16.891 38.9333 17.0962 39.5795 17.0962C40.4964 17.0962 41.1776 16.7163 41.6229 15.9566L42.5136 16.5723C41.8762 17.6114 40.8938 18.131 39.5664 18.131ZM37.3921 14.0311H41.5443C41.457 13.5072 41.2256 13.0924 40.8501 12.7868C40.4833 12.4724 40.0467 12.3152 39.5402 12.3152C39.025 12.3152 38.5622 12.4724 38.1518 12.7868C37.7501 13.0924 37.4969 13.5072 37.3921 14.0311ZM46.9941 18.131C46.0859 18.131 45.3218 17.7992 44.7018 17.1355C44.0905 16.4718 43.7849 15.6685 43.7849 14.7254C43.7849 13.7823 44.0905 12.9789 44.7018 12.3152C45.3218 11.6515 46.0859 11.3197 46.9941 11.3197C47.4743 11.3197 47.9197 11.4289 48.3301 11.6472C48.7493 11.8568 49.0724 12.1275 49.2994 12.4593V11.4507H50.4259V18H49.2994V16.9914C49.0724 17.3232 48.7493 17.5983 48.3301 17.8166C47.9197 18.0262 47.4743 18.131 46.9941 18.131ZM47.1643 17.0962C47.8105 17.0962 48.3432 16.8692 48.7624 16.4151C49.1815 15.961 49.3911 15.3977 49.3911 14.7254C49.3911 14.053 49.1815 13.4897 48.7624 13.0356C48.3432 12.5815 47.8105 12.3545 47.1643 12.3545C46.5094 12.3545 45.9724 12.5815 45.5532 13.0356C45.1341 13.4897 44.9245 14.053 44.9245 14.7254C44.9245 15.3977 45.1341 15.961 45.5532 16.4151C45.9724 16.8692 46.5094 17.0962 47.1643 17.0962ZM52.5463 18V11.4507H53.6728V12.7213C53.7951 12.3196 54.0308 11.9965 54.3801 11.752C54.7382 11.5075 55.1136 11.3852 55.5066 11.3852C55.6987 11.3852 55.869 11.4027 56.0175 11.4376V12.6034C55.8603 12.5335 55.6551 12.4986 55.4018 12.4986C54.9477 12.4986 54.546 12.6951 54.1967 13.088C53.8475 13.481 53.6728 14.0355 53.6728 14.7515V18H52.5463ZM57.3432 18V11.4507H58.4697V12.4593C58.915 11.6996 59.6092 11.3197 60.5523 11.3197C61.2946 11.3197 61.8928 11.5599 62.3468 12.0401C62.8009 12.5204 63.028 13.1623 63.028 13.9656V18H61.9146V14.1359C61.9146 13.5858 61.7749 13.1535 61.4954 12.8392C61.216 12.5161 60.8405 12.3545 60.3689 12.3545C59.8275 12.3545 59.3735 12.5685 59.0067 12.9963C58.6487 13.4242 58.4697 14.0093 58.4697 14.7515V18H57.3432ZM76.6515 18V14.149C76.6515 13.6076 76.538 13.1754 76.311 12.8523C76.0926 12.5204 75.7739 12.3545 75.3548 12.3545C74.8308 12.3545 74.4029 12.5597 74.0711 12.9701C73.748 13.3806 73.5777 13.9394 73.5603 14.6468V18H72.4338V14.149C72.4338 13.5989 72.3203 13.1623 72.0932 12.8392C71.8749 12.5161 71.5605 12.3545 71.1501 12.3545C70.6087 12.3545 70.1721 12.5728 69.8403 13.0094C69.5084 13.4373 69.3425 14.018 69.3425 14.7515V18H68.216V11.4507H69.3425V12.4593C69.7617 11.6996 70.421 11.3197 71.3204 11.3197C72.3159 11.3197 72.9883 11.7869 73.3376 12.7213C73.5122 12.2934 73.7917 11.9528 74.1759 11.6996C74.5601 11.4463 74.9967 11.3197 75.4857 11.3197C76.1931 11.3197 76.7519 11.5599 77.1624 12.0401C77.5728 12.5204 77.778 13.1666 77.778 13.9787V18H76.6515ZM82.7131 18.131C81.7263 18.131 80.9055 17.8035 80.2506 17.1486C79.6044 16.4849 79.2813 15.6772 79.2813 14.7254C79.2813 13.7735 79.6044 12.9701 80.2506 12.3152C80.9055 11.6515 81.7263 11.3197 82.7131 11.3197C83.6911 11.3197 84.5032 11.6515 85.1494 12.3152C85.8044 12.9701 86.1318 13.7735 86.1318 14.7254C86.1318 15.6772 85.8044 16.4849 85.1494 17.1486C84.5032 17.8035 83.6911 18.131 82.7131 18.131ZM81.0627 16.402C81.4906 16.8561 82.0407 17.0831 82.7131 17.0831C83.3855 17.0831 83.9313 16.8561 84.3504 16.402C84.7696 15.9479 84.9792 15.389 84.9792 14.7254C84.9792 14.0617 84.7696 13.5028 84.3504 13.0487C83.9313 12.5946 83.3855 12.3676 82.7131 12.3676C82.0407 12.3676 81.4906 12.5946 81.0627 13.0487C80.6435 13.5028 80.4339 14.0617 80.4339 14.7254C80.4339 15.389 80.6435 15.9479 81.0627 16.402ZM87.7488 18V11.4507H88.8753V12.7213C88.9975 12.3196 89.2333 11.9965 89.5826 11.752C89.9406 11.5075 90.3161 11.3852 90.7091 11.3852C90.9012 11.3852 91.0715 11.4027 91.2199 11.4376V12.6034C91.0627 12.5335 90.8575 12.4986 90.6043 12.4986C90.1502 12.4986 89.7485 12.6951 89.3992 13.088C89.0499 13.481 88.8753 14.0355 88.8753 14.7515V18H87.7488ZM95.1971 18.131C94.1929 18.131 93.3764 17.8079 92.7476 17.1617C92.1189 16.5155 91.8045 15.7034 91.8045 14.7254C91.8045 13.7561 92.1233 12.9483 92.7607 12.3021C93.3982 11.6472 94.2147 11.3197 95.2102 11.3197C96.0921 11.3197 96.83 11.6166 97.4238 12.2104C98.0264 12.7955 98.3276 13.5945 98.3276 14.6075C98.3276 14.7385 98.3233 14.852 98.3145 14.948H92.9441C92.9616 15.5593 93.1799 16.0701 93.5991 16.4806C94.0269 16.891 94.564 17.0962 95.2102 17.0962C96.1271 17.0962 96.8082 16.7163 97.2536 15.9566L98.1443 16.5723C97.5068 17.6114 96.5244 18.131 95.1971 18.131ZM93.0227 14.0311H97.175C97.0876 13.5072 96.8562 13.0924 96.4807 12.7868C96.114 12.4724 95.6774 12.3152 95.1709 12.3152C94.6557 12.3152 94.1929 12.4724 93.7824 12.7868C93.3807 13.0924 93.1275 13.5072 93.0227 14.0311Z" fill="#4545FE"/>
<rect x="0.5" y="0.5" width="107" height="26" rx="7.5" stroke="#4545FE"/>
<defs>
<clipPath id="clip0_10962_89342">
<rect width="15.7183" height="15.7183" fill="white" transform="translate(8.34766 5.64062)"/>
</clipPath>
</defs>
</svg>
