<svg width="86" height="30" viewBox="0 0 86 30" fill="none" xmlns="http://www.w3.org/2000/svg">
<path d="M4.144 2.264V19.864H17.072V23H0.496V2.264H4.144ZM28.4328 23.352C26.6621 23.352 25.0728 23.032 23.6648 22.392C22.2568 21.752 21.1474 20.8133 20.3368 19.576C19.5261 18.3387 19.1208 16.8347 19.1208 15.064C19.1208 13.3147 19.5261 11.8213 20.3368 10.584C21.1474 9.32533 22.2568 8.36533 23.6648 7.704C25.0728 7.04267 26.6621 6.712 28.4328 6.712C30.2034 6.712 31.7821 7.04267 33.1688 7.704C34.5554 8.36533 35.6434 9.32533 36.4328 10.584C37.2434 11.8213 37.6488 13.3147 37.6488 15.064C37.6488 16.8347 37.2434 18.3387 36.4328 19.576C35.6434 20.8133 34.5554 21.752 33.1688 22.392C31.7821 23.032 30.2034 23.352 28.4328 23.352ZM28.4328 20.44C29.4568 20.44 30.3954 20.2373 31.2488 19.832C32.1021 19.4267 32.7741 18.8187 33.2648 18.008C33.7768 17.1973 34.0328 16.216 34.0328 15.064C34.0328 13.912 33.7768 12.9307 33.2648 12.12C32.7741 11.3093 32.1021 10.6907 31.2488 10.264C30.4168 9.816 29.4781 9.592 28.4328 9.592C27.3874 9.592 26.4381 9.80533 25.5848 10.232C24.7314 10.6587 24.0381 11.2773 23.5048 12.088C22.9928 12.8987 22.7368 13.8907 22.7368 15.064C22.7368 16.216 22.9928 17.1973 23.5048 18.008C24.0168 18.8187 24.6994 19.4267 25.5528 19.832C26.4274 20.2373 27.3874 20.44 28.4328 20.44ZM47.9318 20.536C46.4384 20.536 45.0838 20.2693 43.8678 19.736C42.6731 19.2027 41.7238 18.424 41.0198 17.4C40.3371 16.376 39.9958 15.1493 39.9958 13.72C39.9958 12.2907 40.3264 11.0533 40.9878 10.008C41.6704 8.96267 42.6091 8.152 43.8038 7.576C45.0198 7 46.3958 6.712 47.9318 6.712C48.3798 6.712 48.8064 6.744 49.2118 6.808C49.6384 6.872 50.0438 6.95733 50.4278 7.064L57.8838 7.096V10.072C56.8598 10.0933 55.8251 9.95467 54.7798 9.656C53.7558 9.336 52.8491 9.00533 52.0598 8.664L51.9638 8.472C52.6891 8.83467 53.3398 9.28267 53.9158 9.816C54.5131 10.328 54.9824 10.9147 55.3238 11.576C55.6651 12.2373 55.8358 12.984 55.8358 13.816C55.8358 15.224 55.4944 16.4293 54.8118 17.432C54.1504 18.4347 53.2224 19.2027 52.0278 19.736C50.8544 20.2693 49.4891 20.536 47.9318 20.536ZM53.0518 29.496V28.76C53.0518 27.7147 52.7424 26.9787 52.1238 26.552C51.5051 26.1253 50.6411 25.912 49.5318 25.912H45.2118C44.3584 25.912 43.6224 25.8373 43.0038 25.688C42.4064 25.56 41.9264 25.3573 41.5638 25.08C41.2011 24.824 40.9344 24.5147 40.7638 24.152C40.5931 23.8107 40.5078 23.4267 40.5078 23C40.5078 22.1467 40.7638 21.5067 41.2758 21.08C41.8091 20.6533 42.5024 20.376 43.3558 20.248C44.2304 20.12 45.1478 20.0987 46.1078 20.184L47.9318 20.536C46.6731 20.5787 45.7131 20.696 45.0518 20.888C44.4118 21.0587 44.0918 21.4107 44.0918 21.944C44.0918 22.264 44.2198 22.52 44.4758 22.712C44.7318 22.904 45.0944 23 45.5638 23H50.1078C51.4091 23 52.5504 23.1493 53.5318 23.448C54.5131 23.768 55.2704 24.2907 55.8038 25.016C56.3584 25.7627 56.6358 26.776 56.6358 28.056V29.496H53.0518ZM47.9318 17.752C48.7851 17.752 49.5424 17.592 50.2038 17.272C50.8651 16.952 51.3878 16.4933 51.7718 15.896C52.1558 15.2987 52.3478 14.5733 52.3478 13.72C52.3478 12.8667 52.1558 12.1307 51.7718 11.512C51.3878 10.8933 50.8651 10.424 50.2038 10.104C49.5424 9.784 48.7851 9.624 47.9318 9.624C47.0998 9.624 46.3424 9.784 45.6598 10.104C44.9984 10.424 44.4758 10.8933 44.0918 11.512C43.7078 12.1093 43.5158 12.8453 43.5158 13.72C43.5158 14.5733 43.7078 15.2987 44.0918 15.896C44.4758 16.4933 44.9984 16.952 45.6598 17.272C46.3211 17.592 47.0784 17.752 47.9318 17.752ZM64.894 0.311998V3.736H60.638V0.311998H64.894ZM60.958 7.064H64.542V23H60.958V7.064ZM68.7965 7.064H72.3485V23H68.7965V7.064ZM79.0685 6.712C79.9858 6.712 80.8285 6.84 81.5965 7.096C82.3858 7.352 83.0578 7.74667 83.6125 8.28C84.1885 8.792 84.6258 9.432 84.9245 10.2C85.2445 10.968 85.4045 11.8747 85.4045 12.92V23H81.8525V13.624C81.8525 12.3227 81.5325 11.3627 80.8925 10.744C80.2738 10.104 79.2925 9.784 77.9485 9.784C76.9245 9.784 75.9858 10.008 75.1325 10.456C74.3005 10.8827 73.6178 11.448 73.0845 12.152C72.5512 12.8347 72.2418 13.592 72.1565 14.424L72.1245 12.696C72.2312 11.9067 72.4658 11.16 72.8285 10.456C73.1912 9.73067 73.6712 9.09067 74.2685 8.536C74.8658 7.96 75.5698 7.512 76.3805 7.192C77.1912 6.872 78.0872 6.712 79.0685 6.712Z" fill="white"/>
</svg>
