<svg width="471" height="417" viewBox="0 0 471 417" fill="none" xmlns="http://www.w3.org/2000/svg">
<g opacity="0.8">
<path d="M424.089 248.217H46.3281V248.406H424.089V248.217Z" fill="#EBEBEB"/>
<path d="M225.386 214.521H79.5018C78.3589 214.519 77.2636 214.064 76.4562 213.255C75.6488 212.446 75.1953 211.35 75.1953 210.207V5.13612C75.2053 3.99983 75.6631 2.91336 76.4695 2.11268C77.2758 1.31201 78.3655 0.86181 79.5018 0.859863H225.386C226.53 0.859863 227.627 1.31438 228.436 2.12341C229.245 2.93245 229.7 4.02974 229.7 5.17389V210.207C229.7 211.352 229.245 212.449 228.436 213.258C227.627 214.067 226.53 214.521 225.386 214.521ZM79.5018 1.01097C78.409 1.01297 77.3617 1.44846 76.5898 2.22186C75.8178 2.99526 75.3842 4.04337 75.3842 5.13612V210.207C75.3842 211.3 75.8178 212.348 76.5898 213.122C77.3617 213.895 78.409 214.331 79.5018 214.333H225.386C226.479 214.331 227.527 213.895 228.3 213.122C229.073 212.349 229.509 211.301 229.511 210.207V5.13612C229.509 4.04267 229.073 2.99459 228.3 2.2214C227.527 1.44822 226.479 1.01297 225.386 1.01097H79.5018Z" fill="#EBEBEB"/>
<path d="M388.815 214.521H242.923C241.78 214.519 240.684 214.064 239.875 213.256C239.067 212.447 238.611 211.351 238.609 210.207V5.13612C238.621 3.99914 239.081 2.91267 239.888 2.11221C240.696 1.31175 241.786 0.861789 242.923 0.859863H388.815C389.95 0.863795 391.037 1.31488 391.842 2.11534C392.647 2.91579 393.104 4.00114 393.114 5.13612V210.207C393.114 211.349 392.661 212.444 391.855 213.253C391.05 214.061 389.956 214.517 388.815 214.521ZM242.923 1.01097C241.83 1.01297 240.782 1.44822 240.009 2.2214C239.236 2.99459 238.8 4.04267 238.798 5.13612V210.207C238.8 211.301 239.236 212.349 240.009 213.122C240.782 213.895 241.83 214.331 242.923 214.333H388.815C389.908 214.331 390.956 213.895 391.729 213.122C392.503 212.349 392.938 211.301 392.94 210.207V5.13612C392.938 4.04267 392.503 2.99459 391.729 2.2214C390.956 1.44822 389.908 1.01297 388.815 1.01097H242.923Z" fill="#EBEBEB"/>
<path d="M104.722 255.41H85.0781V255.599H104.722V255.41Z" fill="#EBEBEB"/>
<path d="M190.013 253.363H155.992V253.552H190.013V253.363Z" fill="#EBEBEB"/>
<path d="M151.397 262.429H105.469V262.618H151.397V262.429Z" fill="#EBEBEB"/>
<path d="M385.341 261.16H370.812V261.349H385.341V261.16Z" fill="#EBEBEB"/>
<path d="M364.085 261.16H322.312V261.349H364.085V261.16Z" fill="#EBEBEB"/>
<path d="M296.803 257.971H240.539V258.16H296.803V257.971Z" fill="#EBEBEB"/>
<path d="M190.51 122.076L180.953 248.248H273.127L282.684 122.076H190.51ZM248.467 211.227C248.021 216.264 245.724 220.956 242.021 224.398C238.318 227.841 233.47 229.789 228.415 229.866C226.021 229.903 223.647 229.435 221.446 228.493C219.246 227.551 217.269 226.155 215.644 224.397C214.019 222.639 212.783 220.558 212.017 218.29C211.251 216.022 210.971 213.618 211.197 211.235L214.559 166.886C215.005 161.851 217.3 157.159 221.001 153.717C224.703 150.275 229.549 148.326 234.603 148.247C236.998 148.209 239.374 148.676 241.577 149.618C243.779 150.561 245.758 151.957 247.384 153.716C249.01 155.475 250.248 157.557 251.015 159.826C251.782 162.095 252.062 164.501 251.836 166.886L248.467 211.227Z" fill="#606060"/>
<path d="M302.361 248.218H167.969L168.747 239.937H303.132L302.361 248.218Z" fill="#606060"/>
<path d="M353.987 201.383H365.909C366.069 201.383 366.227 201.351 366.374 201.288C366.52 201.225 366.653 201.133 366.762 201.017C366.872 200.9 366.957 200.763 367.011 200.613C367.066 200.463 367.089 200.304 367.08 200.144L367.035 199.298C367.016 198.967 366.872 198.656 366.632 198.427C366.392 198.199 366.074 198.07 365.743 198.066H353.821C353.661 198.065 353.503 198.097 353.356 198.159C353.209 198.221 353.076 198.312 352.966 198.428C352.855 198.543 352.77 198.68 352.714 198.829C352.658 198.979 352.634 199.139 352.642 199.298L352.688 200.144C352.707 200.477 352.852 200.79 353.093 201.02C353.334 201.25 353.654 201.38 353.987 201.383Z" fill="#817C7C"/>
<path d="M334.104 201.383H346.004C346.164 201.385 346.322 201.353 346.469 201.29C346.617 201.228 346.749 201.135 346.859 201.019C346.969 200.903 347.054 200.765 347.108 200.614C347.162 200.464 347.185 200.304 347.175 200.144L347.129 199.298C347.11 198.967 346.966 198.656 346.726 198.427C346.487 198.199 346.169 198.07 345.837 198.066H333.938C333.778 198.065 333.62 198.097 333.473 198.159C333.326 198.221 333.193 198.312 333.083 198.428C332.972 198.543 332.887 198.68 332.831 198.829C332.776 198.979 332.751 199.139 332.759 199.298L332.805 200.144C332.826 200.476 332.971 200.788 333.212 201.018C333.453 201.248 333.771 201.378 334.104 201.383Z" fill="#817C7C"/>
<path d="M375.146 200.446H97.3935C95.8324 200.43 94.3357 199.822 93.2055 198.745C92.0753 197.668 91.3957 196.202 91.3039 194.644L82.9403 27.8094C82.8935 27.0605 83.0017 26.31 83.2581 25.6048C83.5146 24.8996 83.9137 24.2549 84.4307 23.711C84.9476 23.1672 85.5712 22.7358 86.2625 22.4439C86.9537 22.1519 87.6978 22.0058 88.4481 22.0145H366.201C367.761 22.0291 369.258 22.6355 370.388 23.7112C371.518 24.7869 372.198 26.2516 372.29 27.8094L380.654 194.644C380.701 195.393 380.592 196.144 380.336 196.849C380.08 197.555 379.681 198.2 379.164 198.745C378.647 199.289 378.023 199.721 377.332 200.014C376.641 200.307 375.897 200.454 375.146 200.446Z" fill="#606060"/>
<path d="M378.553 200.446H100.808C99.2415 200.436 97.7374 199.831 96.5999 198.753C95.4624 197.676 94.7765 196.207 94.6807 194.644L86.37 27.8092C86.3233 27.0616 86.431 26.3124 86.6866 25.6082C86.9421 24.9041 87.3399 24.2601 87.8552 23.7165C88.3705 23.1728 88.9923 22.7411 89.6817 22.4483C90.3712 22.1554 91.1136 22.0077 91.8626 22.0144H369.608C371.174 22.0229 372.678 22.6263 373.815 23.7022C374.953 24.7782 375.639 26.2463 375.735 27.8092L384.046 194.644C384.092 195.392 383.985 196.141 383.729 196.846C383.474 197.55 383.076 198.195 382.561 198.739C382.046 199.283 381.424 199.716 380.734 200.009C380.045 200.303 379.302 200.452 378.553 200.446Z" fill="#606060"/>
<path d="M102.437 188.803L94.6858 33.6566C94.6578 33.1874 94.7266 32.7175 94.8878 32.2759C95.049 31.8344 95.2993 31.4307 95.6231 31.0899C95.9469 30.7492 96.3372 30.4786 96.7699 30.295C97.2026 30.1114 97.6685 30.0186 98.1385 30.0226H364.173C365.151 30.0306 366.09 30.4106 366.799 31.0855C367.507 31.7604 367.933 32.6797 367.988 33.6566L375.74 188.803C375.769 189.272 375.701 189.742 375.541 190.183C375.38 190.625 375.131 191.029 374.808 191.369C374.485 191.71 374.095 191.981 373.662 192.165C373.23 192.348 372.764 192.441 372.295 192.437H106.253C105.275 192.427 104.337 192.047 103.629 191.372C102.921 190.698 102.495 189.779 102.437 188.803Z" fill="#191919"/>
</g>
<text fill="white" xml:space="preserve" style="white-space: pre" font-family="Proxima Nova" font-size="23.1351" letter-spacing="0em"><tspan x="43.9356" y="322.372">We apologize, but this application is </tspan><tspan x="32.3794" y="350.372">currently not available on your device.</tspan></text>
<text fill="white" xml:space="preserve" style="white-space: pre" font-family="Proxima Nova" font-size="17.994" letter-spacing="0em"><tspan x="70.8912" y="388.773"> Please access it from a desktop or laptop </tspan><tspan x="101.643" y="410.773">computer for the best experience.</tspan></text>
</svg>
