<svg width="425" height="136" viewBox="0 0 425 136" fill="none" xmlns="http://www.w3.org/2000/svg">
<rect width="425" height="136" fill="#1E1E1E"/>
<rect x="-38" y="-82" width="486" height="464" rx="16" fill="white"/>
<rect width="425" height="136" rx="16" fill="#12D8A0" fill-opacity="0.2"/>
<path d="M16.936 40V29.792H13.256V28.64H21.816V29.792H18.136V40H16.936ZM21.9541 40V32H23.0741V33.648C23.2448 33.1147 23.5488 32.6933 23.9861 32.384C24.4235 32.0747 24.8928 31.92 25.3941 31.92C25.6181 31.92 25.8101 31.9413 25.9701 31.984V33.152C25.7781 33.0773 25.5541 33.04 25.2981 33.04C24.7328 33.04 24.2208 33.296 23.7621 33.808C23.3035 34.32 23.0741 35.0453 23.0741 35.984V40H21.9541ZM30.7193 40.16C29.5993 40.16 28.6553 39.7547 27.8873 38.944C27.1193 38.1333 26.7353 37.152 26.7353 36C26.7353 34.848 27.1193 33.8667 27.8873 33.056C28.6553 32.2453 29.5993 31.84 30.7193 31.84C31.3273 31.84 31.8979 31.9787 32.4313 32.256C32.9753 32.5333 33.3913 32.896 33.6793 33.344V32H34.7993V40H33.6793V38.656C33.3913 39.104 32.9753 39.4667 32.4313 39.744C31.8979 40.0213 31.3273 40.16 30.7193 40.16ZM28.7033 38.224C29.2579 38.8213 29.9673 39.12 30.8313 39.12C31.6953 39.12 32.3993 38.8213 32.9433 38.224C33.4979 37.616 33.7753 36.8747 33.7753 36C33.7753 35.1253 33.4979 34.3893 32.9433 33.792C32.3993 33.184 31.6953 32.88 30.8313 32.88C29.9673 32.88 29.2579 33.184 28.7033 33.792C28.1593 34.3893 27.8873 35.1253 27.8873 36C27.8873 36.8747 28.1593 37.616 28.7033 38.224ZM37.5479 40V32H38.6679V33.344C39.2119 32.3413 40.0865 31.84 41.2919 31.84C42.1772 31.84 42.8972 32.1227 43.4519 32.688C44.0172 33.2533 44.2999 34.0213 44.2999 34.992V40H43.1799V35.152C43.1799 34.4587 42.9932 33.9093 42.6199 33.504C42.2572 33.088 41.7719 32.88 41.1639 32.88C40.4385 32.88 39.8412 33.1627 39.3719 33.728C38.9025 34.2827 38.6679 35.0453 38.6679 36.016V40H37.5479ZM49.2589 40.16C48.5015 40.16 47.8455 39.9947 47.2909 39.664C46.7469 39.3227 46.3682 38.832 46.1549 38.192L47.1629 37.776C47.2909 38.2027 47.5522 38.5387 47.9469 38.784C48.3522 39.0293 48.7949 39.152 49.2749 39.152C49.7229 39.152 50.0909 39.0453 50.3789 38.832C50.6775 38.608 50.8269 38.304 50.8269 37.92C50.8269 37.6 50.7095 37.3333 50.4749 37.12C50.2509 36.896 49.8669 36.6933 49.3229 36.512L48.4589 36.24C47.1789 35.8453 46.5389 35.088 46.5389 33.968C46.5389 33.3173 46.7895 32.8 47.2909 32.416C47.8029 32.032 48.4429 31.84 49.2109 31.84C50.4162 31.84 51.2802 32.3093 51.8029 33.248L50.9069 33.808C50.4802 33.1573 49.8935 32.832 49.1469 32.832C48.7522 32.832 48.4055 32.9387 48.1069 33.152C47.8082 33.3547 47.6589 33.6107 47.6589 33.92C47.6589 34.5173 48.0749 34.9493 48.9069 35.216L49.8189 35.504C51.2375 35.952 51.9469 36.7253 51.9469 37.824C51.9469 38.56 51.6962 39.136 51.1949 39.552C50.7042 39.9573 50.0589 40.16 49.2589 40.16ZM54.6246 40V33.056H52.9126V32H54.6246V30.208C54.6246 29.4507 54.8273 28.88 55.2326 28.496C55.6486 28.1013 56.198 27.904 56.8806 27.904C57.3286 27.904 57.7286 27.9733 58.0806 28.112V29.12C57.814 29.0027 57.4726 28.944 57.0566 28.944C56.6086 28.944 56.278 29.0507 56.0646 29.264C55.8513 29.4667 55.7446 29.8133 55.7446 30.304V32H58.0806V33.056H55.7446V40H54.6246ZM62.9258 40.16C61.6991 40.16 60.7071 39.7653 59.9498 38.976C59.1924 38.176 58.8138 37.184 58.8138 36C58.8138 34.8267 59.2031 33.84 59.9818 33.04C60.7604 32.24 61.7524 31.84 62.9578 31.84C64.0351 31.84 64.9311 32.2027 65.6458 32.928C66.3604 33.6533 66.7178 34.64 66.7178 35.888V36.192H59.9658C59.9658 37.024 60.2431 37.7227 60.7978 38.288C61.3524 38.8427 62.0618 39.12 62.9258 39.12C63.5658 39.12 64.0884 38.9973 64.4938 38.752C64.9098 38.496 65.2671 38.1173 65.5658 37.616L66.4778 38.208C65.7204 39.5093 64.5364 40.16 62.9258 40.16ZM60.0618 35.2H65.5498C65.4431 34.4853 65.1498 33.92 64.6698 33.504C64.1898 33.088 63.6031 32.88 62.9098 32.88C62.2164 32.88 61.5978 33.0933 61.0538 33.52C60.5204 33.936 60.1898 34.496 60.0618 35.2ZM68.7823 40V32H69.9023V33.648C70.0729 33.1147 70.3769 32.6933 70.8143 32.384C71.2516 32.0747 71.7209 31.92 72.2223 31.92C72.4463 31.92 72.6383 31.9413 72.7983 31.984V33.152C72.6063 33.0773 72.3823 33.04 72.1263 33.04C71.5609 33.04 71.0489 33.296 70.5903 33.808C70.1316 34.32 69.9023 35.0453 69.9023 35.984V40H68.7823ZM78.359 40V33.056H76.647V32H78.359V30.208C78.359 29.4507 78.5617 28.88 78.967 28.496C79.383 28.1013 79.9323 27.904 80.615 27.904C81.063 27.904 81.463 27.9733 81.815 28.112V29.12C81.5483 29.0027 81.207 28.944 80.791 28.944C80.343 28.944 80.0123 29.0507 79.799 29.264C79.5857 29.4667 79.479 29.8133 79.479 30.304V32H81.815V33.056H79.479V40H78.359ZM83.3916 40V32H84.5116V33.648C84.6823 33.1147 84.9863 32.6933 85.4236 32.384C85.861 32.0747 86.3303 31.92 86.8316 31.92C87.0556 31.92 87.2476 31.9413 87.4076 31.984V33.152C87.2156 33.0773 86.9916 33.04 86.7356 33.04C86.1703 33.04 85.6583 33.296 85.1996 33.808C84.741 34.32 84.5116 35.0453 84.5116 35.984V40H83.3916ZM95.3251 38.96C94.5358 39.76 93.5385 40.16 92.3331 40.16C91.1278 40.16 90.1305 39.76 89.3411 38.96C88.5518 38.1493 88.1571 37.1627 88.1571 36C88.1571 34.8373 88.5518 33.856 89.3411 33.056C90.1305 32.2453 91.1278 31.84 92.3331 31.84C93.5385 31.84 94.5358 32.2453 95.3251 33.056C96.1145 33.856 96.5091 34.8373 96.5091 36C96.5091 37.1627 96.1145 38.1493 95.3251 38.96ZM90.1411 38.224C90.7065 38.8213 91.4371 39.12 92.3331 39.12C93.2291 39.12 93.9545 38.8213 94.5091 38.224C95.0745 37.616 95.3571 36.8747 95.3571 36C95.3571 35.1253 95.0745 34.3893 94.5091 33.792C93.9545 33.184 93.2291 32.88 92.3331 32.88C91.4371 32.88 90.7065 33.184 90.1411 33.792C89.5865 34.3893 89.3091 35.1253 89.3091 36C89.3091 36.8747 89.5865 37.616 90.1411 38.224ZM108.963 40V35.152C108.963 34.4693 108.813 33.92 108.515 33.504C108.227 33.088 107.811 32.88 107.267 32.88C106.552 32.88 105.976 33.168 105.539 33.744C105.112 34.3093 104.899 35.0667 104.899 36.016V40H103.779V35.152C103.779 34.4693 103.629 33.92 103.331 33.504C103.043 33.088 102.632 32.88 102.099 32.88C101.395 32.88 100.819 33.168 100.371 33.744C99.9334 34.3093 99.7148 35.0667 99.7148 36.016V40H98.5948V32H99.7148V33.344C99.9494 32.8747 100.285 32.5067 100.723 32.24C101.16 31.9733 101.656 31.84 102.211 31.84C102.808 31.84 103.32 32 103.747 32.32C104.184 32.64 104.499 33.0827 104.691 33.648C104.893 33.0933 105.224 32.656 105.683 32.336C106.152 32.0053 106.707 31.84 107.347 31.84C108.179 31.84 108.84 32.1333 109.331 32.72C109.832 33.296 110.083 34.0533 110.083 34.992V40H108.963ZM119.938 40.16C118.818 40.16 117.874 39.7547 117.106 38.944C116.338 38.1333 115.954 37.152 115.954 36C115.954 34.848 116.338 33.8667 117.106 33.056C117.874 32.2453 118.818 31.84 119.938 31.84C120.546 31.84 121.117 31.9787 121.65 32.256C122.194 32.5333 122.61 32.896 122.898 33.344V32H124.018V40H122.898V38.656C122.61 39.104 122.194 39.4667 121.65 39.744C121.117 40.0213 120.546 40.16 119.938 40.16ZM117.922 38.224C118.477 38.8213 119.186 39.12 120.05 39.12C120.914 39.12 121.618 38.8213 122.162 38.224C122.717 37.616 122.994 36.8747 122.994 36C122.994 35.1253 122.717 34.3893 122.162 33.792C121.618 33.184 120.914 32.88 120.05 32.88C119.186 32.88 118.477 33.184 117.922 33.792C117.378 34.3893 117.106 35.1253 117.106 36C117.106 36.8747 117.378 37.616 117.922 38.224ZM126.767 40V32H127.887V33.344C128.431 32.3413 129.305 31.84 130.511 31.84C131.396 31.84 132.116 32.1227 132.671 32.688C133.236 33.2533 133.519 34.0213 133.519 34.992V40H132.399V35.152C132.399 34.4587 132.212 33.9093 131.839 33.504C131.476 33.088 130.991 32.88 130.383 32.88C129.657 32.88 129.06 33.1627 128.591 33.728C128.121 34.2827 127.887 35.0453 127.887 36.016V40H126.767ZM137.841 43.344H136.577L138.337 39.6L134.785 32H136.033L138.961 38.352L141.889 32H143.153L137.841 43.344ZM151.394 40L149.266 33.904L147.154 40H146.226L143.49 32H144.642L146.706 38.08L148.834 32H149.698L151.81 38.08L153.89 32H155.058L152.322 40H151.394ZM157.777 40H156.657V28H157.777V33.344C158.321 32.3413 159.196 31.84 160.401 31.84C161.287 31.84 162.007 32.1227 162.561 32.688C163.127 33.2533 163.409 34.0213 163.409 34.992V40H162.289V35.152C162.289 34.4587 162.103 33.9093 161.729 33.504C161.367 33.088 160.881 32.88 160.273 32.88C159.548 32.88 158.951 33.1627 158.481 33.728C158.012 34.2827 157.777 35.0453 157.777 36.016V40ZM169.488 40.16C168.262 40.16 167.27 39.7653 166.512 38.976C165.755 38.176 165.376 37.184 165.376 36C165.376 34.8267 165.766 33.84 166.544 33.04C167.323 32.24 168.315 31.84 169.52 31.84C170.598 31.84 171.494 32.2027 172.208 32.928C172.923 33.6533 173.28 34.64 173.28 35.888V36.192H166.528C166.528 37.024 166.806 37.7227 167.36 38.288C167.915 38.8427 168.624 39.12 169.488 39.12C170.128 39.12 170.651 38.9973 171.056 38.752C171.472 38.496 171.83 38.1173 172.128 37.616L173.04 38.208C172.283 39.5093 171.099 40.16 169.488 40.16ZM166.624 35.2H172.112C172.006 34.4853 171.712 33.92 171.232 33.504C170.752 33.088 170.166 32.88 169.472 32.88C168.779 32.88 168.16 33.0933 167.616 33.52C167.083 33.936 166.752 34.496 166.624 35.2ZM175.345 40V32H176.465V33.648C176.635 33.1147 176.939 32.6933 177.377 32.384C177.814 32.0747 178.283 31.92 178.785 31.92C179.009 31.92 179.201 31.9413 179.361 31.984V33.152C179.169 33.0773 178.945 33.04 178.689 33.04C178.123 33.04 177.611 33.296 177.153 33.808C176.694 34.32 176.465 35.0453 176.465 35.984V40H175.345ZM184.238 40.16C183.012 40.16 182.02 39.7653 181.262 38.976C180.505 38.176 180.126 37.184 180.126 36C180.126 34.8267 180.516 33.84 181.294 33.04C182.073 32.24 183.065 31.84 184.27 31.84C185.348 31.84 186.244 32.2027 186.958 32.928C187.673 33.6533 188.03 34.64 188.03 35.888V36.192H181.278C181.278 37.024 181.556 37.7227 182.11 38.288C182.665 38.8427 183.374 39.12 184.238 39.12C184.878 39.12 185.401 38.9973 185.806 38.752C186.222 38.496 186.58 38.1173 186.878 37.616L187.79 38.208C187.033 39.5093 185.849 40.16 184.238 40.16ZM181.374 35.2H186.862C186.756 34.4853 186.462 33.92 185.982 33.504C185.502 33.088 184.916 32.88 184.222 32.88C183.529 32.88 182.91 33.0933 182.366 33.52C181.833 33.936 181.502 34.496 181.374 35.2ZM196.615 40.08C195.943 40.08 195.394 39.888 194.967 39.504C194.551 39.1093 194.343 38.5333 194.343 37.776V33.056H192.631V32H194.343V29.776H195.463V32H197.799V33.056H195.463V37.68C195.463 38.1707 195.57 38.5227 195.783 38.736C196.007 38.9387 196.343 39.04 196.791 39.04C197.196 39.04 197.532 38.9813 197.799 38.864V39.872C197.447 40.0107 197.052 40.08 196.615 40.08ZM206.013 38.96C205.223 39.76 204.226 40.16 203.021 40.16C201.815 40.16 200.818 39.76 200.029 38.96C199.239 38.1493 198.845 37.1627 198.845 36C198.845 34.8373 199.239 33.856 200.029 33.056C200.818 32.2453 201.815 31.84 203.021 31.84C204.226 31.84 205.223 32.2453 206.013 33.056C206.802 33.856 207.197 34.8373 207.197 36C207.197 37.1627 206.802 38.1493 206.013 38.96ZM200.829 38.224C201.394 38.8213 202.125 39.12 203.021 39.12C203.917 39.12 204.642 38.8213 205.197 38.224C205.762 37.616 206.045 36.8747 206.045 36C206.045 35.1253 205.762 34.3893 205.197 33.792C204.642 33.184 203.917 32.88 203.021 32.88C202.125 32.88 201.394 33.184 200.829 33.792C200.274 34.3893 199.997 35.1253 199.997 36C199.997 36.8747 200.274 37.616 200.829 38.224ZM214.669 43.344H213.405L215.165 39.6L211.613 32H212.861L215.789 38.352L218.717 32H219.981L214.669 43.344ZM227.825 38.96C227.036 39.76 226.038 40.16 224.833 40.16C223.628 40.16 222.63 39.76 221.841 38.96C221.052 38.1493 220.657 37.1627 220.657 36C220.657 34.8373 221.052 33.856 221.841 33.056C222.63 32.2453 223.628 31.84 224.833 31.84C226.038 31.84 227.036 32.2453 227.825 33.056C228.614 33.856 229.009 34.8373 229.009 36C229.009 37.1627 228.614 38.1493 227.825 38.96ZM222.641 38.224C223.206 38.8213 223.937 39.12 224.833 39.12C225.729 39.12 226.454 38.8213 227.009 38.224C227.574 37.616 227.857 36.8747 227.857 36C227.857 35.1253 227.574 34.3893 227.009 33.792C226.454 33.184 225.729 32.88 224.833 32.88C223.937 32.88 223.206 33.184 222.641 33.792C222.086 34.3893 221.809 35.1253 221.809 36C221.809 36.8747 222.086 37.616 222.641 38.224ZM233.895 40.16C233.031 40.16 232.327 39.872 231.783 39.296C231.239 38.72 230.967 37.9573 230.967 37.008V32H232.087V36.848C232.087 37.5413 232.268 38.096 232.631 38.512C232.993 38.9173 233.463 39.12 234.039 39.12C234.732 39.12 235.303 38.8373 235.751 38.272C236.209 37.696 236.439 36.9333 236.439 35.984V32H237.559V40H236.439V38.656C235.895 39.6587 235.047 40.16 233.895 40.16ZM240.314 40V32H241.434V33.648C241.604 33.1147 241.908 32.6933 242.346 32.384C242.783 32.0747 243.252 31.92 243.754 31.92C243.978 31.92 244.17 31.9413 244.33 31.984V33.152C244.138 33.0773 243.914 33.04 243.658 33.04C243.092 33.04 242.58 33.296 242.122 33.808C241.663 34.32 241.434 35.0453 241.434 35.984V40H240.314ZM252.697 40L247.801 28.64H249.161L253.193 38.016L257.225 28.64H258.569L253.689 40H252.697ZM262.691 40.16C261.465 40.16 260.473 39.7653 259.715 38.976C258.958 38.176 258.579 37.184 258.579 36C258.579 34.8267 258.969 33.84 259.747 33.04C260.526 32.24 261.518 31.84 262.723 31.84C263.801 31.84 264.697 32.2027 265.411 32.928C266.126 33.6533 266.483 34.64 266.483 35.888V36.192H259.731C259.731 37.024 260.009 37.7227 260.563 38.288C261.118 38.8427 261.827 39.12 262.691 39.12C263.331 39.12 263.854 38.9973 264.259 38.752C264.675 38.496 265.033 38.1173 265.331 37.616L266.243 38.208C265.486 39.5093 264.302 40.16 262.691 40.16ZM259.827 35.2H265.315C265.209 34.4853 264.915 33.92 264.435 33.504C263.955 33.088 263.369 32.88 262.675 32.88C261.982 32.88 261.363 33.0933 260.819 33.52C260.286 33.936 259.955 34.496 259.827 35.2ZM272.004 40.16C270.777 40.16 269.785 39.7653 269.028 38.976C268.271 38.176 267.892 37.184 267.892 36C267.892 34.8267 268.281 33.84 269.06 33.04C269.839 32.24 270.831 31.84 272.036 31.84C273.113 31.84 274.009 32.2027 274.724 32.928C275.439 33.6533 275.796 34.64 275.796 35.888V36.192H269.044C269.044 37.024 269.321 37.7227 269.876 38.288C270.431 38.8427 271.14 39.12 272.004 39.12C272.644 39.12 273.167 38.9973 273.572 38.752C273.988 38.496 274.345 38.1173 274.644 37.616L275.556 38.208C274.799 39.5093 273.615 40.16 272.004 40.16ZM269.14 35.2H274.628C274.521 34.4853 274.228 33.92 273.748 33.504C273.268 33.088 272.681 32.88 271.988 32.88C271.295 32.88 270.676 33.0933 270.132 33.52C269.599 33.936 269.268 34.496 269.14 35.2ZM277.86 40V32H278.98V33.648C279.151 33.1147 279.455 32.6933 279.892 32.384C280.33 32.0747 280.799 31.92 281.3 31.92C281.524 31.92 281.716 31.9413 281.876 31.984V33.152C281.684 33.0773 281.46 33.04 281.204 33.04C280.639 33.04 280.127 33.296 279.668 33.808C279.21 34.32 278.98 35.0453 278.98 35.984V40H277.86ZM284.641 38.096C285.185 38.672 285.889 38.96 286.753 38.96C287.617 38.96 288.315 38.672 288.849 38.096C289.393 37.52 289.665 36.7947 289.665 35.92C289.665 35.0453 289.393 34.32 288.849 33.744C288.315 33.168 287.617 32.88 286.753 32.88C285.889 32.88 285.185 33.168 284.641 33.744C284.107 34.32 283.841 35.0453 283.841 35.92C283.841 36.7947 284.107 37.52 284.641 38.096ZM286.737 43.504C285.873 43.504 285.11 43.3387 284.449 43.008C283.787 42.6773 283.291 42.2613 282.961 41.76L283.841 41.008C284.534 41.9787 285.499 42.464 286.737 42.464C287.505 42.464 288.166 42.2187 288.721 41.728C289.286 41.2373 289.569 40.5013 289.569 39.52V38.496C289.27 38.944 288.859 39.3067 288.337 39.584C287.814 39.8613 287.249 40 286.641 40C285.51 40 284.566 39.6107 283.809 38.832C283.062 38.0427 282.689 37.072 282.689 35.92C282.689 34.768 283.062 33.8027 283.809 33.024C284.566 32.2347 285.51 31.84 286.641 31.84C287.249 31.84 287.814 31.9787 288.337 32.256C288.859 32.5333 289.27 32.896 289.569 33.344V32H290.689V39.584C290.689 40.8427 290.321 41.808 289.585 42.48C288.849 43.1627 287.899 43.504 286.737 43.504ZM296.895 40.16C295.668 40.16 294.676 39.7653 293.919 38.976C293.161 38.176 292.783 37.184 292.783 36C292.783 34.8267 293.172 33.84 293.951 33.04C294.729 32.24 295.721 31.84 296.927 31.84C298.004 31.84 298.9 32.2027 299.615 32.928C300.329 33.6533 300.687 34.64 300.687 35.888V36.192H293.935C293.935 37.024 294.212 37.7227 294.767 38.288C295.321 38.8427 296.031 39.12 296.895 39.12C297.535 39.12 298.057 38.9973 298.463 38.752C298.879 38.496 299.236 38.1173 299.535 37.616L300.447 38.208C299.689 39.5093 298.505 40.16 296.895 40.16ZM294.031 35.2H299.519C299.412 34.4853 299.119 33.92 298.639 33.504C298.159 33.088 297.572 32.88 296.879 32.88C296.185 32.88 295.567 33.0933 295.023 33.52C294.489 33.936 294.159 34.496 294.031 35.2ZM309.985 40.16C308.865 40.16 307.921 39.7547 307.153 38.944C306.385 38.1333 306.001 37.152 306.001 36C306.001 34.848 306.385 33.8667 307.153 33.056C307.921 32.2453 308.865 31.84 309.985 31.84C310.593 31.84 311.164 31.9787 311.697 32.256C312.241 32.5333 312.657 32.896 312.945 33.344V32H314.065V40H312.945V38.656C312.657 39.104 312.241 39.4667 311.697 39.744C311.164 40.0213 310.593 40.16 309.985 40.16ZM307.969 38.224C308.524 38.8213 309.233 39.12 310.097 39.12C310.961 39.12 311.665 38.8213 312.209 38.224C312.764 37.616 313.041 36.8747 313.041 36C313.041 35.1253 312.764 34.3893 312.209 33.792C311.665 33.184 310.961 32.88 310.097 32.88C309.233 32.88 308.524 33.184 307.969 33.792C307.425 34.3893 307.153 35.1253 307.153 36C307.153 36.8747 307.425 37.616 307.969 38.224ZM320.318 40.16C319.112 40.16 318.115 39.76 317.326 38.96C316.536 38.1493 316.142 37.1627 316.142 36C316.142 34.8373 316.536 33.856 317.326 33.056C318.115 32.2453 319.112 31.84 320.318 31.84C321.128 31.84 321.848 32.0267 322.478 32.4C323.118 32.7733 323.619 33.2853 323.982 33.936L323.006 34.496C322.75 33.9947 322.387 33.6 321.918 33.312C321.459 33.024 320.926 32.88 320.318 32.88C319.422 32.88 318.691 33.184 318.126 33.792C317.571 34.3893 317.294 35.1253 317.294 36C317.294 36.8747 317.571 37.616 318.126 38.224C318.691 38.8213 319.422 39.12 320.318 39.12C320.926 39.12 321.459 38.976 321.918 38.688C322.387 38.4 322.75 38.0053 323.006 37.504L323.982 38.064C323.619 38.7147 323.118 39.2267 322.478 39.6C321.848 39.9733 321.128 40.16 320.318 40.16ZM329.396 40.16C328.19 40.16 327.193 39.76 326.404 38.96C325.614 38.1493 325.22 37.1627 325.22 36C325.22 34.8373 325.614 33.856 326.404 33.056C327.193 32.2453 328.19 31.84 329.396 31.84C330.206 31.84 330.926 32.0267 331.556 32.4C332.196 32.7733 332.697 33.2853 333.06 33.936L332.084 34.496C331.828 33.9947 331.465 33.6 330.996 33.312C330.537 33.024 330.004 32.88 329.396 32.88C328.5 32.88 327.769 33.184 327.204 33.792C326.649 34.3893 326.372 35.1253 326.372 36C326.372 36.8747 326.649 37.616 327.204 38.224C327.769 38.8213 328.5 39.12 329.396 39.12C330.004 39.12 330.537 38.976 330.996 38.688C331.465 38.4 331.828 38.0053 332.084 37.504L333.06 38.064C332.697 38.7147 332.196 39.2267 331.556 39.6C330.926 39.9733 330.206 40.16 329.396 40.16ZM341.466 38.96C340.676 39.76 339.679 40.16 338.474 40.16C337.268 40.16 336.271 39.76 335.482 38.96C334.692 38.1493 334.298 37.1627 334.298 36C334.298 34.8373 334.692 33.856 335.482 33.056C336.271 32.2453 337.268 31.84 338.474 31.84C339.679 31.84 340.676 32.2453 341.466 33.056C342.255 33.856 342.65 34.8373 342.65 36C342.65 37.1627 342.255 38.1493 341.466 38.96ZM336.282 38.224C336.847 38.8213 337.578 39.12 338.474 39.12C339.37 39.12 340.095 38.8213 340.65 38.224C341.215 37.616 341.498 36.8747 341.498 36C341.498 35.1253 341.215 34.3893 340.65 33.792C340.095 33.184 339.37 32.88 338.474 32.88C337.578 32.88 336.847 33.184 336.282 33.792C335.727 34.3893 335.45 35.1253 335.45 36C335.45 36.8747 335.727 37.616 336.282 38.224ZM347.535 40.16C346.671 40.16 345.967 39.872 345.423 39.296C344.879 38.72 344.607 37.9573 344.607 37.008V32H345.727V36.848C345.727 37.5413 345.909 38.096 346.271 38.512C346.634 38.9173 347.103 39.12 347.679 39.12C348.373 39.12 348.943 38.8373 349.391 38.272C349.85 37.696 350.079 36.9333 350.079 35.984V32H351.199V40H350.079V38.656C349.535 39.6587 348.687 40.16 347.535 40.16ZM353.954 40V32H355.074V33.344C355.618 32.3413 356.493 31.84 357.698 31.84C358.583 31.84 359.303 32.1227 359.858 32.688C360.423 33.2533 360.706 34.0213 360.706 34.992V40H359.586V35.152C359.586 34.4587 359.399 33.9093 359.026 33.504C358.663 33.088 358.178 32.88 357.57 32.88C356.845 32.88 356.247 33.1627 355.778 33.728C355.309 34.2827 355.074 35.0453 355.074 36.016V40H353.954ZM366.099 40.08C365.427 40.08 364.878 39.888 364.451 39.504C364.035 39.1093 363.827 38.5333 363.827 37.776V33.056H362.115V32H363.827V29.776H364.947V32H367.283V33.056H364.947V37.68C364.947 38.1707 365.054 38.5227 365.267 38.736C365.491 38.9387 365.827 39.04 366.275 39.04C366.681 39.04 367.017 38.9813 367.283 38.864V39.872C366.931 40.0107 366.537 40.08 366.099 40.08ZM14.376 60V52H15.496V53.344C16.04 52.3413 16.9147 51.84 18.12 51.84C19.0053 51.84 19.7253 52.1227 20.28 52.688C20.8453 53.2533 21.128 54.0213 21.128 54.992V60H20.008V55.152C20.008 54.4587 19.8213 53.9093 19.448 53.504C19.0853 53.088 18.6 52.88 17.992 52.88C17.2667 52.88 16.6693 53.1627 16.2 53.728C15.7307 54.2827 15.496 55.0453 15.496 56.016V60H14.376ZM26.551 60.16C25.687 60.16 24.983 59.872 24.439 59.296C23.895 58.72 23.623 57.9573 23.623 57.008V52H24.743V56.848C24.743 57.5413 24.9243 58.096 25.287 58.512C25.6497 58.9173 26.119 59.12 26.695 59.12C27.3883 59.12 27.959 58.8373 28.407 58.272C28.8657 57.696 29.095 56.9333 29.095 55.984V52H30.215V60H29.095V58.656C28.551 59.6587 27.703 60.16 26.551 60.16ZM43.3378 60V55.152C43.3378 54.4693 43.1884 53.92 42.8898 53.504C42.6018 53.088 42.1858 52.88 41.6418 52.88C40.9271 52.88 40.3511 53.168 39.9138 53.744C39.4871 54.3093 39.2738 55.0667 39.2738 56.016V60H38.1538V55.152C38.1538 54.4693 38.0044 53.92 37.7058 53.504C37.4178 53.088 37.0071 52.88 36.4738 52.88C35.7698 52.88 35.1938 53.168 34.7458 53.744C34.3084 54.3093 34.0898 55.0667 34.0898 56.016V60H32.9698V52H34.0898V53.344C34.3244 52.8747 34.6604 52.5067 35.0978 52.24C35.5351 51.9733 36.0311 51.84 36.5858 51.84C37.1831 51.84 37.6951 52 38.1218 52.32C38.5591 52.64 38.8738 53.0827 39.0658 53.648C39.2684 53.0933 39.5991 52.656 40.0578 52.336C40.5271 52.0053 41.0818 51.84 41.7218 51.84C42.5538 51.84 43.2151 52.1333 43.7058 52.72C44.2071 53.296 44.4578 54.0533 44.4578 54.992V60H43.3378ZM51.1591 60.16C50.5511 60.16 49.9751 60.0213 49.4311 59.744C48.8978 59.4667 48.4871 59.104 48.1991 58.656V60H47.0791V48H48.1991V53.344C48.4871 52.896 48.8978 52.5333 49.4311 52.256C49.9751 51.9787 50.5511 51.84 51.1591 51.84C52.2791 51.84 53.2231 52.2453 53.9911 53.056C54.7591 53.8667 55.1431 54.848 55.1431 56C55.1431 57.152 54.7591 58.1333 53.9911 58.944C53.2231 59.7547 52.2791 60.16 51.1591 60.16ZM48.9191 58.224C49.4738 58.8213 50.1831 59.12 51.0471 59.12C51.9111 59.12 52.6151 58.8213 53.1591 58.224C53.7138 57.616 53.9911 56.8747 53.9911 56C53.9911 55.1253 53.7138 54.3893 53.1591 53.792C52.6151 53.184 51.9111 52.88 51.0471 52.88C50.1831 52.88 49.4738 53.184 48.9191 53.792C48.3751 54.3893 48.1031 55.1253 48.1031 56C48.1031 56.8747 48.3751 57.616 48.9191 58.224ZM60.6758 60.16C59.4491 60.16 58.4571 59.7653 57.6998 58.976C56.9424 58.176 56.5638 57.184 56.5638 56C56.5638 54.8267 56.9531 53.84 57.7318 53.04C58.5104 52.24 59.5024 51.84 60.7078 51.84C61.7851 51.84 62.6811 52.2027 63.3958 52.928C64.1104 53.6533 64.4678 54.64 64.4678 55.888V56.192H57.7158C57.7158 57.024 57.9931 57.7227 58.5478 58.288C59.1024 58.8427 59.8118 59.12 60.6758 59.12C61.3158 59.12 61.8384 58.9973 62.2438 58.752C62.6598 58.496 63.0171 58.1173 63.3158 57.616L64.2278 58.208C63.4704 59.5093 62.2864 60.16 60.6758 60.16ZM57.8118 55.2H63.2998C63.1931 54.4853 62.8998 53.92 62.4198 53.504C61.9398 53.088 61.3531 52.88 60.6598 52.88C59.9664 52.88 59.3478 53.0933 58.8038 53.52C58.2704 53.936 57.9398 54.496 57.8118 55.2ZM66.5323 60V52H67.6523V53.648C67.8229 53.1147 68.1269 52.6933 68.5643 52.384C69.0016 52.0747 69.4709 51.92 69.9723 51.92C70.1963 51.92 70.3883 51.9413 70.5483 51.984V53.152C70.3563 53.0773 70.1323 53.04 69.8763 53.04C69.3109 53.04 68.7989 53.296 68.3403 53.808C67.8816 54.32 67.6523 55.0453 67.6523 55.984V60H66.5323ZM72.7036 59.808C72.501 60.0213 72.2556 60.128 71.9676 60.128C71.6796 60.128 71.429 60.0213 71.2156 59.808C71.013 59.5947 70.9116 59.344 70.9116 59.056C70.9116 58.768 71.013 58.5173 71.2156 58.304C71.429 58.0907 71.6796 57.984 71.9676 57.984C72.2556 57.984 72.501 58.0907 72.7036 58.304C72.917 58.5173 73.0236 58.768 73.0236 59.056C73.0236 59.344 72.917 59.5947 72.7036 59.808ZM82.3878 60.192C81.4704 60.192 80.6544 60 79.9398 59.616C79.2251 59.2213 78.7344 58.7307 78.4678 58.144L79.4758 57.424C80.1478 58.5013 81.1238 59.04 82.4038 59.04C83.0651 59.04 83.6091 58.8693 84.0358 58.528C84.4731 58.1867 84.6918 57.7333 84.6918 57.168C84.6918 56.2187 84.1424 55.5307 83.0438 55.104L81.3638 54.464C80.4784 54.1333 79.8384 53.728 79.4438 53.248C79.0491 52.768 78.8518 52.1387 78.8518 51.36C78.8518 50.4853 79.1771 49.7813 79.8278 49.248C80.4891 48.7147 81.3211 48.448 82.3238 48.448C83.0171 48.448 83.6411 48.592 84.1958 48.88C84.7611 49.168 85.2091 49.5413 85.5398 50L84.5958 50.768C83.9451 49.9893 83.1718 49.6 82.2758 49.6C81.6464 49.6 81.1184 49.7653 80.6918 50.096C80.2758 50.416 80.0678 50.832 80.0678 51.344C80.0678 51.8453 80.1958 52.24 80.4518 52.528C80.7184 52.8053 81.1558 53.0613 81.7638 53.296L83.2678 53.872C84.1531 54.2133 84.8144 54.64 85.2518 55.152C85.6891 55.664 85.9078 56.3253 85.9078 57.136C85.9078 58.0747 85.5824 58.8213 84.9318 59.376C84.2811 59.92 83.4331 60.192 82.3878 60.192ZM91.457 60.16C90.2303 60.16 89.2383 59.7653 88.481 58.976C87.7237 58.176 87.345 57.184 87.345 56C87.345 54.8267 87.7343 53.84 88.513 53.04C89.2917 52.24 90.2837 51.84 91.489 51.84C92.5663 51.84 93.4623 52.2027 94.177 52.928C94.8917 53.6533 95.249 54.64 95.249 55.888V56.192H88.497C88.497 57.024 88.7743 57.7227 89.329 58.288C89.8837 58.8427 90.593 59.12 91.457 59.12C92.097 59.12 92.6197 58.9973 93.025 58.752C93.441 58.496 93.7983 58.1173 94.097 57.616L95.009 58.208C94.2517 59.5093 93.0677 60.16 91.457 60.16ZM88.593 55.2H94.081C93.9743 54.4853 93.681 53.92 93.201 53.504C92.721 53.088 92.1343 52.88 91.441 52.88C90.7477 52.88 90.129 53.0933 89.585 53.52C89.0517 53.936 88.721 54.496 88.593 55.2ZM97.3135 60V48H98.4335V60H97.3135ZM104.645 60.16C103.418 60.16 102.426 59.7653 101.669 58.976C100.911 58.176 100.533 57.184 100.533 56C100.533 54.8267 100.922 53.84 101.701 53.04C102.479 52.24 103.471 51.84 104.677 51.84C105.754 51.84 106.65 52.2027 107.365 52.928C108.079 53.6533 108.437 54.64 108.437 55.888V56.192H101.685C101.685 57.024 101.962 57.7227 102.517 58.288C103.071 58.8427 103.781 59.12 104.645 59.12C105.285 59.12 105.807 58.9973 106.213 58.752C106.629 58.496 106.986 58.1173 107.285 57.616L108.197 58.208C107.439 59.5093 106.255 60.16 104.645 60.16ZM101.781 55.2H107.269C107.162 54.4853 106.869 53.92 106.389 53.504C105.909 53.088 105.322 52.88 104.629 52.88C103.935 52.88 103.317 53.0933 102.773 53.52C102.239 53.936 101.909 54.496 101.781 55.2ZM114.005 60.16C112.8 60.16 111.802 59.76 111.013 58.96C110.224 58.1493 109.829 57.1627 109.829 56C109.829 54.8373 110.224 53.856 111.013 53.056C111.802 52.2453 112.8 51.84 114.005 51.84C114.816 51.84 115.536 52.0267 116.165 52.4C116.805 52.7733 117.306 53.2853 117.669 53.936L116.693 54.496C116.437 53.9947 116.074 53.6 115.605 53.312C115.146 53.024 114.613 52.88 114.005 52.88C113.109 52.88 112.378 53.184 111.813 53.792C111.258 54.3893 110.981 55.1253 110.981 56C110.981 56.8747 111.258 57.616 111.813 58.224C112.378 58.8213 113.109 59.12 114.005 59.12C114.613 59.12 115.146 58.976 115.605 58.688C116.074 58.4 116.437 58.0053 116.693 57.504L117.669 58.064C117.306 58.7147 116.805 59.2267 116.165 59.6C115.536 59.9733 114.816 60.16 114.005 60.16ZM122.443 60.08C121.771 60.08 121.222 59.888 120.795 59.504C120.379 59.1093 120.171 58.5333 120.171 57.776V53.056H118.459V52H120.171V49.776H121.291V52H123.627V53.056H121.291V57.68C121.291 58.1707 121.398 58.5227 121.611 58.736C121.835 58.9387 122.171 59.04 122.619 59.04C123.024 59.04 123.36 58.9813 123.627 58.864V59.872C123.275 60.0107 122.88 60.08 122.443 60.08ZM129.584 60V48.64H136.096V49.792H130.8V53.584H134.992V54.736H130.8V60H129.584ZM138.037 60V48.64H139.253V60H138.037ZM142.428 60V48.64H145.532C147.313 48.64 148.774 49.1787 149.916 50.256C151.068 51.3227 151.644 52.6773 151.644 54.32C151.644 55.9627 151.068 57.3227 149.916 58.4C148.774 59.4667 147.313 60 145.532 60H142.428ZM143.644 58.848H145.532C146.993 58.848 148.172 58.4267 149.068 57.584C149.964 56.7307 150.412 55.6427 150.412 54.32C150.412 52.9973 149.964 51.9147 149.068 51.072C148.172 50.2187 146.993 49.792 145.532 49.792H143.644V58.848ZM153.99 60V48.64H160.47V49.792H155.206V53.584H159.51V54.736H155.206V58.848H160.47V60H153.99ZM162.85 60V48.64H164.066V58.848H169.746V60H162.85ZM171.6 60V48.64H172.816V60H171.6ZM178.342 60V49.792H174.662V48.64H183.222V49.792H179.542V60H178.342ZM188.236 60V55.184L183.756 48.64H185.228L188.844 53.936L192.46 48.64H193.932L189.436 55.2V60H188.236ZM199.1 60V48.64H202.684C203.729 48.64 204.556 48.9227 205.164 49.488C205.772 50.0533 206.076 50.7413 206.076 51.552C206.076 52.6613 205.644 53.4667 204.78 53.968C206.145 54.4267 206.828 55.3333 206.828 56.688C206.828 57.6587 206.47 58.4533 205.756 59.072C205.052 59.6907 204.113 60 202.94 60H199.1ZM200.316 58.896H203.068C203.9 58.896 204.534 58.704 204.972 58.32C205.409 57.936 205.628 57.424 205.628 56.784C205.628 56.144 205.409 55.632 204.972 55.248C204.545 54.8533 203.916 54.656 203.084 54.656H200.316V58.896ZM200.316 53.6H202.764C203.425 53.6 203.942 53.424 204.316 53.072C204.689 52.7093 204.876 52.2453 204.876 51.68C204.876 51.1467 204.684 50.6933 204.3 50.32C203.926 49.936 203.414 49.744 202.764 49.744H200.316V53.6ZM207.534 60L212.59 48.64H213.566L218.638 60H217.358L215.774 56.464H210.35L208.782 60H207.534ZM213.054 50.352L210.846 55.328H215.278L213.054 50.352ZM229.886 60H228.814L221.566 50.704V60H220.35V48.64H221.422L228.67 57.936V48.64H229.886V60ZM240.637 60L234.253 54.512V60H233.053V48.64H234.253V53.616L239.485 48.64H241.133L235.485 54.032L242.445 60H240.637ZM250.235 60.16C249.115 60.16 248.171 59.7547 247.403 58.944C246.635 58.1333 246.251 57.152 246.251 56C246.251 54.848 246.635 53.8667 247.403 53.056C248.171 52.2453 249.115 51.84 250.235 51.84C250.843 51.84 251.414 51.9787 251.947 52.256C252.491 52.5333 252.907 52.896 253.195 53.344V52H254.315V60H253.195V58.656C252.907 59.104 252.491 59.4667 251.947 59.744C251.414 60.0213 250.843 60.16 250.235 60.16ZM248.219 58.224C248.774 58.8213 249.483 59.12 250.347 59.12C251.211 59.12 251.915 58.8213 252.459 58.224C253.014 57.616 253.291 56.8747 253.291 56C253.291 55.1253 253.014 54.3893 252.459 53.792C251.915 53.184 251.211 52.88 250.347 52.88C249.483 52.88 248.774 53.184 248.219 53.792C247.675 54.3893 247.403 55.1253 247.403 56C247.403 56.8747 247.675 57.616 248.219 58.224ZM259.4 60.16C258.642 60.16 257.986 59.9947 257.432 59.664C256.888 59.3227 256.509 58.832 256.296 58.192L257.304 57.776C257.432 58.2027 257.693 58.5387 258.088 58.784C258.493 59.0293 258.936 59.152 259.416 59.152C259.864 59.152 260.232 59.0453 260.52 58.832C260.818 58.608 260.968 58.304 260.968 57.92C260.968 57.6 260.85 57.3333 260.616 57.12C260.392 56.896 260.008 56.6933 259.464 56.512L258.6 56.24C257.32 55.8453 256.68 55.088 256.68 53.968C256.68 53.3173 256.93 52.8 257.432 52.416C257.944 52.032 258.584 51.84 259.352 51.84C260.557 51.84 261.421 52.3093 261.944 53.248L261.048 53.808C260.621 53.1573 260.034 52.832 259.288 52.832C258.893 52.832 258.546 52.9387 258.248 53.152C257.949 53.3547 257.799 53.6107 257.799 53.92C257.799 54.5173 258.216 54.9493 259.048 55.216L259.96 55.504C261.378 55.952 262.088 56.7253 262.088 57.824C262.088 58.56 261.837 59.136 261.336 59.552C260.845 59.9573 260.2 60.16 259.4 60.16ZM270.74 60.08C270.068 60.08 269.519 59.888 269.092 59.504C268.676 59.1093 268.468 58.5333 268.468 57.776V53.056H266.756V52H268.468V49.776H269.588V52H271.924V53.056H269.588V57.68C269.588 58.1707 269.695 58.5227 269.908 58.736C270.132 58.9387 270.468 59.04 270.916 59.04C271.321 59.04 271.657 58.9813 271.924 58.864V59.872C271.572 60.0107 271.177 60.08 270.74 60.08ZM274.871 60H273.751V48H274.871V53.344C275.415 52.3413 276.29 51.84 277.495 51.84C278.38 51.84 279.1 52.1227 279.655 52.688C280.22 53.2533 280.503 54.0213 280.503 54.992V60H279.383V55.152C279.383 54.4587 279.196 53.9093 278.823 53.504C278.46 53.088 277.975 52.88 277.367 52.88C276.642 52.88 276.044 53.1627 275.575 53.728C275.106 54.2827 274.871 55.0453 274.871 56.016V60ZM286.582 60.16C285.355 60.16 284.363 59.7653 283.606 58.976C282.849 58.176 282.47 57.184 282.47 56C282.47 54.8267 282.859 53.84 283.638 53.04C284.417 52.24 285.409 51.84 286.614 51.84C287.691 51.84 288.587 52.2027 289.302 52.928C290.017 53.6533 290.374 54.64 290.374 55.888V56.192H283.622C283.622 57.024 283.899 57.7227 284.454 58.288C285.009 58.8427 285.718 59.12 286.582 59.12C287.222 59.12 287.745 58.9973 288.15 58.752C288.566 58.496 288.923 58.1173 289.222 57.616L290.134 58.208C289.377 59.5093 288.193 60.16 286.582 60.16ZM283.718 55.2H289.206C289.099 54.4853 288.806 53.92 288.326 53.504C287.846 53.088 287.259 52.88 286.566 52.88C285.873 52.88 285.254 53.0933 284.71 53.52C284.177 53.936 283.846 54.496 283.718 55.2ZM299.672 60.16C298.552 60.16 297.608 59.7547 296.84 58.944C296.072 58.1333 295.688 57.152 295.688 56C295.688 54.848 296.072 53.8667 296.84 53.056C297.608 52.2453 298.552 51.84 299.672 51.84C300.28 51.84 300.851 51.9787 301.384 52.256C301.928 52.5333 302.344 52.896 302.632 53.344V48H303.752V60H302.632V58.656C302.344 59.104 301.928 59.4667 301.384 59.744C300.851 60.0213 300.28 60.16 299.672 60.16ZM297.656 58.224C298.211 58.8213 298.92 59.12 299.784 59.12C300.648 59.12 301.352 58.8213 301.896 58.224C302.451 57.616 302.728 56.8747 302.728 56C302.728 55.1253 302.451 54.3893 301.896 53.792C301.352 53.184 300.648 52.88 299.784 52.88C298.92 52.88 298.211 53.184 297.656 53.792C297.112 54.3893 296.84 55.1253 296.84 56C296.84 56.8747 297.112 57.616 297.656 58.224ZM309.957 60.16C308.73 60.16 307.738 59.7653 306.981 58.976C306.224 58.176 305.845 57.184 305.845 56C305.845 54.8267 306.234 53.84 307.013 53.04C307.792 52.24 308.784 51.84 309.989 51.84C311.066 51.84 311.962 52.2027 312.677 52.928C313.392 53.6533 313.749 54.64 313.749 55.888V56.192H306.997C306.997 57.024 307.274 57.7227 307.829 58.288C308.384 58.8427 309.093 59.12 309.957 59.12C310.597 59.12 311.12 58.9973 311.525 58.752C311.941 58.496 312.298 58.1173 312.597 57.616L313.509 58.208C312.752 59.5093 311.568 60.16 309.957 60.16ZM307.093 55.2H312.581C312.474 54.4853 312.181 53.92 311.701 53.504C311.221 53.088 310.634 52.88 309.941 52.88C309.248 52.88 308.629 53.0933 308.085 53.52C307.552 53.936 307.221 54.496 307.093 55.2ZM318.15 60.16C317.392 60.16 316.736 59.9947 316.182 59.664C315.638 59.3227 315.259 58.832 315.046 58.192L316.054 57.776C316.182 58.2027 316.443 58.5387 316.838 58.784C317.243 59.0293 317.686 59.152 318.166 59.152C318.614 59.152 318.982 59.0453 319.27 58.832C319.568 58.608 319.718 58.304 319.718 57.92C319.718 57.6 319.6 57.3333 319.366 57.12C319.142 56.896 318.758 56.6933 318.214 56.512L317.35 56.24C316.07 55.8453 315.43 55.088 315.43 53.968C315.43 53.3173 315.68 52.8 316.182 52.416C316.694 52.032 317.334 51.84 318.102 51.84C319.307 51.84 320.171 52.3093 320.694 53.248L319.798 53.808C319.371 53.1573 318.784 52.832 318.038 52.832C317.643 52.832 317.296 52.9387 316.998 53.152C316.699 53.3547 316.549 53.6107 316.549 53.92C316.549 54.5173 316.966 54.9493 317.798 55.216L318.71 55.504C320.128 55.952 320.838 56.7253 320.838 57.824C320.838 58.56 320.587 59.136 320.086 59.552C319.595 59.9573 318.95 60.16 318.15 60.16ZM325.771 60.08C325.099 60.08 324.55 59.888 324.123 59.504C323.707 59.1093 323.499 58.5333 323.499 57.776V53.056H321.787V52H323.499V49.776H324.619V52H326.955V53.056H324.619V57.68C324.619 58.1707 324.726 58.5227 324.939 58.736C325.163 58.9387 325.499 59.04 325.947 59.04C326.353 59.04 326.689 58.9813 326.955 58.864V59.872C326.603 60.0107 326.209 60.08 325.771 60.08ZM329.358 49.6C329.113 49.6 328.905 49.52 328.734 49.36C328.574 49.1893 328.494 48.9867 328.494 48.752C328.494 48.5173 328.574 48.32 328.734 48.16C328.905 47.9893 329.113 47.904 329.358 47.904C329.593 47.904 329.79 47.9893 329.95 48.16C330.11 48.32 330.19 48.5173 330.19 48.752C330.19 48.9867 330.11 49.1893 329.95 49.36C329.79 49.52 329.593 49.6 329.358 49.6ZM328.782 60V52H329.902V60H328.782ZM332.657 60V52H333.777V53.344C334.321 52.3413 335.196 51.84 336.401 51.84C337.287 51.84 338.007 52.1227 338.561 52.688C339.127 53.2533 339.409 54.0213 339.409 54.992V60H338.289V55.152C338.289 54.4587 338.103 53.9093 337.729 53.504C337.367 53.088 336.881 52.88 336.273 52.88C335.548 52.88 334.951 53.1627 334.481 53.728C334.012 54.2827 333.777 55.0453 333.777 56.016V60H332.657ZM345.344 60.16C344.224 60.16 343.28 59.7547 342.512 58.944C341.744 58.1333 341.36 57.152 341.36 56C341.36 54.848 341.744 53.8667 342.512 53.056C343.28 52.2453 344.224 51.84 345.344 51.84C345.952 51.84 346.523 51.9787 347.056 52.256C347.6 52.5333 348.016 52.896 348.304 53.344V52H349.424V60H348.304V58.656C348.016 59.104 347.6 59.4667 347.056 59.744C346.523 60.0213 345.952 60.16 345.344 60.16ZM343.328 58.224C343.883 58.8213 344.592 59.12 345.456 59.12C346.32 59.12 347.024 58.8213 347.568 58.224C348.123 57.616 348.4 56.8747 348.4 56C348.4 55.1253 348.123 54.3893 347.568 53.792C347.024 53.184 346.32 52.88 345.456 52.88C344.592 52.88 343.883 53.184 343.328 53.792C342.784 54.3893 342.512 55.1253 342.512 56C342.512 56.8747 342.784 57.616 343.328 58.224ZM355.037 60.08C354.365 60.08 353.816 59.888 353.389 59.504C352.973 59.1093 352.765 58.5333 352.765 57.776V53.056H351.053V52H352.765V49.776H353.885V52H356.221V53.056H353.885V57.68C353.885 58.1707 353.992 58.5227 354.205 58.736C354.429 58.9387 354.765 59.04 355.213 59.04C355.618 59.04 355.954 58.9813 356.221 58.864V59.872C355.869 60.0107 355.474 60.08 355.037 60.08ZM358.624 49.6C358.379 49.6 358.171 49.52 358 49.36C357.84 49.1893 357.76 48.9867 357.76 48.752C357.76 48.5173 357.84 48.32 358 48.16C358.171 47.9893 358.379 47.904 358.624 47.904C358.859 47.904 359.056 47.9893 359.216 48.16C359.376 48.32 359.456 48.5173 359.456 48.752C359.456 48.9867 359.376 49.1893 359.216 49.36C359.056 49.52 358.859 49.6 358.624 49.6ZM358.048 60V52H359.168V60H358.048ZM368.419 58.96C367.63 59.76 366.632 60.16 365.427 60.16C364.222 60.16 363.224 59.76 362.435 58.96C361.646 58.1493 361.251 57.1627 361.251 56C361.251 54.8373 361.646 53.856 362.435 53.056C363.224 52.2453 364.222 51.84 365.427 51.84C366.632 51.84 367.63 52.2453 368.419 53.056C369.208 53.856 369.603 54.8373 369.603 56C369.603 57.1627 369.208 58.1493 368.419 58.96ZM363.235 58.224C363.8 58.8213 364.531 59.12 365.427 59.12C366.323 59.12 367.048 58.8213 367.603 58.224C368.168 57.616 368.451 56.8747 368.451 56C368.451 55.1253 368.168 54.3893 367.603 53.792C367.048 53.184 366.323 52.88 365.427 52.88C364.531 52.88 363.8 53.184 363.235 53.792C362.68 54.3893 362.403 55.1253 362.403 56C362.403 56.8747 362.68 57.616 363.235 58.224ZM371.689 60V52H372.809V53.344C373.353 52.3413 374.227 51.84 375.433 51.84C376.318 51.84 377.038 52.1227 377.593 52.688C378.158 53.2533 378.441 54.0213 378.441 54.992V60H377.321V55.152C377.321 54.4587 377.134 53.9093 376.761 53.504C376.398 53.088 375.913 52.88 375.305 52.88C374.579 52.88 373.982 53.1627 373.513 53.728C373.043 54.2827 372.809 55.0453 372.809 56.016V60H371.689ZM18.456 80.16C17.848 80.16 17.272 80.0213 16.728 79.744C16.1947 79.4667 15.784 79.104 15.496 78.656V80H14.376V68H15.496V73.344C15.784 72.896 16.1947 72.5333 16.728 72.256C17.272 71.9787 17.848 71.84 18.456 71.84C19.576 71.84 20.52 72.2453 21.288 73.056C22.056 73.8667 22.44 74.848 22.44 76C22.44 77.152 22.056 78.1333 21.288 78.944C20.52 79.7547 19.576 80.16 18.456 80.16ZM16.216 78.224C16.7707 78.8213 17.48 79.12 18.344 79.12C19.208 79.12 19.912 78.8213 20.456 78.224C21.0107 77.616 21.288 76.8747 21.288 76C21.288 75.1253 21.0107 74.3893 20.456 73.792C19.912 73.184 19.208 72.88 18.344 72.88C17.48 72.88 16.7707 73.184 16.216 73.792C15.672 74.3893 15.4 75.1253 15.4 76C15.4 76.8747 15.672 77.616 16.216 78.224ZM27.8286 80.16C26.7086 80.16 25.7646 79.7547 24.9966 78.944C24.2286 78.1333 23.8446 77.152 23.8446 76C23.8446 74.848 24.2286 73.8667 24.9966 73.056C25.7646 72.2453 26.7086 71.84 27.8286 71.84C28.4366 71.84 29.0073 71.9787 29.5406 72.256C30.0846 72.5333 30.5006 72.896 30.7886 73.344V72H31.9086V80H30.7886V78.656C30.5006 79.104 30.0846 79.4667 29.5406 79.744C29.0073 80.0213 28.4366 80.16 27.8286 80.16ZM25.8126 78.224C26.3673 78.8213 27.0766 79.12 27.9406 79.12C28.8046 79.12 29.5086 78.8213 30.0526 78.224C30.6073 77.616 30.8846 76.8747 30.8846 76C30.8846 75.1253 30.6073 74.3893 30.0526 73.792C29.5086 73.184 28.8046 72.88 27.9406 72.88C27.0766 72.88 26.3673 73.184 25.8126 73.792C25.2686 74.3893 24.9966 75.1253 24.9966 76C24.9966 76.8747 25.2686 77.616 25.8126 78.224ZM34.6573 80V72H35.7773V73.344C36.3213 72.3413 37.1959 71.84 38.4013 71.84C39.2866 71.84 40.0066 72.1227 40.5613 72.688C41.1266 73.2533 41.4093 74.0213 41.4093 74.992V80H40.2893V75.152C40.2893 74.4587 40.1026 73.9093 39.7293 73.504C39.3666 73.088 38.8813 72.88 38.2733 72.88C37.5479 72.88 36.9506 73.1627 36.4813 73.728C36.0119 74.2827 35.7773 75.0453 35.7773 76.016V80H34.6573ZM49.8083 80L45.1523 75.92V80H44.0323V68H45.1523V75.152L48.9123 72H50.4963L46.2883 75.52L51.4083 80H49.8083ZM53.8911 79.808C53.6885 80.0213 53.4431 80.128 53.1551 80.128C52.8671 80.128 52.6165 80.0213 52.4031 79.808C52.2005 79.5947 52.0991 79.344 52.0991 79.056C52.0991 78.768 52.2005 78.5173 52.4031 78.304C52.6165 78.0907 52.8671 77.984 53.1551 77.984C53.4431 77.984 53.6885 78.0907 53.8911 78.304C54.1045 78.5173 54.2111 78.768 54.2111 79.056C54.2111 79.344 54.1045 79.5947 53.8911 79.808ZM63.1895 80V75.184L58.7095 68.64H60.1815L63.7975 73.936L67.4135 68.64H68.8855L64.3895 75.2V80H63.1895ZM75.2626 78.96C74.4733 79.76 73.476 80.16 72.2706 80.16C71.0653 80.16 70.068 79.76 69.2786 78.96C68.4893 78.1493 68.0946 77.1627 68.0946 76C68.0946 74.8373 68.4893 73.856 69.2786 73.056C70.068 72.2453 71.0653 71.84 72.2706 71.84C73.476 71.84 74.4733 72.2453 75.2626 73.056C76.052 73.856 76.4466 74.8373 76.4466 76C76.4466 77.1627 76.052 78.1493 75.2626 78.96ZM70.0786 78.224C70.644 78.8213 71.3746 79.12 72.2706 79.12C73.1666 79.12 73.892 78.8213 74.4466 78.224C75.012 77.616 75.2946 76.8747 75.2946 76C75.2946 75.1253 75.012 74.3893 74.4466 73.792C73.892 73.184 73.1666 72.88 72.2706 72.88C71.3746 72.88 70.644 73.184 70.0786 73.792C69.524 74.3893 69.2466 75.1253 69.2466 76C69.2466 76.8747 69.524 77.616 70.0786 78.224ZM81.3323 80.16C80.4683 80.16 79.7643 79.872 79.2203 79.296C78.6763 78.72 78.4043 77.9573 78.4043 77.008V72H79.5243V76.848C79.5243 77.5413 79.7056 78.096 80.0683 78.512C80.4309 78.9173 80.9003 79.12 81.4763 79.12C82.1696 79.12 82.7403 78.8373 83.1883 78.272C83.6469 77.696 83.8763 76.9333 83.8763 75.984V72H84.9963V80H83.8763V78.656C83.3323 79.6587 82.4843 80.16 81.3323 80.16ZM87.751 80V72H88.871V73.648C89.0417 73.1147 89.3457 72.6933 89.783 72.384C90.2203 72.0747 90.6897 71.92 91.191 71.92C91.415 71.92 91.607 71.9413 91.767 71.984V73.152C91.575 73.0773 91.351 73.04 91.095 73.04C90.5297 73.04 90.0177 73.296 89.559 73.808C89.1003 74.32 88.871 75.0453 88.871 75.984V80H87.751ZM100.134 80L95.2381 68.64H96.5981L100.63 78.016L104.662 68.64H106.006L101.126 80H100.134ZM110.129 80.16C108.902 80.16 107.91 79.7653 107.153 78.976C106.396 78.176 106.017 77.184 106.017 76C106.017 74.8267 106.406 73.84 107.185 73.04C107.964 72.24 108.956 71.84 110.161 71.84C111.238 71.84 112.134 72.2027 112.849 72.928C113.564 73.6533 113.921 74.64 113.921 75.888V76.192H107.169C107.169 77.024 107.446 77.7227 108.001 78.288C108.556 78.8427 109.265 79.12 110.129 79.12C110.769 79.12 111.292 78.9973 111.697 78.752C112.113 78.496 112.47 78.1173 112.769 77.616L113.681 78.208C112.924 79.5093 111.74 80.16 110.129 80.16ZM107.265 75.2H112.753C112.646 74.4853 112.353 73.92 111.873 73.504C111.393 73.088 110.806 72.88 110.113 72.88C109.42 72.88 108.801 73.0933 108.257 73.52C107.724 73.936 107.393 74.496 107.265 75.2ZM119.441 80.16C118.215 80.16 117.223 79.7653 116.465 78.976C115.708 78.176 115.329 77.184 115.329 76C115.329 74.8267 115.719 73.84 116.497 73.04C117.276 72.24 118.268 71.84 119.473 71.84C120.551 71.84 121.447 72.2027 122.161 72.928C122.876 73.6533 123.233 74.64 123.233 75.888V76.192H116.481C116.481 77.024 116.759 77.7227 117.313 78.288C117.868 78.8427 118.577 79.12 119.441 79.12C120.081 79.12 120.604 78.9973 121.009 78.752C121.425 78.496 121.783 78.1173 122.081 77.616L122.993 78.208C122.236 79.5093 121.052 80.16 119.441 80.16ZM116.577 75.2H122.065C121.959 74.4853 121.665 73.92 121.185 73.504C120.705 73.088 120.119 72.88 119.425 72.88C118.732 72.88 118.113 73.0933 117.569 73.52C117.036 73.936 116.705 74.496 116.577 75.2ZM125.298 80V72H126.418V73.648C126.589 73.1147 126.893 72.6933 127.33 72.384C127.767 72.0747 128.237 71.92 128.738 71.92C128.962 71.92 129.154 71.9413 129.314 71.984V73.152C129.122 73.0773 128.898 73.04 128.642 73.04C128.077 73.04 127.565 73.296 127.106 73.808C126.647 74.32 126.418 75.0453 126.418 75.984V80H125.298ZM132.078 78.096C132.622 78.672 133.326 78.96 134.19 78.96C135.054 78.96 135.753 78.672 136.286 78.096C136.83 77.52 137.102 76.7947 137.102 75.92C137.102 75.0453 136.83 74.32 136.286 73.744C135.753 73.168 135.054 72.88 134.19 72.88C133.326 72.88 132.622 73.168 132.078 73.744C131.545 74.32 131.278 75.0453 131.278 75.92C131.278 76.7947 131.545 77.52 132.078 78.096ZM134.174 83.504C133.31 83.504 132.548 83.3387 131.886 83.008C131.225 82.6773 130.729 82.2613 130.398 81.76L131.278 81.008C131.972 81.9787 132.937 82.464 134.174 82.464C134.942 82.464 135.604 82.2187 136.158 81.728C136.724 81.2373 137.006 80.5013 137.006 79.52V78.496C136.708 78.944 136.297 79.3067 135.774 79.584C135.252 79.8613 134.686 80 134.078 80C132.948 80 132.004 79.6107 131.246 78.832C130.5 78.0427 130.126 77.072 130.126 75.92C130.126 74.768 130.5 73.8027 131.246 73.024C132.004 72.2347 132.948 71.84 134.078 71.84C134.686 71.84 135.252 71.9787 135.774 72.256C136.297 72.5333 136.708 72.896 137.006 73.344V72H138.126V79.584C138.126 80.8427 137.758 81.808 137.022 82.48C136.286 83.1627 135.337 83.504 134.174 83.504ZM144.332 80.16C143.105 80.16 142.113 79.7653 141.356 78.976C140.599 78.176 140.22 77.184 140.22 76C140.22 74.8267 140.609 73.84 141.388 73.04C142.167 72.24 143.159 71.84 144.364 71.84C145.441 71.84 146.337 72.2027 147.052 72.928C147.767 73.6533 148.124 74.64 148.124 75.888V76.192H141.372C141.372 77.024 141.649 77.7227 142.204 78.288C142.759 78.8427 143.468 79.12 144.332 79.12C144.972 79.12 145.495 78.9973 145.9 78.752C146.316 78.496 146.673 78.1173 146.972 77.616L147.884 78.208C147.127 79.5093 145.943 80.16 144.332 80.16ZM141.468 75.2H146.956C146.849 74.4853 146.556 73.92 146.076 73.504C145.596 73.088 145.009 72.88 144.316 72.88C143.623 72.88 143.004 73.0933 142.46 73.52C141.927 73.936 141.596 74.496 141.468 75.2ZM157.422 80.16C156.302 80.16 155.358 79.7547 154.59 78.944C153.822 78.1333 153.438 77.152 153.438 76C153.438 74.848 153.822 73.8667 154.59 73.056C155.358 72.2453 156.302 71.84 157.422 71.84C158.03 71.84 158.601 71.9787 159.134 72.256C159.678 72.5333 160.094 72.896 160.382 73.344V72H161.502V80H160.382V78.656C160.094 79.104 159.678 79.4667 159.134 79.744C158.601 80.0213 158.03 80.16 157.422 80.16ZM155.406 78.224C155.961 78.8213 156.67 79.12 157.534 79.12C158.398 79.12 159.102 78.8213 159.646 78.224C160.201 77.616 160.478 76.8747 160.478 76C160.478 75.1253 160.201 74.3893 159.646 73.792C159.102 73.184 158.398 72.88 157.534 72.88C156.67 72.88 155.961 73.184 155.406 73.792C154.862 74.3893 154.59 75.1253 154.59 76C154.59 76.8747 154.862 77.616 155.406 78.224ZM167.755 80.16C166.55 80.16 165.552 79.76 164.763 78.96C163.974 78.1493 163.579 77.1627 163.579 76C163.579 74.8373 163.974 73.856 164.763 73.056C165.552 72.2453 166.55 71.84 167.755 71.84C168.566 71.84 169.286 72.0267 169.915 72.4C170.555 72.7733 171.056 73.2853 171.419 73.936L170.443 74.496C170.187 73.9947 169.824 73.6 169.355 73.312C168.896 73.024 168.363 72.88 167.755 72.88C166.859 72.88 166.128 73.184 165.563 73.792C165.008 74.3893 164.731 75.1253 164.731 76C164.731 76.8747 165.008 77.616 165.563 78.224C166.128 78.8213 166.859 79.12 167.755 79.12C168.363 79.12 168.896 78.976 169.355 78.688C169.824 78.4 170.187 78.0053 170.443 77.504L171.419 78.064C171.056 78.7147 170.555 79.2267 169.915 79.6C169.286 79.9733 168.566 80.16 167.755 80.16ZM176.833 80.16C175.628 80.16 174.63 79.76 173.841 78.96C173.052 78.1493 172.657 77.1627 172.657 76C172.657 74.8373 173.052 73.856 173.841 73.056C174.63 72.2453 175.628 71.84 176.833 71.84C177.644 71.84 178.364 72.0267 178.993 72.4C179.633 72.7733 180.134 73.2853 180.497 73.936L179.521 74.496C179.265 73.9947 178.902 73.6 178.433 73.312C177.974 73.024 177.441 72.88 176.833 72.88C175.937 72.88 175.206 73.184 174.641 73.792C174.086 74.3893 173.809 75.1253 173.809 76C173.809 76.8747 174.086 77.616 174.641 78.224C175.206 78.8213 175.937 79.12 176.833 79.12C177.441 79.12 177.974 78.976 178.433 78.688C178.902 78.4 179.265 78.0053 179.521 77.504L180.497 78.064C180.134 78.7147 179.633 79.2267 178.993 79.6C178.364 79.9733 177.644 80.16 176.833 80.16ZM188.903 78.96C188.114 79.76 187.117 80.16 185.911 80.16C184.706 80.16 183.709 79.76 182.919 78.96C182.13 78.1493 181.735 77.1627 181.735 76C181.735 74.8373 182.13 73.856 182.919 73.056C183.709 72.2453 184.706 71.84 185.911 71.84C187.117 71.84 188.114 72.2453 188.903 73.056C189.693 73.856 190.087 74.8373 190.087 76C190.087 77.1627 189.693 78.1493 188.903 78.96ZM183.719 78.224C184.285 78.8213 185.015 79.12 185.911 79.12C186.807 79.12 187.533 78.8213 188.087 78.224C188.653 77.616 188.935 76.8747 188.935 76C188.935 75.1253 188.653 74.3893 188.087 73.792C187.533 73.184 186.807 72.88 185.911 72.88C185.015 72.88 184.285 73.184 183.719 73.792C183.165 74.3893 182.887 75.1253 182.887 76C182.887 76.8747 183.165 77.616 183.719 78.224ZM194.973 80.16C194.109 80.16 193.405 79.872 192.861 79.296C192.317 78.72 192.045 77.9573 192.045 77.008V72H193.165V76.848C193.165 77.5413 193.346 78.096 193.709 78.512C194.072 78.9173 194.541 79.12 195.117 79.12C195.81 79.12 196.381 78.8373 196.829 78.272C197.288 77.696 197.517 76.9333 197.517 75.984V72H198.637V80H197.517V78.656C196.973 79.6587 196.125 80.16 194.973 80.16ZM201.392 80V72H202.512V73.344C203.056 72.3413 203.93 71.84 205.136 71.84C206.021 71.84 206.741 72.1227 207.296 72.688C207.861 73.2533 208.144 74.0213 208.144 74.992V80H207.024V75.152C207.024 74.4587 206.837 73.9093 206.464 73.504C206.101 73.088 205.616 72.88 205.008 72.88C204.282 72.88 203.685 73.1627 203.216 73.728C202.746 74.2827 202.512 75.0453 202.512 76.016V80H201.392ZM213.537 80.08C212.865 80.08 212.316 79.888 211.889 79.504C211.473 79.1093 211.265 78.5333 211.265 77.776V73.056H209.553V72H211.265V69.776H212.385V72H214.721V73.056H212.385V77.68C212.385 78.1707 212.492 78.5227 212.705 78.736C212.929 78.9387 213.265 79.04 213.713 79.04C214.118 79.04 214.454 78.9813 214.721 78.864V79.872C214.369 80.0107 213.974 80.08 213.537 80.08ZM226.925 80L224.797 73.904L222.685 80H221.757L219.021 72H220.173L222.237 78.08L224.365 72H225.229L227.341 78.08L229.421 72H230.589L227.853 80H226.925ZM232.765 69.6C232.519 69.6 232.311 69.52 232.141 69.36C231.981 69.1893 231.901 68.9867 231.901 68.752C231.901 68.5173 231.981 68.32 232.141 68.16C232.311 67.9893 232.519 67.904 232.765 67.904C232.999 67.904 233.197 67.9893 233.357 68.16C233.517 68.32 233.597 68.5173 233.597 68.752C233.597 68.9867 233.517 69.1893 233.357 69.36C233.197 69.52 232.999 69.6 232.765 69.6ZM232.189 80V72H233.309V80H232.189ZM236.064 80V68H237.184V80H236.064ZM239.939 80V68H241.059V80H239.939ZM251.815 80.16C251.207 80.16 250.631 80.0213 250.087 79.744C249.554 79.4667 249.143 79.104 248.855 78.656V80H247.735V68H248.855V73.344C249.143 72.896 249.554 72.5333 250.087 72.256C250.631 71.9787 251.207 71.84 251.815 71.84C252.935 71.84 253.879 72.2453 254.647 73.056C255.415 73.8667 255.799 74.848 255.799 76C255.799 77.152 255.415 78.1333 254.647 78.944C253.879 79.7547 252.935 80.16 251.815 80.16ZM249.575 78.224C250.13 78.8213 250.839 79.12 251.703 79.12C252.567 79.12 253.271 78.8213 253.815 78.224C254.37 77.616 254.647 76.8747 254.647 76C254.647 75.1253 254.37 74.3893 253.815 73.792C253.271 73.184 252.567 72.88 251.703 72.88C250.839 72.88 250.13 73.184 249.575 73.792C249.031 74.3893 248.759 75.1253 248.759 76C248.759 76.8747 249.031 77.616 249.575 78.224ZM261.332 80.16C260.105 80.16 259.113 79.7653 258.356 78.976C257.599 78.176 257.22 77.184 257.22 76C257.22 74.8267 257.609 73.84 258.388 73.04C259.167 72.24 260.159 71.84 261.364 71.84C262.441 71.84 263.337 72.2027 264.052 72.928C264.767 73.6533 265.124 74.64 265.124 75.888V76.192H258.372C258.372 77.024 258.649 77.7227 259.204 78.288C259.759 78.8427 260.468 79.12 261.332 79.12C261.972 79.12 262.495 78.9973 262.9 78.752C263.316 78.496 263.673 78.1173 263.972 77.616L264.884 78.208C264.127 79.5093 262.943 80.16 261.332 80.16ZM258.468 75.2H263.956C263.849 74.4853 263.556 73.92 263.076 73.504C262.596 73.088 262.009 72.88 261.316 72.88C260.623 72.88 260.004 73.0933 259.46 73.52C258.927 73.936 258.596 74.496 258.468 75.2ZM271.468 80V73.056H269.756V72H271.468V70.208C271.468 69.4507 271.671 68.88 272.076 68.496C272.492 68.1013 273.042 67.904 273.724 67.904C274.172 67.904 274.572 67.9733 274.924 68.112V69.12C274.658 69.0027 274.316 68.944 273.9 68.944C273.452 68.944 273.122 69.0507 272.908 69.264C272.695 69.4667 272.588 69.8133 272.588 70.304V72H274.924V73.056H272.588V80H271.468ZM279.301 80.16C278.437 80.16 277.733 79.872 277.189 79.296C276.645 78.72 276.373 77.9573 276.373 77.008V72H277.493V76.848C277.493 77.5413 277.674 78.096 278.037 78.512C278.4 78.9173 278.869 79.12 279.445 79.12C280.138 79.12 280.709 78.8373 281.157 78.272C281.616 77.696 281.845 76.9333 281.845 75.984V72H282.965V80H281.845V78.656C281.301 79.6587 280.453 80.16 279.301 80.16ZM285.72 80V72H286.84V73.344C287.384 72.3413 288.258 71.84 289.464 71.84C290.349 71.84 291.069 72.1227 291.624 72.688C292.189 73.2533 292.472 74.0213 292.472 74.992V80H291.352V75.152C291.352 74.4587 291.165 73.9093 290.792 73.504C290.429 73.088 289.944 72.88 289.336 72.88C288.61 72.88 288.013 73.1627 287.544 73.728C287.074 74.2827 286.84 75.0453 286.84 76.016V80H285.72ZM298.407 80.16C297.287 80.16 296.343 79.7547 295.575 78.944C294.807 78.1333 294.423 77.152 294.423 76C294.423 74.848 294.807 73.8667 295.575 73.056C296.343 72.2453 297.287 71.84 298.407 71.84C299.015 71.84 299.585 71.9787 300.119 72.256C300.663 72.5333 301.079 72.896 301.367 73.344V68H302.487V80H301.367V78.656C301.079 79.104 300.663 79.4667 300.119 79.744C299.585 80.0213 299.015 80.16 298.407 80.16ZM296.391 78.224C296.945 78.8213 297.655 79.12 298.519 79.12C299.383 79.12 300.087 78.8213 300.631 78.224C301.185 77.616 301.463 76.8747 301.463 76C301.463 75.1253 301.185 74.3893 300.631 73.792C300.087 73.184 299.383 72.88 298.519 72.88C297.655 72.88 296.945 73.184 296.391 73.792C295.847 74.3893 295.575 75.1253 295.575 76C295.575 76.8747 295.847 77.616 296.391 78.224ZM308.691 80.16C307.465 80.16 306.473 79.7653 305.715 78.976C304.958 78.176 304.579 77.184 304.579 76C304.579 74.8267 304.969 73.84 305.747 73.04C306.526 72.24 307.518 71.84 308.723 71.84C309.801 71.84 310.697 72.2027 311.411 72.928C312.126 73.6533 312.483 74.64 312.483 75.888V76.192H305.731C305.731 77.024 306.009 77.7227 306.563 78.288C307.118 78.8427 307.827 79.12 308.691 79.12C309.331 79.12 309.854 78.9973 310.259 78.752C310.675 78.496 311.033 78.1173 311.331 77.616L312.243 78.208C311.486 79.5093 310.302 80.16 308.691 80.16ZM305.827 75.2H311.315C311.209 74.4853 310.915 73.92 310.435 73.504C309.955 73.088 309.369 72.88 308.675 72.88C307.982 72.88 307.363 73.0933 306.819 73.52C306.286 73.936 305.955 74.496 305.827 75.2ZM317.86 80.16C316.74 80.16 315.796 79.7547 315.028 78.944C314.26 78.1333 313.876 77.152 313.876 76C313.876 74.848 314.26 73.8667 315.028 73.056C315.796 72.2453 316.74 71.84 317.86 71.84C318.468 71.84 319.039 71.9787 319.572 72.256C320.116 72.5333 320.532 72.896 320.82 73.344V68H321.94V80H320.82V78.656C320.532 79.104 320.116 79.4667 319.572 79.744C319.039 80.0213 318.468 80.16 317.86 80.16ZM315.844 78.224C316.399 78.8213 317.108 79.12 317.972 79.12C318.836 79.12 319.54 78.8213 320.084 78.224C320.639 77.616 320.916 76.8747 320.916 76C320.916 75.1253 320.639 74.3893 320.084 73.792C319.54 73.184 318.836 72.88 317.972 72.88C317.108 72.88 316.399 73.184 315.844 73.792C315.3 74.3893 315.028 75.1253 315.028 76C315.028 76.8747 315.3 77.616 315.844 78.224ZM329.186 69.6C328.941 69.6 328.733 69.52 328.562 69.36C328.402 69.1893 328.322 68.9867 328.322 68.752C328.322 68.5173 328.402 68.32 328.562 68.16C328.733 67.9893 328.941 67.904 329.186 67.904C329.421 67.904 329.618 67.9893 329.778 68.16C329.938 68.32 330.018 68.5173 330.018 68.752C330.018 68.9867 329.938 69.1893 329.778 69.36C329.618 69.52 329.421 69.6 329.186 69.6ZM328.61 80V72H329.73V80H328.61ZM332.485 80V72H333.605V73.344C334.149 72.3413 335.024 71.84 336.229 71.84C337.115 71.84 337.835 72.1227 338.389 72.688C338.955 73.2533 339.237 74.0213 339.237 74.992V80H338.117V75.152C338.117 74.4587 337.931 73.9093 337.557 73.504C337.195 73.088 336.709 72.88 336.101 72.88C335.376 72.88 334.779 73.1627 334.309 73.728C333.84 74.2827 333.605 75.0453 333.605 76.016V80H332.485ZM344.196 80.16C343.439 80.16 342.783 79.9947 342.228 79.664C341.684 79.3227 341.306 78.832 341.092 78.192L342.1 77.776C342.228 78.2027 342.49 78.5387 342.884 78.784C343.29 79.0293 343.732 79.152 344.212 79.152C344.66 79.152 345.028 79.0453 345.316 78.832C345.615 78.608 345.764 78.304 345.764 77.92C345.764 77.6 345.647 77.3333 345.412 77.12C345.188 76.896 344.804 76.6933 344.26 76.512L343.396 76.24C342.116 75.8453 341.476 75.088 341.476 73.968C341.476 73.3173 341.727 72.8 342.228 72.416C342.74 72.032 343.38 71.84 344.148 71.84C345.354 71.84 346.218 72.3093 346.74 73.248L345.844 73.808C345.418 73.1573 344.831 72.832 344.084 72.832C343.69 72.832 343.343 72.9387 343.044 73.152C342.746 73.3547 342.596 73.6107 342.596 73.92C342.596 74.5173 343.012 74.9493 343.844 75.216L344.756 75.504C346.175 75.952 346.884 76.7253 346.884 77.824C346.884 78.56 346.634 79.136 346.132 79.552C345.642 79.9573 344.996 80.16 344.196 80.16ZM351.818 80.08C351.146 80.08 350.597 79.888 350.17 79.504C349.754 79.1093 349.546 78.5333 349.546 77.776V73.056H347.834V72H349.546V69.776H350.666V72H353.002V73.056H350.666V77.68C350.666 78.1707 350.773 78.5227 350.986 78.736C351.21 78.9387 351.546 79.04 351.994 79.04C352.399 79.04 352.735 78.9813 353.002 78.864V79.872C352.65 80.0107 352.255 80.08 351.818 80.08ZM358.032 80.16C356.912 80.16 355.968 79.7547 355.2 78.944C354.432 78.1333 354.048 77.152 354.048 76C354.048 74.848 354.432 73.8667 355.2 73.056C355.968 72.2453 356.912 71.84 358.032 71.84C358.64 71.84 359.21 71.9787 359.744 72.256C360.288 72.5333 360.704 72.896 360.992 73.344V72H362.112V80H360.992V78.656C360.704 79.104 360.288 79.4667 359.744 79.744C359.21 80.0213 358.64 80.16 358.032 80.16ZM356.016 78.224C356.57 78.8213 357.28 79.12 358.144 79.12C359.008 79.12 359.712 78.8213 360.256 78.224C360.81 77.616 361.088 76.8747 361.088 76C361.088 75.1253 360.81 74.3893 360.256 73.792C359.712 73.184 359.008 72.88 358.144 72.88C357.28 72.88 356.57 73.184 356.016 73.792C355.472 74.3893 355.2 75.1253 355.2 76C355.2 76.8747 355.472 77.616 356.016 78.224ZM364.86 80V72H365.98V73.344C366.524 72.3413 367.399 71.84 368.604 71.84C369.49 71.84 370.21 72.1227 370.764 72.688C371.33 73.2533 371.612 74.0213 371.612 74.992V80H370.492V75.152C370.492 74.4587 370.306 73.9093 369.932 73.504C369.57 73.088 369.084 72.88 368.476 72.88C367.751 72.88 367.154 73.1627 366.684 73.728C366.215 74.2827 365.98 75.0453 365.98 76.016V80H364.86ZM377.006 80.08C376.334 80.08 375.784 79.888 375.358 79.504C374.942 79.1093 374.734 78.5333 374.734 77.776V73.056H373.022V72H374.734V69.776H375.854V72H378.19V73.056H375.854V77.68C375.854 78.1707 375.96 78.5227 376.174 78.736C376.398 78.9387 376.734 79.04 377.182 79.04C377.587 79.04 377.923 78.9813 378.19 78.864V79.872C377.838 80.0107 377.443 80.08 377.006 80.08ZM380.017 80V68H381.137V80H380.017ZM385.732 83.344H384.468L386.228 79.6L382.676 72H383.924L386.852 78.352L389.78 72H391.044L385.732 83.344ZM393.047 79.808C392.845 80.0213 392.599 80.128 392.311 80.128C392.023 80.128 391.773 80.0213 391.559 79.808C391.357 79.5947 391.255 79.344 391.255 79.056C391.255 78.768 391.357 78.5173 391.559 78.304C391.773 78.0907 392.023 77.984 392.311 77.984C392.599 77.984 392.845 78.0907 393.047 78.304C393.261 78.5173 393.367 78.768 393.367 79.056C393.367 79.344 393.261 79.5947 393.047 79.808Z" fill="#3D3D3D"/>
</svg>
