<svg xmlns="http://www.w3.org/2000/svg" width="26" height="31" viewBox="0 0 26 31" fill="none">
<path fill-rule="evenodd" clip-rule="evenodd" d="M20.0033 12.9317C19.3757 12.9317 18.8663 12.4223 18.8663 11.7947V8.53986C18.8663 5.36237 16.2816 2.77762 13.1041 2.77762H13.0798C11.5441 2.77762 10.1055 3.36886 9.01851 4.44672C7.92397 5.52913 7.3191 6.97385 7.31303 8.51409V11.7947C7.31303 12.4223 6.80366 12.9317 6.17605 12.9317C5.54843 12.9317 5.03906 12.4223 5.03906 11.7947V8.53986C5.04816 6.35685 5.89256 4.34211 7.41612 2.8322C8.94119 1.32077 10.9544 0.446048 13.1086 0.503655C17.5353 0.503655 21.1403 4.10865 21.1403 8.53986V11.7947C21.1403 12.4223 20.6309 12.9317 20.0033 12.9317Z" fill="white"/>
<path fill-rule="evenodd" clip-rule="evenodd" d="M7.29964 12.8248C4.75583 12.8248 2.68803 14.8925 2.68803 17.4364V23.9384C2.68803 26.4822 4.75583 28.55 7.29964 28.55H18.8832C21.4255 28.55 23.4949 26.4822 23.4949 23.9384V17.4364C23.4949 14.8925 21.4255 12.8248 18.8832 12.8248H7.29964ZM18.8832 30.824H7.29964C3.50211 30.824 0.414062 27.7359 0.414062 23.9384V17.4364C0.414062 13.6388 3.50211 10.5508 7.29964 10.5508H18.8832C22.6808 10.5508 25.7688 13.6388 25.7688 17.4364V23.9384C25.7688 27.7359 22.6808 30.824 18.8832 30.824Z" fill="white"/>
<path fill-rule="evenodd" clip-rule="evenodd" d="M13.0901 23.5062C12.4625 23.5062 11.9531 22.9968 11.9531 22.3692V19.0022C11.9531 18.3746 12.4625 17.8652 13.0901 17.8652C13.7177 17.8652 14.2271 18.3746 14.2271 19.0022V22.3692C14.2271 22.9968 13.7177 23.5062 13.0901 23.5062Z" fill="white"/>
</svg>