<svg width="31" height="31" viewBox="0 0 31 31" fill="none" xmlns="http://www.w3.org/2000/svg">
<g id="More Circle">
<path id="Fill 1" fill-rule="evenodd" clip-rule="evenodd" d="M15.7926 2.91069C8.68721 2.91069 2.90678 8.69112 2.90678 15.7965C2.90678 22.9019 8.68721 28.6823 15.7926 28.6823C22.898 28.6823 28.6784 22.9019 28.6784 15.7965C28.6784 8.69112 22.898 2.91069 15.7926 2.91069ZM15.7926 30.9563C7.4335 30.9563 0.632812 24.1556 0.632812 15.7965C0.632812 7.4374 7.4335 0.636719 15.7926 0.636719C24.1517 0.636719 30.9524 7.4374 30.9524 15.7965C30.9524 24.1556 24.1517 30.9563 15.7926 30.9563Z" fill="white"/>
<path id="Fill 3" fill-rule="evenodd" clip-rule="evenodd" d="M21.7736 17.3337C20.9352 17.3337 20.25 16.6561 20.25 15.8177C20.25 14.9794 20.9216 14.3018 21.7584 14.3018H21.7736C22.6119 14.3018 23.2895 14.9794 23.2895 15.8177C23.2895 16.6561 22.6119 17.3337 21.7736 17.3337Z" fill="white"/>
<path id="Fill 5" fill-rule="evenodd" clip-rule="evenodd" d="M15.6939 17.3337C14.8556 17.3337 14.1719 16.6561 14.1719 15.8177C14.1719 14.9794 14.8419 14.3018 15.6803 14.3018H15.6939C16.5323 14.3018 17.2099 14.9794 17.2099 15.8177C17.2099 16.6561 16.5323 17.3337 15.6939 17.3337Z" fill="white"/>
<path id="Fill 7" fill-rule="evenodd" clip-rule="evenodd" d="M9.62512 17.3337C8.78679 17.3337 8.10156 16.6561 8.10156 15.8177C8.10156 14.9794 8.77314 14.3018 9.61148 14.3018H9.62512C10.4635 14.3018 11.1411 14.9794 11.1411 15.8177C11.1411 16.6561 10.4635 17.3337 9.62512 17.3337Z" fill="white"/>
</g>
</svg>
