<svg width="64" height="64" viewBox="0 0 64 64" fill="none" xmlns="http://www.w3.org/2000/svg">
<path d="M31.8648 38.7734C22.6649 38.7734 14.9023 40.2769 14.9023 46.0788C14.9023 51.8833 22.715 53.3337 31.8648 53.3337C41.0648 53.3337 48.8275 51.8305 48.8275 46.0284C48.8275 40.2241 41.0147 38.7734 31.8648 38.7734Z" fill="#12D8A0"/>
<path opacity="0.4" d="M31.8633 33.2457C38.0929 33.2457 43.0881 28.2219 43.0881 21.9564C43.0881 15.6885 38.0929 10.667 31.8633 10.667C25.6338 10.667 20.6387 15.6885 20.6387 21.9564C20.6387 28.2219 25.6338 33.2457 31.8633 33.2457Z" fill="#12D8A0"/>
<path opacity="0.4" d="M56.2341 24.5846C57.8458 18.2447 53.1205 12.5508 47.1034 12.5508C46.4493 12.5508 45.8237 12.6228 45.2125 12.7453C45.1311 12.7645 45.0405 12.8053 44.9927 12.8774C44.9378 12.9686 44.9783 13.0911 45.0381 13.1704C46.8455 15.7208 47.8842 18.8259 47.8842 22.1591C47.8842 25.3531 46.9317 28.3309 45.2602 30.8021C45.0882 31.0567 45.241 31.3999 45.5442 31.453C45.9645 31.5274 46.3943 31.5658 46.8335 31.5778C51.2151 31.693 55.1477 28.8567 56.2341 24.5846Z" fill="#12D8A0"/>
<path d="M60.8252 39.512C60.0228 37.7926 58.0865 36.6136 55.1422 36.0347C53.7526 35.6939 49.9918 35.2134 46.494 35.2784C46.4414 35.2856 46.4126 35.3216 46.4078 35.3456C46.4009 35.3792 46.415 35.4368 46.4844 35.4728C48.1009 36.2774 54.3497 39.7763 53.5641 47.156C53.5305 47.4755 53.786 47.7518 54.1036 47.7035C55.6414 47.4827 59.5977 46.6278 60.8252 43.9646C61.5033 42.5571 61.5033 40.9219 60.8252 39.512Z" fill="#12D8A0"/>
<path opacity="0.4" d="M18.7862 12.7463C18.1773 12.6214 17.5494 12.5518 16.8951 12.5518C10.878 12.5518 6.15269 18.2457 7.76679 24.5856C8.85082 28.8578 12.7834 31.694 17.1649 31.5788C17.6043 31.5668 18.0365 31.5258 18.4543 31.4538C18.7576 31.401 18.9104 31.0575 18.7384 30.8031C17.067 28.3295 16.1143 25.3541 16.1143 22.1601C16.1143 18.8244 17.1554 15.7193 18.9629 13.1713C19.0202 13.0921 19.0632 12.9696 19.0059 12.8783C18.9581 12.8039 18.8698 12.7655 18.7862 12.7463Z" fill="#12D8A0"/>
<path d="M8.85684 36.0339C5.91274 36.6126 3.97868 37.7918 3.17639 39.5113C2.49589 40.9209 2.49589 42.5563 3.17639 43.9659C4.4037 46.6267 8.36018 47.4841 9.89788 47.7027C10.2155 47.7507 10.4685 47.4769 10.4351 47.155C9.64956 39.7777 15.8983 36.2787 17.5172 35.4742C17.584 35.4358 17.5983 35.3806 17.5912 35.3446C17.5864 35.3206 17.5601 35.2846 17.5076 35.2798C14.0072 35.2126 10.2489 35.6929 8.85684 36.0339Z" fill="#12D8A0"/>
</svg>
