<svg width="56" height="56" viewBox="0 0 56 56" fill="none" xmlns="http://www.w3.org/2000/svg">
<rect x="4" y="4" width="48" height="48" rx="24" fill="#4545FE" fill-opacity="0.1"/>
<path d="M20.5 38V33M20.5 23V18M18 20.5H23M18 35.5H23M29 19L27.2658 23.5089C26.9838 24.2421 26.8428 24.6087 26.6235 24.9171C26.4292 25.1904 26.1904 25.4292 25.9171 25.6235C25.6087 25.8428 25.2421 25.9838 24.5089 26.2658L20 28L24.5089 29.7342C25.2421 30.0162 25.6087 30.1572 25.9171 30.3765C26.1904 30.5708 26.4292 30.8096 26.6235 31.0829C26.8428 31.3913 26.9838 31.7579 27.2658 32.4911L29 37L30.7342 32.4911C31.0162 31.7579 31.1572 31.3913 31.3765 31.0829C31.5708 30.8096 31.8096 30.5708 32.0829 30.3765C32.3913 30.1572 32.7579 30.0162 33.4911 29.7342L38 28L33.4911 26.2658C32.7579 25.9838 32.3913 25.8428 32.0829 25.6235C31.8096 25.4292 31.5708 25.1904 31.3765 24.9171C31.1572 24.6087 31.0162 24.2421 30.7342 23.5089L29 19Z" stroke="#4545FE" stroke-width="2" stroke-linecap="round" stroke-linejoin="round"/>
<rect x="4" y="4" width="48" height="48" rx="24" stroke="#4545FE" stroke-opacity="0.04" stroke-width="8"/>
</svg>
