<svg width="36" height="36" viewBox="0 0 36 36" fill="none" xmlns="http://www.w3.org/2000/svg">
<path d="M23.9189 20.32C23.6599 20.571 23.5409 20.934 23.5999 21.29L24.4889 26.21C24.5639 26.627 24.3879 27.049 24.0389 27.29C23.6969 27.54 23.2419 27.57 22.8689 27.37L18.4399 25.06C18.2859 24.978 18.1149 24.934 17.9399 24.929H17.6689C17.5749 24.943 17.4829 24.973 17.3989 25.019L12.9689 27.34C12.7499 27.45 12.5019 27.489 12.2589 27.45C11.6669 27.338 11.2719 26.774 11.3689 26.179L12.2589 21.259C12.3179 20.9 12.1989 20.535 11.9399 20.28L8.32888 16.78C8.02688 16.487 7.92188 16.047 8.05988 15.65C8.19388 15.254 8.53588 14.965 8.94888 14.9L13.9189 14.179C14.2969 14.14 14.6289 13.91 14.7989 13.57L16.9889 9.08C17.0409 8.98 17.1079 8.888 17.1889 8.81L17.2789 8.74C17.3259 8.688 17.3799 8.645 17.4399 8.61L17.5489 8.57L17.7189 8.5H18.1399C18.5159 8.539 18.8469 8.764 19.0199 9.1L21.2389 13.57C21.3989 13.897 21.7099 14.124 22.0689 14.179L27.0389 14.9C27.4589 14.96 27.8099 15.25 27.9489 15.65C28.0799 16.051 27.9669 16.491 27.6589 16.78L23.9189 20.32Z" fill="#4545FE"/>
<circle cx="18" cy="18" r="18" fill="#4545FE" fill-opacity="0.1"/>
</svg>
