<svg width="40" height="40" viewBox="0 0 40 40" fill="none" xmlns="http://www.w3.org/2000/svg">
<circle cx="20" cy="20" r="20" fill="#4545FE" fill-opacity="0.1"/>
<path d="M22.2218 21.1113C21.2959 21.1113 20.5088 20.7873 19.8607 20.1391C19.2125 19.491 18.8885 18.7039 18.8885 17.778C18.8885 16.8521 19.2125 16.065 19.8607 15.4169C20.5088 14.7687 21.2959 14.4447 22.2218 14.4447C23.1477 14.4447 23.9348 14.7687 24.5829 15.4169C25.231 16.065 25.5551 16.8521 25.5551 17.778C25.5551 18.7039 25.231 19.491 24.5829 20.1391C23.9348 20.7873 23.1477 21.1113 22.2218 21.1113ZM12.2218 24.4447V11.1113H32.2218V24.4447H12.2218ZM16.6662 22.2224H27.7773C27.7773 21.6113 27.9948 21.088 28.4296 20.6524C28.8651 20.2176 29.3885 20.0002 29.9996 20.0002V15.5558C29.3885 15.5558 28.8651 15.338 28.4296 14.9024C27.9948 14.4676 27.7773 13.9447 27.7773 13.3336H16.6662C16.6662 13.9447 16.4485 14.4676 16.0129 14.9024C15.5781 15.338 15.0551 15.5558 14.444 15.5558V20.0002C15.0551 20.0002 15.5781 20.2176 16.0129 20.6524C16.4485 21.088 16.6662 21.6113 16.6662 22.2224ZM7.77734 28.8891V14.4447H9.99957V26.6669H28.8885V28.8891H7.77734ZM14.444 22.2224V13.3336V22.2224Z" fill="#4545FE"/>
</svg>
