<svg width="40" height="40" viewBox="0 0 40 40" fill="none" xmlns="http://www.w3.org/2000/svg">
<circle cx="20" cy="20" r="20" fill="#4545FE" fill-opacity="0.1"/>
<path fill-rule="evenodd" clip-rule="evenodd" d="M9.16602 20.0166C9.16602 14.3097 13.7268 9.16699 20.021 9.16699C26.1744 9.16699 30.8327 14.2121 30.8327 19.9841C30.8327 26.6783 25.3727 30.8337 19.9993 30.8337C18.2227 30.8337 16.251 30.3563 14.6693 29.4232C14.1168 29.0869 13.651 28.8373 13.0552 29.0326L10.8668 29.6836C10.3143 29.8572 9.81602 29.4232 9.97852 28.8373L10.7043 26.407C10.8235 26.0707 10.8018 25.7126 10.6285 25.4306C9.69685 23.7163 9.16602 21.8393 9.16602 20.0166ZM23.5859 20.0273C23.5859 20.7867 24.2034 21.416 24.9725 21.416C25.7417 21.416 26.3592 20.7867 26.3592 20.0273C26.3592 19.2569 25.7417 18.6385 24.9725 18.6385C24.2034 18.6385 23.5859 19.2569 23.5859 20.0273ZM18.5912 20.0168C18.5912 20.7871 19.2087 21.4055 19.9779 21.4164C20.7471 21.4164 21.3646 20.7871 21.3646 20.0276C21.3646 19.2573 20.7471 18.6389 19.9779 18.6389C19.2196 18.628 18.5912 19.2573 18.5912 20.0168ZM14.9833 21.4163C14.225 21.4163 13.5967 20.787 13.5967 20.0275C13.5967 19.2572 14.2142 18.6388 14.9833 18.6388C15.7525 18.6388 16.37 19.2572 16.37 20.0275C16.37 20.787 15.7525 21.4054 14.9833 21.4163Z" fill="#4545FE"/>
</svg>
