<svg width="16" height="16" viewBox="0 0 16 16" fill="none" xmlns="http://www.w3.org/2000/svg">
<path d="M6.99343 1.48703L3.66677 2.7337C2.9001 3.02036 2.27344 3.92703 2.27344 4.74703V9.70036C2.27344 10.487 2.79344 11.5204 3.42678 11.9937L6.29344 14.1337C7.23344 14.8404 8.78009 14.8404 9.72009 14.1337L12.5868 11.9937C13.2201 11.5204 13.7401 10.487 13.7401 9.70036V4.74703C13.7401 3.92703 13.1134 3.02036 12.3468 2.7337L9.0201 1.48703C8.45343 1.28036 7.54676 1.28036 6.99343 1.48703Z" stroke="#191919" stroke-linecap="round" stroke-linejoin="round"/>
<path d="M8.00016 10.3333C9.47292 10.3333 10.6668 9.13943 10.6668 7.66667C10.6668 6.19391 9.47292 5 8.00016 5C6.5274 5 5.3335 6.19391 5.3335 7.66667C5.3335 9.13943 6.5274 10.3333 8.00016 10.3333Z" stroke="#191919" stroke-miterlimit="10" stroke-linecap="round" stroke-linejoin="round"/>
<path d="M8.16683 6.83398V7.45398C8.16683 7.68732 8.04684 7.90732 7.84017 8.02732L7.3335 8.33398" stroke="#191919" stroke-miterlimit="10" stroke-linecap="round" stroke-linejoin="round"/>
</svg>
