<svg width="40" height="40" viewBox="0 0 40 40" fill="none" xmlns="http://www.w3.org/2000/svg">
<circle cx="20" cy="20" r="20" fill="#4545FE" fill-opacity="0.1"/>
<path d="M30.4553 19.5331L20.4553 9.53312C20.0553 9.13312 19.4998 8.88867 18.8887 8.88867H11.1109C9.88867 8.88867 8.88867 9.88867 8.88867 11.1109V18.8887C8.88867 19.4998 9.13312 20.0553 9.54423 20.4664L19.5442 30.4664C19.9442 30.8664 20.4998 31.1109 21.1109 31.1109C21.722 31.1109 22.2776 30.8664 22.6776 30.4553L30.4553 22.6776C30.8664 22.2776 31.1109 21.722 31.1109 21.1109C31.1109 20.4998 30.8553 19.9331 30.4553 19.5331ZM12.7776 14.4442C11.8553 14.4442 11.1109 13.6998 11.1109 12.7776C11.1109 11.8553 11.8553 11.1109 12.7776 11.1109C13.6998 11.1109 14.4442 11.8553 14.4442 12.7776C14.4442 13.6998 13.6998 14.4442 12.7776 14.4442Z" fill="#4545FE"/>
</svg>
