<svg width="41" height="41" viewBox="0 0 41 41" fill="none" xmlns="http://www.w3.org/2000/svg">
<circle opacity="0.1" cx="20.2002" cy="20.1128" r="20" fill="#4545FE"/>
<path fill-rule="evenodd" clip-rule="evenodd" d="M24.8196 15.9268C24.8196 18.5376 22.7383 20.631 20.1426 20.631C17.5469 20.631 15.4656 18.5376 15.4656 15.9268C15.4656 13.315 17.5469 11.2236 20.1426 11.2236C22.7383 11.2236 24.8196 13.315 24.8196 15.9268ZM20.1429 29.0013C16.3305 29.0013 13.0752 28.3969 13.0752 25.9793C13.0752 23.5607 16.3096 22.9342 20.1429 22.9342C23.9553 22.9342 27.2106 23.5387 27.2106 25.9573C27.2106 28.3749 23.9762 29.0013 20.1429 29.0013ZM26.8184 16.0118C26.8184 17.3427 26.4215 18.5826 25.725 19.6133C25.6534 19.7193 25.7171 19.8624 25.8434 19.8844C26.0175 19.9145 26.1976 19.9315 26.3807 19.9365C28.2063 19.9845 29.8449 18.8027 30.2976 17.0235C30.9681 14.3807 28.9992 12.0081 26.4921 12.0081C26.2195 12.0081 25.9588 12.0372 25.7051 12.0892C25.6703 12.0972 25.6335 12.1132 25.6136 12.1442C25.5897 12.1823 25.6076 12.2333 25.6315 12.2663C26.3846 13.328 26.8184 14.6229 26.8184 16.0118ZM29.8424 21.7931C31.0691 22.0342 31.8759 22.5266 32.2102 23.242C32.4928 23.8294 32.4928 24.5109 32.2102 25.0973C31.6988 26.207 30.0503 26.5633 29.4096 26.6553C29.2773 26.6753 29.1708 26.5603 29.1847 26.4272C29.5121 23.3521 26.9084 21.8941 26.2349 21.5589C26.206 21.5439 26.2001 21.5209 26.2031 21.5069C26.205 21.4969 26.217 21.4808 26.2389 21.4778C27.6964 21.4508 29.2633 21.651 29.8424 21.7931ZM14.0183 19.9359C14.2014 19.9309 14.3805 19.9149 14.5556 19.8839C14.6819 19.8619 14.7456 19.7188 14.674 19.6127C13.9775 18.582 13.5806 17.3422 13.5806 16.0113C13.5806 14.6224 14.0143 13.3275 14.7675 12.2658C14.7913 12.2327 14.8083 12.1817 14.7854 12.1437C14.7655 12.1137 14.7277 12.0967 14.6939 12.0887C14.4392 12.0366 14.1785 12.0076 13.9059 12.0076C11.3988 12.0076 9.42988 14.3802 10.1014 17.023C10.5541 18.8022 12.1927 19.984 14.0183 19.9359ZM14.1964 21.5064C14.1993 21.5214 14.1934 21.5434 14.1655 21.5594C13.491 21.8947 10.8873 23.3526 11.2147 26.4267C11.2286 26.5608 11.1231 26.6749 10.9908 26.6559C10.3501 26.5638 8.70157 26.2076 8.1902 25.0978C7.90665 24.5104 7.90665 23.83 8.1902 23.2426C8.52448 22.5271 9.33034 22.0348 10.557 21.7926C11.1371 21.6515 12.703 21.4514 14.1615 21.4784C14.1834 21.4814 14.1944 21.4974 14.1964 21.5064Z" fill="#4545FE"/>
</svg>
