<svg width="40" height="40" viewBox="0 0 40 40" fill="none" xmlns="http://www.w3.org/2000/svg">
<circle cx="20" cy="20" r="20" fill="#4545FE" fill-opacity="0.1"/>
<path fill-rule="evenodd" clip-rule="evenodd" d="M8.88867 19.9998C8.88867 13.8664 13.8553 8.88867 19.9998 8.88867C26.1331 8.88867 31.1109 13.8664 31.1109 19.9998C31.1109 26.1442 26.1331 31.1109 19.9998 31.1109C13.8553 31.1109 8.88867 26.1442 8.88867 19.9998ZM22.4775 22.0333L24.2775 16.3444C24.3997 15.9555 24.0442 15.5889 23.6553 15.7111L17.9664 17.4889C17.7331 17.5667 17.5442 17.7444 17.4775 17.9778L15.6997 23.6778C15.5775 24.0555 15.9442 24.4222 16.322 24.3L21.9886 22.5222C22.222 22.4555 22.4108 22.2667 22.4775 22.0333Z" fill="#4545FE"/>
</svg>
