<svg width="40" height="40" viewBox="0 0 40 40" fill="none" xmlns="http://www.w3.org/2000/svg">
<circle cx="20" cy="20" r="20" fill="#4545FE" fill-opacity="0.1"/>
<path d="M26.6667 31.1109C25.7407 31.1109 24.9537 30.7868 24.3056 30.1387C23.6574 29.4905 23.3333 28.7035 23.3333 27.7776C23.3333 27.6479 23.3426 27.5135 23.3611 27.3742C23.3796 27.2357 23.4074 27.1109 23.4444 26.9998L15.6111 22.4442C15.2963 22.722 14.9444 22.9394 14.5556 23.0964C14.1667 23.2542 13.7593 23.3331 13.3333 23.3331C12.4074 23.3331 11.6204 23.009 10.9722 22.3609C10.3241 21.7127 10 20.9257 10 19.9998C10 19.0739 10.3241 18.2868 10.9722 17.6387C11.6204 16.9905 12.4074 16.6664 13.3333 16.6664C13.7593 16.6664 14.1667 16.745 14.5556 16.902C14.9444 17.0598 15.2963 17.2776 15.6111 17.5553L23.4444 12.9998C23.4074 12.8887 23.3796 12.7639 23.3611 12.6253C23.3426 12.4861 23.3333 12.3516 23.3333 12.222C23.3333 11.2961 23.6574 10.509 24.3056 9.86089C24.9537 9.21275 25.7407 8.88867 26.6667 8.88867C27.5926 8.88867 28.3796 9.21275 29.0278 9.86089C29.6759 10.509 30 11.2961 30 12.222C30 13.1479 29.6759 13.935 29.0278 14.5831C28.3796 15.2313 27.5926 15.5553 26.6667 15.5553C26.2407 15.5553 25.8333 15.4764 25.4444 15.3187C25.0556 15.1616 24.7037 14.9442 24.3889 14.6664L16.5556 19.222C16.5926 19.3331 16.6204 19.4579 16.6389 19.5964C16.6574 19.7357 16.6667 19.8702 16.6667 19.9998C16.6667 20.1294 16.6574 20.2635 16.6389 20.402C16.6204 20.5413 16.5926 20.6664 16.5556 20.7776L24.3889 25.3331C24.7037 25.0553 25.0556 24.8376 25.4444 24.6798C25.8333 24.5227 26.2407 24.4442 26.6667 24.4442C27.5926 24.4442 28.3796 24.7683 29.0278 25.4164C29.6759 26.0646 30 26.8516 30 27.7776C30 28.7035 29.6759 29.4905 29.0278 30.1387C28.3796 30.7868 27.5926 31.1109 26.6667 31.1109Z" fill="#4545FE"/>
</svg>
