<svg width="41" height="40" viewBox="0 0 41 40" fill="none" xmlns="http://www.w3.org/2000/svg">
<circle opacity="0.1" cx="20.2002" cy="20" r="20" fill="#4545FE"/>
<path fill-rule="evenodd" clip-rule="evenodd" d="M20.0737 8.88867H25.673C28.4726 8.88867 30.7559 11.1109 30.7559 13.822V26.1776C30.7559 28.8998 28.4726 31.1109 25.65 31.1109H20.0623C17.2626 31.1109 14.9679 28.8998 14.9679 26.1887V20.8553H22.0816L20.2458 22.6331C19.9016 22.9664 19.9016 23.5109 20.2458 23.8442C20.4179 24.0109 20.6474 24.0887 20.8769 24.0887C21.0949 24.0887 21.3244 24.0109 21.4965 23.8442L24.8468 20.6109C25.0189 20.4553 25.1107 20.2331 25.1107 19.9998C25.1107 19.7776 25.0189 19.5553 24.8468 19.3998L21.4965 16.1665C21.1523 15.8331 20.5901 15.8331 20.2458 16.1665C19.9016 16.4998 19.9016 17.0442 20.2458 17.3776L22.0816 19.1442H14.9679V13.8331C14.9679 11.1109 17.2626 8.88867 20.0737 8.88867ZM9.64453 19.9998C9.64453 19.5331 10.0392 19.1442 10.5129 19.1442H14.9673V20.8553H10.5129C10.0392 20.8553 9.64453 20.4775 9.64453 19.9998Z" fill="#4545FE"/>
</svg>
