<svg width="40" height="40" viewBox="0 0 40 40" fill="none" xmlns="http://www.w3.org/2000/svg">
<circle cx="20" cy="20" r="20" fill="#4545FE" fill-opacity="0.1"/>
<path d="M16.8173 29.7479V26.3505C16.8173 25.4832 17.5255 24.7801 18.3991 24.7801H21.5927C22.0122 24.7801 22.4145 24.9456 22.7112 25.2401C23.0078 25.5346 23.1745 25.934 23.1745 26.3505V29.7479C23.1718 30.1085 23.3143 30.4552 23.5702 30.7111C23.8261 30.967 24.1743 31.1109 24.5375 31.1109H26.7162C27.7338 31.1135 28.7106 30.7141 29.4311 30.0007C30.1515 29.2873 30.5564 28.3186 30.5564 27.3085V17.6296C30.5564 16.8136 30.1921 16.0396 29.5616 15.5161L22.1498 9.63964C20.8605 8.6093 19.0132 8.64256 17.7624 9.71865L10.5198 15.5161C9.85947 16.0242 9.46482 16.8005 9.44531 17.6296V27.2986C9.44531 29.4041 11.1646 31.1109 13.2855 31.1109H15.4145C16.1689 31.1109 16.782 30.5067 16.7874 29.7578L16.8173 29.7479Z" fill="#4545FE"/>
</svg>
