<svg width="33" height="33" viewBox="0 0 33 33" fill="none" xmlns="http://www.w3.org/2000/svg">
<path d="M27.2229 10.0799L19.5429 4.70657C17.4496 3.2399 14.2363 3.3199 12.2229 4.8799L5.54292 10.0932C4.20958 11.1332 3.15625 13.2666 3.15625 14.9466V24.1466C3.15625 27.5466 5.91625 30.3199 9.31625 30.3199H23.6896C27.0896 30.3199 29.8496 27.5599 29.8496 24.1599V15.1199C29.8496 13.3199 28.6896 11.1066 27.2229 10.0799ZM17.5029 24.9866C17.5029 25.5332 17.0496 25.9866 16.5029 25.9866C15.9563 25.9866 15.5029 25.5332 15.5029 24.9866V20.9866C15.5029 20.4399 15.9563 19.9866 16.5029 19.9866C17.0496 19.9866 17.5029 20.4399 17.5029 20.9866V24.9866Z" fill="#667085"/>
</svg>
