<svg width="72" height="73" viewBox="0 0 72 73" fill="none" xmlns="http://www.w3.org/2000/svg">
<rect x="0.273438" y="0.912109" width="71.2115" height="71.2115" rx="12.4932" fill="#060623"/>
<path d="M48 52.5C48.0001 53.6403 47.5674 54.738 46.7893 55.5715C46.0111 56.405 44.9456 56.912 43.808 56.99L43.5 57H28.5C27.3597 57.0001 26.262 56.5674 25.4285 55.7893C24.595 55.0111 24.088 53.9456 24.01 52.808L24 52.5V21.5C23.9999 20.3597 24.4326 19.262 25.2107 18.4285C25.9889 17.595 27.0544 17.088 28.192 17.01L28.5 17H43.5C44.6403 16.9999 45.738 17.4326 46.5715 18.2107C47.405 18.9889 47.912 20.0544 47.99 21.192L48 21.5V52.5ZM50 23H51.5C52.6403 22.9999 53.738 23.4326 54.5715 24.2107C55.405 24.9889 55.912 26.0544 55.99 27.192L56 27.5V46.5C56.0001 47.6403 55.5674 48.738 54.7893 49.5715C54.0111 50.405 52.9456 50.912 51.808 50.99L51.5 51H50V23ZM22 51H20.5C19.3597 51.0001 18.262 50.5674 17.4285 49.7893C16.595 49.0111 16.088 47.9456 16.01 46.808L16 46.5V27.5C15.9999 26.3597 16.4326 25.262 17.2107 24.4285C17.9889 23.595 19.0544 23.088 20.192 23.01L20.5 23H22V51Z" fill="white"/>
</svg>
