<svg width="24" height="25" viewBox="0 0 24 25" fill="none" xmlns="http://www.w3.org/2000/svg">
<path d="M11.9999 22.3768C12.2613 22.3768 12.5022 22.3468 12.7735 22.3267L13.3563 23.4315C13.4665 23.6527 13.6876 23.7731 13.9585 23.7328C14.2096 23.6827 14.3905 23.5018 14.4205 23.2305L14.6013 22.0151C15.0937 21.8848 15.5857 21.6937 16.0679 21.4828L16.9722 22.2967C17.1629 22.4775 17.4037 22.5174 17.6549 22.3768C17.876 22.2564 17.9665 22.0151 17.9163 21.7541L17.6652 20.549C18.0909 20.2518 18.4907 19.9192 18.8605 19.5547L19.9855 20.0261C20.2366 20.1268 20.4676 20.0767 20.6583 19.8457C20.8293 19.6648 20.849 19.4038 20.7085 19.1827L20.0557 18.1383C20.357 17.7161 20.5983 17.264 20.8293 16.7818L22.055 16.8423C22.3156 16.8521 22.5367 16.7115 22.6272 16.4608C22.7073 16.2093 22.6272 15.9684 22.4163 15.8077L21.4619 15.0444C21.5926 14.5623 21.6933 14.0398 21.7332 13.4973L22.8985 13.136C23.1496 13.0455 23.3099 12.8544 23.3099 12.5831C23.3099 12.3221 23.1496 12.1314 22.8985 12.041L21.7327 11.6694C21.6929 11.1268 21.5926 10.6245 21.4619 10.1325L22.4159 9.35897C22.6272 9.20854 22.7073 8.97754 22.6272 8.7264C22.5367 8.47525 22.3156 8.33425 22.0546 8.34454L20.8289 8.39468C20.5983 7.91254 20.3575 7.4604 20.0557 7.03868L20.7089 5.99425C20.849 5.78297 20.8289 5.52197 20.6583 5.34111C20.4676 5.11011 20.2366 5.04968 19.9855 5.16025L18.8605 5.6124C18.4852 5.25692 18.0857 4.92798 17.6647 4.62797L17.9163 3.43268C17.9665 3.1614 17.876 2.92054 17.6549 2.79968C17.4037 2.6694 17.1629 2.68954 16.9722 2.89011L16.0679 3.68383C15.5913 3.47696 15.1013 3.30242 14.6013 3.1614L14.4205 1.94597C14.3905 1.68454 14.2096 1.49425 13.9585 1.45397C13.6872 1.41368 13.4665 1.52425 13.3559 1.7454L12.773 2.85025C12.5022 2.83011 12.2609 2.80997 11.9999 2.80997C11.7286 2.80997 11.4877 2.83011 11.2062 2.85025L10.634 1.7454C10.5235 1.52425 10.3023 1.41368 10.0212 1.45397C9.77002 1.49425 9.59902 1.68497 9.55917 1.94597L9.38817 3.15154C8.88828 3.29697 8.39839 3.47477 7.9216 3.68383L7.01774 2.89011C6.81674 2.68954 6.57588 2.6694 6.3346 2.80011C6.11388 2.92011 6.02345 3.1614 6.07317 3.43268L6.32474 4.6284C5.89861 4.92548 5.4956 5.25442 5.11917 5.6124L4.00445 5.16025C3.75331 5.04968 3.51202 5.11011 3.32131 5.34111C3.24331 5.42778 3.19611 5.53778 3.18704 5.65402C3.17798 5.77027 3.20755 5.88625 3.27117 5.98397L3.93417 7.03911C3.63288 7.46083 3.3916 7.9134 3.1606 8.39511L1.92502 8.34497C1.6636 8.33511 1.44288 8.47568 1.36274 8.7264C1.28217 8.97797 1.35245 9.20897 1.56331 9.3594L2.5276 10.133C2.39731 10.625 2.28674 11.1273 2.25674 11.6698L1.09102 12.0414C0.830453 12.1215 0.689453 12.3127 0.689453 12.584C0.689453 12.8548 0.830453 13.046 1.09145 13.1364L2.25674 13.508C2.28674 14.0403 2.39731 14.5623 2.52802 15.0448L1.56374 15.8077C1.35245 15.9684 1.28217 16.2097 1.36231 16.4604C1.44288 16.7115 1.66402 16.8521 1.92502 16.8423L3.1606 16.7823C3.39202 17.264 3.63288 17.7165 3.92388 18.1378L3.28102 19.1827C3.1306 19.4038 3.15074 19.6648 3.32131 19.8457C3.51202 20.0767 3.75331 20.1268 4.00445 20.0265L5.11917 19.5543C5.49117 19.9258 5.90302 20.2571 6.32474 20.5485L6.0736 21.7541C6.02345 22.0155 6.11388 22.2564 6.33502 22.3768C6.58574 22.5174 6.82702 22.4771 7.01774 22.2967L7.91174 21.4828C8.39388 21.6937 8.88588 21.8848 9.38817 22.0151L9.55917 23.2305C9.59902 23.5018 9.77002 23.6827 10.0212 23.7328C10.3023 23.7731 10.5235 23.6527 10.634 23.4315L11.2062 22.3267C11.4775 22.3468 11.729 22.3768 11.9999 22.3768ZM14.5212 11.9505C14.0489 10.685 13.1249 9.99197 11.9699 9.99197C11.7989 9.99197 11.5983 10.0121 11.2769 10.082L8.39388 5.16025C9.46874 4.62797 10.694 4.33654 11.9999 4.33654C16.3795 4.33654 19.8145 7.6614 20.126 11.9505H14.5212ZM3.84374 12.5934C3.84374 9.80083 5.15945 7.33997 7.23888 5.85368L10.1416 10.8054C9.59902 11.3681 9.34831 11.9805 9.34831 12.6337C9.34831 13.2663 9.58917 13.8491 10.1416 14.4315L7.1686 19.2933C5.13931 17.7963 3.84374 15.3658 3.84374 12.5934ZM10.7643 12.6234C10.7643 11.9407 11.3472 11.408 11.99 11.408C12.6727 11.408 13.2355 11.9407 13.2355 12.6234C13.2355 13.2963 12.6727 13.8491 11.99 13.8491C11.3472 13.8491 10.7643 13.2963 10.7643 12.6234ZM11.9999 20.8503C10.664 20.8503 9.4186 20.5387 8.3236 19.9965L11.2765 15.1648C11.588 15.2454 11.7993 15.2651 11.9699 15.2651C13.1347 15.2651 14.0592 14.552 14.5212 13.2564H20.1256C19.8042 17.525 16.3692 20.8503 11.9999 20.8503Z" fill="black"/>
</svg>
