<svg width="24" height="24" viewBox="0 0 24 24" fill="none" xmlns="http://www.w3.org/2000/svg">
<path d="M18.75 24C20.1424 24 21.4777 23.4469 22.4623 22.4623C23.4469 21.4777 24 20.1424 24 18.75C24 17.3576 23.4469 16.0223 22.4623 15.0377C21.4777 14.0531 20.1424 13.5 18.75 13.5C17.3576 13.5 16.0223 14.0531 15.0377 15.0377C14.0531 16.0223 13.5 17.3576 13.5 18.75C13.5 20.1424 14.0531 21.4777 15.0377 22.4623C16.0223 23.4469 17.3576 24 18.75 24ZM19.281 15.219L21.531 17.469C21.6718 17.6098 21.7509 17.8008 21.7509 18C21.7509 18.1992 21.6718 18.3902 21.531 18.531C21.3902 18.6718 21.1992 18.7509 21 18.7509C20.8008 18.7509 20.6098 18.6718 20.469 18.531L19.5 17.5605V21.75C19.5 21.9489 19.421 22.1397 19.2803 22.2803C19.1397 22.421 18.9489 22.5 18.75 22.5C18.5511 22.5 18.3603 22.421 18.2197 22.2803C18.079 22.1397 18 21.9489 18 21.75V17.5605L17.031 18.531C16.8904 18.6718 16.6996 18.751 16.5005 18.7512C16.3015 18.7513 16.1106 18.6724 15.9697 18.5317C15.8289 18.3911 15.7497 18.2003 15.7496 18.0013C15.7494 17.8023 15.8284 17.6113 15.969 17.4705L18.219 15.2205C18.2887 15.1507 18.3714 15.0952 18.4626 15.0574C18.5537 15.0196 18.6513 15.0002 18.75 15.0002C18.8487 15.0002 18.9463 15.0196 19.0374 15.0574C19.1286 15.0952 19.2113 15.1507 19.281 15.2205V15.219Z" fill="#D56029"/>
<path d="M13.0605 2.24973C12.7792 1.96852 12.3977 1.81055 12 1.81055C11.6022 1.81055 11.2208 1.96852 10.9395 2.24973L0.968971 12.2187C0.899239 12.2885 0.843925 12.3712 0.806186 12.4624C0.768447 12.5535 0.749023 12.6511 0.749023 12.7497C0.749023 12.8483 0.768447 12.946 0.806186 13.0371C0.843925 13.1282 0.899239 13.211 0.968971 13.2807C1.1098 13.4216 1.30081 13.5007 1.49997 13.5007C1.59859 13.5007 1.69624 13.4812 1.78735 13.4435C1.87846 13.4058 1.96124 13.3505 2.03097 13.2807L12 3.31023L21.969 13.2807C22.1098 13.4216 22.3008 13.5007 22.5 13.5007C22.6991 13.5007 22.8901 13.4216 23.031 13.2807C23.1718 13.1399 23.2509 12.9489 23.2509 12.7497C23.2509 12.5506 23.1718 12.3596 23.031 12.2187L19.5 8.68923V3.74973C19.5 3.55081 19.421 3.36005 19.2803 3.2194C19.1396 3.07874 18.9489 2.99973 18.75 2.99973H17.25C17.0511 2.99973 16.8603 3.07874 16.7196 3.2194C16.579 3.36005 16.5 3.55081 16.5 3.74973V5.68923L13.0605 2.24973Z" fill="#D56029"/>
<path d="M12 4.93945L19.068 12.0075C17.82 11.9485 16.5801 12.2371 15.4864 12.841C14.3927 13.445 13.4881 14.3407 12.8733 15.4284C12.2585 16.516 11.9576 17.753 12.0042 19.0015C12.0507 20.25 12.4429 21.4611 13.137 22.5H5.25C4.65326 22.5 4.08097 22.2629 3.65901 21.8409C3.23705 21.419 3 20.8467 3 20.25V13.9395L12 4.93945Z" fill="#D56029"/>
</svg>
