<svg width="20" height="20" viewBox="0 0 20 20" fill="none" xmlns="http://www.w3.org/2000/svg">
<g id="vuesax/linear/attach-circle">
<g id="attach-circle">
<g id="Group">
<path id="Vector" d="M10.1664 9.83254L8.99138 11.0075C8.34138 11.6575 8.34138 12.7159 8.99138 13.3659C9.64138 14.0159 10.6997 14.0159 11.3497 13.3659L13.1998 11.5159C14.4998 10.2159 14.4998 8.10755 13.1998 6.79922C11.8998 5.49922 9.79139 5.49922 8.48306 6.79922L6.46641 8.81587C5.34974 9.93254 5.34974 11.7409 6.46641 12.8575" stroke="#3F3F46" stroke-width="0.918455" stroke-linecap="round" stroke-linejoin="round"/>
</g>
<path id="Vector_2" d="M10.0003 18.3327C14.6027 18.3327 18.3337 14.6017 18.3337 9.99935C18.3337 5.39698 14.6027 1.66602 10.0003 1.66602C5.39795 1.66602 1.66699 5.39698 1.66699 9.99935C1.66699 14.6017 5.39795 18.3327 10.0003 18.3327Z" stroke="#3F3F46" stroke-width="0.918455" stroke-linecap="round" stroke-linejoin="round"/>
</g>
</g>
</svg>
