<svg width="17" height="16" viewBox="0 0 17 16" fill="none" xmlns="http://www.w3.org/2000/svg">
<g id="file-04">
<path id="Icon" d="M9.83073 1.51265V4.26634C9.83073 4.63971 9.83073 4.82639 9.90339 4.969C9.96731 5.09444 10.0693 5.19643 10.1947 5.26035C10.3373 5.33301 10.524 5.33301 10.8974 5.33301H13.6511M13.8307 6.65849V11.4663C13.8307 12.5864 13.8307 13.1465 13.6127 13.5743C13.421 13.9506 13.115 14.2566 12.7387 14.4484C12.3109 14.6663 11.7508 14.6663 10.6307 14.6663H6.36406C5.24396 14.6663 4.6839 14.6663 4.25608 14.4484C3.87976 14.2566 3.5738 13.9506 3.38205 13.5743C3.16406 13.1465 3.16406 12.5864 3.16406 11.4663V4.53301C3.16406 3.4129 3.16406 2.85285 3.38205 2.42503C3.5738 2.0487 3.87976 1.74274 4.25608 1.55099C4.6839 1.33301 5.24396 1.33301 6.36406 1.33301H8.50525C8.99443 1.33301 9.23902 1.33301 9.46919 1.38827C9.67326 1.43726 9.86835 1.51807 10.0473 1.62773C10.2491 1.75141 10.4221 1.92436 10.768 2.27027L12.8935 4.39575C13.2394 4.74165 13.4123 4.9146 13.536 5.11644C13.6457 5.29538 13.7265 5.49047 13.7755 5.69454C13.8307 5.92472 13.8307 6.16931 13.8307 6.65849Z" stroke="#FFFF00" stroke-width="1.33333" stroke-linecap="round" stroke-linejoin="round"/>
</g>
</svg>
