<svg width="28" height="28" viewBox="0 0 28 28" fill="none" xmlns="http://www.w3.org/2000/svg">
<path d="M14 22.1663H7C6.07174 22.1663 5.1815 21.7976 4.52513 21.1412C3.86875 20.4848 3.5 19.5946 3.5 18.6663V9.33301C3.5 8.40475 3.86875 7.51451 4.52513 6.85813C5.1815 6.20176 6.07174 5.83301 7 5.83301H21C21.9283 5.83301 22.8185 6.20176 23.4749 6.85813C24.1313 7.51451 24.5 8.40475 24.5 9.33301V14.583M3.5 11.6663H24.5M8.16667 17.4997H8.17833M12.8333 17.4997H15.1667M18.6667 22.1663H25.6667M18.6667 22.1663L22.1667 18.6663M18.6667 22.1663L22.1667 25.6663" stroke="#606060" stroke-width="1.8" stroke-linecap="round" stroke-linejoin="round"/>
</svg>
