<svg width="24" height="24" viewBox="0 0 24 24" fill="none" xmlns="http://www.w3.org/2000/svg">
<g id="vuesax/bold/bag-tick-2">
<g id="bag-tick-2">
<path id="Vector" d="M19.9597 8.96039C19.2897 8.22039 18.2797 7.79039 16.8797 7.64039V6.88039C16.8797 5.51039 16.2997 4.19039 15.2797 3.27039C14.2497 2.33039 12.9097 1.89039 11.5197 2.02039C9.12975 2.25039 7.11975 4.56039 7.11975 7.06039V7.64039C5.71975 7.79039 4.70975 8.22039 4.03975 8.96039C3.06975 10.0404 3.09975 11.4804 3.20975 12.4804L3.90975 18.0504C4.11975 20.0004 4.90975 22.0004 9.20975 22.0004H14.7897C19.0897 22.0004 19.8797 20.0004 20.0897 18.0604L20.7897 12.4704C20.8997 11.4804 20.9297 10.0404 19.9597 8.96039ZM11.6597 3.41039C12.6597 3.32039 13.6097 3.63039 14.3497 4.30039C15.0797 4.96039 15.4897 5.90039 15.4897 6.88039V7.58039H8.50975V7.06039C8.50975 5.28039 9.97975 3.57039 11.6597 3.41039ZM11.9997 18.5804C9.90975 18.5804 8.20975 16.8804 8.20975 14.7904C8.20975 12.7004 9.90975 11.0004 11.9997 11.0004C14.0897 11.0004 15.7897 12.7004 15.7897 14.7904C15.7897 16.8804 14.0897 18.5804 11.9997 18.5804Z" fill="#FF9103"/>
<path id="Vector_2" d="M11.4299 16.64C11.2399 16.64 11.0499 16.57 10.8999 16.42L9.90988 15.43C9.61988 15.14 9.61988 14.66 9.90988 14.37C10.1999 14.08 10.6799 14.08 10.9699 14.37L11.4499 14.85L13.0499 13.37C13.3499 13.09 13.8299 13.11 14.1099 13.41C14.3899 13.71 14.3699 14.19 14.0699 14.47L11.9399 16.44C11.7899 16.57 11.6099 16.64 11.4299 16.64Z" fill="#FF9103"/>
</g>
</g>
</svg>
