<svg width="40" height="41" viewBox="0 0 40 41" fill="none" xmlns="http://www.w3.org/2000/svg">
<circle cx="20" cy="20.1582" r="20" fill="#4545FE" fill-opacity="0.1"/>
<path d="M30 29.4084H28.75V19.1584C28.75 16.7384 27.42 15.4084 25 15.4084H20.75V14.1784C21.33 14.3184 21.91 14.3984 22.5 14.3984C23.44 14.3984 24.38 14.2184 25.28 13.8584C25.56 13.7484 25.75 13.4684 25.75 13.1584V10.1584C25.75 9.90839 25.63 9.67839 25.42 9.53839C25.21 9.39839 24.95 9.36839 24.72 9.45839C23.29 10.0284 21.71 10.0284 20.28 9.45839C20.05 9.36839 19.79 9.39839 19.58 9.53839C19.37 9.67839 19.25 9.90839 19.25 10.1584V13.1584V15.4084H15C12.58 15.4084 11.25 16.7384 11.25 19.1584V29.4084H10C9.59 29.4084 9.25 29.7484 9.25 30.1584C9.25 30.5684 9.59 30.9084 10 30.9084H12H28H30C30.41 30.9084 30.75 30.5684 30.75 30.1584C30.75 29.7484 30.41 29.4084 30 29.4084ZM15.24 29.4084H12.75V20.9084H15.24V29.4084ZM19.24 29.4084H16.74V20.9084H19.24V29.4084ZM23.24 29.4084H20.74V20.9084H23.24V29.4084ZM27.25 29.4084H24.74V20.9084H27.25V29.4084Z" fill="#4545FE"/>
</svg>
