<svg width="16" height="16" viewBox="0 0 16 16" fill="none" xmlns="http://www.w3.org/2000/svg">
<g id="material-symbols:hotel-rounded">
<path id="Vector" d="M1.33366 12.6668C1.14477 12.6668 0.986548 12.6028 0.858992 12.4748C0.731437 12.3468 0.667437 12.1885 0.666992 12.0001V3.33342C0.666992 3.14453 0.730992 2.98631 0.858992 2.85875C0.986992 2.73119 1.14521 2.66719 1.33366 2.66675C1.5221 2.66631 1.68055 2.73031 1.80899 2.85875C1.93744 2.98719 2.00121 3.14542 2.00033 3.33342V9.33342H7.33366V5.33342C7.33366 4.96675 7.46433 4.65297 7.72566 4.39208C7.98699 4.13119 8.30077 4.00053 8.66699 4.00008H12.667C13.4003 4.00008 14.0281 4.26119 14.5503 4.78342C15.0725 5.30564 15.3337 5.93342 15.3337 6.66675V12.0001C15.3337 12.189 15.2697 12.3474 15.1417 12.4754C15.0137 12.6034 14.8554 12.6672 14.667 12.6668C14.4785 12.6663 14.3203 12.6023 14.1923 12.4748C14.0643 12.3472 14.0003 12.189 14.0003 12.0001V10.6668H2.00033V12.0001C2.00033 12.189 1.93633 12.3474 1.80833 12.4754C1.68033 12.6034 1.5221 12.6672 1.33366 12.6668ZM4.66699 8.66675C4.11144 8.66675 3.63921 8.47231 3.25033 8.08342C2.86144 7.69453 2.66699 7.22231 2.66699 6.66675C2.66699 6.11119 2.86144 5.63897 3.25033 5.25008C3.63921 4.86119 4.11144 4.66675 4.66699 4.66675C5.22255 4.66675 5.69477 4.86119 6.08366 5.25008C6.47255 5.63897 6.66699 6.11119 6.66699 6.66675C6.66699 7.22231 6.47255 7.69453 6.08366 8.08342C5.69477 8.47231 5.22255 8.66675 4.66699 8.66675Z" fill="#27272A"/>
</g>
</svg>
