<svg width="36" height="36" viewBox="0 0 36 36" fill="none" xmlns="http://www.w3.org/2000/svg">
<path d="M31.6104 7.845C29.1954 7.605 26.7804 7.425 24.3504 7.29V7.275L24.0204 5.325C23.7954 3.945 23.4654 1.875 19.9554 1.875H16.0254C12.5304 1.875 12.2004 3.855 11.9604 5.31L11.6454 7.23C10.2504 7.32 8.85536 7.41 7.46036 7.545L4.40036 7.845C3.77036 7.905 3.32036 8.46 3.38036 9.075C3.44036 9.69 3.98036 10.14 4.61036 10.08L7.67036 9.78C15.5304 9 23.4504 9.3 31.4004 10.095C31.4454 10.095 31.4754 10.095 31.5204 10.095C32.0904 10.095 32.5854 9.66 32.6454 9.075C32.6904 8.46 32.2404 7.905 31.6104 7.845Z" fill="#FF6A6A"/>
<path d="M28.8436 12.21C28.4836 11.835 27.9886 11.625 27.4786 11.625H8.51865C8.00865 11.625 7.49865 11.835 7.15365 12.21C6.80865 12.585 6.61365 13.095 6.64365 13.62L7.57365 29.01C7.73865 31.29 7.94865 34.14 13.1836 34.14H22.8136C28.0486 34.14 28.2586 31.305 28.4236 29.01L29.3536 13.635C29.3836 13.095 29.1886 12.585 28.8436 12.21ZM20.4886 26.625H15.4936C14.8786 26.625 14.3686 26.115 14.3686 25.5C14.3686 24.885 14.8786 24.375 15.4936 24.375H20.4886C21.1036 24.375 21.6136 24.885 21.6136 25.5C21.6136 26.115 21.1036 26.625 20.4886 26.625ZM21.7486 20.625H14.2486C13.6336 20.625 13.1236 20.115 13.1236 19.5C13.1236 18.885 13.6336 18.375 14.2486 18.375H21.7486C22.3636 18.375 22.8736 18.885 22.8736 19.5C22.8736 20.115 22.3636 20.625 21.7486 20.625Z" fill="#FF6A6A"/>
</svg>
