<svg width="62" height="31" viewBox="0 0 62 31" fill="none" xmlns="http://www.w3.org/2000/svg">
<rect width="62" height="31" rx="15.5" fill="#E7FBF5"/>
<path d="M14.844 12.248C15.388 12.76 15.66 13.408 15.66 14.192C15.66 14.976 15.388 15.624 14.844 16.136C14.308 16.64 13.604 16.892 12.732 16.892H11.244V20H10.128V11.48H12.732C13.604 11.48 14.308 11.736 14.844 12.248ZM14.064 15.392C14.392 15.08 14.556 14.68 14.556 14.192C14.556 13.704 14.392 13.304 14.064 12.992C13.744 12.68 13.3 12.524 12.732 12.524H11.244V15.86H12.732C13.3 15.86 13.744 15.704 14.064 15.392ZM19.4798 20.12C18.5758 20.12 17.8238 19.82 17.2238 19.22C16.6318 18.612 16.3358 17.872 16.3358 17C16.3358 16.128 16.6318 15.392 17.2238 14.792C17.8238 14.184 18.5758 13.88 19.4798 13.88C20.3758 13.88 21.1198 14.184 21.7118 14.792C22.3118 15.392 22.6118 16.128 22.6118 17C22.6118 17.872 22.3118 18.612 21.7118 19.22C21.1198 19.82 20.3758 20.12 19.4798 20.12ZM17.9678 18.536C18.3598 18.952 18.8638 19.16 19.4798 19.16C20.0958 19.16 20.5958 18.952 20.9798 18.536C21.3638 18.12 21.5558 17.608 21.5558 17C21.5558 16.392 21.3638 15.88 20.9798 15.464C20.5958 15.048 20.0958 14.84 19.4798 14.84C18.8638 14.84 18.3598 15.048 17.9678 15.464C17.5838 15.88 17.3918 16.392 17.3918 17C17.3918 17.608 17.5838 18.12 17.9678 18.536ZM25.1251 22.508H24.0931V14H25.1251V14.924C25.3331 14.62 25.6251 14.372 26.0011 14.18C26.3851 13.98 26.7971 13.88 27.2371 13.88C28.0691 13.88 28.7651 14.184 29.3251 14.792C29.8931 15.4 30.1771 16.136 30.1771 17C30.1771 17.864 29.8931 18.6 29.3251 19.208C28.7651 19.816 28.0691 20.12 27.2371 20.12C26.7971 20.12 26.3851 20.024 26.0011 19.832C25.6251 19.632 25.3331 19.38 25.1251 19.076V22.508ZM25.6171 18.548C26.0011 18.964 26.4891 19.172 27.0811 19.172C27.6731 19.172 28.1611 18.964 28.5451 18.548C28.9291 18.132 29.1211 17.616 29.1211 17C29.1211 16.384 28.9291 15.868 28.5451 15.452C28.1611 15.036 27.6731 14.828 27.0811 14.828C26.4891 14.828 26.0011 15.036 25.6171 15.452C25.2331 15.868 25.0411 16.384 25.0411 17C25.0411 17.616 25.2331 18.132 25.6171 18.548ZM33.7874 20.12C33.1314 20.12 32.5994 19.9 32.1914 19.46C31.7834 19.012 31.5794 18.42 31.5794 17.684V14H32.6114V17.528C32.6114 18.032 32.7314 18.432 32.9714 18.728C33.2194 19.024 33.5514 19.172 33.9674 19.172C34.4474 19.172 34.8434 18.976 35.1554 18.584C35.4754 18.184 35.6354 17.648 35.6354 16.976V14H36.6674V20H35.6354V19.076C35.2434 19.772 34.6274 20.12 33.7874 20.12ZM38.6126 20V11H39.6446V20H38.6126ZM44.0729 20.12C43.2409 20.12 42.5409 19.816 41.9729 19.208C41.4129 18.6 41.1329 17.864 41.1329 17C41.1329 16.136 41.4129 15.4 41.9729 14.792C42.5409 14.184 43.2409 13.88 44.0729 13.88C44.5129 13.88 44.9209 13.98 45.2969 14.18C45.6809 14.372 45.9769 14.62 46.1849 14.924V14H47.2169V20H46.1849V19.076C45.9769 19.38 45.6809 19.632 45.2969 19.832C44.9209 20.024 44.5129 20.12 44.0729 20.12ZM44.2289 19.172C44.8209 19.172 45.3089 18.964 45.6929 18.548C46.0769 18.132 46.2689 17.616 46.2689 17C46.2689 16.384 46.0769 15.868 45.6929 15.452C45.3089 15.036 44.8209 14.828 44.2289 14.828C43.6289 14.828 43.1369 15.036 42.7529 15.452C42.3689 15.868 42.1769 16.384 42.1769 17C42.1769 17.616 42.3689 18.132 42.7529 18.548C43.1369 18.964 43.6289 19.172 44.2289 19.172ZM49.1595 20V14H50.1915V15.164C50.3035 14.796 50.5195 14.5 50.8395 14.276C51.1675 14.052 51.5115 13.94 51.8715 13.94C52.0475 13.94 52.2035 13.956 52.3395 13.988V15.056C52.1955 14.992 52.0075 14.96 51.7755 14.96C51.3595 14.96 50.9915 15.14 50.6715 15.5C50.3515 15.86 50.1915 16.368 50.1915 17.024V20H49.1595Z" fill="#064B38"/>
</svg>
