<svg width="33" height="32" viewBox="0 0 33 32" fill="none" xmlns="http://www.w3.org/2000/svg">
<g id="vuesax/bold/trash">
<g id="trash">
<path id="Vector" d="M28.5932 6.97366C26.4466 6.76033 24.2999 6.60033 22.1399 6.48033V6.46699L21.8465 4.73366C21.6465 3.50699 21.3532 1.66699 18.2332 1.66699H14.7399C11.6332 1.66699 11.3399 3.42699 11.1266 4.72033L10.8466 6.42699C9.60655 6.50699 8.36655 6.58699 7.12655 6.70699L4.40655 6.97366C3.84655 7.02699 3.44655 7.52033 3.49988 8.06699C3.55322 8.61366 4.03322 9.01366 4.59322 8.96032L7.31322 8.69366C14.2999 8.00033 21.3399 8.26699 28.4066 8.97366C28.4466 8.97366 28.4732 8.97366 28.5132 8.97366C29.0199 8.97366 29.4599 8.58699 29.5132 8.06699C29.5532 7.52033 29.1532 7.02699 28.5932 6.97366Z" fill="#FF6A6A"/>
<path id="Vector_2" d="M26.14 10.853C25.82 10.5197 25.38 10.333 24.9267 10.333H8.07335C7.62001 10.333 7.16668 10.5197 6.86001 10.853C6.55335 11.1863 6.38001 11.6397 6.40668 12.1063L7.23335 25.7863C7.38001 27.813 7.56668 30.3463 12.22 30.3463H20.78C25.4333 30.3463 25.62 27.8263 25.7667 25.7863L26.5933 12.1197C26.62 11.6397 26.4467 11.1863 26.14 10.853ZM18.7133 23.6663H14.2733C13.7267 23.6663 13.2733 23.213 13.2733 22.6663C13.2733 22.1197 13.7267 21.6663 14.2733 21.6663H18.7133C19.26 21.6663 19.7133 22.1197 19.7133 22.6663C19.7133 23.213 19.26 23.6663 18.7133 23.6663ZM19.8333 18.333H13.1667C12.62 18.333 12.1667 17.8797 12.1667 17.333C12.1667 16.7863 12.62 16.333 13.1667 16.333H19.8333C20.38 16.333 20.8333 16.7863 20.8333 17.333C20.8333 17.8797 20.38 18.333 19.8333 18.333Z" fill="#FF6A6A"/>
</g>
</g>
</svg>
