<svg width="17" height="17" viewBox="0 0 17 17" fill="none" xmlns="http://www.w3.org/2000/svg">
<path fill-rule="evenodd" clip-rule="evenodd" d="M12.2801 5.62956V6.65179C13.4284 7.0102 14.265 8.04965 14.265 9.29116V12.5824C14.265 14.1194 12.9907 15.3656 11.4198 15.3656H5.77751C4.20588 15.3656 2.93164 14.1194 2.93164 12.5824V9.29116C2.93164 8.04965 3.76894 7.0102 4.9165 6.65179V5.62956C4.92327 3.64208 6.56942 2.03223 8.58815 2.03223C10.634 2.03223 12.2801 3.64208 12.2801 5.62956ZM8.60191 3.19108C9.97709 3.19108 11.0948 4.28419 11.0948 5.62906V6.50752H6.10221V5.61581C6.10899 4.27757 7.22674 3.19108 8.60191 3.19108ZM9.19135 11.6692C9.19135 11.9938 8.92716 12.2522 8.59522 12.2522C8.27006 12.2522 8.00586 11.9938 8.00586 11.6692V10.1984C8.00586 9.88044 8.27006 9.62207 8.59522 9.62207C8.92716 9.62207 9.19135 9.88044 9.19135 10.1984V11.6692Z" fill="#191919"/>
</svg>
