<svg width="48" height="48" viewBox="0 0 48 48" fill="none" xmlns="http://www.w3.org/2000/svg">
<rect x="3.375" y="3.375" width="42" height="42" rx="21" fill="#F5F5F5"/>
<rect x="3.375" y="3.375" width="42" height="42" rx="21" stroke="#FAFAFA" stroke-width="5.25"/>
<path d="M26.125 15.8608V19.475C26.125 19.965 26.125 20.2101 26.2204 20.3972C26.3043 20.5619 26.4381 20.6957 26.6028 20.7796C26.7899 20.875 27.035 20.875 27.525 20.875H31.1392M31.375 22.6147V28.925C31.375 30.3951 31.375 31.1302 31.0889 31.6917C30.8372 32.1856 30.4356 32.5872 29.9417 32.8389C29.3802 33.125 28.6451 33.125 27.175 33.125H21.575C20.1049 33.125 19.3698 33.125 18.8083 32.8389C18.3143 32.5872 17.9128 32.1856 17.6611 31.6917C17.375 31.1302 17.375 30.3951 17.375 28.925V19.825C17.375 18.3549 17.375 17.6198 17.6611 17.0583C17.9128 16.5643 18.3143 16.1628 18.8083 15.9111C19.3698 15.625 20.1049 15.625 21.575 15.625H24.3853C25.0274 15.625 25.3484 15.625 25.6505 15.6975C25.9183 15.7618 26.1744 15.8679 26.4092 16.0118C26.6742 16.1742 26.9012 16.4012 27.3552 16.8552L30.1448 19.6448C30.5988 20.0988 30.8258 20.3258 30.9882 20.5908C31.1321 20.8256 31.2382 21.0817 31.3025 21.3495C31.375 21.6516 31.375 21.9726 31.375 22.6147Z" stroke="#4545FE" stroke-width="1.75" stroke-linecap="round" stroke-linejoin="round"/>
</svg>
