<svg width="27" height="27" viewBox="0 0 27 27" fill="none" xmlns="http://www.w3.org/2000/svg">
<circle cx="13.5" cy="13.5" r="13.5" fill="#4545FE"/>
<path d="M3.97969 14.92V13.48H6.91969V14.92H3.97969ZM10.3427 17.11C9.66932 17.11 9.07932 16.9033 8.57266 16.49C8.06599 16.07 7.79932 15.54 7.77266 14.9H9.33266C9.38599 15.1133 9.50599 15.2867 9.69266 15.42C9.87932 15.5533 10.096 15.62 10.3427 15.62C10.656 15.62 10.8993 15.53 11.0727 15.35C11.246 15.17 11.3327 14.9333 11.3327 14.64C11.3327 14.36 11.2393 14.1267 11.0527 13.94C10.866 13.7533 10.6327 13.66 10.3527 13.66C10.0927 13.66 9.87266 13.73 9.69266 13.87C9.51266 14.0033 9.38266 14.18 9.30266 14.4L7.99266 13.99L8.81266 9.9H12.3027V11.36H9.97266L9.73266 12.49C9.96599 12.3633 10.2693 12.3 10.6427 12.3C11.3093 12.3 11.8427 12.5267 12.2427 12.98C12.6427 13.4333 12.8427 14.0233 12.8427 14.75C12.8427 15.4833 12.616 16.06 12.1627 16.48C11.716 16.9 11.1093 17.11 10.3427 17.11ZM16.6444 17H15.0944L19.5944 9.9H21.1444L16.6444 17ZM20.7644 17.08C20.2177 17.08 19.751 16.8867 19.3644 16.5C18.9844 16.1133 18.7944 15.65 18.7944 15.11C18.7944 14.5633 18.9844 14.1 19.3644 13.72C19.751 13.3333 20.2177 13.14 20.7644 13.14C21.3044 13.14 21.7677 13.3333 22.1544 13.72C22.541 14.1 22.7344 14.5633 22.7344 15.11C22.7344 15.65 22.541 16.1133 22.1544 16.5C21.7677 16.8867 21.3044 17.08 20.7644 17.08ZM20.2644 15.61C20.4044 15.75 20.571 15.82 20.7644 15.82C20.9577 15.82 21.121 15.75 21.2544 15.61C21.3877 15.47 21.4544 15.3033 21.4544 15.11C21.4544 14.9167 21.3877 14.75 21.2544 14.61C21.121 14.47 20.9577 14.4 20.7644 14.4C20.571 14.4 20.4044 14.47 20.2644 14.61C20.131 14.75 20.0644 14.9167 20.0644 15.11C20.0644 15.3033 20.131 15.47 20.2644 15.61ZM15.4744 13.76C14.9277 13.76 14.461 13.5667 14.0744 13.18C13.6944 12.7933 13.5044 12.33 13.5044 11.79C13.5044 11.2433 13.6944 10.78 14.0744 10.4C14.461 10.0133 14.9277 9.82 15.4744 9.82C16.0144 9.82 16.4777 10.0133 16.8644 10.4C17.251 10.78 17.4444 11.2433 17.4444 11.79C17.4444 12.33 17.251 12.7933 16.8644 13.18C16.4777 13.5667 16.0144 13.76 15.4744 13.76ZM15.4744 12.5C15.6677 12.5 15.831 12.43 15.9644 12.29C16.0977 12.15 16.1644 11.9833 16.1644 11.79C16.1644 11.5967 16.0977 11.43 15.9644 11.29C15.831 11.15 15.6677 11.08 15.4744 11.08C15.2744 11.08 15.1077 11.15 14.9744 11.29C14.841 11.4233 14.7744 11.59 14.7744 11.79C14.7744 11.99 14.841 12.16 14.9744 12.3C15.1077 12.4333 15.2744 12.5 15.4744 12.5Z" fill="white"/>
</svg>
