<svg width="20" height="19" viewBox="0 0 20 19" fill="none" xmlns="http://www.w3.org/2000/svg">
<g id="Danger">
<path id="Path 39482" opacity="0.4" fill-rule="evenodd" clip-rule="evenodd" d="M2.72302 18.1633C2.71002 18.1633 2.69802 18.1633 2.68402 18.1623C2.36902 18.1463 2.06002 18.0783 1.76602 17.9594C0.319006 17.3715 -0.378994 15.7187 0.208006 14.273L7.52906 1.44901C7.78106 0.993078 8.16306 0.611142 8.62906 0.353185C9.99407 -0.402695 11.7201 0.094228 12.4751 1.45801L19.7481 14.184C19.9101 14.5649 19.9791 14.8749 19.9961 15.1908C20.0351 15.9467 19.7771 16.6716 19.2711 17.2325C18.7651 17.7934 18.0701 18.1243 17.3151 18.1623L2.79501 18.1633L2.72302 18.1633Z" fill="#4545FE"/>
<path id="Path 39483" fill-rule="evenodd" clip-rule="evenodd" d="M9.125 13.2706C9.125 12.7856 9.51801 12.3906 10 12.3906C10.482 12.3906 10.875 12.7806 10.875 13.2596C10.875 13.7526 10.482 14.1456 10 14.1456C9.518 14.1456 9.125 13.7526 9.125 13.2706ZM9.12513 7.02047C9.12513 6.53849 9.51814 6.14551 10.0001 6.14551C10.4821 6.14551 10.8751 6.53849 10.8751 7.02047V9.84834C10.8751 10.3313 10.4821 10.7233 10.0001 10.7233C9.51813 10.7233 9.12513 10.3313 9.12513 9.84834V7.02047Z" fill="#4545FE"/>
</g>
</svg>
