<svg width="12" height="12" viewBox="0 0 12 12" fill="none" xmlns="http://www.w3.org/2000/svg">
<g id="mingcute:checkbox-fill" clip-path="url(#clip0_28083_84034)">
<g id="Group">
<path id="Vector" fill-rule="evenodd" clip-rule="evenodd" d="M1.80156 0.599976C1.4833 0.599976 1.17808 0.726404 0.953034 0.951447C0.727991 1.17649 0.601563 1.48172 0.601562 1.79998V10.2C0.601563 10.5182 0.727991 10.8235 0.953034 11.0485C1.17808 11.2735 1.4833 11.4 1.80156 11.4H10.2016C10.5198 11.4 10.825 11.2735 11.0501 11.0485C11.2751 10.8235 11.4016 10.5182 11.4016 10.2V1.79998C11.4016 1.48172 11.2751 1.17649 11.0501 0.951447C10.825 0.726404 10.5198 0.599976 10.2016 0.599976H1.80156ZM8.97156 4.67758C9.08415 4.56507 9.14743 4.41245 9.14748 4.25329C9.14754 4.09413 9.08437 3.94146 8.97186 3.82888C8.85936 3.71629 8.70674 3.65301 8.54757 3.65295C8.38841 3.6529 8.23575 3.71607 8.12316 3.82858L5.15316 6.79858L3.88056 5.52598C3.82486 5.47023 3.75871 5.426 3.68592 5.39582C3.61312 5.36563 3.53508 5.35008 3.45627 5.35005C3.29711 5.35 3.14445 5.41317 3.03186 5.52568C2.91928 5.63818 2.856 5.7908 2.85594 5.94996C2.85588 6.10913 2.91906 6.26179 3.03156 6.37438L4.68636 8.02918C4.74765 8.0905 4.82043 8.13914 4.90052 8.17233C4.98062 8.20551 5.06646 8.22259 5.15316 8.22259C5.23986 8.22259 5.32571 8.20551 5.40581 8.17233C5.4859 8.13914 5.55867 8.0905 5.61996 8.02918L8.97156 4.67758Z" fill="#191919"/>
</g>
</g>
<defs>
<clipPath id="clip0_28083_84034">
<rect width="12" height="12" fill="white"/>
</clipPath>
</defs>
</svg>
