<svg width="24" height="24" viewBox="0 0 24 24" fill="none" xmlns="http://www.w3.org/2000/svg">
<g id="fi-rr-bulb" clipPath="url(#clip0_10189_86858)">
<path id="Vector" d="M17.9934 2.28589C16.7729 1.19543 15.278 0.458472 13.6698 0.15432C12.0615 -0.149833 10.4008 -0.00966174 8.8663 0.559748C7.33179 1.12916 5.98162 2.10625 4.96107 3.38586C3.94052 4.66548 3.28825 6.19917 3.07444 7.82189C2.88242 9.24474 3.03599 10.6929 3.52216 12.0438C4.00833 13.3948 4.81278 14.6087 5.86744 15.5829C6.51964 16.1548 7.04592 16.856 7.41292 17.642C7.77993 18.428 7.97965 19.2817 7.99944 20.1489V20.3099C8.0005 21.2882 8.38961 22.2262 9.08139 22.9179C9.77317 23.6097 10.7111 23.9988 11.6894 23.9999H12.3094C13.2878 23.9988 14.2257 23.6097 14.9175 22.9179C15.6093 22.2262 15.9984 21.2882 15.9994 20.3099V19.7609C16.0144 18.9944 16.1948 18.2401 16.5282 17.5497C16.8617 16.8594 17.3403 16.2492 17.9314 15.7609C18.89 14.9213 19.6593 13.8877 20.1882 12.7284C20.7172 11.5691 20.9937 10.3106 20.9996 9.03636C21.0054 7.76211 20.7405 6.50116 20.2222 5.33705C19.704 4.17293 18.9443 3.13223 17.9934 2.28389V2.28589ZM12.3094 21.9999H11.6894C11.2414 21.9994 10.8118 21.8211 10.495 21.5043C10.1782 21.1875 9.99997 20.7579 9.99944 20.3099C9.99944 20.3099 9.99244 20.0499 9.99144 19.9999H13.9994V20.3099C13.9989 20.7579 13.8207 21.1875 13.5039 21.5043C13.187 21.8211 12.7575 21.9994 12.3094 21.9999ZM16.6094 14.2589C15.4709 15.2464 14.6486 16.5476 14.2454 17.9999H12.9994V10.8159C13.5823 10.6098 14.0873 10.2287 14.4454 9.72459C14.8034 9.22052 14.9969 8.61815 14.9994 7.99989C14.9994 7.73467 14.8941 7.48032 14.7065 7.29278C14.519 7.10525 14.2647 6.99989 13.9994 6.99989C13.7342 6.99989 13.4799 7.10525 13.2923 7.29278C13.1048 7.48032 12.9994 7.73467 12.9994 7.99989C12.9994 8.26511 12.8941 8.51946 12.7065 8.707C12.519 8.89453 12.2647 8.99989 11.9994 8.99989C11.7342 8.99989 11.4799 8.89453 11.2923 8.707C11.1048 8.51946 10.9994 8.26511 10.9994 7.99989C10.9994 7.73467 10.8941 7.48032 10.7065 7.29278C10.519 7.10525 10.2647 6.99989 9.99944 6.99989C9.73422 6.99989 9.47987 7.10525 9.29233 7.29278C9.1048 7.48032 8.99944 7.73467 8.99944 7.99989C9.002 8.61815 9.19552 9.22052 9.55353 9.72459C9.91153 10.2287 10.4165 10.6098 10.9994 10.8159V17.9999H9.67744C9.22643 16.5091 8.38056 15.1681 7.22944 14.1189C6.25239 13.2085 5.55616 12.0376 5.22291 10.7444C4.88966 9.45116 4.93328 8.08961 5.34865 6.82038C5.76401 5.55116 6.53378 4.42724 7.56711 3.58125C8.60043 2.73527 9.8542 2.20252 11.1804 2.04589C11.4554 2.0152 11.7318 1.99984 12.0084 1.99989C13.726 1.99478 15.3841 2.62851 16.6604 3.77789C17.4001 4.43749 17.9912 5.24678 18.3944 6.15211C18.7976 7.05745 19.0038 8.03815 18.9992 9.02921C18.9947 10.0203 18.7795 10.999 18.3681 11.9006C17.9566 12.8023 17.3581 13.6061 16.6124 14.2589H16.6094Z" fill="#4545FE"/>
</g>
<defs>
<clipPath id="clip0_10189_86858">
<rect width="24" height="24" fill="white"/>
</clipPath>
</defs>
</svg>
