<svg width="40" height="40" viewBox="0 0 40 40" fill="none" xmlns="http://www.w3.org/2000/svg">
<g id="fi-rr-menu-burger" clipPath="url(#clip0_3565_21419)">
<path id="Vector" d="M38.3333 18.332H1.66667C0.746192 18.332 0 19.0782 0 19.9987C0 20.9192 0.746192 21.6654 1.66667 21.6654H38.3333C39.2538 21.6654 40 20.9192 40 19.9987C40 19.0782 39.2538 18.332 38.3333 18.332Z" fill="#191919"/>
<path id="Vector_2" d="M38.3333 6.66797H1.66667C0.746192 6.66797 0 7.41416 0 8.33463C0 9.25511 0.746192 10.0013 1.66667 10.0013H38.3333C39.2538 10.0013 40 9.25511 40 8.33463C40 7.41416 39.2538 6.66797 38.3333 6.66797Z" fill="#191919"/>
<path id="Vector_3" d="M38.3333 30H1.66667C0.746192 30 0 30.7462 0 31.6667C0 32.5872 0.746192 33.3334 1.66667 33.3334H38.3333C39.2538 33.3334 40 32.5872 40 31.6667C40 30.7462 39.2538 30 38.3333 30Z" fill="#191919"/>
</g>
<defs>
<clipPath id="clip0_3565_21419">
<rect width="40" height="40" fill="white"/>
</clipPath>
</defs>
</svg>
