<svg width="68" height="68" viewBox="0 0 68 68" fill="none" xmlns="http://www.w3.org/2000/svg">
<path fill-rule="evenodd" clip-rule="evenodd" d="M8.5 47.7987V26.2285H59.5V47.9715C59.5 56.8654 53.9016 62.3337 44.9446 62.3337H23.0274C14.1542 62.3337 8.5 56.752 8.5 47.7987ZM22.5516 40.8287C21.264 40.8882 20.2003 39.8653 20.1443 38.5648C20.1443 37.2615 21.152 36.1848 22.4396 36.1253C23.6992 36.1253 24.7349 37.1199 24.7629 38.392C24.8189 39.6982 23.8112 40.7748 22.5516 40.8287ZM34.0561 40.8287C32.7684 40.8882 31.7047 39.8653 31.6486 38.5648C31.6486 37.2615 32.6564 36.1848 33.9439 36.1253C35.2036 36.1253 36.2392 37.1199 36.2672 38.392C36.3233 39.6982 35.3155 40.7748 34.0561 40.8287ZM45.4764 51.2554C44.1887 51.227 43.1531 50.1504 43.1531 48.847C43.125 47.5437 44.1609 46.4699 45.4484 46.4415H45.4764C46.7919 46.4415 47.8556 47.5182 47.8556 48.847C47.8556 50.1787 46.7919 51.2554 45.4764 51.2554ZM31.6486 48.847C31.7047 50.1504 32.7684 51.1732 34.0561 51.1137C35.3155 51.0599 36.3233 49.9832 36.2672 48.6798C36.2392 47.4049 35.2036 46.4103 33.9439 46.4103C32.6564 46.4698 31.6486 47.5437 31.6486 48.847ZM20.1164 48.847C20.1723 50.1504 21.236 51.1732 22.5236 51.1137C23.7832 51.0599 24.7909 49.9832 24.7349 48.6798C24.7069 47.4049 23.6713 46.4103 22.4116 46.4103C21.124 46.4698 20.1164 47.5437 20.1164 48.847ZM43.1811 38.5365C43.1811 37.2332 44.1887 36.1848 45.4764 36.1565C46.7361 36.1565 47.7437 37.1737 47.7998 38.4232C47.8278 39.7265 46.82 40.8032 45.5603 40.8287C44.2728 40.857 43.2092 39.8653 43.1811 38.5648V38.5365Z" fill="#4545FE"/>
<path opacity="0.4" d="M8.50781 26.2275C8.54419 24.5644 8.68416 21.2635 8.94726 20.201C10.2909 14.2255 14.8534 10.4289 21.3754 9.8877H46.6233C53.0893 10.4572 57.7079 14.2794 59.0515 20.201C59.3119 21.2352 59.4518 24.5615 59.4881 26.2275H8.50781Z" fill="#4545FE"/>
<path d="M23.5303 18.672C24.7619 18.672 25.6856 17.7398 25.6856 16.4903V7.85149C25.6856 6.60199 24.7619 5.66699 23.5303 5.66699C22.2987 5.66699 21.375 6.60199 21.375 7.85149V16.4903C21.375 17.7398 22.2987 18.672 23.5303 18.672Z" fill="#4545FE"/>
<path d="M44.4678 18.672C45.6714 18.672 46.6231 17.7398 46.6231 16.4903V7.85149C46.6231 6.60199 45.6714 5.66699 44.4678 5.66699C43.2364 5.66699 42.3125 6.60199 42.3125 7.85149V16.4903C42.3125 17.7398 43.2364 18.672 44.4678 18.672Z" fill="#4545FE"/>
</svg>
