<svg width="17" height="16" viewBox="0 0 17 16" fill="none" xmlns="http://www.w3.org/2000/svg">
<path opacity="0.4" d="M10.1475 4.15418C9.84437 4.09817 9.56593 4.29165 9.50821 4.58759C9.45049 4.88353 9.64457 5.17247 9.9395 5.23039C10.8275 5.40349 11.5131 6.09084 11.6869 6.98184V6.98248C11.7364 7.23896 11.9622 7.42544 12.2222 7.42544C12.2571 7.42544 12.292 7.42226 12.3275 7.41589C12.6224 7.3567 12.8165 7.0684 12.7588 6.77182C12.4994 5.44104 11.475 4.41321 10.1475 4.15418Z" fill="#4545FE"/>
<path opacity="0.4" d="M10.1082 1.93669C9.96616 1.91633 9.82345 1.95833 9.70992 2.0487C9.59322 2.14035 9.52028 2.27273 9.50442 2.42102C9.4708 2.72077 9.68709 2.99189 9.98646 3.02563C12.051 3.25601 13.6556 4.86428 13.8878 6.93522C13.9189 7.21271 14.1516 7.42209 14.4294 7.42209C14.4504 7.42209 14.4707 7.42082 14.4916 7.41827C14.6368 7.40236 14.7662 7.33045 14.8576 7.21589C14.9483 7.10133 14.9895 6.95877 14.973 6.81303C14.6838 4.22912 12.684 2.22372 10.1082 1.93669Z" fill="#4545FE"/>
<path fill-rule="evenodd" clip-rule="evenodd" d="M7.9908 8.92141C10.5313 11.4612 11.1077 8.52294 12.7252 10.1394C14.2847 11.6984 15.181 12.0107 13.2052 13.986C12.9577 14.1849 11.3852 16.5778 5.85911 11.0532C0.332317 5.52793 2.7238 3.95387 2.92275 3.70645C4.90334 1.72573 5.21031 2.62724 6.76976 4.18626C8.38733 5.80337 5.45028 6.3816 7.9908 8.92141Z" fill="#4545FE"/>
</svg>
