<svg width="24" height="18" viewBox="0 0 24 18" fill="none" xmlns="http://www.w3.org/2000/svg">
<path id="Camera Icon" fill-rule="evenodd" clip-rule="evenodd" d="M11.8871 5.73919C9.50474 5.73919 7.57269 7.67556 7.57269 10.0644C7.57269 12.4522 9.50474 14.3897 11.8871 14.3897C14.2706 14.3897 16.2016 12.4522 16.2016 10.0644C16.2016 7.67556 14.2706 5.73919 11.8871 5.73919ZM18.7352 6.1161C18.3377 6.1161 18.0138 5.78995 18.0138 5.3882C18.0138 4.98646 18.3377 4.66031 18.7352 4.66031C19.1326 4.66031 19.4555 4.98646 19.4555 5.3882C19.4555 5.78995 19.1326 6.1161 18.7352 6.1161ZM11.8817 15.447C8.92372 15.447 6.52729 13.0441 6.52729 10.0806C6.52729 7.11722 8.92372 4.71539 11.8817 4.71539C14.8387 4.71539 17.2362 7.11722 17.2362 10.0806C17.2362 13.0441 14.8387 15.447 11.8817 15.447ZM23.7581 5.87418C23.7581 5.77267 23.7581 5.67223 23.757 5.57179C23.757 5.48648 23.7559 5.40116 23.7537 5.31584C23.7484 5.13117 23.7376 4.86118 23.7052 4.67759C23.6717 4.49183 23.6177 4.40112 23.5334 4.23156C23.4492 4.06633 23.3401 3.91405 23.2094 3.7823C23.0799 3.64946 22.9287 3.54039 22.7645 3.45507C22.5971 3.36975 22.4265 3.31467 22.2418 3.2812C22.0604 3.24772 21.8757 3.23692 21.6921 3.2326C21.6079 3.23044 21.5236 3.22936 21.4394 3.22936C21.34 3.22828 21.2396 3.22828 21.1402 3.22828H18.733C18.5753 3.22072 18.4177 3.2218 18.2632 3.19372C18.0526 3.15484 17.8572 3.07708 17.666 2.97773C17.4792 2.88161 17.3085 2.75957 17.1595 2.60838C17.0116 2.45718 16.8247 1.75953 16.6746 1.40854C16.6271 1.29838 16.6098 1.23467 16.5666 1.14935C16.4716 0.960356 16.3463 0.784323 16.1994 0.633128C16.0493 0.481933 15.8776 0.354498 15.6918 0.257301C15.5007 0.157944 15.3052 0.0963866 15.0946 0.0585879C14.8883 0.0197093 14.6767 0.00890969 14.4672 0.00242992C14.371 -0.000809972 9.31791 -0.000809972 9.22179 0.00242992C9.01336 0.00890969 8.80168 0.0197093 8.59541 0.0585879C8.3859 0.0963866 8.19043 0.157944 7.99927 0.257301C7.81244 0.354498 7.64073 0.480853 7.49169 0.632048C7.34266 0.783243 7.21846 0.959276 7.12343 1.14935C7.08131 1.23467 7.04567 1.31998 7.01651 1.40746C6.86639 1.78113 6.68388 2.4453 6.53485 2.5965C6.38689 2.74769 6.21518 2.87081 6.02726 2.96693C5.83719 3.06736 5.64172 3.14404 5.43221 3.18184C5.22485 3.21964 5.01426 3.21748 4.80475 3.2218C4.70863 3.22612 4.81555 3.22612 4.71835 3.2272C4.60496 3.22828 4.49156 3.22828 4.37708 3.22828H2.61783C2.51847 3.22828 2.41911 3.22828 2.31868 3.22936C2.23444 3.22936 2.1502 3.23044 2.06597 3.2326C1.88237 3.23692 1.6977 3.24772 1.51627 3.2812C1.33159 3.31467 1.16096 3.36975 0.993564 3.45507C0.82941 3.54039 0.678216 3.64946 0.54862 3.7823C0.417945 3.91405 0.308869 4.06633 0.225712 4.23156C0.140395 4.40112 0.0853169 4.57391 0.0529181 4.76074C0.0205193 4.94326 0.00863969 5.13117 0.00431985 5.31584C0.00215992 5.40116 0.00215992 5.48648 0.00107996 5.57179C0 5.67223 0 5.77267 0 5.87418V15.3541C0 15.4556 0 15.556 0.00107996 15.6565C0.00215992 15.7429 0.00215992 15.8271 0.00431985 15.9124C0.00863969 16.0982 0.0205193 16.2839 0.0529181 16.4675C0.0853169 16.6544 0.140395 16.8272 0.225712 16.9967C0.308869 17.163 0.417945 17.3142 0.54862 17.446C0.678216 17.5777 0.82941 17.6879 0.993564 17.7732C1.16096 17.8585 1.33159 17.9136 1.51627 17.9471C1.6977 17.9806 1.88237 17.9914 2.06597 17.9957C2.1502 17.9978 2.23444 17.9989 2.31868 18C2.41911 18 2.51847 18 2.61783 18H21.1402C21.2396 18 21.34 18 21.4394 18C21.5236 17.9989 21.6079 17.9978 21.6921 17.9957C21.8757 17.9914 22.0604 17.9806 22.2418 17.9471C22.4265 17.9136 22.5971 17.8585 22.7645 17.7732C22.9287 17.6879 23.0799 17.5777 23.2094 17.446C23.3401 17.3142 23.4492 17.163 23.5334 16.9967C23.6177 16.8272 23.6717 16.6544 23.7052 16.4675C23.7376 16.2839 23.7484 16.0982 23.7537 15.9124C23.7559 15.8271 23.757 15.7429 23.757 15.6565C23.7581 15.556 23.7581 15.4556 23.7581 15.3541V5.87418ZM2.3014 2.50578H4.53692C4.6136 2.50578 4.67623 2.44314 4.67623 2.36647V1.89344C4.67623 1.87832 4.67623 1.86212 4.67515 1.84701C4.67407 1.81245 4.67083 1.77789 4.66543 1.74441C4.66003 1.70985 4.65031 1.67745 4.63411 1.64613C4.61899 1.61589 4.59956 1.58781 4.5758 1.56406C4.55096 1.53922 4.52396 1.5187 4.4948 1.50358C4.46348 1.48738 4.43216 1.47658 4.39868 1.47118C4.3652 1.4647 4.33173 1.46254 4.29825 1.46146C4.28313 1.46146 4.26693 1.46038 4.25181 1.46038H2.59083C2.57679 1.46038 2.56059 1.46146 2.54547 1.46146C2.51199 1.46254 2.47851 1.4647 2.44503 1.47118C2.41155 1.47658 2.38023 1.48738 2.35 1.50358C2.31976 1.5187 2.29276 1.53922 2.26792 1.56406C2.24416 1.58781 2.2258 1.61589 2.2096 1.64613C2.1934 1.67745 2.18476 1.70985 2.17828 1.74441C2.1718 1.77789 2.16964 1.81245 2.16964 1.84701C2.16856 1.86212 2.16532 1.87832 2.16532 1.89344C2.16532 1.9118 2.16316 1.93124 2.16316 1.9496V2.36647C2.16316 2.44314 2.2258 2.50578 2.3014 2.50578Z" fill="#191919"/>
</svg>
