<svg width="13" height="13" viewBox="0 0 13 13" fill="none" xmlns="http://www.w3.org/2000/svg">
<g clip-path="url(#clip0_32406_68034)">
<path d="M10 2.06299H9.746L8.654 0.646988C8.51326 0.465891 8.33316 0.319197 8.12733 0.218015C7.92151 0.116834 7.69535 0.0638198 7.466 0.0629883L5.534 0.0629883C5.30465 0.0638198 5.07849 0.116834 4.87267 0.218015C4.66684 0.319197 4.48674 0.465891 4.346 0.646988L3.254 2.06299H3C2.3372 2.06378 1.70178 2.32743 1.23311 2.7961C0.764441 3.26477 0.500794 3.90019 0.5 4.56299L0.5 9.56299C0.500794 10.2258 0.764441 10.8612 1.23311 11.3299C1.70178 11.7985 2.3372 12.0622 3 12.063H10C10.6628 12.0622 11.2982 11.7985 11.7669 11.3299C12.2356 10.8612 12.4992 10.2258 12.5 9.56299V4.56299C12.4992 3.90019 12.2356 3.26477 11.7669 2.7961C11.2982 2.32743 10.6628 2.06378 10 2.06299V2.06299ZM5.138 1.25799C5.18484 1.19752 5.24485 1.14852 5.31347 1.11473C5.38209 1.08094 5.45751 1.06324 5.534 1.06299H7.466C7.54248 1.06332 7.61787 1.08105 7.68648 1.11483C7.75509 1.14862 7.81511 1.19757 7.862 1.25799L8.483 2.06299H4.517L5.138 1.25799ZM11.5 9.56299C11.5 9.96081 11.342 10.3423 11.0607 10.6236C10.7794 10.905 10.3978 11.063 10 11.063H3C2.60218 11.063 2.22064 10.905 1.93934 10.6236C1.65804 10.3423 1.5 9.96081 1.5 9.56299V4.56299C1.5 4.16516 1.65804 3.78363 1.93934 3.50233C2.22064 3.22102 2.60218 3.06299 3 3.06299H10C10.3978 3.06299 10.7794 3.22102 11.0607 3.50233C11.342 3.78363 11.5 4.16516 11.5 4.56299V9.56299Z" fill="white"/>
<path d="M6.5 4.06299C5.90666 4.06299 5.32664 4.23894 4.83329 4.56858C4.33994 4.89822 3.95543 5.36676 3.72836 5.91494C3.5013 6.46312 3.44189 7.06632 3.55765 7.64826C3.6734 8.2302 3.95912 8.76475 4.37868 9.18431C4.79824 9.60387 5.33279 9.88959 5.91473 10.0053C6.49667 10.1211 7.09987 10.0617 7.64805 9.83463C8.19623 9.60756 8.66477 9.22305 8.99441 8.7297C9.32405 8.23635 9.5 7.65633 9.5 7.06299C9.49921 6.26758 9.18288 5.50498 8.62045 4.94255C8.05801 4.38011 7.29541 4.06378 6.5 4.06299V4.06299ZM6.5 9.06299C6.10444 9.06299 5.71776 8.94569 5.38886 8.72593C5.05996 8.50617 4.80362 8.19381 4.65224 7.82836C4.50087 7.4629 4.46126 7.06077 4.53843 6.67281C4.6156 6.28485 4.80608 5.92848 5.08579 5.64877C5.36549 5.36907 5.72186 5.17859 6.10982 5.10142C6.49778 5.02425 6.89992 5.06385 7.26537 5.21523C7.63082 5.3666 7.94318 5.62295 8.16294 5.95185C8.3827 6.28075 8.5 6.66743 8.5 7.06299C8.5 7.59342 8.28929 8.10213 7.91422 8.4772C7.53914 8.85227 7.03043 9.06299 6.5 9.06299Z" fill="white"/>
</g>
<defs>
<clipPath id="clip0_32406_68034">
<rect width="12" height="12" fill="white" transform="translate(0.5 0.0629883)"/>
</clipPath>
</defs>
</svg>
