<svg width="10" height="11" viewBox="0 0 10 11" fill="none" xmlns="http://www.w3.org/2000/svg">
<path d="M2.86092 9.70623H7.13847C8.265 9.70623 8.71398 9.01644 8.76704 8.17562L8.97929 4.80419C9.03643 3.92256 8.33439 3.17562 7.44867 3.17562C7.19969 3.17562 6.97112 3.03276 6.85684 2.81236L6.56296 2.22052C6.3752 1.84909 5.88541 1.54297 5.46908 1.54297H4.53439C4.11398 1.54297 3.62418 1.84909 3.43643 2.22052L3.14255 2.81236C3.02827 3.03276 2.79969 3.17562 2.55071 3.17562C1.665 3.17562 0.96296 3.92256 1.0201 4.80419L1.23235 8.17562C1.28133 9.01644 1.73439 9.70623 2.86092 9.70623Z" stroke="#606060" stroke-width="0.612245" stroke-linecap="round" stroke-linejoin="round"/>
<path d="M4.38745 3.99219H5.61194" stroke="#606060" stroke-width="0.612245" stroke-linecap="round" stroke-linejoin="round"/>
<path d="M4.99963 8.07298C5.73024 8.07298 6.32616 7.47706 6.32616 6.74645C6.32616 6.01584 5.73024 5.41992 4.99963 5.41992C4.26901 5.41992 3.6731 6.01584 3.6731 6.74645C3.6731 7.47706 4.26901 8.07298 4.99963 8.07298Z" stroke="#606060" stroke-width="0.612245" stroke-linecap="round" stroke-linejoin="round"/>
</svg>
