<svg width="16" height="16" viewBox="0 0 16 16" fill="none" xmlns="http://www.w3.org/2000/svg">
<g id="ic:outline-cancel">
<path id="Vector" d="M7.99479 1.33398C4.30813 1.33398 1.32812 4.31398 1.32812 8.00065C1.32812 11.6873 4.30813 14.6673 7.99479 14.6673C11.6815 14.6673 14.6615 11.6873 14.6615 8.00065C14.6615 4.31398 11.6815 1.33398 7.99479 1.33398ZM7.99479 13.334C5.05479 13.334 2.66146 10.9407 2.66146 8.00065C2.66146 5.06065 5.05479 2.66732 7.99479 2.66732C10.9348 2.66732 13.3281 5.06065 13.3281 8.00065C13.3281 10.9407 10.9348 13.334 7.99479 13.334ZM10.3881 4.66732L7.99479 7.06065L5.60146 4.66732L4.66146 5.60732L7.05479 8.00065L4.66146 10.394L5.60146 11.334L7.99479 8.94065L10.3881 11.334L11.3281 10.394L8.93479 8.00065L11.3281 5.60732L10.3881 4.66732Z" fill="#FF6A6A"/>
</g>
</svg>
