<svg width="48" height="46" viewBox="0 0 48 46" fill="none" xmlns="http://www.w3.org/2000/svg">
<rect width="48" height="46" rx="23" fill="#2A2A2A"/>
<g clipPath="url(#clip0_10825_87861)">
<path d="M26.9996 19.9999C26.8589 19.8593 26.6682 19.7803 26.4693 19.7803C26.2705 19.7803 26.0797 19.8593 25.9391 19.9999L23.9996 21.9394L22.0601 19.9999C21.9186 19.8632 21.7292 19.7876 21.5325 19.7894C21.3359 19.7911 21.1478 19.8699 21.0087 20.009C20.8697 20.1481 20.7908 20.3362 20.7891 20.5328C20.7874 20.7295 20.863 20.9189 20.9996 21.0604L22.9391 22.9999L20.9996 24.9394C20.863 25.0808 20.7874 25.2703 20.7891 25.4669C20.7908 25.6636 20.8697 25.8517 21.0087 25.9907C21.1478 26.1298 21.3359 26.2087 21.5325 26.2104C21.7292 26.2121 21.9186 26.1365 22.0601 25.9999L23.9996 24.0604L25.9391 25.9999C26.0805 26.1365 26.27 26.2121 26.4666 26.2104C26.6633 26.2087 26.8514 26.1298 26.9904 25.9907C27.1295 25.8517 27.2084 25.6636 27.2101 25.4669C27.2118 25.2703 27.1362 25.0808 26.9996 24.9394L25.0601 22.9999L26.9996 21.0604C27.1402 20.9197 27.2192 20.729 27.2192 20.5301C27.2192 20.3312 27.1402 20.1405 26.9996 19.9999Z" fill="white"/>
<path d="M24 14C22.22 14 20.4799 14.5278 18.9999 15.5168C17.5198 16.5057 16.3663 17.9113 15.6851 19.5558C15.0039 21.2004 14.8257 23.01 15.1729 24.7558C15.5202 26.5016 16.3774 28.1053 17.636 29.364C18.8947 30.6226 20.4984 31.4798 22.2442 31.8271C23.99 32.1743 25.7996 31.9961 27.4442 31.3149C29.0887 30.6337 30.4943 29.4802 31.4832 28.0001C32.4722 26.5201 33 24.78 33 23C32.9974 20.6138 32.0484 18.3262 30.3611 16.6389C28.6738 14.9516 26.3862 14.0026 24 14V14ZM24 30.5C22.5166 30.5 21.0666 30.0601 19.8332 29.236C18.5999 28.4119 17.6386 27.2406 17.0709 25.8701C16.5033 24.4997 16.3547 22.9917 16.6441 21.5368C16.9335 20.082 17.6478 18.7456 18.6967 17.6967C19.7456 16.6478 21.082 15.9335 22.5368 15.6441C23.9917 15.3547 25.4997 15.5032 26.8701 16.0709C28.2406 16.6386 29.4119 17.5999 30.236 18.8332C31.0601 20.0666 31.5 21.5166 31.5 23C31.4978 24.9885 30.7069 26.8948 29.3009 28.3009C27.8948 29.7069 25.9885 30.4978 24 30.5Z" fill="white"/>
</g>
<defs>
<clipPath id="clip0_10825_87861">
<rect width="18" height="18" fill="white" transform="translate(15 14)"/>
</clipPath>
</defs>
</svg>
