<svg width="49" height="48" viewBox="0 0 49 48" fill="none" xmlns="http://www.w3.org/2000/svg">
<path d="M14.9 35.488L24.5 25.888L34.1 35.488L35.988 33.6L26.388 24L35.988 14.4L34.1 12.512L24.5 22.112L14.9 12.512L13.012 14.4L22.612 24L13.012 33.6L14.9 35.488ZM24.508 48C21.1907 48 18.0707 47.3707 15.148 46.112C12.2271 44.8516 9.68578 43.1413 7.524 40.9813C5.36222 38.8231 3.65111 36.2844 2.39067 33.3653C1.13022 30.4462 0.5 27.3271 0.5 24.008C0.5 20.6907 1.12933 17.5707 2.388 14.648C3.64844 11.7271 5.35867 9.18578 7.51867 7.024C9.67689 4.86222 12.2156 3.15111 15.1347 1.89067C18.0538 0.630222 21.1729 0 24.492 0C27.8093 0 30.9293 0.629333 33.852 1.888C36.7729 3.14844 39.3142 4.85867 41.476 7.01867C43.6378 9.17689 45.3489 11.7156 46.6093 14.6347C47.8698 17.5538 48.5 20.6729 48.5 23.992C48.5 27.3093 47.8707 30.4293 46.612 33.352C45.3516 36.2729 43.6413 38.8142 41.4813 40.976C39.3231 43.1378 36.7844 44.8489 33.8653 46.1093C30.9462 47.3698 27.8271 48 24.508 48Z" fill="#FF6A6A"/>
</svg>
