<svg width="38" height="36" viewBox="0 0 38 36" fill="none" xmlns="http://www.w3.org/2000/svg">
<rect x="0.21875" width="37.5652" height="36" rx="18" fill="#4545FE"/>
<g clipPath="url(#clip0_10802_88145)">
<path d="M21.3487 15.6513C21.2386 15.5413 21.0894 15.4795 20.9337 15.4795C20.7781 15.4795 20.6288 15.5413 20.5187 15.6513L19.0009 17.1692L17.483 15.6513C17.3723 15.5444 17.224 15.4853 17.0701 15.4866C16.9162 15.4879 16.769 15.5497 16.6602 15.6585C16.5514 15.7673 16.4896 15.9145 16.4883 16.0684C16.487 16.2223 16.5461 16.3706 16.653 16.4813L18.1709 17.9992L16.653 19.517C16.5461 19.6277 16.487 19.776 16.4883 19.9299C16.4896 20.0838 16.5514 20.231 16.6602 20.3398C16.769 20.4487 16.9162 20.5104 17.0701 20.5117C17.224 20.5131 17.3723 20.4539 17.483 20.347L19.0009 18.8291L20.5187 20.347C20.6294 20.4539 20.7777 20.5131 20.9316 20.5117C21.0855 20.5104 21.2327 20.4487 21.3415 20.3398C21.4504 20.231 21.5121 20.0838 21.5134 19.9299C21.5148 19.776 21.4556 19.6277 21.3487 19.517L19.8308 17.9992L21.3487 16.4813C21.4587 16.3712 21.5205 16.222 21.5205 16.0663C21.5205 15.9107 21.4587 15.7614 21.3487 15.6513Z" fill="white"/>
<path d="M19.0005 10.9561C17.6074 10.9561 16.2457 11.3691 15.0874 12.1431C13.9291 12.917 13.0263 14.0171 12.4932 15.3041C11.9601 16.5911 11.8206 18.0073 12.0924 19.3736C12.3641 20.7399 13.035 21.995 14.02 22.98C15.0051 23.9651 16.2601 24.6359 17.6264 24.9077C18.9927 25.1794 20.4089 25.04 21.6959 24.5069C22.983 23.9738 24.083 23.071 24.8569 21.9127C25.6309 20.7544 26.044 19.3926 26.044 17.9995C26.042 16.1321 25.2992 14.3417 23.9788 13.0213C22.6583 11.7008 20.8679 10.9581 19.0005 10.9561V10.9561ZM19.0005 23.8691C17.8396 23.8691 16.7048 23.5249 15.7396 22.8799C14.7743 22.2349 14.022 21.3182 13.5777 20.2457C13.1335 19.1732 13.0173 17.993 13.2437 16.8544C13.4702 15.7159 14.0292 14.67 14.8501 13.8491C15.671 13.0283 16.7168 12.4692 17.8554 12.2427C18.994 12.0163 20.1742 12.1325 21.2467 12.5768C22.3192 13.021 23.2359 13.7733 23.8809 14.7386C24.5258 15.7038 24.8701 16.8386 24.8701 17.9995C24.8684 19.5557 24.2494 21.0477 23.149 22.1481C22.0486 23.2484 20.5567 23.8674 19.0005 23.8691Z" fill="white"/>
</g>
<defs>
<clipPath id="clip0_10802_88145">
<rect width="14.087" height="14.087" fill="white" transform="translate(11.957 10.9561)"/>
</clipPath>
</defs>
</svg>
