<svg width="16" height="17" viewBox="0 0 16 17" fill="none" xmlns="http://www.w3.org/2000/svg">
<g id="ph:car">
<path id="Vector" d="M15 7.26855H14.325L12.5887 3.3623C12.5102 3.18557 12.382 3.03542 12.2199 2.93003C12.0577 2.82465 11.8684 2.76856 11.675 2.76855H4.325C4.13159 2.76856 3.94233 2.82465 3.78014 2.93003C3.61796 3.03542 3.48982 3.18557 3.41125 3.3623L1.675 7.26855H1C0.867392 7.26855 0.740215 7.32123 0.646447 7.415C0.552678 7.50877 0.5 7.63595 0.5 7.76855C0.5 7.90116 0.552678 8.02834 0.646447 8.12211C0.740215 8.21588 0.867392 8.26855 1 8.26855H1.5V13.2686C1.5 13.5338 1.60536 13.7881 1.79289 13.9757C1.98043 14.1632 2.23478 14.2686 2.5 14.2686H4C4.26522 14.2686 4.51957 14.1632 4.70711 13.9757C4.89464 13.7881 5 13.5338 5 13.2686V12.2686H11V13.2686C11 13.5338 11.1054 13.7881 11.2929 13.9757C11.4804 14.1632 11.7348 14.2686 12 14.2686H13.5C13.7652 14.2686 14.0196 14.1632 14.2071 13.9757C14.3946 13.7881 14.5 13.5338 14.5 13.2686V8.26855H15C15.1326 8.26855 15.2598 8.21588 15.3536 8.12211C15.4473 8.02834 15.5 7.90116 15.5 7.76855C15.5 7.63595 15.4473 7.50877 15.3536 7.415C15.2598 7.32123 15.1326 7.26855 15 7.26855ZM4.325 3.76855H11.675L13.2306 7.26855H2.76938L4.325 3.76855ZM4 13.2686H2.5V12.2686H4V13.2686ZM12 13.2686V12.2686H13.5V13.2686H12ZM13.5 11.2686H2.5V8.26855H13.5V11.2686ZM3.5 9.76855C3.5 9.63595 3.55268 9.50877 3.64645 9.415C3.74021 9.32123 3.86739 9.26855 4 9.26855H5C5.13261 9.26855 5.25979 9.32123 5.35355 9.415C5.44732 9.50877 5.5 9.63595 5.5 9.76855C5.5 9.90116 5.44732 10.0283 5.35355 10.1221C5.25979 10.2159 5.13261 10.2686 5 10.2686H4C3.86739 10.2686 3.74021 10.2159 3.64645 10.1221C3.55268 10.0283 3.5 9.90116 3.5 9.76855ZM10.5 9.76855C10.5 9.63595 10.5527 9.50877 10.6464 9.415C10.7402 9.32123 10.8674 9.26855 11 9.26855H12C12.1326 9.26855 12.2598 9.32123 12.3536 9.415C12.4473 9.50877 12.5 9.63595 12.5 9.76855C12.5 9.90116 12.4473 10.0283 12.3536 10.1221C12.2598 10.2159 12.1326 10.2686 12 10.2686H11C10.8674 10.2686 10.7402 10.2159 10.6464 10.1221C10.5527 10.0283 10.5 9.90116 10.5 9.76855Z" fill="#27272A"/>
</g>
</svg>
