<svg width="16" height="16" viewBox="0 0 16 16" fill="none" xmlns="http://www.w3.org/2000/svg">
<circle opacity="0.1" cx="8" cy="8" r="8" fill="#4545FE"/>
<path opacity="0.5" fill-rule="evenodd" clip-rule="evenodd" d="M10.1008 4.41883L11.5828 5.90233C12.5888 6.90933 13.0918 7.41283 12.9748 7.95583C12.8573 8.49833 12.1913 8.74833 10.8598 9.24883L9.93727 9.59533C9.58077 9.72933 9.40227 9.79633 9.26477 9.91533C9.20477 9.96783 9.15027 10.0268 9.10377 10.0913C8.99777 10.2398 8.94727 10.4233 8.84627 10.7913C8.61627 11.6273 8.50127 12.0453 8.22677 12.2018C8.11177 12.2678 7.98077 12.3018 7.84777 12.3018C7.53277 12.3018 7.22627 11.9948 6.61327 11.3818L5.88027 10.6478L5.34077 10.1078L4.63377 9.39983C4.02477 8.79033 3.72027 8.48533 3.71877 8.17233C3.71772 8.03677 3.75275 7.90338 3.82027 7.78583C3.97677 7.51433 4.39177 7.39983 5.22177 7.17083C5.59027 7.06933 5.77427 7.01883 5.92277 6.91233C5.98877 6.86433 6.04927 6.80883 6.10277 6.74633C6.22077 6.60733 6.28677 6.42783 6.41777 6.06883L6.75227 5.15733C7.24577 3.81083 7.49227 3.13733 8.03627 3.01733C8.58077 2.89733 9.08727 3.40433 10.1008 4.41883Z" fill="#4545FE"/>
<path d="M3.64363 12.8884L5.88163 10.6484L5.34213 10.1084L3.10413 12.3484C3.03593 12.4207 2.99859 12.5167 3.00004 12.6161C3.00149 12.7155 3.04161 12.8104 3.11189 12.8806C3.18216 12.9509 3.27706 12.991 3.37643 12.9925C3.47581 12.9939 3.57133 12.9566 3.64363 12.8884Z" fill="#4545FE"/>
</svg>
