<svg width="58" height="58" viewBox="0 0 58 58" fill="none" xmlns="http://www.w3.org/2000/svg">
<rect x="0.200195" y="0.200195" width="57.6" height="57.6" rx="28.8" fill="#000000"/>
<rect x="0.700195" y="0.700195" width="56.6" height="56.6" rx="28.3" stroke="white" stroke-opacity="0.2"/>
<path d="M32.59 29.4002V33.4702C32.59 33.8302 32.55 34.1702 32.46 34.4802C32.09 35.9502 30.87 36.8702 29.19 36.8702H26.47L23.45 38.8802C23 39.1902 22.4 38.8602 22.4 38.3202V36.8702C21.38 36.8702 20.53 36.5302 19.94 35.9402C19.34 35.3402 19 34.4902 19 33.4702V29.4002C19 27.5002 20.18 26.1902 22 26.0202C22.13 26.0102 22.26 26.0002 22.4 26.0002H29.19C31.23 26.0002 32.59 27.3602 32.59 29.4002Z" fill="white"/>
<path d="M34.75 32.6002C36.02 32.6002 37.09 32.1802 37.83 31.4302C38.58 30.6902 39 29.6202 39 28.3502V23.2502C39 20.9002 37.1 19.0002 34.75 19.0002H26.25C23.9 19.0002 22 20.9002 22 23.2502V24.0002C22 24.2802 22.22 24.5002 22.5 24.5002H29.19C31.9 24.5002 34.09 26.6902 34.09 29.4002V32.1002C34.09 32.3802 34.31 32.6002 34.59 32.6002H34.75Z" fill="white"/>
</svg>
