<svg width="18" height="18" viewBox="0 0 18 18" fill="none" xmlns="http://www.w3.org/2000/svg">
<path d="M1.66667 0.75H16.3333C16.5764 0.75 16.8096 0.846577 16.9815 1.01849C17.1534 1.19039 17.25 1.42355 17.25 1.66667V16.3333C17.25 16.5764 17.1534 16.8096 16.9815 16.9815C16.8096 17.1534 16.5764 17.25 16.3333 17.25H1.66667C1.42355 17.25 1.19039 17.1534 1.01849 16.9815C0.846577 16.8096 0.75 16.5764 0.75 16.3333V1.66667C0.75 1.42355 0.846577 1.19039 1.01849 1.01849C1.19039 0.846577 1.42355 0.75 1.66667 0.75ZM8.08608 12.6667L14.5669 6.18492L13.2708 4.88875L8.08608 10.0743L5.49283 7.48108L4.19667 8.77725L8.08608 12.6667Z" fill="#4545FE"/>
</svg>
