<svg width="16" height="16" viewBox="0 0 16 16" fill="none" xmlns="http://www.w3.org/2000/svg">
<g clipPath="url(#clip0_9963_86711)">
<path d="M8 0C6.41775 0 4.87104 0.469192 3.55544 1.34824C2.23985 2.22729 1.21447 3.47672 0.608967 4.93853C0.00346629 6.40034 -0.15496 8.00887 0.153721 9.56072C0.462403 11.1126 1.22433 12.538 2.34315 13.6569C3.46197 14.7757 4.88743 15.5376 6.43928 15.8463C7.99113 16.155 9.59966 15.9965 11.0615 15.391C12.5233 14.7855 13.7727 13.7602 14.6518 12.4446C15.5308 11.129 16 9.58225 16 8C15.9977 5.87897 15.1541 3.84547 13.6543 2.34568C12.1545 0.845886 10.121 0.00229405 8 0V0ZM8 14.6667C6.68146 14.6667 5.39253 14.2757 4.2962 13.5431C3.19987 12.8106 2.34539 11.7694 1.84081 10.5512C1.33622 9.33305 1.2042 7.99261 1.46144 6.6994C1.71867 5.40619 2.35361 4.21831 3.28596 3.28596C4.21831 2.35361 5.4062 1.71867 6.6994 1.46143C7.99261 1.2042 9.33305 1.33622 10.5512 1.8408C11.7694 2.34539 12.8106 3.19987 13.5431 4.2962C14.2757 5.39253 14.6667 6.68146 14.6667 8C14.6647 9.76752 13.9617 11.4621 12.7119 12.7119C11.4621 13.9617 9.76752 14.6647 8 14.6667Z" fill="#606060"/>
<path d="M8.00261 3.33301C7.8258 3.33301 7.65623 3.40325 7.5312 3.52827C7.40618 3.65329 7.33594 3.82286 7.33594 3.99967V9.33301C7.33594 9.50982 7.40618 9.67939 7.5312 9.80441C7.65623 9.92944 7.8258 9.99967 8.00261 9.99967C8.17942 9.99967 8.34899 9.92944 8.47402 9.80441C8.59904 9.67939 8.66928 9.50982 8.66928 9.33301V3.99967C8.66928 3.82286 8.59904 3.65329 8.47402 3.52827C8.34899 3.40325 8.17942 3.33301 8.00261 3.33301Z" fill="#606060"/>
<path d="M8.66928 11.9997C8.66928 11.6315 8.3708 11.333 8.00261 11.333C7.63442 11.333 7.33594 11.6315 7.33594 11.9997C7.33594 12.3679 7.63442 12.6663 8.00261 12.6663C8.3708 12.6663 8.66928 12.3679 8.66928 11.9997Z" fill="#606060"/>
</g>
<defs>
<clipPath id="clip0_9963_86711">
<rect width="16" height="16" fill="white"/>
</clipPath>
</defs>
</svg>
