<svg width="16" height="16" viewBox="0 0 16 16" fill="none" xmlns="http://www.w3.org/2000/svg">
<path fill-rule="evenodd" clip-rule="evenodd" d="M7.98154 13.5794C5.82221 13.5794 3.97754 13.2527 3.97754 11.9447C3.97754 10.6367 5.81021 9.49805 7.98154 9.49805C10.1409 9.49805 11.9855 10.626 11.9855 11.9334C11.9855 13.2407 10.1529 13.5794 7.98154 13.5794Z" stroke="black" stroke-linecap="round" stroke-linejoin="round"/>
<path fill-rule="evenodd" clip-rule="evenodd" d="M7.98172 7.63267C9.39905 7.63267 10.5484 6.484 10.5484 5.06667C10.5484 3.64933 9.39905 2.5 7.98172 2.5C6.56438 2.5 5.41505 3.64933 5.41505 5.06667C5.41105 6.47867 6.55105 7.628 7.96372 7.63267H7.98172Z" stroke="black" stroke-linecap="round" stroke-linejoin="round"/>
<path d="M12.2415 6.92802C13.0662 6.70735 13.6742 5.95535 13.6742 5.06002C13.6742 4.12602 13.0122 3.34602 12.1309 3.16602" stroke="black" stroke-linecap="round" stroke-linejoin="round"/>
<path d="M12.6287 9.0293C13.798 9.0293 14.7967 9.82196 14.7967 10.53C14.7967 10.9466 14.452 11.4006 13.9293 11.5233" stroke="black" stroke-linecap="round" stroke-linejoin="round"/>
<path d="M3.7224 6.92802C2.89706 6.70735 2.28906 5.95535 2.28906 5.06002C2.28906 4.12602 2.95173 3.34602 3.8324 3.16602" stroke="black" stroke-linecap="round" stroke-linejoin="round"/>
<path d="M3.3345 9.0293C2.16517 9.0293 1.1665 9.82196 1.1665 10.53C1.1665 10.9466 1.51117 11.4006 2.0345 11.5233" stroke="black" stroke-linecap="round" stroke-linejoin="round"/>
</svg>
