<svg width="16" height="16" viewBox="0 0 16 16" fill="none" xmlns="http://www.w3.org/2000/svg">
<g id="vuesax/linear/profile-circle">
<g id="profile-circle">
<path id="Vector" d="M8.07917 8.51999C8.0325 8.51332 7.9725 8.51332 7.91917 8.51999C6.74583 8.47999 5.8125 7.51999 5.8125 6.33999C5.8125 5.13332 6.78583 4.15332 7.99917 4.15332C9.20583 4.15332 10.1858 5.13332 10.1858 6.33999C10.1792 7.51999 9.2525 8.47999 8.07917 8.51999Z" stroke="#191919" stroke-linecap="round" stroke-linejoin="round"/>
<path id="Vector_2" d="M12.4945 12.92C11.3078 14.0067 9.73448 14.6667 8.00115 14.6667C6.26781 14.6667 4.69448 14.0067 3.50781 12.92C3.57448 12.2934 3.97448 11.68 4.68781 11.2C6.51448 9.98671 9.50115 9.98671 11.3145 11.2C12.0278 11.68 12.4278 12.2934 12.4945 12.92Z" stroke="#191919" stroke-linecap="round" stroke-linejoin="round"/>
<path id="Vector_3" d="M8.0026 14.6667C11.6845 14.6667 14.6693 11.6819 14.6693 8.00004C14.6693 4.31814 11.6845 1.33337 8.0026 1.33337C4.32071 1.33337 1.33594 4.31814 1.33594 8.00004C1.33594 11.6819 4.32071 14.6667 8.0026 14.6667Z" stroke="#191919" stroke-linecap="round" stroke-linejoin="round"/>
</g>
</g>
</svg>
