<svg width="17" height="17" viewBox="0 0 17 17" fill="none" xmlns="http://www.w3.org/2000/svg">
<g id="fi-rr-time-past" clip-path="url(#clip0_24877_36533)">
<path id="Vector" d="M8.11561 0C6.11748 0.00142454 4.19045 0.741646 2.7052 2.07827V0.676301C2.7052 0.496935 2.63395 0.324915 2.50712 0.198084C2.38029 0.0712529 2.20827 0 2.0289 0C1.84954 0 1.67752 0.0712529 1.55069 0.198084C1.42385 0.324915 1.3526 0.496935 1.3526 0.676301V2.7052C1.3526 3.2433 1.56636 3.75936 1.94685 4.13985C2.32735 4.52035 2.84341 4.7341 3.3815 4.7341H5.41041C5.58977 4.7341 5.76179 4.66285 5.88862 4.53602C6.01545 4.40919 6.08671 4.23717 6.08671 4.0578C6.08671 3.87844 6.01545 3.70642 5.88862 3.57959C5.76179 3.45276 5.58977 3.3815 5.41041 3.3815H3.3815C3.3587 3.37812 3.33611 3.37338 3.31387 3.3673C4.41592 2.25737 5.86902 1.56433 7.42515 1.40648C8.98127 1.24862 10.5439 1.63574 11.8464 2.50174C13.1489 3.36775 14.1105 4.65896 14.567 6.15498C15.0235 7.65099 14.9466 9.25907 14.3495 10.7047C13.7523 12.1504 12.672 13.344 11.2928 14.0818C9.91368 14.8196 8.3212 15.0558 6.78723 14.7503C5.25326 14.4447 3.87289 13.6162 2.88176 12.4062C1.89062 11.1962 1.35015 9.67972 1.3526 8.11561C1.3526 7.93624 1.28135 7.76422 1.15452 7.63739C1.02769 7.51056 0.855667 7.43931 0.676301 7.43931C0.496935 7.43931 0.324915 7.51056 0.198084 7.63739C0.0712529 7.76422 0 7.93624 0 8.11561C0 9.72072 0.475972 11.2898 1.36773 12.6244C2.25948 13.959 3.52697 14.9992 5.0099 15.6135C6.49283 16.2277 8.12461 16.3884 9.69888 16.0753C11.2732 15.7621 12.7192 14.9892 13.8542 13.8542C14.9892 12.7192 15.7621 11.2732 16.0753 9.69888C16.3884 8.12461 16.2277 6.49283 15.6135 5.0099C14.9992 3.52697 13.959 2.25948 12.6244 1.36773C11.2898 0.475972 9.72072 0 8.11561 0V0Z" fill="#3D3D3D"/>
<path id="Vector_2" d="M8.11575 4.05762C7.93639 4.05762 7.76437 4.12887 7.63754 4.2557C7.51071 4.38253 7.43945 4.55455 7.43945 4.73392V8.11542C7.43949 8.29477 7.51077 8.46676 7.63761 8.59357L9.66651 10.6225C9.79406 10.7457 9.9649 10.8138 10.1422 10.8123C10.3195 10.8107 10.4892 10.7396 10.6146 10.6142C10.74 10.4888 10.8111 10.3192 10.8126 10.1419C10.8142 9.96456 10.746 9.79373 10.6228 9.66618L8.79205 7.83543V4.73392C8.79205 4.55455 8.7208 4.38253 8.59397 4.2557C8.46714 4.12887 8.29512 4.05762 8.11575 4.05762Z" fill="#3D3D3D"/>
</g>
<defs>
<clipPath id="clip0_24877_36533">
<rect width="16.2312" height="16.2312" fill="white"/>
</clipPath>
</defs>
</svg>
