<svg width="11" height="11" viewBox="0 0 11 11" fill="none" xmlns="http://www.w3.org/2000/svg">
<g id="vuesax/outline/gemini">
<g id="gemini">
<path id="Vector" d="M5.27502 2.65591C3.69692 2.65591 2.11882 2.23391 0.707753 1.38991C0.549503 1.2976 0.501147 1.09538 0.59346 0.937125C0.685772 0.778875 0.887982 0.730517 1.04623 0.822829C3.65296 2.38775 6.89269 2.38775 9.49942 0.822829C9.65327 0.730517 9.85988 0.778875 9.95219 0.937125C10.0445 1.09538 9.99615 1.2976 9.8379 1.38991C8.43123 2.23391 6.85313 2.65591 5.27502 2.65591Z" fill="#DBD8B3"/>
<path id="Vector_2" d="M9.67086 10.2254C9.61371 10.2254 9.55657 10.2122 9.49942 10.177C6.89269 8.6121 3.65296 8.6121 1.04623 10.177C0.892378 10.2693 0.685772 10.221 0.59346 10.0627C0.501147 9.90447 0.549503 9.70225 0.707753 9.60993C3.52548 7.92193 7.02456 7.92193 9.8379 9.60993C9.99615 9.70225 10.0445 9.90447 9.95219 10.0627C9.89065 10.1682 9.78075 10.2254 9.67086 10.2254Z" fill="#DBD8B3"/>
<path id="Vector_3" d="M2.34246 9.52656C2.28971 9.52656 2.23696 9.51339 2.18421 9.48701C2.02596 9.3991 1.96441 9.20127 2.05233 9.03863C3.23041 6.85829 3.2436 4.24717 2.09189 2.05804L2.03914 1.95255C1.95562 1.7899 2.01716 1.59208 2.17981 1.50856C2.34246 1.42504 2.54027 1.48659 2.62379 1.64923L2.67654 1.75473C3.92935 4.14167 3.91177 6.98579 2.63258 9.35514C2.57544 9.46504 2.46114 9.52656 2.34246 9.52656Z" fill="#DBD8B3"/>
<path id="Vector_4" d="M8.20706 9.52656C8.08837 9.52656 7.97847 9.46504 7.91693 9.35514C6.63774 6.98139 6.62016 4.14167 7.87297 1.75473L7.92572 1.64923C8.00924 1.48659 8.21145 1.42504 8.3697 1.50856C8.53235 1.59208 8.59389 1.7943 8.51037 1.95255L8.45762 2.05804C7.30591 4.25156 7.3235 6.86269 8.49718 9.03863C8.5851 9.20127 8.52356 9.3991 8.36531 9.48701C8.31256 9.51339 8.25981 9.52656 8.20706 9.52656Z" fill="#DBD8B3"/>
</g>
</g>
</svg>
