<svg width="16" height="13" viewBox="0 0 16 13" fill="none" xmlns="http://www.w3.org/2000/svg">
<path d="M14.4645 11.7H15.8281V13H0.828125V11.7H2.19176V0.65C2.19176 0.477609 2.2636 0.312279 2.39146 0.190381C2.51933 0.0684819 2.69275 0 2.87358 0H13.7827C13.9635 0 14.1369 0.0684819 14.2648 0.190381C14.3927 0.312279 14.4645 0.477609 14.4645 0.65V11.7ZM13.1009 11.7V1.3H3.5554V11.7H13.1009ZM5.60085 5.85H7.64631V7.15H5.60085V5.85ZM5.60085 3.25H7.64631V4.55H5.60085V3.25ZM5.60085 8.45H7.64631V9.75H5.60085V8.45ZM9.00994 8.45H11.0554V9.75H9.00994V8.45ZM9.00994 5.85H11.0554V7.15H9.00994V5.85ZM9.00994 3.25H11.0554V4.55H9.00994V3.25Z" fill="#4545FE"/>
</svg>
