<svg width="16" height="16" viewBox="0 0 16 16" fill="none" xmlns="http://www.w3.org/2000/svg">
<path d="M5.71338 10.1803L10.0734 5.82031" stroke="#3D3D3D" stroke-linecap="round" stroke-linejoin="round"/>
<path d="M5.98676 6.91343C6.43963 6.91343 6.80674 6.54632 6.80674 6.09344C6.80674 5.64057 6.43963 5.27344 5.98676 5.27344C5.53388 5.27344 5.16675 5.64057 5.16675 6.09344C5.16675 6.54632 5.53388 6.91343 5.98676 6.91343Z" stroke="#3D3D3D" stroke-linecap="round" stroke-linejoin="round"/>
<path d="M10.3466 10.7269C10.7995 10.7269 11.1666 10.3598 11.1666 9.9069C11.1666 9.45403 10.7995 9.08691 10.3466 9.08691C9.89372 9.08691 9.52661 9.45403 9.52661 9.9069C9.52661 10.3598 9.89372 10.7269 10.3466 10.7269Z" stroke="#3D3D3D" stroke-linecap="round" stroke-linejoin="round"/>
<path d="M7.99992 14.6663C11.6818 14.6663 14.6666 11.6816 14.6666 7.99967C14.6666 4.31778 11.6818 1.33301 7.99992 1.33301C4.31802 1.33301 1.33325 4.31778 1.33325 7.99967C1.33325 11.6816 4.31802 14.6663 7.99992 14.6663Z" stroke="#3D3D3D" stroke-linecap="round" stroke-linejoin="round"/>
</svg>
