<svg width="121" height="120" viewBox="0 0 121 120" fill="none" xmlns="http://www.w3.org/2000/svg">
<g clip-path="url(#clip0_29640_64759)">
<path fill-rule="evenodd" clip-rule="evenodd" d="M0.765625 59.2288C0.765625 26.5176 27.2833 0 59.9944 0C92.7055 0 119.223 26.5176 119.223 59.2288C119.223 91.9399 92.7055 118.458 59.9944 118.458C27.2833 118.458 0.765625 91.9399 0.765625 59.2288Z" fill="#E4E4E4" stroke="#919191" stroke-width="0.5"/>
<path d="M29.0504 69V51.5455H31.6839V66.733H39.593V69H29.0504ZM57.0795 60.2727C57.0795 62.1364 56.7386 63.7386 56.0568 65.0795C55.375 66.4148 54.4403 67.4432 53.2528 68.1648C52.071 68.8807 50.7273 69.2386 49.2216 69.2386C47.7102 69.2386 46.3608 68.8807 45.1733 68.1648C43.9915 67.4432 43.0597 66.4119 42.3778 65.071C41.696 63.7301 41.3551 62.1307 41.3551 60.2727C41.3551 58.4091 41.696 56.8097 42.3778 55.4744C43.0597 54.1335 43.9915 53.1051 45.1733 52.3892C46.3608 51.6676 47.7102 51.3068 49.2216 51.3068C50.7273 51.3068 52.071 51.6676 53.2528 52.3892C54.4403 53.1051 55.375 54.1335 56.0568 55.4744C56.7386 56.8097 57.0795 58.4091 57.0795 60.2727ZM54.4716 60.2727C54.4716 58.8523 54.2415 57.6562 53.7812 56.6847C53.3267 55.7074 52.7017 54.9688 51.9062 54.4688C51.1165 53.9631 50.2216 53.7102 49.2216 53.7102C48.2159 53.7102 47.3182 53.9631 46.5284 54.4688C45.7386 54.9688 45.1136 55.7074 44.6534 56.6847C44.1989 57.6562 43.9716 58.8523 43.9716 60.2727C43.9716 61.6932 44.1989 62.892 44.6534 63.8693C45.1136 64.8409 45.7386 65.5795 46.5284 66.0852C47.3182 66.5852 48.2159 66.8352 49.2216 66.8352C50.2216 66.8352 51.1165 66.5852 51.9062 66.0852C52.7017 65.5795 53.3267 64.8409 53.7812 63.8693C54.2415 62.892 54.4716 61.6932 54.4716 60.2727ZM72.1754 57.0597C72.0107 56.5426 71.7891 56.0795 71.5107 55.6705C71.2379 55.2557 70.9112 54.9034 70.5305 54.6136C70.1499 54.3182 69.7152 54.0937 69.2266 53.9403C68.7436 53.7869 68.2124 53.7102 67.6328 53.7102C66.6499 53.7102 65.7635 53.9631 64.9737 54.4688C64.1839 54.9744 63.5589 55.7159 63.0987 56.6932C62.6442 57.6648 62.4169 58.8551 62.4169 60.2642C62.4169 61.679 62.647 62.875 63.1072 63.8523C63.5675 64.8295 64.1982 65.571 64.9993 66.0767C65.8004 66.5824 66.7124 66.8352 67.7351 66.8352C68.6839 66.8352 69.5107 66.642 70.2152 66.2557C70.9254 65.8693 71.4737 65.3239 71.8601 64.6193C72.2521 63.9091 72.4482 63.0739 72.4482 62.1136L73.13 62.2415H68.1357V60.0682H74.9964V62.054C74.9964 63.5199 74.6839 64.7926 74.0589 65.8722C73.4396 66.946 72.5817 67.7756 71.4851 68.3608C70.3942 68.946 69.1442 69.2386 67.7351 69.2386C66.1555 69.2386 64.7692 68.875 63.576 68.1477C62.3885 67.4205 61.4624 66.3892 60.7976 65.054C60.1328 63.7131 59.8004 62.1222 59.8004 60.2812C59.8004 58.8892 59.9936 57.6392 60.38 56.5312C60.7663 55.4233 61.3089 54.483 62.0078 53.7102C62.7124 52.9318 63.5391 52.3381 64.4879 51.929C65.4425 51.5142 66.4851 51.3068 67.6158 51.3068C68.5589 51.3068 69.4368 51.446 70.2493 51.7244C71.0675 52.0028 71.7947 52.3977 72.4311 52.9091C73.0732 53.4205 73.6044 54.0284 74.0249 54.733C74.4453 55.4318 74.7294 56.2074 74.8771 57.0597H72.1754ZM93.5014 60.2727C93.5014 62.1364 93.1605 63.7386 92.4787 65.0795C91.7969 66.4148 90.8622 67.4432 89.6747 68.1648C88.4929 68.8807 87.1491 69.2386 85.6435 69.2386C84.1321 69.2386 82.7827 68.8807 81.5952 68.1648C80.4134 67.4432 79.4815 66.4119 78.7997 65.071C78.1179 63.7301 77.777 62.1307 77.777 60.2727C77.777 58.4091 78.1179 56.8097 78.7997 55.4744C79.4815 54.1335 80.4134 53.1051 81.5952 52.3892C82.7827 51.6676 84.1321 51.3068 85.6435 51.3068C87.1491 51.3068 88.4929 51.6676 89.6747 52.3892C90.8622 53.1051 91.7969 54.1335 92.4787 55.4744C93.1605 56.8097 93.5014 58.4091 93.5014 60.2727ZM90.8935 60.2727C90.8935 58.8523 90.6634 57.6562 90.2031 56.6847C89.7486 55.7074 89.1236 54.9688 88.3281 54.4688C87.5384 53.9631 86.6435 53.7102 85.6435 53.7102C84.6378 53.7102 83.7401 53.9631 82.9503 54.4688C82.1605 54.9688 81.5355 55.7074 81.0753 56.6847C80.6207 57.6562 80.3935 58.8523 80.3935 60.2727C80.3935 61.6932 80.6207 62.892 81.0753 63.8693C81.5355 64.8409 82.1605 65.5795 82.9503 66.0852C83.7401 66.5852 84.6378 66.8352 85.6435 66.8352C86.6435 66.8352 87.5384 66.5852 88.3281 66.0852C89.1236 65.5795 89.7486 64.8409 90.2031 63.8693C90.6634 62.892 90.8935 61.6932 90.8935 60.2727Z" fill="#3D3D3D"/>
</g>
<defs>
<clipPath id="clip0_29640_64759">
<rect width="120" height="120" fill="white" transform="translate(0.765625)"/>
</clipPath>
</defs>
</svg>
