<svg width="32" height="32" viewBox="0 0 32 32" fill="none" xmlns="http://www.w3.org/2000/svg">
<g id="material-symbols-light:contract-outline">
<path id="Vector" d="M8.00065 28C7.24865 28 6.61621 27.7436 6.10332 27.2307C5.59043 26.7178 5.33398 26.0853 5.33398 25.3333V21.64H9.33398V4H26.6673V25.3333C26.6673 26.0853 26.4109 26.7178 25.898 27.2307C25.3851 27.7436 24.7527 28 24.0007 28H8.00065ZM24.0007 26.6667C24.3784 26.6667 24.6953 26.5387 24.9513 26.2827C25.2073 26.0267 25.3349 25.7102 25.334 25.3333V5.33333H10.6673V21.64H22.6673V25.3333C22.6673 25.7111 22.7953 26.028 23.0513 26.284C23.3073 26.54 23.6238 26.6676 24.0007 26.6667ZM12.514 11.18V9.84667H23.4873V11.18H12.514ZM12.514 14.872V13.5387H23.4873V14.872H12.514ZM8.00065 26.6667H21.334V22.9733H6.66732V25.3333C6.66732 25.7111 6.79532 26.028 7.05132 26.284C7.30732 26.54 7.62376 26.6676 8.00065 26.6667ZM8.00065 26.6667H6.66732H21.334H8.00065Z" fill="#4545FE"/>
</g>
</svg>
