<svg width="25" height="25" viewBox="0 0 25 25" fill="none" xmlns="http://www.w3.org/2000/svg">
<g clip-path="url(#clip0_10548_105465)">
<path d="M7.61025 6.14639V3.13108C7.61025 2.86451 7.71615 2.60886 7.90464 2.42036C8.09313 2.23187 8.34879 2.12598 8.61536 2.12598H20.6766C20.9432 2.12598 21.1988 2.23187 21.3873 2.42036C21.5758 2.60886 21.6817 2.86451 21.6817 3.13108V17.2025C21.6817 17.4691 21.5758 17.7247 21.3873 17.9132C21.1988 18.1017 20.9432 18.2076 20.6766 18.2076H17.6613V21.2229C17.6613 21.7777 17.209 22.228 16.6491 22.228H4.60198C4.46944 22.2288 4.33804 22.2034 4.21534 22.1533C4.09264 22.1031 3.98106 22.0292 3.88701 21.9358C3.79296 21.8424 3.71829 21.7314 3.66729 21.609C3.61629 21.4867 3.58997 21.3555 3.58984 21.2229L3.59286 7.15149C3.59286 6.59667 4.04516 6.14639 4.605 6.14639H7.61025ZM9.62046 6.14639H17.6613V16.1974H19.6715V4.13618H9.62046V6.14639Z" fill="white"/>
</g>
<defs>
<clipPath id="clip0_10548_105465">
<rect width="24.1225" height="24.1225" fill="white" transform="translate(0.578125 0.115234)"/>
</clipPath>
</defs>
</svg>
