<svg width="16" height="16" viewBox="0 0 16 16" fill="none" xmlns="http://www.w3.org/2000/svg">
<g id="Property 1=copied">
<path id="Vector" d="M4.65871 4.00028V2.00028C4.65871 1.82347 4.72894 1.6539 4.85396 1.52888C4.97897 1.40386 5.14853 1.33362 5.32534 1.33362H13.3249C13.5017 1.33362 13.6713 1.40386 13.7963 1.52888C13.9213 1.6539 13.9915 1.82347 13.9915 2.00028V11.3336C13.9915 11.5104 13.9213 11.68 13.7963 11.805C13.6713 11.93 13.5017 12.0003 13.3249 12.0003H11.325V14.0003C11.325 14.3683 11.025 14.667 10.6537 14.667H2.66348C2.57557 14.6675 2.48842 14.6506 2.40705 14.6174C2.32567 14.5841 2.25166 14.5351 2.18928 14.4731C2.1269 14.4112 2.07738 14.3375 2.04355 14.2564C2.00973 14.1752 1.99227 14.0882 1.99219 14.0003L1.99419 4.66695C1.99419 4.29895 2.29417 4.00028 2.66548 4.00028H4.65871ZM5.99197 4.00028H11.325V10.667H12.6583V2.66695H5.99197V4.00028Z" fill="#191919"/>
</g>
</svg>
