<svg width="25" height="25" viewBox="0 0 25 25" fill="none" xmlns="http://www.w3.org/2000/svg">
<path d="M11.2484 22.8926H7.04844C3.13844 22.8926 1.39844 21.1526 1.39844 17.2426V13.0426C1.39844 9.13258 3.13844 7.39258 7.04844 7.39258H11.2484C15.1584 7.39258 16.8984 9.13258 16.8984 13.0426V17.2426C16.8984 21.1526 15.1584 22.8926 11.2484 22.8926ZM7.04844 8.89258C3.94844 8.89258 2.89844 9.94258 2.89844 13.0426V17.2426C2.89844 20.3426 3.94844 21.3926 7.04844 21.3926H11.2484C14.3484 21.3926 15.3984 20.3426 15.3984 17.2426V13.0426C15.3984 9.94258 14.3484 8.89258 11.2484 8.89258H7.04844Z" fill="white"/>
<path d="M17.2484 16.8926H16.1484C15.7384 16.8926 15.3984 16.5526 15.3984 16.1426V13.0426C15.3984 9.94258 14.3484 8.89258 11.2484 8.89258H8.14844C7.73844 8.89258 7.39844 8.55258 7.39844 8.14258V7.04258C7.39844 3.13258 9.13844 1.39258 13.0484 1.39258H17.2484C21.1584 1.39258 22.8984 3.13258 22.8984 7.04258V11.2426C22.8984 15.1526 21.1584 16.8926 17.2484 16.8926ZM16.8984 15.3926H17.2484C20.3484 15.3926 21.3984 14.3426 21.3984 11.2426V7.04258C21.3984 3.94258 20.3484 2.89258 17.2484 2.89258H13.0484C9.94844 2.89258 8.89844 3.94258 8.89844 7.04258V7.39258H11.2484C15.1584 7.39258 16.8984 9.13258 16.8984 13.0426V15.3926Z" fill="white"/>
</svg>
