<svg width="17" height="17" viewBox="0 0 17 17" fill="none" xmlns="http://www.w3.org/2000/svg">
<g id="Component 176" clip-path="url(#clip0_17002_63811)">
<path id="Vector" d="M4.86979 4.76921V2.76921C4.86979 2.59239 4.94003 2.42283 5.06505 2.2978C5.19008 2.17278 5.35965 2.10254 5.53646 2.10254H13.5365C13.7133 2.10254 13.8828 2.17278 14.0079 2.2978C14.1329 2.42283 14.2031 2.59239 14.2031 2.76921V12.1025C14.2031 12.2794 14.1329 12.4489 14.0079 12.5739C13.8828 12.699 13.7133 12.7692 13.5365 12.7692H11.5365V14.7692C11.5365 15.1372 11.2365 15.4359 10.8651 15.4359H2.87446C2.78654 15.4364 2.69939 15.4195 2.61801 15.3863C2.53662 15.353 2.46261 15.304 2.40023 15.2421C2.33785 15.1801 2.28832 15.1065 2.25449 15.0253C2.22067 14.9442 2.20321 14.8571 2.20312 14.7692L2.20513 5.43587C2.20513 5.06787 2.50513 4.76921 2.87646 4.76921H4.86979ZM3.53846 6.10254L3.53646 14.1025H10.2031V6.10254H3.53846ZM6.20312 4.76921H11.5365V11.4359H12.8698V3.43587H6.20312V4.76921Z" fill="#191919"/>
</g>
<defs>
<clipPath id="clip0_17002_63811">
<rect width="16" height="16" fill="white" transform="translate(0.203125 0.769287)"/>
</clipPath>
</defs>
</svg>
