<svg width="25" height="25" viewBox="0 0 25 25" fill="none" xmlns="http://www.w3.org/2000/svg">
<g clip-path="url(#clip0_10996_20351)">
<path d="M7.57812 6.17627V3.17627C7.57812 2.91105 7.68348 2.6567 7.87102 2.46916C8.05855 2.28163 8.31291 2.17627 8.57812 2.17627H20.5781C20.8433 2.17627 21.0977 2.28163 21.2852 2.46916C21.4728 2.6567 21.5781 2.91105 21.5781 3.17627V17.1763C21.5781 17.4415 21.4728 17.6958 21.2852 17.8834C21.0977 18.0709 20.8433 18.1763 20.5781 18.1763H17.5781V21.1763C17.5781 21.7283 17.1281 22.1763 16.5711 22.1763H4.58512C4.45325 22.1771 4.32252 22.1518 4.20045 22.1019C4.07837 22.052 3.96736 21.9785 3.87378 21.8856C3.78021 21.7926 3.70592 21.6821 3.65518 21.5604C3.60444 21.4387 3.57825 21.3081 3.57812 21.1763L3.58113 7.17627C3.58113 6.62427 4.03113 6.17627 4.58813 6.17627H7.57812ZM5.58112 8.17627L5.57812 20.1763H15.5781V8.17627H5.58112ZM9.57812 6.17627H17.5781V16.1763H19.5781V4.17627H9.57812V6.17627Z" fill="white"/>
</g>
<defs>
<clipPath id="clip0_10996_20351">
<rect width="24" height="24" fill="white" transform="translate(0.578125 0.17627)"/>
</clipPath>
</defs>
</svg>
