<svg width="24" height="24" viewBox="0 0 24 24" fill="none" xmlns="http://www.w3.org/2000/svg">
<g clipPath="url(#clip0_11193_162628)">
<path d="M24 9.72455V19.0005C23.9984 20.3261 23.4711 21.597 22.5338 22.5343C21.5964 23.4717 20.3256 23.999 19 24.0006H18C17.7348 24.0006 17.4804 23.8952 17.2929 23.7077C17.1054 23.5201 17 23.2658 17 23.0005C17 22.7353 17.1054 22.481 17.2929 22.2934C17.4804 22.1059 17.7348 22.0005 18 22.0005H19C19.7957 22.0005 20.5587 21.6845 21.1213 21.1219C21.6839 20.5593 22 19.7962 22 19.0005V9.72455C22 9.23347 21.8795 8.74989 21.649 8.31626C21.4185 7.88264 21.0851 7.51223 20.678 7.23755L13.678 2.51455C13.1834 2.17735 12.5986 1.997 12 1.997C11.4014 1.997 10.8166 2.17735 10.322 2.51455L3.322 7.23755C2.91493 7.51223 2.5815 7.88264 2.351 8.31626C2.1205 8.74989 1.99998 9.23347 2 9.72455V19.0005C2 19.7962 2.31607 20.5593 2.87868 21.1219C3.44129 21.6845 4.20435 22.0005 5 22.0005H6C6.26522 22.0005 6.51957 22.1059 6.70711 22.2934C6.89465 22.481 7 22.7353 7 23.0005C7 23.2658 6.89465 23.5201 6.70711 23.7077C6.51957 23.8952 6.26522 24.0006 6 24.0006H5C3.67441 23.999 2.40356 23.4717 1.46622 22.5343C0.528886 21.597 0.00159177 20.3261 3.91707e-06 19.0005V9.72455C-0.00102096 8.90627 0.199083 8.10027 0.582708 7.37749C0.966334 6.6547 1.52172 6.03728 2.2 5.57955L9.2 0.855547C10.0253 0.2955 10.9997 -0.00390625 11.997 -0.00390625C12.9944 -0.00390625 13.9687 0.2955 14.794 0.855547L21.794 5.57955C22.473 6.03704 23.0292 6.65426 23.4138 7.37699C23.7985 8.09972 23.9998 8.90584 24 9.72455ZM19 15.0075C19.0026 15.927 18.8227 16.8379 18.4708 17.6874C18.1189 18.5369 17.602 19.3082 16.95 19.9565L13.435 23.3945C13.0502 23.7671 12.5356 23.9754 12 23.9754C11.4644 23.9754 10.9498 23.7671 10.565 23.3945L7.058 19.9646C6.2424 19.1515 5.63999 18.1498 5.30419 17.0482C4.96839 15.9466 4.90957 14.7791 5.13293 13.6494C5.3563 12.5196 5.85496 11.4624 6.58471 10.5715C7.31445 9.68054 8.25274 8.98342 9.31639 8.54191C10.38 8.1004 11.5362 7.92814 12.6823 8.0404C13.8285 8.15266 14.9293 8.54597 15.887 9.18546C16.8448 9.82495 17.63 10.6909 18.173 11.7065C18.716 12.722 19.0001 13.8559 19 15.0075ZM17 15.0075C17 14.1853 16.7973 13.3758 16.4097 12.6506C16.0221 11.9255 15.4617 11.3071 14.778 10.8503C14.0944 10.3934 13.3086 10.1122 12.4904 10.0316C11.6721 9.95094 10.8466 10.0733 10.0869 10.3879C9.32726 10.7025 8.6569 11.1996 8.13523 11.8352C7.61356 12.4707 7.25667 13.2251 7.09618 14.0315C6.93569 14.8379 6.97654 15.6715 7.21513 16.4583C7.45372 17.2452 7.88268 17.9611 8.464 18.5425L11.964 21.9646L15.544 18.5345C16.0076 18.072 16.375 17.5221 16.6249 16.9167C16.8748 16.3114 17.0023 15.6625 17 15.0075ZM15 15.0005C15 15.5939 14.8241 16.1739 14.4944 16.6673C14.1648 17.1606 13.6962 17.5451 13.1481 17.7722C12.5999 17.9993 11.9967 18.0587 11.4147 17.9429C10.8328 17.8272 10.2982 17.5414 9.87868 17.1219C9.45913 16.7023 9.1734 16.1678 9.05765 15.5858C8.94189 15.0039 9.0013 14.4007 9.22837 13.8525C9.45543 13.3043 9.83995 12.8358 10.3333 12.5061C10.8266 12.1765 11.4067 12.0005 12 12.0005C12.7957 12.0005 13.5587 12.3166 14.1213 12.8792C14.6839 13.4418 15 14.2049 15 15.0005Z" fill="#191919"/>
</g>
<defs>
<clipPath id="clip0_11193_162628">
<rect width="24" height="24" fill="white"/>
</clipPath>
</defs>
</svg>
