<svg width="30" height="34" viewBox="0 0 30 34" fill="none" xmlns="http://www.w3.org/2000/svg">
<g id="Paper Plus">
<path id="Fill 3" opacity="0.4" d="M26.8873 12.0347C26.1099 12.0347 25.0801 12.018 23.798 12.018C20.6711 12.018 18.1001 9.51303 18.1001 6.45802V1.09801C18.1001 0.676342 17.7506 0.333008 17.3209 0.333008H8.21318C3.96278 0.333008 0.527344 3.70968 0.527344 7.84802V25.8064C0.527344 30.1481 4.12646 33.6664 8.5678 33.6664H22.1288C26.3656 33.6664 29.7993 30.3114 29.7993 26.1697V12.7847C29.7993 12.3614 29.4515 12.0197 29.0185 12.0214C28.2922 12.0264 27.4175 12.0347 26.8873 12.0347Z" fill="#FF9103"/>
<path id="Fill 1" opacity="0.4" d="M22.1949 1.27846C21.6801 0.760127 20.7812 1.11679 20.7812 1.83513V6.23014C20.7812 8.07348 22.3499 9.59015 24.2526 9.59015C25.4544 9.60348 27.1212 9.60681 28.5366 9.60348C29.2615 9.60182 29.63 8.76348 29.1272 8.25681C27.3106 6.42847 24.058 3.1518 22.1949 1.27846Z" fill="#FF9103"/>
<path id="Fill 6" d="M19.2394 17.3934H16.264V14.5151C16.264 13.8301 15.6906 13.2734 14.9829 13.2734C14.2752 13.2734 13.7001 13.8301 13.7001 14.5151V17.3934H10.7264C10.0187 17.3934 9.44531 17.9501 9.44531 18.6351C9.44531 19.3201 10.0187 19.8768 10.7264 19.8768H13.7001V22.7535C13.7001 23.4385 14.2752 23.9951 14.9829 23.9951C15.6906 23.9951 16.264 23.4385 16.264 22.7535V19.8768H19.2394C19.9471 19.8768 20.5222 19.3201 20.5222 18.6351C20.5222 17.9501 19.9471 17.3934 19.2394 17.3934Z" fill="#FF9103"/>
</g>
</svg>
