<svg width="20" height="19" viewBox="0 0 20 19" fill="none" xmlns="http://www.w3.org/2000/svg">
<g id="Group">
<path id="Fill 5" opacity="0.4" d="M2.723 18.1675C2.71 18.1675 2.698 18.1675 2.684 18.1665C2.369 18.1505 2.06 18.0825 1.766 17.9635C0.319002 17.3755 -0.378998 15.7225 0.208002 14.2765L7.529 1.45049C7.781 0.994491 8.163 0.612491 8.629 0.354491C9.994 -0.401509 11.72 0.0954906 12.475 1.45949L19.748 14.1875C19.91 14.5685 19.979 14.8785 19.996 15.1945C20.035 15.9505 19.777 16.6755 19.271 17.2365C18.765 17.7975 18.07 18.1285 17.315 18.1665L2.795 18.1675H2.723Z" fill="#FF6A6A"/>
<path id="Combined Shape" fill-rule="evenodd" clip-rule="evenodd" d="M9.125 7.021C9.125 6.539 9.518 6.146 10 6.146C10.482 6.146 10.875 6.539 10.875 7.021V9.849C10.875 10.332 10.482 10.724 10 10.724C9.518 10.724 9.125 10.332 9.125 9.849V7.021ZM9.125 13.2701C9.125 12.7851 9.518 12.3901 10 12.3901C10.482 12.3901 10.875 12.7801 10.875 13.2591C10.875 13.7521 10.482 14.1451 10 14.1451C9.518 14.1451 9.125 13.7521 9.125 13.2701Z" fill="#FF6A6A"/>
</g>
</svg>
