<svg width="68" height="68" viewBox="0 0 68 68" fill="none" xmlns="http://www.w3.org/2000/svg">
<path opacity="0.4" d="M55.6561 26.8836C55.6561 27.0762 54.1459 46.175 53.2835 54.2129C52.7434 59.1455 49.5636 62.1375 44.7937 62.2225C41.1287 62.3046 37.5409 62.333 34.0111 62.333C30.2635 62.333 26.5986 62.3046 23.0412 62.2225C18.4311 62.112 15.2485 59.0605 14.7359 54.2129C13.8486 46.1467 12.3661 27.0762 12.3386 26.8836C12.311 26.3028 12.4984 25.7503 12.8787 25.3026C13.2534 24.889 13.7935 24.6396 14.3612 24.6396H53.6611C54.2258 24.6396 54.7384 24.889 55.1435 25.3026C55.5209 25.7503 55.7111 26.3028 55.6561 26.8836Z" fill="#FF3636"/>
<path d="M59.5 16.9348C59.5 15.7703 58.5823 14.858 57.4801 14.858H49.219C47.538 14.858 46.0776 13.6624 45.7028 11.9766L45.2398 9.91118C44.5924 7.4151 42.3578 5.66699 39.85 5.66699H28.1527C25.6176 5.66699 23.4049 7.4151 22.7325 10.0472L22.2999 11.9794C21.9223 13.6624 20.4619 14.858 18.7838 14.858H10.5226C9.4176 14.858 8.5 15.7703 8.5 16.9348V18.0114C8.5 19.1475 9.4176 20.0881 10.5226 20.0881H57.4801C58.5823 20.0881 59.5 19.1475 59.5 18.0114V16.9348Z" fill="#FF3636"/>
</svg>
