<svg width="32" height="32" viewBox="0 0 32 32" fill="none" xmlns="http://www.w3.org/2000/svg">
<path d="M11.75 0.173828C7.41425 0.173828 3.875 3.71308 3.875 8.04883C3.875 10.7601 5.25875 13.1698 7.35575 14.5885C3.34288 16.3097 0.5 20.2888 0.5 24.9238H2.75C2.75 19.9401 6.76625 15.9238 11.75 15.9238C13.298 15.9238 14.7358 16.3266 16.0025 17.0151C14.7071 18.6166 14.0003 20.614 14 22.6738C14 27.6306 18.0432 31.6738 23 31.6738C27.9568 31.6738 32 27.6306 32 22.6738C32 17.7171 27.9568 13.6738 23 13.6738C21.1044 13.6764 19.2582 14.2789 17.726 15.3951C17.2288 15.0835 16.691 14.8213 16.1442 14.5873C17.2148 13.8651 18.0919 12.8914 18.6987 11.7515C19.3056 10.6115 19.6236 9.34021 19.625 8.04883C19.625 3.71308 16.0858 0.173828 11.75 0.173828ZM11.75 2.42383C14.8696 2.42383 17.375 4.9292 17.375 8.04883C17.375 11.1685 14.8696 13.6738 11.75 13.6738C8.63037 13.6738 6.125 11.1685 6.125 8.04883C6.125 4.9292 8.63037 2.42383 11.75 2.42383ZM23 15.9238C26.7418 15.9238 29.75 18.9321 29.75 22.6738C29.75 26.4156 26.7418 29.4238 23 29.4238C19.2582 29.4238 16.25 26.4156 16.25 22.6738C16.25 18.9321 19.2582 15.9238 23 15.9238ZM20.435 18.4888L18.815 20.1088L21.3834 22.6738L18.8184 25.2388L20.435 26.8588L23 24.2905L25.565 26.8555L27.185 25.2388L24.6166 22.6738L27.1816 20.1088L25.565 18.4888L23 21.0572L20.435 18.4922V18.4888Z" fill="#F04438"/>
</svg>
