<svg width="29" height="34" viewBox="0 0 29 34" fill="none" xmlns="http://www.w3.org/2000/svg">
<g id="Paper">
<g id="Group 3">
<mask id="mask0_15115_7120" style="mask-type:luminance" maskUnits="userSpaceOnUse" x="0" y="0" width="29" height="34">
<path id="Clip 2" fill-rule="evenodd" clip-rule="evenodd" d="M0 0.353516H28.4212V33.4427H0V0.353516Z" fill="white"/>
</mask>
<g mask="url(#mask0_15115_7120)">
<path id="Fill 1" fill-rule="evenodd" clip-rule="evenodd" d="M7.62124 2.85352C4.85957 2.85352 2.56624 5.09018 2.50124 7.84852V25.6735C2.43957 28.5285 4.68957 30.8802 7.51624 30.9435H20.9562C23.7379 30.8285 25.9412 28.5168 25.9212 25.6835V10.9002L18.1962 2.85352H7.64124H7.62124ZM7.64184 33.4435H7.46017C3.25684 33.3485 -0.0898276 29.8518 0.00183905 25.6468V7.81852C0.0985057 3.68352 3.51351 0.353516 7.61851 0.353516H7.64684H18.7302C19.0702 0.353516 19.3952 0.491849 19.6318 0.736849L28.0735 9.53185C28.2968 9.76352 28.4218 10.0752 28.4218 10.3968V25.6735C28.4518 29.8552 25.1952 33.2719 21.0068 33.4418L7.64184 33.4435Z" fill="black"/>
</g>
</g>
<path id="Fill 4" fill-rule="evenodd" clip-rule="evenodd" d="M27.1646 11.974H22.573C19.523 11.9657 17.043 9.47898 17.043 6.43232V1.58398C17.043 0.893984 17.603 0.333984 18.293 0.333984C18.983 0.333984 19.543 0.893984 19.543 1.58398V6.43232C19.543 8.10565 20.9046 9.46898 22.5763 9.47398H27.1646C27.8546 9.47398 28.4146 10.034 28.4146 10.724C28.4146 11.414 27.8546 11.974 27.1646 11.974Z" fill="black"/>
<path id="Fill 6" fill-rule="evenodd" clip-rule="evenodd" d="M17.9766 23.8477H8.97656C8.28656 23.8477 7.72656 23.2877 7.72656 22.5977C7.72656 21.9077 8.28656 21.3477 8.97656 21.3477H17.9766C18.6666 21.3477 19.2266 21.9077 19.2266 22.5977C19.2266 23.2877 18.6666 23.8477 17.9766 23.8477Z" fill="black"/>
<path id="Fill 8" fill-rule="evenodd" clip-rule="evenodd" d="M14.5699 17.5947H8.97656C8.28656 17.5947 7.72656 17.0347 7.72656 16.3447C7.72656 15.6547 8.28656 15.0947 8.97656 15.0947H14.5699C15.2599 15.0947 15.8199 15.6547 15.8199 16.3447C15.8199 17.0347 15.2599 17.5947 14.5699 17.5947Z" fill="black"/>
</g>
</svg>
