<svg width="48" height="48" viewBox="0 0 48 48" fill="none" xmlns="http://www.w3.org/2000/svg">
<g id="Folder 1">
<path id="Vector" opacity="0.4" d="M33.7686 10.2297H27.8826C26.4162 10.2394 25.024 9.58711 24.0948 8.45503L22.1564 5.77525C21.2428 4.63323 19.8506 3.97789 18.3864 4.00057H14.2252C6.75636 4.00057 4 8.38403 4 15.8377V23.8948C3.9907 24.7808 43.9912 24.7796 43.9938 23.8948V21.5522C44.0294 14.0985 41.3442 10.2297 33.7686 10.2297Z" fill="#CBCBCB"/>
<path id="Vector_2" fill-rule="evenodd" clip-rule="evenodd" d="M41.6642 13.0866C42.3042 13.8347 42.7986 14.6954 43.1224 15.6244C43.7596 17.5337 44.0546 19.5402 43.9938 21.5519V32.0579C43.9912 32.9429 43.926 33.8265 43.7982 34.7023C43.555 36.2477 43.0114 37.7307 42.1978 39.0679C41.8238 39.7139 41.3698 40.3101 40.8462 40.8425C38.4766 43.0175 35.33 44.1495 32.1148 43.9837H15.8612C12.641 44.1483 9.48924 43.0167 7.11202 40.8425C6.59482 40.3091 6.14674 39.7129 5.7783 39.0679C4.9695 37.7317 4.43738 36.2471 4.2134 34.7023C4.07098 33.8279 3.99962 32.9437 4 32.0579V21.5519C3.99966 20.6745 4.04714 19.7976 4.14228 18.9253C4.16228 18.7722 4.19228 18.6217 4.22196 18.4727C4.27146 18.2243 4.3201 17.9803 4.3201 17.7362C4.50062 16.6836 4.82992 15.6618 5.29816 14.7015C6.68524 11.7378 9.5305 10.2294 14.1896 10.2294H33.7508C36.3604 10.0275 38.9506 10.8131 41.0064 12.43C41.243 12.6307 41.4632 12.8503 41.6642 13.0866ZM13.9407 31.0819H34.071H34.1066C34.5482 31.1011 34.9792 30.9429 35.3034 30.6429C35.6274 30.3427 35.8176 29.9257 35.8314 29.4847C35.8564 29.0971 35.7288 28.7149 35.4758 28.4199C35.1848 28.0233 34.7236 27.7865 34.231 27.7809H13.9407C13.0273 27.7809 12.2869 28.5199 12.2869 29.4315C12.2869 30.3429 13.0273 31.0819 13.9407 31.0819Z" fill="#CBCBCB"/>
</g>
</svg>
