<svg width="100" height="100" viewBox="0 0 100 100" fill="none" xmlns="http://www.w3.org/2000/svg">
<g id="Folder 1">
<path id="Vector" opacity="0.4" d="M70.3511 21.3116H58.0886C55.0336 21.3317 52.1332 19.9728 50.1974 17.6143L46.159 12.0314C44.2557 9.65224 41.3553 8.28695 38.3049 8.3342H29.6358C14.0757 8.3342 8.33326 17.4664 8.33326 32.9949V49.7805C8.31388 51.6264 91.6482 51.6239 91.6536 49.7805V44.9001C91.7278 29.3715 86.1336 21.3116 70.3511 21.3116Z" fill="#CBCBCB"/>
<path id="Vector_2" fill-rule="evenodd" clip-rule="evenodd" d="M86.8003 27.2644C88.1336 28.8231 89.1636 30.6161 89.8382 32.5515C91.1657 36.5293 91.7803 40.7096 91.6536 44.9004V66.7879C91.6482 68.6317 91.5124 70.4725 91.2461 72.2971C90.7395 75.5167 89.607 78.6063 87.912 81.3921C87.1328 82.7379 86.187 83.98 85.0961 85.0892C80.1595 89.6204 73.604 91.9788 66.9057 91.6333H33.0441C26.3353 91.9763 19.7692 89.6188 14.8166 85.0892C13.7391 83.9779 12.8056 82.7358 12.038 81.3921C10.353 78.6083 9.24446 75.5154 8.77784 72.2971C8.48113 70.4754 8.33246 68.6333 8.33326 66.7879V44.9004C8.33255 43.0725 8.43146 41.2456 8.62967 39.4284C8.67134 39.1096 8.73384 38.7959 8.79567 38.4855C8.8988 37.9681 9.00013 37.4596 9.00013 36.9512C9.37621 34.7582 10.0623 32.6296 11.0378 30.6289C13.9275 24.4545 19.8551 21.3119 29.5617 21.3119H70.314C75.7507 20.8914 81.147 22.5281 85.4299 25.8965C85.9228 26.3147 86.3815 26.7722 86.8003 27.2644ZM29.043 64.7546H70.9811H71.0553C71.9753 64.7946 72.8732 64.465 73.5486 63.84C74.2236 63.2146 74.6199 62.3458 74.6486 61.4271C74.7007 60.6196 74.4349 59.8233 73.9078 59.2088C73.3015 58.3825 72.3407 57.8892 71.3145 57.8775H29.043C27.1401 57.8775 25.5975 59.4171 25.5975 61.3163C25.5975 63.215 27.1401 64.7546 29.043 64.7546Z" fill="#CBCBCB"/>
</g>
</svg>
