<svg width="18" height="21" viewBox="0 0 18 21" fill="none" xmlns="http://www.w3.org/2000/svg">
<path opacity="0.4" d="M12.7415 0.935547H4.73514C1.83102 0.935547 0.140137 2.63599 0.140137 5.54966V15.4179C0.140137 18.3794 1.83102 20.0416 4.73514 20.0416H12.7415C15.6925 20.0416 17.3356 18.3794 17.3356 15.4179V5.54966C17.3356 2.63599 15.6925 0.935547 12.7415 0.935547Z" fill="#064B38"/>
<path fill-rule="evenodd" clip-rule="evenodd" d="M4.99259 5.37695V5.38651C4.58085 5.38651 4.24745 5.72086 4.24745 6.13164C4.24745 6.54242 4.58085 6.87678 4.99259 6.87678H7.84799C8.25972 6.87678 8.59408 6.54242 8.59408 6.12113C8.59408 5.71131 8.25972 5.37695 7.84799 5.37695H4.99259ZM12.4822 11.195H4.99259C4.58085 11.195 4.24745 10.8607 4.24745 10.4499C4.24745 10.0391 4.58085 9.7038 4.99259 9.7038H12.4822C12.8929 9.7038 13.2273 10.0391 13.2273 10.4499C13.2273 10.8607 12.8929 11.195 12.4822 11.195ZM12.4823 15.5604H4.99273C4.70614 15.5986 4.42911 15.4553 4.27626 15.2165C4.12341 14.9681 4.12341 14.6529 4.27626 14.4141C4.42911 14.1657 4.70614 14.0319 4.99273 14.0606H12.4823C12.8635 14.0988 13.151 14.4236 13.151 14.8153C13.151 15.1965 12.8635 15.5222 12.4823 15.5604Z" fill="#064B38"/>
</svg>
