<svg width="24" height="24" viewBox="0 0 24 24" fill="none" xmlns="http://www.w3.org/2000/svg">
<path d="M11.492 2.78906H7.75299C4.67799 2.78906 2.75 4.96606 2.75 8.04806V16.3621C2.75 19.4441 4.66899 21.6211 7.75299 21.6211H16.577C19.662 21.6211 21.581 19.4441 21.581 16.3621V12.3341" stroke="#4545FE" stroke-width="1.5" stroke-linecap="round" stroke-linejoin="round"/>
<path fill-rule="evenodd" clip-rule="evenodd" d="M8.82861 10.9205L16.3016 3.4475C17.2326 2.5175 18.7416 2.5175 19.6726 3.4475L20.8896 4.6645C21.8206 5.5955 21.8206 7.1055 20.8896 8.0355L13.3806 15.5445C12.9736 15.9515 12.4216 16.1805 11.8456 16.1805H8.09961L8.19361 12.4005C8.20761 11.8445 8.43461 11.3145 8.82861 10.9205Z" stroke="#4545FE" stroke-width="1.5" stroke-linecap="round" stroke-linejoin="round"/>
<path d="M15.166 4.60254L19.732 9.16854" stroke="#4545FE" stroke-width="1.5" stroke-linecap="round" stroke-linejoin="round"/>
</svg>
