<svg width="14" height="14" viewBox="0 0 14 14" fill="none" xmlns="http://www.w3.org/2000/svg">
<g id="Edit Square">
<path id="Stroke 1" d="M6.66003 0.860352H4.16736C2.11736 0.860352 0.832031 2.31168 0.832031 4.36635V9.90902C0.832031 11.9637 2.11136 13.415 4.16736 13.415H10.05C12.1067 13.415 13.386 11.9637 13.386 9.90902V7.22369" stroke="#191919" stroke-linecap="round" stroke-linejoin="round"/>
<path id="Stroke 3" fill-rule="evenodd" clip-rule="evenodd" d="M4.88248 6.28098L9.86448 1.29898C10.4852 0.678984 11.4912 0.678984 12.1118 1.29898L12.9232 2.11032C13.5438 2.73098 13.5438 3.73765 12.9232 4.35765L7.91715 9.36365C7.64582 9.63498 7.27782 9.78765 6.89382 9.78765H4.39648L4.45915 7.26765C4.46848 6.89698 4.61982 6.54365 4.88248 6.28098Z" stroke="#191919" stroke-linecap="round" stroke-linejoin="round"/>
<path id="Stroke 5" d="M9.10742 2.06934L12.1514 5.11334" stroke="#191919" stroke-linecap="round" stroke-linejoin="round"/>
</g>
</svg>
