<svg width="14" height="14" viewBox="0 0 14 14" fill="none" xmlns="http://www.w3.org/2000/svg">
<g id="Edit Square">
<path id="Stroke 1" d="M6.65612 0.859863H4.16346C2.11346 0.859863 0.828125 2.3112 0.828125 4.36586V9.90853C0.828125 11.9632 2.10746 13.4145 4.16346 13.4145H10.0461C12.1028 13.4145 13.3821 11.9632 13.3821 9.90853V7.2232" stroke="#191919" stroke-linecap="round" stroke-linejoin="round"/>
<path id="Stroke 3" fill-rule="evenodd" clip-rule="evenodd" d="M4.88444 6.28098L9.86644 1.29898C10.4871 0.678984 11.4931 0.678984 12.1138 1.29898L12.9251 2.11032C13.5458 2.73098 13.5458 3.73765 12.9251 4.35765L7.9191 9.36365C7.64777 9.63498 7.27977 9.78765 6.89577 9.78765H4.39844L4.4611 7.26765C4.47044 6.89698 4.62177 6.54365 4.88444 6.28098Z" stroke="#191919" stroke-linecap="round" stroke-linejoin="round"/>
<path id="Stroke 5" d="M9.10156 2.06885L12.1456 5.11285" stroke="#191919" stroke-linecap="round" stroke-linejoin="round"/>
</g>
</svg>
