<svg width="154" height="155" viewBox="0 0 154 155" fill="none" xmlns="http://www.w3.org/2000/svg">
<rect width="154" height="155" rx="12" fill="#F5F5F5"/>
<path fill-rule="evenodd" clip-rule="evenodd" d="M58.945 119.666H95.0559C109.182 119.666 118.669 109.758 118.669 95.0134V60.986C118.669 46.2418 109.182 36.333 95.0601 36.333H58.945C44.823 36.333 35.3359 46.2418 35.3359 60.986V95.0134C35.3359 109.758 44.823 119.666 58.945 119.666ZM62.4145 73.833C56.6701 73.833 52.0026 69.1591 52.0026 63.4163C52.0026 57.6736 56.6701 52.9997 62.4145 52.9997C68.1547 52.9997 72.8264 57.6736 72.8264 63.4163C72.8264 69.1591 68.1547 73.833 62.4145 73.833ZM109.589 90.2247C110.985 93.8022 110.26 98.1022 108.768 101.645C107 105.859 103.615 109.05 99.3493 110.443C97.4555 111.062 95.4693 111.333 93.4876 111.333H58.3719C54.8776 111.333 51.7854 110.495 49.2505 108.933C47.6626 107.953 47.3819 105.691 48.5592 104.225C50.5284 101.774 52.4726 99.3147 54.4334 96.8334C58.1709 92.0863 60.689 90.7105 63.4878 91.9188C64.6233 92.4176 65.7629 93.1655 66.9361 93.9568C70.0618 96.0809 74.4068 99.0005 80.1301 95.8318C84.0468 93.638 86.3184 89.8751 88.2968 86.5984L88.3297 86.5438C88.4701 86.3138 88.6089 86.0838 88.7472 85.8547C89.4122 84.7547 90.068 83.6693 90.8101 82.6693C91.7405 81.418 95.1884 77.5051 99.6551 80.2918C102.5 82.0459 104.893 84.4197 107.453 86.9609C108.429 87.9326 109.124 89.0376 109.589 90.2247Z" fill="#E4E4E4"/>
</svg>
