<svg width="24" height="25" viewBox="0 0 24 25" fill="none" xmlns="http://www.w3.org/2000/svg">
<path d="M14.85 4.54307V8.34307H13.35V4.54307C13.35 4.27307 13.11 4.14307 12.95 4.14307C12.9 4.14307 12.85 4.15307 12.8 4.17307L4.87 7.16307C4.34 7.36307 4 7.86307 4 8.43307V9.10307C3.09 9.78307 2.5 10.8731 2.5 12.1031V8.43307C2.5 7.24307 3.23 6.18307 4.34 5.76307L12.28 2.76307C12.5 2.68307 12.73 2.64307 12.95 2.64307C13.95 2.64307 14.85 3.45307 14.85 4.54307Z" fill="#060623"/>
<path d="M21.4968 15.0933V16.0933C21.4968 16.3633 21.2868 16.5833 21.0068 16.5933H19.5468C19.0168 16.5933 18.5368 16.2033 18.4968 15.6833C18.4668 15.3733 18.5868 15.0833 18.7868 14.8833C18.9668 14.6933 19.2168 14.5933 19.4868 14.5933H20.9968C21.2868 14.6033 21.4968 14.8233 21.4968 15.0933Z" fill="#060623"/>
<path d="M19.48 13.5433H20.5C21.05 13.5433 21.5 13.0933 21.5 12.5433V12.1033C21.5 10.0333 19.81 8.34326 17.74 8.34326H6.26C5.41 8.34326 4.63 8.62326 4 9.10326C3.09 9.78326 2.5 10.8733 2.5 12.1033V18.8333C2.5 20.9033 4.19 22.5933 6.26 22.5933H17.74C19.81 22.5933 21.5 20.9033 21.5 18.8333V18.6433C21.5 18.0933 21.05 17.6433 20.5 17.6433H19.63C18.67 17.6433 17.75 17.0533 17.5 16.1233C17.29 15.3633 17.54 14.6333 18.04 14.1433C18.41 13.7633 18.92 13.5433 19.48 13.5433ZM14 13.3433H7C6.59 13.3433 6.25 13.0033 6.25 12.5933C6.25 12.1833 6.59 11.8433 7 11.8433H14C14.41 11.8433 14.75 12.1833 14.75 12.5933C14.75 13.0033 14.41 13.3433 14 13.3433Z" fill="#060623"/>
</svg>
