<svg width="14" height="16" viewBox="0 0 14 16" fill="none" xmlns="http://www.w3.org/2000/svg">
<path d="M11.6693 5.616V4.66667C11.6693 3.42899 11.1776 2.242 10.3024 1.36684C9.42727 0.491665 8.24028 0 7.0026 0C5.76493 0 4.57794 0.491665 3.70277 1.36684C2.8276 2.242 2.33594 3.42899 2.33594 4.66667V5.616C1.74218 5.87514 1.2368 6.30168 0.881604 6.84347C0.526408 7.38527 0.33679 8.01882 0.335938 8.66667V12.6667C0.336996 13.5504 0.688525 14.3976 1.31342 15.0225C1.93831 15.6474 2.78554 15.9989 3.66927 16H10.3359C11.2197 15.9989 12.0669 15.6474 12.6918 15.0225C13.3167 14.3976 13.6682 13.5504 13.6693 12.6667V8.66667C13.6684 8.01882 13.4788 7.38527 13.1236 6.84347C12.7684 6.30168 12.263 5.87514 11.6693 5.616ZM3.66927 4.66667C3.66927 3.78261 4.02046 2.93477 4.64558 2.30964C5.2707 1.68452 6.11855 1.33333 7.0026 1.33333C7.88666 1.33333 8.7345 1.68452 9.35963 2.30964C9.98475 2.93477 10.3359 3.78261 10.3359 4.66667V5.33333H3.66927V4.66667ZM12.3359 12.6667C12.3359 13.1971 12.1252 13.7058 11.7502 14.0809C11.3751 14.456 10.8664 14.6667 10.3359 14.6667H3.66927C3.13884 14.6667 2.63013 14.456 2.25506 14.0809C1.87998 13.7058 1.66927 13.1971 1.66927 12.6667V8.66667C1.66927 8.13623 1.87998 7.62753 2.25506 7.25245C2.63013 6.87738 3.13884 6.66667 3.66927 6.66667H10.3359C10.8664 6.66667 11.3751 6.87738 11.7502 7.25245C12.1252 7.62753 12.3359 8.13623 12.3359 8.66667V12.6667Z" fill="#919191"/>
</svg>
