<svg width="11" height="11" viewBox="0 0 11 11" fill="none" xmlns="http://www.w3.org/2000/svg">
<g id="vuesax/outline/3square">
<g id="3square">
<path id="Vector" d="M4.11922 10.2255H2.0312C1.02016 10.2255 0.549805 9.75514 0.549805 8.7441V6.65608C0.549805 5.64064 1.02016 5.17029 2.0312 5.17029H3.07741C3.25764 5.17029 3.4071 5.31975 3.4071 5.49998V6.54179C3.4071 7.18358 3.59172 7.3682 4.22912 7.3682H5.27533C5.45555 7.3682 5.60501 7.51766 5.60501 7.69789V8.7441C5.60501 9.75514 5.13466 10.2255 4.11922 10.2255ZM2.0312 5.82966C1.3938 5.82966 1.20918 6.01429 1.20918 6.65608V8.7441C1.20918 9.3815 1.3938 9.56612 2.0312 9.56612H4.11922C4.76101 9.56612 4.94564 9.3815 4.94564 8.7441V8.02758H4.22912C3.21808 8.02758 2.74772 7.55723 2.74772 6.54179V5.82966H2.0312Z" fill="#FFD23F"/>
<path id="Vector_2" d="M6.31649 8.02756H4.22847C3.21742 8.02756 2.74707 7.55721 2.74707 6.54177V4.45375C2.74707 3.44271 3.21742 2.97235 4.22847 2.97235H5.27467C5.4549 2.97235 5.60436 3.12181 5.60436 3.30204V4.34385C5.60436 4.98564 5.78899 5.17027 6.42638 5.17027H7.47259C7.65282 5.17027 7.80228 5.31973 7.80228 5.49996V6.54177C7.80228 7.55721 7.33192 8.02756 6.31649 8.02756ZM4.22847 3.63173C3.59107 3.63173 3.40645 3.81635 3.40645 4.45375V6.54177C3.40645 7.18356 3.59107 7.36818 4.22847 7.36818H6.31649C6.95828 7.36818 7.1429 7.18356 7.1429 6.54177V5.82964H6.42638C5.41534 5.82964 4.94499 5.35929 4.94499 4.34385V3.63173H4.22847Z" fill="#FFD23F"/>
<path id="Vector_3" d="M8.51473 5.82968H6.42671C5.41567 5.82968 4.94531 5.35933 4.94531 4.34389V2.25587C4.94531 1.24483 5.41567 0.774475 6.42671 0.774475H8.51473C9.53017 0.774475 10.0005 1.24483 10.0005 2.25587V4.34389C10.0005 5.35933 9.53017 5.82968 8.51473 5.82968ZM6.42671 1.43385C5.78931 1.43385 5.60469 1.61848 5.60469 2.25587V4.34389C5.60469 4.98568 5.78931 5.17031 6.42671 5.17031H8.51473C9.15652 5.17031 9.34115 4.98568 9.34115 4.34389V2.25587C9.34115 1.61848 9.15652 1.43385 8.51473 1.43385H6.42671Z" fill="#FFD23F"/>
</g>
</g>
</svg>
