<svg xmlns="http://www.w3.org/2000/svg" width="28" height="29" viewBox="0 0 28 29" fill="none">
  <path d="M13.9999 21.5C12.1636 21.5 10.5754 20.8824 9.23525 19.6473C7.89592 18.413 7.15742 16.8917 7.01975 15.0833H2.78125V13.9167H7.01975C7.15742 12.1083 7.89631 10.587 9.23642 9.35267C10.575 8.11756 12.1628 7.5 13.9999 7.5C15.837 7.5 17.4252 8.11756 18.7646 9.35267C20.1039 10.5878 20.8424 12.1091 20.9801 13.9167H25.2174V15.0833H20.9801C20.8424 16.8917 20.1035 18.4134 18.7634 19.6485C17.4256 20.8828 15.8378 21.5 13.9999 21.5ZM13.9999 20.3333C15.6138 20.3333 16.9897 19.7644 18.1276 18.6265C19.2655 17.4886 19.834 16.1131 19.8333 14.5C19.8325 12.8869 19.2635 11.5114 18.1264 10.3735C16.9893 9.23561 15.6138 8.66667 13.9999 8.66667C12.386 8.66667 11.0105 9.23561 9.87342 10.3735C8.73631 11.5114 8.16736 12.8869 8.16658 14.5C8.16581 16.1131 8.73475 17.489 9.87342 18.6277C11.0121 19.7663 12.3876 20.3349 13.9999 20.3333ZM11.6666 18.315H16.3333C16.6257 18.315 16.8707 18.2158 17.0682 18.0175C17.2658 17.8192 17.3646 17.5742 17.3646 17.2825V13.7825C17.3646 13.4901 17.2658 13.2451 17.0682 13.0475C16.8707 12.8492 16.6257 12.75 16.3333 12.75H16.1991V11.8353C16.1991 11.1921 15.9902 10.6453 15.5726 10.195C15.1549 9.74389 14.6307 9.51833 13.9999 9.51833C13.3878 9.51833 12.8682 9.73378 12.4412 10.1647C12.0142 10.5956 11.8007 11.1132 11.8007 11.7175V12.75H11.6666C11.3741 12.75 11.1291 12.8488 10.9316 13.0463C10.734 13.2447 10.6353 13.4897 10.6353 13.7813V17.2813C10.6353 17.5746 10.734 17.8199 10.9316 18.0175C11.1291 18.2151 11.3741 18.3138 11.6666 18.3138M13.9999 16.362C13.7767 16.362 13.5826 16.2796 13.4178 16.1147C13.2529 15.9498 13.17 15.7553 13.1692 15.5313C13.1685 15.3073 13.2513 15.1137 13.4178 14.9503C13.5842 14.787 13.7782 14.7042 13.9999 14.7018C14.2216 14.6995 14.4156 14.7823 14.5821 14.9503C14.7485 15.1183 14.8314 15.3124 14.8306 15.5325C14.8298 15.7526 14.747 15.9467 14.5821 16.1147C14.4172 16.2827 14.2231 16.3651 13.9999 16.362ZM12.6991 12.75V11.7175C12.6991 11.3574 12.8259 11.0506 13.0794 10.797C13.333 10.5434 13.6398 10.4167 13.9999 10.4167C14.36 10.4167 14.6672 10.5434 14.9216 10.797C15.1759 11.0506 15.3027 11.3578 15.3019 11.7187V12.75H12.6991Z" fill="#606060"/>
</svg>