<svg width="16" height="17" viewBox="0 0 16 17" fill="none" xmlns="http://www.w3.org/2000/svg">
<path d="M14 2.5H9.5M14 2.5V7M14 2.5L8.5 8M6.26667 2.5C4.77333 2.5 4.02667 2.5 3.456 2.79067C2.95426 3.04633 2.54633 3.45426 2.29067 3.956C2 4.52667 2 5.27333 2 6.76667V10.2333C2 11.7267 2 12.4733 2.29067 13.044C2.54633 13.5457 2.95426 13.9537 3.456 14.2093C4.02667 14.5 4.77333 14.5 6.26667 14.5H9.73333C11.2267 14.5 11.9733 14.5 12.544 14.2093C13.0457 13.9537 13.4537 13.5457 13.7093 13.044C14 12.4733 14 11.7267 14 10.2333V9.5" stroke="#141414" stroke-linecap="round" stroke-linejoin="round"/>
</svg>
