<svg width="11" height="11" viewBox="0 0 11 11" fill="none" xmlns="http://www.w3.org/2000/svg">
<g id="vuesax/outline/flash">
<g id="flash">
<path id="Vector" d="M5.96518 10.0629C5.86407 10.0629 5.76297 10.0453 5.66626 10.0101C5.33658 9.88702 5.12557 9.57932 5.12557 9.22765V6.39234H4.09695C3.76286 6.39234 3.47273 6.20332 3.33646 5.9C3.20019 5.59669 3.25294 5.25382 3.47273 5.00325L6.80038 1.22284C7.03336 0.959087 7.39382 0.866775 7.72351 0.994254C8.0532 1.11734 8.26419 1.42505 8.26419 1.77671V4.61202H9.29283C9.62691 4.61202 9.91703 4.80105 10.0533 5.10436C10.1896 5.40767 10.1368 5.75055 9.91703 6.00111L6.58938 9.78152C6.42673 9.96615 6.19816 10.0629 5.96518 10.0629ZM7.4202 1.59648C7.38063 1.59648 7.33228 1.60967 7.29271 1.65802L3.96506 5.44284C3.89473 5.52196 3.92112 5.60109 3.9343 5.63186C3.94749 5.66263 3.99145 5.73736 4.09695 5.73736H5.45526C5.63549 5.73736 5.78495 5.88682 5.78495 6.06705V9.23205C5.78495 9.34194 5.86408 9.3859 5.89924 9.39909C5.93441 9.41228 6.02231 9.43425 6.09265 9.35073L9.4203 5.56592C9.49063 5.4868 9.46426 5.40767 9.45107 5.3769C9.43788 5.34613 9.39393 5.2714 9.28843 5.2714H7.93011C7.74989 5.2714 7.60043 5.12194 7.60043 4.94171V1.77671C7.60043 1.66682 7.5213 1.62286 7.48613 1.60967C7.47294 1.60088 7.44657 1.59648 7.4202 1.59648Z" fill="#FF9103"/>
<path id="Vector_2" d="M3.73685 2.313H0.659766C0.479536 2.313 0.330078 2.16354 0.330078 1.98331C0.330078 1.80308 0.479536 1.65363 0.659766 1.65363H3.73685C3.91708 1.65363 4.06654 1.80308 4.06654 1.98331C4.06654 2.16354 3.91708 2.313 3.73685 2.313Z" fill="#FF9103"/>
<path id="Vector_3" d="M3.29727 9.34633H0.659766C0.479536 9.34633 0.330078 9.19687 0.330078 9.01664C0.330078 8.83641 0.479536 8.68695 0.659766 8.68695H3.29727C3.47749 8.68695 3.62695 8.83641 3.62695 9.01664C3.62695 9.19687 3.47749 9.34633 3.29727 9.34633Z" fill="#FF9103"/>
<path id="Vector_4" d="M1.97852 5.82966H0.659766C0.479536 5.82966 0.330078 5.6802 0.330078 5.49998C0.330078 5.31975 0.479536 5.17029 0.659766 5.17029H1.97852C2.15874 5.17029 2.3082 5.31975 2.3082 5.49998C2.3082 5.6802 2.15874 5.82966 1.97852 5.82966Z" fill="#FF9103"/>
</g>
</g>
</svg>
