<svg width="16" height="16" viewBox="0 0 16 16" fill="none" xmlns="http://www.w3.org/2000/svg">
<g clip-path="url(#clip0_668_8860)">
<path d="M13.5 1.8999C14.163 1.8999 14.7989 2.16329 15.2678 2.63214C15.7366 3.10098 16 3.73686 16 4.3999V12.3999C16 13.0629 15.7366 13.6988 15.2678 14.1677C14.7989 14.6365 14.163 14.8999 13.5 14.8999H2.5C1.83696 14.8999 1.20107 14.6365 0.732233 14.1677C0.263392 13.6988 0 13.0629 0 12.3999V4.3999C0 3.73686 0.263392 3.10098 0.732233 2.63214C1.20107 2.16329 1.83696 1.8999 2.5 1.8999H13.5ZM15 5.8609L8.254 9.8309C8.19022 9.86835 8.11893 9.89118 8.04527 9.89775C7.9716 9.90432 7.8974 9.89447 7.828 9.8689L7.746 9.8309L1 5.8629V12.3999C1 12.7977 1.15804 13.1793 1.43934 13.4606C1.72064 13.7419 2.10218 13.8999 2.5 13.8999H13.5C13.8978 13.8999 14.2794 13.7419 14.5607 13.4606C14.842 13.1793 15 12.7977 15 12.3999V5.8609ZM13.5 2.8999H2.5C2.10218 2.8999 1.72064 3.05794 1.43934 3.33924C1.15804 3.62055 1 4.00208 1 4.3999V4.7019L8 8.8199L15 4.6999V4.3999C15 4.00208 14.842 3.62055 14.5607 3.33924C14.2794 3.05794 13.8978 2.8999 13.5 2.8999Z" fill="#042713"/>
</g>
<defs>
<clipPath id="clip0_668_8860">
<rect width="16" height="16" fill="white"/>
</clipPath>
</defs>
</svg>
