<svg width="24" height="24" viewBox="0 0 24 24" fill="none" xmlns="http://www.w3.org/2000/svg">
<g id="Ticket 1">
<path id="Vector" opacity="0.4" d="M13.7505 9.70255V7.6827C13.354 7.6827 13.0251 7.36328 13.0251 6.9781V4.57308C13.0251 4.25272 12.764 4 12.4352 4H5.7911C3.70213 4 2 5.65252 2 7.6827V10.1149C2 10.3038 2.07737 10.4823 2.21277 10.6138C2.34816 10.7444 2.53191 10.8195 2.72534 10.8195C3.46035 10.8195 4.02128 11.3268 4.02128 11.9939C4.02128 12.69 3.45068 13.2443 2.73501 13.2527C2.33849 13.2527 2 13.5252 2 13.9198V16.3257C2 18.355 3.70213 19.999 5.78143 19.999H12.4352C12.764 19.999 13.0251 19.7444 13.0251 19.426V17.3958C13.0251 17.0021 13.354 16.6912 13.7505 16.6912V14.8696C13.354 14.8696 13.0251 14.5492 13.0251 14.165V10.4071C13.0251 10.0219 13.354 9.70255 13.7505 9.70255Z" fill="white"/>
<path id="Vector_2" d="M19.9782 11.9948C19.9782 12.69 20.5585 13.2443 21.2645 13.2537C21.661 13.2537 21.9995 13.5262 21.9995 13.9113V16.3258C21.9995 18.3559 20.307 20 18.2181 20H15.0653C14.7461 20 14.4753 19.7454 14.4753 19.426V17.3967C14.4753 17.0022 14.1562 16.6921 13.75 16.6921V14.8705C14.1562 14.8705 14.4753 14.5502 14.4753 14.1659V10.4081C14.4753 10.022 14.1562 9.70348 13.75 9.70348V7.6827C14.1562 7.6827 14.4753 7.36328 14.4753 6.9781V4.57401C14.4753 4.25366 14.7461 4 15.0653 4H18.2181C20.307 4 21.9995 5.64406 21.9995 7.6733V10.0407C21.9995 10.2286 21.9221 10.4081 21.7867 10.5387C21.6513 10.6702 21.4676 10.7453 21.2742 10.7453C20.5585 10.7453 19.9782 11.31 19.9782 11.9948Z" fill="white"/>
</g>
</svg>
