<svg width="16" height="13" viewBox="0 0 16 13" fill="none" xmlns="http://www.w3.org/2000/svg">
<g id="3 User">
<path id="Stroke 1" fill-rule="evenodd" clip-rule="evenodd" d="M7.98838 11.5788C5.82904 11.5788 3.98438 11.2521 3.98438 9.9441C3.98438 8.6361 5.81704 7.49744 7.98838 7.49744C10.1477 7.49744 11.9924 8.62544 11.9924 9.93277C11.9924 11.2401 10.1597 11.5788 7.98838 11.5788Z" stroke="black" stroke-linecap="round" stroke-linejoin="round"/>
<path id="Stroke 3" fill-rule="evenodd" clip-rule="evenodd" d="M7.98855 5.63242C9.40589 5.63242 10.5552 4.48376 10.5552 3.06642C10.5552 1.64909 9.40589 0.499756 7.98855 0.499756C6.57122 0.499756 5.42189 1.64909 5.42189 3.06642C5.41789 4.47842 6.55789 5.62776 7.97055 5.63242H7.98855Z" stroke="black" stroke-linecap="round" stroke-linejoin="round"/>
<path id="Stroke 5" d="M12.2435 4.92765C13.0681 4.70698 13.6761 3.95498 13.6761 3.05965C13.6761 2.12565 13.0141 1.34565 12.1328 1.16565" stroke="black" stroke-linecap="round" stroke-linejoin="round"/>
<path id="Stroke 7" d="M12.6328 7.02954C13.8021 7.02954 14.8008 7.82221 14.8008 8.53021C14.8008 8.94687 14.4561 9.40087 13.9335 9.52354" stroke="black" stroke-linecap="round" stroke-linejoin="round"/>
<path id="Stroke 9" d="M3.73021 4.92765C2.90488 4.70698 2.29688 3.95498 2.29688 3.05965C2.29688 2.12565 2.95954 1.34565 3.84021 1.16565" stroke="black" stroke-linecap="round" stroke-linejoin="round"/>
<path id="Stroke 11" d="M3.33988 7.02954C2.17054 7.02954 1.17188 7.82221 1.17188 8.53021C1.17188 8.94687 1.51654 9.40087 2.03988 9.52354" stroke="black" stroke-linecap="round" stroke-linejoin="round"/>
</g>
</svg>
