<svg width="16" height="12" viewBox="0 0 16 12" fill="none" xmlns="http://www.w3.org/2000/svg">
<g id="3 User">
<path id="3 Friends" fill-rule="evenodd" clip-rule="evenodd" d="M10.7738 3.48596C10.7738 5.05242 9.52505 6.30847 7.96765 6.30847C6.41025 6.30847 5.16146 5.05242 5.16146 3.48596C5.16146 1.91891 6.41025 0.664062 7.96765 0.664062C9.52505 0.664062 10.7738 1.91891 10.7738 3.48596ZM7.96719 11.3304C5.67973 11.3304 3.72656 10.9677 3.72656 9.51714C3.72656 8.06596 5.6672 7.6901 7.96719 7.6901C10.2546 7.6901 12.2078 8.05275 12.2078 9.50393C12.2078 10.9545 10.2672 11.3304 7.96719 11.3304ZM11.9731 3.53764C11.9731 4.33617 11.735 5.08007 11.3171 5.69849C11.2741 5.76213 11.3123 5.84799 11.3881 5.8612C11.4926 5.87921 11.6007 5.88942 11.7105 5.89242C12.8059 5.92124 13.789 5.21216 14.0606 4.14464C14.463 2.55898 13.2816 1.13542 11.7773 1.13542C11.6138 1.13542 11.4574 1.15283 11.3052 1.18405C11.2843 1.18885 11.2622 1.19846 11.2503 1.21707C11.2359 1.23989 11.2467 1.27051 11.261 1.29032C11.7129 1.92735 11.9731 2.70427 11.9731 3.53764ZM13.7869 7.00572C14.5229 7.15041 15.007 7.44581 15.2076 7.8751C15.3771 8.22754 15.3771 8.63642 15.2076 8.98825C14.9007 9.6541 13.9116 9.86784 13.5272 9.92308C13.4478 9.93509 13.3839 9.86604 13.3923 9.78619C13.5887 7.94115 12.0265 7.06636 11.6224 6.86522C11.6051 6.85622 11.6015 6.84241 11.6033 6.834C11.6045 6.828 11.6116 6.81839 11.6248 6.81659C12.4993 6.80038 13.4395 6.92046 13.7869 7.00572ZM4.29309 5.89242C4.40292 5.88942 4.51037 5.87981 4.61543 5.8612C4.69124 5.84799 4.72945 5.76213 4.68647 5.69849C4.26861 5.08007 4.03044 4.33617 4.03044 3.53764C4.03044 2.70427 4.2907 1.92735 4.74258 1.29032C4.75691 1.27051 4.76705 1.23989 4.75332 1.21707C4.74139 1.19906 4.7187 1.18885 4.69841 1.18405C4.54559 1.15283 4.38919 1.13542 4.22563 1.13542C2.72136 1.13542 1.54002 2.55898 1.94295 4.14464C2.21456 5.21216 3.19771 5.92124 4.29309 5.89242ZM4.39926 6.8334C4.40105 6.84241 4.39747 6.85562 4.38076 6.86522C3.97603 7.06636 2.41385 7.94115 2.61025 9.78559C2.6186 9.86604 2.55533 9.93449 2.47594 9.92308C2.09151 9.86784 1.10239 9.6541 0.795564 8.98825C0.625437 8.63581 0.625437 8.22754 0.795564 7.8751C0.996134 7.44581 1.47965 7.15041 2.21567 7.00512C2.56369 6.92046 3.50326 6.80038 4.37837 6.81659C4.3915 6.81839 4.39807 6.828 4.39926 6.8334Z" fill="black"/>
</g>
</svg>
