<svg width="16" height="16" viewBox="0 0 16 16" fill="none" xmlns="http://www.w3.org/2000/svg">
<rect width="16" height="16" fill="#1E1E1E"/>
<g id="Pay Dividend 2" clip-path="url(#clip0_600_857)" filter="url(#filter0_dd_600_857)">
<rect width="400" height="893" transform="translate(-44 -115)" fill="white"/>
<g id="Form field">
<rect x="-19.5" y="-16.5" width="349" height="49" rx="7.5" stroke="#E4E4E4"/>
<g id="Everyone">
<rect x="-12" y="-8" width="101" height="32" rx="16" fill="#F8F8F8"/>
<g id="Frame 1000007950">
<g id="Iconly/Bold/3 User">
<g id="3 User">
<path id="3 Friends" fill-rule="evenodd" clip-rule="evenodd" d="M10.7738 5.48596C10.7738 7.05242 9.52505 8.30847 7.96765 8.30847C6.41025 8.30847 5.16146 7.05242 5.16146 5.48596C5.16146 3.91891 6.41025 2.66406 7.96765 2.66406C9.52505 2.66406 10.7738 3.91891 10.7738 5.48596ZM7.96719 13.3304C5.67973 13.3304 3.72656 12.9677 3.72656 11.5171C3.72656 10.066 5.6672 9.6901 7.96719 9.6901C10.2546 9.6901 12.2078 10.0527 12.2078 11.5039C12.2078 12.9545 10.2672 13.3304 7.96719 13.3304ZM11.9731 5.53764C11.9731 6.33617 11.735 7.08007 11.3171 7.69849C11.2741 7.76213 11.3123 7.84799 11.3881 7.8612C11.4926 7.87921 11.6007 7.88942 11.7105 7.89242C12.8059 7.92124 13.789 7.21216 14.0606 6.14464C14.463 4.55898 13.2816 3.13542 11.7773 3.13542C11.6138 3.13542 11.4574 3.15283 11.3052 3.18405C11.2843 3.18885 11.2622 3.19846 11.2503 3.21707C11.2359 3.23989 11.2467 3.27051 11.261 3.29032C11.7129 3.92735 11.9731 4.70427 11.9731 5.53764ZM13.7869 9.00572C14.5229 9.15041 15.007 9.44581 15.2076 9.8751C15.3771 10.2275 15.3771 10.6364 15.2076 10.9883C14.9007 11.6541 13.9116 11.8678 13.5272 11.9231C13.4478 11.9351 13.3839 11.866 13.3923 11.7862C13.5887 9.94115 12.0265 9.06636 11.6224 8.86522C11.6051 8.85622 11.6015 8.84241 11.6033 8.834C11.6045 8.828 11.6116 8.81839 11.6248 8.81659C12.4993 8.80038 13.4395 8.92046 13.7869 9.00572ZM4.29309 7.89242C4.40292 7.88942 4.51037 7.87981 4.61543 7.8612C4.69124 7.84799 4.72945 7.76213 4.68647 7.69849C4.26861 7.08007 4.03044 6.33617 4.03044 5.53764C4.03044 4.70427 4.2907 3.92735 4.74258 3.29032C4.75691 3.27051 4.76705 3.23989 4.75332 3.21707C4.74139 3.19906 4.7187 3.18885 4.69841 3.18405C4.54559 3.15283 4.38919 3.13542 4.22563 3.13542C2.72136 3.13542 1.54002 4.55898 1.94295 6.14464C2.21456 7.21216 3.19771 7.92124 4.29309 7.89242ZM4.39926 8.8334C4.40105 8.84241 4.39747 8.85562 4.38076 8.86522C3.97603 9.06636 2.41385 9.94115 2.61025 11.7856C2.6186 11.866 2.55533 11.9345 2.47594 11.9231C2.09151 11.8678 1.10239 11.6541 0.795564 10.9883C0.625437 10.6358 0.625437 10.2275 0.795564 9.8751C0.996134 9.44581 1.47965 9.15041 2.21567 9.00512C2.56369 8.92046 3.50326 8.80038 4.37837 8.81659C4.3915 8.81839 4.39807 8.828 4.39926 8.8334Z" fill="black"/>
</g>
</g>
</g>
</g>
</g>
</g>
<defs>
<filter id="filter0_dd_600_857" x="-53.6192" y="-124.619" width="419.238" height="912.238" filterUnits="userSpaceOnUse" color-interpolation-filters="sRGB">
<feFlood flood-opacity="0" result="BackgroundImageFix"/>
<feColorMatrix in="SourceAlpha" type="matrix" values="0 0 0 0 0 0 0 0 0 0 0 0 0 0 0 0 0 0 127 0" result="hardAlpha"/>
<feOffset dx="3.20641" dy="3.20641"/>
<feGaussianBlur stdDeviation="3.20641"/>
<feComposite in2="hardAlpha" operator="out"/>
<feColorMatrix type="matrix" values="0 0 0 0 0.480486 0 0 0 0 0.616667 0 0 0 0 0.616667 0 0 0 0.15 0"/>
<feBlend mode="normal" in2="BackgroundImageFix" result="effect1_dropShadow_600_857"/>
<feColorMatrix in="SourceAlpha" type="matrix" values="0 0 0 0 0 0 0 0 0 0 0 0 0 0 0 0 0 0 127 0" result="hardAlpha"/>
<feOffset dx="-3.20641" dy="-3.20641"/>
<feGaussianBlur stdDeviation="3.20641"/>
<feComposite in2="hardAlpha" operator="out"/>
<feColorMatrix type="matrix" values="0 0 0 0 0.482353 0 0 0 0 0.615686 0 0 0 0 0.615686 0 0 0 0.15 0"/>
<feBlend mode="normal" in2="effect1_dropShadow_600_857" result="effect2_dropShadow_600_857"/>
<feBlend mode="normal" in="SourceGraphic" in2="effect2_dropShadow_600_857" result="shape"/>
</filter>
<clipPath id="clip0_600_857">
<rect width="400" height="893" fill="white" transform="translate(-44 -115)"/>
</clipPath>
</defs>
</svg>
