<svg width="28" height="28" viewBox="0 0 28 28" fill="none" xmlns="http://www.w3.org/2000/svg">
<g clip-path="url(#clip0_32777_93674)">
<path d="M12.2497 9.33301C11.79 9.33301 11.3349 9.42354 10.9103 9.59943C10.4856 9.77532 10.0998 10.0331 9.7748 10.3581C9.44979 10.6831 9.19199 11.069 9.0161 11.4936C8.8402 11.9183 8.74967 12.3734 8.74967 12.833C8.74967 13.2926 8.8402 13.7478 9.0161 14.1724C9.19199 14.597 9.44979 14.9829 9.7748 15.3079C10.0998 15.6329 10.4856 15.8907 10.9103 16.0666C11.3349 16.2425 11.79 16.333 12.2497 16.333C13.1779 16.333 14.0682 15.9643 14.7245 15.3079C15.3809 14.6515 15.7497 13.7613 15.7497 12.833C15.7497 11.9047 15.3809 11.0145 14.7245 10.3581C14.0682 9.70176 13.1779 9.33301 12.2497 9.33301ZM10.4997 12.833C10.4997 12.3689 10.684 11.9238 11.0122 11.5956C11.3404 11.2674 11.7855 11.083 12.2497 11.083C12.7138 11.083 13.1589 11.2674 13.4871 11.5956C13.8153 11.9238 13.9997 12.3689 13.9997 12.833C13.9997 13.2971 13.8153 13.7423 13.4871 14.0704C13.1589 14.3986 12.7138 14.583 12.2497 14.583C11.7855 14.583 11.3404 14.3986 11.0122 14.0704C10.684 13.7423 10.4997 13.2971 10.4997 12.833ZM2.33301 8.45801C2.33301 7.76181 2.60957 7.09414 3.10185 6.60185C3.59414 6.10957 4.26181 5.83301 4.95801 5.83301H19.5413C19.8861 5.83301 20.2274 5.90091 20.5459 6.03282C20.8644 6.16474 21.1537 6.3581 21.3975 6.60185C21.6412 6.84561 21.8346 7.13498 21.9665 7.45346C22.0984 7.77194 22.1663 8.11329 22.1663 8.45801V13.036C21.5929 12.9006 21.0056 12.8325 20.4163 12.833V11.083H19.5413C18.8451 11.083 18.1775 10.8064 17.6852 10.3142C17.1929 9.82188 16.9163 9.1542 16.9163 8.45801V7.58301H7.58301V8.45801C7.58301 8.80273 7.51511 9.14407 7.38319 9.46255C7.25127 9.78103 7.05792 10.0704 6.81416 10.3142C6.57041 10.5579 6.28103 10.7513 5.96255 10.8832C5.64407 11.0151 5.30273 11.083 4.95801 11.083H4.08301V14.583H4.95801C5.6542 14.583 6.32188 14.8596 6.81416 15.3519C7.30645 15.8441 7.58301 16.5118 7.58301 17.208V18.083H13.1982C13.0185 18.6407 12.9007 19.2263 12.8552 19.833H4.95801C4.26181 19.833 3.59414 19.5564 3.10185 19.0642C2.60957 18.5719 2.33301 17.9042 2.33301 17.208V8.45801ZM4.95801 7.58301C4.72594 7.58301 4.50338 7.67519 4.33929 7.83929C4.17519 8.00338 4.08301 8.22594 4.08301 8.45801V9.33301H4.95801C5.19007 9.33301 5.41263 9.24082 5.57673 9.07673C5.74082 8.91263 5.83301 8.69007 5.83301 8.45801V7.58301H4.95801ZM20.4163 9.33301V8.45801C20.4163 8.22594 20.3242 8.00338 20.1601 7.83929C19.996 7.67519 19.7734 7.58301 19.5413 7.58301H18.6663V8.45801C18.6663 8.94101 19.0583 9.33301 19.5413 9.33301H20.4163ZM4.08301 17.208C4.08301 17.691 4.47501 18.083 4.95801 18.083H5.83301V17.208C5.83301 16.9759 5.74082 16.7534 5.57673 16.5893C5.41263 16.4252 5.19007 16.333 4.95801 16.333H4.08301V17.208ZM5.13417 21.583H12.9228C13.0162 22.1932 13.183 22.78 13.414 23.333H8.16634C7.55178 23.3332 6.948 23.1716 6.41573 22.8644C5.88346 22.5572 5.44145 22.1152 5.13417 21.583ZM23.9163 13.687C24.5566 14.0208 25.1459 14.4443 25.6663 14.9447V11.6663C25.6665 11.0518 25.5049 10.448 25.1977 9.91573C24.8905 9.38346 24.4486 8.94145 23.9163 8.63417V13.687Z" fill="#606060"/>
<path d="M22.2949 16.6816V27.1816H24.0449V16.6816H22.2949Z" fill="#606060"/>
<path d="M17.0449 16.6816V27.1816H18.7949V16.6816H17.0449Z" fill="#606060"/>
</g>
<defs>
<clipPath id="clip0_32777_93674">
<rect width="28" height="28" fill="white"/>
</clipPath>
</defs>
</svg>
