<svg width="28" height="29" viewBox="0 0 28 29" fill="none" xmlns="http://www.w3.org/2000/svg">
<g clip-path="url(#clip0_32777_93666)">
<path d="M26.3867 9.11328C26.3867 9.53255 26.3411 9.92448 26.25 10.2891L27.9316 10.9863L27.2754 12.5996L25.5801 11.9023C25.1517 12.5768 24.6003 13.1283 23.9258 13.5566L24.623 15.252L23.0098 15.9219L22.3125 14.2266C21.9479 14.3177 21.556 14.3633 21.1367 14.3633C20.7174 14.3633 20.3255 14.3177 19.9609 14.2266L19.2637 15.9219L17.6504 15.252L18.3477 13.5566C17.6732 13.1283 17.1217 12.5768 16.6934 11.9023L14.998 12.5996L14.3281 10.9863L16.0234 10.2891C15.9323 9.92448 15.8867 9.53255 15.8867 9.11328C15.8867 8.69401 15.9323 8.30208 16.0234 7.9375L14.3281 7.24023L14.998 5.62695L16.6934 6.32422C17.1217 5.64974 17.6732 5.09831 18.3477 4.66992L17.6504 2.98828L19.2637 2.31836L19.9609 4C20.3255 3.90885 20.7174 3.86328 21.1367 3.86328C21.556 3.86328 21.9479 3.90885 22.3125 4L23.0098 2.31836L24.623 2.98828L23.9258 4.66992C24.6003 5.09831 25.1517 5.64974 25.5801 6.32422L27.2754 5.62695L27.9316 7.24023L26.25 7.9375C26.3411 8.30208 26.3867 8.69401 26.3867 9.11328ZM21.1367 12.6133C21.6198 12.6133 22.071 12.5221 22.4902 12.3398C22.9095 12.1576 23.2832 11.9069 23.6113 11.5879C23.9395 11.2689 24.1901 10.8997 24.3633 10.4805C24.5365 10.0612 24.6276 9.60547 24.6367 9.11328C24.6367 8.63021 24.5456 8.17904 24.3633 7.75977C24.181 7.34049 23.9303 6.9668 23.6113 6.63867C23.2923 6.31055 22.9232 6.0599 22.5039 5.88672C22.0846 5.71354 21.6289 5.6224 21.1367 5.61328C20.6536 5.61328 20.2025 5.70443 19.7832 5.88672C19.3639 6.06901 18.9902 6.31966 18.6621 6.63867C18.334 6.95768 18.0833 7.32682 17.9102 7.74609C17.737 8.16536 17.6458 8.62109 17.6367 9.11328C17.6367 9.59635 17.7279 10.0475 17.9102 10.4668C18.0924 10.8861 18.3431 11.2598 18.6621 11.5879C18.9811 11.916 19.3503 12.1667 19.7695 12.3398C20.1888 12.513 20.6445 12.6042 21.1367 12.6133ZM15.1484 14.8281L15.8184 16.4551L13.9453 17.2207C14.0729 17.7311 14.1367 18.237 14.1367 18.7383C14.1367 19.2396 14.0729 19.7454 13.9453 20.2559L15.8184 21.0352L15.1484 22.6484L13.2754 21.8691C13.002 22.334 12.6921 22.735 12.3457 23.0723C11.9993 23.4095 11.5983 23.724 11.1426 24.0156L11.9219 25.8887L10.2949 26.5449L9.5293 24.6719C9.01888 24.7995 8.51302 24.8633 8.01172 24.8633C7.51042 24.8633 7.00456 24.7995 6.49414 24.6719L5.71484 26.5449L4.10156 25.8887L4.88086 24.0156C4.41602 23.724 4.01497 23.4095 3.67773 23.0723C3.34049 22.735 3.02604 22.334 2.73438 21.8691L0.861328 22.6484L0.205078 21.0352L2.07812 20.2559C1.95052 19.7454 1.88672 19.2396 1.88672 18.7383C1.88672 18.237 1.95052 17.7311 2.07812 17.2207L0.205078 16.4551L0.861328 14.8281L2.73438 15.6074C3.02604 15.1517 3.34049 14.7507 3.67773 14.4043C4.01497 14.0579 4.41602 13.748 4.88086 13.4746L4.10156 11.6016L5.71484 10.9316L6.49414 12.8047C7.00456 12.6771 7.51042 12.6133 8.01172 12.6133C8.51302 12.6133 9.01888 12.6771 9.5293 12.8047L10.2949 10.9316L11.9219 11.6016L11.1426 13.4746C12.0267 14.0124 12.7376 14.7233 13.2754 15.6074L15.1484 14.8281ZM8.01172 23.1133C8.61328 23.1133 9.17839 22.9993 9.70703 22.7715C10.2357 22.5436 10.696 22.2337 11.0879 21.8418C11.4798 21.4499 11.7943 20.985 12.0312 20.4473C12.2682 19.9095 12.3867 19.3398 12.3867 18.7383C12.3867 18.1367 12.2728 17.5716 12.0449 17.043C11.8171 16.5143 11.5026 16.054 11.1016 15.6621C10.7005 15.2702 10.2357 14.9557 9.70703 14.7188C9.17839 14.4818 8.61328 14.3633 8.01172 14.3633C7.41016 14.3633 6.84505 14.4772 6.31641 14.7051C5.78776 14.9329 5.32292 15.2474 4.92188 15.6484C4.52083 16.0495 4.20638 16.5143 3.97852 17.043C3.75065 17.5716 3.63672 18.1367 3.63672 18.7383C3.63672 19.3398 3.75065 19.9049 3.97852 20.4336C4.20638 20.9622 4.51628 21.4271 4.9082 21.8281C5.30013 22.2292 5.76497 22.5436 6.30273 22.7715C6.84049 22.9993 7.41016 23.1133 8.01172 23.1133ZM24.5 28.5V18H26.25V28.5H24.5ZM19.25 28.5V18H21V28.5H19.25Z" fill="#606060"/>
</g>
<defs>
<clipPath id="clip0_32777_93666">
<rect width="28" height="28" fill="white" transform="translate(0 0.5)"/>
</clipPath>
</defs>
</svg>
