<svg width="56" height="57" viewBox="0 0 56 57" fill="none" xmlns="http://www.w3.org/2000/svg">
<path d="M6.4182 44.1122C5.46153 44.1122 4.6682 43.3189 4.6682 42.3622V29.0622C4.55153 22.7389 6.9082 16.7656 11.2949 12.2856C15.6815 7.82891 21.5615 5.37891 27.8849 5.37891C40.8115 5.37891 51.3349 15.9022 51.3349 28.8289V42.1289C51.3349 43.0856 50.5415 43.8789 49.5849 43.8789C48.6282 43.8789 47.8349 43.0856 47.8349 42.1289V28.8289C47.8349 17.8389 38.8982 8.87891 27.8849 8.87891C22.4949 8.87891 17.5015 10.9556 13.7915 14.7356C10.0582 18.5389 8.07486 23.6022 8.1682 29.0156V42.3389C8.1682 43.3189 7.3982 44.1122 6.4182 44.1122Z" fill="#7255CB"/>
<path d="M13.8574 29.6455H13.5541C8.65406 29.6455 4.66406 33.6355 4.66406 38.5355V42.9222C4.66406 47.8222 8.65406 51.8122 13.5541 51.8122H13.8574C18.7574 51.8122 22.7474 47.8222 22.7474 42.9222V38.5355C22.7474 33.6355 18.7574 29.6455 13.8574 29.6455Z" fill="#7255CB"/>
<path d="M42.4433 29.6455H42.14C37.24 29.6455 33.25 33.6355 33.25 38.5355V42.9222C33.25 47.8222 37.24 51.8122 42.14 51.8122H42.4433C47.3433 51.8122 51.3333 47.8222 51.3333 42.9222V38.5355C51.3333 33.6355 47.3433 29.6455 42.4433 29.6455Z" fill="#7255CB"/>
</svg>
