<svg width="37" height="37" viewBox="0 0 37 37" fill="none" xmlns="http://www.w3.org/2000/svg">
<rect x="0.33815" y="0.33815" width="35.5549" height="35.5549" rx="7.77746" stroke="#3D3D3D" stroke-width="0.676301"/>
<g clip-path="url(#clip0_29052_64552)">
<path d="M18.1156 10C16.1175 10.0014 14.1904 10.7416 12.7052 12.0783V10.6763C12.7052 10.4969 12.6339 10.3249 12.5071 10.1981C12.3803 10.0713 12.2083 10 12.0289 10C11.8495 10 11.6775 10.0713 11.5507 10.1981C11.4239 10.3249 11.3526 10.4969 11.3526 10.6763V12.7052C11.3526 13.2433 11.5664 13.7594 11.9469 14.1399C12.3273 14.5203 12.8434 14.7341 13.3815 14.7341H15.4104C15.5898 14.7341 15.7618 14.6629 15.8886 14.536C16.0155 14.4092 16.0867 14.2372 16.0867 14.0578C16.0867 13.8784 16.0155 13.7064 15.8886 13.5796C15.7618 13.4528 15.5898 13.3815 15.4104 13.3815H13.3815C13.3587 13.3781 13.3361 13.3734 13.3139 13.3673C14.4159 12.2574 15.869 11.5643 17.4251 11.4065C18.9813 11.2486 20.5439 11.6357 21.8464 12.5017C23.1489 13.3678 24.1105 14.659 24.567 16.155C25.0235 17.651 24.9466 19.2591 24.3495 20.7047C23.7523 22.1504 22.672 23.344 21.2928 24.0818C19.9137 24.8196 18.3212 25.0558 16.7872 24.7503C15.2533 24.4447 13.8729 23.6162 12.8818 22.4062C11.8906 21.1962 11.3501 19.6797 11.3526 18.1156C11.3526 17.9362 11.2813 17.7642 11.1545 17.6374C11.0277 17.5106 10.8557 17.4393 10.6763 17.4393C10.4969 17.4393 10.3249 17.5106 10.1981 17.6374C10.0713 17.7642 10 17.9362 10 18.1156C10 19.7207 10.476 21.2898 11.3677 22.6244C12.2595 23.959 13.527 24.9992 15.0099 25.6135C16.4928 26.2277 18.1246 26.3884 19.6989 26.0753C21.2732 25.7621 22.7192 24.9892 23.8542 23.8542C24.9892 22.7192 25.7621 21.2732 26.0753 19.6989C26.3884 18.1246 26.2277 16.4928 25.6135 15.0099C24.9992 13.527 23.959 12.2595 22.6244 11.3677C21.2898 10.476 19.7207 10 18.1156 10V10Z" fill="#3D3D3D"/>
<path d="M18.1158 14.0586C17.9364 14.0586 17.7644 14.1298 17.6375 14.2567C17.5107 14.3835 17.4395 14.5555 17.4395 14.7349V18.1164C17.4395 18.2957 17.5108 18.4677 17.6376 18.5945L19.6665 20.6234C19.7941 20.7466 19.9649 20.8148 20.1422 20.8133C20.3195 20.8117 20.4892 20.7406 20.6146 20.6152C20.74 20.4898 20.8111 20.3202 20.8126 20.1429C20.8142 19.9655 20.746 19.7947 20.6228 19.6672L18.7921 17.8364V14.7349C18.7921 14.5555 18.7208 14.3835 18.594 14.2567C18.4671 14.1298 18.2951 14.0586 18.1158 14.0586Z" fill="#3D3D3D"/>
</g>
<defs>
<clipPath id="clip0_29052_64552">
<rect width="16.2312" height="16.2312" fill="white" transform="translate(10 10)"/>
</clipPath>
</defs>
</svg>
