<svg width="37" height="38" viewBox="0 0 37 38" fill="none" xmlns="http://www.w3.org/2000/svg">
<g clip-path="url(#clip0_11747_67204)">
<path d="M18.8842 10.8848C16.886 10.8862 14.959 11.6264 13.4738 12.963V11.5611C13.4738 11.3817 13.4025 11.2097 13.2757 11.0828C13.1488 10.956 12.9768 10.8848 12.7975 10.8848C12.6181 10.8848 12.4461 10.956 12.3192 11.0828C12.1924 11.2097 12.1212 11.3817 12.1212 11.5611V13.59C12.1212 14.1281 12.3349 14.6441 12.7154 15.0246C13.0959 15.4051 13.612 15.6189 14.1501 15.6189H16.179C16.3583 15.6189 16.5303 15.5476 16.6572 15.4208C16.784 15.294 16.8553 15.1219 16.8553 14.9426C16.8553 14.7632 16.784 14.5912 16.6572 14.4644C16.5303 14.3375 16.3583 14.2663 16.179 14.2663H14.1501C14.1273 14.2629 14.1047 14.2581 14.0824 14.2521C15.1845 13.1421 16.6376 12.4491 18.1937 12.2912C19.7498 12.1334 21.3125 12.5205 22.615 13.3865C23.9175 14.2525 24.879 15.5437 25.3355 17.0397C25.792 18.5358 25.7151 20.1438 25.118 21.5895C24.5209 23.0351 23.4406 24.2287 22.0614 24.9665C20.6822 25.7043 19.0898 25.9406 17.5558 25.635C16.0218 25.3294 14.6414 24.5009 13.6503 23.291C12.6592 22.081 12.1187 20.5645 12.1212 19.0004C12.1212 18.821 12.0499 18.649 11.9231 18.5222C11.7962 18.3953 11.6242 18.3241 11.4449 18.3241C11.2655 18.3241 11.0935 18.3953 10.9666 18.5222C10.8398 18.649 10.7686 18.821 10.7686 19.0004C10.7686 20.6055 11.2445 22.1746 12.1363 23.5092C13.028 24.8438 14.2955 25.884 15.7785 26.4982C17.2614 27.1125 18.8932 27.2732 20.4674 26.96C22.0417 26.6469 23.4878 25.874 24.6228 24.739C25.7578 23.604 26.5307 22.1579 26.8438 20.5836C27.157 19.0094 26.9963 17.3776 26.382 15.8947C25.7678 14.4117 24.7276 13.1442 23.393 12.2525C22.0583 11.3607 20.4893 10.8848 18.8842 10.8848V10.8848Z" fill="#3D3D3D"/>
<path d="M18.8843 14.9424C18.7049 14.9424 18.5329 15.0136 18.4061 15.1405C18.2793 15.2673 18.208 15.4393 18.208 15.6187V19.0002C18.208 19.1795 18.2793 19.3515 18.4062 19.4783L20.4351 21.5072C20.5626 21.6304 20.7335 21.6986 20.9108 21.6971C21.0881 21.6955 21.2577 21.6244 21.3831 21.499C21.5085 21.3736 21.5796 21.204 21.5812 21.0267C21.5827 20.8493 21.5145 20.6785 21.3914 20.5509L19.5606 18.7202V15.6187C19.5606 15.4393 19.4894 15.2673 19.3625 15.1405C19.2357 15.0136 19.0637 14.9424 18.8843 14.9424Z" fill="#3D3D3D"/>
</g>
<rect x="1.1067" y="1.22292" width="35.5549" height="35.5549" rx="7.77746" stroke="#3D3D3D" stroke-width="0.676301"/>
<defs>
<clipPath id="clip0_11747_67204">
<rect width="16.2312" height="16.2312" fill="white" transform="translate(10.7686 10.8848)"/>
</clipPath>
</defs>
</svg>
