<svg width="39" height="39" viewBox="0 0 39 39" fill="none" xmlns="http://www.w3.org/2000/svg">
<g id="Folder 1">
<path id="Vector" opacity="0.4" d="M27.4095 8.42344H22.6912C21.5158 8.4312 20.3998 7.90833 19.6549 7.00085L18.1011 4.85273C17.3687 3.93729 16.2528 3.41196 15.0791 3.43014H11.7434C5.75638 3.43014 3.54688 6.94394 3.54688 12.9188V19.3774C3.53942 20.0877 35.6039 20.0867 35.606 19.3774V17.4996C35.6346 11.5247 33.4821 8.42344 27.4095 8.42344Z" fill="#919191"/>
<path id="Vector_2" fill-rule="evenodd" clip-rule="evenodd" d="M33.7386 10.7147C34.2516 11.3144 34.6479 12.0043 34.9075 12.749C35.4183 14.2796 35.6548 15.888 35.606 17.5005V25.9221C35.6039 26.6316 35.5517 27.3399 35.4492 28.0419C35.2543 29.2807 34.8185 30.4695 34.1663 31.5414C33.8665 32.0592 33.5026 32.5371 33.0829 32.9639C31.1834 34.7074 28.6611 35.6148 26.0838 35.4819H13.0549C10.4735 35.6139 7.94707 34.7068 6.04148 32.9639C5.62689 32.5363 5.26771 32.0584 4.97237 31.5414C4.32403 30.4703 3.89748 29.2802 3.71794 28.0419C3.60377 27.341 3.54657 26.6322 3.54688 25.9221V17.5005C3.5466 16.7972 3.58466 16.0943 3.66093 15.395C3.67696 15.2724 3.70101 15.1517 3.7248 15.0322C3.76448 14.8331 3.80347 14.6375 3.80347 14.4419C3.94817 13.5981 4.21214 12.779 4.58749 12.0093C5.69937 9.63354 7.98014 8.42435 11.7149 8.42435H27.3952C29.4871 8.26256 31.5634 8.8923 33.2113 10.1884C33.401 10.3493 33.5775 10.5253 33.7386 10.7147ZM11.5154 25.1398H27.6519H27.6804C28.0344 25.1552 28.3799 25.0284 28.6398 24.7879C28.8995 24.5472 29.052 24.213 29.063 23.8595C29.0831 23.5488 28.9808 23.2424 28.778 23.0059C28.5447 22.688 28.175 22.4982 27.7801 22.4937H11.5154C10.7832 22.4937 10.1897 23.0861 10.1897 23.8168C10.1897 24.5474 10.7832 25.1398 11.5154 25.1398Z" fill="#919191"/>
</g>
</svg>
