<svg width="20" height="21" viewBox="0 0 20 21" fill="none" xmlns="http://www.w3.org/2000/svg">
<g id="Arrow - Right 2 1">
<path id="Vector" d="M13.4955 11.3686C13.4502 11.4151 13.2791 11.6139 13.1198 11.7774C12.1859 12.8059 9.74942 14.4892 8.47423 15.003C8.28056 15.0856 7.79092 15.2604 7.52931 15.2716C7.27864 15.2716 7.03968 15.2139 6.81166 15.0968C6.52741 14.9333 6.29938 14.676 6.17444 14.3722C6.094 14.1614 5.96906 13.5305 5.96906 13.5193C5.84411 12.8291 5.77539 11.7077 5.77539 10.4684C5.77539 9.28761 5.84411 8.21186 5.94641 7.51126C5.95812 7.50004 6.08307 6.71607 6.21973 6.44753C6.4704 5.95695 6.96003 5.65234 7.48402 5.65234H7.52931C7.87057 5.66437 8.58822 5.96898 8.58822 5.9802C9.79471 6.49483 12.1749 8.09563 13.1315 9.15936C13.1315 9.15936 13.401 9.4327 13.5181 9.60345C13.7008 9.84874 13.7914 10.1525 13.7914 10.4564C13.7914 10.7954 13.6891 11.1113 13.4955 11.3686Z" fill="#191919"/>
</g>
</svg>
