<svg width="24" height="24" viewBox="0 0 24 24" fill="none" xmlns="http://www.w3.org/2000/svg">
<g id="vuesax/bold/home-wifi">
<g id="home-wifi">
<path id="Vector" d="M20.8603 8.36985L13.9303 2.82985C12.8603 1.96985 11.1303 1.96985 10.0703 2.81985L3.14027 8.36985C2.36027 8.98985 1.86027 10.2998 2.03027 11.2798L3.36027 19.2398C3.60027 20.6598 4.96027 21.8098 6.40027 21.8098H17.6003C19.0303 21.8098 20.4003 20.6498 20.6403 19.2398L21.9703 11.2798C22.1303 10.2998 21.6303 8.98985 20.8603 8.36985ZM12.7103 17.1999C12.5103 17.3998 12.2603 17.4998 12.0003 17.4998C11.7403 17.4998 11.4903 17.3998 11.2903 17.2098C10.9003 16.8198 10.9003 16.1898 11.2903 15.7998C11.6803 15.4098 12.3203 15.4098 12.7103 15.7998C13.1003 16.1798 13.1003 16.8098 12.7103 17.1999ZM14.6603 14.8998C14.5103 15.0498 14.3203 15.1298 14.1203 15.1298C13.9303 15.1298 13.7503 15.0598 13.6003 14.9198C12.6303 13.9898 11.3703 13.9898 10.3903 14.9198C10.0903 15.2098 9.62027 15.1998 9.33027 14.8998C9.04027 14.5998 9.05027 14.1298 9.35027 13.8398C10.9003 12.3498 13.0703 12.3498 14.6303 13.8398C14.9403 14.1198 14.9503 14.5998 14.6603 14.8998ZM16.7803 12.7798C16.6303 12.9298 16.4403 13.0098 16.2403 13.0098C16.0503 13.0098 15.8603 12.9398 15.7203 12.7998C15.2503 12.3398 14.7203 11.9698 14.1603 11.6998C12.7603 11.0298 11.2303 11.0298 9.84027 11.6998C9.28027 11.9698 8.76026 12.3398 8.28026 12.7998C7.99026 13.0898 7.51026 13.0898 7.22026 12.7898C6.93026 12.4898 6.94027 12.0198 7.23027 11.7298C7.82027 11.1498 8.48026 10.6898 9.19026 10.3498C11.0003 9.47985 13.0003 9.47985 14.8003 10.3498C15.5103 10.6898 16.1703 11.1498 16.7603 11.7298C17.0603 12.0098 17.0703 12.4898 16.7803 12.7798Z" fill="#F97316"/>
</g>
</g>
</svg>
