<svg width="80" height="81" viewBox="0 0 80 81" fill="none" xmlns="http://www.w3.org/2000/svg">
<g id="Group">
<path id="Vector" d="M40 50.4741C34.4772 50.4741 30 54.9513 30 60.4741V80.4741H50V60.4741C50 54.9513 45.5228 50.4741 40 50.4741Z" fill="#4545FE"/>
<g id="Group_2">
<path id="Vector_2" d="M56.6667 60.4761V80.4761H70C75.5228 80.4761 80 75.9989 80 70.4761V40.0728C80.0008 38.3411 79.3278 36.677 78.1233 35.4328L49.7967 4.80935C44.7986 -0.598465 36.363 -0.930496 30.9552 4.06763C30.6983 4.30513 30.4508 4.55247 30.2134 4.80935L1.93672 35.4228C0.695782 36.6722 -0.000468513 38.3619 2.36536e-07 40.1228V70.4761C2.36536e-07 75.9989 4.47719 80.4761 10 80.4761H23.3333V60.4761C23.3956 51.3867 30.7342 43.9642 39.5947 43.7504C48.7516 43.5295 56.5969 51.0784 56.6667 60.4761Z" fill="#4545FE"/>
<path id="Vector_3" d="M40 50.4741C34.4772 50.4741 30 54.9513 30 60.4741V80.4741H50V60.4741C50 54.9513 45.5228 50.4741 40 50.4741Z" fill="#4545FE"/>
</g>
</g>
</svg>
