<svg width="24" height="24" viewBox="0 0 24 24" fill="none" xmlns="http://www.w3.org/2000/svg">
<g id="vuesax/bold/image">
<g id="image">
<path id="Vector" d="M22.0201 16.8198L18.8901 9.49978C18.3201 8.15978 17.4701 7.39978 16.5001 7.34978C15.5401 7.29978 14.6101 7.96978 13.9001 9.24978L12.0001 12.6598C11.6001 13.3798 11.0301 13.8098 10.4101 13.8598C9.78014 13.9198 9.15014 13.5898 8.64014 12.9398L8.42014 12.6598C7.71014 11.7698 6.83014 11.3398 5.93014 11.4298C5.03014 11.5198 4.26014 12.1398 3.75014 13.1498L2.02014 16.5998C1.40014 17.8498 1.46014 19.2998 2.19014 20.4798C2.92014 21.6598 4.19014 22.3698 5.58014 22.3698H18.3401C19.6801 22.3698 20.9301 21.6998 21.6701 20.5798C22.4301 19.4598 22.5501 18.0498 22.0201 16.8198Z" fill="#032726"/>
<path id="Vector_2" d="M6.96984 8.38012C8.83657 8.38012 10.3498 6.86684 10.3498 5.00012C10.3498 3.13339 8.83657 1.62012 6.96984 1.62012C5.10312 1.62012 3.58984 3.13339 3.58984 5.00012C3.58984 6.86684 5.10312 8.38012 6.96984 8.38012Z" fill="#032726"/>
</g>
</g>
</svg>
