<svg width="24" height="24" viewBox="0 0 24 24" fill="none" xmlns="http://www.w3.org/2000/svg">
<path d="M20.981 18.9312C21.4897 18.5045 21.8548 17.9316 22.0267 17.2902C22.1986 16.6489 22.169 15.9702 21.942 15.3462C21.715 14.7223 21.3014 14.1833 20.7575 13.8024C20.2136 13.4215 19.5657 13.2172 18.9018 13.2172C18.2378 13.2172 17.5899 13.4215 17.046 13.8024C16.5021 14.1833 16.0886 14.7223 15.8615 15.3462C15.6345 15.9702 15.6049 16.6489 15.7768 17.2902C15.9488 17.9316 16.3139 18.5045 16.8226 18.9312C16.3359 19.197 15.908 19.5585 15.5648 19.9941C15.2215 20.4296 14.97 20.9301 14.8253 21.4655C14.8035 21.5476 14.7981 21.6332 14.8094 21.7175C14.8206 21.8017 14.8484 21.8829 14.8911 21.9564C14.9337 22.0299 14.9905 22.0943 15.058 22.1459C15.1255 22.1975 15.2026 22.2352 15.2847 22.257C15.339 22.271 15.3948 22.2783 15.4508 22.2786C15.5935 22.2786 15.7322 22.2315 15.8454 22.1445C15.9585 22.0575 16.0397 21.9356 16.0763 21.7976C16.4063 20.5488 17.5678 19.6861 18.9018 19.6861C20.2358 19.6861 21.3972 20.5488 21.7272 21.7933C21.7491 21.8755 21.7869 21.9525 21.8386 22.02C21.8902 22.0875 21.9547 22.1442 22.0282 22.1868C22.1018 22.2294 22.183 22.2571 22.2673 22.2683C22.3515 22.2796 22.4372 22.2741 22.5193 22.2522C22.6015 22.2303 22.6785 22.1925 22.746 22.1408C22.8135 22.0892 22.8702 22.0247 22.9128 21.9512C22.9554 21.8776 22.9831 21.7964 22.9943 21.7121C23.0056 21.6279 23.0001 21.5422 22.9782 21.4601C22.8329 20.9257 22.5811 20.4262 22.2378 19.9917C21.8946 19.5571 21.4671 19.1964 20.981 18.9312ZM18.9018 14.5097C19.2857 14.5097 19.661 14.6235 19.9802 14.8368C20.2994 15.0501 20.5482 15.3533 20.6952 15.708C20.8421 16.0627 20.8805 16.453 20.8056 16.8295C20.7307 17.2061 20.5458 17.552 20.2744 17.8234C20.0029 18.0949 19.657 18.2798 19.2805 18.3547C18.9039 18.4296 18.5136 18.3911 18.1589 18.2442C17.8042 18.0973 17.501 17.8485 17.2878 17.5293C17.0745 17.2101 16.9606 16.8347 16.9606 16.4508C16.9606 15.936 17.1651 15.4423 17.5292 15.0782C17.8932 14.7142 18.3869 14.5097 18.9018 14.5097ZM21.49 5.45094H12.2673L9.25961 2.44215C9.11962 2.30167 8.95321 2.19028 8.76998 2.1144C8.58674 2.03851 8.39031 1.99963 8.19198 2H2.50979C2.10937 2 1.72535 2.15907 1.44221 2.44221C1.15907 2.72535 1 3.10937 1 3.50979V19.1048C1.00029 19.4875 1.15236 19.8545 1.42287 20.1252C1.69338 20.3959 2.06023 20.5482 2.44293 20.5488H11.1975C11.3691 20.5488 11.5337 20.4806 11.6551 20.3593C11.7764 20.238 11.8446 20.0734 11.8446 19.9018C11.8446 19.7302 11.7764 19.5656 11.6551 19.4442C11.5337 19.3229 11.3691 19.2547 11.1975 19.2547H2.44293C2.40344 19.2542 2.36575 19.2381 2.33794 19.2101C2.31012 19.1821 2.29438 19.1443 2.2941 19.1048V6.74505H21.49C21.5472 6.74505 21.602 6.76777 21.6425 6.80822C21.6829 6.84867 21.7057 6.90353 21.7057 6.96073V10.4117C21.7057 10.5833 21.7738 10.7479 21.8952 10.8692C22.0165 10.9906 22.1811 11.0587 22.3527 11.0587C22.5243 11.0587 22.6889 10.9906 22.8102 10.8692C22.9316 10.7479 22.9998 10.5833 22.9998 10.4117V6.96073C22.9998 6.56031 22.8407 6.17629 22.5576 5.89315C22.2744 5.61001 21.8904 5.45094 21.49 5.45094ZM2.50979 3.29411H8.19198C8.24909 3.29435 8.30377 3.31723 8.34404 3.35773L10.4372 5.45094H2.2941V3.50979C2.2941 3.45259 2.31683 3.39773 2.35728 3.35728C2.39772 3.31683 2.45258 3.29411 2.50979 3.29411Z" fill="#191919"/>
</svg>
