<svg width="16" height="16" viewBox="0 0 16 16" fill="none" xmlns="http://www.w3.org/2000/svg">
<g id="vuesax/linear/moneys">
<g id="Group">
<path id="Vector" d="M12.8673 5.27999V8.71334C12.8673 10.7667 11.694 11.6466 9.93396 11.6466H4.07395C3.77395 11.6466 3.48729 11.62 3.22062 11.56C3.05396 11.5334 2.89396 11.4867 2.74729 11.4333C1.74729 11.06 1.14062 10.1933 1.14062 8.71334V5.27999C1.14062 3.22666 2.31395 2.34668 4.07395 2.34668H9.93396C11.4273 2.34668 12.5006 2.98001 12.7873 4.42668C12.834 4.69334 12.8673 4.96666 12.8673 5.27999Z" stroke="#191919" stroke-miterlimit="10" stroke-linecap="round" stroke-linejoin="round"/>
<path id="Vector_2" d="M14.8654 7.28007V10.7134C14.8654 12.7668 13.6921 13.6467 11.9321 13.6467H6.07208C5.57875 13.6467 5.13209 13.5801 4.74542 13.4334C3.95209 13.1401 3.41208 12.5334 3.21875 11.5601C3.48542 11.6201 3.77208 11.6467 4.07208 11.6467H9.93209C11.6921 11.6467 12.8654 10.7668 12.8654 8.71342V5.28007C12.8654 4.96674 12.8388 4.68676 12.7854 4.42676C14.0521 4.69342 14.8654 5.58674 14.8654 7.28007Z" stroke="#191919" stroke-miterlimit="10" stroke-linecap="round" stroke-linejoin="round"/>
<path id="Vector_3" d="M7.0022 8.75995C7.97422 8.75995 8.76221 7.97196 8.76221 6.99994C8.76221 6.02792 7.97422 5.23993 7.0022 5.23993C6.03018 5.23993 5.24219 6.02792 5.24219 6.99994C5.24219 7.97196 6.03018 8.75995 7.0022 8.75995Z" stroke="#191919" stroke-miterlimit="10" stroke-linecap="round" stroke-linejoin="round"/>
<path id="Vector_4" d="M3.1875 5.53339V8.46674" stroke="#191919" stroke-miterlimit="10" stroke-linecap="round" stroke-linejoin="round"/>
<path id="Vector_5" d="M10.8125 5.53351V8.46686" stroke="#191919" stroke-miterlimit="10" stroke-linecap="round" stroke-linejoin="round"/>
</g>
</g>
</svg>
