<svg width="14" height="15" viewBox="0 0 14 15" fill="none" xmlns="http://www.w3.org/2000/svg">
<g id="fi-rr-info" clip-path="url(#clip0_24506_72124)">
<path id="Vector" d="M6.66667 0.832031C5.34813 0.832031 4.0592 1.22302 2.96287 1.95557C1.86654 2.68811 1.01206 3.7293 0.507473 4.94747C0.00288857 6.16565 -0.129134 7.50609 0.128101 8.7993C0.385336 10.0925 1.02027 11.2804 1.95262 12.2127C2.88497 13.1451 4.07286 13.78 5.36607 14.0373C6.65927 14.2945 7.99972 14.1625 9.21789 13.6579C10.4361 13.1533 11.4773 12.2988 12.2098 11.2025C12.9423 10.1062 13.3333 8.81724 13.3333 7.4987C13.3314 5.73117 12.6284 4.03659 11.3786 2.78676C10.1288 1.53694 8.43419 0.833943 6.66667 0.832031V0.832031ZM6.66667 13.0543C5.56788 13.0543 4.49377 12.7284 3.58017 12.118C2.66656 11.5075 1.95449 10.6399 1.53401 9.62472C1.11352 8.60957 1.0035 7.49253 1.21786 6.41486C1.43222 5.33719 1.96134 4.34729 2.7383 3.57033C3.51526 2.79337 4.50516 2.26425 5.58283 2.04989C6.66051 1.83553 7.77754 1.94555 8.79269 2.36603C9.80783 2.78652 10.6755 3.49859 11.2859 4.4122C11.8964 5.3258 12.2222 6.39991 12.2222 7.4987C12.2206 8.97163 11.6348 10.3838 10.5933 11.4253C9.55173 12.4668 8.1396 13.0526 6.66667 13.0543Z" fill="#919191"/>
<path id="Vector_2" d="M6.6658 6.38672H6.11024C5.9629 6.38672 5.82159 6.44525 5.71741 6.54944C5.61322 6.65362 5.55469 6.79493 5.55469 6.94227C5.55469 7.08962 5.61322 7.23092 5.71741 7.33511C5.82159 7.4393 5.9629 7.49783 6.11024 7.49783H6.6658V10.8312C6.6658 10.9785 6.72433 11.1198 6.82851 11.224C6.9327 11.3282 7.07401 11.3867 7.22135 11.3867C7.36869 11.3867 7.51 11.3282 7.61419 11.224C7.71837 11.1198 7.77691 10.9785 7.77691 10.8312V7.49783C7.77691 7.20314 7.65984 6.92053 7.45147 6.71216C7.2431 6.50378 6.96048 6.38672 6.6658 6.38672Z" fill="#919191"/>
<path id="Vector_3" d="M6.66732 5.27604C7.12755 5.27604 7.50065 4.90295 7.50065 4.44271C7.50065 3.98247 7.12755 3.60938 6.66732 3.60938C6.20708 3.60938 5.83398 3.98247 5.83398 4.44271C5.83398 4.90295 6.20708 5.27604 6.66732 5.27604Z" fill="#919191"/>
</g>
<defs>
<clipPath id="clip0_24506_72124">
<rect width="13.3333" height="13.3333" fill="white" transform="translate(0 0.832031)"/>
</clipPath>
</defs>
</svg>
