<svg width="24" height="25" viewBox="0 0 24 25" fill="none" xmlns="http://www.w3.org/2000/svg">
<g id="weui:info-outlined">
<path id="Vector" fill-rule="evenodd" clip-rule="evenodd" d="M12 22.5933C6.477 22.5933 2 18.1163 2 12.5933C2 7.07026 6.477 2.59326 12 2.59326C17.523 2.59326 22 7.07026 22 12.5933C22 18.1163 17.523 22.5933 12 22.5933ZM12 21.3933C14.3339 21.3933 16.5722 20.4661 18.2225 18.8158C19.8729 17.1655 20.8 14.9272 20.8 12.5933C20.8 10.2594 19.8729 8.02104 18.2225 6.37072C16.5722 4.7204 14.3339 3.79326 12 3.79326C9.66609 3.79326 7.42778 4.7204 5.77746 6.37072C4.12714 8.02104 3.2 10.2594 3.2 12.5933C3.2 14.9272 4.12714 17.1655 5.77746 18.8158C7.42778 20.4661 9.66609 21.3933 12 21.3933ZM11.4 10.5933H12.6V17.5933H11.4V10.5933ZM12 9.59326C11.7348 9.59326 11.4804 9.4879 11.2929 9.30037C11.1054 9.11283 11 8.85848 11 8.59326C11 8.32805 11.1054 8.07369 11.2929 7.88616C11.4804 7.69862 11.7348 7.59326 12 7.59326C12.2652 7.59326 12.5196 7.69862 12.7071 7.88616C12.8946 8.07369 13 8.32805 13 8.59326C13 8.85848 12.8946 9.11283 12.7071 9.30037C12.5196 9.4879 12.2652 9.59326 12 9.59326Z" fill="#191919"/>
</g>
</svg>
