<svg width="19" height="19" viewBox="0 0 19 19" fill="none" xmlns="http://www.w3.org/2000/svg">
<g id="fi-rr-info" clip-path="url(#clip0_17407_68947)">
<path id="Vector" d="M9.5 0C7.62108 0 5.78435 0.557165 4.22209 1.60104C2.65982 2.64491 1.44218 4.12861 0.723149 5.86451C0.00411622 7.60041 -0.184015 9.51054 0.182544 11.3534C0.549104 13.1962 1.45389 14.8889 2.78249 16.2175C4.11109 17.5461 5.80383 18.4509 7.64665 18.8175C9.48947 19.184 11.3996 18.9959 13.1355 18.2769C14.8714 17.5578 16.3551 16.3402 17.399 14.7779C18.4428 13.2157 19 11.3789 19 9.5C18.9973 6.98128 17.9955 4.5665 16.2145 2.78549C14.4335 1.00449 12.0187 0.00272419 9.5 0V0ZM9.5 17.4167C7.93424 17.4167 6.40363 16.9524 5.10174 16.0825C3.79985 15.2126 2.78515 13.9762 2.18596 12.5296C1.58676 11.083 1.42999 9.49122 1.73545 7.95554C2.04092 6.41985 2.79491 5.00924 3.90208 3.90207C5.00924 2.79491 6.41986 2.04092 7.95554 1.73545C9.49122 1.42998 11.083 1.58676 12.5296 2.18595C13.9762 2.78515 15.2126 3.79985 16.0825 5.10174C16.9524 6.40363 17.4167 7.93423 17.4167 9.5C17.4144 11.5989 16.5795 13.6112 15.0954 15.0954C13.6112 16.5795 11.5989 17.4144 9.5 17.4167Z" fill="#374957"/>
<path id="Vector_2" d="M9.5013 7.91602H8.70963C8.49967 7.91602 8.29831 7.99942 8.14984 8.14789C8.00138 8.29636 7.91797 8.49772 7.91797 8.70768C7.91797 8.91765 8.00138 9.11901 8.14984 9.26748C8.29831 9.41594 8.49967 9.49935 8.70963 9.49935H9.5013V14.2493C9.5013 14.4593 9.58471 14.6607 9.73317 14.8091C9.88164 14.9576 10.083 15.041 10.293 15.041C10.5029 15.041 10.7043 14.9576 10.8528 14.8091C11.0012 14.6607 11.0846 14.4593 11.0846 14.2493V9.49935C11.0846 9.07942 10.9178 8.6767 10.6209 8.37976C10.324 8.08283 9.92122 7.91602 9.5013 7.91602Z" fill="#374957"/>
<path id="Vector_3" d="M9.5 6.33398C10.1558 6.33398 10.6875 5.80232 10.6875 5.14648C10.6875 4.49065 10.1558 3.95898 9.5 3.95898C8.84416 3.95898 8.3125 4.49065 8.3125 5.14648C8.3125 5.80232 8.84416 6.33398 9.5 6.33398Z" fill="#374957"/>
</g>
<defs>
<clipPath id="clip0_17407_68947">
<rect width="19" height="19" fill="white"/>
</clipPath>
</defs>
</svg>
