<svg width="24" height="24" viewBox="0 0 24 24" fill="none" xmlns="http://www.w3.org/2000/svg">
<path d="M7.24414 14.7816L10.2373 10.8914L13.6515 13.5733L16.5805 9.79297" stroke="#3D3D3D" stroke-width="1.5" stroke-linecap="round" stroke-linejoin="round"/>
<path d="M19.9945 6.12272C21.0561 6.12272 21.9167 5.26212 21.9167 4.20052C21.9167 3.13892 21.0561 2.27832 19.9945 2.27832C18.9329 2.27832 18.0723 3.13892 18.0723 4.20052C18.0723 5.26212 18.9329 6.12272 19.9945 6.12272Z" stroke="#3D3D3D" stroke-width="1.5" stroke-linecap="round" stroke-linejoin="round"/>
<path d="M14.9238 3.12012H7.65606C4.64462 3.12012 2.77734 5.25284 2.77734 8.26428V16.3467C2.77734 19.3581 4.608 21.4817 7.65606 21.4817H16.2602C19.2716 21.4817 21.1389 19.3581 21.1389 16.3467V9.30776" stroke="#3D3D3D" stroke-width="1.5" stroke-linecap="round" stroke-linejoin="round"/>
</svg>
