<svg width="20" height="20" viewBox="0 0 20 20" fill="none" xmlns="http://www.w3.org/2000/svg">
<path fill-rule="evenodd" clip-rule="evenodd" d="M15.1796 2.41C15.1796 1.08 16.2596 0 17.5896 0C18.9196 0 19.9996 1.08 19.9996 2.41C19.9996 3.74 18.9196 4.82 17.5896 4.82C16.2596 4.82 15.1796 3.74 15.1796 2.41ZM11.3295 12.7593L14.2195 9.0303L14.1795 9.0503C14.3395 8.8303 14.3695 8.5503 14.2595 8.3003C14.1505 8.0503 13.9095 7.8803 13.6505 7.8603C13.3795 7.8303 13.1105 7.9503 12.9495 8.1703L10.5305 11.3003L7.75951 9.1203C7.58951 8.9903 7.38951 8.9393 7.18951 8.9603C6.99051 8.9903 6.81051 9.0993 6.68951 9.2593L3.73051 13.1103L3.66951 13.2003C3.49951 13.5193 3.57951 13.9293 3.87951 14.1503C4.01951 14.2403 4.16951 14.3003 4.33951 14.3003C4.57051 14.3103 4.78951 14.1893 4.92951 14.0003L7.43951 10.7693L10.2895 12.9103L10.3795 12.9693C10.6995 13.1393 11.0995 13.0603 11.3295 12.7593ZM13.4495 1.7803C13.4095 2.0303 13.3895 2.2803 13.3895 2.5303C13.3895 4.7803 15.2095 6.5993 17.4495 6.5993C17.6995 6.5993 17.9395 6.5703 18.1895 6.5303V14.5993C18.1895 17.9903 16.1895 20.0003 12.7895 20.0003H5.40051C1.99951 20.0003 -0.000488281 17.9903 -0.000488281 14.5993V7.2003C-0.000488281 3.8003 1.99951 1.7803 5.40051 1.7803H13.4495Z" fill="#191919"/>
</svg>
