<svg width="24" height="24" viewBox="0 0 24 24" fill="none" xmlns="http://www.w3.org/2000/svg">
<path d="M11.9998 3.00094C11.2042 3.00094 10.4411 3.31701 9.87849 3.87962C9.31588 4.44222 8.99981 5.20529 8.99981 6.00094C8.99981 6.79659 9.31588 7.55965 9.87849 8.12226C10.4411 8.68487 11.2042 9.00094 11.9998 9.00094C12.7955 9.00094 13.5585 8.68487 14.1211 8.12226C14.6837 7.55965 14.9998 6.79659 14.9998 6.00094C14.9998 5.20529 14.6837 4.44222 14.1211 3.87962C13.5585 3.31701 12.7955 3.00094 11.9998 3.00094ZM6.99981 6.00094C7.00001 5.05491 7.26858 4.12834 7.77435 3.32886C8.28011 2.52938 9.00231 1.88978 9.85707 1.48436C10.7118 1.07894 11.6641 0.924334 12.6032 1.03849C13.5423 1.15265 14.4298 1.5309 15.1625 2.1293C15.8952 2.72769 16.4431 3.52169 16.7426 4.41906C17.0421 5.31643 17.0809 6.28035 16.8544 7.19888C16.628 8.1174 16.1456 8.95283 15.4633 9.60814C14.7809 10.2634 13.9267 10.7117 12.9998 10.9009V17.0009H10.9998V10.9009C9.87045 10.6704 8.85542 10.0568 8.12651 9.16384C7.3976 8.27092 6.99958 7.15359 6.99981 6.00094ZM3.10481 11.0009H7.99981V13.0009H4.89481L4.11681 20.0009H19.8828L19.1048 13.0009H15.9998V11.0009H20.8948L22.1168 22.0009H1.88281L3.10481 11.0009Z" fill="#3D8BA6"/>
</svg>
