<svg width="28" height="28" viewBox="0 0 28 28" fill="none" xmlns="http://www.w3.org/2000/svg">
<g id="fluent:phone-28-regular">
<path id="Vector" d="M9.75 2C9.02065 2 8.32118 2.28973 7.80546 2.80546C7.28973 3.32118 7 4.02065 7 4.75V23.25C7 23.9793 7.28973 24.6788 7.80546 25.1945C8.32118 25.7103 9.02065 26 9.75 26H18.25C18.9793 26 19.6788 25.7103 20.1945 25.1945C20.7103 24.6788 21 23.9793 21 23.25V4.75C21 4.02065 20.7103 3.32118 20.1945 2.80546C19.6788 2.28973 18.9793 2 18.25 2H9.75ZM8.5 4.75C8.5 4.06 9.06 3.5 9.75 3.5H18.25C18.94 3.5 19.5 4.06 19.5 4.75V23.25C19.5 23.94 18.94 24.5 18.25 24.5H9.75C9.06 24.5 8.5 23.94 8.5 23.25V4.75ZM12.25 21C12.0511 21 11.8603 21.079 11.7197 21.2197C11.579 21.3603 11.5 21.5511 11.5 21.75C11.5 21.9489 11.579 22.1397 11.7197 22.2803C11.8603 22.421 12.0511 22.5 12.25 22.5H15.75C15.9489 22.5 16.1397 22.421 16.2803 22.2803C16.421 22.1397 16.5 21.9489 16.5 21.75C16.5 21.5511 16.421 21.3603 16.2803 21.2197C16.1397 21.079 15.9489 21 15.75 21H12.25Z" fill="#191919"/>
</g>
</svg>
