<svg width="120" height="121" viewBox="0 0 120 121" fill="none" xmlns="http://www.w3.org/2000/svg">
<g clipPath="url(#clip0_6042_22805)">
<path d="M60 70.2509C54.485 70.2509 50 65.7659 50 60.2509C50 54.7359 54.485 50.2509 60 50.2509C65.515 50.2509 70 54.7359 70 60.2509C70 65.7659 65.515 70.2509 60 70.2509ZM42.26 120.256C31.945 120.256 22.54 113.756 18.855 104.086C16.295 97.3809 15 91.0459 15 85.2459C15 77.0759 16.995 69.7559 18.925 62.6809C20.765 55.9409 22.5 49.5809 22.5 42.7509C22.5 34.8959 21.995 29.9409 20.755 25.6559C19.02 19.6259 20.19 13.2859 23.975 8.25586C27.8 3.17086 33.64 0.255856 40 0.255857L77.74 0.255858C88.055 0.255859 97.46 6.75086 101.145 16.4209C103.705 23.1259 105 29.4659 105 35.2609C105 43.4309 103.005 50.7459 101.075 57.8259C99.235 64.5659 97.5 70.9259 97.5 77.7559C97.5 85.6059 98.005 90.5659 99.245 94.8509C100.98 100.891 99.81 107.231 96.025 112.256C92.2 117.341 86.36 120.256 80 120.256L42.26 120.256ZM50 30.2559C52.76 30.2559 55 28.0159 55 25.2559C55 22.4959 52.76 20.2559 50 20.2559C47.24 20.2559 45 22.4959 45 25.2559C45 28.0159 47.24 30.2559 50 30.2559ZM80 30.2559C82.76 30.2559 85 28.0159 85 25.2559C85 22.4959 82.76 20.2559 80 20.2559C77.24 20.2559 75 22.4959 75 25.2559C75 28.0159 77.24 30.2559 80 30.2559ZM60 80.2558C71.03 80.2559 80 71.2859 80 60.2559C80 49.2259 71.03 40.2559 60 40.2559C48.97 40.2559 40 49.2259 40 60.2559C40 71.2859 48.97 80.2558 60 80.2558ZM40 100.256C42.76 100.256 45 98.0159 45 95.2559C45 92.4959 42.76 90.2559 40 90.2559C37.24 90.2559 35 92.4959 35 95.2559C35 98.0159 37.24 100.256 40 100.256ZM70 100.256C72.76 100.256 75 98.0159 75 95.2559C75 92.4959 72.76 90.2559 70 90.2559C67.24 90.2559 65 92.4959 65 95.2559C65 98.0159 67.24 100.256 70 100.256Z" fill="#191919"/>
</g>
<defs>
<clipPath id="clip0_6042_22805">
<rect width="120" height="120" fill="white" transform="translate(120 0.25) rotate(90)"/>
</clipPath>
</defs>
</svg>
