<svg width="16" height="16" viewBox="0 0 16 16" fill="none" xmlns="http://www.w3.org/2000/svg">
<path id="Icon" d="M2.93698 15.0506V11.5517M2.93698 4.55368V1.05469M1.1875 2.80418H4.68646M1.1875 13.3012H4.68646M8.88522 1.75449L7.67165 4.90978C7.4743 5.42289 7.37563 5.67945 7.22218 5.89525C7.08618 6.08651 6.91908 6.25362 6.72782 6.38962C6.51202 6.54307 6.25546 6.64174 5.74235 6.83909L2.58709 8.05267L5.74235 9.26624C6.25546 9.46359 6.51202 9.56227 6.72782 9.71572C6.91908 9.85172 7.08618 10.0188 7.22218 10.2101C7.37563 10.4259 7.4743 10.6824 7.67165 11.1956L8.88522 14.3508L10.0988 11.1956C10.2961 10.6824 10.3948 10.4259 10.5483 10.2101C10.6843 10.0188 10.8514 9.85172 11.0426 9.71572C11.2584 9.56227 11.515 9.46359 12.0281 9.26624L15.1834 8.05267L12.0281 6.83909C11.515 6.64174 11.2584 6.54307 11.0426 6.38962C10.8514 6.25362 10.6843 6.08651 10.5483 5.89525C10.3948 5.67945 10.2961 5.42289 10.0988 4.90978L8.88522 1.75449Z" stroke="#242526" stroke-linecap="round" stroke-linejoin="round"/>
</svg>
