<svg width="11" height="11" viewBox="0 0 11 11" fill="none" xmlns="http://www.w3.org/2000/svg">
<g id="vuesax/outline/award">
<g id="award">
<path id="Vector" d="M5.27503 10.2255C5.01128 10.2255 4.75193 10.164 4.54093 10.0453L2.4617 8.8452C1.60011 8.26495 1.54297 8.15945 1.54297 7.24951V5.06918C1.54297 4.15924 1.60011 4.05374 2.44411 3.48668L4.54532 2.27343C4.96293 2.03166 5.59153 2.03166 6.00914 2.27343L8.08837 3.47349C8.94995 4.05374 9.00709 4.15924 9.00709 5.06918V7.24951C9.00709 8.15945 8.94995 8.26495 8.10595 8.83201L6.00474 10.0453C5.79814 10.1683 5.53439 10.2255 5.27503 10.2255ZM5.27503 2.75258C5.12557 2.75258 4.97611 2.78335 4.87061 2.84489L2.79139 4.04495C2.20234 4.44497 2.20234 4.44497 2.20234 5.06918V7.24951C2.20234 7.87372 2.20234 7.87372 2.81336 8.28693L4.87501 9.47381C5.08601 9.59689 5.46845 9.59689 5.67945 9.47381L7.75868 8.27374C8.34772 7.87372 8.34772 7.87372 8.34772 7.24951V5.06918C8.34772 4.44497 8.34772 4.44497 7.7367 4.03176L5.67505 2.84489C5.57395 2.78335 5.42449 2.75258 5.27503 2.75258Z" fill="#03FFD1"/>
<path id="Vector_2" d="M7.69245 3.9087C7.51222 3.9087 7.36276 3.75925 7.36276 3.57902V2.42291C7.36276 1.72837 7.06824 1.43385 6.3737 1.43385H4.17578C3.48124 1.43385 3.18672 1.72837 3.18672 2.42291V3.54825C3.18672 3.72848 3.03726 3.87793 2.85703 3.87793C2.6768 3.87793 2.52734 3.73287 2.52734 3.54825V2.42291C2.52734 1.35912 3.11199 0.774475 4.17578 0.774475H6.3737C7.43749 0.774475 8.02214 1.35912 8.02214 2.42291V3.57902C8.02214 3.75925 7.87268 3.9087 7.69245 3.9087Z" fill="#03FFD1"/>
<path id="Vector_3" d="M5.99174 7.97483C5.89943 7.97483 5.80272 7.95724 5.70601 7.91768L5.27522 7.75064L4.84443 7.92208C4.61145 8.01439 4.37408 7.99241 4.19824 7.86493C4.02241 7.73745 3.9301 7.51766 3.94328 7.2671L3.96966 6.80553L3.67514 6.44947C3.51689 6.25166 3.46414 6.02308 3.53447 5.81208C3.60041 5.60547 3.78064 5.44722 4.02241 5.38568L4.47078 5.27139L4.72135 4.88016C4.98949 4.45816 5.56535 4.45816 5.83349 4.88016L6.08406 5.27139L6.53243 5.38568C6.7742 5.44722 6.95443 5.60547 7.02037 5.81208C7.08631 6.01868 7.03356 6.25166 6.87531 6.44508L6.58079 6.80114L6.60716 7.2627C6.62035 7.51326 6.52803 7.72866 6.3522 7.86054C6.2467 7.93526 6.12362 7.97483 5.99174 7.97483ZM4.18506 6.02747L4.47958 6.38353C4.58068 6.50222 4.63783 6.69124 4.62903 6.8451L4.60266 7.30666L5.03345 7.13522C5.17851 7.07808 5.37193 7.07808 5.51699 7.13522L5.94778 7.30666L5.92141 6.8451C5.91262 6.69124 5.96976 6.50662 6.07087 6.38353L6.36539 6.02747L5.91701 5.91318C5.76756 5.87362 5.60931 5.75933 5.52578 5.63185L5.27962 5.24501L5.02906 5.63185C4.94553 5.76372 4.78728 5.87801 4.63783 5.91758L4.18506 6.02747Z" fill="#03FFD1"/>
</g>
</g>
</svg>
