<svg width="16" height="16" viewBox="0 0 16 16" fill="none" xmlns="http://www.w3.org/2000/svg">
<path d="M8.0799 8.52096C8.03323 8.5143 7.97323 8.5143 7.9199 8.52096C6.74657 8.48096 5.81323 7.52096 5.81323 6.34096C5.81323 5.1343 6.78657 4.1543 7.9999 4.1543C9.20657 4.1543 10.1866 5.1343 10.1866 6.34096C10.1799 7.52096 9.25323 8.48096 8.0799 8.52096Z" stroke="black" stroke-linecap="round" stroke-linejoin="round"/>
<path d="M12.4933 12.921C11.3066 14.0077 9.73326 14.6677 7.99993 14.6677C6.26659 14.6677 4.69326 14.0077 3.50659 12.921C3.57326 12.2943 3.97326 11.681 4.68659 11.201C6.51326 9.98768 9.49992 9.98768 11.3133 11.201C12.0266 11.681 12.4266 12.2943 12.4933 12.921Z" stroke="black" stroke-linecap="round" stroke-linejoin="round"/>
<path d="M7.99992 14.6673C11.6818 14.6673 14.6666 11.6825 14.6666 8.00065C14.6666 4.31875 11.6818 1.33398 7.99992 1.33398C4.31802 1.33398 1.33325 4.31875 1.33325 8.00065C1.33325 11.6825 4.31802 14.6673 7.99992 14.6673Z" stroke="black" stroke-linecap="round" stroke-linejoin="round"/>
</svg>
