<svg width="33" height="32" viewBox="0 0 33 32" fill="none" xmlns="http://www.w3.org/2000/svg">
<g id="vuesax/bold/lock">
<path id="Vector" d="M16.4995 23.1338C17.6998 23.1338 18.6728 22.1607 18.6728 20.9604C18.6728 19.7601 17.6998 18.7871 16.4995 18.7871C15.2992 18.7871 14.3262 19.7601 14.3262 20.9604C14.3262 22.1607 15.2992 23.1338 16.4995 23.1338Z" fill="#1D6169"/>
<path id="Vector_2" d="M24.8727 12.706V11.0393C24.8727 7.43935 24.006 2.66602 16.4993 2.66602C8.99268 2.66602 8.12602 7.43935 8.12602 11.0393V12.706C4.39268 13.1727 3.16602 15.066 3.16602 19.7193V22.1993C3.16602 27.666 4.83268 29.3327 10.2993 29.3327H22.6993C28.166 29.3327 29.8327 27.666 29.8327 22.1993V19.7193C29.8327 15.066 28.606 13.1727 24.8727 12.706ZM16.4993 24.986C14.2727 24.986 12.4727 23.1727 12.4727 20.9594C12.4727 18.7327 14.286 16.9327 16.4993 16.9327C18.7127 16.9327 20.526 18.746 20.526 20.9594C20.526 23.186 18.726 24.986 16.4993 24.986ZM10.2993 12.586C10.1927 12.586 10.0993 12.586 9.99268 12.586V11.0393C9.99268 7.13268 11.0993 4.53268 16.4993 4.53268C21.8993 4.53268 23.006 7.13268 23.006 11.0393V12.5993C22.8993 12.5993 22.806 12.5993 22.6993 12.5993H10.2993V12.586Z" fill="#1D6169"/>
</g>
</svg>
