<svg width="24" height="24" viewBox="0 0 24 24" fill="none" xmlns="http://www.w3.org/2000/svg">
<g id="vuesax/bold/shop-add">
<g id="shop-add">
<path id="Vector" d="M7.80023 22.1502C5.15023 22.1502 2.99023 20.0002 2.99023 17.3402V14.5002C2.99023 13.8302 3.65023 13.3802 4.28023 13.6002C4.54023 13.6902 4.80023 13.7502 5.07023 13.7902C5.19023 13.8102 5.31023 13.8302 5.43023 13.8302C5.58023 13.8502 5.74023 13.8602 5.89023 13.8602C7.00023 13.8602 8.10023 13.4502 8.97023 12.7402C9.80023 13.4502 10.8702 13.8602 12.0102 13.8602C13.1502 13.8602 14.2102 13.4702 15.0402 12.7502C15.9002 13.4502 16.9802 13.8602 18.0802 13.8602C18.2502 13.8602 18.4302 13.8502 18.5902 13.8302C18.7102 13.8202 18.8102 13.8102 18.9202 13.7902C19.2202 13.7502 19.4902 13.6702 19.7602 13.5802C20.3802 13.3702 21.0302 13.8302 21.0302 14.4802V17.3402C21.0302 19.9902 18.8802 22.1502 16.2202 22.1502H7.80023Z" fill="#7255CB"/>
<path id="Vector_2" d="M21.9799 8.58961L21.6999 5.92961C21.2999 3.02961 19.9799 1.84961 17.1599 1.84961H14.8999H13.4799H10.5599H9.12985H6.81985C3.99985 1.84961 2.68985 3.02961 2.27985 5.95961L2.01985 8.59961C1.91985 9.62961 2.19985 10.6296 2.80985 11.4096C3.53985 12.3596 4.65985 12.8996 5.90985 12.8996C7.11985 12.8996 8.27985 12.2896 9.00985 11.3196C9.65985 12.2896 10.7799 12.8996 12.0199 12.8996C13.2599 12.8996 14.3499 12.3196 15.0099 11.3596C15.7499 12.3096 16.8899 12.8996 18.0899 12.8996C19.3699 12.8996 20.5199 12.3296 21.2399 11.3296C21.8199 10.5596 22.0799 9.58961 21.9799 8.58961ZM13.4999 7.72961H12.7499V8.50961C12.7499 8.92961 12.4099 9.25961 11.9999 9.25961C11.5899 9.25961 11.2499 8.92961 11.2499 8.50961V7.72961H10.4999C10.0899 7.72961 9.74985 7.39961 9.74985 6.97961C9.74985 6.56961 10.0899 6.22961 10.4999 6.22961H11.2499V5.51961C11.2499 5.10961 11.5899 4.76961 11.9999 4.76961C12.4099 4.76961 12.7499 5.10961 12.7499 5.51961V6.22961H13.4999C13.9099 6.22961 14.2499 6.56961 14.2499 6.97961C14.2499 7.39961 13.9099 7.72961 13.4999 7.72961Z" fill="#7255CB"/>
</g>
</g>
</svg>
