<svg width="16" height="17" viewBox="0 0 16 17" fill="none" xmlns="http://www.w3.org/2000/svg">
<path d="M14.6666 6.56975V10.5698C14.6666 12.2364 14.3333 13.4031 13.5866 14.1564L9.33325 9.90309L14.4866 4.74976C14.6066 5.27642 14.6666 5.87642 14.6666 6.56975Z" stroke="#191919" stroke-linecap="round" stroke-linejoin="round"/>
<path d="M14.4866 4.74975L4.17991 15.0564C2.17324 14.5964 1.33325 13.2097 1.33325 10.5697V6.56974C1.33325 3.23641 2.66659 1.90308 5.99992 1.90308H9.99992C12.6399 1.90308 14.0266 2.74308 14.4866 4.74975Z" stroke="#191919" stroke-linecap="round" stroke-linejoin="round"/>
<path d="M13.5866 14.1564C12.8333 14.9031 11.6666 15.2364 9.99994 15.2364H5.99994C5.30661 15.2364 4.7066 15.1764 4.17993 15.0564L9.33327 9.90308L13.5866 14.1564Z" stroke="#191919" stroke-linecap="round" stroke-linejoin="round"/>
<path d="M4.15993 5.8898C4.61326 3.93647 7.5466 3.93647 7.99994 5.8898C8.25994 7.03647 7.53993 8.00981 6.90659 8.60981C6.44659 9.04981 5.71994 9.04981 5.25327 8.60981C4.61994 8.00981 3.89326 7.03647 4.15993 5.8898Z" stroke="#191919"/>
<path d="M6.06307 6.36971H6.06906" stroke="#191919" stroke-width="1.33333" stroke-linecap="round" stroke-linejoin="round"/>
</svg>
