<svg width="33" height="32" viewBox="0 0 33 32" fill="none" xmlns="http://www.w3.org/2000/svg">
<path d="M16.4998 18.8936C13.6598 18.8936 11.3398 16.5869 11.3398 13.7336C11.3398 10.8802 13.6598 8.58691 16.4998 8.58691C19.3398 8.58691 21.6598 10.8936 21.6598 13.7469C21.6598 16.6002 19.3398 18.8936 16.4998 18.8936ZM16.4998 10.5869C14.7665 10.5869 13.3398 12.0002 13.3398 13.7469C13.3398 15.4936 14.7532 16.9069 16.4998 16.9069C18.2465 16.9069 19.6598 15.4936 19.6598 13.7469C19.6598 12.0002 18.2332 10.5869 16.4998 10.5869Z" fill="#606060"/>
<path d="M16.5002 30.347C14.5269 30.347 12.5402 29.6003 10.9936 28.1203C7.06023 24.3337 2.71357 18.2937 4.35357 11.107C5.83357 4.58699 11.5269 1.66699 16.5002 1.66699C16.5002 1.66699 16.5002 1.66699 16.5136 1.66699C21.4869 1.66699 27.1802 4.58699 28.6602 11.1203C30.2869 18.307 25.9402 24.3337 22.0069 28.1203C20.4602 29.6003 18.4736 30.347 16.5002 30.347ZM16.5002 3.66699C12.6202 3.66699 7.63357 5.73366 6.31357 11.547C4.87357 17.827 8.82023 23.2403 12.3936 26.667C14.7002 28.8937 18.3136 28.8937 20.6202 26.667C24.1802 23.2403 28.1269 17.827 26.7136 11.547C25.3802 5.73366 20.3802 3.66699 16.5002 3.66699Z" fill="#606060"/>
</svg>
