<svg width="53" height="54" viewBox="0 0 53 54" fill="none" xmlns="http://www.w3.org/2000/svg">
<path d="M41.4035 18.0357V22.6734C40.4318 22.5409 39.3276 22.4747 38.0909 22.4526V18.0357C38.0909 11.0792 36.1254 6.44154 26.4967 6.44154C16.868 6.44154 14.9025 11.0792 14.9025 18.0357V22.4526C13.6658 22.4747 12.5615 22.5409 11.5898 22.6734V18.0357C11.5898 11.6313 13.1357 3.12891 26.4967 3.12891C39.8576 3.12891 41.4035 11.6313 41.4035 18.0357Z" fill="#191919"/>
<path opacity="0.4" d="M48.5785 33.4952V37.9121C48.5785 46.7457 46.3701 48.9542 37.5364 48.9542H15.4523C6.61858 48.9542 4.41016 46.7457 4.41016 37.9121V33.4952C4.41016 26.1191 5.95605 23.3586 11.5875 22.674C12.5592 22.5415 13.6634 22.4752 14.9001 22.4531H38.0886C39.3253 22.4752 40.4295 22.5415 41.4012 22.674C47.0327 23.3586 48.5785 26.1191 48.5785 33.4952Z" fill="#191919"/>
<path d="M17.6694 37.9115C17.3823 37.9115 17.0952 37.8452 16.8301 37.7348C16.5431 37.6244 16.3222 37.4698 16.1014 37.271C15.7039 36.8514 15.4609 36.2772 15.4609 35.703C15.4609 35.4159 15.5272 35.1288 15.6376 34.8638C15.748 34.5988 15.9026 34.3559 16.1014 34.135C16.3222 33.9363 16.5431 33.7817 16.8301 33.6713C17.6473 33.3179 18.619 33.5167 19.2373 34.135C19.4361 34.3559 19.5907 34.5988 19.7011 34.8638C19.8116 35.1288 19.8778 35.4159 19.8778 35.703C19.8778 36.2772 19.6348 36.8514 19.2373 37.271C18.8177 37.6685 18.2435 37.9115 17.6694 37.9115Z" fill="#191919"/>
<path d="M26.4975 37.9127C25.9012 37.9127 25.3491 37.6698 24.9295 37.2723C24.7308 37.0514 24.5761 36.8085 24.4657 36.5435C24.3553 36.2785 24.2891 35.9914 24.2891 35.7043C24.2891 35.108 24.532 34.5559 24.9295 34.1363C25.7466 33.3192 27.2262 33.3192 28.0654 34.1363C28.463 34.5559 28.7059 35.108 28.7059 35.7043C28.7059 35.9914 28.6397 36.2785 28.5293 36.5435C28.4188 36.8085 28.2642 37.0514 28.0654 37.2723C27.6458 37.6698 27.0717 37.9127 26.4975 37.9127Z" fill="#191919"/>
<path d="M35.3295 37.9127C34.7553 37.9127 34.1812 37.6698 33.7616 37.2723C33.364 36.8527 33.1211 36.3005 33.1211 35.7043C33.1211 35.108 33.364 34.5559 33.7616 34.1363C34.6008 33.3192 36.0804 33.3192 36.8975 34.1363C36.9858 34.2467 37.0741 34.3571 37.1625 34.4896C37.2508 34.6001 37.3171 34.7326 37.3613 34.8651C37.4275 34.9976 37.4717 35.1301 37.4938 35.2626C37.5159 35.4172 37.5379 35.5718 37.5379 35.7043C37.5379 36.2785 37.295 36.8527 36.8975 37.2723C36.4779 37.6698 35.9037 37.9127 35.3295 37.9127Z" fill="#191919"/>
</svg>
