<svg width="64" height="64" viewBox="0 0 64 64" fill="none" xmlns="http://www.w3.org/2000/svg">
<g id="vuesax/bulk/lock">
<g id="lock">
<path id="Vector" d="M50 21.3311V26.9311C48.8267 26.7711 47.4933 26.6911 46 26.6644V21.3311C46 12.9311 43.6267 7.33105 32 7.33105C20.3733 7.33105 18 12.9311 18 21.3311V26.6644C16.5067 26.6911 15.1733 26.7711 14 26.9311V21.3311C14 13.5977 15.8667 3.33105 32 3.33105C48.1333 3.33105 50 13.5977 50 21.3311Z" fill="#4545FE"/>
<path id="Vector_2" opacity="0.4" d="M58.6654 39.9984V45.3317C58.6654 55.9984 55.9987 58.665 45.332 58.665H18.6654C7.9987 58.665 5.33203 55.9984 5.33203 45.3317V39.9984C5.33203 31.0917 7.1987 27.7584 13.9987 26.9317C15.172 26.7717 16.5054 26.6917 17.9987 26.665H45.9987C47.492 26.6917 48.8254 26.7717 49.9987 26.9317C56.7987 27.7584 58.6654 31.0917 58.6654 39.9984Z" fill="#4545FE"/>
<g id="Group">
<path id="Vector_3" d="M21.3385 45.3313C20.9919 45.3313 20.6452 45.2513 20.3252 45.118C19.9785 44.9847 19.7119 44.798 19.4452 44.558C18.9652 44.0514 18.6719 43.358 18.6719 42.6647C18.6719 42.318 18.7518 41.9713 18.8852 41.6513C19.0185 41.3313 19.2052 41.038 19.4452 40.7713C19.7119 40.5313 19.9785 40.3447 20.3252 40.2114C21.3119 39.7847 22.4852 40.0247 23.2319 40.7713C23.4719 41.038 23.6586 41.3313 23.7919 41.6513C23.9252 41.9713 24.0052 42.318 24.0052 42.6647C24.0052 43.358 23.7119 44.0514 23.2319 44.558C22.7252 45.038 22.0319 45.3313 21.3385 45.3313Z" fill="#4545FE"/>
</g>
<g id="Group_2">
<path id="Vector_4" d="M31.9987 45.3322C31.2787 45.3322 30.6121 45.0389 30.1054 44.5589C29.8654 44.2923 29.6787 43.9989 29.5453 43.6789C29.412 43.3589 29.332 43.0122 29.332 42.6656C29.332 41.9456 29.6254 41.2789 30.1054 40.7722C31.0921 39.7856 32.8787 39.7856 33.892 40.7722C34.372 41.2789 34.6654 41.9456 34.6654 42.6656C34.6654 43.0122 34.5854 43.3589 34.4521 43.6789C34.3187 43.9989 34.132 44.2923 33.892 44.5589C33.3853 45.0389 32.692 45.3322 31.9987 45.3322Z" fill="#4545FE"/>
</g>
<g id="Group_3">
<path id="Vector_5" d="M42.6628 45.3322C41.9694 45.3322 41.2761 45.0389 40.7694 44.5589C40.2894 44.0523 39.9961 43.3856 39.9961 42.6656C39.9961 41.9456 40.2894 41.2789 40.7694 40.7722C41.7828 39.7856 43.5694 39.7856 44.5561 40.7722C44.6627 40.9056 44.7694 41.0389 44.8761 41.1989C44.9827 41.3322 45.0628 41.4922 45.1161 41.6522C45.1961 41.8122 45.2495 41.9723 45.2761 42.1323C45.3028 42.3189 45.3294 42.5056 45.3294 42.6656C45.3294 43.3589 45.0361 44.0523 44.5561 44.5589C44.0494 45.0389 43.3561 45.3322 42.6628 45.3322Z" fill="#4545FE"/>
</g>
</g>
</g>
</svg>
