<svg width="23" height="28" viewBox="0 0 23 28" fill="none" xmlns="http://www.w3.org/2000/svg">
<g id="Lock">
<path id="Lock_2" fill-rule="evenodd" clip-rule="evenodd" d="M19.0153 7.85874V9.90319C21.3118 10.62 22.985 12.6989 22.985 15.1819V21.7645C22.985 24.8384 20.4366 27.3307 17.2947 27.3307H6.01009C2.86684 27.3307 0.318359 24.8384 0.318359 21.7645V15.1819C0.318359 12.6989 1.99296 10.62 4.28807 9.90319V7.85874C4.30162 3.88378 7.59391 0.664062 11.6314 0.664062C15.723 0.664062 19.0153 3.88378 19.0153 7.85874ZM11.6589 2.98177C14.4093 2.98177 16.6448 5.168 16.6448 7.85772V9.61465H6.65951V7.83122C6.67305 5.15475 8.90856 2.98177 11.6589 2.98177ZM12.8378 19.9354C12.8378 20.5846 12.3094 21.1013 11.6455 21.1013C10.9952 21.1013 10.4668 20.5846 10.4668 19.9354V16.9939C10.4668 16.3579 10.9952 15.8411 11.6455 15.8411C12.3094 15.8411 12.8378 16.3579 12.8378 16.9939V19.9354Z" fill="#667085"/>
</g>
</svg>
