<svg width="15" height="12" viewBox="0 0 15 12" fill="none" xmlns="http://www.w3.org/2000/svg">
<g id="Camera">
<path id="Camera_2" fill-rule="evenodd" clip-rule="evenodd" d="M11.1215 2.1576C11.1481 2.20422 11.1948 2.23751 11.2548 2.23751C12.8548 2.23751 14.1615 3.54273 14.1615 5.14095V9.09656C14.1615 10.6948 12.8548 12 11.2548 12H3.73479C2.12813 12 0.828125 10.6948 0.828125 9.09656V5.14095C0.828125 3.54273 2.12813 2.23751 3.73479 2.23751C3.78813 2.23751 3.84146 2.21088 3.86146 2.1576L3.90146 2.07769C3.92444 2.02932 3.94802 1.97965 3.97197 1.92921C4.14252 1.56998 4.33121 1.17254 4.44812 0.938957C4.75479 0.339623 5.27479 0.00665933 5.92146 0H9.06146C9.70813 0.00665933 10.2348 0.339623 10.5415 0.938957C10.6465 1.14871 10.8064 1.48659 10.9606 1.81225C10.9924 1.87946 11.024 1.94616 11.0548 2.0111L11.1215 2.1576ZM10.6354 4.71472C10.6354 5.04768 10.9021 5.31405 11.2354 5.31405C11.5688 5.31405 11.8421 5.04768 11.8421 4.71472C11.8421 4.38175 11.5688 4.10872 11.2354 4.10872C10.9021 4.10872 10.6354 4.38175 10.6354 4.71472ZM6.34186 5.74705C6.65519 5.43406 7.06186 5.26758 7.49519 5.26758C7.92853 5.26758 8.33519 5.43406 8.64186 5.74039C8.94853 6.04671 9.11519 6.45293 9.11519 6.88578C9.10853 7.77812 8.38853 8.50398 7.49519 8.50398C7.06186 8.50398 6.65519 8.3375 6.34853 8.03117C6.04186 7.72485 5.87519 7.31863 5.87519 6.88578V6.87912C5.86853 6.45959 6.03519 6.05337 6.34186 5.74705ZM9.34179 8.73725C8.86845 9.21006 8.21512 9.50307 7.49512 9.50307C6.79512 9.50307 6.14179 9.23003 5.64179 8.73725C5.14845 8.2378 4.87512 7.5852 4.87512 6.88597C4.86845 6.19341 5.14179 5.5408 5.63512 5.04136C6.13512 4.54191 6.79512 4.26888 7.49512 4.26888C8.19512 4.26888 8.85512 4.54191 9.34845 5.0347C9.84179 5.53414 10.1151 6.19341 10.1151 6.88597C10.1085 7.61183 9.81512 8.26444 9.34179 8.73725Z" fill="white"/>
</g>
</svg>
