<svg width="56" height="57" viewBox="0 0 56 57" fill="none" xmlns="http://www.w3.org/2000/svg">
<path d="M43.0989 39.866L44.0089 47.2394C44.2422 49.176 42.1655 50.5294 40.5089 49.526L32.4355 44.7194C31.8755 44.3927 31.7355 43.6927 32.0389 43.1327C33.2055 40.986 33.8355 38.5594 33.8355 36.1327C33.8355 27.5927 26.5089 20.6394 17.5022 20.6394C15.6589 20.6394 13.8622 20.9194 12.1822 21.4794C11.3189 21.7594 10.4789 20.966 10.6889 20.0794C12.8122 11.586 20.9789 5.2627 30.7322 5.2627C42.1189 5.2627 51.3355 13.8727 51.3355 24.4894C51.3355 30.7894 48.0922 36.366 43.0989 39.866Z" fill="#1D6169"/>
<path d="M30.3307 36.132C30.3307 38.9087 29.3041 41.4753 27.5774 43.5053C25.2674 46.3053 21.6041 48.102 17.4974 48.102L11.4074 51.7187C10.3807 52.3487 9.07406 51.4853 9.21406 50.2953L9.7974 45.6987C6.67073 43.5287 4.66406 40.052 4.66406 36.132C4.66406 32.0253 6.8574 28.4087 10.2174 26.262C12.2941 24.9087 14.7907 24.1387 17.4974 24.1387C24.5907 24.1387 30.3307 29.5053 30.3307 36.132Z" fill="#1D6169"/>
</svg>
