<svg width="12" height="14" viewBox="0 0 12 14" fill="none" xmlns="http://www.w3.org/2000/svg">
<g id="Lock">
<path id="Fill 1" fill-rule="evenodd" clip-rule="evenodd" d="M8.68418 5.49971C8.40818 5.49971 8.18418 5.27571 8.18418 4.99971V3.56838C8.18418 2.17105 7.04752 1.03438 5.65018 1.03438H5.63952C4.96418 1.03438 4.33152 1.29438 3.85352 1.76838C3.37218 2.24438 3.10618 2.87971 3.10352 3.55705V4.99971C3.10352 5.27571 2.87952 5.49971 2.60352 5.49971C2.32752 5.49971 2.10352 5.27571 2.10352 4.99971V3.56838C2.10752 2.60838 2.47885 1.72238 3.14885 1.05838C3.81952 0.393714 4.70485 0.00904764 5.65218 0.034381C7.59885 0.034381 9.18418 1.61971 9.18418 3.56838V4.99971C9.18418 5.27571 8.96018 5.49971 8.68418 5.49971Z" fill="white"/>
<path id="Fill 3" fill-rule="evenodd" clip-rule="evenodd" d="M3.09636 5.45312C1.97769 5.45312 1.06836 6.36246 1.06836 7.48113V10.3405C1.06836 11.4591 1.97769 12.3685 3.09636 12.3685H8.19036C9.30836 12.3685 10.2184 11.4591 10.2184 10.3405V7.48113C10.2184 6.36246 9.30836 5.45312 8.19036 5.45312H3.09636ZM8.19036 13.3685H3.09636C1.42636 13.3685 0.0683594 12.0105 0.0683594 10.3405V7.48112C0.0683594 5.81112 1.42636 4.45312 3.09636 4.45312H8.19036C9.86036 4.45312 11.2184 5.81112 11.2184 7.48112V10.3405C11.2184 12.0105 9.86036 13.3685 8.19036 13.3685Z" fill="white"/>
<path id="Fill 5" fill-rule="evenodd" clip-rule="evenodd" d="M5.64258 10.1506C5.36658 10.1506 5.14258 9.92659 5.14258 9.65059V8.16992C5.14258 7.89392 5.36658 7.66992 5.64258 7.66992C5.91858 7.66992 6.14258 7.89392 6.14258 8.16992V9.65059C6.14258 9.92659 5.91858 10.1506 5.64258 10.1506Z" fill="white"/>
</g>
</svg>
