<svg width="26" height="31" viewBox="0 0 26 31" fill="none" xmlns="http://www.w3.org/2000/svg">
<g id="Unlock">
<path id="Unlock_2" fill-rule="evenodd" clip-rule="evenodd" d="M7.33909 10.7404H19.3468C22.883 10.7404 25.75 13.5448 25.75 17.0037V24.4105C25.75 27.8694 22.883 30.6738 19.3468 30.6738H6.65167C3.11703 30.6738 0.25 27.8694 0.25 24.4105V17.0037C0.25 14.1591 2.20099 11.7841 4.85616 11.0207L4.69002 11.0401V8.75454C4.7205 4.29822 8.42585 0.673828 12.968 0.673828C16.5194 0.673828 19.6577 2.86695 20.8161 6.11563C20.9381 6.44363 20.9076 6.80145 20.7552 7.11454C20.6027 7.42763 20.3299 7.66617 19.9931 7.77203C19.3072 8.00908 18.5451 7.65276 18.286 6.96694C17.5086 4.75891 15.3762 3.28291 12.9985 3.28291C9.88757 3.28291 7.37415 5.72949 7.35738 8.72472V10.7374L7.33909 10.7404ZM12.9931 23.6669C13.7399 23.6669 14.3344 23.0855 14.3344 22.3549V19.0451C14.3344 18.3295 13.7399 17.748 12.9931 17.748C12.2614 17.748 11.667 18.3295 11.667 19.0451V22.3549C11.667 23.0855 12.2614 23.6669 12.9931 23.6669Z" fill="#1D6169"/>
</g>
</svg>
