<svg width="16" height="16" viewBox="0 0 16 16" fill="none" xmlns="http://www.w3.org/2000/svg">
<path d="M4.80078 1.59961C4.37643 1.59961 3.96947 1.76818 3.66941 2.06824C3.36935 2.3683 3.20078 2.77526 3.20078 3.19961V7.23241C3.4656 7.18795 3.73597 7.18795 4.00078 7.23241V3.19961C4.00078 2.98744 4.08507 2.78395 4.2351 2.63392C4.38513 2.48389 4.58861 2.39961 4.80078 2.39961H8.00078V5.19961C8.00078 5.51787 8.12721 5.82309 8.35225 6.04814C8.5773 6.27318 8.88252 6.39961 9.20078 6.39961H12.0008V12.7996C12.0008 13.0118 11.9165 13.2153 11.7665 13.3653C11.6164 13.5153 11.413 13.5996 11.2008 13.5996H7.17038C7.1275 13.8791 7.03827 14.1495 6.90638 14.3996H11.2008C11.6251 14.3996 12.0321 14.231 12.3322 13.931C12.6322 13.6309 12.8008 13.224 12.8008 12.7996V5.93081C12.8005 5.61266 12.6739 5.30764 12.4488 5.08281L9.31758 1.95081C9.09262 1.72599 8.78762 1.59968 8.46958 1.59961H4.80078ZM11.8352 5.59961H9.20078C9.0947 5.59961 8.99295 5.55747 8.91794 5.48245C8.84292 5.40744 8.80078 5.3057 8.80078 5.19961V2.56521L11.8352 5.59961ZM5.20078 9.59961C5.20078 10.024 5.03221 10.4309 4.73215 10.731C4.43209 11.031 4.02513 11.1996 3.60078 11.1996C3.17643 11.1996 2.76947 11.031 2.46941 10.731C2.16935 10.4309 2.00078 10.024 2.00078 9.59961C2.00078 9.17526 2.16935 8.7683 2.46941 8.46824C2.76947 8.16818 3.17643 7.99961 3.60078 7.99961C4.02513 7.99961 4.43209 8.16818 4.73215 8.46824C5.03221 8.7683 5.20078 9.17526 5.20078 9.59961ZM6.40078 13.1996C6.40078 14.1956 5.60078 15.1996 3.60078 15.1996C1.60078 15.1996 0.800781 14.1996 0.800781 13.1996C0.800781 12.8813 0.927209 12.5761 1.15225 12.3511C1.3773 12.126 1.68252 11.9996 2.00078 11.9996H5.20078C5.51904 11.9996 5.82427 12.126 6.04931 12.3511C6.27435 12.5761 6.40078 12.8813 6.40078 13.1996Z" fill="#191919"/>
</svg>
