<svg width="24" height="25" viewBox="0 0 24 25" fill="none" xmlns="http://www.w3.org/2000/svg">
<g id="lucide:map-pin-off">
<g id="Group">
<path id="Vector" d="M12.75 7.59C13.2705 7.72359 13.7455 7.99453 14.1255 8.37449C14.5055 8.75446 14.7764 9.22951 14.91 9.75M17.072 17.572C15.438 19.742 13.545 21.484 12.601 22.299C12.4277 22.4293 12.2168 22.4998 12 22.4998C11.7832 22.4998 11.5723 22.4293 11.399 22.299C9.539 20.693 4 15.493 4 10.5C3.99988 8.86686 4.4996 7.27281 5.432 5.932M2 2.5L22 22.5" stroke="#606060" stroke-width="2" stroke-linecap="round" stroke-linejoin="round"/>
<path id="Vector_2" d="M8.47461 3.31847C9.69431 2.71979 11.0464 2.44162 12.4034 2.5102C13.7604 2.57877 15.0775 2.99183 16.2306 3.71043C17.3838 4.42902 18.3349 5.42947 18.9943 6.61744C19.6537 7.80542 19.9997 9.14176 19.9996 10.5005C19.9996 11.6835 19.6896 12.8775 19.1896 14.0335M9.12961 9.63047C8.97247 10.1501 8.95925 10.7026 9.09137 11.2291C9.22349 11.7556 9.49599 12.2364 9.87984 12.6202C10.2637 13.0041 10.7445 13.2766 11.271 13.4087C11.7975 13.5408 12.35 13.5276 12.8696 13.3705" stroke="#606060" stroke-width="2" stroke-linecap="round" stroke-linejoin="round"/>
</g>
</g>
</svg>
