<svg width="24" height="25" viewBox="0 0 24 25" fill="none" xmlns="http://www.w3.org/2000/svg">
<g id="tdesign:map-safety">
<path id="Vector" d="M9 2.3418L15.074 5.8858L22 2.9998V10.4998H20V5.9998L16 7.6668V9.4998H14V7.5738L10 5.2408V17.4258L11.868 18.5158L10.86 20.2428L8.926 19.1138L2 21.9998V6.4258L9 2.3418ZM8 17.3328V5.2408L4 7.5738V18.9998L8 17.3328ZM13.498 12.4978H22.498V18.1308C22.498 18.6296 22.3736 19.1204 22.1362 19.5591C21.8987 19.9977 21.5556 20.3701 21.138 20.6428L17.998 22.6948L14.858 20.6428C14.4404 20.3701 14.0973 19.9977 13.8598 19.5591C13.6224 19.1204 13.498 18.6296 13.498 18.1308V12.4978ZM15.498 14.4978V18.1308C15.498 18.297 15.5395 18.4605 15.6185 18.6066C15.6976 18.7528 15.8119 18.8769 15.951 18.9678L17.998 20.3048L20.045 18.9678C20.1841 18.8769 20.2984 18.7528 20.3775 18.6066C20.4565 18.4605 20.498 18.297 20.498 18.1308V14.4978H15.498Z" fill="#606060"/>
</g>
</svg>
