<svg width="19" height="19" viewBox="0 0 19 19" fill="none" xmlns="http://www.w3.org/2000/svg">
<path d="M3.69444 2.96875H15.3056C15.498 2.96875 15.6826 3.04521 15.8187 3.1813C15.9548 3.3174 16.0312 3.50198 16.0312 3.69444V15.3056C16.0312 15.498 15.9548 15.6826 15.8187 15.8187C15.6826 15.9548 15.498 16.0312 15.3056 16.0312H3.69444C3.50198 16.0312 3.3174 15.9548 3.1813 15.8187C3.04521 15.6826 2.96875 15.498 2.96875 15.3056V3.69444C2.96875 3.50198 3.04521 3.3174 3.1813 3.1813C3.3174 3.04521 3.50198 2.96875 3.69444 2.96875ZM8.77648 12.4028L13.9071 7.27139L12.881 6.24526L8.77648 10.3505L6.72349 8.29752L5.69736 9.32366L8.77648 12.4028Z" fill="#4545FE"/>
</svg>
