<svg width="16" height="16" viewBox="0 0 16 16" fill="none" xmlns="http://www.w3.org/2000/svg">
<path d="M3.33329 10C2.70663 10 2.12663 10.22 1.66663 10.5867C1.05329 11.0733 0.666626 11.8267 0.666626 12.6667C0.666626 14.14 1.85996 15.3333 3.33329 15.3333C4.00663 15.3333 4.61996 15.08 5.09329 14.6667C5.64663 14.18 5.99996 13.4667 5.99996 12.6667C5.99996 11.1933 4.80663 10 3.33329 10ZM3.99996 12.8333C3.99996 13.0067 3.90663 13.1733 3.75996 13.26L2.92663 13.76C2.84663 13.8133 2.75329 13.8333 2.66663 13.8333C2.49996 13.8333 2.33329 13.7467 2.23996 13.5933C2.09996 13.3533 2.17329 13.0467 2.41329 12.9067L3.00663 12.5533V11.8333C2.99996 11.56 3.22663 11.3333 3.49996 11.3333C3.77329 11.3333 3.99996 11.56 3.99996 11.8333V12.8333Z" fill="#EA580C"/>
<path d="M9.89996 2.63288V5.16621H8.89996V2.63288C8.89996 2.45288 8.73996 2.36621 8.63329 2.36621C8.59996 2.36621 8.56663 2.37288 8.53329 2.38621L3.24663 4.37954C2.89329 4.51288 2.66663 4.84621 2.66663 5.22621V5.67288C2.05996 6.12621 1.66663 6.85288 1.66663 7.67288V5.22621C1.66663 4.43288 2.15329 3.72621 2.89329 3.44621L8.18663 1.44621C8.33329 1.39288 8.48663 1.36621 8.63329 1.36621C9.29996 1.36621 9.89996 1.90621 9.89996 2.63288Z" fill="#EA580C"/>
<path d="M14.3334 9.66634V10.333C14.3334 10.513 14.1934 10.6597 14.0067 10.6663H13.0334C12.68 10.6663 12.36 10.4063 12.3334 10.0597C12.3134 9.85301 12.3934 9.65967 12.5267 9.52634C12.6467 9.39967 12.8134 9.33301 12.9934 9.33301H14C14.1934 9.33967 14.3334 9.48634 14.3334 9.66634Z" fill="#EA580C"/>
<path d="M12.9866 8.63366H13.6666C14.0333 8.63366 14.3333 8.33366 14.3333 7.96699V7.67366C14.3333 6.29366 13.2066 5.16699 11.8266 5.16699H4.17329C3.60663 5.16699 3.08663 5.35366 2.66663 5.67366C2.05996 6.12699 1.66663 6.85366 1.66663 7.67366V8.86033C1.66663 9.11366 1.93329 9.27366 2.17329 9.19366C2.54663 9.06699 2.93996 9.00033 3.33329 9.00033C5.35329 9.00033 6.99996 10.647 6.99996 12.667C6.99996 13.147 6.87329 13.6737 6.67329 14.1403C6.56663 14.3803 6.73329 14.667 6.99329 14.667H11.8266C13.2066 14.667 14.3333 13.5403 14.3333 12.1603V12.0337C14.3333 11.667 14.0333 11.367 13.6666 11.367H13.0866C12.4466 11.367 11.8333 10.9737 11.6666 10.3537C11.5333 9.84699 11.6933 9.35366 12.0266 9.03366C12.2733 8.78033 12.6133 8.63366 12.9866 8.63366ZM9.33329 8.50033H5.99996C5.72663 8.50033 5.49996 8.27366 5.49996 8.00033C5.49996 7.72699 5.72663 7.50033 5.99996 7.50033H9.33329C9.60663 7.50033 9.83329 7.72699 9.83329 8.00033C9.83329 8.27366 9.60663 8.50033 9.33329 8.50033Z" fill="#EA580C"/>
</svg>
