<svg width="73" height="73" viewBox="0 0 73 73" fill="none" xmlns="http://www.w3.org/2000/svg">
<rect x="0.617188" y="0.115234" width="72" height="72.001" rx="10.7018" fill="#211C6A"/>
<g clip-path="url(#clip0_28052_79615)">
<path d="M33.81 43.8677C33.4073 43.0625 33.0673 42.3082 32.6635 41.59C31.478 39.482 30.2771 37.3823 29.061 35.2908C28.6394 34.5658 28.1562 33.8781 27.6641 33.1158L28.3273 32.3942C31.8765 28.5381 35.4257 24.682 38.975 20.8258C40.8316 18.8135 43.5897 19.1319 44.9508 21.5091C47.4674 25.9027 49.9798 30.2986 52.4881 34.6968C53.7352 36.8921 52.6167 39.4805 50.1841 40.0812C49.154 40.3353 48.1194 40.5725 47.086 40.8119C42.7091 41.8252 38.3292 42.8367 33.9464 43.8463C33.9014 43.8565 33.8559 43.8637 33.81 43.8677Z" fill="white"/>
<path d="M23.8585 34.3559C24.2893 34.3692 24.7095 34.4946 25.0783 34.7199C25.447 34.9453 25.7519 35.263 25.9634 35.6422C27.4935 38.2813 29.0157 40.9239 30.5054 43.5856C30.8242 44.205 30.8931 44.9249 30.6976 45.5945C30.5022 46.264 30.0577 46.8312 29.4572 47.1771C28.8568 47.5231 28.147 47.6209 27.4767 47.4501C26.8064 47.2792 26.2276 46.853 25.8616 46.2608C24.3338 43.6375 22.8172 41.0074 21.3442 38.3559C20.3242 36.5242 21.6921 34.2893 23.8585 34.3559Z" fill="white"/>
<path d="M37.6172 45.5475C38.3721 45.3725 39.1282 45.1952 39.8854 45.0213C40.8495 44.7954 41.8136 44.5696 42.7822 44.3674C42.8541 44.3603 42.9267 44.3708 42.9937 44.3981C43.0607 44.4255 43.1201 44.4688 43.1669 44.5244C44.0147 45.9812 44.8715 47.4334 45.6711 48.9162C45.9969 49.5335 46.0701 50.2551 45.8753 50.9264C45.6805 51.5976 45.233 52.1651 44.6288 52.5073C43.3906 53.2187 41.7968 52.863 41.0598 51.6253C39.8876 49.6604 38.777 47.657 37.6407 45.6695C37.6285 45.6298 37.6207 45.5889 37.6172 45.5475Z" fill="white"/>
</g>
<defs>
<clipPath id="clip0_28052_79615">
<rect width="32" height="33.3714" fill="white" transform="translate(21 19.5)"/>
</clipPath>
</defs>
</svg>
