<svg width="72" height="72" viewBox="0 0 72 72" fill="none" xmlns="http://www.w3.org/2000/svg">
<rect x="0.484375" y="0.0136719" width="71.2115" height="71.2115" rx="12.4932" fill="#1D6169"/>
<path d="M55.61 33.4928L52.89 30.3328C52.37 29.7328 51.95 28.6128 51.95 27.8128V24.4128C51.95 22.2928 50.21 20.5528 48.09 20.5528H44.69C43.91 20.5528 42.77 20.1328 42.17 19.6128L39.01 16.8928C37.63 15.7128 35.37 15.7128 33.97 16.8928L30.83 19.6328C30.23 20.1328 29.09 20.5528 28.31 20.5528H24.85C22.73 20.5528 20.99 22.2928 20.99 24.4128V27.8328C20.99 28.6128 20.57 29.7328 20.07 30.3328L17.37 33.5128C16.21 34.8928 16.21 37.1328 17.37 38.5128L20.07 41.6928C20.57 42.2928 20.99 43.4128 20.99 44.1928V47.6128C20.99 49.7328 22.73 51.4728 24.85 51.4728H28.31C29.09 51.4728 30.23 51.8928 30.83 52.4128L33.99 55.1328C35.37 56.3128 37.63 56.3128 39.03 55.1328L42.19 52.4128C42.79 51.8928 43.91 51.4728 44.71 51.4728H48.11C50.23 51.4728 51.97 49.7328 51.97 47.6128V44.2128C51.97 43.4328 52.39 42.2928 52.91 41.6928L55.63 38.5328C56.79 37.1528 56.79 34.8728 55.61 33.4928ZM45.85 36.0128L43.51 43.1328C43.21 44.3128 41.95 45.2728 40.67 45.2728H36.97C36.33 45.2728 35.43 45.0528 35.03 44.6528L32.09 42.3528C32.03 43.6328 31.45 44.1728 30.03 44.1728H29.07C27.59 44.1728 26.99 43.5928 26.99 42.1928V32.6328C26.99 31.2328 27.59 30.6528 29.07 30.6528H30.05C31.53 30.6528 32.13 31.2328 32.13 32.6328V33.3528L36.01 27.5928C36.41 26.9728 37.43 26.5328 38.29 26.8728C39.23 27.1928 39.83 28.2328 39.63 29.1528L39.15 32.2728C39.11 32.5528 39.17 32.8128 39.35 33.0128C39.51 33.1928 39.75 33.3128 40.01 33.3128H43.91C44.67 33.3128 45.31 33.6128 45.69 34.1528C46.03 34.6728 46.09 35.3328 45.85 36.0128Z" fill="white"/>
</svg>
