<svg width="72" height="73" viewBox="0 0 72 73" fill="none" xmlns="http://www.w3.org/2000/svg">
<rect x="0.484375" y="0.912109" width="71.2115" height="71.2115" rx="12.4932" fill="#58A8FF"/>
<g filter="url(#filter0_iiii_24323_73378)">
<path d="M49.4379 18.4043H23.4219C19.0726 18.4043 15.5469 21.9301 15.5469 26.2793V49.5173C15.5469 53.8665 19.0726 57.3923 23.4219 57.3923H49.4379C53.7871 57.3923 57.3129 53.8665 57.3129 49.5173V26.2793C57.3129 21.9301 53.7871 18.4043 49.4379 18.4043Z" fill="url(#paint0_linear_24323_73378)"/>
</g>
<path d="M57.3598 28.5095H15.5938V25.94C15.5937 23.9111 16.3997 21.9653 17.8344 20.5307C19.269 19.096 21.2148 18.29 23.2438 18.29H49.7098C51.7387 18.29 53.6845 19.096 55.1191 20.5307C56.5538 21.9653 57.3598 23.9111 57.3598 25.94V28.5095Z" fill="url(#paint1_linear_24323_73378)"/>
<path d="M57.3598 28.5095H15.5938V25.94C15.5937 23.9111 16.3997 21.9653 17.8344 20.5307C19.269 19.096 21.2148 18.29 23.2438 18.29H49.7098C51.7387 18.29 53.6845 19.096 55.1191 20.5307C56.5538 21.9653 57.3598 23.9111 57.3598 25.94V28.5095Z" fill="url(#paint2_linear_24323_73378)"/>
<path d="M57.3598 28.5095H15.5938V25.94C15.5937 23.9111 16.3997 21.9653 17.8344 20.5307C19.269 19.096 21.2148 18.29 23.2438 18.29H49.7098C51.7387 18.29 53.6845 19.096 55.1191 20.5307C56.5538 21.9653 57.3598 23.9111 57.3598 25.94V28.5095Z" fill="url(#paint3_radial_24323_73378)"/>
<path d="M57.3598 28.5095H15.5938V25.94C15.5937 23.9111 16.3997 21.9653 17.8344 20.5307C19.269 19.096 21.2148 18.29 23.2438 18.29H49.7098C51.7387 18.29 53.6845 19.096 55.1191 20.5307C56.5538 21.9653 57.3598 23.9111 57.3598 25.94V28.5095Z" fill="url(#paint4_linear_24323_73378)"/>
<g filter="url(#filter1_ii_24323_73378)">
<path d="M57.3641 43.2266V49.6286C57.3641 51.6575 56.5581 53.6033 55.1234 55.0379C53.6888 56.4726 51.743 57.2786 49.7141 57.2786H43.2266L57.3641 43.2266Z" fill="#D3CBDD"/>
</g>
<g filter="url(#filter2_dii_24323_73378)">
<path d="M29.3778 32.7275H25.4703C25.3875 32.7275 25.3203 32.7947 25.3203 32.8775V36.785C25.3203 36.8679 25.3875 36.935 25.4703 36.935H29.3778C29.4607 36.935 29.5278 36.8679 29.5278 36.785V32.8775C29.5278 32.7947 29.4607 32.7275 29.3778 32.7275Z" fill="#9896A1"/>
</g>
<g filter="url(#filter3_dii_24323_73378)">
<path d="M38.3622 32.7275H34.4547C34.3718 32.7275 34.3047 32.7947 34.3047 32.8775V36.785C34.3047 36.8679 34.3718 36.935 34.4547 36.935H38.3622C38.445 36.935 38.5122 36.8679 38.5122 36.785V32.8775C38.5122 32.7947 38.445 32.7275 38.3622 32.7275Z" fill="#9896A1"/>
</g>
<g filter="url(#filter4_dii_24323_73378)">
<path d="M47.3466 32.7275H43.4391C43.3562 32.7275 43.2891 32.7947 43.2891 32.8775V36.785C43.2891 36.8679 43.3562 36.935 43.4391 36.935H47.3466C47.4294 36.935 47.4966 36.8679 47.4966 36.785V32.8775C47.4966 32.7947 47.4294 32.7275 47.3466 32.7275Z" fill="#9896A1"/>
</g>
<g filter="url(#filter5_dii_24323_73378)">
<path d="M29.3778 40.2275H25.4703C25.3875 40.2275 25.3203 40.2947 25.3203 40.3775V44.285C25.3203 44.3679 25.3875 44.435 25.4703 44.435H29.3778C29.4607 44.435 29.5278 44.3679 29.5278 44.285V40.3775C29.5278 40.2947 29.4607 40.2275 29.3778 40.2275Z" fill="#9896A1"/>
</g>
<g filter="url(#filter6_dii_24323_73378)">
<path d="M29.3778 47.7275H25.4703C25.3875 47.7275 25.3203 47.7947 25.3203 47.8775V51.785C25.3203 51.8679 25.3875 51.935 25.4703 51.935H29.3778C29.4607 51.935 29.5278 51.8679 29.5278 51.785V47.8775C29.5278 47.7947 29.4607 47.7275 29.3778 47.7275Z" fill="#9896A1"/>
</g>
<g filter="url(#filter7_dii_24323_73378)">
<path d="M38.3622 40.2275H34.4547C34.3718 40.2275 34.3047 40.2947 34.3047 40.3775V44.285C34.3047 44.3679 34.3718 44.435 34.4547 44.435H38.3622C38.445 44.435 38.5122 44.3679 38.5122 44.285V40.3775C38.5122 40.2947 38.445 40.2275 38.3622 40.2275Z" fill="#9896A1"/>
</g>
<g filter="url(#filter8_dii_24323_73378)">
<path d="M38.3622 47.7275H34.4547C34.3718 47.7275 34.3047 47.7947 34.3047 47.8775V51.785C34.3047 51.8679 34.3718 51.935 34.4547 51.935H38.3622C38.445 51.935 38.5122 51.8679 38.5122 51.785V47.8775C38.5122 47.7947 38.445 47.7275 38.3622 47.7275Z" fill="#9896A1"/>
</g>
<g filter="url(#filter9_dii_24323_73378)">
<path d="M47.3466 40.2275H43.4391C43.3562 40.2275 43.2891 40.2947 43.2891 40.3775V44.285C43.2891 44.3679 43.3562 44.435 43.4391 44.435H47.3466C47.4294 44.435 47.4966 44.3679 47.4966 44.285V40.3775C47.4966 40.2947 47.4294 40.2275 47.3466 40.2275Z" fill="url(#paint5_linear_24323_73378)"/>
</g>
<g filter="url(#filter10_dii_24323_73378)">
<path d="M47.3466 47.7275H43.4391C43.3562 47.7275 43.2891 47.7947 43.2891 47.8775V51.785C43.2891 51.8679 43.3562 51.935 43.4391 51.935H47.3466C47.4294 51.935 47.4966 51.8679 47.4966 51.785V47.8775C47.4966 47.7947 47.4294 47.7275 47.3466 47.7275Z" fill="#9896A1"/>
</g>
<g filter="url(#filter11_i_24323_73378)">
<path d="M57.222 43.493C57.29 43.4254 57.3364 43.339 57.3553 43.2449C57.3742 43.1508 57.3648 43.0533 57.3281 42.9646C57.2915 42.8759 57.2293 42.8001 57.1496 42.7467C57.0698 42.6934 56.976 42.665 56.88 42.665H55.125C51.8429 42.665 48.6953 43.9688 46.3746 46.2896C44.0538 48.6104 42.75 51.758 42.75 55.04V56.795C42.7499 56.891 42.7784 56.9848 42.8317 57.0646C42.885 57.1444 42.9608 57.2065 43.0495 57.2432C43.1382 57.2798 43.2358 57.2893 43.3299 57.2704C43.424 57.2515 43.5103 57.2051 43.578 57.137L57.222 43.493Z" fill="url(#paint6_radial_24323_73378)"/>
<path d="M57.222 43.493C57.29 43.4254 57.3364 43.339 57.3553 43.2449C57.3742 43.1508 57.3648 43.0533 57.3281 42.9646C57.2915 42.8759 57.2293 42.8001 57.1496 42.7467C57.0698 42.6934 56.976 42.665 56.88 42.665H55.125C51.8429 42.665 48.6953 43.9688 46.3746 46.2896C44.0538 48.6104 42.75 51.758 42.75 55.04V56.795C42.7499 56.891 42.7784 56.9848 42.8317 57.0646C42.885 57.1444 42.9608 57.2065 43.0495 57.2432C43.1382 57.2798 43.2358 57.2893 43.3299 57.2704C43.424 57.2515 43.5103 57.2051 43.578 57.137L57.222 43.493Z" fill="url(#paint7_linear_24323_73378)"/>
</g>
<g filter="url(#filter12_f_24323_73378)">
<path d="M55.8356 27.7266C55.8356 23.3766 53.9606 19.8516 47.9606 19.8516H32.7266" stroke="url(#paint8_radial_24323_73378)" stroke-width="0.278351"/>
</g>
<g filter="url(#filter13_f_24323_73378)">
<path d="M23 18.6113H26.75V22.8653C26.7517 23.3 26.5852 23.7184 26.2854 24.0331C25.9855 24.3477 25.5755 24.5342 25.1413 24.5534C24.7071 24.5725 24.2823 24.423 23.9558 24.136C23.6294 23.8491 23.4266 23.4469 23.39 23.0138L23 18.6113Z" fill="url(#paint9_linear_24323_73378)"/>
</g>
<g filter="url(#filter14_f_24323_73378)">
<path d="M42.6797 18.6113H46.4297V22.8653C46.4314 23.3 46.2649 23.7184 45.9651 24.0331C45.6652 24.3477 45.2552 24.5342 44.821 24.5534C44.3868 24.5725 43.962 24.423 43.6355 24.136C43.3091 23.8491 43.1063 23.4469 43.0697 23.0138L42.6797 18.6113Z" fill="url(#paint10_linear_24323_73378)"/>
</g>
<path d="M28.4688 17.2598C28.4688 16.2242 27.6293 15.3848 26.5938 15.3848C25.5582 15.3848 24.7188 16.2242 24.7188 17.2598V23.0483C24.7188 24.0838 25.5582 24.9233 26.5938 24.9233C27.6293 24.9233 28.4688 24.0838 28.4688 23.0483V17.2598Z" fill="url(#paint11_linear_24323_73378)"/>
<path d="M28.4688 17.2598C28.4688 16.2242 27.6293 15.3848 26.5938 15.3848C25.5582 15.3848 24.7188 16.2242 24.7188 17.2598V23.0483C24.7188 24.0838 25.5582 24.9233 26.5938 24.9233C27.6293 24.9233 28.4688 24.0838 28.4688 23.0483V17.2598Z" fill="url(#paint12_radial_24323_73378)"/>
<path d="M28.4688 17.2598C28.4688 16.2242 27.6293 15.3848 26.5938 15.3848C25.5582 15.3848 24.7188 16.2242 24.7188 17.2598V23.0483C24.7188 24.0838 25.5582 24.9233 26.5938 24.9233C27.6293 24.9233 28.4688 24.0838 28.4688 23.0483V17.2598Z" fill="url(#paint13_radial_24323_73378)"/>
<path d="M48.0391 17.2598C48.0391 16.2242 47.1996 15.3848 46.1641 15.3848C45.1285 15.3848 44.2891 16.2242 44.2891 17.2598V23.0483C44.2891 24.0838 45.1285 24.9233 46.1641 24.9233C47.1996 24.9233 48.0391 24.0838 48.0391 23.0483V17.2598Z" fill="url(#paint14_linear_24323_73378)"/>
<path d="M48.0391 17.2598C48.0391 16.2242 47.1996 15.3848 46.1641 15.3848C45.1285 15.3848 44.2891 16.2242 44.2891 17.2598V23.0483C44.2891 24.0838 45.1285 24.9233 46.1641 24.9233C47.1996 24.9233 48.0391 24.0838 48.0391 23.0483V17.2598Z" fill="url(#paint15_radial_24323_73378)"/>
<path d="M48.0391 17.2598C48.0391 16.2242 47.1996 15.3848 46.1641 15.3848C45.1285 15.3848 44.2891 16.2242 44.2891 17.2598V23.0483C44.2891 24.0838 45.1285 24.9233 46.1641 24.9233C47.1996 24.9233 48.0391 24.0838 48.0391 23.0483V17.2598Z" fill="url(#paint16_radial_24323_73378)"/>
<defs>
<filter id="filter0_iiii_24323_73378" x="15.3613" y="18.2187" width="42.1368" height="39.1738" filterUnits="userSpaceOnUse" color-interpolation-filters="sRGB">
<feFlood flood-opacity="0" result="BackgroundImageFix"/>
<feBlend mode="normal" in="SourceGraphic" in2="BackgroundImageFix" result="shape"/>
<feColorMatrix in="SourceAlpha" type="matrix" values="0 0 0 0 0 0 0 0 0 0 0 0 0 0 0 0 0 0 127 0" result="hardAlpha"/>
<feOffset dy="-0.185567"/>
<feGaussianBlur stdDeviation="0.278351"/>
<feComposite in2="hardAlpha" operator="arithmetic" k2="-1" k3="1"/>
<feColorMatrix type="matrix" values="0 0 0 0 0.67451 0 0 0 0 0.619608 0 0 0 0 0.74902 0 0 0 1 0"/>
<feBlend mode="normal" in2="shape" result="effect1_innerShadow_24323_73378"/>
<feColorMatrix in="SourceAlpha" type="matrix" values="0 0 0 0 0 0 0 0 0 0 0 0 0 0 0 0 0 0 127 0" result="hardAlpha"/>
<feOffset dx="0.185567"/>
<feGaussianBlur stdDeviation="0.139175"/>
<feComposite in2="hardAlpha" operator="arithmetic" k2="-1" k3="1"/>
<feColorMatrix type="matrix" values="0 0 0 0 0.8 0 0 0 0 0.788235 0 0 0 0 0.819608 0 0 0 1 0"/>
<feBlend mode="normal" in2="effect1_innerShadow_24323_73378" result="effect2_innerShadow_24323_73378"/>
<feColorMatrix in="SourceAlpha" type="matrix" values="0 0 0 0 0 0 0 0 0 0 0 0 0 0 0 0 0 0 127 0" result="hardAlpha"/>
<feOffset dx="-0.185567"/>
<feGaussianBlur stdDeviation="0.139175"/>
<feComposite in2="hardAlpha" operator="arithmetic" k2="-1" k3="1"/>
<feColorMatrix type="matrix" values="0 0 0 0 0.956863 0 0 0 0 0.945098 0 0 0 0 0.976471 0 0 0 1 0"/>
<feBlend mode="normal" in2="effect2_innerShadow_24323_73378" result="effect3_innerShadow_24323_73378"/>
<feColorMatrix in="SourceAlpha" type="matrix" values="0 0 0 0 0 0 0 0 0 0 0 0 0 0 0 0 0 0 127 0" result="hardAlpha"/>
<feOffset dx="0.0463918" dy="-0.0463918"/>
<feGaussianBlur stdDeviation="0.0927835"/>
<feComposite in2="hardAlpha" operator="arithmetic" k2="-1" k3="1"/>
<feColorMatrix type="matrix" values="0 0 0 0 0.670588 0 0 0 0 0.619608 0 0 0 0 0.745098 0 0 0 1 0"/>
<feBlend mode="normal" in2="effect3_innerShadow_24323_73378" result="effect4_innerShadow_24323_73378"/>
</filter>
<filter id="filter1_ii_24323_73378" x="43.041" y="43.1152" width="14.4004" height="14.1631" filterUnits="userSpaceOnUse" color-interpolation-filters="sRGB">
<feFlood flood-opacity="0" result="BackgroundImageFix"/>
<feBlend mode="normal" in="SourceGraphic" in2="BackgroundImageFix" result="shape"/>
<feColorMatrix in="SourceAlpha" type="matrix" values="0 0 0 0 0 0 0 0 0 0 0 0 0 0 0 0 0 0 127 0" result="hardAlpha"/>
<feOffset dx="-0.185567"/>
<feGaussianBlur stdDeviation="0.139175"/>
<feComposite in2="hardAlpha" operator="arithmetic" k2="-1" k3="1"/>
<feColorMatrix type="matrix" values="0 0 0 0 0.937255 0 0 0 0 0.917647 0 0 0 0 0.964706 0 0 0 1 0"/>
<feBlend mode="normal" in2="shape" result="effect1_innerShadow_24323_73378"/>
<feColorMatrix in="SourceAlpha" type="matrix" values="0 0 0 0 0 0 0 0 0 0 0 0 0 0 0 0 0 0 127 0" result="hardAlpha"/>
<feOffset dx="0.0742268" dy="-0.11134"/>
<feGaussianBlur stdDeviation="0.139175"/>
<feComposite in2="hardAlpha" operator="arithmetic" k2="-1" k3="1"/>
<feColorMatrix type="matrix" values="0 0 0 0 0.658824 0 0 0 0 0.607843 0 0 0 0 0.729412 0 0 0 1 0"/>
<feBlend mode="normal" in2="effect1_innerShadow_24323_73378" result="effect2_innerShadow_24323_73378"/>
</filter>
<filter id="filter2_dii_24323_73378" x="25.2461" y="32.6904" width="4.32228" height="4.31837" filterUnits="userSpaceOnUse" color-interpolation-filters="sRGB">
<feFlood flood-opacity="0" result="BackgroundImageFix"/>
<feColorMatrix in="SourceAlpha" type="matrix" values="0 0 0 0 0 0 0 0 0 0 0 0 0 0 0 0 0 0 127 0" result="hardAlpha"/>
<feOffset dx="-0.0185567" dy="0.0185567"/>
<feGaussianBlur stdDeviation="0.0278351"/>
<feComposite in2="hardAlpha" operator="out"/>
<feColorMatrix type="matrix" values="0 0 0 0 0.772549 0 0 0 0 0.752941 0 0 0 0 0.803922 0 0 0 1 0"/>
<feBlend mode="normal" in2="BackgroundImageFix" result="effect1_dropShadow_24323_73378"/>
<feBlend mode="normal" in="SourceGraphic" in2="effect1_dropShadow_24323_73378" result="shape"/>
<feColorMatrix in="SourceAlpha" type="matrix" values="0 0 0 0 0 0 0 0 0 0 0 0 0 0 0 0 0 0 127 0" result="hardAlpha"/>
<feOffset dx="-0.0185567" dy="0.0185567"/>
<feGaussianBlur stdDeviation="0.0139175"/>
<feComposite in2="hardAlpha" operator="arithmetic" k2="-1" k3="1"/>
<feColorMatrix type="matrix" values="0 0 0 0 0.654902 0 0 0 0 0.647059 0 0 0 0 0.682353 0 0 0 1 0"/>
<feBlend mode="normal" in2="shape" result="effect2_innerShadow_24323_73378"/>
<feColorMatrix in="SourceAlpha" type="matrix" values="0 0 0 0 0 0 0 0 0 0 0 0 0 0 0 0 0 0 127 0" result="hardAlpha"/>
<feOffset dx="0.0185567" dy="-0.0185567"/>
<feGaussianBlur stdDeviation="0.0139175"/>
<feComposite in2="hardAlpha" operator="arithmetic" k2="-1" k3="1"/>
<feColorMatrix type="matrix" values="0 0 0 0 0.572549 0 0 0 0 0.564706 0 0 0 0 0.607843 0 0 0 1 0"/>
<feBlend mode="normal" in2="effect2_innerShadow_24323_73378" result="effect3_innerShadow_24323_73378"/>
</filter>
<filter id="filter3_dii_24323_73378" x="34.2305" y="32.6904" width="4.32228" height="4.31837" filterUnits="userSpaceOnUse" color-interpolation-filters="sRGB">
<feFlood flood-opacity="0" result="BackgroundImageFix"/>
<feColorMatrix in="SourceAlpha" type="matrix" values="0 0 0 0 0 0 0 0 0 0 0 0 0 0 0 0 0 0 127 0" result="hardAlpha"/>
<feOffset dx="-0.0185567" dy="0.0185567"/>
<feGaussianBlur stdDeviation="0.0278351"/>
<feComposite in2="hardAlpha" operator="out"/>
<feColorMatrix type="matrix" values="0 0 0 0 0.772549 0 0 0 0 0.752941 0 0 0 0 0.803922 0 0 0 1 0"/>
<feBlend mode="normal" in2="BackgroundImageFix" result="effect1_dropShadow_24323_73378"/>
<feBlend mode="normal" in="SourceGraphic" in2="effect1_dropShadow_24323_73378" result="shape"/>
<feColorMatrix in="SourceAlpha" type="matrix" values="0 0 0 0 0 0 0 0 0 0 0 0 0 0 0 0 0 0 127 0" result="hardAlpha"/>
<feOffset dx="-0.0185567" dy="0.0185567"/>
<feGaussianBlur stdDeviation="0.0139175"/>
<feComposite in2="hardAlpha" operator="arithmetic" k2="-1" k3="1"/>
<feColorMatrix type="matrix" values="0 0 0 0 0.654902 0 0 0 0 0.647059 0 0 0 0 0.682353 0 0 0 1 0"/>
<feBlend mode="normal" in2="shape" result="effect2_innerShadow_24323_73378"/>
<feColorMatrix in="SourceAlpha" type="matrix" values="0 0 0 0 0 0 0 0 0 0 0 0 0 0 0 0 0 0 127 0" result="hardAlpha"/>
<feOffset dx="0.0185567" dy="-0.0185567"/>
<feGaussianBlur stdDeviation="0.0139175"/>
<feComposite in2="hardAlpha" operator="arithmetic" k2="-1" k3="1"/>
<feColorMatrix type="matrix" values="0 0 0 0 0.572549 0 0 0 0 0.564706 0 0 0 0 0.607843 0 0 0 1 0"/>
<feBlend mode="normal" in2="effect2_innerShadow_24323_73378" result="effect3_innerShadow_24323_73378"/>
</filter>
<filter id="filter4_dii_24323_73378" x="43.2148" y="32.6904" width="4.32228" height="4.31837" filterUnits="userSpaceOnUse" color-interpolation-filters="sRGB">
<feFlood flood-opacity="0" result="BackgroundImageFix"/>
<feColorMatrix in="SourceAlpha" type="matrix" values="0 0 0 0 0 0 0 0 0 0 0 0 0 0 0 0 0 0 127 0" result="hardAlpha"/>
<feOffset dx="-0.0185567" dy="0.0185567"/>
<feGaussianBlur stdDeviation="0.0278351"/>
<feComposite in2="hardAlpha" operator="out"/>
<feColorMatrix type="matrix" values="0 0 0 0 0.772549 0 0 0 0 0.752941 0 0 0 0 0.803922 0 0 0 1 0"/>
<feBlend mode="normal" in2="BackgroundImageFix" result="effect1_dropShadow_24323_73378"/>
<feBlend mode="normal" in="SourceGraphic" in2="effect1_dropShadow_24323_73378" result="shape"/>
<feColorMatrix in="SourceAlpha" type="matrix" values="0 0 0 0 0 0 0 0 0 0 0 0 0 0 0 0 0 0 127 0" result="hardAlpha"/>
<feOffset dx="-0.0185567" dy="0.0185567"/>
<feGaussianBlur stdDeviation="0.0139175"/>
<feComposite in2="hardAlpha" operator="arithmetic" k2="-1" k3="1"/>
<feColorMatrix type="matrix" values="0 0 0 0 0.654902 0 0 0 0 0.647059 0 0 0 0 0.682353 0 0 0 1 0"/>
<feBlend mode="normal" in2="shape" result="effect2_innerShadow_24323_73378"/>
<feColorMatrix in="SourceAlpha" type="matrix" values="0 0 0 0 0 0 0 0 0 0 0 0 0 0 0 0 0 0 127 0" result="hardAlpha"/>
<feOffset dx="0.0185567" dy="-0.0185567"/>
<feGaussianBlur stdDeviation="0.0139175"/>
<feComposite in2="hardAlpha" operator="arithmetic" k2="-1" k3="1"/>
<feColorMatrix type="matrix" values="0 0 0 0 0.572549 0 0 0 0 0.564706 0 0 0 0 0.607843 0 0 0 1 0"/>
<feBlend mode="normal" in2="effect2_innerShadow_24323_73378" result="effect3_innerShadow_24323_73378"/>
</filter>
<filter id="filter5_dii_24323_73378" x="25.2461" y="40.1904" width="4.32228" height="4.31837" filterUnits="userSpaceOnUse" color-interpolation-filters="sRGB">
<feFlood flood-opacity="0" result="BackgroundImageFix"/>
<feColorMatrix in="SourceAlpha" type="matrix" values="0 0 0 0 0 0 0 0 0 0 0 0 0 0 0 0 0 0 127 0" result="hardAlpha"/>
<feOffset dx="-0.0185567" dy="0.0185567"/>
<feGaussianBlur stdDeviation="0.0278351"/>
<feComposite in2="hardAlpha" operator="out"/>
<feColorMatrix type="matrix" values="0 0 0 0 0.772549 0 0 0 0 0.752941 0 0 0 0 0.803922 0 0 0 1 0"/>
<feBlend mode="normal" in2="BackgroundImageFix" result="effect1_dropShadow_24323_73378"/>
<feBlend mode="normal" in="SourceGraphic" in2="effect1_dropShadow_24323_73378" result="shape"/>
<feColorMatrix in="SourceAlpha" type="matrix" values="0 0 0 0 0 0 0 0 0 0 0 0 0 0 0 0 0 0 127 0" result="hardAlpha"/>
<feOffset dx="-0.0185567" dy="0.0185567"/>
<feGaussianBlur stdDeviation="0.0139175"/>
<feComposite in2="hardAlpha" operator="arithmetic" k2="-1" k3="1"/>
<feColorMatrix type="matrix" values="0 0 0 0 0.654902 0 0 0 0 0.647059 0 0 0 0 0.682353 0 0 0 1 0"/>
<feBlend mode="normal" in2="shape" result="effect2_innerShadow_24323_73378"/>
<feColorMatrix in="SourceAlpha" type="matrix" values="0 0 0 0 0 0 0 0 0 0 0 0 0 0 0 0 0 0 127 0" result="hardAlpha"/>
<feOffset dx="0.0185567" dy="-0.0185567"/>
<feGaussianBlur stdDeviation="0.0139175"/>
<feComposite in2="hardAlpha" operator="arithmetic" k2="-1" k3="1"/>
<feColorMatrix type="matrix" values="0 0 0 0 0.572549 0 0 0 0 0.564706 0 0 0 0 0.607843 0 0 0 1 0"/>
<feBlend mode="normal" in2="effect2_innerShadow_24323_73378" result="effect3_innerShadow_24323_73378"/>
</filter>
<filter id="filter6_dii_24323_73378" x="25.2461" y="47.6904" width="4.32228" height="4.31837" filterUnits="userSpaceOnUse" color-interpolation-filters="sRGB">
<feFlood flood-opacity="0" result="BackgroundImageFix"/>
<feColorMatrix in="SourceAlpha" type="matrix" values="0 0 0 0 0 0 0 0 0 0 0 0 0 0 0 0 0 0 127 0" result="hardAlpha"/>
<feOffset dx="-0.0185567" dy="0.0185567"/>
<feGaussianBlur stdDeviation="0.0278351"/>
<feComposite in2="hardAlpha" operator="out"/>
<feColorMatrix type="matrix" values="0 0 0 0 0.772549 0 0 0 0 0.752941 0 0 0 0 0.803922 0 0 0 1 0"/>
<feBlend mode="normal" in2="BackgroundImageFix" result="effect1_dropShadow_24323_73378"/>
<feBlend mode="normal" in="SourceGraphic" in2="effect1_dropShadow_24323_73378" result="shape"/>
<feColorMatrix in="SourceAlpha" type="matrix" values="0 0 0 0 0 0 0 0 0 0 0 0 0 0 0 0 0 0 127 0" result="hardAlpha"/>
<feOffset dx="-0.0185567" dy="0.0185567"/>
<feGaussianBlur stdDeviation="0.0139175"/>
<feComposite in2="hardAlpha" operator="arithmetic" k2="-1" k3="1"/>
<feColorMatrix type="matrix" values="0 0 0 0 0.654902 0 0 0 0 0.647059 0 0 0 0 0.682353 0 0 0 1 0"/>
<feBlend mode="normal" in2="shape" result="effect2_innerShadow_24323_73378"/>
<feColorMatrix in="SourceAlpha" type="matrix" values="0 0 0 0 0 0 0 0 0 0 0 0 0 0 0 0 0 0 127 0" result="hardAlpha"/>
<feOffset dx="0.0185567" dy="-0.0185567"/>
<feGaussianBlur stdDeviation="0.0139175"/>
<feComposite in2="hardAlpha" operator="arithmetic" k2="-1" k3="1"/>
<feColorMatrix type="matrix" values="0 0 0 0 0.572549 0 0 0 0 0.564706 0 0 0 0 0.607843 0 0 0 1 0"/>
<feBlend mode="normal" in2="effect2_innerShadow_24323_73378" result="effect3_innerShadow_24323_73378"/>
</filter>
<filter id="filter7_dii_24323_73378" x="34.2305" y="40.1904" width="4.32228" height="4.31837" filterUnits="userSpaceOnUse" color-interpolation-filters="sRGB">
<feFlood flood-opacity="0" result="BackgroundImageFix"/>
<feColorMatrix in="SourceAlpha" type="matrix" values="0 0 0 0 0 0 0 0 0 0 0 0 0 0 0 0 0 0 127 0" result="hardAlpha"/>
<feOffset dx="-0.0185567" dy="0.0185567"/>
<feGaussianBlur stdDeviation="0.0278351"/>
<feComposite in2="hardAlpha" operator="out"/>
<feColorMatrix type="matrix" values="0 0 0 0 0.772549 0 0 0 0 0.752941 0 0 0 0 0.803922 0 0 0 1 0"/>
<feBlend mode="normal" in2="BackgroundImageFix" result="effect1_dropShadow_24323_73378"/>
<feBlend mode="normal" in="SourceGraphic" in2="effect1_dropShadow_24323_73378" result="shape"/>
<feColorMatrix in="SourceAlpha" type="matrix" values="0 0 0 0 0 0 0 0 0 0 0 0 0 0 0 0 0 0 127 0" result="hardAlpha"/>
<feOffset dx="-0.0185567" dy="0.0185567"/>
<feGaussianBlur stdDeviation="0.0139175"/>
<feComposite in2="hardAlpha" operator="arithmetic" k2="-1" k3="1"/>
<feColorMatrix type="matrix" values="0 0 0 0 0.654902 0 0 0 0 0.647059 0 0 0 0 0.682353 0 0 0 1 0"/>
<feBlend mode="normal" in2="shape" result="effect2_innerShadow_24323_73378"/>
<feColorMatrix in="SourceAlpha" type="matrix" values="0 0 0 0 0 0 0 0 0 0 0 0 0 0 0 0 0 0 127 0" result="hardAlpha"/>
<feOffset dx="0.0185567" dy="-0.0185567"/>
<feGaussianBlur stdDeviation="0.0139175"/>
<feComposite in2="hardAlpha" operator="arithmetic" k2="-1" k3="1"/>
<feColorMatrix type="matrix" values="0 0 0 0 0.572549 0 0 0 0 0.564706 0 0 0 0 0.607843 0 0 0 1 0"/>
<feBlend mode="normal" in2="effect2_innerShadow_24323_73378" result="effect3_innerShadow_24323_73378"/>
</filter>
<filter id="filter8_dii_24323_73378" x="34.2305" y="47.6904" width="4.32228" height="4.31837" filterUnits="userSpaceOnUse" color-interpolation-filters="sRGB">
<feFlood flood-opacity="0" result="BackgroundImageFix"/>
<feColorMatrix in="SourceAlpha" type="matrix" values="0 0 0 0 0 0 0 0 0 0 0 0 0 0 0 0 0 0 127 0" result="hardAlpha"/>
<feOffset dx="-0.0185567" dy="0.0185567"/>
<feGaussianBlur stdDeviation="0.0278351"/>
<feComposite in2="hardAlpha" operator="out"/>
<feColorMatrix type="matrix" values="0 0 0 0 0.772549 0 0 0 0 0.752941 0 0 0 0 0.803922 0 0 0 1 0"/>
<feBlend mode="normal" in2="BackgroundImageFix" result="effect1_dropShadow_24323_73378"/>
<feBlend mode="normal" in="SourceGraphic" in2="effect1_dropShadow_24323_73378" result="shape"/>
<feColorMatrix in="SourceAlpha" type="matrix" values="0 0 0 0 0 0 0 0 0 0 0 0 0 0 0 0 0 0 127 0" result="hardAlpha"/>
<feOffset dx="-0.0185567" dy="0.0185567"/>
<feGaussianBlur stdDeviation="0.0139175"/>
<feComposite in2="hardAlpha" operator="arithmetic" k2="-1" k3="1"/>
<feColorMatrix type="matrix" values="0 0 0 0 0.654902 0 0 0 0 0.647059 0 0 0 0 0.682353 0 0 0 1 0"/>
<feBlend mode="normal" in2="shape" result="effect2_innerShadow_24323_73378"/>
<feColorMatrix in="SourceAlpha" type="matrix" values="0 0 0 0 0 0 0 0 0 0 0 0 0 0 0 0 0 0 127 0" result="hardAlpha"/>
<feOffset dx="0.0185567" dy="-0.0185567"/>
<feGaussianBlur stdDeviation="0.0139175"/>
<feComposite in2="hardAlpha" operator="arithmetic" k2="-1" k3="1"/>
<feColorMatrix type="matrix" values="0 0 0 0 0.572549 0 0 0 0 0.564706 0 0 0 0 0.607843 0 0 0 1 0"/>
<feBlend mode="normal" in2="effect2_innerShadow_24323_73378" result="effect3_innerShadow_24323_73378"/>
</filter>
<filter id="filter9_dii_24323_73378" x="43.2148" y="40.1904" width="4.32228" height="4.31837" filterUnits="userSpaceOnUse" color-interpolation-filters="sRGB">
<feFlood flood-opacity="0" result="BackgroundImageFix"/>
<feColorMatrix in="SourceAlpha" type="matrix" values="0 0 0 0 0 0 0 0 0 0 0 0 0 0 0 0 0 0 127 0" result="hardAlpha"/>
<feOffset dx="-0.0185567" dy="0.0185567"/>
<feGaussianBlur stdDeviation="0.0278351"/>
<feComposite in2="hardAlpha" operator="out"/>
<feColorMatrix type="matrix" values="0 0 0 0 0.858824 0 0 0 0 0.835294 0 0 0 0 0.917647 0 0 0 1 0"/>
<feBlend mode="normal" in2="BackgroundImageFix" result="effect1_dropShadow_24323_73378"/>
<feBlend mode="normal" in="SourceGraphic" in2="effect1_dropShadow_24323_73378" result="shape"/>
<feColorMatrix in="SourceAlpha" type="matrix" values="0 0 0 0 0 0 0 0 0 0 0 0 0 0 0 0 0 0 127 0" result="hardAlpha"/>
<feOffset dx="-0.0185567" dy="0.0185567"/>
<feGaussianBlur stdDeviation="0.0139175"/>
<feComposite in2="hardAlpha" operator="arithmetic" k2="-1" k3="1"/>
<feColorMatrix type="matrix" values="0 0 0 0 0.34902 0 0 0 0 0.631373 0 0 0 0 0.917647 0 0 0 1 0"/>
<feBlend mode="normal" in2="shape" result="effect2_innerShadow_24323_73378"/>
<feColorMatrix in="SourceAlpha" type="matrix" values="0 0 0 0 0 0 0 0 0 0 0 0 0 0 0 0 0 0 127 0" result="hardAlpha"/>
<feOffset dx="0.0185567" dy="-0.0185567"/>
<feGaussianBlur stdDeviation="0.0139175"/>
<feComposite in2="hardAlpha" operator="arithmetic" k2="-1" k3="1"/>
<feColorMatrix type="matrix" values="0 0 0 0 0.254902 0 0 0 0 0.498039 0 0 0 0 0.819608 0 0 0 1 0"/>
<feBlend mode="normal" in2="effect2_innerShadow_24323_73378" result="effect3_innerShadow_24323_73378"/>
</filter>
<filter id="filter10_dii_24323_73378" x="43.2148" y="47.6904" width="4.32228" height="4.31837" filterUnits="userSpaceOnUse" color-interpolation-filters="sRGB">
<feFlood flood-opacity="0" result="BackgroundImageFix"/>
<feColorMatrix in="SourceAlpha" type="matrix" values="0 0 0 0 0 0 0 0 0 0 0 0 0 0 0 0 0 0 127 0" result="hardAlpha"/>
<feOffset dx="-0.0185567" dy="0.0185567"/>
<feGaussianBlur stdDeviation="0.0278351"/>
<feComposite in2="hardAlpha" operator="out"/>
<feColorMatrix type="matrix" values="0 0 0 0 0.772549 0 0 0 0 0.752941 0 0 0 0 0.803922 0 0 0 1 0"/>
<feBlend mode="normal" in2="BackgroundImageFix" result="effect1_dropShadow_24323_73378"/>
<feBlend mode="normal" in="SourceGraphic" in2="effect1_dropShadow_24323_73378" result="shape"/>
<feColorMatrix in="SourceAlpha" type="matrix" values="0 0 0 0 0 0 0 0 0 0 0 0 0 0 0 0 0 0 127 0" result="hardAlpha"/>
<feOffset dx="-0.0185567" dy="0.0185567"/>
<feGaussianBlur stdDeviation="0.0139175"/>
<feComposite in2="hardAlpha" operator="arithmetic" k2="-1" k3="1"/>
<feColorMatrix type="matrix" values="0 0 0 0 0.654902 0 0 0 0 0.647059 0 0 0 0 0.682353 0 0 0 1 0"/>
<feBlend mode="normal" in2="shape" result="effect2_innerShadow_24323_73378"/>
<feColorMatrix in="SourceAlpha" type="matrix" values="0 0 0 0 0 0 0 0 0 0 0 0 0 0 0 0 0 0 127 0" result="hardAlpha"/>
<feOffset dx="0.0185567" dy="-0.0185567"/>
<feGaussianBlur stdDeviation="0.0139175"/>
<feComposite in2="hardAlpha" operator="arithmetic" k2="-1" k3="1"/>
<feColorMatrix type="matrix" values="0 0 0 0 0.572549 0 0 0 0 0.564706 0 0 0 0 0.607843 0 0 0 1 0"/>
<feBlend mode="normal" in2="effect2_innerShadow_24323_73378" result="effect3_innerShadow_24323_73378"/>
</filter>
<filter id="filter11_i_24323_73378" x="42.75" y="42.665" width="14.6357" height="14.6338" filterUnits="userSpaceOnUse" color-interpolation-filters="sRGB">
<feFlood flood-opacity="0" result="BackgroundImageFix"/>
<feBlend mode="normal" in="SourceGraphic" in2="BackgroundImageFix" result="shape"/>
<feColorMatrix in="SourceAlpha" type="matrix" values="0 0 0 0 0 0 0 0 0 0 0 0 0 0 0 0 0 0 127 0" result="hardAlpha"/>
<feOffset dx="0.0185567" dy="0.0185567"/>
<feGaussianBlur stdDeviation="0.0185567"/>
<feComposite in2="hardAlpha" operator="arithmetic" k2="-1" k3="1"/>
<feColorMatrix type="matrix" values="0 0 0 0 0.803922 0 0 0 0 0.807843 0 0 0 0 0.870588 0 0 0 1 0"/>
<feBlend mode="normal" in2="shape" result="effect1_innerShadow_24323_73378"/>
</filter>
<filter id="filter12_f_24323_73378" x="32.4946" y="19.48" width="23.7139" height="8.47857" filterUnits="userSpaceOnUse" color-interpolation-filters="sRGB">
<feFlood flood-opacity="0" result="BackgroundImageFix"/>
<feBlend mode="normal" in="SourceGraphic" in2="BackgroundImageFix" result="shape"/>
<feGaussianBlur stdDeviation="0.115979" result="effect1_foregroundBlur_24323_73378"/>
</filter>
<filter id="filter13_f_24323_73378" x="22.8608" y="18.4722" width="4.02835" height="6.22171" filterUnits="userSpaceOnUse" color-interpolation-filters="sRGB">
<feFlood flood-opacity="0" result="BackgroundImageFix"/>
<feBlend mode="normal" in="SourceGraphic" in2="BackgroundImageFix" result="shape"/>
<feGaussianBlur stdDeviation="0.0695876" result="effect1_foregroundBlur_24323_73378"/>
</filter>
<filter id="filter14_f_24323_73378" x="42.5405" y="18.4722" width="4.02835" height="6.22171" filterUnits="userSpaceOnUse" color-interpolation-filters="sRGB">
<feFlood flood-opacity="0" result="BackgroundImageFix"/>
<feBlend mode="normal" in="SourceGraphic" in2="BackgroundImageFix" result="shape"/>
<feGaussianBlur stdDeviation="0.0695876" result="effect1_foregroundBlur_24323_73378"/>
</filter>
<linearGradient id="paint0_linear_24323_73378" x1="20.1924" y1="40.1543" x2="54.4644" y2="40.1543" gradientUnits="userSpaceOnUse">
<stop stop-color="#E4DEEC"/>
<stop offset="1" stop-color="#E7E2EF"/>
</linearGradient>
<linearGradient id="paint1_linear_24323_73378" x1="15.1032" y1="26.183" x2="54.2308" y2="26.183" gradientUnits="userSpaceOnUse">
<stop stop-color="#4271C7"/>
<stop offset="0.794" stop-color="#4F9FDC"/>
</linearGradient>
<linearGradient id="paint2_linear_24323_73378" x1="36.4768" y1="18.29" x2="36.4768" y2="21.164" gradientUnits="userSpaceOnUse">
<stop stop-color="#5591D3"/>
<stop offset="1" stop-color="#5591D3" stop-opacity="0"/>
</linearGradient>
<radialGradient id="paint3_radial_24323_73378" cx="0" cy="0" r="1" gradientUnits="userSpaceOnUse" gradientTransform="translate(45.0433 28.5095) rotate(-170.157) scale(29.8898 16.6167)">
<stop offset="0.759" stop-color="#3E62C2" stop-opacity="0"/>
<stop offset="1" stop-color="#3B41A1"/>
</radialGradient>
<linearGradient id="paint4_linear_24323_73378" x1="44.2393" y1="29.741" x2="44.2393" y2="27.551" gradientUnits="userSpaceOnUse">
<stop stop-color="#437AC4"/>
<stop offset="1" stop-color="#437AC4" stop-opacity="0"/>
</linearGradient>
<linearGradient id="paint5_linear_24323_73378" x1="47.9421" y1="40.2275" x2="42.4566" y2="44.165" gradientUnits="userSpaceOnUse">
<stop stop-color="#4C92DE"/>
<stop offset="1" stop-color="#4B91DB"/>
</linearGradient>
<radialGradient id="paint6_radial_24323_73378" cx="0" cy="0" r="1" gradientUnits="userSpaceOnUse" gradientTransform="translate(47.0055 46.322) rotate(45.6993) scale(5.10077 12.3612)">
<stop stop-color="#E4DDED"/>
<stop offset="1" stop-color="#D5CFDC"/>
</radialGradient>
<linearGradient id="paint7_linear_24323_73378" x1="50.1465" y1="50.8385" x2="49.7595" y2="50.4515" gradientUnits="userSpaceOnUse">
<stop offset="0.461" stop-color="#BFB8CA"/>
<stop offset="1" stop-color="#D9D3E0" stop-opacity="0"/>
</linearGradient>
<radialGradient id="paint8_radial_24323_73378" cx="0" cy="0" r="1" gradientUnits="userSpaceOnUse" gradientTransform="translate(58.8374 19.8525) rotate(152.761) scale(15.1311 21.7574)">
<stop stop-color="#70C0F8"/>
<stop offset="1" stop-color="#70C0F8" stop-opacity="0"/>
</radialGradient>
<linearGradient id="paint9_linear_24323_73378" x1="24.7055" y1="24.0923" x2="23.993" y2="12.2363" gradientUnits="userSpaceOnUse">
<stop stop-color="#375DB2"/>
<stop offset="1" stop-color="#375DB2" stop-opacity="0"/>
</linearGradient>
<linearGradient id="paint10_linear_24323_73378" x1="44.3837" y1="24.0923" x2="43.6727" y2="12.2363" gradientUnits="userSpaceOnUse">
<stop stop-color="#407FC8"/>
<stop offset="1" stop-color="#407FC8" stop-opacity="0"/>
</linearGradient>
<linearGradient id="paint11_linear_24323_73378" x1="28.4688" y1="20.8613" x2="24.7188" y2="20.8613" gradientUnits="userSpaceOnUse">
<stop stop-color="#C0C0C1"/>
<stop offset="0.932" stop-color="#A6A6A8"/>
</linearGradient>
<radialGradient id="paint12_radial_24323_73378" cx="0" cy="0" r="1" gradientUnits="userSpaceOnUse" gradientTransform="translate(26.5938 24.9233) rotate(-90) scale(5.77567 5.34709)">
<stop stop-color="#8C88AD"/>
<stop offset="1" stop-color="#9D9AA2" stop-opacity="0"/>
</radialGradient>
<radialGradient id="paint13_radial_24323_73378" cx="0" cy="0" r="1" gradientUnits="userSpaceOnUse" gradientTransform="translate(27.7622 18.6113) rotate(90) scale(4.28571 2.31292)">
<stop stop-color="#D9D8DD"/>
<stop offset="0.996" stop-color="#BEBEC0" stop-opacity="0"/>
</radialGradient>
<linearGradient id="paint14_linear_24323_73378" x1="48.0391" y1="20.8613" x2="44.2891" y2="20.8613" gradientUnits="userSpaceOnUse">
<stop stop-color="#C0C0C1"/>
<stop offset="0.932" stop-color="#A6A6A8"/>
</linearGradient>
<radialGradient id="paint15_radial_24323_73378" cx="0" cy="0" r="1" gradientUnits="userSpaceOnUse" gradientTransform="translate(46.1641 24.9233) rotate(-90) scale(5.77567 5.34709)">
<stop stop-color="#8C88AD"/>
<stop offset="1" stop-color="#9D9AA2" stop-opacity="0"/>
</radialGradient>
<radialGradient id="paint16_radial_24323_73378" cx="0" cy="0" r="1" gradientUnits="userSpaceOnUse" gradientTransform="translate(47.3326 18.6113) rotate(90) scale(4.28571 2.31292)">
<stop stop-color="#D9D8DD"/>
<stop offset="0.996" stop-color="#BEBEC0" stop-opacity="0"/>
</radialGradient>
</defs>
</svg>
