<svg width="72" height="72" viewBox="0 0 72 72" fill="none" xmlns="http://www.w3.org/2000/svg">
<g id="Fluent emoji calendar 1">
<g id="Group">
<g id="Group_2" filter="url(#filter0_iiii_16902_52862)">
<path id="Vector" d="M54.9002 9H16.5949C10.1912 9 5 14.1912 5 20.5949V54.81C5 61.2137 10.1912 66.4049 16.5949 66.4049H54.9002C61.3039 66.4049 66.4952 61.2137 66.4952 54.81V20.5949C66.4952 14.1912 61.3039 9 54.9002 9Z" fill="url(#paint0_linear_16902_52862)"/>
</g>
<path id="Vector_2" d="M66.5655 23.878H5.07031V20.0947C5.07031 17.1074 6.25702 14.2425 8.36936 12.1301C10.4817 10.0178 13.3467 8.83105 16.334 8.83105H55.3018C58.2891 8.83105 61.1541 10.0178 63.2664 12.1301C65.3788 14.2425 66.5655 17.1074 66.5655 20.0947V23.878Z" fill="url(#paint1_linear_16902_52862)"/>
<path id="Vector_3" d="M66.5655 23.878H5.07031V20.0947C5.07031 17.1074 6.25702 14.2425 8.36936 12.1301C10.4817 10.0178 13.3467 8.83105 16.334 8.83105H55.3018C58.2891 8.83105 61.1541 10.0178 63.2664 12.1301C65.3788 14.2425 66.5655 17.1074 66.5655 20.0947V23.878Z" fill="url(#paint2_linear_16902_52862)"/>
<path id="Vector_4" d="M66.5655 23.878H5.07031V20.0947C5.07031 17.1074 6.25702 14.2425 8.36936 12.1301C10.4817 10.0178 13.3467 8.83105 16.334 8.83105H55.3018C58.2891 8.83105 61.1541 10.0178 63.2664 12.1301C65.3788 14.2425 66.5655 17.1074 66.5655 20.0947V23.878Z" fill="url(#paint3_radial_16902_52862)"/>
<path id="Vector_5" d="M66.5655 23.878H5.07031V20.0947C5.07031 17.1074 6.25702 14.2425 8.36936 12.1301C10.4817 10.0178 13.3467 8.83105 16.334 8.83105H55.3018C58.2891 8.83105 61.1541 10.0178 63.2664 12.1301C65.3788 14.2425 66.5655 17.1074 66.5655 20.0947V23.878Z" fill="url(#paint4_linear_16902_52862)"/>
<g id="Group_3" filter="url(#filter1_ii_16902_52862)">
<path id="Vector_6" d="M66.5657 45.5469V54.973C66.5657 57.9603 65.379 60.8253 63.2666 62.9376C61.1543 65.05 58.2893 66.2367 55.302 66.2367H45.75L66.5657 45.5469Z" fill="#D3CBDD"/>
</g>
<g id="Group_4" filter="url(#filter2_dii_16902_52862)">
<path id="Vector_7" d="M25.3648 30.0889H19.6115C19.4895 30.0889 19.3906 30.1877 19.3906 30.3097V36.063C19.3906 36.185 19.4895 36.2839 19.6115 36.2839H25.3648C25.4868 36.2839 25.5856 36.185 25.5856 36.063V30.3097C25.5856 30.1877 25.4868 30.0889 25.3648 30.0889Z" fill="#9896A1"/>
</g>
<g id="Group_5" filter="url(#filter3_dii_16902_52862)">
<path id="Vector_8" d="M38.5913 30.0889H32.838C32.7161 30.0889 32.6172 30.1877 32.6172 30.3097V36.063C32.6172 36.185 32.7161 36.2839 32.838 36.2839H38.5913C38.7133 36.2839 38.8122 36.185 38.8122 36.063V30.3097C38.8122 30.1877 38.7133 30.0889 38.5913 30.0889Z" fill="#9896A1"/>
</g>
<g id="Group_6" filter="url(#filter4_dii_16902_52862)">
<path id="Vector_9" d="M51.8179 30.0889H46.0646C45.9426 30.0889 45.8438 30.1877 45.8438 30.3097V36.063C45.8438 36.185 45.9426 36.2839 46.0646 36.2839H51.8179C51.9399 36.2839 52.0388 36.185 52.0388 36.063V30.3097C52.0388 30.1877 51.9399 30.0889 51.8179 30.0889Z" fill="#9896A1"/>
</g>
<g id="Group_7" filter="url(#filter5_dii_16902_52862)">
<path id="Vector_10" d="M25.3648 41.1318H19.6115C19.4895 41.1318 19.3906 41.2307 19.3906 41.3527V47.106C19.3906 47.228 19.4895 47.3268 19.6115 47.3268H25.3648C25.4868 47.3268 25.5856 47.228 25.5856 47.106V41.3527C25.5856 41.2307 25.4868 41.1318 25.3648 41.1318Z" fill="#9896A1"/>
</g>
<g id="Group_8" filter="url(#filter6_dii_16902_52862)">
<path id="Vector_11" d="M25.3648 52.1748H19.6115C19.4895 52.1748 19.3906 52.2737 19.3906 52.3957V58.149C19.3906 58.2709 19.4895 58.3698 19.6115 58.3698H25.3648C25.4868 58.3698 25.5856 58.2709 25.5856 58.149V52.3957C25.5856 52.2737 25.4868 52.1748 25.3648 52.1748Z" fill="#9896A1"/>
</g>
<g id="Group_9" filter="url(#filter7_dii_16902_52862)">
<path id="Vector_12" d="M38.5913 41.1318H32.838C32.7161 41.1318 32.6172 41.2307 32.6172 41.3527V47.106C32.6172 47.228 32.7161 47.3268 32.838 47.3268H38.5913C38.7133 47.3268 38.8122 47.228 38.8122 47.106V41.3527C38.8122 41.2307 38.7133 41.1318 38.5913 41.1318Z" fill="#9896A1"/>
</g>
<g id="Group_10" filter="url(#filter8_dii_16902_52862)">
<path id="Vector_13" d="M38.5913 52.1748H32.838C32.7161 52.1748 32.6172 52.2737 32.6172 52.3957V58.149C32.6172 58.2709 32.7161 58.3698 32.838 58.3698H38.5913C38.7133 58.3698 38.8122 58.2709 38.8122 58.149V52.3957C38.8122 52.2737 38.7133 52.1748 38.5913 52.1748Z" fill="#9896A1"/>
</g>
<g id="Group_11" filter="url(#filter9_dii_16902_52862)">
<path id="Vector_14" d="M51.8179 41.1318H46.0646C45.9426 41.1318 45.8438 41.2307 45.8438 41.3527V47.106C45.8438 47.228 45.9426 47.3268 46.0646 47.3268H51.8179C51.9399 47.3268 52.0388 47.228 52.0388 47.106V41.3527C52.0388 41.2307 51.9399 41.1318 51.8179 41.1318Z" fill="url(#paint5_linear_16902_52862)"/>
</g>
<g id="Group_12" filter="url(#filter10_dii_16902_52862)">
<path id="Vector_15" d="M51.8179 52.1748H46.0646C45.9426 52.1748 45.8438 52.2737 45.8438 52.3957V58.149C45.8438 58.2709 45.9426 58.3698 46.0646 58.3698H51.8179C51.9399 58.3698 52.0388 58.2709 52.0388 58.149V52.3957C52.0388 52.2737 51.9399 52.1748 51.8179 52.1748Z" fill="#9896A1"/>
</g>
<g id="Group_13" filter="url(#filter11_i_16902_52862)">
<path id="Vector_16" d="M66.3551 45.9398C66.4552 45.8402 66.5236 45.713 66.5514 45.5745C66.5792 45.436 66.5653 45.2923 66.5113 45.1617C66.4574 45.0311 66.3659 44.9195 66.2484 44.841C66.1309 44.7625 65.9928 44.7206 65.8515 44.7207H63.2675C58.4351 44.7207 53.8006 46.6404 50.3836 50.0574C46.9665 53.4744 45.0469 58.1089 45.0469 62.9413V65.5254C45.0468 65.6666 45.0886 65.8048 45.1672 65.9222C45.2457 66.0397 45.3573 66.1312 45.4879 66.1851C45.6185 66.2391 45.7622 66.253 45.9007 66.2252C46.0392 66.1974 46.1664 66.1291 46.266 66.0289L66.3551 45.9398Z" fill="url(#paint6_radial_16902_52862)"/>
<path id="Vector_17" d="M66.3551 45.9398C66.4552 45.8402 66.5236 45.713 66.5514 45.5745C66.5792 45.436 66.5653 45.2923 66.5113 45.1617C66.4574 45.0311 66.3659 44.9195 66.2484 44.841C66.1309 44.7625 65.9928 44.7206 65.8515 44.7207H63.2675C58.4351 44.7207 53.8006 46.6404 50.3836 50.0574C46.9665 53.4744 45.0469 58.1089 45.0469 62.9413V65.5254C45.0468 65.6666 45.0886 65.8048 45.1672 65.9222C45.2457 66.0397 45.3573 66.1312 45.4879 66.1851C45.6185 66.2391 45.7622 66.253 45.9007 66.2252C46.0392 66.1974 46.1664 66.1291 46.266 66.0289L66.3551 45.9398Z" fill="url(#paint7_linear_16902_52862)"/>
</g>
<g id="Group_14" filter="url(#filter12_f_16902_52862)">
<path id="Vector_18" d="M64.322 22.7258C64.322 16.321 61.5613 11.1309 52.727 11.1309H30.2969" stroke="url(#paint8_radial_16902_52862)" stroke-width="0.409836"/>
</g>
<g id="Group_15" filter="url(#filter13_f_16902_52862)">
<path id="Vector_19" d="M15.9766 9.30469H21.498V15.5682C21.5005 16.2081 21.2554 16.8242 20.8139 17.2875C20.3723 17.7508 19.7687 18.0253 19.1294 18.0536C18.4901 18.0818 17.8646 17.8616 17.3839 17.4391C16.9033 17.0166 16.6047 16.4245 16.5508 15.7868L15.9766 9.30469Z" fill="url(#paint9_linear_16902_52862)"/>
</g>
<g id="Group_16" filter="url(#filter14_f_16902_52862)">
<path id="Vector_20" d="M44.9453 9.30469H50.4667V15.5682C50.4693 16.2081 50.2241 16.8242 49.7826 17.2875C49.3411 17.7508 48.7375 18.0253 48.0981 18.0536C47.4588 18.0818 46.8333 17.8616 46.3527 17.4391C45.872 17.0166 45.5735 16.4245 45.5195 15.7868L44.9453 9.30469Z" fill="url(#paint10_linear_16902_52862)"/>
</g>
<path id="Vector_21" d="M24.0214 7.31441C24.0214 5.78972 22.7854 4.55371 21.2607 4.55371C19.736 4.55371 18.5 5.78972 18.5 7.31441V15.8372C18.5 17.3619 19.736 18.5979 21.2607 18.5979C22.7854 18.5979 24.0214 17.3619 24.0214 15.8372V7.31441Z" fill="url(#paint11_linear_16902_52862)"/>
<path id="Vector_22" d="M24.0214 7.31441C24.0214 5.78972 22.7854 4.55371 21.2607 4.55371C19.736 4.55371 18.5 5.78972 18.5 7.31441V15.8372C18.5 17.3619 19.736 18.5979 21.2607 18.5979C22.7854 18.5979 24.0214 17.3619 24.0214 15.8372V7.31441Z" fill="url(#paint12_radial_16902_52862)"/>
<path id="Vector_23" d="M24.0214 7.31441C24.0214 5.78972 22.7854 4.55371 21.2607 4.55371C19.736 4.55371 18.5 5.78972 18.5 7.31441V15.8372C18.5 17.3619 19.736 18.5979 21.2607 18.5979C22.7854 18.5979 24.0214 17.3619 24.0214 15.8372V7.31441Z" fill="url(#paint13_radial_16902_52862)"/>
<path id="Vector_24" d="M52.8339 7.31441C52.8339 5.78972 51.5979 4.55371 50.0732 4.55371C48.5485 4.55371 47.3125 5.78972 47.3125 7.31441V15.8372C47.3125 17.3619 48.5485 18.5979 50.0732 18.5979C51.5979 18.5979 52.8339 17.3619 52.8339 15.8372V7.31441Z" fill="url(#paint14_linear_16902_52862)"/>
<path id="Vector_25" d="M52.8339 7.31441C52.8339 5.78972 51.5979 4.55371 50.0732 4.55371C48.5485 4.55371 47.3125 5.78972 47.3125 7.31441V15.8372C47.3125 17.3619 48.5485 18.5979 50.0732 18.5979C51.5979 18.5979 52.8339 17.3619 52.8339 15.8372V7.31441Z" fill="url(#paint15_radial_16902_52862)"/>
<path id="Vector_26" d="M52.8339 7.31441C52.8339 5.78972 51.5979 4.55371 50.0732 4.55371C48.5485 4.55371 47.3125 5.78972 47.3125 7.31441V15.8372C47.3125 17.3619 48.5485 18.5979 50.0732 18.5979C51.5979 18.5979 52.8339 17.3619 52.8339 15.8372V7.31441Z" fill="url(#paint16_radial_16902_52862)"/>
</g>
</g>
<defs>
<filter id="filter0_iiii_16902_52862" x="4.72678" y="8.72678" width="62.0386" height="57.6785" filterUnits="userSpaceOnUse" color-interpolation-filters="sRGB">
<feFlood flood-opacity="0" result="BackgroundImageFix"/>
<feBlend mode="normal" in="SourceGraphic" in2="BackgroundImageFix" result="shape"/>
<feColorMatrix in="SourceAlpha" type="matrix" values="0 0 0 0 0 0 0 0 0 0 0 0 0 0 0 0 0 0 127 0" result="hardAlpha"/>
<feOffset dy="-0.273224"/>
<feGaussianBlur stdDeviation="0.409836"/>
<feComposite in2="hardAlpha" operator="arithmetic" k2="-1" k3="1"/>
<feColorMatrix type="matrix" values="0 0 0 0 0.67451 0 0 0 0 0.619608 0 0 0 0 0.74902 0 0 0 1 0"/>
<feBlend mode="normal" in2="shape" result="effect1_innerShadow_16902_52862"/>
<feColorMatrix in="SourceAlpha" type="matrix" values="0 0 0 0 0 0 0 0 0 0 0 0 0 0 0 0 0 0 127 0" result="hardAlpha"/>
<feOffset dx="0.273224"/>
<feGaussianBlur stdDeviation="0.204918"/>
<feComposite in2="hardAlpha" operator="arithmetic" k2="-1" k3="1"/>
<feColorMatrix type="matrix" values="0 0 0 0 0.8 0 0 0 0 0.788235 0 0 0 0 0.819608 0 0 0 1 0"/>
<feBlend mode="normal" in2="effect1_innerShadow_16902_52862" result="effect2_innerShadow_16902_52862"/>
<feColorMatrix in="SourceAlpha" type="matrix" values="0 0 0 0 0 0 0 0 0 0 0 0 0 0 0 0 0 0 127 0" result="hardAlpha"/>
<feOffset dx="-0.273224"/>
<feGaussianBlur stdDeviation="0.204918"/>
<feComposite in2="hardAlpha" operator="arithmetic" k2="-1" k3="1"/>
<feColorMatrix type="matrix" values="0 0 0 0 0.956863 0 0 0 0 0.945098 0 0 0 0 0.976471 0 0 0 1 0"/>
<feBlend mode="normal" in2="effect2_innerShadow_16902_52862" result="effect3_innerShadow_16902_52862"/>
<feColorMatrix in="SourceAlpha" type="matrix" values="0 0 0 0 0 0 0 0 0 0 0 0 0 0 0 0 0 0 127 0" result="hardAlpha"/>
<feOffset dx="0.068306" dy="-0.068306"/>
<feGaussianBlur stdDeviation="0.136612"/>
<feComposite in2="hardAlpha" operator="arithmetic" k2="-1" k3="1"/>
<feColorMatrix type="matrix" values="0 0 0 0 0.670588 0 0 0 0 0.619608 0 0 0 0 0.745098 0 0 0 1 0"/>
<feBlend mode="normal" in2="effect3_innerShadow_16902_52862" result="effect4_innerShadow_16902_52862"/>
</filter>
<filter id="filter1_ii_16902_52862" x="45.4768" y="45.3829" width="21.195" height="20.8534" filterUnits="userSpaceOnUse" color-interpolation-filters="sRGB">
<feFlood flood-opacity="0" result="BackgroundImageFix"/>
<feBlend mode="normal" in="SourceGraphic" in2="BackgroundImageFix" result="shape"/>
<feColorMatrix in="SourceAlpha" type="matrix" values="0 0 0 0 0 0 0 0 0 0 0 0 0 0 0 0 0 0 127 0" result="hardAlpha"/>
<feOffset dx="-0.273224"/>
<feGaussianBlur stdDeviation="0.204918"/>
<feComposite in2="hardAlpha" operator="arithmetic" k2="-1" k3="1"/>
<feColorMatrix type="matrix" values="0 0 0 0 0.937255 0 0 0 0 0.917647 0 0 0 0 0.964706 0 0 0 1 0"/>
<feBlend mode="normal" in2="shape" result="effect1_innerShadow_16902_52862"/>
<feColorMatrix in="SourceAlpha" type="matrix" values="0 0 0 0 0 0 0 0 0 0 0 0 0 0 0 0 0 0 127 0" result="hardAlpha"/>
<feOffset dx="0.10929" dy="-0.163934"/>
<feGaussianBlur stdDeviation="0.204918"/>
<feComposite in2="hardAlpha" operator="arithmetic" k2="-1" k3="1"/>
<feColorMatrix type="matrix" values="0 0 0 0 0.658824 0 0 0 0 0.607843 0 0 0 0 0.729412 0 0 0 1 0"/>
<feBlend mode="normal" in2="effect1_innerShadow_16902_52862" result="effect2_innerShadow_16902_52862"/>
</filter>
<filter id="filter2_dii_16902_52862" x="19.2813" y="30.0342" width="6.35925" height="6.35925" filterUnits="userSpaceOnUse" color-interpolation-filters="sRGB">
<feFlood flood-opacity="0" result="BackgroundImageFix"/>
<feColorMatrix in="SourceAlpha" type="matrix" values="0 0 0 0 0 0 0 0 0 0 0 0 0 0 0 0 0 0 127 0" result="hardAlpha"/>
<feOffset dx="-0.0273224" dy="0.0273224"/>
<feGaussianBlur stdDeviation="0.0409836"/>
<feComposite in2="hardAlpha" operator="out"/>
<feColorMatrix type="matrix" values="0 0 0 0 0.772549 0 0 0 0 0.752941 0 0 0 0 0.803922 0 0 0 1 0"/>
<feBlend mode="normal" in2="BackgroundImageFix" result="effect1_dropShadow_16902_52862"/>
<feBlend mode="normal" in="SourceGraphic" in2="effect1_dropShadow_16902_52862" result="shape"/>
<feColorMatrix in="SourceAlpha" type="matrix" values="0 0 0 0 0 0 0 0 0 0 0 0 0 0 0 0 0 0 127 0" result="hardAlpha"/>
<feOffset dx="-0.0273224" dy="0.0273224"/>
<feGaussianBlur stdDeviation="0.0204918"/>
<feComposite in2="hardAlpha" operator="arithmetic" k2="-1" k3="1"/>
<feColorMatrix type="matrix" values="0 0 0 0 0.654902 0 0 0 0 0.647059 0 0 0 0 0.682353 0 0 0 1 0"/>
<feBlend mode="normal" in2="shape" result="effect2_innerShadow_16902_52862"/>
<feColorMatrix in="SourceAlpha" type="matrix" values="0 0 0 0 0 0 0 0 0 0 0 0 0 0 0 0 0 0 127 0" result="hardAlpha"/>
<feOffset dx="0.0273224" dy="-0.0273224"/>
<feGaussianBlur stdDeviation="0.0204918"/>
<feComposite in2="hardAlpha" operator="arithmetic" k2="-1" k3="1"/>
<feColorMatrix type="matrix" values="0 0 0 0 0.572549 0 0 0 0 0.564706 0 0 0 0 0.607843 0 0 0 1 0"/>
<feBlend mode="normal" in2="effect2_innerShadow_16902_52862" result="effect3_innerShadow_16902_52862"/>
</filter>
<filter id="filter3_dii_16902_52862" x="32.5079" y="30.0342" width="6.35925" height="6.35925" filterUnits="userSpaceOnUse" color-interpolation-filters="sRGB">
<feFlood flood-opacity="0" result="BackgroundImageFix"/>
<feColorMatrix in="SourceAlpha" type="matrix" values="0 0 0 0 0 0 0 0 0 0 0 0 0 0 0 0 0 0 127 0" result="hardAlpha"/>
<feOffset dx="-0.0273224" dy="0.0273224"/>
<feGaussianBlur stdDeviation="0.0409836"/>
<feComposite in2="hardAlpha" operator="out"/>
<feColorMatrix type="matrix" values="0 0 0 0 0.772549 0 0 0 0 0.752941 0 0 0 0 0.803922 0 0 0 1 0"/>
<feBlend mode="normal" in2="BackgroundImageFix" result="effect1_dropShadow_16902_52862"/>
<feBlend mode="normal" in="SourceGraphic" in2="effect1_dropShadow_16902_52862" result="shape"/>
<feColorMatrix in="SourceAlpha" type="matrix" values="0 0 0 0 0 0 0 0 0 0 0 0 0 0 0 0 0 0 127 0" result="hardAlpha"/>
<feOffset dx="-0.0273224" dy="0.0273224"/>
<feGaussianBlur stdDeviation="0.0204918"/>
<feComposite in2="hardAlpha" operator="arithmetic" k2="-1" k3="1"/>
<feColorMatrix type="matrix" values="0 0 0 0 0.654902 0 0 0 0 0.647059 0 0 0 0 0.682353 0 0 0 1 0"/>
<feBlend mode="normal" in2="shape" result="effect2_innerShadow_16902_52862"/>
<feColorMatrix in="SourceAlpha" type="matrix" values="0 0 0 0 0 0 0 0 0 0 0 0 0 0 0 0 0 0 127 0" result="hardAlpha"/>
<feOffset dx="0.0273224" dy="-0.0273224"/>
<feGaussianBlur stdDeviation="0.0204918"/>
<feComposite in2="hardAlpha" operator="arithmetic" k2="-1" k3="1"/>
<feColorMatrix type="matrix" values="0 0 0 0 0.572549 0 0 0 0 0.564706 0 0 0 0 0.607843 0 0 0 1 0"/>
<feBlend mode="normal" in2="effect2_innerShadow_16902_52862" result="effect3_innerShadow_16902_52862"/>
</filter>
<filter id="filter4_dii_16902_52862" x="45.7345" y="30.0342" width="6.35925" height="6.35925" filterUnits="userSpaceOnUse" color-interpolation-filters="sRGB">
<feFlood flood-opacity="0" result="BackgroundImageFix"/>
<feColorMatrix in="SourceAlpha" type="matrix" values="0 0 0 0 0 0 0 0 0 0 0 0 0 0 0 0 0 0 127 0" result="hardAlpha"/>
<feOffset dx="-0.0273224" dy="0.0273224"/>
<feGaussianBlur stdDeviation="0.0409836"/>
<feComposite in2="hardAlpha" operator="out"/>
<feColorMatrix type="matrix" values="0 0 0 0 0.772549 0 0 0 0 0.752941 0 0 0 0 0.803922 0 0 0 1 0"/>
<feBlend mode="normal" in2="BackgroundImageFix" result="effect1_dropShadow_16902_52862"/>
<feBlend mode="normal" in="SourceGraphic" in2="effect1_dropShadow_16902_52862" result="shape"/>
<feColorMatrix in="SourceAlpha" type="matrix" values="0 0 0 0 0 0 0 0 0 0 0 0 0 0 0 0 0 0 127 0" result="hardAlpha"/>
<feOffset dx="-0.0273224" dy="0.0273224"/>
<feGaussianBlur stdDeviation="0.0204918"/>
<feComposite in2="hardAlpha" operator="arithmetic" k2="-1" k3="1"/>
<feColorMatrix type="matrix" values="0 0 0 0 0.654902 0 0 0 0 0.647059 0 0 0 0 0.682353 0 0 0 1 0"/>
<feBlend mode="normal" in2="shape" result="effect2_innerShadow_16902_52862"/>
<feColorMatrix in="SourceAlpha" type="matrix" values="0 0 0 0 0 0 0 0 0 0 0 0 0 0 0 0 0 0 127 0" result="hardAlpha"/>
<feOffset dx="0.0273224" dy="-0.0273224"/>
<feGaussianBlur stdDeviation="0.0204918"/>
<feComposite in2="hardAlpha" operator="arithmetic" k2="-1" k3="1"/>
<feColorMatrix type="matrix" values="0 0 0 0 0.572549 0 0 0 0 0.564706 0 0 0 0 0.607843 0 0 0 1 0"/>
<feBlend mode="normal" in2="effect2_innerShadow_16902_52862" result="effect3_innerShadow_16902_52862"/>
</filter>
<filter id="filter5_dii_16902_52862" x="19.2813" y="41.0772" width="6.35925" height="6.35925" filterUnits="userSpaceOnUse" color-interpolation-filters="sRGB">
<feFlood flood-opacity="0" result="BackgroundImageFix"/>
<feColorMatrix in="SourceAlpha" type="matrix" values="0 0 0 0 0 0 0 0 0 0 0 0 0 0 0 0 0 0 127 0" result="hardAlpha"/>
<feOffset dx="-0.0273224" dy="0.0273224"/>
<feGaussianBlur stdDeviation="0.0409836"/>
<feComposite in2="hardAlpha" operator="out"/>
<feColorMatrix type="matrix" values="0 0 0 0 0.772549 0 0 0 0 0.752941 0 0 0 0 0.803922 0 0 0 1 0"/>
<feBlend mode="normal" in2="BackgroundImageFix" result="effect1_dropShadow_16902_52862"/>
<feBlend mode="normal" in="SourceGraphic" in2="effect1_dropShadow_16902_52862" result="shape"/>
<feColorMatrix in="SourceAlpha" type="matrix" values="0 0 0 0 0 0 0 0 0 0 0 0 0 0 0 0 0 0 127 0" result="hardAlpha"/>
<feOffset dx="-0.0273224" dy="0.0273224"/>
<feGaussianBlur stdDeviation="0.0204918"/>
<feComposite in2="hardAlpha" operator="arithmetic" k2="-1" k3="1"/>
<feColorMatrix type="matrix" values="0 0 0 0 0.654902 0 0 0 0 0.647059 0 0 0 0 0.682353 0 0 0 1 0"/>
<feBlend mode="normal" in2="shape" result="effect2_innerShadow_16902_52862"/>
<feColorMatrix in="SourceAlpha" type="matrix" values="0 0 0 0 0 0 0 0 0 0 0 0 0 0 0 0 0 0 127 0" result="hardAlpha"/>
<feOffset dx="0.0273224" dy="-0.0273224"/>
<feGaussianBlur stdDeviation="0.0204918"/>
<feComposite in2="hardAlpha" operator="arithmetic" k2="-1" k3="1"/>
<feColorMatrix type="matrix" values="0 0 0 0 0.572549 0 0 0 0 0.564706 0 0 0 0 0.607843 0 0 0 1 0"/>
<feBlend mode="normal" in2="effect2_innerShadow_16902_52862" result="effect3_innerShadow_16902_52862"/>
</filter>
<filter id="filter6_dii_16902_52862" x="19.2813" y="52.1202" width="6.35925" height="6.35925" filterUnits="userSpaceOnUse" color-interpolation-filters="sRGB">
<feFlood flood-opacity="0" result="BackgroundImageFix"/>
<feColorMatrix in="SourceAlpha" type="matrix" values="0 0 0 0 0 0 0 0 0 0 0 0 0 0 0 0 0 0 127 0" result="hardAlpha"/>
<feOffset dx="-0.0273224" dy="0.0273224"/>
<feGaussianBlur stdDeviation="0.0409836"/>
<feComposite in2="hardAlpha" operator="out"/>
<feColorMatrix type="matrix" values="0 0 0 0 0.772549 0 0 0 0 0.752941 0 0 0 0 0.803922 0 0 0 1 0"/>
<feBlend mode="normal" in2="BackgroundImageFix" result="effect1_dropShadow_16902_52862"/>
<feBlend mode="normal" in="SourceGraphic" in2="effect1_dropShadow_16902_52862" result="shape"/>
<feColorMatrix in="SourceAlpha" type="matrix" values="0 0 0 0 0 0 0 0 0 0 0 0 0 0 0 0 0 0 127 0" result="hardAlpha"/>
<feOffset dx="-0.0273224" dy="0.0273224"/>
<feGaussianBlur stdDeviation="0.0204918"/>
<feComposite in2="hardAlpha" operator="arithmetic" k2="-1" k3="1"/>
<feColorMatrix type="matrix" values="0 0 0 0 0.654902 0 0 0 0 0.647059 0 0 0 0 0.682353 0 0 0 1 0"/>
<feBlend mode="normal" in2="shape" result="effect2_innerShadow_16902_52862"/>
<feColorMatrix in="SourceAlpha" type="matrix" values="0 0 0 0 0 0 0 0 0 0 0 0 0 0 0 0 0 0 127 0" result="hardAlpha"/>
<feOffset dx="0.0273224" dy="-0.0273224"/>
<feGaussianBlur stdDeviation="0.0204918"/>
<feComposite in2="hardAlpha" operator="arithmetic" k2="-1" k3="1"/>
<feColorMatrix type="matrix" values="0 0 0 0 0.572549 0 0 0 0 0.564706 0 0 0 0 0.607843 0 0 0 1 0"/>
<feBlend mode="normal" in2="effect2_innerShadow_16902_52862" result="effect3_innerShadow_16902_52862"/>
</filter>
<filter id="filter7_dii_16902_52862" x="32.5079" y="41.0772" width="6.35925" height="6.35925" filterUnits="userSpaceOnUse" color-interpolation-filters="sRGB">
<feFlood flood-opacity="0" result="BackgroundImageFix"/>
<feColorMatrix in="SourceAlpha" type="matrix" values="0 0 0 0 0 0 0 0 0 0 0 0 0 0 0 0 0 0 127 0" result="hardAlpha"/>
<feOffset dx="-0.0273224" dy="0.0273224"/>
<feGaussianBlur stdDeviation="0.0409836"/>
<feComposite in2="hardAlpha" operator="out"/>
<feColorMatrix type="matrix" values="0 0 0 0 0.772549 0 0 0 0 0.752941 0 0 0 0 0.803922 0 0 0 1 0"/>
<feBlend mode="normal" in2="BackgroundImageFix" result="effect1_dropShadow_16902_52862"/>
<feBlend mode="normal" in="SourceGraphic" in2="effect1_dropShadow_16902_52862" result="shape"/>
<feColorMatrix in="SourceAlpha" type="matrix" values="0 0 0 0 0 0 0 0 0 0 0 0 0 0 0 0 0 0 127 0" result="hardAlpha"/>
<feOffset dx="-0.0273224" dy="0.0273224"/>
<feGaussianBlur stdDeviation="0.0204918"/>
<feComposite in2="hardAlpha" operator="arithmetic" k2="-1" k3="1"/>
<feColorMatrix type="matrix" values="0 0 0 0 0.654902 0 0 0 0 0.647059 0 0 0 0 0.682353 0 0 0 1 0"/>
<feBlend mode="normal" in2="shape" result="effect2_innerShadow_16902_52862"/>
<feColorMatrix in="SourceAlpha" type="matrix" values="0 0 0 0 0 0 0 0 0 0 0 0 0 0 0 0 0 0 127 0" result="hardAlpha"/>
<feOffset dx="0.0273224" dy="-0.0273224"/>
<feGaussianBlur stdDeviation="0.0204918"/>
<feComposite in2="hardAlpha" operator="arithmetic" k2="-1" k3="1"/>
<feColorMatrix type="matrix" values="0 0 0 0 0.572549 0 0 0 0 0.564706 0 0 0 0 0.607843 0 0 0 1 0"/>
<feBlend mode="normal" in2="effect2_innerShadow_16902_52862" result="effect3_innerShadow_16902_52862"/>
</filter>
<filter id="filter8_dii_16902_52862" x="32.5079" y="52.1202" width="6.35925" height="6.35925" filterUnits="userSpaceOnUse" color-interpolation-filters="sRGB">
<feFlood flood-opacity="0" result="BackgroundImageFix"/>
<feColorMatrix in="SourceAlpha" type="matrix" values="0 0 0 0 0 0 0 0 0 0 0 0 0 0 0 0 0 0 127 0" result="hardAlpha"/>
<feOffset dx="-0.0273224" dy="0.0273224"/>
<feGaussianBlur stdDeviation="0.0409836"/>
<feComposite in2="hardAlpha" operator="out"/>
<feColorMatrix type="matrix" values="0 0 0 0 0.772549 0 0 0 0 0.752941 0 0 0 0 0.803922 0 0 0 1 0"/>
<feBlend mode="normal" in2="BackgroundImageFix" result="effect1_dropShadow_16902_52862"/>
<feBlend mode="normal" in="SourceGraphic" in2="effect1_dropShadow_16902_52862" result="shape"/>
<feColorMatrix in="SourceAlpha" type="matrix" values="0 0 0 0 0 0 0 0 0 0 0 0 0 0 0 0 0 0 127 0" result="hardAlpha"/>
<feOffset dx="-0.0273224" dy="0.0273224"/>
<feGaussianBlur stdDeviation="0.0204918"/>
<feComposite in2="hardAlpha" operator="arithmetic" k2="-1" k3="1"/>
<feColorMatrix type="matrix" values="0 0 0 0 0.654902 0 0 0 0 0.647059 0 0 0 0 0.682353 0 0 0 1 0"/>
<feBlend mode="normal" in2="shape" result="effect2_innerShadow_16902_52862"/>
<feColorMatrix in="SourceAlpha" type="matrix" values="0 0 0 0 0 0 0 0 0 0 0 0 0 0 0 0 0 0 127 0" result="hardAlpha"/>
<feOffset dx="0.0273224" dy="-0.0273224"/>
<feGaussianBlur stdDeviation="0.0204918"/>
<feComposite in2="hardAlpha" operator="arithmetic" k2="-1" k3="1"/>
<feColorMatrix type="matrix" values="0 0 0 0 0.572549 0 0 0 0 0.564706 0 0 0 0 0.607843 0 0 0 1 0"/>
<feBlend mode="normal" in2="effect2_innerShadow_16902_52862" result="effect3_innerShadow_16902_52862"/>
</filter>
<filter id="filter9_dii_16902_52862" x="45.7345" y="41.0772" width="6.35925" height="6.35925" filterUnits="userSpaceOnUse" color-interpolation-filters="sRGB">
<feFlood flood-opacity="0" result="BackgroundImageFix"/>
<feColorMatrix in="SourceAlpha" type="matrix" values="0 0 0 0 0 0 0 0 0 0 0 0 0 0 0 0 0 0 127 0" result="hardAlpha"/>
<feOffset dx="-0.0273224" dy="0.0273224"/>
<feGaussianBlur stdDeviation="0.0409836"/>
<feComposite in2="hardAlpha" operator="out"/>
<feColorMatrix type="matrix" values="0 0 0 0 0.858824 0 0 0 0 0.835294 0 0 0 0 0.917647 0 0 0 1 0"/>
<feBlend mode="normal" in2="BackgroundImageFix" result="effect1_dropShadow_16902_52862"/>
<feBlend mode="normal" in="SourceGraphic" in2="effect1_dropShadow_16902_52862" result="shape"/>
<feColorMatrix in="SourceAlpha" type="matrix" values="0 0 0 0 0 0 0 0 0 0 0 0 0 0 0 0 0 0 127 0" result="hardAlpha"/>
<feOffset dx="-0.0273224" dy="0.0273224"/>
<feGaussianBlur stdDeviation="0.0204918"/>
<feComposite in2="hardAlpha" operator="arithmetic" k2="-1" k3="1"/>
<feColorMatrix type="matrix" values="0 0 0 0 0.34902 0 0 0 0 0.631373 0 0 0 0 0.917647 0 0 0 1 0"/>
<feBlend mode="normal" in2="shape" result="effect2_innerShadow_16902_52862"/>
<feColorMatrix in="SourceAlpha" type="matrix" values="0 0 0 0 0 0 0 0 0 0 0 0 0 0 0 0 0 0 127 0" result="hardAlpha"/>
<feOffset dx="0.0273224" dy="-0.0273224"/>
<feGaussianBlur stdDeviation="0.0204918"/>
<feComposite in2="hardAlpha" operator="arithmetic" k2="-1" k3="1"/>
<feColorMatrix type="matrix" values="0 0 0 0 0.254902 0 0 0 0 0.498039 0 0 0 0 0.819608 0 0 0 1 0"/>
<feBlend mode="normal" in2="effect2_innerShadow_16902_52862" result="effect3_innerShadow_16902_52862"/>
</filter>
<filter id="filter10_dii_16902_52862" x="45.7345" y="52.1202" width="6.35925" height="6.35925" filterUnits="userSpaceOnUse" color-interpolation-filters="sRGB">
<feFlood flood-opacity="0" result="BackgroundImageFix"/>
<feColorMatrix in="SourceAlpha" type="matrix" values="0 0 0 0 0 0 0 0 0 0 0 0 0 0 0 0 0 0 127 0" result="hardAlpha"/>
<feOffset dx="-0.0273224" dy="0.0273224"/>
<feGaussianBlur stdDeviation="0.0409836"/>
<feComposite in2="hardAlpha" operator="out"/>
<feColorMatrix type="matrix" values="0 0 0 0 0.772549 0 0 0 0 0.752941 0 0 0 0 0.803922 0 0 0 1 0"/>
<feBlend mode="normal" in2="BackgroundImageFix" result="effect1_dropShadow_16902_52862"/>
<feBlend mode="normal" in="SourceGraphic" in2="effect1_dropShadow_16902_52862" result="shape"/>
<feColorMatrix in="SourceAlpha" type="matrix" values="0 0 0 0 0 0 0 0 0 0 0 0 0 0 0 0 0 0 127 0" result="hardAlpha"/>
<feOffset dx="-0.0273224" dy="0.0273224"/>
<feGaussianBlur stdDeviation="0.0204918"/>
<feComposite in2="hardAlpha" operator="arithmetic" k2="-1" k3="1"/>
<feColorMatrix type="matrix" values="0 0 0 0 0.654902 0 0 0 0 0.647059 0 0 0 0 0.682353 0 0 0 1 0"/>
<feBlend mode="normal" in2="shape" result="effect2_innerShadow_16902_52862"/>
<feColorMatrix in="SourceAlpha" type="matrix" values="0 0 0 0 0 0 0 0 0 0 0 0 0 0 0 0 0 0 127 0" result="hardAlpha"/>
<feOffset dx="0.0273224" dy="-0.0273224"/>
<feGaussianBlur stdDeviation="0.0204918"/>
<feComposite in2="hardAlpha" operator="arithmetic" k2="-1" k3="1"/>
<feColorMatrix type="matrix" values="0 0 0 0 0.572549 0 0 0 0 0.564706 0 0 0 0 0.607843 0 0 0 1 0"/>
<feBlend mode="normal" in2="effect2_innerShadow_16902_52862" result="effect3_innerShadow_16902_52862"/>
</filter>
<filter id="filter11_i_16902_52862" x="45.0469" y="44.7207" width="21.5429" height="21.5459" filterUnits="userSpaceOnUse" color-interpolation-filters="sRGB">
<feFlood flood-opacity="0" result="BackgroundImageFix"/>
<feBlend mode="normal" in="SourceGraphic" in2="BackgroundImageFix" result="shape"/>
<feColorMatrix in="SourceAlpha" type="matrix" values="0 0 0 0 0 0 0 0 0 0 0 0 0 0 0 0 0 0 127 0" result="hardAlpha"/>
<feOffset dx="0.0273224" dy="0.0273224"/>
<feGaussianBlur stdDeviation="0.0273224"/>
<feComposite in2="hardAlpha" operator="arithmetic" k2="-1" k3="1"/>
<feColorMatrix type="matrix" values="0 0 0 0 0.803922 0 0 0 0 0.807843 0 0 0 0 0.870588 0 0 0 1 0"/>
<feBlend mode="normal" in2="shape" result="effect1_innerShadow_16902_52862"/>
</filter>
<filter id="filter12_f_16902_52862" x="29.9553" y="10.5843" width="34.9096" height="12.4829" filterUnits="userSpaceOnUse" color-interpolation-filters="sRGB">
<feFlood flood-opacity="0" result="BackgroundImageFix"/>
<feBlend mode="normal" in="SourceGraphic" in2="BackgroundImageFix" result="shape"/>
<feGaussianBlur stdDeviation="0.170765" result="effect1_foregroundBlur_16902_52862"/>
</filter>
<filter id="filter13_f_16902_52862" x="15.7716" y="9.09977" width="5.93327" height="9.16081" filterUnits="userSpaceOnUse" color-interpolation-filters="sRGB">
<feFlood flood-opacity="0" result="BackgroundImageFix"/>
<feBlend mode="normal" in="SourceGraphic" in2="BackgroundImageFix" result="shape"/>
<feGaussianBlur stdDeviation="0.102459" result="effect1_foregroundBlur_16902_52862"/>
</filter>
<filter id="filter14_f_16902_52862" x="44.7404" y="9.09977" width="5.93327" height="9.16081" filterUnits="userSpaceOnUse" color-interpolation-filters="sRGB">
<feFlood flood-opacity="0" result="BackgroundImageFix"/>
<feBlend mode="normal" in="SourceGraphic" in2="BackgroundImageFix" result="shape"/>
<feGaussianBlur stdDeviation="0.102459" result="effect1_foregroundBlur_16902_52862"/>
</filter>
<linearGradient id="paint0_linear_16902_52862" x1="11.8399" y1="41.0241" x2="62.3011" y2="41.0241" gradientUnits="userSpaceOnUse">
<stop stop-color="#E4DEEC"/>
<stop offset="1" stop-color="#E7E2EF"/>
</linearGradient>
<linearGradient id="paint1_linear_16902_52862" x1="4.34811" y1="20.4525" x2="61.9584" y2="20.4525" gradientUnits="userSpaceOnUse">
<stop stop-color="#4271C7"/>
<stop offset="0.794" stop-color="#4F9FDC"/>
</linearGradient>
<linearGradient id="paint2_linear_16902_52862" x1="35.8179" y1="8.83105" x2="35.8179" y2="13.0627" gradientUnits="userSpaceOnUse">
<stop stop-color="#5591D3"/>
<stop offset="1" stop-color="#5591D3" stop-opacity="0"/>
</linearGradient>
<radialGradient id="paint3_radial_16902_52862" cx="0" cy="0" r="1" gradientUnits="userSpaceOnUse" gradientTransform="translate(48.431 23.878) rotate(-170.157) scale(44.0089 24.466)">
<stop offset="0.759" stop-color="#3E62C2" stop-opacity="0"/>
<stop offset="1" stop-color="#3B41A1"/>
</radialGradient>
<linearGradient id="paint4_linear_16902_52862" x1="47.2472" y1="25.6912" x2="47.2472" y2="22.4667" gradientUnits="userSpaceOnUse">
<stop stop-color="#437AC4"/>
<stop offset="1" stop-color="#437AC4" stop-opacity="0"/>
</linearGradient>
<linearGradient id="paint5_linear_16902_52862" x1="52.6947" y1="41.1318" x2="44.618" y2="46.9293" gradientUnits="userSpaceOnUse">
<stop stop-color="#4C92DE"/>
<stop offset="1" stop-color="#4B91DB"/>
</linearGradient>
<radialGradient id="paint6_radial_16902_52862" cx="0" cy="0" r="1" gradientUnits="userSpaceOnUse" gradientTransform="translate(51.3126 50.1052) rotate(45.6993) scale(7.51024 18.2003)">
<stop stop-color="#E4DDED"/>
<stop offset="1" stop-color="#D5CFDC"/>
</radialGradient>
<linearGradient id="paint7_linear_16902_52862" x1="55.9373" y1="56.7552" x2="55.3675" y2="56.1853" gradientUnits="userSpaceOnUse">
<stop offset="0.461" stop-color="#BFB8CA"/>
<stop offset="1" stop-color="#D9D3E0" stop-opacity="0"/>
</linearGradient>
<radialGradient id="paint8_radial_16902_52862" cx="0" cy="0" r="1" gradientUnits="userSpaceOnUse" gradientTransform="translate(68.7418 11.1322) rotate(152.761) scale(22.2786 32.035)">
<stop stop-color="#70C0F8"/>
<stop offset="1" stop-color="#70C0F8" stop-opacity="0"/>
</radialGradient>
<linearGradient id="paint9_linear_16902_52862" x1="18.4877" y1="17.3748" x2="17.4386" y2="-0.0816967" gradientUnits="userSpaceOnUse">
<stop stop-color="#375DB2"/>
<stop offset="1" stop-color="#375DB2" stop-opacity="0"/>
</linearGradient>
<linearGradient id="paint10_linear_16902_52862" x1="47.4542" y1="17.3748" x2="46.4074" y2="-0.0816967" gradientUnits="userSpaceOnUse">
<stop stop-color="#407FC8"/>
<stop offset="1" stop-color="#407FC8" stop-opacity="0"/>
</linearGradient>
<linearGradient id="paint11_linear_16902_52862" x1="24.0214" y1="12.6172" x2="18.5" y2="12.6172" gradientUnits="userSpaceOnUse">
<stop stop-color="#C0C0C1"/>
<stop offset="0.932" stop-color="#A6A6A8"/>
</linearGradient>
<radialGradient id="paint12_radial_16902_52862" cx="0" cy="0" r="1" gradientUnits="userSpaceOnUse" gradientTransform="translate(21.2607 18.5979) rotate(-90) scale(8.50395 7.87292)">
<stop stop-color="#8C88AD"/>
<stop offset="1" stop-color="#9D9AA2" stop-opacity="0"/>
</radialGradient>
<radialGradient id="paint13_radial_16902_52862" cx="0" cy="0" r="1" gradientUnits="userSpaceOnUse" gradientTransform="translate(22.9812 9.30433) rotate(90) scale(6.31017 3.40549)">
<stop stop-color="#D9D8DD"/>
<stop offset="0.996" stop-color="#BEBEC0" stop-opacity="0"/>
</radialGradient>
<linearGradient id="paint14_linear_16902_52862" x1="52.8339" y1="12.6172" x2="47.3125" y2="12.6172" gradientUnits="userSpaceOnUse">
<stop stop-color="#C0C0C1"/>
<stop offset="0.932" stop-color="#A6A6A8"/>
</linearGradient>
<radialGradient id="paint15_radial_16902_52862" cx="0" cy="0" r="1" gradientUnits="userSpaceOnUse" gradientTransform="translate(50.0732 18.5979) rotate(-90) scale(8.50395 7.87292)">
<stop stop-color="#8C88AD"/>
<stop offset="1" stop-color="#9D9AA2" stop-opacity="0"/>
</radialGradient>
<radialGradient id="paint16_radial_16902_52862" cx="0" cy="0" r="1" gradientUnits="userSpaceOnUse" gradientTransform="translate(51.7937 9.30433) rotate(90) scale(6.31017 3.40549)">
<stop stop-color="#D9D8DD"/>
<stop offset="0.996" stop-color="#BEBEC0" stop-opacity="0"/>
</radialGradient>
</defs>
</svg>
