<svg width="72" height="72" viewBox="0 0 72 72" fill="none" xmlns="http://www.w3.org/2000/svg">
<g clip-path="url(#clip0_16902_52954)">
<rect x="0.367188" y="0.619141" width="71.2115" height="71.2115" rx="12.4932" fill="#5C244A"/>
<g filter="url(#filter0_iiii_16902_52954)">
<path d="M41.9547 7.77174C41.5621 7.37901 41.0295 7.15832 40.4742 7.1582H12.6894C11.9119 7.1582 11.1662 7.46706 10.6164 8.01684C10.0667 8.56661 9.75781 9.31226 9.75781 10.0898V62.6777C9.75781 63.4552 10.0667 64.2008 10.6164 64.7506C11.1662 65.3004 11.9119 65.6092 12.6894 65.6092H52.7302C53.5077 65.6092 54.2534 65.3004 54.8031 64.7506C55.3529 64.2008 55.6618 63.4552 55.6618 62.6777V22.3478C55.662 22.0725 55.6079 21.7999 55.5026 21.5455C55.3974 21.2911 55.2429 21.06 55.0482 20.8653L41.9547 7.77174Z" fill="url(#paint0_linear_16902_52954)"/>
</g>
<g filter="url(#filter1_f_16902_52954)">
<path d="M40.562 8.02419C40.562 7.6033 40.6835 7.33318 40.4531 7.28711C40.6709 7.30177 40.9892 7.38134 41.1902 7.46091C41.4478 7.56142 41.1274 7.78547 41.3305 7.98231C41.3369 7.98774 41.3432 7.99333 41.3493 7.99906L54.4429 21.0926C54.8344 21.4869 55.0548 22.0195 55.0565 22.5752V22.7071C55.0565 22.2213 54.7047 21.9302 54.4429 21.9302H43.0748C42.4083 21.9302 41.7692 21.6655 41.298 21.1943C40.8267 20.723 40.562 20.0839 40.562 19.4175V8.02419Z" fill="#D2C5DF"/>
</g>
<g filter="url(#filter2_ii_16902_52954)">
<path d="M41.1727 7.79658C41.1727 7.3736 40.8397 7.20608 40.6094 7.16211C41.1178 7.19377 41.5972 7.40966 41.9579 7.76936L55.0515 20.865C55.2849 21.1005 55.4599 21.3873 55.5624 21.7026C55.6299 21.9102 55.6645 22.1271 55.665 22.3455V22.4774C55.665 21.9916 55.3132 21.7026 55.0515 21.7026H43.6833C43.3533 21.7026 43.0266 21.6376 42.7217 21.5113C42.4169 21.3851 42.1399 21.2 41.9065 20.9667C41.6732 20.7333 41.4881 20.4563 41.3618 20.1515C41.2356 19.8466 41.1706 19.5198 41.1706 19.1899V7.79449L41.1727 7.79658Z" fill="url(#paint1_linear_16902_52954)"/>
</g>
<path d="M41.1727 7.79658C41.1727 7.3736 40.8397 7.20608 40.6094 7.16211C41.1178 7.19377 41.5972 7.40966 41.9579 7.76936L55.0515 20.865C55.2849 21.1005 55.4599 21.3873 55.5624 21.7026C55.6299 21.9102 55.6645 22.1271 55.665 22.3455V22.4774C55.665 21.9916 55.3132 21.7026 55.0515 21.7026H43.6833C43.3533 21.7026 43.0266 21.6376 42.7217 21.5113C42.4169 21.3851 42.1399 21.2 41.9065 20.9667C41.6732 20.7333 41.4881 20.4563 41.3618 20.1515C41.2356 19.8466 41.1706 19.5198 41.1706 19.1899V7.79449L41.1727 7.79658Z" fill="url(#paint2_linear_16902_52954)"/>
<path d="M46.2297 27.999H19.1714C18.5978 27.999 18.1328 28.464 18.1328 29.0376C18.1328 29.6112 18.5978 30.0762 19.1714 30.0762H46.2297C46.8033 30.0762 47.2683 29.6112 47.2683 29.0376C47.2683 28.464 46.8033 27.999 46.2297 27.999Z" fill="url(#paint3_linear_16902_52954)"/>
<path d="M46.2297 34.2812H19.1714C18.5978 34.2812 18.1328 34.7462 18.1328 35.3199C18.1328 35.8935 18.5978 36.3585 19.1714 36.3585H46.2297C46.8033 36.3585 47.2683 35.8935 47.2683 35.3199C47.2683 34.7462 46.8033 34.2812 46.2297 34.2812Z" fill="url(#paint4_linear_16902_52954)"/>
<path d="M46.2297 40.5635H19.1714C18.5978 40.5635 18.1328 41.0285 18.1328 41.6021C18.1328 42.1757 18.5978 42.6407 19.1714 42.6407H46.2297C46.8033 42.6407 47.2683 42.1757 47.2683 41.6021C47.2683 41.0285 46.8033 40.5635 46.2297 40.5635Z" fill="url(#paint5_linear_16902_52954)"/>
<path d="M35.9064 46.8447H19.1714C18.5978 46.8447 18.1328 47.3097 18.1328 47.8833C18.1328 48.4569 18.5978 48.9219 19.1714 48.9219H35.9064C36.48 48.9219 36.945 48.4569 36.945 47.8833C36.945 47.3097 36.48 46.8447 35.9064 46.8447Z" fill="url(#paint6_linear_16902_52954)"/>
<path d="M51.7139 31.1446C52.0329 30.8831 52.4002 30.6869 52.795 30.5674C53.1898 30.4479 53.6042 30.4073 54.0147 30.4479C54.4252 30.4885 54.8236 30.6096 55.1873 30.8043C55.551 30.9989 55.8727 31.2632 56.1343 31.5822L60.2175 36.5617C60.7455 37.2052 60.9964 38.0321 60.9151 38.8605C60.8338 39.6889 60.427 40.4512 59.784 40.9799L30.1795 65.27L22.1094 55.4325L51.7139 31.1446Z" fill="url(#paint7_radial_16902_52954)"/>
<path d="M51.7139 31.1446C52.0329 30.8831 52.4002 30.6869 52.795 30.5674C53.1898 30.4479 53.6042 30.4073 54.0147 30.4479C54.4252 30.4885 54.8236 30.6096 55.1873 30.8043C55.551 30.9989 55.8727 31.2632 56.1343 31.5822L60.2175 36.5617C60.7455 37.2052 60.9964 38.0321 60.9151 38.8605C60.8338 39.6889 60.427 40.4512 59.784 40.9799L30.1795 65.27L22.1094 55.4325L51.7139 31.1446Z" fill="url(#paint8_linear_16902_52954)"/>
<path d="M51.7139 31.1446C52.0329 30.8831 52.4002 30.6869 52.795 30.5674C53.1898 30.4479 53.6042 30.4073 54.0147 30.4479C54.4252 30.4885 54.8236 30.6096 55.1873 30.8043C55.551 30.9989 55.8727 31.2632 56.1343 31.5822L60.2175 36.5617C60.7455 37.2052 60.9964 38.0321 60.9151 38.8605C60.8338 39.6889 60.427 40.4512 59.784 40.9799L30.1795 65.27L22.1094 55.4325L51.7139 31.1446Z" fill="url(#paint9_linear_16902_52954)"/>
<path d="M51.7139 31.1446C52.0329 30.8831 52.4002 30.6869 52.795 30.5674C53.1898 30.4479 53.6042 30.4073 54.0147 30.4479C54.4252 30.4885 54.8236 30.6096 55.1873 30.8043C55.551 30.9989 55.8727 31.2632 56.1343 31.5822L60.2175 36.5617C60.7455 37.2052 60.9964 38.0321 60.9151 38.8605C60.8338 39.6889 60.427 40.4512 59.784 40.9799L30.1795 65.27L22.1094 55.4325L51.7139 31.1446Z" fill="url(#paint10_radial_16902_52954)"/>
<path d="M19.8175 65.2681C19.8098 65.3083 19.811 65.3497 19.8211 65.3893C19.8312 65.4289 19.85 65.4658 19.8759 65.4974C19.9019 65.529 19.9345 65.5545 19.9715 65.572C20.0084 65.5896 20.0488 65.5988 20.0897 65.599L29.2047 65.622C29.4668 65.6229 29.7238 65.5496 29.946 65.4105L30.1742 65.2681L22.1041 55.4307L21.9491 55.5856C21.7524 55.7813 21.6189 56.0315 21.5659 56.3038L19.8175 65.2681Z" fill="url(#paint11_linear_16902_52954)"/>
<path d="M19.8175 65.2681C19.8098 65.3083 19.811 65.3497 19.8211 65.3893C19.8312 65.4289 19.85 65.4658 19.8759 65.4974C19.9019 65.529 19.9345 65.5545 19.9715 65.572C20.0084 65.5896 20.0488 65.5988 20.0897 65.599L29.2047 65.622C29.4668 65.6229 29.7238 65.5496 29.946 65.4105L30.1742 65.2681L22.1041 55.4307L21.9491 55.5856C21.7524 55.7813 21.6189 56.0315 21.5659 56.3038L19.8175 65.2681Z" fill="url(#paint12_linear_16902_52954)"/>
<path d="M19.8175 65.2681C19.8098 65.3083 19.811 65.3497 19.8211 65.3893C19.8312 65.4289 19.85 65.4658 19.8759 65.4974C19.9019 65.529 19.9345 65.5545 19.9715 65.572C20.0084 65.5896 20.0488 65.5988 20.0897 65.599L29.2047 65.622C29.4668 65.6229 29.7238 65.5496 29.946 65.4105L30.1742 65.2681L22.1041 55.4307L21.9491 55.5856C21.7524 55.7813 21.6189 56.0315 21.5659 56.3038L19.8175 65.2681Z" fill="url(#paint13_linear_16902_52954)"/>
<path d="M55.7712 44.2673L60.5978 40.3097C60.8094 40.1363 60.9848 39.9229 61.1139 39.6817C61.243 39.4405 61.3232 39.1761 61.35 38.9039C61.3769 38.6316 61.3498 38.3567 61.2703 38.0949C61.1908 37.8331 61.0605 37.5896 60.8867 37.3782L55.4571 30.7612C55.107 30.335 54.6021 30.0652 54.0532 30.0111C53.5043 29.9569 52.9564 30.1228 52.5297 30.4723L47.7031 34.432L55.7712 44.2673Z" fill="url(#paint14_linear_16902_52954)"/>
<path d="M55.7712 44.2673L60.5978 40.3097C60.8094 40.1363 60.9848 39.9229 61.1139 39.6817C61.243 39.4405 61.3232 39.1761 61.35 38.9039C61.3769 38.6316 61.3498 38.3567 61.2703 38.0949C61.1908 37.8331 61.0605 37.5896 60.8867 37.3782L55.4571 30.7612C55.107 30.335 54.6021 30.0652 54.0532 30.0111C53.5043 29.9569 52.9564 30.1228 52.5297 30.4723L47.7031 34.432L55.7712 44.2673Z" fill="url(#paint15_linear_16902_52954)"/>
<path d="M55.7712 44.2673L60.5978 40.3097C60.8094 40.1363 60.9848 39.9229 61.1139 39.6817C61.243 39.4405 61.3232 39.1761 61.35 38.9039C61.3769 38.6316 61.3498 38.3567 61.2703 38.0949C61.1908 37.8331 61.0605 37.5896 60.8867 37.3782L55.4571 30.7612C55.107 30.335 54.6021 30.0652 54.0532 30.0111C53.5043 29.9569 52.9564 30.1228 52.5297 30.4723L47.7031 34.432L55.7712 44.2673Z" fill="url(#paint16_radial_16902_52954)"/>
<path d="M42.8615 38.3997L47.6985 34.4316L55.7666 44.267L50.9295 48.2351L42.8615 38.3997Z" fill="url(#paint17_linear_16902_52954)"/>
<path d="M42.8615 38.3997L47.6985 34.4316L55.7666 44.267L50.9295 48.2351L42.8615 38.3997Z" fill="url(#paint18_linear_16902_52954)"/>
<path d="M20.0897 65.5979C20.0488 65.5977 20.0084 65.5885 19.9715 65.571C19.9345 65.5534 19.9019 65.528 19.8759 65.4964C19.85 65.4648 19.8312 65.4279 19.8211 65.3882C19.811 65.3486 19.8098 65.3072 19.8175 65.2671L20.4331 62.124L23.2893 65.6063L20.0897 65.5979Z" fill="url(#paint19_linear_16902_52954)"/>
</g>
<defs>
<filter id="filter0_iiii_16902_52954" x="9.73191" y="7.08049" width="46.0099" height="58.5548" filterUnits="userSpaceOnUse" color-interpolation-filters="sRGB">
<feFlood flood-opacity="0" result="BackgroundImageFix"/>
<feBlend mode="normal" in="SourceGraphic" in2="BackgroundImageFix" result="shape"/>
<feColorMatrix in="SourceAlpha" type="matrix" values="0 0 0 0 0 0 0 0 0 0 0 0 0 0 0 0 0 0 127 0" result="hardAlpha"/>
<feOffset dx="0.0777142" dy="-0.0777142"/>
<feGaussianBlur stdDeviation="0.0777142"/>
<feComposite in2="hardAlpha" operator="arithmetic" k2="-1" k3="1"/>
<feColorMatrix type="matrix" values="0 0 0 0 0.807843 0 0 0 0 0.768627 0 0 0 0 0.85098 0 0 0 1 0"/>
<feBlend mode="normal" in2="shape" result="effect1_innerShadow_16902_52954"/>
<feColorMatrix in="SourceAlpha" type="matrix" values="0 0 0 0 0 0 0 0 0 0 0 0 0 0 0 0 0 0 127 0" result="hardAlpha"/>
<feOffset dx="0.0259047" dy="-0.0259047"/>
<feGaussianBlur stdDeviation="0.0259047"/>
<feComposite in2="hardAlpha" operator="arithmetic" k2="-1" k3="1"/>
<feColorMatrix type="matrix" values="0 0 0 0 0.709804 0 0 0 0 0.690196 0 0 0 0 0.733333 0 0 0 1 0"/>
<feBlend mode="normal" in2="effect1_innerShadow_16902_52954" result="effect2_innerShadow_16902_52954"/>
<feColorMatrix in="SourceAlpha" type="matrix" values="0 0 0 0 0 0 0 0 0 0 0 0 0 0 0 0 0 0 127 0" result="hardAlpha"/>
<feOffset dy="-0.0259047"/>
<feGaussianBlur stdDeviation="0.0259047"/>
<feComposite in2="hardAlpha" operator="arithmetic" k2="-1" k3="1"/>
<feColorMatrix type="matrix" values="0 0 0 0 0.72549 0 0 0 0 0.65098 0 0 0 0 0.8 0 0 0 1 0"/>
<feBlend mode="normal" in2="effect2_innerShadow_16902_52954" result="effect3_innerShadow_16902_52954"/>
<feColorMatrix in="SourceAlpha" type="matrix" values="0 0 0 0 0 0 0 0 0 0 0 0 0 0 0 0 0 0 127 0" result="hardAlpha"/>
<feOffset dx="-0.0388571" dy="0.0388571"/>
<feGaussianBlur stdDeviation="0.0129524"/>
<feComposite in2="hardAlpha" operator="arithmetic" k2="-1" k3="1"/>
<feColorMatrix type="matrix" values="0 0 0 0 0.952941 0 0 0 0 0.941176 0 0 0 0 0.964706 0 0 0 1 0"/>
<feBlend mode="normal" in2="effect3_innerShadow_16902_52954" result="effect4_innerShadow_16902_52954"/>
</filter>
<filter id="filter1_f_16902_52954" x="40.3236" y="7.15759" width="14.8606" height="15.679" filterUnits="userSpaceOnUse" color-interpolation-filters="sRGB">
<feFlood flood-opacity="0" result="BackgroundImageFix"/>
<feBlend mode="normal" in="SourceGraphic" in2="BackgroundImageFix" result="shape"/>
<feGaussianBlur stdDeviation="0.0647619" result="effect1_foregroundBlur_16902_52954"/>
</filter>
<filter id="filter2_ii_16902_52954" x="40.6094" y="7.1362" width="15.0806" height="15.3413" filterUnits="userSpaceOnUse" color-interpolation-filters="sRGB">
<feFlood flood-opacity="0" result="BackgroundImageFix"/>
<feBlend mode="normal" in="SourceGraphic" in2="BackgroundImageFix" result="shape"/>
<feColorMatrix in="SourceAlpha" type="matrix" values="0 0 0 0 0 0 0 0 0 0 0 0 0 0 0 0 0 0 127 0" result="hardAlpha"/>
<feOffset dx="0.0259047"/>
<feGaussianBlur stdDeviation="0.0194286"/>
<feComposite in2="hardAlpha" operator="arithmetic" k2="-1" k3="1"/>
<feColorMatrix type="matrix" values="0 0 0 0 0.631373 0 0 0 0 0.611765 0 0 0 0 0.654902 0 0 0 1 0"/>
<feBlend mode="normal" in2="shape" result="effect1_innerShadow_16902_52954"/>
<feColorMatrix in="SourceAlpha" type="matrix" values="0 0 0 0 0 0 0 0 0 0 0 0 0 0 0 0 0 0 127 0" result="hardAlpha"/>
<feOffset dy="-0.0259047"/>
<feGaussianBlur stdDeviation="0.0194286"/>
<feComposite in2="hardAlpha" operator="arithmetic" k2="-1" k3="1"/>
<feColorMatrix type="matrix" values="0 0 0 0 0.752941 0 0 0 0 0.67451 0 0 0 0 0.835294 0 0 0 1 0"/>
<feBlend mode="normal" in2="effect1_innerShadow_16902_52954" result="effect2_innerShadow_16902_52954"/>
</filter>
<linearGradient id="paint0_linear_16902_52954" x1="32.7098" y1="7.1582" x2="32.7098" y2="67.5482" gradientUnits="userSpaceOnUse">
<stop stop-color="#E4DCEA"/>
<stop offset="1" stop-color="#CEC1D5"/>
</linearGradient>
<linearGradient id="paint1_linear_16902_52954" x1="42.2175" y1="21.1121" x2="47.7477" y2="15.582" gradientUnits="userSpaceOnUse">
<stop stop-color="#CAC2CE"/>
<stop offset="1" stop-color="#BDB4C1"/>
</linearGradient>
<linearGradient id="paint2_linear_16902_52954" x1="48.9894" y1="14.5036" x2="46.3573" y2="17.1608" gradientUnits="userSpaceOnUse">
<stop offset="0.119" stop-color="#DBDADC"/>
<stop offset="0.577" stop-color="#CBC7D0" stop-opacity="0"/>
</linearGradient>
<linearGradient id="paint3_linear_16902_52954" x1="18.1328" y1="29.0376" x2="47.2683" y2="29.0376" gradientUnits="userSpaceOnUse">
<stop stop-color="#9C96A2"/>
<stop offset="1" stop-color="#9A95A1"/>
</linearGradient>
<linearGradient id="paint4_linear_16902_52954" x1="18.1328" y1="35.3199" x2="47.2683" y2="35.3199" gradientUnits="userSpaceOnUse">
<stop stop-color="#9C96A2"/>
<stop offset="1" stop-color="#9A95A1"/>
</linearGradient>
<linearGradient id="paint5_linear_16902_52954" x1="18.1328" y1="41.6021" x2="47.2683" y2="41.6021" gradientUnits="userSpaceOnUse">
<stop stop-color="#9C96A2"/>
<stop offset="1" stop-color="#9A95A1"/>
</linearGradient>
<linearGradient id="paint6_linear_16902_52954" x1="18.1328" y1="47.8833" x2="36.945" y2="47.8833" gradientUnits="userSpaceOnUse">
<stop stop-color="#9C96A2"/>
<stop offset="1" stop-color="#9A95A1"/>
</linearGradient>
<radialGradient id="paint7_radial_16902_52954" cx="0" cy="0" r="1" gradientUnits="userSpaceOnUse" gradientTransform="translate(26.0879 60.6151) rotate(-40.0074) scale(27.2848 16.9247)">
<stop stop-color="#FF9130"/>
<stop offset="1" stop-color="#F3633D"/>
</radialGradient>
<linearGradient id="paint8_linear_16902_52954" x1="33.0378" y1="45.7919" x2="34.9915" y2="48.0764" gradientUnits="userSpaceOnUse">
<stop stop-color="#EE9B6A"/>
<stop offset="1" stop-color="#EE9B6A" stop-opacity="0"/>
</linearGradient>
<linearGradient id="paint9_linear_16902_52954" x1="47.0401" y1="52.2266" x2="44.6656" y2="49.8144" gradientUnits="userSpaceOnUse">
<stop stop-color="#E66A62"/>
<stop offset="1" stop-color="#E66A62" stop-opacity="0"/>
</linearGradient>
<radialGradient id="paint10_radial_16902_52954" cx="0" cy="0" r="1" gradientUnits="userSpaceOnUse" gradientTransform="translate(25.7675 60.3219) rotate(-39.2242) scale(25.1986 5.63487)">
<stop stop-color="#FF994D"/>
<stop offset="1" stop-color="#FF994D" stop-opacity="0"/>
</radialGradient>
<linearGradient id="paint11_linear_16902_52954" x1="22.8768" y1="60.429" x2="25.9381" y2="66.4805" gradientUnits="userSpaceOnUse">
<stop stop-color="#D8A587"/>
<stop offset="1" stop-color="#CE7A98"/>
</linearGradient>
<linearGradient id="paint12_linear_16902_52954" x1="27.1212" y1="61.1116" x2="26.3276" y2="61.7712" gradientUnits="userSpaceOnUse">
<stop offset="0.207" stop-color="#FFC09F"/>
<stop offset="1" stop-color="#FCB196" stop-opacity="0"/>
</linearGradient>
<linearGradient id="paint13_linear_16902_52954" x1="19.6185" y1="59.8908" x2="22.5271" y2="60.4373" gradientUnits="userSpaceOnUse">
<stop stop-color="#DEBCA3"/>
<stop offset="1" stop-color="#DEBCA3" stop-opacity="0"/>
</linearGradient>
<linearGradient id="paint14_linear_16902_52954" x1="59.1529" y1="34.5157" x2="52.9024" y2="39.5622" gradientUnits="userSpaceOnUse">
<stop stop-color="#FF6153"/>
<stop offset="1" stop-color="#FF6154"/>
</linearGradient>
<linearGradient id="paint15_linear_16902_52954" x1="49.1082" y1="33.0018" x2="53.1851" y2="37.5876" gradientUnits="userSpaceOnUse">
<stop stop-color="#F1553E"/>
<stop offset="1" stop-color="#F1553E" stop-opacity="0"/>
</linearGradient>
<radialGradient id="paint16_radial_16902_52954" cx="0" cy="0" r="1" gradientUnits="userSpaceOnUse" gradientTransform="translate(57.8589 35.6946) rotate(140.636) scale(1.90061 4.31762)">
<stop offset="0.177" stop-color="#FF786D"/>
<stop offset="1" stop-color="#FF786D" stop-opacity="0"/>
</radialGradient>
<linearGradient id="paint17_linear_16902_52954" x1="45.3554" y1="36.5528" x2="50.538" y2="42.2924" gradientUnits="userSpaceOnUse">
<stop stop-color="#C5C4CB"/>
<stop offset="1" stop-color="#E8DEFA"/>
</linearGradient>
<linearGradient id="paint18_linear_16902_52954" x1="53.3753" y1="47.1022" x2="50.4877" y2="43.6807" gradientUnits="userSpaceOnUse">
<stop stop-color="#C9B9E0"/>
<stop offset="1" stop-color="#C9B9E0" stop-opacity="0"/>
</linearGradient>
<linearGradient id="paint19_linear_16902_52954" x1="20.2593" y1="63.5668" x2="21.524" y2="65.7424" gradientUnits="userSpaceOnUse">
<stop stop-color="#461E49"/>
<stop offset="1" stop-color="#450F51"/>
</linearGradient>
<clipPath id="clip0_16902_52954">
<rect x="0.367188" y="0.619141" width="71.2115" height="71.2115" rx="12.4932" fill="white"/>
</clipPath>
</defs>
</svg>
