<svg width="72" height="72" viewBox="0 0 72 72" fill="none" xmlns="http://www.w3.org/2000/svg">
<rect x="0.273438" y="0.0136719" width="71.2115" height="71.2115" rx="12.4932" fill="#7255CB"/>
<g clip-path="url(#clip0_24323_73213)">
<path d="M28.2734 37.6138V31.8762L33.0734 27.0762L37.8734 31.8762V37.6138H28.2734Z" fill="white"/>
<path opacity="0.8" fill-rule="evenodd" clip-rule="evenodd" d="M12.2734 32.813C12.2739 29.4602 13.0848 26.1572 14.6371 23.1855C16.1894 20.2137 18.437 17.6612 21.1886 15.7455C23.9401 13.8297 27.114 12.6076 30.4398 12.183C33.7656 11.7585 37.1447 12.1442 40.2892 13.3074C43.4338 14.4705 46.2506 16.3765 48.4996 18.8631C50.7486 21.3496 52.3632 24.343 53.2058 27.5882C54.0485 30.8333 54.0941 34.2341 53.3389 37.5007C52.5837 40.7673 51.0501 43.8029 48.8686 46.349L59.8062 57.2802L57.5438 59.5426L46.6062 48.6082C43.5857 51.196 39.8865 52.8635 35.9471 53.413C32.0078 53.9626 27.9935 53.3711 24.38 51.7087C20.7666 50.0463 17.7056 47.3827 15.5598 44.0336C13.4141 40.6846 12.2735 36.7905 12.2734 32.813ZM40.6062 30.0802L34.2062 23.6802C34.0576 23.5312 33.881 23.413 33.6867 23.3323C33.4923 23.2516 33.2839 23.2101 33.0734 23.2101C32.863 23.2101 32.6546 23.2516 32.4602 23.3323C32.2658 23.413 32.0893 23.5312 31.9406 23.6802L25.5406 30.0802C25.3922 30.229 25.2745 30.4057 25.1943 30.6001C25.1141 30.7945 25.0731 31.0027 25.0734 31.213V39.213C25.0734 39.6373 25.242 40.0443 25.5421 40.3444C25.8421 40.6444 26.2491 40.813 26.6734 40.813H39.4734C39.8978 40.813 40.3048 40.6444 40.6048 40.3444C40.9049 40.0443 41.0734 39.6373 41.0734 39.213V31.213C41.0738 31.0027 41.0327 30.7945 40.9526 30.6001C40.8724 30.4057 40.7547 30.229 40.6062 30.0802Z" fill="white"/>
</g>
<defs>
<clipPath id="clip0_24323_73213">
<rect width="48" height="48" fill="white" transform="translate(12.2734 12.0137)"/>
</clipPath>
</defs>
</svg>
