<svg width="72" height="72" viewBox="0 0 72 72" fill="none" xmlns="http://www.w3.org/2000/svg">
<rect x="0.696411" y="0.619537" width="71.2115" height="71.2115" rx="12.4932" fill="#FBB01A"/>
<path d="M32.1639 21.5901L35.9895 31.9285L46.3279 35.7541L35.9895 39.5796L32.1639 49.918L28.3384 39.5796L18 35.7541L28.3384 31.9285L32.1639 21.5901Z" fill="white"/>
<path d="M48.0984 15.6885L49.6923 19.9962L54 21.5902L49.6923 23.1842L48.0984 27.4918L46.5044 23.1842L42.1967 21.5902L46.5044 19.9962L48.0984 15.6885Z" fill="white"/>
<path d="M48.0984 44.0164L49.6923 48.324L54 49.918L49.6923 51.512L48.0984 55.8197L46.5044 51.512L42.1967 49.918L46.5044 48.324L48.0984 44.0164Z" fill="white"/>
</svg>
