<svg width="72" height="72" viewBox="0 0 72 72" fill="none" xmlns="http://www.w3.org/2000/svg">
<g clip-path="url(#clip0_16902_52922)">
<rect x="0.273438" y="0.619141" width="71.2115" height="71.2115" rx="12.4932" fill="#DC945F"/>
<g filter="url(#filter0_iiii_16902_52922)">
<path d="M11.6719 11.2485C11.6719 10.3113 12.0442 9.41254 12.7069 8.74984C13.3696 8.08714 14.2684 7.71484 15.2056 7.71484H56.4085C56.8725 7.71484 57.332 7.80625 57.7608 7.98383C58.1895 8.16141 58.579 8.42171 58.9072 8.74984C59.2353 9.07797 59.4956 9.46753 59.6732 9.89625C59.8508 10.325 59.9422 10.7845 59.9422 11.2485V63.6687C59.9422 64.1328 59.8508 64.5923 59.6732 65.021C59.4956 65.4498 59.2353 65.8393 58.9072 66.1674C58.579 66.4956 58.1895 66.7559 57.7608 66.9334C57.332 67.111 56.8725 67.2024 56.4085 67.2024H15.2056C14.7415 67.2024 14.282 67.111 13.8533 66.9334C13.4246 66.7559 13.035 66.4956 12.7069 66.1674C12.3787 65.8393 12.1184 65.4498 11.9409 65.021C11.7633 64.5923 11.6719 64.1328 11.6719 63.6687V11.2485Z" fill="url(#paint0_linear_16902_52922)"/>
<path d="M11.6719 11.2485C11.6719 10.3113 12.0442 9.41254 12.7069 8.74984C13.3696 8.08714 14.2684 7.71484 15.2056 7.71484H56.4085C56.8725 7.71484 57.332 7.80625 57.7608 7.98383C58.1895 8.16141 58.579 8.42171 58.9072 8.74984C59.2353 9.07797 59.4956 9.46753 59.6732 9.89625C59.8508 10.325 59.9422 10.7845 59.9422 11.2485V63.6687C59.9422 64.1328 59.8508 64.5923 59.6732 65.021C59.4956 65.4498 59.2353 65.8393 58.9072 66.1674C58.579 66.4956 58.1895 66.7559 57.7608 66.9334C57.332 67.111 56.8725 67.2024 56.4085 67.2024H15.2056C14.7415 67.2024 14.282 67.111 13.8533 66.9334C13.4246 66.7559 13.035 66.4956 12.7069 66.1674C12.3787 65.8393 12.1184 65.4498 11.9409 65.021C11.7633 64.5923 11.6719 64.1328 11.6719 63.6687V11.2485Z" fill="url(#paint1_radial_16902_52922)"/>
</g>
<g filter="url(#filter1_f_16902_52922)">
<path d="M18.0263 13.2275C16.5024 13.2275 15.2656 14.4643 15.2656 15.9882V60.5835C15.2656 62.1074 16.5024 63.3442 18.0263 63.3442H41.6381C42.0772 63.3438 42.4982 63.169 42.8086 62.8583L54.1893 51.4776C54.5 51.1673 54.6748 50.7462 54.6752 50.3071V15.9882C54.6752 14.4643 53.4384 13.2275 51.9145 13.2275H18.0241H18.0263Z" fill="#CD7D52"/>
</g>
<g filter="url(#filter2_ii_16902_52922)">
<path d="M18.8388 12.3994C17.3149 12.3994 16.0781 13.6362 16.0781 15.1601V59.7554C16.0781 61.2793 17.3149 62.5161 18.8388 62.5161H42.4528C42.8919 62.5157 43.313 62.3409 43.6233 62.0302L55.004 50.6495C55.3147 50.3391 55.4895 49.9181 55.4899 49.4789V15.1601C55.4899 13.6362 54.2531 12.3994 52.7292 12.3994H18.8388Z" fill="url(#paint2_linear_16902_52922)"/>
</g>
<path d="M50.074 27.5498H21.4997C20.9044 27.5498 20.4219 28.0323 20.4219 28.6276V28.6298C20.4219 29.225 20.9044 29.7076 21.4997 29.7076H50.074C50.6693 29.7076 51.1518 29.225 51.1518 28.6298V28.6276C51.1518 28.0323 50.6693 27.5498 50.074 27.5498Z" fill="#9B96A2"/>
<path d="M50.074 34.1914H21.4997C20.9044 34.1914 20.4219 34.6739 20.4219 35.2692V35.2714C20.4219 35.8666 20.9044 36.3492 21.4997 36.3492H50.074C50.6693 36.3492 51.1518 35.8666 51.1518 35.2714V35.2692C51.1518 34.6739 50.6693 34.1914 50.074 34.1914Z" fill="#9B96A2"/>
<path d="M50.074 40.835H21.4997C20.9044 40.835 20.4219 41.3175 20.4219 41.9127V41.9149C20.4219 42.5102 20.9044 42.9927 21.4997 42.9927H50.074C50.6693 42.9927 51.1518 42.5102 51.1518 41.9149V41.9127C51.1518 41.3175 50.6693 40.835 50.074 40.835Z" fill="#9B96A2"/>
<path d="M39.1527 47.4785H21.4997C20.9044 47.4785 20.4219 47.9611 20.4219 48.5563V48.5585C20.4219 49.1537 20.9044 49.6363 21.4997 49.6363H39.1527C39.7479 49.6363 40.2305 49.1537 40.2305 48.5585V48.5563C40.2305 47.9611 39.7479 47.4785 39.1527 47.4785Z" fill="#9B96A2"/>
<g filter="url(#filter3_f_16902_52922)">
<path d="M54.8129 49.667H54.8063C54.8063 50.1507 54.5346 50.2633 54.2718 50.292H44.7618C44.1881 50.2926 43.6382 50.5209 43.2327 50.9267C42.8273 51.3326 42.5996 51.8828 42.5996 52.4564V61.9422C42.5333 62.2668 42.1159 62.4524 41.8973 62.5076L41.8906 62.5164H42.0496C42.2629 62.5167 42.4741 62.4749 42.6712 62.3934C42.8682 62.3119 43.0473 62.1924 43.1981 62.0416L54.3381 50.8972C54.6421 50.5932 54.8129 50.1808 54.8129 49.7509V49.667Z" fill="#D0C1E0"/>
</g>
<g filter="url(#filter4_ii_16902_52922)">
<path d="M55.4796 49.3926H55.4708C55.4708 49.8873 55.1947 50.0043 54.9275 50.0331H45.2142C44.6285 50.0331 44.0667 50.2657 43.6525 50.6799C43.2383 51.0941 43.0057 51.6559 43.0057 52.2416V61.9306C42.9394 62.2619 42.5109 62.4518 42.2879 62.5048L42.2812 62.5158H42.4425C42.8816 62.5155 43.3027 62.3407 43.613 62.03L54.9937 50.6493C55.3045 50.3389 55.4792 49.9179 55.4796 49.4787V49.3926Z" fill="url(#paint3_linear_16902_52922)"/>
</g>
<g filter="url(#filter5_f_16902_52922)">
<path d="M24.2835 13.5037C24.2835 13.2108 24.3998 12.9299 24.6069 12.7229C24.814 12.5158 25.0949 12.3994 25.3877 12.3994H45.6778V18.2676C45.6778 18.5604 45.5614 18.8413 45.3544 19.0484C45.1473 19.2555 44.8664 19.3718 44.5735 19.3718H25.3855C25.0927 19.3718 24.8118 19.2555 24.6047 19.0484C24.3976 18.8413 24.2812 18.5604 24.2812 18.2676V13.5015L24.2835 13.5037Z" fill="#CABFD5"/>
</g>
<g filter="url(#filter6_ii_16902_52922)">
<path fill-rule="evenodd" clip-rule="evenodd" d="M35.7848 5.39355C38.17 5.39355 40.107 7.29733 40.1666 9.66712C40.1666 9.72675 40.2174 9.77755 40.277 9.77755H42.3597C43.5312 9.77755 44.6547 10.2429 45.4831 11.0713C46.3114 11.8997 46.7768 13.0232 46.7768 14.1947V17.6533C46.7768 17.7995 46.748 17.9442 46.6921 18.0792C46.6361 18.2143 46.5541 18.337 46.4508 18.4404C46.3474 18.5437 46.2247 18.6257 46.0897 18.6817C45.9546 18.7376 45.8099 18.7664 45.6637 18.7664H25.9412C25.646 18.7664 25.3629 18.6491 25.1541 18.4404C24.9454 18.2316 24.8281 17.9485 24.8281 17.6533V14.1969C24.8281 13.0254 25.2935 11.9019 26.1219 11.0735C26.9502 10.2451 28.0738 9.77976 29.2452 9.77976H31.2926C31.3219 9.77976 31.35 9.76812 31.3707 9.74741C31.3914 9.7267 31.403 9.69862 31.403 9.66933C31.4313 8.52607 31.9053 7.43915 32.724 6.64066C33.5428 5.84218 34.6412 5.39541 35.7848 5.39576V5.39355ZM35.7848 11.7608C36.0454 11.7608 36.3034 11.7095 36.5442 11.6098C36.7849 11.5101 37.0037 11.3639 37.188 11.1796C37.3722 10.9954 37.5184 10.7766 37.6181 10.5358C37.7179 10.2951 37.7692 10.037 37.7692 9.77644C37.7692 9.51585 37.7179 9.25781 37.6181 9.01705C37.5184 8.77629 37.3722 8.55753 37.188 8.37327C37.0037 8.189 36.7849 8.04283 36.5442 7.9431C36.3034 7.84338 36.0454 7.79205 35.7848 7.79205C35.2585 7.79205 34.7538 8.00112 34.3816 8.37327C34.0095 8.74541 33.8004 9.25015 33.8004 9.77644C33.8004 10.3027 34.0095 10.8075 34.3816 11.1796C34.7538 11.5518 35.2585 11.7608 35.7848 11.7608Z" fill="url(#paint4_linear_16902_52922)"/>
</g>
</g>
<defs>
<filter id="filter0_iiii_16902_52922" x="11.5762" y="7.64654" width="48.4374" height="59.6239" filterUnits="userSpaceOnUse" color-interpolation-filters="sRGB">
<feFlood flood-opacity="0" result="BackgroundImageFix"/>
<feBlend mode="normal" in="SourceGraphic" in2="BackgroundImageFix" result="shape"/>
<feColorMatrix in="SourceAlpha" type="matrix" values="0 0 0 0 0 0 0 0 0 0 0 0 0 0 0 0 0 0 127 0" result="hardAlpha"/>
<feOffset dx="0.068306"/>
<feGaussianBlur stdDeviation="0.068306"/>
<feComposite in2="hardAlpha" operator="arithmetic" k2="-1" k3="1"/>
<feColorMatrix type="matrix" values="0 0 0 0 0.670588 0 0 0 0 0.376471 0 0 0 0 0.278431 0 0 0 1 0"/>
<feBlend mode="normal" in2="shape" result="effect1_innerShadow_16902_52922"/>
<feColorMatrix in="SourceAlpha" type="matrix" values="0 0 0 0 0 0 0 0 0 0 0 0 0 0 0 0 0 0 127 0" result="hardAlpha"/>
<feOffset dy="-0.068306"/>
<feGaussianBlur stdDeviation="0.068306"/>
<feComposite in2="hardAlpha" operator="arithmetic" k2="-1" k3="1"/>
<feColorMatrix type="matrix" values="0 0 0 0 0.643137 0 0 0 0 0.329412 0 0 0 0 0.364706 0 0 0 1 0"/>
<feBlend mode="normal" in2="effect1_innerShadow_16902_52922" result="effect2_innerShadow_16902_52922"/>
<feColorMatrix in="SourceAlpha" type="matrix" values="0 0 0 0 0 0 0 0 0 0 0 0 0 0 0 0 0 0 127 0" result="hardAlpha"/>
<feOffset dx="-0.0956284" dy="0.068306"/>
<feGaussianBlur stdDeviation="0.0614754"/>
<feComposite in2="hardAlpha" operator="arithmetic" k2="-1" k3="1"/>
<feColorMatrix type="matrix" values="0 0 0 0 1 0 0 0 0 0.760784 0 0 0 0 0.529412 0 0 0 1 0"/>
<feBlend mode="normal" in2="effect2_innerShadow_16902_52922" result="effect3_innerShadow_16902_52922"/>
<feColorMatrix in="SourceAlpha" type="matrix" values="0 0 0 0 0 0 0 0 0 0 0 0 0 0 0 0 0 0 127 0" result="hardAlpha"/>
<feOffset dx="-0.0136612" dy="0.0136612"/>
<feGaussianBlur stdDeviation="0.0273224"/>
<feComposite in2="hardAlpha" operator="arithmetic" k2="-1" k3="1"/>
<feColorMatrix type="matrix" values="0 0 0 0 0.815686 0 0 0 0 0.560784 0 0 0 0 0.396078 0 0 0 1 0"/>
<feBlend mode="normal" in2="effect3_innerShadow_16902_52922" result="effect4_innerShadow_16902_52922"/>
</filter>
<filter id="filter1_f_16902_52922" x="15.129" y="13.0909" width="39.6795" height="50.3894" filterUnits="userSpaceOnUse" color-interpolation-filters="sRGB">
<feFlood flood-opacity="0" result="BackgroundImageFix"/>
<feBlend mode="normal" in="SourceGraphic" in2="BackgroundImageFix" result="shape"/>
<feGaussianBlur stdDeviation="0.068306" result="effect1_foregroundBlur_16902_52922"/>
</filter>
<filter id="filter2_ii_16902_52922" x="16.0371" y="12.3584" width="39.496" height="50.1982" filterUnits="userSpaceOnUse" color-interpolation-filters="sRGB">
<feFlood flood-opacity="0" result="BackgroundImageFix"/>
<feBlend mode="normal" in="SourceGraphic" in2="BackgroundImageFix" result="shape"/>
<feColorMatrix in="SourceAlpha" type="matrix" values="0 0 0 0 0 0 0 0 0 0 0 0 0 0 0 0 0 0 127 0" result="hardAlpha"/>
<feOffset dx="0.0409836" dy="-0.0409836"/>
<feGaussianBlur stdDeviation="0.0409836"/>
<feComposite in2="hardAlpha" operator="arithmetic" k2="-1" k3="1"/>
<feColorMatrix type="matrix" values="0 0 0 0 0.792157 0 0 0 0 0.721569 0 0 0 0 0.862745 0 0 0 1 0"/>
<feBlend mode="normal" in2="shape" result="effect1_innerShadow_16902_52922"/>
<feColorMatrix in="SourceAlpha" type="matrix" values="0 0 0 0 0 0 0 0 0 0 0 0 0 0 0 0 0 0 127 0" result="hardAlpha"/>
<feOffset dx="-0.0409836" dy="0.0409836"/>
<feGaussianBlur stdDeviation="0.0409836"/>
<feComposite in2="hardAlpha" operator="arithmetic" k2="-1" k3="1"/>
<feColorMatrix type="matrix" values="0 0 0 0 1 0 0 0 0 1 0 0 0 0 1 0 0 0 1 0"/>
<feBlend mode="normal" in2="effect1_innerShadow_16902_52922" result="effect2_innerShadow_16902_52922"/>
</filter>
<filter id="filter3_f_16902_52922" x="41.8223" y="49.5987" width="13.0585" height="12.9862" filterUnits="userSpaceOnUse" color-interpolation-filters="sRGB">
<feFlood flood-opacity="0" result="BackgroundImageFix"/>
<feBlend mode="normal" in="SourceGraphic" in2="BackgroundImageFix" result="shape"/>
<feGaussianBlur stdDeviation="0.034153" result="effect1_foregroundBlur_16902_52922"/>
</filter>
<filter id="filter4_ii_16902_52922" x="42.2812" y="49.3926" width="13.2363" height="13.1504" filterUnits="userSpaceOnUse" color-interpolation-filters="sRGB">
<feFlood flood-opacity="0" result="BackgroundImageFix"/>
<feBlend mode="normal" in="SourceGraphic" in2="BackgroundImageFix" result="shape"/>
<feColorMatrix in="SourceAlpha" type="matrix" values="0 0 0 0 0 0 0 0 0 0 0 0 0 0 0 0 0 0 127 0" result="hardAlpha"/>
<feOffset dx="0.0409836"/>
<feGaussianBlur stdDeviation="0.034153"/>
<feComposite in2="hardAlpha" operator="arithmetic" k2="-1" k3="1"/>
<feColorMatrix type="matrix" values="0 0 0 0 0.662745 0 0 0 0 0.611765 0 0 0 0 0.705882 0 0 0 1 0"/>
<feBlend mode="normal" in2="shape" result="effect1_innerShadow_16902_52922"/>
<feColorMatrix in="SourceAlpha" type="matrix" values="0 0 0 0 0 0 0 0 0 0 0 0 0 0 0 0 0 0 127 0" result="hardAlpha"/>
<feOffset dy="0.0273224"/>
<feGaussianBlur stdDeviation="0.0204918"/>
<feComposite in2="hardAlpha" operator="arithmetic" k2="-1" k3="1"/>
<feColorMatrix type="matrix" values="0 0 0 0 0.878431 0 0 0 0 0.866667 0 0 0 0 0.890196 0 0 0 1 0"/>
<feBlend mode="normal" in2="effect1_innerShadow_16902_52922" result="effect2_innerShadow_16902_52922"/>
</filter>
<filter id="filter5_f_16902_52922" x="24.172" y="12.2901" width="21.617" height="7.19124" filterUnits="userSpaceOnUse" color-interpolation-filters="sRGB">
<feFlood flood-opacity="0" result="BackgroundImageFix"/>
<feBlend mode="normal" in="SourceGraphic" in2="BackgroundImageFix" result="shape"/>
<feGaussianBlur stdDeviation="0.0546448" result="effect1_foregroundBlur_16902_52922"/>
</filter>
<filter id="filter6_ii_16902_52922" x="24.8008" y="5.36623" width="22" height="13.4277" filterUnits="userSpaceOnUse" color-interpolation-filters="sRGB">
<feFlood flood-opacity="0" result="BackgroundImageFix"/>
<feBlend mode="normal" in="SourceGraphic" in2="BackgroundImageFix" result="shape"/>
<feColorMatrix in="SourceAlpha" type="matrix" values="0 0 0 0 0 0 0 0 0 0 0 0 0 0 0 0 0 0 127 0" result="hardAlpha"/>
<feOffset dx="0.0273224" dy="-0.0273224"/>
<feGaussianBlur stdDeviation="0.0273224"/>
<feComposite in2="hardAlpha" operator="arithmetic" k2="-1" k3="1"/>
<feColorMatrix type="matrix" values="0 0 0 0 0.556863 0 0 0 0 0.501961 0 0 0 0 0.572549 0 0 0 1 0"/>
<feBlend mode="normal" in2="shape" result="effect1_innerShadow_16902_52922"/>
<feColorMatrix in="SourceAlpha" type="matrix" values="0 0 0 0 0 0 0 0 0 0 0 0 0 0 0 0 0 0 127 0" result="hardAlpha"/>
<feOffset dx="-0.0273224" dy="0.0273224"/>
<feGaussianBlur stdDeviation="0.0136612"/>
<feComposite in2="hardAlpha" operator="arithmetic" k2="-1" k3="1"/>
<feColorMatrix type="matrix" values="0 0 0 0 0.67451 0 0 0 0 0.65098 0 0 0 0 0.670588 0 0 0 1 0"/>
<feBlend mode="normal" in2="effect1_innerShadow_16902_52922" result="effect2_innerShadow_16902_52922"/>
</filter>
<linearGradient id="paint0_linear_16902_52922" x1="35.807" y1="7.71484" x2="35.807" y2="67.2002" gradientUnits="userSpaceOnUse">
<stop stop-color="#E8A874"/>
<stop offset="1" stop-color="#DB925D"/>
</linearGradient>
<radialGradient id="paint1_radial_16902_52922" cx="0" cy="0" r="1" gradientUnits="userSpaceOnUse" gradientTransform="translate(35.1113 12.7459) rotate(-90) scale(5.5214 4.48037)">
<stop stop-color="#D79769"/>
<stop offset="1" stop-color="#D79769" stop-opacity="0"/>
</radialGradient>
<linearGradient id="paint2_linear_16902_52922" x1="35.7829" y1="12.3994" x2="35.7829" y2="62.5161" gradientUnits="userSpaceOnUse">
<stop stop-color="#EAE2F4"/>
<stop offset="1" stop-color="#E4DAEF"/>
</linearGradient>
<linearGradient id="paint3_linear_16902_52922" x1="43.1779" y1="51.1197" x2="48.2157" y2="56.5704" gradientUnits="userSpaceOnUse">
<stop stop-color="#D6CDE1"/>
<stop offset="1" stop-color="#C6BAD2"/>
</linearGradient>
<linearGradient id="paint4_linear_16902_52922" x1="41.8075" y1="9.36234" x2="35.0427" y2="19.1639" gradientUnits="userSpaceOnUse">
<stop stop-color="#948A94"/>
<stop offset="1" stop-color="#8D8291"/>
</linearGradient>
<clipPath id="clip0_16902_52922">
<rect x="0.273438" y="0.619141" width="71.2115" height="71.2115" rx="12.4932" fill="white"/>
</clipPath>
</defs>
</svg>
