<svg width="72" height="73" viewBox="0 0 72 73" fill="none" xmlns="http://www.w3.org/2000/svg">
<rect x="0.273438" y="0.912109" width="71.2115" height="71.2115" rx="12.4932" fill="#060623"/>
<path fill-rule="evenodd" clip-rule="evenodd" d="M21.4494 21.4121C19.6954 21.4121 18.2734 22.8521 18.2734 24.6261V43.9121C18.2734 45.6871 19.6954 47.1261 21.4494 47.1261H32.0384V49.2691H27.8024V51.4121H44.7444V49.2691H40.5084V47.1261H51.0974C52.8514 47.1261 54.2734 45.6871 54.2734 43.9121V24.6261C54.2734 22.8521 52.8514 21.4121 51.0974 21.4121H21.4494ZM34.1554 49.2691V47.1261H38.3914V49.2691H34.1554ZM25.6854 25.6981H27.8034V27.8411H29.9214V29.9841H27.8034V32.1261H25.6854V29.9841H23.5674V27.8411H25.6854V25.6981ZM23.5674 36.4121C23.5674 35.8201 24.0414 35.3411 24.6264 35.3411H28.8614C29.4464 35.3411 29.9204 35.8211 29.9204 36.4121V40.6981C29.9204 41.2891 29.4464 41.7691 28.8614 41.7691H24.6264C24.0414 41.7691 23.5664 41.2891 23.5664 40.6981L23.5674 36.4121ZM33.0974 26.7691C33.0974 26.1781 33.5704 25.6981 34.1554 25.6981H38.3904C38.9754 25.6981 39.4504 26.1781 39.4504 26.7691V31.0551C39.4504 31.6471 38.9754 32.1261 38.3904 32.1261H34.1554C33.5704 32.1261 33.0964 31.6461 33.0964 31.0551L33.0974 26.7691ZM33.0974 36.4121C33.0974 35.8201 33.5704 35.3411 34.1554 35.3411H38.3904C38.9754 35.3411 39.4504 35.8211 39.4504 36.4121V40.6981C39.4504 41.2891 38.9754 41.7691 38.3904 41.7691H34.1554C33.5704 41.7691 33.0964 41.2891 33.0964 40.6981L33.0974 36.4121ZM42.6264 26.7691C42.6264 26.1781 43.1004 25.6981 43.6854 25.6981H47.9204C48.5054 25.6981 48.9794 26.1781 48.9794 26.7691V31.0551C48.9794 31.6471 48.5054 32.1261 47.9194 32.1261H43.6854C43.1004 32.1261 42.6254 31.6461 42.6254 31.0551L42.6264 26.7691Z" fill="white"/>
</svg>
