<svg width="97" height="97" viewBox="0 0 97 97" fill="none" xmlns="http://www.w3.org/2000/svg">
<g filter="url(#filter0_ii_11202_255291)">
<path d="M83.2281 15.2891H13.7852C9.59987 15.2891 6.20703 18.6819 6.20703 22.8672V59.2846C6.20703 63.4699 9.59987 66.8628 13.7852 66.8628H83.2281C87.4133 66.8628 90.8062 63.4699 90.8062 59.2846V22.8672C90.8062 18.6819 87.4133 15.2891 83.2281 15.2891Z" fill="url(#paint0_linear_11202_255291)"/>
<path d="M83.2281 15.2891H13.7852C9.59987 15.2891 6.20703 18.6819 6.20703 22.8672V59.2846C6.20703 63.4699 9.59987 66.8628 13.7852 66.8628H83.2281C87.4133 66.8628 90.8062 63.4699 90.8062 59.2846V22.8672C90.8062 18.6819 87.4133 15.2891 83.2281 15.2891Z" fill="url(#paint1_linear_11202_255291)"/>
</g>
<path d="M83.2281 15.2891H13.7852C9.59987 15.2891 6.20703 18.6819 6.20703 22.8672V59.2846C6.20703 63.4699 9.59987 66.8628 13.7852 66.8628H83.2281C87.4133 66.8628 90.8062 63.4699 90.8062 59.2846V22.8672C90.8062 18.6819 87.4133 15.2891 83.2281 15.2891Z" fill="url(#paint2_radial_11202_255291)"/>
<g filter="url(#filter1_ii_11202_255291)">
<path d="M83.2281 27.0293H13.7852C9.59987 27.0293 6.20703 30.4221 6.20703 34.6074V71.0249C6.20703 75.2101 9.59987 78.603 13.7852 78.603H83.2281C87.4133 78.603 90.8062 75.2101 90.8062 71.0249V34.6074C90.8062 30.4221 87.4133 27.0293 83.2281 27.0293Z" fill="url(#paint3_linear_11202_255291)"/>
<path d="M83.2281 27.0293H13.7852C9.59987 27.0293 6.20703 30.4221 6.20703 34.6074V71.0249C6.20703 75.2101 9.59987 78.603 13.7852 78.603H83.2281C87.4133 78.603 90.8062 75.2101 90.8062 71.0249V34.6074C90.8062 30.4221 87.4133 27.0293 83.2281 27.0293Z" fill="url(#paint4_linear_11202_255291)"/>
</g>
<path d="M83.2281 27.0293H13.7852C9.59987 27.0293 6.20703 30.4221 6.20703 34.6074V71.0249C6.20703 75.2101 9.59987 78.603 13.7852 78.603H83.2281C87.4133 78.603 90.8062 75.2101 90.8062 71.0249V34.6074C90.8062 30.4221 87.4133 27.0293 83.2281 27.0293Z" fill="url(#paint5_radial_11202_255291)"/>
<g filter="url(#filter2_ii_11202_255291)">
<path d="M25.482 33.3682C24.3565 33.3682 23.2771 33.8153 22.4812 34.6111C21.6854 35.407 21.2383 36.4864 21.2383 37.6119V39.2397H42.457V37.6119C42.457 36.4864 42.0099 35.407 41.2141 34.6111C40.4182 33.8153 39.3388 33.3682 38.2133 33.3682H25.482Z" fill="url(#paint6_linear_11202_255291)"/>
</g>
<g filter="url(#filter3_ii_11202_255291)">
<path d="M42.6383 21.1582C42.081 21.1582 41.5291 21.268 41.0143 21.4812C40.4994 21.6945 40.0316 22.0071 39.6375 22.4012C39.2434 22.7952 38.9308 23.2631 38.7176 23.7779C38.5043 24.2928 38.3945 24.8447 38.3945 25.402V27.0297H59.6133V25.402C59.6133 24.2764 59.1662 23.197 58.3703 22.4012C57.5745 21.6053 56.495 21.1582 55.3695 21.1582H42.6383Z" fill="url(#paint7_linear_11202_255291)"/>
</g>
<g filter="url(#filter4_ii_11202_255291)">
<path d="M58.8102 9.41797C57.6846 9.41797 56.6052 9.86508 55.8094 10.6609C55.0135 11.4568 54.5664 12.5362 54.5664 13.6617V15.2895H75.7821V13.6617C75.7821 12.5362 75.335 11.4568 74.5392 10.6609C73.7433 9.86508 72.6639 9.41797 71.5384 9.41797H58.8102Z" fill="url(#paint8_linear_11202_255291)"/>
</g>
<g filter="url(#filter5_ii_11202_255291)">
<path d="M83.2281 39.2393H13.7852C9.59987 39.2393 6.20703 42.6321 6.20703 46.8174V83.2348C6.20703 87.4201 9.59987 90.8129 13.7852 90.8129H83.2281C87.4133 90.8129 90.8062 87.4201 90.8062 83.2348V46.8174C90.8062 42.6321 87.4133 39.2393 83.2281 39.2393Z" fill="url(#paint9_linear_11202_255291)"/>
</g>
<path d="M83.2281 39.2393H13.7852C9.59987 39.2393 6.20703 42.6321 6.20703 46.8174V83.2348C6.20703 87.4201 9.59987 90.8129 13.7852 90.8129H83.2281C87.4133 90.8129 90.8062 87.4201 90.8062 83.2348V46.8174C90.8062 42.6321 87.4133 39.2393 83.2281 39.2393Z" fill="url(#paint10_radial_11202_255291)"/>
<defs>
<filter id="filter0_ii_11202_255291" x="6.09453" y="15.2891" width="84.7102" height="51.7237" filterUnits="userSpaceOnUse" color-interpolation-filters="sRGB">
<feFlood flood-opacity="0" result="BackgroundImageFix"/>
<feBlend mode="normal" in="SourceGraphic" in2="BackgroundImageFix" result="shape"/>
<feColorMatrix in="SourceAlpha" type="matrix" values="0 0 0 0 0 0 0 0 0 0 0 0 0 0 0 0 0 0 127 0" result="hardAlpha"/>
<feOffset dx="-0.1125" dy="0.15"/>
<feGaussianBlur stdDeviation="0.1875"/>
<feComposite in2="hardAlpha" operator="arithmetic" k2="-1" k3="1"/>
<feColorMatrix type="matrix" values="0 0 0 0 1 0 0 0 0 0.890196 0 0 0 0 0.290196 0 0 0 1 0"/>
<feBlend mode="normal" in2="shape" result="effect1_innerShadow_11202_255291"/>
<feColorMatrix in="SourceAlpha" type="matrix" values="0 0 0 0 0 0 0 0 0 0 0 0 0 0 0 0 0 0 127 0" result="hardAlpha"/>
<feOffset dy="0.075"/>
<feGaussianBlur stdDeviation="0.09375"/>
<feComposite in2="hardAlpha" operator="arithmetic" k2="-1" k3="1"/>
<feColorMatrix type="matrix" values="0 0 0 0 0.976471 0 0 0 0 0.792157 0 0 0 0 0.298039 0 0 0 1 0"/>
<feBlend mode="normal" in2="effect1_innerShadow_11202_255291" result="effect2_innerShadow_11202_255291"/>
</filter>
<filter id="filter1_ii_11202_255291" x="6.09453" y="26.8793" width="84.7102" height="51.8737" filterUnits="userSpaceOnUse" color-interpolation-filters="sRGB">
<feFlood flood-opacity="0" result="BackgroundImageFix"/>
<feBlend mode="normal" in="SourceGraphic" in2="BackgroundImageFix" result="shape"/>
<feColorMatrix in="SourceAlpha" type="matrix" values="0 0 0 0 0 0 0 0 0 0 0 0 0 0 0 0 0 0 127 0" result="hardAlpha"/>
<feOffset dy="-0.15"/>
<feGaussianBlur stdDeviation="0.140625"/>
<feComposite in2="hardAlpha" operator="arithmetic" k2="-1" k3="1"/>
<feColorMatrix type="matrix" values="0 0 0 0 0.956863 0 0 0 0 0.6 0 0 0 0 0.407843 0 0 0 1 0"/>
<feBlend mode="normal" in2="shape" result="effect1_innerShadow_11202_255291"/>
<feColorMatrix in="SourceAlpha" type="matrix" values="0 0 0 0 0 0 0 0 0 0 0 0 0 0 0 0 0 0 127 0" result="hardAlpha"/>
<feOffset dx="-0.1125" dy="0.15"/>
<feGaussianBlur stdDeviation="0.1875"/>
<feComposite in2="hardAlpha" operator="arithmetic" k2="-1" k3="1"/>
<feColorMatrix type="matrix" values="0 0 0 0 1 0 0 0 0 0.890196 0 0 0 0 0.290196 0 0 0 1 0"/>
<feBlend mode="normal" in2="effect1_innerShadow_11202_255291" result="effect2_innerShadow_11202_255291"/>
</filter>
<filter id="filter2_ii_11202_255291" x="21.2008" y="33.3682" width="21.2938" height="5.90908" filterUnits="userSpaceOnUse" color-interpolation-filters="sRGB">
<feFlood flood-opacity="0" result="BackgroundImageFix"/>
<feBlend mode="normal" in="SourceGraphic" in2="BackgroundImageFix" result="shape"/>
<feColorMatrix in="SourceAlpha" type="matrix" values="0 0 0 0 0 0 0 0 0 0 0 0 0 0 0 0 0 0 127 0" result="hardAlpha"/>
<feOffset dx="-0.0375"/>
<feGaussianBlur stdDeviation="0.046875"/>
<feComposite in2="hardAlpha" operator="arithmetic" k2="-1" k3="1"/>
<feColorMatrix type="matrix" values="0 0 0 0 1 0 0 0 0 0.25098 0 0 0 0 0.458824 0 0 0 1 0"/>
<feBlend mode="normal" in2="shape" result="effect1_innerShadow_11202_255291"/>
<feColorMatrix in="SourceAlpha" type="matrix" values="0 0 0 0 0 0 0 0 0 0 0 0 0 0 0 0 0 0 127 0" result="hardAlpha"/>
<feOffset dx="0.0375" dy="0.0375"/>
<feGaussianBlur stdDeviation="0.046875"/>
<feComposite in2="hardAlpha" operator="arithmetic" k2="-1" k3="1"/>
<feColorMatrix type="matrix" values="0 0 0 0 0.992157 0 0 0 0 0.282353 0 0 0 0 0.262745 0 0 0 1 0"/>
<feBlend mode="normal" in2="effect1_innerShadow_11202_255291" result="effect2_innerShadow_11202_255291"/>
</filter>
<filter id="filter3_ii_11202_255291" x="38.357" y="21.1582" width="21.2938" height="5.90908" filterUnits="userSpaceOnUse" color-interpolation-filters="sRGB">
<feFlood flood-opacity="0" result="BackgroundImageFix"/>
<feBlend mode="normal" in="SourceGraphic" in2="BackgroundImageFix" result="shape"/>
<feColorMatrix in="SourceAlpha" type="matrix" values="0 0 0 0 0 0 0 0 0 0 0 0 0 0 0 0 0 0 127 0" result="hardAlpha"/>
<feOffset dx="-0.0375"/>
<feGaussianBlur stdDeviation="0.046875"/>
<feComposite in2="hardAlpha" operator="arithmetic" k2="-1" k3="1"/>
<feColorMatrix type="matrix" values="0 0 0 0 0.298039 0 0 0 0 0.611765 0 0 0 0 0.85098 0 0 0 1 0"/>
<feBlend mode="normal" in2="shape" result="effect1_innerShadow_11202_255291"/>
<feColorMatrix in="SourceAlpha" type="matrix" values="0 0 0 0 0 0 0 0 0 0 0 0 0 0 0 0 0 0 127 0" result="hardAlpha"/>
<feOffset dx="0.0375" dy="0.0375"/>
<feGaussianBlur stdDeviation="0.046875"/>
<feComposite in2="hardAlpha" operator="arithmetic" k2="-1" k3="1"/>
<feColorMatrix type="matrix" values="0 0 0 0 0.270588 0 0 0 0 0.501961 0 0 0 0 0.768627 0 0 0 1 0"/>
<feBlend mode="normal" in2="effect1_innerShadow_11202_255291" result="effect2_innerShadow_11202_255291"/>
</filter>
<filter id="filter4_ii_11202_255291" x="54.5289" y="9.41797" width="21.2898" height="5.90908" filterUnits="userSpaceOnUse" color-interpolation-filters="sRGB">
<feFlood flood-opacity="0" result="BackgroundImageFix"/>
<feBlend mode="normal" in="SourceGraphic" in2="BackgroundImageFix" result="shape"/>
<feColorMatrix in="SourceAlpha" type="matrix" values="0 0 0 0 0 0 0 0 0 0 0 0 0 0 0 0 0 0 127 0" result="hardAlpha"/>
<feOffset dx="-0.0375"/>
<feGaussianBlur stdDeviation="0.046875"/>
<feComposite in2="hardAlpha" operator="arithmetic" k2="-1" k3="1"/>
<feColorMatrix type="matrix" values="0 0 0 0 0.34902 0 0 0 0 0.905882 0 0 0 0 0.603922 0 0 0 1 0"/>
<feBlend mode="normal" in2="shape" result="effect1_innerShadow_11202_255291"/>
<feColorMatrix in="SourceAlpha" type="matrix" values="0 0 0 0 0 0 0 0 0 0 0 0 0 0 0 0 0 0 127 0" result="hardAlpha"/>
<feOffset dx="0.0375" dy="0.0375"/>
<feGaussianBlur stdDeviation="0.046875"/>
<feComposite in2="hardAlpha" operator="arithmetic" k2="-1" k3="1"/>
<feColorMatrix type="matrix" values="0 0 0 0 0.239216 0 0 0 0 0.713726 0 0 0 0 0.411765 0 0 0 1 0"/>
<feBlend mode="normal" in2="effect1_innerShadow_11202_255291" result="effect2_innerShadow_11202_255291"/>
</filter>
<filter id="filter5_ii_11202_255291" x="6.09453" y="39.0893" width="84.7102" height="51.8737" filterUnits="userSpaceOnUse" color-interpolation-filters="sRGB">
<feFlood flood-opacity="0" result="BackgroundImageFix"/>
<feBlend mode="normal" in="SourceGraphic" in2="BackgroundImageFix" result="shape"/>
<feColorMatrix in="SourceAlpha" type="matrix" values="0 0 0 0 0 0 0 0 0 0 0 0 0 0 0 0 0 0 127 0" result="hardAlpha"/>
<feOffset dy="-0.15"/>
<feGaussianBlur stdDeviation="0.140625"/>
<feComposite in2="hardAlpha" operator="arithmetic" k2="-1" k3="1"/>
<feColorMatrix type="matrix" values="0 0 0 0 0.956863 0 0 0 0 0.6 0 0 0 0 0.407843 0 0 0 1 0"/>
<feBlend mode="normal" in2="shape" result="effect1_innerShadow_11202_255291"/>
<feColorMatrix in="SourceAlpha" type="matrix" values="0 0 0 0 0 0 0 0 0 0 0 0 0 0 0 0 0 0 127 0" result="hardAlpha"/>
<feOffset dx="-0.1125" dy="0.15"/>
<feGaussianBlur stdDeviation="0.1875"/>
<feComposite in2="hardAlpha" operator="arithmetic" k2="-1" k3="1"/>
<feColorMatrix type="matrix" values="0 0 0 0 1 0 0 0 0 0.945098 0 0 0 0 0.317647 0 0 0 1 0"/>
<feBlend mode="normal" in2="effect1_innerShadow_11202_255291" result="effect2_innerShadow_11202_255291"/>
</filter>
<linearGradient id="paint0_linear_11202_255291" x1="48.5051" y1="15.2891" x2="48.5051" y2="28.9661" gradientUnits="userSpaceOnUse">
<stop stop-color="#FFD650"/>
<stop offset="1" stop-color="#FFCD4A"/>
</linearGradient>
<linearGradient id="paint1_linear_11202_255291" x1="48.5051" y1="29.2328" x2="48.5051" y2="21.494" gradientUnits="userSpaceOnUse">
<stop stop-color="#FFBA48"/>
<stop offset="1" stop-color="#FFBA48" stop-opacity="0"/>
</linearGradient>
<radialGradient id="paint2_radial_11202_255291" cx="0" cy="0" r="1" gradientUnits="userSpaceOnUse" gradientTransform="translate(90.8032 16.6713) rotate(134.482) scale(6.90397 11.6779)">
<stop stop-color="#FFE857"/>
<stop offset="1" stop-color="#FFE857" stop-opacity="0"/>
</radialGradient>
<linearGradient id="paint3_linear_11202_255291" x1="48.5051" y1="27.0293" x2="48.5051" y2="78.603" gradientUnits="userSpaceOnUse">
<stop stop-color="#FFDA53"/>
<stop offset="1" stop-color="#FFBA59"/>
</linearGradient>
<linearGradient id="paint4_linear_11202_255291" x1="48.5051" y1="43.6436" x2="48.5051" y2="33.1009" gradientUnits="userSpaceOnUse">
<stop stop-color="#FFBA48"/>
<stop offset="1" stop-color="#FFBA48" stop-opacity="0"/>
</linearGradient>
<radialGradient id="paint5_radial_11202_255291" cx="0" cy="0" r="1" gradientUnits="userSpaceOnUse" gradientTransform="translate(90.8032 28.4146) rotate(134.482) scale(6.90397 11.6779)">
<stop stop-color="#FFE857"/>
<stop offset="1" stop-color="#FFE857" stop-opacity="0"/>
</radialGradient>
<linearGradient id="paint6_linear_11202_255291" x1="31.8477" y1="33.3682" x2="31.8477" y2="39.2397" gradientUnits="userSpaceOnUse">
<stop stop-color="#FF416D"/>
<stop offset="1" stop-color="#FF3A66"/>
</linearGradient>
<linearGradient id="paint7_linear_11202_255291" x1="49.0039" y1="21.1582" x2="49.0039" y2="27.0297" gradientUnits="userSpaceOnUse">
<stop stop-color="#4794D7"/>
<stop offset="1" stop-color="#4482CA"/>
</linearGradient>
<linearGradient id="paint8_linear_11202_255291" x1="65.1728" y1="9.41797" x2="65.1728" y2="15.2895" gradientUnits="userSpaceOnUse">
<stop stop-color="#4EDC8E"/>
<stop offset="1" stop-color="#54C877"/>
</linearGradient>
<linearGradient id="paint9_linear_11202_255291" x1="48.5051" y1="39.2393" x2="48.5051" y2="90.8129" gradientUnits="userSpaceOnUse">
<stop stop-color="#FFDA53"/>
<stop offset="1" stop-color="#FFBA59"/>
</linearGradient>
<radialGradient id="paint10_radial_11202_255291" cx="0" cy="0" r="1" gradientUnits="userSpaceOnUse" gradientTransform="translate(90.8032 40.6245) rotate(134.482) scale(6.90397 11.6779)">
<stop stop-color="#FFE857"/>
<stop offset="1" stop-color="#FFE857" stop-opacity="0"/>
</radialGradient>
</defs>
</svg>
