<svg width="16" height="16" viewBox="0 0 16 16" fill="none" xmlns="http://www.w3.org/2000/svg">
<path d="M5.66634 12.6666H5.33301C2.66634 12.6666 1.33301 11.9999 1.33301 8.66659V5.33325C1.33301 2.66659 2.66634 1.33325 5.33301 1.33325H10.6663C13.333 1.33325 14.6663 2.66659 14.6663 5.33325V8.66659C14.6663 11.3333 13.333 12.6666 10.6663 12.6666H10.333C10.1263 12.6666 9.92634 12.7666 9.79967 12.9333L8.79967 14.2666C8.35967 14.8533 7.63967 14.8533 7.19967 14.2666L6.19967 12.9333C6.09301 12.7866 5.84634 12.6666 5.66634 12.6666Z" stroke="#042713" stroke-miterlimit="10" stroke-linecap="round" stroke-linejoin="round"/>
<path d="M4.66699 5.33325H11.3337" stroke="#042713" stroke-linecap="round" stroke-linejoin="round"/>
<path d="M4.66699 8.66675H8.66699" stroke="#042713" stroke-linecap="round" stroke-linejoin="round"/>
</svg>
