<svg width="16" height="16" viewBox="0 0 16 16" fill="none" xmlns="http://www.w3.org/2000/svg">
<path d="M6.01325 1.89409L2.41992 4.69409C1.81992 5.16076 1.33325 6.15409 1.33325 6.90743V11.8474C1.33325 13.3941 2.59325 14.6608 4.13992 14.6608H11.8599C13.4066 14.6608 14.6666 13.3941 14.6666 11.8541V7.00076C14.6666 6.19409 14.1266 5.16076 13.4666 4.70076L9.34659 1.81409C8.41325 1.16076 6.91325 1.19409 6.01325 1.89409Z" stroke="black" stroke-linecap="round" stroke-linejoin="round"/>
<path d="M7 12H9C10.1 12 11 11.1 11 10V8C11 6.9 10.1 6 9 6H7C5.9 6 5 6.9 5 8V10C5 11.1 5.9 12 7 12Z" stroke="black" stroke-linecap="round" stroke-linejoin="round"/>
<path d="M8 6V12" stroke="black" stroke-linecap="round" stroke-linejoin="round"/>
<path d="M5 9H11" stroke="black" stroke-linecap="round" stroke-linejoin="round"/>
</svg>
