<svg width="34" height="32" viewBox="0 0 34 32" fill="none" xmlns="http://www.w3.org/2000/svg">
<path d="M23.166 4.66666H9.83268C5.83268 4.66666 3.16602 6.66666 3.16602 11.3333V20.6667C3.16602 25.3333 5.83268 27.3333 9.83268 27.3333H23.166C27.166 27.3333 29.8327 25.3333 29.8327 20.6667V16.5" stroke="#737373" stroke-width="2" stroke-miterlimit="10" stroke-linecap="round" stroke-linejoin="round"/>
<path d="M16.5 20C18.7091 20 20.5 18.2091 20.5 16C20.5 13.7909 18.7091 12 16.5 12C14.2909 12 12.5 13.7909 12.5 16C12.5 18.2091 14.2909 20 16.5 20Z" stroke="#737373" stroke-width="2" stroke-miterlimit="10" stroke-linecap="round" stroke-linejoin="round"/>
<path d="M29.6641 9.66675V1.66675L32.3307 4.33341" stroke="#737373" stroke-width="2" stroke-linecap="round" stroke-linejoin="round"/>
<path d="M29.6647 1.66675L26.998 4.33341" stroke="#737373" stroke-width="2" stroke-linecap="round" stroke-linejoin="round"/>
<path d="M25.166 12.6667V19.3333" stroke="#737373" stroke-width="2" stroke-miterlimit="10" stroke-linecap="round" stroke-linejoin="round"/>
</svg>
