<svg width="20" height="20" viewBox="0 0 20 20" fill="none" xmlns="http://www.w3.org/2000/svg">
<path d="M14.1641 3.33301H5.83073C3.33073 3.33301 1.66406 4.58301 1.66406 7.49967V10.4663C1.66406 10.7747 1.98073 10.9663 2.25573 10.8413C3.0724 10.4663 4.01406 10.3247 5.00573 10.4997C7.1974 10.8913 8.80573 12.9247 8.7474 15.1497C8.73906 15.4997 8.68906 15.8413 8.5974 16.1747C8.53073 16.433 8.73906 16.6747 9.00573 16.6747H14.1641C16.6641 16.6747 18.3307 15.4247 18.3307 12.508V7.49967C18.3307 4.58301 16.6641 3.33301 14.1641 3.33301ZM9.9974 12.083C8.8474 12.083 7.91406 11.1497 7.91406 9.99967C7.91406 8.84967 8.8474 7.91634 9.9974 7.91634C11.1474 7.91634 12.0807 8.84967 12.0807 9.99967C12.0807 11.1497 11.1474 12.083 9.9974 12.083ZM16.0391 11.6663C16.0391 12.008 15.7557 12.2913 15.4141 12.2913C15.0724 12.2913 14.7891 12.008 14.7891 11.6663V8.33301C14.7891 7.99134 15.0724 7.70801 15.4141 7.70801C15.7557 7.70801 16.0391 7.99134 16.0391 8.33301V11.6663Z" fill="#4545FE"/>
<path d="M4.16927 11.667C3.1276 11.667 2.18594 12.1587 1.5776 12.9087C1.11094 13.4837 0.835938 14.2087 0.835938 15.0003C0.835938 16.842 2.33594 18.3337 4.16927 18.3337C5.61927 18.3337 6.86094 17.4087 7.31094 16.1087C7.43594 15.767 7.5026 15.392 7.5026 15.0003C7.5026 13.167 6.01094 11.667 4.16927 11.667ZM6.13594 16.4503C6.11927 16.5003 6.08594 16.5503 6.0526 16.5837L5.4526 17.1753C5.3776 17.2587 5.2776 17.292 5.16927 17.292C5.06094 17.292 4.9526 17.2587 4.8776 17.1753C4.74427 17.0503 4.7276 16.8503 4.81094 16.7003H3.13594C2.6026 16.7003 2.16927 16.267 2.16927 15.7253V15.642C2.16927 15.4087 2.3526 15.2337 2.5776 15.2337C2.8026 15.2337 2.98594 15.4087 2.98594 15.642V15.7253C2.98594 15.817 3.0526 15.892 3.14427 15.892H4.81927C4.73594 15.7337 4.7526 15.542 4.88594 15.4087C5.04427 15.2503 5.3026 15.2503 5.4526 15.4087L6.0526 16.0087C6.08594 16.042 6.11927 16.092 6.14427 16.142C6.1776 16.2337 6.1776 16.3503 6.13594 16.4503ZM6.16927 14.3587C6.16927 14.592 5.98594 14.767 5.76094 14.767C5.53594 14.767 5.3526 14.592 5.3526 14.3587V14.2753C5.3526 14.1837 5.28594 14.1087 5.19427 14.1087H3.5276C3.61094 14.267 3.59427 14.4587 3.46094 14.592C3.38594 14.667 3.28594 14.7087 3.16927 14.7087C3.06927 14.7087 2.96094 14.667 2.88594 14.592L2.28594 13.992C2.2526 13.9587 2.21927 13.9087 2.19427 13.8587C2.16094 13.7587 2.16094 13.6503 2.19427 13.5503C2.21927 13.5087 2.24427 13.4503 2.28594 13.417L2.88594 12.8253C3.04427 12.6587 3.3026 12.6587 3.4526 12.8253C3.58594 12.9503 3.6026 13.1503 3.51927 13.3003H5.19427C5.7276 13.3003 6.16094 13.7337 6.16094 14.2753V14.3587H6.16927Z" fill="#4545FE"/>
</svg>
