<svg width="11" height="11" viewBox="0 0 11 11" fill="none" xmlns="http://www.w3.org/2000/svg">
<g id="vuesax/outline/crown">
<g id="crown">
<path id="Vector" d="M7.47324 9.47379H3.07741C1.68393 9.47379 0.549805 8.33966 0.549805 6.94618V2.73498C0.549805 2.16352 0.813555 1.9657 0.971805 1.89977C1.13005 1.83383 1.45535 1.78548 1.85976 2.18989L2.99828 3.32841C3.04224 3.37237 3.11258 3.37237 3.15214 3.32841L4.73024 1.75031C5.02037 1.46018 5.53028 1.46018 5.81601 1.75031L7.39412 3.32841C7.43808 3.37237 7.50841 3.37237 7.54797 3.32841L8.68649 2.18989C9.09091 1.78548 9.4162 1.83823 9.57445 1.89977C9.7327 1.9657 9.99645 2.15912 9.99645 2.73498V6.95058C10.0008 8.45835 8.98541 9.47379 7.47324 9.47379ZM1.23555 2.52837C1.22237 2.56354 1.20918 2.62948 1.20918 2.73498V6.95058C1.20918 7.9792 2.04878 8.81881 3.07741 8.81881H7.47324C8.60737 8.81881 9.34147 8.0847 9.34147 6.95058V2.73498C9.34147 2.62948 9.32828 2.56793 9.3151 2.53277C9.27993 2.55035 9.22718 2.58552 9.15245 2.66025L8.01393 3.79877C7.7238 4.08889 7.21389 4.08889 6.92816 3.79877L5.35005 2.22066C5.3061 2.1767 5.23576 2.1767 5.1962 2.22066L3.62249 3.79437C3.33237 4.0845 2.82245 4.0845 2.53672 3.79437L1.3982 2.65585C1.32347 2.58112 1.26633 2.54595 1.23555 2.52837Z" fill="#DBF9F0"/>
</g>
</g>
</svg>
