<svg width="25" height="24" viewBox="0 0 25 24" fill="none" xmlns="http://www.w3.org/2000/svg">
<path opacity="0.4" d="M2.5 12.97V6.99C2.5 4.23 4.74 2 7.5 2H17.5C20.26 2 22.5 4.23 22.5 6.99V13.97C22.5 16.72 20.26 18.95 17.5 18.95H16C15.69 18.95 15.39 19.1 15.2 19.35L13.7 21.34C13.04 22.22 11.96 22.22 11.3 21.34L9.8 19.35C9.64 19.13 9.28 18.95 9 18.95H7.5C4.74 18.95 2.5 16.72 2.5 13.97V12.97Z" fill="white"/>
<path d="M12.5 12C11.94 12 11.5 11.55 11.5 11C11.5 10.45 11.95 10 12.5 10C13.05 10 13.5 10.45 13.5 11C13.5 11.55 13.06 12 12.5 12Z" fill="white"/>
<path d="M16.5 12C15.94 12 15.5 11.55 15.5 11C15.5 10.45 15.95 10 16.5 10C17.05 10 17.5 10.45 17.5 11C17.5 11.55 17.06 12 16.5 12Z" fill="white"/>
<path d="M8.5 12C7.94 12 7.5 11.55 7.5 11C7.5 10.45 7.95 10 8.5 10C9.05 10 9.5 10.45 9.5 11C9.5 11.55 9.06 12 8.5 12Z" fill="white"/>
</svg>
