<svg width="19" height="18" viewBox="0 0 19 18" fill="none" xmlns="http://www.w3.org/2000/svg">
<g id="Group 21551 1" clip-path="url(#clip0_15557_73695)">
<g id="Group 21551">
<path id="Path 39076" d="M5.10365 0.31543H14.3377C15.4903 0.31543 16.5957 0.773294 17.4107 1.5883C18.2257 2.4033 18.6836 3.50868 18.6836 4.66127V12.8097C18.6836 13.9623 18.2257 15.0677 17.4107 15.8827C16.5957 16.6977 15.4903 17.1556 14.3377 17.1556H5.10365C4.53288 17.1556 3.9677 17.0431 3.44038 16.8247C2.91307 16.6062 2.43395 16.286 2.03039 15.8824C1.62683 15.4788 1.30674 14.9996 1.08839 14.4722C0.870035 13.9449 0.757705 13.3797 0.757813 12.8089V4.66127C0.757813 3.50868 1.21568 2.4033 2.03068 1.5883C2.84568 0.773294 3.95106 0.31543 5.10365 0.31543V0.31543Z" fill="black"/>
<path id="Component/Form/Title" d="M5.30469 7.15096H6.38135V3.68848H7.81039L9.50697 7.15177H11.9776V3.68848H13.038V7.15177H14.1358V8.14443H13.038V9.10202H14.1358V10.0873H13.038V13.7823H11.6725L9.83568 10.0873H7.44254V13.7823H6.38217V10.0873H5.3055V9.1012H6.38217V8.14361H5.3055L5.30469 7.15096ZM10.4711 9.10038H11.9776V8.14361H9.99963L10.4711 9.10038ZM7.44417 9.10038H9.35199L8.8732 8.1428H7.44417V9.10038ZM12.0053 12.2252H12.0265C11.9833 11.7371 11.967 11.2469 11.9776 10.757V10.0881H10.9499L12.0053 12.2252ZM7.4303 5.16401H7.39523C7.4384 5.61779 7.45474 6.07372 7.44417 6.52942V7.14851H8.38136L7.70599 5.78309C7.60366 5.58154 7.51165 5.37491 7.4303 5.16401Z" fill="white"/>
</g>
</g>
<defs>
<clipPath id="clip0_15557_73695">
<rect width="17.9258" height="16.8393" fill="white" transform="translate(0.757812 0.314453)"/>
</clipPath>
</defs>
</svg>
