<svg width="16" height="16" viewBox="0 0 16 16" fill="none" xmlns="http://www.w3.org/2000/svg">
<path d="M10.668 10H9.33464C9.33302 10.1574 9.27594 10.3091 9.17344 10.4286C9.07094 10.548 8.9296 10.6275 8.77429 10.653C8.61897 10.6785 8.45965 10.6483 8.32435 10.5679C8.18906 10.4875 8.08647 10.3619 8.03464 10.2133C7.93464 9.92 7.76797 9.49333 7.41464 9.14L6.50797 8.23333C6.18797 7.91333 6.0013 7.46 6.0013 7C6.00089 6.58668 6.15406 6.18796 6.43109 5.88122C6.70812 5.57449 7.08925 5.38163 7.50047 5.3401C7.91169 5.29856 8.32368 5.4113 8.65646 5.65644C8.98924 5.90157 9.21905 6.26162 9.3013 6.66667H10.648C10.4813 5.16667 9.20797 4 7.66797 4C6.01464 4 4.66797 5.34667 4.66797 7C4.66797 7.81333 4.99464 8.60667 5.56797 9.18L6.47464 10.0867C6.58797 10.2 6.6813 10.38 6.76797 10.6333C6.90188 11.0313 7.15724 11.3772 7.49809 11.6224C7.83894 11.8675 8.2481 11.9996 8.66797 12C9.76797 12 10.668 11.1 10.668 10Z" fill="#4545FE"/>
<path d="M9 9.33337C9.55228 9.33337 10 8.88566 10 8.33337C10 7.78109 9.55228 7.33337 9 7.33337C8.44772 7.33337 8 7.78109 8 8.33337C8 8.88566 8.44772 9.33337 9 9.33337Z" fill="#4545FE"/>
<path d="M2.40005 4.38671L3.45339 5.22671C3.68672 4.84671 3.96672 4.49337 4.28005 4.18004L3.23339 3.34671C2.92005 3.66004 2.64672 4.01337 2.40005 4.38671ZM6.30672 2.94671L5.72672 1.74004C5.30672 1.89337 4.90005 2.08671 4.52672 2.32004L5.10672 3.52671C5.48005 3.28671 5.88005 3.09337 6.30672 2.94671ZM2.99339 6.17337L1.68672 5.87337C1.54672 6.29337 1.44672 6.72671 1.39339 7.17337L2.70005 7.47337C2.74309 7.02948 2.84164 6.59274 2.99339 6.17337ZM13.6001 4.38671C13.36 4.01141 13.0807 3.66277 12.7667 3.34671L11.7134 4.18671C12.0334 4.50004 12.3067 4.84671 12.5401 5.23337L13.6001 4.38671ZM2.69339 8.52671L1.38672 8.82671C1.44005 9.27337 1.54005 9.71337 1.68005 10.1267L2.99339 9.82671C2.84672 9.41337 2.74005 8.98004 2.69339 8.52671ZM11.4734 2.32004C11.0934 2.08671 10.6934 1.89337 10.2734 1.74004L9.69339 2.94671C10.1201 3.09337 10.5201 3.28671 10.8934 3.52671L11.4734 2.32004ZM8.66672 2.71337V1.36671C8.44672 1.34671 8.22672 1.33337 8.00005 1.33337C7.77339 1.33337 7.55339 1.34671 7.33338 1.36671V2.71337C7.55339 2.68671 7.77339 2.66671 8.00005 2.66671C8.22672 2.66671 8.44672 2.68671 8.66672 2.71337ZM7.33338 13.2867V14.6334C7.55339 14.6534 7.77339 14.6667 8.00005 14.6667C8.22672 14.6667 8.44672 14.6534 8.66672 14.6334V13.2867C8.44672 13.3134 8.22672 13.3334 8.00005 13.3334C7.77339 13.3334 7.55339 13.3134 7.33338 13.2867ZM13.0067 9.82671L14.3201 10.1267C14.4601 9.70671 14.5601 9.27337 14.6134 8.82671L13.3067 8.52671C13.2601 8.98004 13.1534 9.41337 13.0067 9.82671ZM13.3067 7.47337L14.6134 7.17337C14.5606 6.73109 14.4623 6.29545 14.3201 5.87337L13.0067 6.17337C13.1534 6.58671 13.2601 7.02004 13.3067 7.47337ZM11.7201 11.82L12.7734 12.66C13.0867 12.34 13.3601 11.9934 13.6067 11.62L12.5534 10.78C12.3134 11.1553 12.034 11.504 11.7201 11.82ZM4.52672 13.68C4.90672 13.9134 5.30672 14.1067 5.72672 14.26L6.30672 13.0534C5.88005 12.9067 5.48005 12.7134 5.10672 12.4734L4.52672 13.68ZM9.69339 13.0534L10.2734 14.26C10.6934 14.1067 11.1001 13.9134 11.4734 13.68L10.8934 12.4734C10.5201 12.7134 10.1201 12.9067 9.69339 13.0534ZM2.40005 11.6134C2.64007 11.9887 2.91943 12.3373 3.23339 12.6534L4.28672 11.8134C3.96845 11.5004 3.69073 11.1488 3.46005 10.7667L2.40005 11.6134Z" fill="#4545FE"/>
</svg>
