<svg width="113" height="134" viewBox="0 0 113 134" fill="none" xmlns="http://www.w3.org/2000/svg">
<g clipPath="url(#clip0_11375_83462)">
<path d="M56.4036 124.788C87.3547 124.788 112.446 99.6964 112.446 68.7454C112.446 37.7941 87.3547 12.7031 56.4036 12.7031C25.4523 12.7031 0.361328 37.7941 0.361328 68.7454C0.361328 99.6964 25.4523 124.788 56.4036 124.788Z" fill="url(#paint0_linear_11375_83462)"/>
<g filter="url(#filter0_d_11375_83462)">
<path d="M88.5346 44.834H24.2728C22.2094 44.834 20.5366 46.5067 20.5366 48.5701V127.029C20.5366 129.092 22.2094 130.765 24.2728 130.765H88.5346C90.5977 130.765 92.2708 129.092 92.2708 127.029V48.5701C92.2708 46.5067 90.5977 44.834 88.5346 44.834Z" fill="white"/>
</g>
<path d="M48.9314 56.0425H29.5034C28.2653 56.0425 27.2617 57.0461 27.2617 58.2842C27.2617 59.5223 28.2653 60.5259 29.5034 60.5259H48.9314C50.1695 60.5259 51.1731 59.5223 51.1731 58.2842C51.1731 57.0461 50.1695 56.0425 48.9314 56.0425Z" fill="#B4DAFF"/>
<path d="M62.3816 65.7563H29.5034C28.2653 65.7563 27.2617 66.76 27.2617 67.998C27.2617 69.2361 28.2653 70.2397 29.5034 70.2397H62.3816C63.6196 70.2397 64.6233 69.2361 64.6233 67.998C64.6233 66.76 63.6196 65.7563 62.3816 65.7563Z" fill="#DFEAFB"/>
<path d="M48.9314 76.2173H29.5034C28.2653 76.2173 27.2617 77.2208 27.2617 78.459C27.2617 79.6971 28.2653 80.7007 29.5034 80.7007H48.9314C50.1695 80.7007 51.1731 79.6971 51.1731 78.459C51.1731 77.2208 50.1695 76.2173 48.9314 76.2173Z" fill="#B4DAFF"/>
<path d="M62.3816 85.9316H29.5034C28.2653 85.9316 27.2617 86.9352 27.2617 88.1733C27.2617 89.4115 28.2653 90.415 29.5034 90.415H62.3816C63.6196 90.415 64.6233 89.4115 64.6233 88.1733C64.6233 86.9352 63.6196 85.9316 62.3816 85.9316Z" fill="#DFEAFB"/>
<path d="M48.9314 96.3926H29.5034C28.2653 96.3926 27.2617 97.3961 27.2617 98.6343C27.2617 99.8724 28.2653 100.876 29.5034 100.876H48.9314C50.1695 100.876 51.1731 99.8724 51.1731 98.6343C51.1731 97.3961 50.1695 96.3926 48.9314 96.3926Z" fill="#B4DAFF"/>
<path d="M62.3816 106.106H29.5034C28.2653 106.106 27.2617 107.11 27.2617 108.348C27.2617 109.586 28.2653 110.59 29.5034 110.59H62.3816C63.6196 110.59 64.6233 109.586 64.6233 108.348C64.6233 107.11 63.6196 106.106 62.3816 106.106Z" fill="#DFEAFB"/>
<g filter="url(#filter1_d_11375_83462)">
<path d="M88.5346 6.7251H24.2728C22.2094 6.7251 20.5366 8.39785 20.5366 10.4612V32.8782C20.5366 34.9416 22.2094 36.6143 24.2728 36.6143H88.5346C90.5977 36.6143 92.2708 34.9416 92.2708 32.8782V10.4612C92.2708 8.39785 90.5977 6.7251 88.5346 6.7251Z" fill="#1485FD"/>
</g>
<path d="M48.9314 14.9448H29.5034C28.2653 14.9448 27.2617 15.9484 27.2617 17.1865C27.2617 18.4246 28.2653 19.4282 29.5034 19.4282H48.9314C50.1695 19.4282 51.1731 18.4246 51.1731 17.1865C51.1731 15.9484 50.1695 14.9448 48.9314 14.9448Z" fill="#B4DAFF"/>
<path d="M62.3816 24.6587H29.5034C28.2653 24.6587 27.2617 25.6623 27.2617 26.9004C27.2617 28.1385 28.2653 29.1421 29.5034 29.1421H62.3816C63.6196 29.1421 64.6233 28.1385 64.6233 26.9004C64.6233 25.6623 63.6196 24.6587 62.3816 24.6587Z" fill="white"/>
</g>
<defs>
<filter id="filter0_d_11375_83462" x="16.0532" y="38.1089" width="80.7011" height="94.8984" filterUnits="userSpaceOnUse" color-interpolation-filters="sRGB">
<feFlood flood-opacity="0" result="BackgroundImageFix"/>
<feColorMatrix in="SourceAlpha" type="matrix" values="0 0 0 0 0 0 0 0 0 0 0 0 0 0 0 0 0 0 127 0" result="hardAlpha"/>
<feOffset dy="-2.24169"/>
<feGaussianBlur stdDeviation="2.24169"/>
<feColorMatrix type="matrix" values="0 0 0 0 0.788235 0 0 0 0 0.803922 0 0 0 0 0.85098 0 0 0 0.349 0"/>
<feBlend mode="normal" in2="BackgroundImageFix" result="effect1_dropShadow_11375_83462"/>
<feBlend mode="normal" in="SourceGraphic" in2="effect1_dropShadow_11375_83462" result="shape"/>
</filter>
<filter id="filter1_d_11375_83462" x="16.0532" y="2.43187e-05" width="80.7011" height="38.8559" filterUnits="userSpaceOnUse" color-interpolation-filters="sRGB">
<feFlood flood-opacity="0" result="BackgroundImageFix"/>
<feColorMatrix in="SourceAlpha" type="matrix" values="0 0 0 0 0 0 0 0 0 0 0 0 0 0 0 0 0 0 127 0" result="hardAlpha"/>
<feOffset dy="-2.24169"/>
<feGaussianBlur stdDeviation="2.24169"/>
<feColorMatrix type="matrix" values="0 0 0 0 0.788235 0 0 0 0 0.803922 0 0 0 0 0.85098 0 0 0 0.349 0"/>
<feBlend mode="normal" in2="BackgroundImageFix" result="effect1_dropShadow_11375_83462"/>
<feBlend mode="normal" in="SourceGraphic" in2="effect1_dropShadow_11375_83462" result="shape"/>
</filter>
<linearGradient id="paint0_linear_11375_83462" x1="56.4036" y1="12.7031" x2="56.4036" y2="124.788" gradientUnits="userSpaceOnUse">
<stop stop-color="#E3ECFA"/>
<stop offset="1" stop-color="#DAE7FF"/>
</linearGradient>
<clipPath id="clip0_11375_83462">
<rect width="112.085" height="133.007" fill="white" transform="translate(0.361328)"/>
</clipPath>
</defs>
</svg>
