<svg width="33" height="32" viewBox="0 0 33 32" fill="none" xmlns="http://www.w3.org/2000/svg">
<path fill-rule="evenodd" clip-rule="evenodd" d="M25.4324 11.7283C25.4324 13.4029 25.8749 14.3898 26.8489 15.5273C27.587 16.3653 27.8229 17.4409 27.8229 18.6078C27.8229 19.7734 27.44 20.88 26.6726 21.7784C25.6682 22.8554 24.2516 23.5429 22.8058 23.6625C20.7108 23.841 18.6145 23.9914 16.4902 23.9914C14.3646 23.9914 12.2696 23.9016 10.1746 23.6625C8.72753 23.5429 7.31094 22.8554 6.30781 21.7784C5.54054 20.88 5.15625 19.7734 5.15625 18.6078C5.15625 17.4409 5.39345 16.3653 6.13024 15.5273C7.1347 14.3898 7.54814 13.4029 7.54814 11.7283V11.1602C7.54814 8.91762 8.10736 7.4512 9.25892 6.01565C10.971 3.9221 13.7154 2.6665 16.4306 2.6665H16.5498C19.3234 2.6665 22.1565 3.98253 23.8396 6.16605C24.9314 7.57205 25.4324 8.9767 25.4324 11.1602V11.7283ZM12.5878 26.7476C12.5878 26.0762 13.204 25.7686 13.7738 25.637C14.4404 25.4961 18.502 25.4961 19.1685 25.637C19.7384 25.7686 20.3545 26.0762 20.3545 26.7476C20.3213 27.3868 19.9464 27.9536 19.4282 28.3134C18.7564 28.8372 17.968 29.1688 17.1437 29.2884C16.6878 29.3474 16.24 29.3488 15.8 29.2884C14.9744 29.1688 14.186 28.8372 13.5154 28.3121C12.996 27.9536 12.6209 27.3868 12.5878 26.7476Z" fill="white"/>
</svg>
