<svg width="32" height="33" viewBox="0 0 32 33" fill="none" xmlns="http://www.w3.org/2000/svg">
<path fill-rule="evenodd" clip-rule="evenodd" d="M24.9421 12.2278C24.9421 13.9024 25.3847 14.8893 26.3587 16.0268C27.0968 16.8648 27.3327 17.9404 27.3327 19.1073C27.3327 20.2729 26.9497 21.3795 26.1824 22.2779C25.178 23.3549 23.7613 24.0424 22.3156 24.162C20.2205 24.3405 18.1243 24.4909 16 24.4909C13.8744 24.4909 11.7794 24.4011 9.68435 24.162C8.2373 24.0424 6.82071 23.3549 5.81758 22.2779C5.05031 21.3795 4.66602 20.2729 4.66602 19.1073C4.66602 17.9404 4.90322 16.8648 5.64 16.0268C6.64447 14.8893 7.05791 13.9024 7.05791 12.2278V11.6597C7.05791 9.41714 7.61712 7.95071 8.76868 6.51516C10.4808 4.42162 13.2251 3.16602 15.9404 3.16602H16.0596C18.8332 3.16602 21.6663 4.48204 23.3493 6.66556C24.4412 8.07156 24.9421 9.47622 24.9421 11.6597V12.2278ZM12.0976 27.2471C12.0976 26.5758 12.7138 26.2681 13.2836 26.1365C13.9501 25.9956 18.0117 25.9956 18.6783 26.1365C19.2481 26.2681 19.8643 26.5758 19.8643 27.2471C19.8311 27.8863 19.4561 28.4531 18.938 28.813C18.2661 29.3367 17.4777 29.6683 16.6535 29.7879C16.1976 29.847 15.7497 29.8483 15.3097 29.7879C14.4841 29.6683 13.6957 29.3367 13.0252 28.8116C12.5057 28.4531 12.1307 27.8863 12.0976 27.2471Z" fill="#606060"/>
</svg>
