<svg width="16" height="17" viewBox="0 0 16 17" fill="none" xmlns="http://www.w3.org/2000/svg">
<path fill-rule="evenodd" clip-rule="evenodd" d="M7.444 14.332C7.55318 14.4058 7.67586 14.4572 7.80499 14.4834C7.93412 14.5096 8.06716 14.5101 8.19645 14.4847C8.32575 14.4593 8.44876 14.4086 8.5584 14.3356C8.66805 14.2625 8.76218 14.1685 8.83537 14.0589C8.90857 13.9494 8.95939 13.8264 8.98492 13.6971C9.01044 13.5679 9.01017 13.4348 8.98412 13.3057C8.95806 13.1765 8.90674 13.0538 8.8331 12.9445C8.75945 12.8353 8.66495 12.7416 8.555 12.669C8.33461 12.5335 8.07029 12.4887 7.81756 12.544C7.56483 12.5993 7.34337 12.7504 7.19968 12.9655C7.056 13.1806 7.00128 13.4431 7.04703 13.6977C7.09277 13.9523 7.23542 14.1793 7.445 14.331L7.444 14.332ZM8 9.5C7.73478 9.5 7.48043 9.39464 7.29289 9.20711C7.10536 9.01957 7 8.76522 7 8.5C7 8.23478 7.10536 7.98043 7.29289 7.79289C7.48043 7.60536 7.73478 7.5 8 7.5C8.26522 7.5 8.51957 7.60536 8.70711 7.79289C8.89464 7.98043 9 8.23478 9 8.5C9 8.76522 8.89464 9.01957 8.70711 9.20711C8.51957 9.39464 8.26522 9.5 8 9.5ZM8 4.5C7.73478 4.5 7.48043 4.39464 7.29289 4.20711C7.10536 4.01957 7 3.76522 7 3.5C7 3.23478 7.10536 2.98043 7.29289 2.79289C7.48043 2.60536 7.73478 2.5 8 2.5C8.26522 2.5 8.51957 2.60536 8.70711 2.79289C8.89464 2.98043 9 3.23478 9 3.5C9 3.76522 8.89464 4.01957 8.70711 4.20711C8.51957 4.39464 8.26522 4.5 8 4.5Z" fill="black"/>
</svg>
