<svg width="18" height="19" viewBox="0 0 18 19" fill="none" xmlns="http://www.w3.org/2000/svg">
<g id="fi-rr-bulb" clipPath="url(#clip0_10189_86862)">
<path id="Vector" d="M13.4956 2.15863C12.5801 1.34079 11.459 0.788068 10.2528 0.559954C9.04664 0.331839 7.80109 0.436968 6.65021 0.864024C5.49933 1.29108 4.4867 2.0239 3.72129 2.98361C2.95588 3.94332 2.46667 5.09359 2.30632 6.31063C2.1623 7.37777 2.27748 8.46389 2.64211 9.47709C3.00673 10.4903 3.61007 11.4007 4.40107 12.1314C4.89022 12.5603 5.28493 13.0862 5.56018 13.6757C5.83543 14.2652 5.98523 14.9055 6.00007 15.5559V15.6766C6.00086 16.4104 6.29269 17.1138 6.81153 17.6327C7.33036 18.1515 8.03383 18.4433 8.76757 18.4441H9.23257C9.96631 18.4433 10.6698 18.1515 11.1886 17.6327C11.7074 17.1138 11.9993 16.4104 12.0001 15.6766V15.2649C12.0113 14.69 12.1466 14.1243 12.3967 13.6065C12.6468 13.0887 13.0057 12.6311 13.4491 12.2649C14.168 11.6352 14.7449 10.86 15.1417 9.99049C15.5384 9.12102 15.7458 8.17717 15.7502 7.22148C15.7546 6.2658 15.5558 5.32008 15.1672 4.447C14.7785 3.57391 14.2087 2.79339 13.4956 2.15713V2.15863ZM9.23257 16.9441H8.76757C8.43153 16.9437 8.10937 16.8101 7.87175 16.5724C7.63413 16.3348 7.50047 16.0127 7.50007 15.6766C7.50007 15.6766 7.49482 15.4816 7.49407 15.4441H10.5001V15.6766C10.4997 16.0127 10.366 16.3348 10.1284 16.5724C9.89077 16.8101 9.56861 16.9437 9.23257 16.9441V16.9441ZM12.4576 11.1384C11.6036 11.879 10.9869 12.8549 10.6846 13.9441H9.75007V8.55613C10.1872 8.40157 10.566 8.11571 10.8345 7.73765C11.103 7.3596 11.2481 6.90783 11.2501 6.44413C11.2501 6.24522 11.1711 6.05445 11.0304 5.9138C10.8897 5.77315 10.699 5.69413 10.5001 5.69413C10.3012 5.69413 10.1104 5.77315 9.96974 5.9138C9.82909 6.05445 9.75007 6.24522 9.75007 6.44413C9.75007 6.64304 9.67105 6.83381 9.5304 6.97446C9.38975 7.11511 9.19898 7.19413 9.00007 7.19413C8.80116 7.19413 8.61039 7.11511 8.46974 6.97446C8.32909 6.83381 8.25007 6.64304 8.25007 6.44413C8.25007 6.24522 8.17105 6.05445 8.0304 5.9138C7.88975 5.77315 7.69898 5.69413 7.50007 5.69413C7.30116 5.69413 7.11039 5.77315 6.96974 5.9138C6.82909 6.05445 6.75007 6.24522 6.75007 6.44413C6.75199 6.90783 6.89713 7.3596 7.16563 7.73765C7.43414 8.11571 7.81289 8.40157 8.25007 8.55613V13.9441H7.25857C6.92031 12.826 6.28591 11.8203 5.42257 11.0334C4.68978 10.3506 4.16761 9.4724 3.91767 8.50249C3.66773 7.53258 3.70045 6.51142 4.01198 5.5595C4.3235 4.60758 4.90082 3.76464 5.67582 3.13015C6.45081 2.49566 7.39114 2.09611 8.38582 1.97863C8.59202 1.95561 8.79934 1.94409 9.00682 1.94413C10.295 1.9403 11.5386 2.4156 12.4958 3.27763C13.0506 3.77233 13.4939 4.3793 13.7963 5.0583C14.0987 5.7373 14.2533 6.47283 14.2499 7.21612C14.2465 7.95941 14.0851 8.69349 13.7765 9.3697C13.4679 10.0459 13.0191 10.6488 12.4598 11.1384H12.4576Z" fill="#FF9103"/>
</g>
<defs>
<clipPath id="clip0_10189_86862">
<rect width="18" height="18" fill="white" transform="translate(0 0.444336)"/>
</clipPath>
</defs>
</svg>
