<svg width="17" height="16" viewBox="0 0 17 16" fill="none" xmlns="http://www.w3.org/2000/svg">
<g id="stars-02">
<path id="Icon" d="M3.50065 14.6668V11.3335M3.50065 4.66683V1.3335M1.83398 3.00016H5.16732M1.83398 13.0002H5.16732M9.16732 2.00016L8.0112 5.00607C7.82319 5.49489 7.72919 5.7393 7.583 5.94489C7.45344 6.12709 7.29425 6.28629 7.11204 6.41585C6.90646 6.56203 6.66205 6.65604 6.17322 6.84404L3.16732 8.00016L6.17323 9.15628C6.66205 9.34429 6.90646 9.43829 7.11204 9.58448C7.29425 9.71404 7.45344 9.87323 7.583 10.0554C7.72919 10.261 7.82319 10.5054 8.0112 10.9943L9.16732 14.0002L10.3234 10.9943C10.5114 10.5054 10.6054 10.261 10.7516 10.0554C10.8812 9.87323 11.0404 9.71404 11.2226 9.58448C11.4282 9.43829 11.6726 9.34429 12.1614 9.15628L15.1673 8.00016L12.1614 6.84404C11.6726 6.65604 11.4282 6.56203 11.2226 6.41585C11.0404 6.28629 10.8812 6.12709 10.7516 5.94489C10.6054 5.7393 10.5114 5.49489 10.3234 5.00607L9.16732 2.00016Z" stroke="#FF9103" stroke-linecap="round" stroke-linejoin="round"/>
</g>
</svg>
