<svg width="13" height="13" viewBox="0 0 13 13" fill="none" xmlns="http://www.w3.org/2000/svg">
<path id="Icon" d="M2.31877 11.7751V9.1376M2.31877 3.8626V1.2251M1 2.54385H3.63755M1 10.4564H3.63755M6.80261 1.7526L5.88781 4.13102C5.73905 4.5178 5.66466 4.71119 5.549 4.87386C5.44648 5.01804 5.32051 5.144 5.17634 5.24651C5.01367 5.36218 4.82027 5.43656 4.43349 5.58532L2.05502 6.5001L4.43349 7.41488C4.82027 7.56364 5.01367 7.63802 5.17634 7.75369C5.32051 7.8562 5.44648 7.98217 5.549 8.12634C5.66466 8.28901 5.73905 8.4824 5.88781 8.86918L6.80261 11.2476L7.7174 8.86918C7.86617 8.4824 7.94055 8.28901 8.05622 8.12634C8.15873 7.98217 8.2847 7.8562 8.42887 7.75369C8.59155 7.63802 8.78494 7.56364 9.17173 7.41488L11.5502 6.5001L9.17172 5.58532C8.78494 5.43656 8.59155 5.36218 8.42887 5.24651C8.2847 5.144 8.15873 5.01804 8.05622 4.87386C7.94055 4.71119 7.86617 4.5178 7.7174 4.13102L6.80261 1.7526Z" stroke="#FF9D1D" stroke-width="1.05501" stroke-linecap="round" stroke-linejoin="round"/>
</svg>
