<svg width="27" height="27" viewBox="0 0 27 27" fill="none" xmlns="http://www.w3.org/2000/svg">
<rect width="27" height="27" fill="#1E1E1E"/>
<g clipPath="url(#clip0_600_857)">
<rect width="1440" height="1877" transform="translate(-945 -288)" fill="white"/>
<rect x="-126.5" y="14.5" width="144" height="47" rx="11.5" fill="white" stroke="#E4E4E4"/>
<circle cx="13.5" cy="13.5" r="13.5" fill="#FF9103"/>
<path d="M2.06367 14.92V13.48H5.00367V14.92H2.06367ZM6.64742 17V11.39H5.10742L6.18742 9.9H8.15742V17H6.64742ZM12.0763 17.11C11.2829 17.11 10.6363 16.8433 10.1363 16.31C9.63625 15.7767 9.38625 15.0967 9.38625 14.27V12.62C9.38625 11.7933 9.63625 11.1133 10.1363 10.58C10.6363 10.0467 11.2829 9.78 12.0763 9.78C12.8629 9.78 13.5063 10.0467 14.0063 10.58C14.5063 11.1133 14.7563 11.7933 14.7563 12.62V14.27C14.7563 15.0967 14.5063 15.7767 14.0063 16.31C13.5063 16.8433 12.8629 17.11 12.0763 17.11ZM12.0763 15.62C12.4296 15.62 12.7129 15.5 12.9263 15.26C13.1396 15.02 13.2463 14.69 13.2463 14.27V12.62C13.2463 12.2 13.1396 11.87 12.9263 11.63C12.7129 11.39 12.4296 11.27 12.0763 11.27C11.7163 11.27 11.4296 11.39 11.2163 11.63C11.0029 11.87 10.8963 12.2 10.8963 12.62V14.27C10.8963 14.69 11.0029 15.02 11.2163 15.26C11.4296 15.5 11.7163 15.62 12.0763 15.62ZM18.6444 17H17.0944L21.5944 9.9H23.1444L18.6444 17ZM22.7644 17.08C22.2177 17.08 21.751 16.8867 21.3644 16.5C20.9844 16.1133 20.7944 15.65 20.7944 15.11C20.7944 14.5633 20.9844 14.1 21.3644 13.72C21.751 13.3333 22.2177 13.14 22.7644 13.14C23.3044 13.14 23.7677 13.3333 24.1544 13.72C24.541 14.1 24.7344 14.5633 24.7344 15.11C24.7344 15.65 24.541 16.1133 24.1544 16.5C23.7677 16.8867 23.3044 17.08 22.7644 17.08ZM22.2644 15.61C22.4044 15.75 22.571 15.82 22.7644 15.82C22.9577 15.82 23.121 15.75 23.2544 15.61C23.3877 15.47 23.4544 15.3033 23.4544 15.11C23.4544 14.9167 23.3877 14.75 23.2544 14.61C23.121 14.47 22.9577 14.4 22.7644 14.4C22.571 14.4 22.4044 14.47 22.2644 14.61C22.131 14.75 22.0644 14.9167 22.0644 15.11C22.0644 15.3033 22.131 15.47 22.2644 15.61ZM17.4744 13.76C16.9277 13.76 16.461 13.5667 16.0744 13.18C15.6944 12.7933 15.5044 12.33 15.5044 11.79C15.5044 11.2433 15.6944 10.78 16.0744 10.4C16.461 10.0133 16.9277 9.82 17.4744 9.82C18.0144 9.82 18.4777 10.0133 18.8644 10.4C19.251 10.78 19.4444 11.2433 19.4444 11.79C19.4444 12.33 19.251 12.7933 18.8644 13.18C18.4777 13.5667 18.0144 13.76 17.4744 13.76ZM17.4744 12.5C17.6677 12.5 17.831 12.43 17.9644 12.29C18.0977 12.15 18.1644 11.9833 18.1644 11.79C18.1644 11.5967 18.0977 11.43 17.9644 11.29C17.831 11.15 17.6677 11.08 17.4744 11.08C17.2744 11.08 17.1077 11.15 16.9744 11.29C16.841 11.4233 16.7744 11.59 16.7744 11.79C16.7744 11.99 16.841 12.16 16.9744 12.3C17.1077 12.4333 17.2744 12.5 17.4744 12.5Z" fill="white"/>
</g>
<defs>
<clipPath id="clip0_600_857">
<rect width="1440" height="1877" fill="white" transform="translate(-945 -288)"/>
</clipPath>
</defs>
</svg>
