<svg width="29" height="30" viewBox="0 0 29 30" fill="none" xmlns="http://www.w3.org/2000/svg">
<path d="M23.8334 24.3333C24.293 24.2658 24.7374 24.1827 25.1667 24.084C25.9547 23.9013 26.3494 23.8107 26.8214 23.4333C27.0907 23.2187 27.4267 22.7933 27.5747 22.48C27.8334 21.9333 27.8334 21.4 27.8334 20.3373V5.85334C27.8334 4.52934 26.4467 3.62001 25.1667 3.91601C23.9401 4.19867 22.5881 4.35601 21.1667 4.35601C18.6107 4.35601 16.2761 3.848 14.5001 3.01067C12.7241 2.17334 10.3894 1.66667 7.83341 1.66667C6.41208 1.66667 5.06008 1.824 3.83341 2.10667C3.04541 2.28934 2.65075 2.38001 2.17875 2.75734C1.90941 2.97067 1.57341 3.39734 1.42541 3.70934C1.16675 4.25867 1.16675 4.78934 1.16675 5.85334V20.3373C1.16675 21.6613 2.55341 22.5707 3.83341 22.2747C4.26364 22.1751 4.70808 22.092 5.16675 22.0253" stroke="#525252" stroke-width="2" stroke-linecap="round" stroke-linejoin="round"/>
<path d="M5.8335 11.6667V11.6547M23.1668 14.344V14.3307M14.5002 28.3333V23M9.16683 24.3333V21.6667M19.8335 27V24.3333M17.8335 13C17.8335 12.1159 17.4823 11.2681 16.8572 10.643C16.2321 10.0179 15.3842 9.66667 14.5002 9.66667C13.6161 9.66667 12.7683 10.0179 12.1431 10.643C11.518 11.2681 11.1668 12.1159 11.1668 13C11.1668 13.8841 11.518 14.7319 12.1431 15.357C12.7683 15.9821 13.6161 16.3333 14.5002 16.3333C15.3842 16.3333 16.2321 15.9821 16.8572 15.357C17.4823 14.7319 17.8335 13.8841 17.8335 13Z" stroke="#525252" stroke-width="2" stroke-linecap="round" stroke-linejoin="round"/>
</svg>
