<svg width="18" height="20" viewBox="0 0 18 20" fill="none" xmlns="http://www.w3.org/2000/svg">
<g id="Paper Fail">
<path id="Fill 3" opacity="0.4" d="M15.8089 7.021C15.3574 7.021 14.7594 7.011 14.0149 7.011C12.199 7.011 10.7059 5.508 10.7059 3.675V0.459C10.7059 0.206 10.503 0 10.2525 0H4.96337C2.49604 0 0.5 2.026 0.5 4.509V15.284C0.5 17.889 2.59109 20 5.1703 20H13.0455C15.5059 20 17.5 17.987 17.5 15.502V7.471C17.5 7.217 17.298 7.012 17.0465 7.013C16.6238 7.016 16.1168 7.021 15.8089 7.021Z" fill="#FF6A6A"/>
<path id="Fill 1" opacity="0.4" d="M13.0827 0.56737C12.7847 0.25637 12.2617 0.47037 12.2617 0.90137V3.53837C12.2617 4.64437 13.1727 5.55437 14.2787 5.55437C14.9757 5.56237 15.9437 5.56437 16.7657 5.56237C17.1867 5.56137 17.4007 5.05837 17.1087 4.75437C16.0537 3.65737 14.1647 1.69137 13.0827 0.56737Z" fill="#FF6A6A"/>
<path id="Fill 6" d="M9.93688 10.9854L11.1579 9.76341C11.4489 9.47341 11.4489 9.00241 11.1579 8.71141C10.8669 8.42041 10.3959 8.42041 10.1049 8.71141L8.88387 9.93141L7.66288 8.71141C7.37188 8.42041 6.89988 8.42041 6.60888 8.71141C6.31787 9.00241 6.31787 9.47341 6.60888 9.76341L7.83088 10.9854L6.60888 12.2064C6.31787 12.4974 6.31787 12.9684 6.60888 13.2584C6.75488 13.4044 6.94488 13.4774 7.13587 13.4774C7.32687 13.4774 7.51688 13.4044 7.66288 13.2584L8.88387 12.0384L10.1049 13.2584C10.2499 13.4044 10.4409 13.4774 10.6319 13.4774C10.8219 13.4774 11.0129 13.4044 11.1579 13.2584C11.4489 12.9684 11.4489 12.4974 11.1579 12.2064L9.93688 10.9854Z" fill="#FF6A6A"/>
</g>
</svg>
