<svg width="16" height="16" viewBox="0 0 16 16" fill="none" xmlns="http://www.w3.org/2000/svg">
<path d="M5.5 8.5H9.5C10.0304 8.5 10.5391 8.28929 10.9142 7.91421C11.2893 7.53914 11.5 7.03043 11.5 6.5C11.5 5.96957 11.2893 5.46086 10.9142 5.08579C10.5391 4.71071 10.0304 4.5 9.5 4.5H5.5V8.5ZM5.5 8.5V12M14.5 8C14.5 9.72391 13.8152 11.3772 12.5962 12.5962C11.3772 13.8152 9.72391 14.5 8 14.5C6.27609 14.5 4.62279 13.8152 3.40381 12.5962C2.18482 11.3772 1.5 9.72391 1.5 8C1.5 6.27609 2.18482 4.62279 3.40381 3.40381C4.62279 2.18482 6.27609 1.5 8 1.5C9.72391 1.5 11.3772 2.18482 12.5962 3.40381C13.8152 4.62279 14.5 6.27609 14.5 8Z" stroke="#4545FE"/>
</svg>
