<svg width="16" height="16" viewBox="0 0 16 16" fill="none" xmlns="http://www.w3.org/2000/svg">
<g clipPath="url(#clip0_976_17202)">
<path d="M5.00462 16C3.79779 15.9992 2.63196 15.562 1.72226 14.769C0.812556 13.9759 0.220378 12.8807 0.0549957 11.6852C-0.110387 10.4898 0.162188 9.27483 0.822422 8.26462C1.48266 7.2544 2.48599 6.51707 3.64729 6.18868C4.49137 5.94696 5.38482 5.93591 6.23462 6.15668L11.5066 0.886013C11.7865 0.604201 12.1195 0.380769 12.4864 0.228677C12.8533 0.0765844 13.2468 -0.00113987 13.644 1.26315e-05C14.269 0.000542253 14.8683 0.249074 15.3103 0.691045C15.7522 1.13302 16.0008 1.7323 16.0013 2.35735C16.0023 2.75454 15.9246 3.148 15.7726 3.51497C15.6207 3.88195 15.3975 4.21516 15.116 4.49535L14.668 4.94335C14.4173 5.19231 14.0786 5.33243 13.7253 5.33335H12.668V6.00001C12.668 6.35363 12.5275 6.69277 12.2774 6.94282C12.0274 7.19287 11.6882 7.33335 11.3346 7.33335H10.668V8.39068C10.6684 8.56584 10.6341 8.73935 10.5671 8.90116C10.5 9.06297 10.4015 9.20987 10.2773 9.33335L9.84395 9.76668C10.0659 10.6161 10.0551 11.5096 9.81262 12.3533C9.53976 13.3147 8.98616 14.1727 8.22271 14.8175C7.45927 15.4623 6.52072 15.8645 5.52729 15.9727C5.35365 15.9907 5.1792 15.9998 5.00462 16ZM5.00462 7.33335C4.32205 7.33269 3.65285 7.52256 3.07235 7.8816C2.49184 8.24064 2.02308 8.7546 1.71882 9.3656C1.41457 9.97661 1.28691 10.6604 1.3502 11.34C1.4135 12.0197 1.66525 12.6681 2.0771 13.2124C2.48895 13.7568 3.04457 14.1753 3.68139 14.421C4.31822 14.6666 5.01097 14.7297 5.68168 14.603C6.35239 14.4763 6.97441 14.1649 7.47774 13.7038C7.98106 13.2428 8.34571 12.6504 8.53062 11.9933C8.73862 11.271 8.71531 10.5017 8.46395 9.79335C8.42293 9.67504 8.41606 9.54757 8.44412 9.42554C8.47218 9.30351 8.53404 9.19185 8.62262 9.10335L9.33462 8.39068V7.33335C9.33462 6.97972 9.4751 6.64059 9.72515 6.39054C9.97519 6.14049 10.3143 6.00001 10.668 6.00001H11.3346V5.33335C11.3346 4.97972 11.4751 4.64059 11.7251 4.39054C11.9752 4.14049 12.3143 4.00001 12.668 4.00001H13.7253L14.1733 3.55201C14.3306 3.39545 14.4553 3.20925 14.5402 3.0042C14.6251 2.79914 14.6685 2.57929 14.668 2.35735C14.6678 2.08593 14.5599 1.82568 14.3681 1.6337C14.1762 1.44172 13.916 1.3337 13.6446 1.33335C13.4225 1.3328 13.2025 1.3763 12.9974 1.46132C12.7922 1.54634 12.6059 1.6712 12.4493 1.82868L6.89529 7.38201C6.80665 7.4706 6.69484 7.53241 6.57268 7.56036C6.45052 7.5883 6.32296 7.58125 6.20462 7.54001C5.818 7.40389 5.41117 7.33402 5.00129 7.33335H5.00462ZM3.33462 12C3.33462 12.1319 3.37372 12.2608 3.44697 12.3704C3.52023 12.48 3.62435 12.5655 3.74617 12.6159C3.86798 12.6664 4.00203 12.6796 4.13135 12.6539C4.26067 12.6281 4.37946 12.5647 4.47269 12.4714C4.56593 12.3782 4.62942 12.2594 4.65514 12.1301C4.68087 12.0008 4.66767 11.8667 4.61721 11.7449C4.56675 11.6231 4.4813 11.519 4.37167 11.4457C4.26203 11.3724 4.13314 11.3333 4.00129 11.3333C3.82448 11.3333 3.65491 11.4036 3.52988 11.5286C3.40486 11.6536 3.33462 11.8232 3.33462 12Z" fill="#191919"/>
</g>
<defs>
<clipPath id="clip0_976_17202">
<rect width="16" height="16" fill="white"/>
</clipPath>
</defs>
</svg>
