<svg width="44" height="45" viewBox="0 0 44 45" fill="none" xmlns="http://www.w3.org/2000/svg">
<g id="vuesax/bold/clipboard">
<path id="Vector" d="M25.4642 5.62888L16.8659 4.27222C9.69762 3.1539 6.37931 5.57388 5.24265 12.7422L3.886 21.3404C3.15267 26.0337 3.92266 29.077 6.58098 30.9287C7.9743 31.9187 9.88095 32.5787 12.3559 32.9637L20.9542 34.3203C28.1225 35.4386 31.4408 33.0187 32.5774 25.8504L33.9158 17.2521C34.1358 15.8405 34.2274 14.5755 34.1541 13.4571C33.9158 8.87385 31.2208 6.5272 25.4642 5.62888ZM15.1059 17.4905C12.9609 17.4905 11.2193 15.7488 11.2193 13.6221C11.2193 11.4772 12.9609 9.73551 15.1059 9.73551C17.2326 9.73551 18.9742 11.4772 18.9742 13.6221C18.9742 15.7488 17.2326 17.4905 15.1059 17.4905Z" fill="#4545FE"/>
<path id="Vector_2" d="M37.5836 25.0446L34.8336 33.3128C32.542 40.2061 28.8753 42.0394 21.9821 39.7478L13.7138 36.9978C11.1288 36.1361 9.25882 35.0728 8.04883 33.7345C9.20382 34.1928 10.5421 34.5411 12.0638 34.7795L20.6804 36.1361C21.8537 36.3195 22.9537 36.4111 23.9804 36.4111C30.0303 36.4111 33.2753 33.1478 34.3936 26.1262L35.7319 17.5279C35.9153 16.4646 35.9886 15.5296 35.9886 14.668C38.7753 16.9596 39.1786 20.2229 37.5836 25.0446Z" fill="#4545FE"/>
</g>
</svg>
