<svg width="45" height="45" viewBox="0 0 45 45" fill="none" xmlns="http://www.w3.org/2000/svg">
<path d="M25.8626 5.62888L17.2643 4.27222C10.0961 3.1539 6.77775 5.57388 5.64109 12.7422L4.28444 21.3404C3.55111 26.0337 4.3211 29.077 6.97941 30.9287C8.37274 31.9187 10.2794 32.5787 12.7544 32.9637L21.3526 34.3203C28.5209 35.4386 31.8392 33.0187 32.9759 25.8504L34.3142 17.2521C34.5342 15.8405 34.6259 14.5755 34.5525 13.4571C34.3142 8.87385 31.6192 6.5272 25.8626 5.62888ZM15.5043 17.4905C13.3594 17.4905 11.6177 15.7488 11.6177 13.6221C11.6177 11.4772 13.3594 9.73551 15.5043 9.73551C17.631 9.73551 19.3727 11.4772 19.3727 13.6221C19.3727 15.7488 17.631 17.4905 15.5043 17.4905Z" fill="#919191"/>
<path d="M37.982 25.0446L35.2321 33.3128C32.9404 40.2061 29.2738 42.0394 22.3805 39.7478L14.1122 36.9978C11.5272 36.1361 9.65726 35.0728 8.44727 33.7345C9.60226 34.1928 10.9406 34.5411 12.4622 34.7795L21.0788 36.1361C22.2522 36.3195 23.3521 36.4111 24.3788 36.4111C30.4288 36.4111 33.6737 33.1478 34.7921 26.1262L36.1304 17.5279C36.3137 16.4646 36.387 15.5296 36.387 14.668C39.1737 16.9596 39.577 20.2229 37.982 25.0446Z" fill="#919191"/>
</svg>
