<svg width="56" height="56" viewBox="0 0 56 56" fill="none" xmlns="http://www.w3.org/2000/svg">
<rect x="4" y="4" width="48" height="48" rx="24" fill="#FF9103" fill-opacity="0.1"/>
<path d="M30.0914 22.7222H36.0451C36.5173 22.7222 36.7534 22.7222 36.8914 22.8215C37.0119 22.9081 37.0903 23.0414 37.1075 23.1888C37.1272 23.3577 37.0126 23.564 36.7833 23.9768L35.3624 26.5343C35.2793 26.684 35.2377 26.7589 35.2214 26.8381C35.207 26.9083 35.207 26.9806 35.2214 27.0508C35.2377 27.13 35.2793 27.2049 35.3624 27.3545L36.7833 29.9121C37.0126 30.3248 37.1272 30.5312 37.1075 30.7001C37.0903 30.8475 37.0119 30.9808 36.8914 31.0674C36.7534 31.1667 36.5173 31.1667 36.0451 31.1667H28.6136C28.0224 31.1667 27.7269 31.1667 27.5011 31.0516C27.3024 30.9504 27.141 30.7889 27.0398 30.5903C26.9247 30.3645 26.9247 30.0689 26.9247 29.4778V26.9444M23.2303 37.5L19.0081 20.6111M20.5914 26.9444H28.4025C28.9937 26.9444 29.2892 26.9444 29.515 26.8294C29.7137 26.7282 29.8751 26.5667 29.9763 26.3681C30.0914 26.1423 30.0914 25.8467 30.0914 25.2556V20.1889C30.0914 19.5977 30.0914 19.3021 29.9763 19.0763C29.8751 18.8777 29.7137 18.7162 29.515 18.615C29.2892 18.5 28.9937 18.5 28.4025 18.5H20.6433C19.906 18.5 19.5374 18.5 19.2852 18.6528C19.0642 18.7867 18.9 18.997 18.8237 19.2439C18.7366 19.5256 18.8261 19.8832 19.0049 20.5985L20.5914 26.9444Z" stroke="#FF9103" stroke-width="2" stroke-linecap="round" stroke-linejoin="round"/>
<rect x="4" y="4" width="48" height="48" rx="24" stroke="#FF9103" stroke-opacity="0.04" stroke-width="8"/>
</svg>
