<svg width="12" height="12" viewBox="0 0 12 12" fill="none" xmlns="http://www.w3.org/2000/svg">
<g id="vuesax/bold/magicpen">
<g id="magicpen">
<path id="Vector" d="M9.33931 4L8.67708 4.66222L7.34375 3.32889L8.00597 2.66667C8.19264 2.48 8.43264 2.39111 8.67264 2.39111C8.91264 2.39111 9.15264 2.48 9.33931 2.66667C9.70819 3.03556 9.70819 3.63111 9.33931 4Z" fill="#4545FE"/>
<path id="Vector_2" d="M8.35976 4.97835L3.55531 9.77835C3.18642 10.1472 2.59087 10.1472 2.22198 9.77835C1.85309 9.40946 1.85309 8.81391 2.22198 8.44502L7.02642 3.64502L8.35976 4.97835Z" fill="#4545FE"/>
<path id="Vector_3" d="M5.09519 2.22223L5.27741 1.60445C5.29519 1.54667 5.27741 1.48445 5.23741 1.44001C5.19741 1.39556 5.1263 1.37779 5.06852 1.39556L4.45075 1.57779L3.83297 1.39556C3.77519 1.37779 3.71297 1.39556 3.66852 1.43556C3.62408 1.48001 3.61075 1.54223 3.62852 1.60001L3.8063 2.22223L3.62408 2.84001C3.6063 2.89779 3.62408 2.96001 3.66408 3.00445C3.70852 3.0489 3.77075 3.06223 3.82852 3.04445L4.45075 2.86667L5.06852 3.0489C5.0863 3.05334 5.09963 3.05779 5.11741 3.05779C5.16186 3.05779 5.20186 3.04001 5.23741 3.0089C5.28186 2.96445 5.29519 2.90223 5.27741 2.84445L5.09519 2.22223Z" fill="#4545FE"/>
<path id="Vector_4" d="M3.31394 4.88873L3.49616 4.27096C3.51394 4.21318 3.49616 4.15096 3.45616 4.10651C3.41172 4.06207 3.3495 4.04873 3.29172 4.06651L2.6695 4.24429L2.05172 4.06207C1.99394 4.04429 1.93172 4.06207 1.88727 4.10207C1.84283 4.14651 1.8295 4.20873 1.84727 4.26651L2.02505 4.88873L1.84283 5.50651C1.82505 5.56429 1.84283 5.62651 1.88283 5.67096C1.92727 5.7154 1.9895 5.72873 2.04727 5.71096L2.66505 5.52873L3.28283 5.71096C3.29616 5.7154 3.31394 5.7154 3.33172 5.7154C3.37616 5.7154 3.41616 5.69762 3.45172 5.66651C3.49616 5.62207 3.5095 5.55984 3.49172 5.50207L3.31394 4.88873Z" fill="#4545FE"/>
<path id="Vector_5" d="M9.97765 7.11158L10.1599 6.4938C10.1777 6.43602 10.1599 6.3738 10.1199 6.32936C10.0754 6.28491 10.0132 6.27158 9.95543 6.28936L9.33765 6.47158L8.71988 6.28936C8.6621 6.27158 8.59988 6.28936 8.55543 6.32936C8.51099 6.3738 8.49765 6.43602 8.51543 6.4938L8.69765 7.11158L8.51543 7.72936C8.49765 7.78714 8.51543 7.84936 8.55543 7.8938C8.59988 7.93825 8.6621 7.95158 8.71988 7.9338L9.33765 7.75158L9.95543 7.9338C9.96876 7.93825 9.98654 7.93825 10.0043 7.93825C10.0488 7.93825 10.0888 7.92047 10.1243 7.88936C10.1688 7.84491 10.1821 7.78269 10.1643 7.72491L9.97765 7.11158Z" fill="#4545FE"/>
</g>
</g>
</svg>
