<svg width="13" height="13" viewBox="0 0 13 13" fill="none" xmlns="http://www.w3.org/2000/svg">
<g id="fluent:person-32-regular">
<path id="Vector" d="M9.34375 3.65625C9.34375 4.41046 9.04414 5.13378 8.51083 5.66708C7.97753 6.20039 7.25421 6.5 6.5 6.5C5.74579 6.5 5.02247 6.20039 4.48917 5.66708C3.95586 5.13378 3.65625 4.41046 3.65625 3.65625C3.65625 2.90204 3.95586 2.17872 4.48917 1.64542C5.02247 1.11211 5.74579 0.8125 6.5 0.8125C7.25421 0.8125 7.97753 1.11211 8.51083 1.64542C9.04414 2.17872 9.34375 2.90204 9.34375 3.65625ZM8.53125 3.65625C8.53125 3.11753 8.31724 2.60087 7.93631 2.21994C7.55538 1.83901 7.03872 1.625 6.5 1.625C5.96128 1.625 5.44462 1.83901 5.06369 2.21994C4.68276 2.60087 4.46875 3.11753 4.46875 3.65625C4.46875 4.19497 4.68276 4.71163 5.06369 5.09256C5.44462 5.47349 5.96128 5.6875 6.5 5.6875C7.03872 5.6875 7.55538 5.47349 7.93631 5.09256C8.31724 4.71163 8.53125 4.19497 8.53125 3.65625ZM3.04688 7.3125C2.66977 7.3125 2.30811 7.4623 2.04146 7.72896C1.7748 7.99561 1.625 8.35727 1.625 8.73438V8.9375C1.625 9.90966 2.24372 10.7319 3.12203 11.2909C4.00522 11.8532 5.20081 12.1875 6.5 12.1875C7.79919 12.1875 8.99438 11.8532 9.87797 11.2909C10.7563 10.7319 11.375 9.90966 11.375 8.9375V8.73438C11.375 8.35727 11.2252 7.99561 10.9585 7.72896C10.6919 7.4623 10.3302 7.3125 9.95312 7.3125H3.04688ZM2.4375 8.73438C2.4375 8.57276 2.5017 8.41776 2.61598 8.30348C2.73026 8.1892 2.88526 8.125 3.04688 8.125H9.95312C10.1147 8.125 10.2697 8.1892 10.384 8.30348C10.4983 8.41776 10.5625 8.57276 10.5625 8.73438V8.9375C10.5625 9.53591 10.1806 10.1355 9.44166 10.6056C8.70756 11.0728 7.66878 11.375 6.5 11.375C5.33122 11.375 4.29244 11.0728 3.55834 10.6056C2.81897 10.1359 2.4375 9.5355 2.4375 8.9375V8.73438Z" fill="black"/>
</g>
</svg>
