<svg width="16" height="17" viewBox="0 0 16 17" fill="none" xmlns="http://www.w3.org/2000/svg">
<g id="streamline:pet-paw">
<path id="Vector" d="M1.71512 11.6261C2.34598 11.6261 2.85798 10.8581 2.85798 9.91183C2.85798 8.96554 2.34598 8.19754 1.71512 8.19754C1.08427 8.19754 0.572266 8.96554 0.572266 9.91183C0.572266 10.8581 1.08427 11.6261 1.71512 11.6261ZM5.14369 6.48326C5.77455 6.48326 6.28655 5.71526 6.28655 4.76897C6.28655 3.82269 5.77455 3.05469 5.14369 3.05469C4.51284 3.05469 4.00084 3.82269 4.00084 4.76897C4.00084 5.71526 4.51284 6.48326 5.14369 6.48326ZM10.858 6.48326C11.4888 6.48326 12.0008 5.71526 12.0008 4.76897C12.0008 3.82269 11.4888 3.05469 10.858 3.05469C10.2271 3.05469 9.71512 3.82269 9.71512 4.76897C9.71512 5.71526 10.2271 6.48326 10.858 6.48326ZM14.2866 11.6261C14.9174 11.6261 15.4294 10.8581 15.4294 9.91183C15.4294 8.96554 14.9174 8.19754 14.2866 8.19754C13.6557 8.19754 13.1437 8.96554 13.1437 9.91183C13.1437 10.8581 13.6557 11.6261 14.2866 11.6261ZM11.4294 12.1975C11.4294 13.7747 9.57798 14.4833 8.00084 14.4833C6.42369 14.4833 4.57227 13.7747 4.57227 12.1975C4.57227 10.6204 5.71512 8.19754 8.00084 8.19754C10.2866 8.19754 11.4294 10.6204 11.4294 12.1975Z" stroke="#27272A" stroke-width="1.14286" stroke-linecap="round" stroke-linejoin="round"/>
</g>
</svg>
