<svg width="16" height="16" viewBox="0 0 16 16" fill="none" xmlns="http://www.w3.org/2000/svg">
<path d="M1.71317 10.8572C2.34403 10.8572 2.85603 10.0892 2.85603 9.14291C2.85603 8.19662 2.34403 7.42862 1.71317 7.42862C1.08231 7.42862 0.570312 8.19662 0.570312 9.14291C0.570312 10.0892 1.08231 10.8572 1.71317 10.8572ZM5.14174 5.71434C5.7726 5.71434 6.2846 4.94634 6.2846 4.00005C6.2846 3.05377 5.7726 2.28577 5.14174 2.28577C4.51088 2.28577 3.99888 3.05377 3.99888 4.00005C3.99888 4.94634 4.51088 5.71434 5.14174 5.71434ZM10.856 5.71434C11.4869 5.71434 11.9989 4.94634 11.9989 4.00005C11.9989 3.05377 11.4869 2.28577 10.856 2.28577C10.2252 2.28577 9.71317 3.05377 9.71317 4.00005C9.71317 4.94634 10.2252 5.71434 10.856 5.71434ZM14.2846 10.8572C14.9155 10.8572 15.4275 10.0892 15.4275 9.14291C15.4275 8.19662 14.9155 7.42862 14.2846 7.42862C13.6537 7.42862 13.1417 8.19662 13.1417 9.14291C13.1417 10.0892 13.6537 10.8572 14.2846 10.8572ZM11.4275 11.4286C11.4275 13.0058 9.57603 13.7143 7.99888 13.7143C6.42174 13.7143 4.57031 13.0058 4.57031 11.4286C4.57031 9.85148 5.71317 7.42862 7.99888 7.42862C10.2846 7.42862 11.4275 9.85148 11.4275 11.4286Z" stroke="#4545FE" stroke-width="1.14286" stroke-linecap="round" stroke-linejoin="round"/>
</svg>
