<svg width="48" height="48" viewBox="0 0 48 48" fill="none" xmlns="http://www.w3.org/2000/svg">
<g clip-path="url(#clip0_16055_80072)">
<path fill-rule="evenodd" clip-rule="evenodd" d="M0 24C0 10.7452 10.7452 0 24 0C37.2548 0 48 10.7452 48 24C48 37.2548 37.2548 48 24 48C10.7452 48 0 37.2548 0 24Z" fill="url(#paint0_linear_16055_80072)"/>
<path fill-rule="evenodd" clip-rule="evenodd" d="M23.9166 39.4379C17.1716 39.4379 11.4766 38.3416 11.4766 34.112C11.4766 29.8806 17.2074 28.8232 23.9166 28.8232C30.6632 28.8232 36.3567 29.9195 36.3567 34.1493C36.3567 38.3805 30.6259 39.4379 23.9166 39.4379V39.4379ZM32.1483 16.5685C32.1483 21.1356 28.4864 24.7976 23.9161 24.7976C19.3473 24.7976 15.6839 21.1356 15.6839 16.5685C15.6839 12.0013 19.3473 8.34082 23.9161 8.34082C28.4864 8.34082 32.1483 12.0013 32.1483 16.5685Z" fill="#191919"/>
</g>
<defs>
<linearGradient id="paint0_linear_16055_80072" x1="0" y1="0" x2="0" y2="48" gradientUnits="userSpaceOnUse">
<stop stop-color="#FEFEFE"/>
<stop offset="1" stop-color="#ECECEC"/>
</linearGradient>
<clipPath id="clip0_16055_80072">
<rect width="48" height="48" fill="white"/>
</clipPath>
</defs>
</svg>
