<svg width="24" height="25" viewBox="0 0 24 25" fill="none" xmlns="http://www.w3.org/2000/svg">
<g id="vuesax/bold/play-cricle">
<g id="play-cricle">
<path id="Vector" d="M19.0678 20.3201C18.8778 20.3201 18.6878 20.2501 18.5378 20.1001C18.2478 19.8101 18.2478 19.3301 18.5378 19.0401C22.1478 15.4301 22.1478 9.56012 18.5378 5.96012C18.2478 5.67012 18.2478 5.19012 18.5378 4.90012C18.8278 4.61012 19.3078 4.61012 19.5978 4.90012C23.7878 9.09012 23.7878 15.9101 19.5978 20.1001C19.4478 20.2501 19.2578 20.3201 19.0678 20.3201Z" fill="#060623"/>
<path id="Vector_2" d="M4.93031 20.3201C4.74031 20.3201 4.55031 20.2501 4.40031 20.1001C0.210312 15.9101 0.210312 9.09012 4.40031 4.90012C4.69031 4.61012 5.17031 4.61012 5.46031 4.90012C5.75031 5.19012 5.75031 5.67012 5.46031 5.96012C1.85031 9.57012 1.85031 15.4401 5.46031 19.0401C5.75031 19.3301 5.75031 19.8101 5.46031 20.1001C5.31031 20.2501 5.12031 20.3201 4.93031 20.3201Z" fill="#060623"/>
<path id="Vector_3" d="M11.9988 23.21C10.7488 23.2 9.55878 23 8.44878 22.61C8.05878 22.47 7.84878 22.04 7.98878 21.65C8.12878 21.26 8.54878 21.05 8.94878 21.19C9.90878 21.52 10.9288 21.7 12.0088 21.7C13.0788 21.7 14.1088 21.52 15.0588 21.19C15.4488 21.06 15.8788 21.26 16.0188 21.65C16.1588 22.04 15.9488 22.47 15.5588 22.61C14.4388 23 13.2488 23.21 11.9988 23.21Z" fill="#060623"/>
<path id="Vector_4" d="M15.2988 3.84004C15.2188 3.84004 15.1288 3.83004 15.0488 3.80004C14.0988 3.46004 13.0688 3.29004 11.9988 3.29004C10.9288 3.29004 9.90878 3.47004 8.94878 3.80004C8.54878 3.93004 8.12878 3.73004 7.98878 3.34004C7.84878 2.95004 8.05878 2.52004 8.44878 2.38004C9.56878 1.99004 10.7588 1.79004 11.9988 1.79004C13.2388 1.79004 14.4388 1.99004 15.5488 2.38004C15.9388 2.52004 16.1488 2.95004 16.0088 3.34004C15.8988 3.65004 15.6088 3.84004 15.2988 3.84004Z" fill="#060623"/>
<path id="Vector_5" d="M8.74219 12.5001V10.8301C8.74219 8.75014 10.2122 7.90014 12.0122 8.94014L13.4622 9.78014L14.9122 10.6201C16.7122 11.6601 16.7122 13.3601 14.9122 14.4001L13.4622 15.2401L12.0122 16.0801C10.2122 17.1201 8.74219 16.2701 8.74219 14.1901V12.5001Z" fill="#060623"/>
</g>
</g>
</svg>
