<svg width="28" height="29" viewBox="0 0 28 29" fill="none" xmlns="http://www.w3.org/2000/svg">
<g id="marketeq:secure">
<g id="Group">
<path id="Vector" d="M10.502 13.3335L12.8355 15.6665L17.502 11" stroke="#606060" stroke-width="1.12" stroke-linecap="round" stroke-linejoin="round"/>
<path id="Vector_2" d="M14.0004 25L15.0269 24.5565C17.1791 23.6329 19.0376 22.138 20.4011 20.2338C21.7646 18.3296 22.5811 16.0886 22.7621 13.7535L23.2639 7.31352C23.2721 7.04682 23.1884 6.78539 23.027 6.57297C22.8655 6.36054 22.636 6.20998 22.3769 6.14648L14.0004 4L5.6239 6.1C5.36484 6.16348 5.13541 6.31395 4.97396 6.52627C4.8125 6.73858 4.72881 6.99987 4.73686 7.26648L5.23862 13.7065C5.41955 16.0416 6.23598 18.2827 7.59948 20.1871C8.96298 22.0914 10.8216 23.5864 12.9739 24.51L14.0004 25Z" stroke="#606060" stroke-width="1.12" stroke-linecap="round" stroke-linejoin="round"/>
</g>
</g>
</svg>
