<svg width="36" height="36" viewBox="0 0 36 36" fill="none" xmlns="http://www.w3.org/2000/svg">
<path fill-rule="evenodd" clip-rule="evenodd" d="M24.2368 12.3493C24.2368 15.8738 21.427 18.6999 17.9228 18.6999C14.4187 18.6999 11.6089 15.8738 11.6089 12.3493C11.6089 8.8234 14.4187 6 17.9228 6C21.427 6 24.2368 8.8234 24.2368 12.3493ZM17.9232 29.9999C12.7765 29.9999 8.38184 29.1839 8.38184 25.9201C8.38184 22.655 12.7483 21.8093 17.9232 21.8093C23.07 21.8093 27.4647 22.6253 27.4647 25.8904C27.4647 29.1542 23.0982 29.9999 17.9232 29.9999ZM26.9352 12.4641C26.9352 14.2608 26.3993 15.9346 25.4591 17.326C25.3624 17.4692 25.4484 17.6624 25.6189 17.6921C25.854 17.7326 26.0971 17.7556 26.3442 17.7623C28.8088 17.8272 31.0209 16.2318 31.632 13.8298C32.5373 10.2621 29.8793 7.05908 26.4946 7.05908C26.1266 7.05908 25.7747 7.09826 25.4322 7.16851C25.3852 7.17931 25.3355 7.20093 25.3087 7.24281C25.2764 7.29414 25.3006 7.36304 25.3329 7.40762C26.3496 8.84093 26.9352 10.589 26.9352 12.4641ZM31.0175 20.2687C32.6736 20.5943 33.7628 21.2589 34.2141 22.2248C34.5956 23.0178 34.5956 23.9378 34.2141 24.7294C33.5238 26.2276 31.2982 26.7085 30.4333 26.8328C30.2546 26.8598 30.1109 26.7045 30.1297 26.5248C30.5716 22.3734 27.0567 20.4052 26.1474 19.9526C26.1085 19.9323 26.1004 19.9013 26.1045 19.8824C26.1071 19.8689 26.1233 19.8472 26.1528 19.8432C28.1204 19.8067 30.2358 20.0769 31.0175 20.2687ZM9.65505 17.7616C9.90218 17.7549 10.1439 17.7332 10.3803 17.6914C10.5509 17.6616 10.6369 17.4685 10.5402 17.3253C9.59999 15.9338 9.06409 14.2601 9.06409 12.4633C9.06409 10.5883 9.64968 8.8402 10.6664 7.40688C10.6986 7.3623 10.7215 7.29341 10.6906 7.24207C10.6637 7.20155 10.6127 7.17858 10.567 7.16777C10.2232 7.09753 9.87129 7.05835 9.50328 7.05835C6.11866 7.05835 3.46066 10.2614 4.36725 13.8291C4.97836 16.231 7.19046 17.8265 9.65505 17.7616ZM9.89541 19.8817C9.89944 19.902 9.89138 19.9317 9.85377 19.9533C8.94315 20.4059 5.42824 22.3742 5.87012 26.5242C5.88893 26.7052 5.74656 26.8592 5.56793 26.8335C4.70297 26.7092 2.47744 26.2283 1.78709 24.7302C1.4043 23.9372 1.4043 23.0186 1.78709 22.2256C2.23837 21.2597 3.32629 20.595 4.98233 20.2681C5.76536 20.0776 7.87941 19.8074 9.8484 19.8439C9.87795 19.848 9.89272 19.8696 9.89541 19.8817Z" fill="#4545FE"/>
</svg>
