<svg width="26" height="30" viewBox="0 0 26 30" fill="none" xmlns="http://www.w3.org/2000/svg">
<path fill-rule="evenodd" clip-rule="evenodd" d="M6.6532 10.0708H19.3468C22.883 10.0708 25.75 12.8746 25.75 16.3328V23.7381C25.75 27.1962 22.883 30 19.3468 30H6.6532C3.11704 30 0.25 27.1962 0.25 23.7381V16.3328C0.25 12.8746 3.11704 10.0708 6.6532 10.0708ZM12.9923 22.9941C13.7392 22.9941 14.3336 22.4127 14.3336 21.6824V18.3732C14.3336 17.6577 13.7392 17.0764 12.9923 17.0764C12.2607 17.0764 11.6663 17.6577 11.6663 18.3732V21.6824C11.6663 22.4127 12.2607 22.9941 12.9923 22.9941Z" fill="#12D8A0"/>
<path opacity="0.4" d="M21.2849 8.09393V10.3C20.7515 10.1509 20.1875 10.0764 19.6083 10.0764H18.6176V8.09393C18.6176 5.06802 16.1026 2.60854 13.0085 2.60854C9.91435 2.60854 7.3994 5.05311 7.38416 8.06412V10.0764H6.40867C5.81423 10.0764 5.25027 10.1509 4.7168 10.3149V8.09393C4.73204 3.62214 8.43586 0 12.978 0C17.5811 0 21.2849 3.62214 21.2849 8.09393" fill="#12D8A0"/>
</svg>
