<svg width="33" height="32" viewBox="0 0 33 32" fill="none" xmlns="http://www.w3.org/2000/svg">
<g clip-path="url(#clip0_32952_68680)">
<path d="M22.5 14C22.5 17.32 19.82 20 16.5 20C13.18 20 10.5 17.32 10.5 14C10.5 10.68 13.18 8 16.5 8C19.82 8 22.5 10.68 22.5 14Z" fill="#919191"/>
<path fill-rule="evenodd" clip-rule="evenodd" d="M32.5 16C32.5 24.84 25.34 32 16.5 32C7.66 32 0.5 24.84 0.5 16C0.5 7.16 7.66 0 16.5 0C25.34 0 32.5 7.16 32.5 16ZM8.5 27.5C8.82 26.968 11.92 22 16.48 22C21.02 22 24.14 26.98 24.46 27.5C26.3197 26.214 27.8393 24.4955 28.8879 22.4922C29.9365 20.489 30.4829 18.2611 30.48 16C30.48 8.26 24.22 2 16.48 2C8.74 2 2.48 8.26 2.48 16C2.48 20.76 4.86 24.98 8.5 27.5Z" fill="#919191"/>
</g>
<defs>
<clipPath id="clip0_32952_68680">
<rect width="32" height="32" fill="white" transform="translate(0.5)"/>
</clipPath>
</defs>
</svg>
