<svg width="21" height="21" viewBox="0 0 21 21" fill="none" xmlns="http://www.w3.org/2000/svg">
<path d="M6.23177 10.7152H10.3984V14.8818M2.90677 10.7152H2.89844M7.07344 14.8818H7.0651M10.4068 18.2152H10.3984M17.9068 10.7152H17.8984M2.89844 14.8818H4.14844M13.3151 10.7152H14.9818M2.89844 18.2152H7.0651M10.3984 2.38184V7.38184M15.0651 18.2152H16.5651C17.0318 18.2152 17.2652 18.2152 17.4434 18.1243C17.6002 18.0444 17.7277 17.917 17.8076 17.7602C17.8984 17.5819 17.8984 17.3485 17.8984 16.8818V15.3818C17.8984 14.9151 17.8984 14.6818 17.8076 14.5035C17.7277 14.3467 17.6002 14.2192 17.4434 14.1393C17.2652 14.0485 17.0318 14.0485 16.5651 14.0485H15.0651C14.5984 14.0485 14.365 14.0485 14.1868 14.1393C14.03 14.2192 13.9025 14.3467 13.8226 14.5035C13.7318 14.6818 13.7318 14.9151 13.7318 15.3818V16.8818C13.7318 17.3485 13.7318 17.5819 13.8226 17.7602C13.9025 17.917 14.03 18.0444 14.1868 18.1243C14.365 18.2152 14.5984 18.2152 15.0651 18.2152ZM15.0651 7.38184H16.5651C17.0318 7.38184 17.2652 7.38184 17.4434 7.29101C17.6002 7.21111 17.7277 7.08363 17.8076 6.92683C17.8984 6.74857 17.8984 6.51521 17.8984 6.0485V4.5485C17.8984 4.08179 17.8984 3.84844 17.8076 3.67018C17.7277 3.51338 17.6002 3.38589 17.4434 3.306C17.2652 3.21517 17.0318 3.21517 16.5651 3.21517H15.0651C14.5984 3.21517 14.365 3.21517 14.1868 3.306C14.03 3.38589 13.9025 3.51338 13.8226 3.67018C13.7318 3.84844 13.7318 4.08179 13.7318 4.5485V6.0485C13.7318 6.51521 13.7318 6.74857 13.8226 6.92683C13.9025 7.08363 14.03 7.21111 14.1868 7.29101C14.365 7.38184 14.5984 7.38184 15.0651 7.38184ZM4.23177 7.38184H5.73177C6.19848 7.38184 6.43184 7.38184 6.6101 7.29101C6.7669 7.21111 6.89438 7.08363 6.97428 6.92683C7.0651 6.74857 7.0651 6.51521 7.0651 6.0485V4.5485C7.0651 4.08179 7.0651 3.84844 6.97428 3.67018C6.89438 3.51338 6.7669 3.38589 6.6101 3.306C6.43184 3.21517 6.19848 3.21517 5.73177 3.21517H4.23177C3.76506 3.21517 3.53171 3.21517 3.35345 3.306C3.19664 3.38589 3.06916 3.51338 2.98927 3.67018C2.89844 3.84844 2.89844 4.08179 2.89844 4.5485V6.0485C2.89844 6.51521 2.89844 6.74857 2.98927 6.92683C3.06916 7.08363 3.19664 7.21111 3.35345 7.29101C3.53171 7.38184 3.76506 7.38184 4.23177 7.38184Z" stroke="white" stroke-width="1.66667" stroke-linecap="round" stroke-linejoin="round"/>
</svg>
