<svg width="19" height="18" viewBox="0 0 19 18" fill="none" xmlns="http://www.w3.org/2000/svg">
<path d="M4.963 11.8426C5.03272 11.9129 5.11567 11.9687 5.20707 12.0068C5.29846 12.0448 5.39649 12.0645 5.4955 12.0645C5.59451 12.0645 5.69254 12.0448 5.78393 12.0068C5.87533 11.9687 5.95828 11.9129 6.028 11.8426L9.463 8.40761C9.53272 8.33732 9.61567 8.28152 9.70707 8.24344C9.79846 8.20537 9.89649 8.18576 9.9955 8.18576C10.0945 8.18576 10.1925 8.20537 10.2839 8.24344C10.3753 8.28152 10.4583 8.33732 10.528 8.40761L13.963 11.8426C14.0327 11.9129 14.1157 11.9687 14.2071 12.0068C14.2985 12.0448 14.3965 12.0645 14.4955 12.0645C14.5945 12.0645 14.6925 12.0448 14.7839 12.0068C14.8753 11.9687 14.9583 11.9129 15.028 11.8426C15.1677 11.7021 15.2461 11.512 15.2461 11.3139C15.2461 11.1157 15.1677 10.9256 15.028 10.7851L11.5855 7.34261C11.1636 6.92126 10.5918 6.6846 9.9955 6.6846C9.39925 6.6846 8.82737 6.92126 8.4055 7.34261L4.963 10.7851C4.82331 10.9256 4.7449 11.1157 4.7449 11.3139C4.7449 11.512 4.82331 11.7021 4.963 11.8426Z" fill="#374957"/>
</svg>
