<svg width="18" height="18" viewBox="0 0 18 18" fill="none" xmlns="http://www.w3.org/2000/svg">
<path d="M16.5 9C16.5 13.143 13.1422 16.5 9 16.5C4.85775 16.5 1.5 13.143 1.5 9C1.5 4.8585 4.85775 1.5 9 1.5C13.1422 1.5 16.5 4.8585 16.5 9Z" fill="#4545FE"/>
<path d="M8.10825 11.4363C7.94025 11.4363 7.77225 11.3726 7.644 11.2443L5.86425 9.46459C5.60775 9.20809 5.60775 8.79259 5.86425 8.53684C6.12075 8.28034 6.5355 8.27959 6.792 8.53609L8.10825 9.85234L11.2043 6.75634C11.4608 6.49984 11.8755 6.49984 12.132 6.75634C12.3885 7.01284 12.3885 7.42834 12.132 7.68484L8.5725 11.2443C8.44425 11.3726 8.27625 11.4363 8.10825 11.4363Z" fill="white"/>
</svg>
