<svg width="25" height="24" viewBox="0 0 25 24" fill="none" xmlns="http://www.w3.org/2000/svg">
<g id="vuesax/bold/trash">
<g id="trash">
<path id="Vector" d="M21.5699 5.23C19.9599 5.07 18.3499 4.95 16.7299 4.86V4.85L16.5099 3.55C16.3599 2.63 16.1399 1.25 13.7999 1.25H11.1799C8.84991 1.25 8.62991 2.57 8.46991 3.54L8.25991 4.82C7.32991 4.88 6.39991 4.94 5.46991 5.03L3.42991 5.23C3.00991 5.27 2.70991 5.64 2.74991 6.05C2.78991 6.46 3.14991 6.76 3.56991 6.72L5.60991 6.52C10.8499 6 16.1299 6.2 21.4299 6.73C21.4599 6.73 21.4799 6.73 21.5099 6.73C21.8899 6.73 22.2199 6.44 22.2599 6.05C22.2899 5.64 21.9899 5.27 21.5699 5.23Z" fill="#FF6A6A"/>
<path id="Vector_2" d="M19.73 8.14C19.49 7.89 19.16 7.75 18.82 7.75H6.17999C5.83999 7.75 5.49999 7.89 5.26999 8.14C5.03999 8.39 4.90999 8.73 4.92999 9.08L5.54999 19.34C5.65999 20.86 5.79999 22.76 9.28999 22.76H15.71C19.2 22.76 19.34 20.87 19.45 19.34L20.07 9.09C20.09 8.73 19.96 8.39 19.73 8.14ZM14.16 17.75H10.83C10.42 17.75 10.08 17.41 10.08 17C10.08 16.59 10.42 16.25 10.83 16.25H14.16C14.57 16.25 14.91 16.59 14.91 17C14.91 17.41 14.57 17.75 14.16 17.75ZM15 13.75H9.99999C9.58999 13.75 9.24999 13.41 9.24999 13C9.24999 12.59 9.58999 12.25 9.99999 12.25H15C15.41 12.25 15.75 12.59 15.75 13C15.75 13.41 15.41 13.75 15 13.75Z" fill="#FF6A6A"/>
</g>
</g>
</svg>
