<svg width="21" height="25" viewBox="0 0 21 25" fill="none" xmlns="http://www.w3.org/2000/svg">
<path fill-rule="evenodd" clip-rule="evenodd" d="M10.831 14.5505H12.8607C13.3418 14.5505 13.7407 14.1594 13.7407 13.6736C13.7407 13.1759 13.3418 12.7848 12.8607 12.7848H10.831V10.7348C10.831 10.2489 10.4438 9.85787 9.96275 9.85787C9.48171 9.85787 9.0828 10.2489 9.0828 10.7348V12.7848H7.06478C6.58374 12.7848 6.18483 13.1759 6.18483 13.6736C6.18483 14.1594 6.58374 14.5505 7.06478 14.5505H9.0828V16.6005C9.0828 17.0864 9.48171 17.4774 9.96275 17.4774C10.4438 17.4774 10.831 17.0864 10.831 16.6005V14.5505ZM18.8755 8.97574C19.1513 8.97256 19.4516 8.96909 19.7245 8.96909C20.0178 8.96909 20.2524 9.20609 20.2524 9.50234V19.0297C20.2524 21.9685 17.8942 24.3504 14.9727 24.3504H5.64524C2.59475 24.3504 0.107422 21.85 0.107422 18.769V5.99474C0.107422 3.05594 2.47742 0.650391 5.39886 0.650391H11.6641C11.9692 0.650391 12.2038 0.899241 12.2038 1.19549V5.01119C12.2038 7.17974 13.9754 8.95724 16.1225 8.96909C16.624 8.96909 17.0662 8.97284 17.4531 8.97612C17.7541 8.97867 18.0217 8.98094 18.2579 8.98094C18.4249 8.98094 18.6414 8.97844 18.8755 8.97574ZM19.198 7.24631C18.2335 7.24986 17.0967 7.24631 16.2789 7.23801C14.9812 7.23801 13.9124 6.15848 13.9124 4.84787V1.72421C13.9124 1.21347 14.526 0.959883 14.8768 1.32842C15.5117 1.99512 16.384 2.91151 17.2525 3.82377C18.119 4.73402 18.9816 5.64016 19.6004 6.29001C19.943 6.64907 19.6919 7.24512 19.198 7.24631Z" fill="#4545FE"/>
</svg>
