<svg width="14" height="18" viewBox="0 0 14 18" fill="none" xmlns="http://www.w3.org/2000/svg">
<g id="file-lines-thin 1" clipPath="url(#clip0_10621_87137)">
<path id="Vector" d="M13.1695 5.29441L8.20195 0.326834C7.99102 0.115826 7.70484 -0.00268555 7.40672 -0.00268555L2.25 -0.000122656C1.00723 -0.000122656 0 1.0071 0 2.24988L0.000228516 15.7499C0.000228516 16.9927 1.00746 17.9999 2.25023 17.9999H11.25C12.4928 17.9999 13.5 16.9927 13.5 15.7499V6.09246C13.5 5.79363 13.3805 5.50535 13.1695 5.29441ZM7.875 0.795467L12.7055 5.62594H8.71875C8.25398 5.62594 7.875 5.2473 7.875 4.78219V0.795467ZM12.9375 15.7182C12.9375 16.6488 12.1806 17.4057 11.25 17.4057H2.25C1.31941 17.4057 0.5625 16.6488 0.5625 15.7182V2.21824C0.5625 1.28765 1.31941 0.53074 2.25 0.53074H7.3125V4.71785C7.3125 5.4934 7.9432 6.1241 8.71875 6.1241H12.9375V15.7182ZM3.375 9.24949C3.375 9.40439 3.50135 9.53074 3.65625 9.53074H9.84375C9.99865 9.53074 10.125 9.40439 10.125 9.24949C10.125 9.09459 9.99865 8.96824 9.84375 8.96824H3.65625C3.50121 8.96824 3.375 9.12644 3.375 9.24949ZM9.84375 11.2182H3.65625C3.50135 11.2182 3.375 11.3446 3.375 11.4995C3.375 11.6544 3.50135 11.7807 3.65625 11.7807H9.84375C9.99865 11.7807 10.125 11.6544 10.125 11.4995C10.125 11.3446 9.99844 11.2182 9.84375 11.2182ZM9.84375 13.4682H3.65625C3.50135 13.4682 3.375 13.5946 3.375 13.7495C3.375 13.9044 3.50135 14.0307 3.65625 14.0307H9.84375C9.99865 14.0307 10.125 13.9044 10.125 13.7495C10.125 13.5946 9.99844 13.4682 9.84375 13.4682Z" fill="#606060"/>
</g>
<defs>
<clipPath id="clip0_10621_87137">
<rect width="13.5" height="18" fill="white"/>
</clipPath>
</defs>
</svg>
