<svg width="28" height="28" viewBox="0 0 28 28" fill="none" xmlns="http://www.w3.org/2000/svg">
<path d="M5.60043 5.5998C5.60043 4.8572 5.89543 4.14501 6.42053 3.61991C6.94563 3.0948 7.65782 2.7998 8.40043 2.7998H14.8208C15.3776 2.80029 15.9114 3.02187 16.3048 3.4158L21.7858 8.8954C22.1793 9.28908 22.4003 9.82284 22.4004 10.3794V22.3998C22.4004 23.1424 22.1054 23.8546 21.5803 24.3797C21.0552 24.9048 20.343 25.1998 19.6004 25.1998H13.6406C13.9962 24.7686 14.3028 24.3019 14.5604 23.7998H19.6004C19.9717 23.7998 20.3278 23.6523 20.5904 23.3898C20.8529 23.1272 21.0004 22.7711 21.0004 22.3998V11.1998H16.1004C15.5435 11.1998 15.0093 10.9786 14.6155 10.5847C14.2217 10.1909 14.0004 9.65676 14.0004 9.0998V4.1998H8.40043C8.02913 4.1998 7.67303 4.3473 7.41048 4.60986C7.14793 4.87241 7.00043 5.2285 7.00043 5.5998V12.6306C6.52677 12.6735 6.0581 12.7602 5.60043 12.8896V5.5998ZM15.4004 4.4896V9.0998C15.4004 9.28546 15.4742 9.4635 15.6055 9.59478C15.7367 9.72605 15.9148 9.7998 16.1004 9.7998H20.7106L15.4004 4.4896ZM12.1552 24.7546C10.9737 25.9361 9.3713 26.5998 7.70043 26.5998C6.02955 26.5998 4.42712 25.9361 3.24563 24.7546C2.06414 23.5731 1.40039 21.9707 1.40039 20.2998C1.40039 18.6289 2.06414 17.0265 3.24563 15.845C4.42712 14.6635 6.02955 13.9998 7.70043 13.9998C8.52776 13.9998 9.34699 14.1627 10.1113 14.4793C10.8757 14.7959 11.5702 15.26 12.1552 15.845C12.7402 16.43 13.2043 17.1245 13.5209 17.8889C13.8375 18.6532 14.0005 19.4725 14.0005 20.2998C14.0005 21.1271 13.8375 21.9464 13.5209 22.7107C13.2043 23.4751 12.7402 24.1696 12.1552 24.7546ZM4.76603 24.224C5.70963 24.9317 6.87685 25.2753 8.05339 25.1917C9.22992 25.1081 10.3368 24.6029 11.1709 23.7688C12.0049 22.9348 12.5101 21.8279 12.5937 20.6514C12.6773 19.4748 12.3337 18.3076 11.626 17.364L4.76603 24.224ZM3.77623 23.2342L10.6362 16.3742C9.69263 15.6665 8.52541 15.3229 7.34887 15.4065C6.17234 15.4901 5.06544 15.9953 4.23141 16.8294C3.39737 17.6634 2.89217 18.7703 2.80856 19.9468C2.72494 21.1234 3.06853 22.2906 3.77623 23.2342Z" fill="#606060"/>
</svg>
