<svg width="15" height="15" viewBox="0 0 15 15" fill="none" xmlns="http://www.w3.org/2000/svg">
<g id="Arrow - Left">
<path id="Stroke 1" d="M3.2679 10.3502C3.12271 10.1428 3.1568 9.86358 3.33773 9.69648L3.39069 9.65383L11.5822 3.91806C11.8084 3.75967 12.1202 3.81465 12.2786 4.04085C12.4238 4.2482 12.3897 4.52746 12.2087 4.69456L12.1558 4.73721L3.96426 10.473C3.73806 10.6314 3.42629 10.5764 3.2679 10.3502Z" fill="#4545FE"/>
<path id="Stroke 3" d="M6.17577 3.84516C5.90372 3.79779 5.72158 3.53885 5.76894 3.2668C5.812 3.01949 6.02992 2.84647 6.27358 2.85264L6.3473 2.85998L11.9547 3.83627C12.2027 3.87946 12.3759 4.09848 12.3688 4.3428L12.3612 4.4167L11.3611 10.0204C11.3126 10.2922 11.0529 10.4733 10.781 10.4248C10.5339 10.3807 10.3618 10.162 10.369 9.91839L10.3767 9.8447L11.2882 4.73524L6.17577 3.84516Z" fill="#4545FE"/>
</g>
</svg>
