<svg width="33" height="33" viewBox="0 0 33 33" fill="none" xmlns="http://www.w3.org/2000/svg">
<rect x="0.75" y="0.75" width="31.5" height="31.5" rx="15.75" fill="#303030"/>
<rect x="0.75" y="0.75" width="31.5" height="31.5" rx="15.75" stroke="#3F3F3F" stroke-width="0.5"/>
<path fill-rule="evenodd" clip-rule="evenodd" d="M20.1215 12.6576C20.1481 12.7042 20.1948 12.7375 20.2548 12.7375C21.8548 12.7375 23.1615 14.0427 23.1615 15.641V19.5966C23.1615 21.1948 21.8548 22.5 20.2548 22.5H12.7348C11.1281 22.5 9.82812 21.1948 9.82812 19.5966V15.641C9.82812 14.0427 11.1281 12.7375 12.7348 12.7375C12.7881 12.7375 12.8415 12.7109 12.8615 12.6576L12.9015 12.5777C12.9244 12.5293 12.948 12.4796 12.972 12.4292C13.1425 12.07 13.3312 11.6725 13.4481 11.439C13.7548 10.8396 14.2748 10.5067 14.9215 10.5H18.0615C18.7081 10.5067 19.2348 10.8396 19.5415 11.439C19.6465 11.6487 19.8064 11.9866 19.9606 12.3122C19.9924 12.3795 20.024 12.4462 20.0548 12.5111L20.1215 12.6576ZM19.6354 15.2148C19.6354 15.5477 19.9021 15.8141 20.2354 15.8141C20.5688 15.8141 20.8421 15.5477 20.8421 15.2148C20.8421 14.8818 20.5688 14.6088 20.2354 14.6088C19.9021 14.6088 19.6354 14.8818 19.6354 15.2148ZM15.3419 16.247C15.6552 15.934 16.0619 15.7675 16.4952 15.7675C16.9285 15.7675 17.3352 15.934 17.6419 16.2403C17.9485 16.5466 18.1152 16.9528 18.1152 17.3857C18.1085 18.278 17.3885 19.0039 16.4952 19.0039C16.0619 19.0039 15.6552 18.8374 15.3485 18.5311C15.0419 18.2248 14.8752 17.8186 14.8752 17.3857V17.379C14.8685 16.9595 15.0352 16.5533 15.3419 16.247ZM18.3418 19.237C17.8685 19.7098 17.2151 20.0028 16.4951 20.0028C15.7951 20.0028 15.1418 19.7298 14.6418 19.237C14.1485 18.7375 13.8751 18.0849 13.8751 17.3857C13.8685 16.6931 14.1418 16.0405 14.6351 15.5411C15.1351 15.0416 15.7951 14.7686 16.4951 14.7686C17.1951 14.7686 17.8551 15.0416 18.3485 15.5344C18.8418 16.0339 19.1151 16.6931 19.1151 17.3857C19.1085 18.1115 18.8151 18.7642 18.3418 19.237Z" fill="white"/>
</svg>
