<svg width="89" height="88" viewBox="0 0 89 88" fill="none" xmlns="http://www.w3.org/2000/svg">
<g id="material-symbols:cancel-rounded">
<path id="Vector" d="M28.4898 59.7673C29.1621 60.4395 30.0176 60.7757 31.0565 60.7757C32.0954 60.7757 32.951 60.4395 33.6232 59.7673L44.2565 49.134L54.9815 59.859C55.6537 60.5312 56.4946 60.8514 57.5042 60.8196C58.5113 60.7903 59.3509 60.4395 60.0232 59.7673C60.6954 59.0951 61.0315 58.2395 61.0315 57.2006C61.0315 56.1618 60.6954 55.3062 60.0232 54.634L49.3898 44.0006L60.1148 33.2757C60.7871 32.6034 61.1073 31.7625 61.0755 30.753C61.0462 29.7459 60.6954 28.9062 60.0232 28.234C59.3509 27.5618 58.4954 27.2257 57.4565 27.2257C56.4176 27.2257 55.5621 27.5618 54.8898 28.234L44.2565 38.8673L33.5315 28.1423C32.8593 27.4701 32.0196 27.1487 31.0125 27.178C30.003 27.2098 29.1621 27.5618 28.4898 28.234C27.8176 28.9062 27.4815 29.7618 27.4815 30.8006C27.4815 31.8395 27.8176 32.6951 28.4898 33.3673L39.1232 44.0006L28.3982 54.7257C27.726 55.3979 27.4057 56.2375 27.4375 57.2447C27.4668 58.2542 27.8176 59.0951 28.4898 59.7673ZM44.2565 80.6673C39.1843 80.6673 34.4176 79.7042 29.9565 77.778C25.4954 75.8542 21.6148 73.2423 18.3148 69.9423C15.0148 66.6423 12.403 62.7618 10.4792 58.3006C8.55296 53.8395 7.58984 49.0729 7.58984 44.0006C7.58984 38.9284 8.55296 34.1618 10.4792 29.7007C12.403 25.2395 15.0148 21.359 18.3148 18.059C21.6148 14.759 25.4954 12.1459 29.9565 10.2197C34.4176 8.29587 39.1843 7.33398 44.2565 7.33398C49.3287 7.33398 54.0954 8.29587 58.5565 10.2197C63.0176 12.1459 66.8982 14.759 70.1982 18.059C73.4982 21.359 76.1101 25.2395 78.0338 29.7007C79.9601 34.1618 80.9232 38.9284 80.9232 44.0006C80.9232 49.0729 79.9601 53.8395 78.0338 58.3006C76.1101 62.7618 73.4982 66.6423 70.1982 69.9423C66.8982 73.2423 63.0176 75.8542 58.5565 77.778C54.0954 79.7042 49.3287 80.6673 44.2565 80.6673Z" fill="#FF6A6A"/>
</g>
</svg>
