<svg width="24" height="25" viewBox="0 0 24 25" fill="none" xmlns="http://www.w3.org/2000/svg">
<path fill-rule="evenodd" clip-rule="evenodd" d="M3.00049 17.6381V10.0251H21.0005V17.6991C21.0005 20.8381 19.0246 22.7681 15.8633 22.7681H8.12782C4.9961 22.7681 3.00049 20.7981 3.00049 17.6381ZM7.95987 15.1781C7.50543 15.1991 7.13002 14.8381 7.11026 14.3791C7.11026 13.9191 7.46591 13.5391 7.92036 13.5181C8.36492 13.5181 8.73046 13.8691 8.74034 14.3181C8.76009 14.7791 8.40444 15.1591 7.95987 15.1781ZM12.0203 15.1781C11.5658 15.1991 11.1904 14.8381 11.1706 14.3791C11.1706 13.9191 11.5263 13.5391 11.9807 13.5181C12.4253 13.5181 12.7908 13.8691 12.8007 14.3181C12.8205 14.7791 12.4648 15.1591 12.0203 15.1781ZM16.051 18.8581C15.5965 18.8481 15.231 18.4681 15.231 18.0081C15.2211 17.5481 15.5867 17.1691 16.0411 17.1591H16.051C16.5153 17.1591 16.8907 17.5391 16.8907 18.0081C16.8907 18.4781 16.5153 18.8581 16.051 18.8581ZM11.1706 18.0081C11.1904 18.4681 11.5658 18.8291 12.0203 18.8081C12.4648 18.7891 12.8205 18.4091 12.8007 17.9491C12.7908 17.4991 12.4253 17.1481 11.9807 17.1481C11.5263 17.1691 11.1706 17.5481 11.1706 18.0081ZM7.10038 18.0081C7.12014 18.4681 7.49555 18.8291 7.95 18.8081C8.39456 18.7891 8.75022 18.4091 8.73046 17.9491C8.72058 17.4991 8.35505 17.1481 7.91048 17.1481C7.45603 17.1691 7.10038 17.5481 7.10038 18.0081ZM15.2409 14.3691C15.2409 13.9091 15.5965 13.5391 16.051 13.5291C16.4956 13.5291 16.8512 13.8881 16.871 14.3291C16.8809 14.7891 16.5252 15.1691 16.0806 15.1781C15.6262 15.1881 15.2508 14.8381 15.2409 14.3791V14.3691Z" fill="#242526"/>
<path opacity="0.4" d="M3.00342 10.0253C3.01626 9.4383 3.06566 8.2733 3.15852 7.8983C3.63273 5.7893 5.24304 4.4493 7.54491 4.2583H16.456C18.7381 4.4593 20.3682 5.8083 20.8424 7.8983C20.9343 8.2633 20.9837 9.4373 20.9965 10.0253H3.00342Z" fill="#242526"/>
<path d="M8.30513 7.35855C8.73982 7.35855 9.06583 7.02955 9.06583 6.58855V3.53955C9.06583 3.09855 8.73982 2.76855 8.30513 2.76855C7.87044 2.76855 7.54443 3.09855 7.54443 3.53955V6.58855C7.54443 7.02955 7.87044 7.35855 8.30513 7.35855Z" fill="#242526"/>
<path d="M15.6958 7.35855C16.1206 7.35855 16.4565 7.02955 16.4565 6.58855V3.53955C16.4565 3.09855 16.1206 2.76855 15.6958 2.76855C15.2612 2.76855 14.9351 3.09855 14.9351 3.53955V6.58855C14.9351 7.02955 15.2612 7.35855 15.6958 7.35855Z" fill="#242526"/>
</svg>
