<svg width="24" height="25" viewBox="0 0 24 25" fill="none" xmlns="http://www.w3.org/2000/svg">
<g id="vuesax/bold/security-user">
<g id="security-user">
<path id="Vector" d="M12 2.77612C12.4453 2.77612 12.8715 2.83189 13.2002 2.9314L13.335 2.97729L18.3242 4.84644L18.3252 4.84741C18.7855 5.01959 19.2329 5.39168 19.5693 5.87378C19.8635 6.29543 20.0509 6.76913 20.0986 7.20972L20.1104 7.39722V14.8191C20.1102 15.3097 19.9439 15.9143 19.6543 16.49C19.4008 16.9939 19.0723 17.4368 18.7285 17.738L18.5811 17.8582L14.2812 21.0681L14.2793 21.0691C13.6763 21.5223 12.8546 21.7634 12.0098 21.7634C11.2706 21.7634 10.5493 21.5791 9.97656 21.2292L9.74023 21.0691L9.73926 21.0681L5.43945 17.8582C5.04311 17.5619 4.65484 17.0657 4.36523 16.49C4.07573 15.9143 3.91026 15.3096 3.91016 14.8191V7.38843C3.91021 6.90077 4.10101 6.3529 4.43457 5.87183C4.72649 5.45087 5.10537 5.11372 5.50391 4.92065L5.6748 4.84741L5.67578 4.84644L10.666 2.97729L10.665 2.97632C11.007 2.84863 11.491 2.77614 12 2.77612ZM12.0049 12.5789C11.2431 12.5789 10.4615 12.7451 9.80664 13.0984L9.53418 13.2615L9.5332 13.2625C8.85585 13.714 8.41992 14.3969 8.41992 15.1589V15.1677C8.43342 15.9304 8.85244 16.5884 9.52832 17.0408V17.0417C10.2305 17.5214 11.1354 17.739 12 17.739C12.7629 17.739 13.5389 17.562 14.1924 17.2087L14.4639 17.0466L14.4678 17.0447C15.1036 16.6207 15.522 15.9968 15.583 15.2986L15.5898 15.158V15.1482C15.5897 14.4689 15.2536 13.8777 14.7188 13.4402L14.4775 13.2625L14.4756 13.2615L14.2031 13.0984C13.5483 12.7452 12.7666 12.5789 12.0049 12.5789ZM11.9297 6.79858C10.5735 6.79882 9.44669 7.84062 9.32129 9.17261L9.31055 9.43823C9.31055 10.8741 10.4303 12.0193 11.8936 12.0681L11.9014 12.0691H12.0186L12.0273 12.0681C13.4443 12.0188 14.5703 10.8699 14.5703 9.43823C14.5701 7.98227 13.3857 6.79858 11.9297 6.79858Z" fill="#18181B" stroke="#18181B"/>
</g>
</g>
</svg>
