<svg width="25" height="24" viewBox="0 0 25 24" fill="none" xmlns="http://www.w3.org/2000/svg">
<path fill-rule="evenodd" clip-rule="evenodd" d="M12.4961 21C13.678 21 14.8483 20.7672 15.9402 20.3149C17.0322 19.8626 18.0243 19.1997 18.8601 18.364C19.6958 17.5282 20.3587 16.5361 20.811 15.4442C21.2633 14.3522 21.4961 13.1819 21.4961 12C21.4961 10.8181 21.2633 9.64778 20.811 8.55585C20.3587 7.46392 19.6958 6.47177 18.8601 5.63604C18.0243 4.80031 17.0322 4.13738 15.9402 3.68508C14.8483 3.23279 13.678 3 12.4961 3C10.1091 3 7.81996 3.94821 6.13213 5.63604C4.44431 7.32387 3.49609 9.61305 3.49609 12C3.49609 14.3869 4.44431 16.6761 6.13213 18.364C7.81996 20.0518 10.1091 21 12.4961 21ZM12.2641 15.64L17.2641 9.64L15.7281 8.36L11.4281 13.519L9.20309 11.293L7.78909 12.707L10.7891 15.707L11.5631 16.481L12.2641 15.64Z" fill="white"/>
</svg>
