<svg width="60" height="47" viewBox="0 0 60 47" fill="none" xmlns="http://www.w3.org/2000/svg">
<rect x="0.504883" width="58.628" height="47" rx="11.5169" fill="#4545FE"/>
<g clip-path="url(#clip0_14666_72667)">
<path d="M36.2352 17.0832C35.7528 16.594 35.0495 16.3935 34.3817 16.5547L25.465 18.4287C23.7716 18.6793 22.6021 20.2551 22.8526 21.9484C22.9501 22.6067 23.2568 23.2162 23.7274 23.6867L24.6834 24.6432C24.7281 24.6874 24.7531 24.7478 24.7528 24.8106V26.5744C24.7541 27.6716 25.6432 28.5608 26.7405 28.5621H28.5042C28.5672 28.5621 28.6276 28.5871 28.6722 28.6315L29.6282 29.5874C30.2062 30.1693 30.9923 30.4967 31.8124 30.4973C32.151 30.497 32.4872 30.4417 32.808 30.3334C33.915 29.9658 34.7195 29.0044 34.8862 27.8499L36.7601 18.9612C36.9285 18.2864 36.729 17.5729 36.2352 17.0832ZM24.6397 21.0644C24.7982 20.5747 25.2259 20.221 25.7368 20.1575C25.7574 20.1547 25.7778 20.1512 25.798 20.147L33.568 18.5139L26.5026 25.5752V24.8106C26.5039 24.2831 26.2938 23.7771 25.9193 23.4056L24.9645 22.4496C24.5968 22.0899 24.4702 21.5501 24.6397 21.0644ZM33.1679 27.5198C33.1633 27.5402 33.1604 27.5606 33.1574 27.5811C33.0561 28.3199 32.3751 28.8367 31.6363 28.7354C31.3444 28.6953 31.0736 28.561 30.8653 28.3527L29.9099 27.3973C29.5382 27.0228 29.032 26.8127 28.5043 26.8141H27.7396L34.8034 19.7486L33.1679 27.5198Z" fill="white"/>
</g>
<defs>
<clipPath id="clip0_14666_72667">
<rect width="14" height="14" fill="white" transform="translate(22.8188 16.5)"/>
</clipPath>
</defs>
</svg>
