<svg width="24" height="24" viewBox="0 0 24 24" fill="none" xmlns="http://www.w3.org/2000/svg">
<g clip-path="url(#clip0_15510_46897)">
<path d="M22.9995 1.00262C22.1726 0.164143 20.9667 -0.179635 19.822 0.0967468L4.5362 3.30928C1.63337 3.73883 -0.371604 6.44027 0.0579438 9.34305C0.224935 10.4716 0.75075 11.5164 1.55759 12.323L3.19633 13.9628C3.27306 14.0385 3.31594 14.1419 3.31533 14.2497V17.2733C3.31754 19.1543 4.84183 20.6786 6.72284 20.6808H9.7464C9.85434 20.6808 9.95792 20.7236 10.0344 20.7998L11.6731 22.4385C12.664 23.436 14.0116 23.9973 15.4176 23.9983C15.9979 23.9979 16.5744 23.9029 17.1243 23.7173C19.022 23.0871 20.4011 21.4391 20.6868 19.46L23.8993 4.22218C24.188 3.06538 23.8461 1.84212 22.9995 1.00262ZM3.12139 7.82761C3.39313 6.98806 4.12643 6.38182 5.00212 6.27285C5.03746 6.26817 5.07242 6.26217 5.1071 6.25486L18.4272 3.45528L6.31495 15.5605V14.2497C6.31715 13.3454 5.95701 12.4779 5.31511 11.841L3.67833 10.2023C3.0479 9.58569 2.83081 8.66023 3.12139 7.82761ZM17.7413 18.894C17.7333 18.9291 17.7283 18.964 17.7233 18.999C17.5496 20.2656 16.3822 21.1515 15.1157 20.9779C14.6153 20.9092 14.1511 20.6789 13.7938 20.3218L12.1561 18.6841C11.5189 18.042 10.6511 17.6819 9.74645 17.6842H8.43564L20.5449 5.57199L17.7413 18.894Z" fill="white"/>
</g>
<defs>
<clipPath id="clip0_15510_46897">
<rect width="24" height="24" fill="white"/>
</clipPath>
</defs>
</svg>
