<svg width="61" height="42" viewBox="0 0 61 42" fill="none" xmlns="http://www.w3.org/2000/svg">
<rect width="61" height="42" rx="16" fill="#4545FE"/>
<g clipPath="url(#clip0_12215_72145)">
<path d="M36.333 13.4829C35.7817 12.9239 34.9778 12.6947 34.2147 12.879L24.0241 15.0206C22.0889 15.307 20.7523 17.108 21.0386 19.0432C21.15 19.7955 21.5005 20.4921 22.0384 21.0298L23.1309 22.123C23.182 22.1734 23.2106 22.2424 23.2102 22.3143V24.33C23.2117 25.584 24.2279 26.6002 25.4819 26.6017H27.4976C27.5696 26.6017 27.6386 26.6302 27.6896 26.681L28.7821 27.7735C29.4427 28.4385 30.3411 28.8127 31.2784 28.8133C31.6653 28.813 32.0496 28.7498 32.4162 28.626C33.6814 28.2059 34.6007 27.1072 34.7912 25.7878L36.9329 15.6292C37.1253 14.858 36.8974 14.0425 36.333 13.4829ZM23.0809 18.0329C23.2621 17.4732 23.751 17.069 24.3347 16.9964C24.3583 16.9932 24.3816 16.9892 24.4047 16.9844L33.2848 15.118L25.21 23.1881V22.3142C25.2114 21.7114 24.9713 21.1331 24.5434 20.7085L23.4522 19.616C23.0319 19.2049 22.8872 18.5879 23.0809 18.0329ZM32.8275 25.4105C32.8222 25.4338 32.8189 25.4571 32.8155 25.4805C32.6998 26.3248 31.9215 26.9155 31.0771 26.7997C30.7435 26.7539 30.4341 26.6004 30.1959 26.3623L29.1041 25.2705C28.6792 24.8424 28.1007 24.6024 27.4976 24.6039H26.6238L34.6966 16.5291L32.8275 25.4105Z" fill="white"/>
</g>
<defs>
<clipPath id="clip0_12215_72145">
<rect width="16" height="16" fill="white" transform="translate(21 12.8145)"/>
</clipPath>
</defs>
</svg>
