<svg width="41" height="39" viewBox="0 0 41 39" fill="none" xmlns="http://www.w3.org/2000/svg">
<rect x="0.0888672" width="40.9108" height="39" rx="10.7307" fill="#4545FE"/>
<g clip-path="url(#clip0_14842_29183)">
<path d="M27.5892 12.4816C27.1069 11.9925 26.4035 11.7919 25.7357 11.9532L16.819 13.8271C15.1257 14.0777 13.9561 15.6536 14.2067 17.3468C14.3041 18.0052 14.6108 18.6146 15.0814 19.0851L16.0374 20.0417C16.0821 20.0858 16.1072 20.1462 16.1068 20.2091V21.9728C16.1081 23.0701 16.9973 23.9592 18.0945 23.9605H19.8583C19.9212 23.9605 19.9816 23.9855 20.0262 24.0299L20.9822 24.9859C21.5602 25.5677 22.3463 25.8952 23.1664 25.8958C23.505 25.8955 23.8413 25.8401 24.162 25.7318C25.269 25.3642 26.0735 24.4029 26.2402 23.2484L28.1141 14.3597C28.2825 13.6849 28.083 12.9713 27.5892 12.4816ZM15.9937 16.4628C16.1522 15.9731 16.5799 15.6195 17.0908 15.5559C17.1114 15.5532 17.1318 15.5497 17.152 15.5454L24.922 13.9123L17.8566 20.9737V20.209C17.8579 19.6816 17.6478 19.1755 17.2733 18.804L16.3185 17.8481C15.9508 17.4884 15.8242 16.9485 15.9937 16.4628ZM24.5219 22.9183C24.5173 22.9387 24.5144 22.9591 24.5114 22.9795C24.4101 23.7183 23.7291 24.2351 22.9903 24.1338C22.6984 24.0938 22.4276 23.9594 22.2193 23.7511L21.2639 22.7958C20.8922 22.4212 20.386 22.2112 19.8583 22.2125H19.0936L26.1574 15.1471L24.5219 22.9183Z" fill="white"/>
</g>
<defs>
<clipPath id="clip0_14842_29183">
<rect width="14" height="14" fill="white" transform="translate(14.1729 11.8984)"/>
</clipPath>
</defs>
</svg>
