<svg width="27" height="28" viewBox="0 0 27 28" fill="none" xmlns="http://www.w3.org/2000/svg">
<path fill-rule="evenodd" clip-rule="evenodd" d="M24.6935 16.1069C25.1704 16.3602 25.5384 16.7602 25.7972 17.1602C26.3013 17.9869 26.2605 19.0002 25.77 19.8935L24.8161 21.4935C24.312 22.3469 23.3717 22.8802 22.4044 22.8802C21.9275 22.8802 21.396 22.7469 20.96 22.4802C20.6057 22.2535 20.1969 22.1735 19.7609 22.1735C18.4119 22.1735 17.2809 23.2802 17.24 24.6002C17.24 26.1335 15.9864 27.3335 14.4195 27.3335H12.5663C10.9856 27.3335 9.73207 26.1335 9.73207 24.6002C9.70482 23.2802 8.57385 22.1735 7.22487 22.1735C6.77521 22.1735 6.36642 22.2535 6.02577 22.4802C5.58974 22.7469 5.04469 22.8802 4.58141 22.8802C3.60033 22.8802 2.66013 22.3469 2.15595 21.4935L1.21575 19.8935C0.711593 19.0269 0.68434 17.9869 1.1885 17.1602C1.40653 16.7602 1.8153 16.3602 2.27859 16.1069C2.66013 15.9202 2.90539 15.6135 3.13703 15.2535C3.81834 14.1069 3.40955 12.6002 2.25134 11.9202C0.902353 11.1602 0.466327 9.46687 1.24301 8.14687L2.15595 6.57354C2.94627 5.25354 4.63591 4.78687 5.99851 5.5602C7.18399 6.2002 8.72374 5.77354 9.41867 4.6402C9.63669 4.26687 9.75933 3.86687 9.73207 3.46687C9.70482 2.94687 9.8547 2.45354 10.1136 2.05354C10.6178 1.22687 11.5307 0.693537 12.5255 0.66687H14.4467C15.4551 0.66687 16.368 1.22687 16.8721 2.05354C17.1175 2.45354 17.2809 2.94687 17.24 3.46687C17.2128 3.86687 17.3355 4.26687 17.5535 4.6402C18.2484 5.77354 19.7881 6.2002 20.9872 5.5602C22.3363 4.78687 24.0395 5.25354 24.8161 6.57354L25.7291 8.14687C26.5195 9.46687 26.0833 11.1602 24.7208 11.9202C23.5625 12.6002 23.1537 14.1069 23.8487 15.2535C24.0667 15.6135 24.312 15.9202 24.6935 16.1069ZM9.63669 14.0135C9.63669 16.1069 11.3672 17.7735 13.5065 17.7735C15.6457 17.7735 17.3355 16.1069 17.3355 14.0135C17.3355 11.9202 15.6457 10.2402 13.5065 10.2402C11.3672 10.2402 9.63669 11.9202 9.63669 14.0135Z" fill="#606060"/>
</svg>
