<svg width="46" height="52" viewBox="0 0 46 52" fill="none" xmlns="http://www.w3.org/2000/svg">
<path opacity="0.4" d="M41.1575 18.2766C39.9535 18.2766 38.3586 18.2508 36.373 18.2508C31.5305 18.2508 27.5488 14.3713 27.5488 9.64007V1.33905C27.5488 0.686016 27.0075 0.154297 26.3421 0.154297H12.237C5.65443 0.154297 0.333984 5.38373 0.333984 11.7928V39.6048C0.333984 46.3287 5.90791 51.7775 12.7862 51.7775H33.7881C40.3495 51.7775 45.6673 46.5817 45.6673 40.1675V19.4382C45.6673 18.7825 45.1287 18.2534 44.458 18.256C43.3332 18.2637 41.9787 18.2766 41.1575 18.2766" fill="#12D8A0"/>
<path opacity="0.4" d="M33.8925 1.61838C33.0951 0.815638 31.7031 1.36801 31.7031 2.48049V9.28701C31.7031 12.1418 34.1325 14.4906 37.0791 14.4906C38.9405 14.5113 41.5218 14.5164 43.7138 14.5113C44.8365 14.5087 45.4071 13.2104 44.6285 12.4257C41.8151 9.59417 36.7778 4.51961 33.8925 1.61838" fill="#12D8A0"/>
<path d="M29.3125 26.5759H24.7045V22.1183C24.7045 21.0574 23.8165 20.1953 22.7205 20.1953C21.6245 20.1953 20.7339 21.0574 20.7339 22.1183V26.5759H16.1285C15.0325 26.5759 14.1445 27.4381 14.1445 28.4989C14.1445 29.5598 15.0325 30.4219 16.1285 30.4219H20.7339V34.877C20.7339 35.9378 21.6245 36.7999 22.7205 36.7999C23.8165 36.7999 24.7045 35.9378 24.7045 34.877V30.4219H29.3125C30.4085 30.4219 31.2992 29.5598 31.2992 28.4989C31.2992 27.4381 30.4085 26.5759 29.3125 26.5759" fill="#12D8A0"/>
</svg>
