<svg width="36" height="36" viewBox="0 0 36 36" fill="none" xmlns="http://www.w3.org/2000/svg">
<path fill-rule="evenodd" clip-rule="evenodd" d="M24.75 23.625C24.0262 23.6249 23.3151 23.8153 22.6881 24.1771C22.0611 24.5388 21.5404 25.0591 21.1782 25.6858C20.816 26.3125 20.6251 27.0235 20.6246 27.7473C20.6241 28.4711 20.8141 29.1823 21.1755 29.8095L26.8095 24.1755C26.1835 23.8137 25.473 23.6238 24.75 23.625ZM28.38 25.788L22.788 31.38C23.5696 31.8035 24.4671 31.9632 25.3468 31.8353C26.2266 31.7073 27.0414 31.2986 27.67 30.67C28.2986 30.0414 28.7073 29.2266 28.8353 28.3468C28.9632 27.4671 28.8035 26.5696 28.38 25.788ZM18.375 27.75C18.375 26.9128 18.5399 26.0838 18.8603 25.3104C19.1806 24.5369 19.6502 23.8342 20.2422 23.2422C20.8342 22.6502 21.5369 22.1806 22.3104 21.8603C23.0838 21.5399 23.9128 21.375 24.75 21.375C25.5872 21.375 26.4162 21.5399 27.1896 21.8603C27.9631 22.1806 28.6658 22.6502 29.2578 23.2422C29.8498 23.8342 30.3194 24.5369 30.6397 25.3104C30.9601 26.0838 31.125 26.9128 31.125 27.75C31.125 29.4408 30.4533 31.0623 29.2578 32.2578C28.0623 33.4533 26.4408 34.125 24.75 34.125C23.0592 34.125 21.4377 33.4533 20.2422 32.2578C19.0466 31.0623 18.375 29.4408 18.375 27.75Z" fill="#FF6A6A"/>
<path d="M24 9C24 10.5913 23.3679 12.1174 22.2426 13.2426C21.1174 14.3679 19.5913 15 18 15C16.4087 15 14.8826 14.3679 13.7574 13.2426C12.6321 12.1174 12 10.5913 12 9C12 7.4087 12.6321 5.88258 13.7574 4.75736C14.8826 3.63214 16.4087 3 18 3C19.5913 3 21.1174 3.63214 22.2426 4.75736C23.3679 5.88258 24 7.4087 24 9ZM21.4425 19.782C20.2213 20.2895 19.1332 21.0708 18.2621 22.0658C17.3909 23.0607 16.7602 24.2425 16.4185 25.52C16.0768 26.7975 16.0333 28.1364 16.2914 29.4334C16.5495 30.7304 17.1023 31.9507 17.907 33C6 32.985 6 29.9685 6 26.25C6 22.5225 11.373 19.5 18 19.5C19.197 19.5 20.352 19.599 21.4425 19.782Z" fill="#FF6A6A"/>
</svg>
