<svg width="36" height="37" viewBox="0 0 36 37" fill="none" xmlns="http://www.w3.org/2000/svg">
<path fill-rule="evenodd" clip-rule="evenodd" d="M24.75 24.2998C24.0262 24.2997 23.3151 24.4901 22.6881 24.8519C22.0611 25.2136 21.5404 25.7339 21.1782 26.3606C20.816 26.9873 20.6251 27.6983 20.6246 28.4221C20.6241 29.1459 20.8141 29.8571 21.1755 30.4843L26.8095 24.8503C26.1835 24.4885 25.473 24.2986 24.75 24.2998ZM28.38 26.4628L22.788 32.0548C23.5696 32.4783 24.4671 32.638 25.3468 32.5101C26.2266 32.3822 27.0414 31.9734 27.67 31.3448C28.2986 30.7162 28.7073 29.9014 28.8353 29.0217C28.9632 28.1419 28.8035 27.2444 28.38 26.4628ZM18.375 28.4248C18.375 27.5876 18.5399 26.7586 18.8603 25.9852C19.1806 25.2117 19.6502 24.509 20.2422 23.917C20.8342 23.325 21.5369 22.8554 22.3104 22.5351C23.0838 22.2147 23.9128 22.0498 24.75 22.0498C25.5872 22.0498 26.4162 22.2147 27.1896 22.5351C27.9631 22.8554 28.6658 23.325 29.2578 23.917C29.8498 24.509 30.3194 25.2117 30.6397 25.9852C30.9601 26.7586 31.125 27.5876 31.125 28.4248C31.125 30.1156 30.4533 31.7371 29.2578 32.9326C28.0623 34.1282 26.4408 34.7998 24.75 34.7998C23.0592 34.7998 21.4377 34.1282 20.2422 32.9326C19.0466 31.7371 18.375 30.1156 18.375 28.4248Z" fill="#191919"/>
<path d="M24 9.6748C24 11.2661 23.3679 12.7922 22.2426 13.9174C21.1174 15.0427 19.5913 15.6748 18 15.6748C16.4087 15.6748 14.8826 15.0427 13.7574 13.9174C12.6321 12.7922 12 11.2661 12 9.6748C12 8.08351 12.6321 6.55738 13.7574 5.43216C14.8826 4.30695 16.4087 3.6748 18 3.6748C19.5913 3.6748 21.1174 4.30695 22.2426 5.43216C23.3679 6.55738 24 8.08351 24 9.6748ZM21.4425 20.4568C20.2213 20.9643 19.1332 21.7456 18.2621 22.7406C17.3909 23.7355 16.7602 24.9173 16.4185 26.1948C16.0768 27.4723 16.0333 28.8113 16.2914 30.1082C16.5495 31.4052 17.1023 32.6255 17.907 33.6748C6 33.6598 6 30.6433 6 26.9248C6 23.1973 11.373 20.1748 18 20.1748C19.197 20.1748 20.352 20.2738 21.4425 20.4568Z" fill="#191919"/>
</svg>
