<svg width="5" height="12" viewBox="0 0 5 12" fill="none" xmlns="http://www.w3.org/2000/svg">
<path id="Vector" d="M3.82067 8.8008L2.76429 9.8558V1.23795L3.82067 2.29295C3.86347 2.33573 3.91428 2.36965 3.97019 2.39279C4.02611 2.41592 4.08603 2.42782 4.14654 2.4278C4.20706 2.42778 4.26697 2.41584 4.32287 2.39266C4.37877 2.36949 4.42955 2.33553 4.47233 2.29272C4.5151 2.24992 4.54902 2.19911 4.57216 2.14319C4.5953 2.08728 4.6072 2.02736 4.60717 1.96684C4.60715 1.90633 4.59521 1.84642 4.57204 1.79052C4.54886 1.73462 4.5149 1.68384 4.4721 1.64106L3.28027 0.451075C3.02112 0.192253 2.66984 0.046875 2.30359 0.046875C1.93733 0.046875 1.58605 0.192253 1.32691 0.451075L0.135078 1.64106C0.0922744 1.68384 0.0583147 1.73462 0.035138 1.79052C0.0119613 1.84642 2.14196e-05 1.90633 2.87933e-08 1.96684C-2.1362e-05 2.02736 0.011876 2.08728 0.0350132 2.14319C0.0581504 2.19911 0.092074 2.24992 0.134847 2.29272C0.177621 2.33553 0.228406 2.36949 0.284304 2.39266C0.340202 2.41584 0.400117 2.42778 0.460629 2.4278C0.521141 2.42782 0.581065 2.41592 0.636979 2.39279C0.692893 2.36965 0.743702 2.33573 0.786506 2.29295L1.84289 1.23795V9.8558L0.786506 8.8008C0.743702 8.75802 0.692893 8.7241 0.636979 8.70096C0.581065 8.67783 0.521141 8.66593 0.460629 8.66595C0.400117 8.66597 0.340202 8.67791 0.284304 8.70109C0.228406 8.72427 0.177621 8.75822 0.134847 8.80103C0.092074 8.84383 0.0581504 8.89464 0.0350132 8.95055C0.011876 9.00647 -2.13618e-05 9.06639 2.87933e-08 9.12691C2.14193e-05 9.18742 0.0119613 9.24733 0.035138 9.30323C0.0583147 9.35913 0.0922744 9.40991 0.135078 9.45269L1.32691 10.6427C1.58605 10.9015 1.93733 11.0469 2.30359 11.0469C2.66984 11.0469 3.02112 10.9015 3.28027 10.6427L4.4721 9.45269C4.5149 9.40991 4.54886 9.35913 4.57204 9.30323C4.59521 9.24733 4.60715 9.18742 4.60717 9.12691C4.6072 9.06639 4.5953 9.00647 4.57216 8.95055C4.54902 8.89464 4.5151 8.84383 4.47233 8.80103C4.42955 8.75822 4.37877 8.72427 4.32287 8.70109C4.26697 8.67791 4.20706 8.66597 4.14654 8.66595C4.08603 8.66593 4.02611 8.67783 3.97019 8.70096C3.91428 8.7241 3.86347 8.75802 3.82067 8.8008Z" fill="#191919"/>
</svg>
