<svg width="5" height="11" viewBox="0 0 5 11" fill="none" xmlns="http://www.w3.org/2000/svg">
<path id="Vector" d="M4.20338 8.37829L3.29391 9.28657V1.86723L4.20338 2.77551C4.24023 2.81233 4.28397 2.84154 4.33211 2.86146C4.38025 2.88138 4.43184 2.89162 4.48394 2.8916C4.53603 2.89158 4.58761 2.8813 4.63574 2.86135C4.68386 2.8414 4.72759 2.81216 4.76441 2.77531C4.80123 2.73846 4.83044 2.69471 4.85036 2.64658C4.87028 2.59844 4.88052 2.54685 4.8805 2.49475C4.88049 2.44265 4.87021 2.39107 4.85025 2.34295C4.8303 2.29482 4.80106 2.2511 4.76421 2.21428L3.73813 1.18978C3.51503 0.966956 3.2126 0.841797 2.89728 0.841797C2.58196 0.841797 2.27954 0.966956 2.05643 1.18978L1.03035 2.21428C0.993504 2.2511 0.964267 2.29482 0.944314 2.34295C0.92436 2.39107 0.914081 2.44265 0.914063 2.49475C0.914044 2.54685 0.924287 2.59844 0.944206 2.64658C0.964126 2.69471 0.993331 2.73846 1.03016 2.77531C1.06698 2.81216 1.1107 2.8414 1.15883 2.86135C1.20695 2.8813 1.25853 2.89158 1.31063 2.8916C1.36273 2.89162 1.41432 2.88138 1.46245 2.86146C1.51059 2.84154 1.55434 2.81233 1.59119 2.77551L2.50066 1.86723V9.28657L1.59119 8.37829C1.55434 8.34146 1.51059 8.31226 1.46245 8.29234C1.41432 8.27242 1.36273 8.26217 1.31063 8.26219C1.25853 8.26221 1.20695 8.27249 1.15883 8.29244C1.1107 8.3124 1.06698 8.34163 1.03016 8.37848C0.993331 8.41534 0.964126 8.45908 0.944206 8.50722C0.924287 8.55535 0.914044 8.60694 0.914063 8.65904C0.914081 8.71114 0.92436 8.76272 0.944314 8.81084C0.964267 8.85897 0.993504 8.90269 1.03035 8.93952L2.05643 9.96401C2.27954 10.1868 2.58196 10.312 2.89728 10.312C3.2126 10.312 3.51503 10.1868 3.73813 9.96401L4.76421 8.93952C4.80106 8.90269 4.8303 8.85897 4.85025 8.81084C4.87021 8.76272 4.88049 8.71114 4.8805 8.65904C4.88052 8.60694 4.87028 8.55535 4.85036 8.50722C4.83044 8.45908 4.80123 8.41534 4.76441 8.37848C4.72759 8.34163 4.68386 8.3124 4.63574 8.29244C4.58761 8.27249 4.53603 8.26221 4.48394 8.26219C4.43184 8.26217 4.38025 8.27242 4.33211 8.29234C4.28397 8.31226 4.24023 8.34146 4.20338 8.37829Z" fill="#191919"/>
</svg>
