<svg width="36" height="36" viewBox="0 0 36 36" fill="none" xmlns="http://www.w3.org/2000/svg">
<g clip-path="url(#clip0_11747_67143)">
<path d="M14.6667 10H12.6667C11.9594 10 11.2811 10.281 10.781 10.781C10.281 11.2811 10 11.9594 10 12.6667V14.6667C10 15.3739 10.281 16.0522 10.781 16.5523C11.2811 17.0524 11.9594 17.3333 12.6667 17.3333H14.6667C15.3739 17.3333 16.0522 17.0524 16.5523 16.5523C17.0524 16.0522 17.3333 15.3739 17.3333 14.6667V12.6667C17.3333 11.9594 17.0524 11.2811 16.5523 10.781C16.0522 10.281 15.3739 10 14.6667 10V10ZM16 14.6667C16 15.0203 15.8595 15.3594 15.6095 15.6095C15.3594 15.8595 15.0203 16 14.6667 16H12.6667C12.313 16 11.9739 15.8595 11.7239 15.6095C11.4738 15.3594 11.3333 15.0203 11.3333 14.6667V12.6667C11.3333 12.313 11.4738 11.9739 11.7239 11.7239C11.9739 11.4738 12.313 11.3333 12.6667 11.3333H14.6667C15.0203 11.3333 15.3594 11.4738 15.6095 11.7239C15.8595 11.9739 16 12.313 16 12.6667V14.6667Z" fill="#3D3D3D"/>
<path d="M14.6667 18.667H12.6667C11.9594 18.667 11.2811 18.9479 10.781 19.448C10.281 19.9481 10 20.6264 10 21.3337V23.3337C10 24.0409 10.281 24.7192 10.781 25.2193C11.2811 25.7194 11.9594 26.0003 12.6667 26.0003H14.6667C15.3739 26.0003 16.0522 25.7194 16.5523 25.2193C17.0524 24.7192 17.3333 24.0409 17.3333 23.3337V21.3337C17.3333 20.6264 17.0524 19.9481 16.5523 19.448C16.0522 18.9479 15.3739 18.667 14.6667 18.667ZM16 23.3337C16 23.6873 15.8595 24.0264 15.6095 24.2765C15.3594 24.5265 15.0203 24.667 14.6667 24.667H12.6667C12.313 24.667 11.9739 24.5265 11.7239 24.2765C11.4738 24.0264 11.3333 23.6873 11.3333 23.3337V21.3337C11.3333 20.98 11.4738 20.6409 11.7239 20.3909C11.9739 20.1408 12.313 20.0003 12.6667 20.0003H14.6667C15.0203 20.0003 15.3594 20.1408 15.6095 20.3909C15.8595 20.6409 16 20.98 16 21.3337V23.3337Z" fill="#3D3D3D"/>
<path d="M24.8618 22.6998L23.3331 24.2265V11.7558L24.8618 13.2825C24.9237 13.3444 24.9973 13.3935 25.0782 13.4269C25.1591 13.4604 25.2458 13.4776 25.3334 13.4776C25.4209 13.4776 25.5076 13.4603 25.5885 13.4268C25.6694 13.3932 25.7429 13.3441 25.8048 13.2821C25.8667 13.2202 25.9158 13.1467 25.9493 13.0658C25.9827 12.9848 26 12.8981 25.9999 12.8106C25.9999 12.723 25.9826 12.6363 25.9491 12.5554C25.9155 12.4745 25.8664 12.401 25.8045 12.3391L24.0798 10.6171C23.7048 10.2426 23.1965 10.0322 22.6665 10.0322C22.1365 10.0322 21.6281 10.2426 21.2531 10.6171L19.5285 12.3391C19.4665 12.401 19.4174 12.4745 19.3839 12.5554C19.3503 12.6363 19.333 12.723 19.333 12.8106C19.333 12.8981 19.3502 12.9848 19.3837 13.0658C19.4172 13.1467 19.4662 13.2202 19.5281 13.2821C19.59 13.3441 19.6635 13.3932 19.7444 13.4268C19.8253 13.4603 19.912 13.4776 19.9996 13.4776C20.0871 13.4776 20.1739 13.4604 20.2548 13.4269C20.3357 13.3935 20.4092 13.3444 20.4711 13.2825L21.9998 11.7558V24.2265L20.4711 22.6998C20.4092 22.6379 20.3357 22.5888 20.2548 22.5553C20.1739 22.5219 20.0871 22.5046 19.9996 22.5047C19.912 22.5047 19.8253 22.522 19.7444 22.5555C19.6635 22.5891 19.59 22.6382 19.5281 22.7001C19.4662 22.7621 19.4172 22.8356 19.3837 22.9165C19.3502 22.9974 19.333 23.0841 19.333 23.1717C19.333 23.2593 19.3503 23.346 19.3839 23.4269C19.4174 23.5078 19.4665 23.5812 19.5285 23.6431L21.2531 25.3651C21.6281 25.7397 22.1365 25.95 22.6665 25.95C23.1965 25.95 23.7048 25.7397 24.0798 25.3651L25.8045 23.6431C25.8664 23.5812 25.9155 23.5078 25.9491 23.4269C25.9826 23.346 25.9999 23.2593 25.9999 23.1717C26 23.0841 25.9827 22.9974 25.9493 22.9165C25.9158 22.8356 25.8667 22.7621 25.8048 22.7001C25.7429 22.6382 25.6694 22.5891 25.5885 22.5555C25.5076 22.522 25.4209 22.5047 25.3334 22.5047C25.2458 22.5046 25.1591 22.5219 25.0782 22.5553C24.9973 22.5888 24.9237 22.6379 24.8618 22.6998Z" fill="#3D3D3D"/>
</g>
<rect x="0.33815" y="0.33815" width="35.3237" height="35.3237" rx="7.77746" stroke="#3D3D3D" stroke-width="0.676301"/>
<defs>
<clipPath id="clip0_11747_67143">
<rect width="16" height="16" fill="white" transform="translate(10 10)"/>
</clipPath>
</defs>
</svg>
