<svg xmlns="http://www.w3.org/2000/svg" width="28" height="28" viewBox="0 0 28 28" fill="none">
<path d="M21.5827 23.334C21.5827 23.4887 21.5212 23.6371 21.4118 23.7465C21.3024 23.8559 21.1541 23.9173 20.9993 23.9173H14.312C13.9782 24.5575 13.5547 25.1468 13.0543 25.6673H20.9993C21.6182 25.6673 22.2117 25.4215 22.6493 24.9839C23.0868 24.5463 23.3327 23.9528 23.3327 23.334V11.4667C23.3326 10.8479 23.0866 10.2545 22.649 9.81698L15.8485 3.01765L15.7913 2.97098L15.7493 2.93598C15.6693 2.86003 15.5839 2.78985 15.4938 2.72598C15.4635 2.70746 15.4324 2.69033 15.4005 2.67465L15.3445 2.64665L15.2862 2.61282C15.2232 2.57665 15.159 2.53932 15.0925 2.51132C14.86 2.41898 14.6142 2.36462 14.3645 2.35032C14.3412 2.34876 14.3182 2.34604 14.2957 2.34215L14.2 2.33398H6.99935C6.38051 2.33398 5.78702 2.57982 5.34943 3.0174C4.91185 3.45499 4.66602 4.04848 4.66602 4.66732V13.415C5.2275 13.1813 5.81505 13.016 6.41602 12.9227V4.66732C6.41602 4.51261 6.47747 4.36423 6.58687 4.25484C6.69627 4.14544 6.84464 4.08398 6.99935 4.08398H13.9993V9.33398C13.9993 9.95282 14.2452 10.5463 14.6828 10.9839C15.1204 11.4215 15.7138 11.6673 16.3327 11.6673H21.5827V23.334ZM15.7493 5.39182L20.2737 9.91732H16.3327C16.178 9.91732 16.0296 9.85586 15.9202 9.74646C15.8108 9.63707 15.7493 9.48869 15.7493 9.33398V5.39182ZM1.16602 20.4173C1.16602 21.26 1.33199 22.0944 1.65446 22.8729C1.97692 23.6514 2.44957 24.3587 3.04541 24.9546C3.64126 25.5504 4.34862 26.0231 5.12713 26.3455C5.90564 26.668 6.74003 26.834 7.58268 26.834C8.42533 26.834 9.25973 26.668 10.0382 26.3455C10.8167 26.0231 11.5241 25.5504 12.12 24.9546C12.7158 24.3587 13.1884 23.6514 13.5109 22.8729C13.8334 22.0944 13.9993 21.26 13.9993 20.4173C13.9993 18.7155 13.3233 17.0834 12.12 15.88C10.9166 14.6767 9.28449 14.0007 7.58268 14.0007C5.88088 14.0007 4.24877 14.6767 3.04541 15.88C1.84206 17.0834 1.16602 18.7155 1.16602 20.4173ZM11.0827 16.334C11.2374 16.334 11.3858 16.3954 11.4952 16.5048C11.6046 16.6142 11.666 16.7626 11.666 16.9173V19.2507C11.666 19.4054 11.6046 19.5537 11.4952 19.6631C11.3858 19.7725 11.2374 19.834 11.0827 19.834H8.74935C8.59464 19.834 8.44627 19.7725 8.33687 19.6631C8.22747 19.5537 8.16602 19.4054 8.16602 19.2507C8.16602 19.0959 8.22747 18.9476 8.33687 18.8382C8.44627 18.7288 8.59464 18.6673 8.74935 18.6673H9.91602C9.64434 18.3051 9.29205 18.0111 8.88705 17.8086C8.48206 17.6061 8.03548 17.5007 7.58268 17.5007C6.61085 17.5007 5.74868 17.9755 5.21785 18.7093C5.17373 18.7733 5.11727 18.8278 5.05179 18.8696C4.98631 18.9115 4.91313 18.9398 4.83655 18.953C4.75997 18.9662 4.68153 18.9639 4.60583 18.9463C4.53014 18.9288 4.45871 18.8963 4.39575 18.8507C4.33279 18.8052 4.27957 18.7475 4.23921 18.6811C4.19884 18.6147 4.17215 18.5409 4.16071 18.464C4.14926 18.3872 4.15328 18.3088 4.17254 18.2335C4.19179 18.1582 4.2259 18.0876 4.27285 18.0257C4.65133 17.5019 5.14872 17.0755 5.72411 16.7814C6.29951 16.4873 6.93649 16.3339 7.58268 16.334C8.72602 16.334 9.75852 16.8042 10.4993 17.559V16.9173C10.4993 16.7626 10.5608 16.6142 10.6702 16.5048C10.7796 16.3954 10.928 16.334 11.0827 16.334ZM4.66602 23.2757V23.9173C4.66602 24.072 4.60456 24.2204 4.49516 24.3298C4.38576 24.4392 4.23739 24.5007 4.08268 24.5007C3.92797 24.5007 3.7796 24.4392 3.6702 24.3298C3.56081 24.2204 3.49935 24.072 3.49935 23.9173V21.584C3.49935 21.4293 3.56081 21.2809 3.6702 21.1715C3.7796 21.0621 3.92797 21.0007 4.08268 21.0007H6.41602C6.57072 21.0007 6.7191 21.0621 6.82849 21.1715C6.93789 21.2809 6.99935 21.4293 6.99935 21.584C6.99935 21.7387 6.93789 21.8871 6.82849 21.9965C6.7191 22.1059 6.57072 22.1673 6.41602 22.1673H5.24935C5.78135 22.8766 6.62952 23.334 7.58268 23.334C8.47635 23.334 9.27668 22.9326 9.81218 22.298C9.91283 22.1827 10.0547 22.1116 10.2073 22.1C10.3599 22.0884 10.5109 22.1372 10.6279 22.236C10.7448 22.3347 10.8182 22.4754 10.8324 22.6277C10.8465 22.7801 10.8003 22.9319 10.7035 23.0505C10.3202 23.5048 9.84236 23.8699 9.30333 24.1204C8.76429 24.3709 8.17707 24.5006 7.58268 24.5007C7.03948 24.5007 6.50172 24.3924 6.0009 24.1821C5.50008 23.9717 5.04626 23.6636 4.66602 23.2757Z" fill="#606060"/>
</svg>