<svg width="34" height="30" viewBox="0 0 34 30" fill="none" xmlns="http://www.w3.org/2000/svg">
<g id="Swap">
<path id="Fill 1" opacity="0.4" d="M8.17315 16.4844C7.31296 16.4844 6.61662 17.1911 6.61662 18.0641L6.1875 25.6953C6.1875 26.8078 7.07695 27.7085 8.17315 27.7085C9.26936 27.7085 10.1569 26.8078 10.1569 25.6953L9.72969 18.0641C9.72969 17.1911 9.03334 16.4844 8.17315 16.4844Z" fill="#12D8A0"/>
<path id="Fill 3" d="M10.2993 1.12241C10.2993 1.12241 9.85264 0.663153 9.57566 0.463218C9.17385 0.154406 8.67841 0 8.18492 0C7.63097 0 7.11602 0.174202 6.69666 0.502809C6.62058 0.580012 6.29679 0.871008 6.02957 1.14221C4.3521 2.72784 1.60769 6.8671 0.768953 9.03472C0.636316 9.36333 0.349586 10.1947 0.332031 10.6401C0.332031 11.0638 0.425657 11.4716 0.616811 11.8576C0.884035 12.3406 1.3034 12.7286 1.79884 12.9404C2.14214 13.077 3.17007 13.2888 3.18958 13.2888C4.31504 13.5026 6.14465 13.6174 8.16542 13.6174C10.0906 13.6174 11.8441 13.5026 12.9872 13.3284C13.0067 13.3086 14.2823 13.0968 14.7212 12.8632C15.5209 12.4376 16.0183 11.6062 16.0183 10.7174V10.6401C15.9988 10.0601 15.5014 8.84073 15.4839 8.84073C14.6451 6.7899 12.0333 2.74763 10.2993 1.12241Z" fill="#12D8A0"/>
<path id="Fill 6" opacity="0.4" d="M25.8235 13.5154C26.6837 13.5154 27.3801 12.8087 27.3801 11.9357L27.8072 4.30427C27.8072 3.19174 26.9198 2.29102 25.8235 2.29102C24.7273 2.29102 23.8379 3.19174 23.8379 4.30427L24.267 11.9357C24.267 12.8087 24.9634 13.5154 25.8235 13.5154Z" fill="#12D8A0"/>
<path id="Fill 8" d="M33.38 18.1427C33.1128 17.6597 32.6934 17.2736 32.198 17.0598C31.8547 16.9232 30.8248 16.7114 30.8072 16.7114C29.6818 16.4976 27.8522 16.3828 25.8314 16.3828C23.9062 16.3828 22.1527 16.4976 21.0097 16.6718C20.9902 16.6916 19.7145 16.9054 19.2756 17.137C18.474 17.5627 17.9785 18.3941 17.9785 19.2849V19.3621C17.998 19.9421 18.4935 21.1596 18.513 21.1596C19.3517 23.2105 21.9615 27.2548 23.6975 28.8781C23.6975 28.8781 24.1442 29.3373 24.4212 29.5353C24.821 29.8461 25.3165 30.0005 25.8139 30.0005C26.3659 30.0005 26.8788 29.8263 27.3002 29.4977C27.3762 29.4205 27.7 29.1295 27.9673 28.8603C29.6428 27.2726 32.3891 23.1333 33.2259 20.9676C33.3605 20.639 33.6472 19.8055 33.6648 19.3621C33.6648 18.9365 33.5712 18.5287 33.38 18.1427Z" fill="#12D8A0"/>
</g>
</svg>
