<svg width="24" height="24" viewBox="0 0 24 24" fill="none" xmlns="http://www.w3.org/2000/svg">
<path d="M19.27 3.65039L14.17 8.75039H3.2C2.54 8.75039 2 8.21039 2 7.55039V7.54039C2 5.25039 3.85 3.40039 6.14 3.40039H17.85C18.35 3.40039 18.83 3.49039 19.27 3.65039Z" fill="#FF6A6A"/>
<path d="M12.67 10.25L7.17 15.75H6C5.59 15.75 5.25 16.09 5.25 16.5C5.25 16.81 5.45 17.09 5.73 17.19L3.38 19.54C2.53 18.79 2 17.69 2 16.46V11.45C2 10.79 2.54 10.25 3.2 10.25H12.67Z" fill="#FF6A6A"/>
<path d="M22.0002 11V16.46C22.0002 18.75 20.1502 20.6 17.8602 20.6H8.81016C7.92016 20.6 7.47016 19.52 8.10016 18.89L9.45016 17.54C9.64016 17.35 9.89016 17.25 10.1602 17.25H14.5002C14.9102 17.25 15.2502 16.91 15.2502 16.5C15.2502 16.09 14.9102 15.75 14.5002 15.75H13.6602C12.7702 15.75 12.3202 14.67 12.9502 14.04L16.4102 10.58C16.7902 10.21 17.3002 10 17.8302 10H21.0002C21.5502 10 22.0002 10.45 22.0002 11Z" fill="#FF6A6A"/>
<path d="M21.7699 2.22988C21.4699 1.92988 20.9799 1.92988 20.6799 2.22988L2.22988 20.6899C1.92988 20.9899 1.92988 21.4799 2.22988 21.7799C2.37988 21.9199 2.56988 21.9999 2.76988 21.9999C2.96988 21.9999 3.15988 21.9199 3.30988 21.7699L21.7699 3.30988C22.0799 3.00988 22.0799 2.52988 21.7699 2.22988Z" fill="#FF6A6A"/>
<path d="M21.7701 3.30957L20.6101 4.46957L16.3301 8.74957L3.31006 21.7696C3.16006 21.9196 2.97006 21.9996 2.77006 21.9996C2.57006 21.9996 2.38006 21.9196 2.23006 21.7696C1.92006 21.4696 1.92006 20.9896 2.23006 20.6896L3.38006 19.5396L5.73006 17.1896L19.2701 3.64957L20.6901 2.22957C20.9901 1.91957 21.4701 1.91957 21.7701 2.22957C22.0801 2.52957 22.0801 3.00957 21.7701 3.30957Z" fill="#FF6A6A"/>
<path d="M22.0001 7.41026C22.0001 6.52026 20.9201 6.07026 20.2901 6.70026L20.0001 7.00026L19.7101 7.29026C19.0801 7.92026 19.5201 9.00026 20.4101 9.00026H21.0001C21.5501 9.00026 22.0001 8.55026 22.0001 8.00026V7.41026Z" fill="#FF6A6A"/>
</svg>
