<svg width="25" height="25" viewBox="0 0 25 25" fill="none" xmlns="http://www.w3.org/2000/svg">
<path fill-rule="evenodd" clip-rule="evenodd" d="M7.04903 0.649414H17.323C21.3401 0.649414 24.0301 3.46971 24.0301 7.66461V17.3472C24.0301 21.5303 21.3401 24.3494 17.323 24.3494H7.04903C3.03188 24.3494 0.330078 21.5303 0.330078 17.3472V7.66461C0.330078 3.46971 3.03188 0.649414 7.04903 0.649414ZM15.7467 16.0544C16.1496 15.6527 16.1496 15.001 15.7467 14.5981L13.6374 12.4888L15.7467 10.3783C16.1496 9.97657 16.1496 9.31297 15.7467 8.91007C15.3438 8.50598 14.6921 8.50598 14.2773 8.91007L12.1799 11.0182L10.0706 8.91007C9.65583 8.50598 9.00408 8.50598 8.60118 8.91007C8.19828 9.31297 8.19828 9.97657 8.60118 10.3783L10.7105 12.4888L8.60118 14.5862C8.19828 15.001 8.19828 15.6527 8.60118 16.0544C8.80263 16.2559 9.07518 16.3637 9.33588 16.3637C9.60843 16.3637 9.86913 16.2559 10.0706 16.0544L12.1799 13.9582L14.2892 16.0544C14.4906 16.2689 14.7513 16.3637 15.012 16.3637C15.2846 16.3637 15.5453 16.2559 15.7467 16.0544Z" fill="#4545FE"/>
</svg>
