<svg width="16" height="16" viewBox="0 0 16 16" fill="none" xmlns="http://www.w3.org/2000/svg">
<g id="fi-rr-menu-dots-vertical" clip-path="url(#clip0_25140_27422)">
<path id="Vector" d="M8.00008 2.66667C8.73646 2.66667 9.33341 2.06971 9.33341 1.33333C9.33341 0.596954 8.73646 0 8.00008 0C7.2637 0 6.66675 0.596954 6.66675 1.33333C6.66675 2.06971 7.2637 2.66667 8.00008 2.66667Z" fill="#606060"/>
<path id="Vector_2" d="M8.00008 9.33365C8.73646 9.33365 9.33341 8.7367 9.33341 8.00032C9.33341 7.26394 8.73646 6.66699 8.00008 6.66699C7.2637 6.66699 6.66675 7.26394 6.66675 8.00032C6.66675 8.7367 7.2637 9.33365 8.00008 9.33365Z" fill="#606060"/>
<path id="Vector_3" d="M8.00008 15.9997C8.73646 15.9997 9.33341 15.4027 9.33341 14.6663C9.33341 13.93 8.73646 13.333 8.00008 13.333C7.2637 13.333 6.66675 13.93 6.66675 14.6663C6.66675 15.4027 7.2637 15.9997 8.00008 15.9997Z" fill="#606060"/>
</g>
<defs>
<clipPath id="clip0_25140_27422">
<rect width="16" height="16" fill="white"/>
</clipPath>
</defs>
</svg>
