<svg width="11" height="11" viewBox="0 0 11 11" fill="none" xmlns="http://www.w3.org/2000/svg">
<g id="vuesax/outline/flash">
<g id="flash">
<path id="Vector" d="M4.39135 10.2255C4.30343 10.2255 4.2331 10.2079 4.18035 10.1859C4.00452 10.12 3.7056 9.90459 3.7056 9.22324V6.38793H2.67697C2.08793 6.38793 1.87693 6.11099 1.8022 5.94835C1.72747 5.7813 1.66154 5.44282 2.04837 4.99885L5.37602 1.21843C5.82439 0.708512 6.18924 0.743678 6.36508 0.809616C6.54091 0.875553 6.83983 1.09095 6.83983 1.7723V4.60762H7.86845C8.45749 4.60762 8.66849 4.88455 8.74322 5.0472C8.81795 5.21424 8.88389 5.55272 8.49706 5.9967L5.16941 9.77711C4.85731 10.1332 4.58477 10.2255 4.39135 10.2255ZM6.12331 1.42943C6.11012 1.44701 6.01781 1.49097 5.87274 1.65801L2.5451 5.43843C2.42202 5.57909 2.40443 5.66701 2.40443 5.6846C2.41322 5.68899 2.49235 5.73295 2.67697 5.73295H4.03529C4.21552 5.73295 4.36497 5.88241 4.36497 6.06264V9.22764C4.36497 9.44743 4.40454 9.54414 4.42212 9.57051C4.43531 9.55293 4.52762 9.50897 4.67268 9.34193L8.00033 5.56151C8.12341 5.42085 8.141 5.33293 8.141 5.31535C8.1322 5.31095 8.05308 5.26699 7.86845 5.26699H6.51014C6.32991 5.26699 6.18045 5.11753 6.18045 4.9373V1.7723C6.18485 1.55251 6.14089 1.4602 6.12331 1.42943Z" fill="#FFF3B0"/>
</g>
</g>
</svg>
