<svg width="32" height="32" viewBox="0 0 32 32" fill="none" xmlns="http://www.w3.org/2000/svg">
<path d="M3.19983 5.59987C3.19983 5.38769 3.28411 5.18421 3.43414 5.03418C3.58417 4.88415 3.78766 4.79987 3.99983 4.79987H27.9998C28.212 4.79987 28.4155 4.88415 28.5655 5.03418C28.7155 5.18421 28.7998 5.38769 28.7998 5.59987C28.7998 5.81204 28.7155 6.01552 28.5655 6.16555C28.4155 6.31558 28.212 6.39987 27.9998 6.39987H3.99983C3.78766 6.39987 3.58417 6.31558 3.43414 6.16555C3.28411 6.01552 3.19983 5.81204 3.19983 5.59987ZM17.5998 11.1999C17.5998 10.3512 17.937 9.53724 18.5371 8.93712C19.1372 8.33701 19.9511 7.99987 20.7998 7.99987H22.3998C23.2485 7.99987 24.0625 8.33701 24.6626 8.93712C25.2627 9.53724 25.5998 10.3512 25.5998 11.1999V19.1999C25.5998 20.0486 25.2627 20.8625 24.6626 21.4626C24.0625 22.0627 23.2485 22.3999 22.3998 22.3999H20.7998C19.9511 22.3999 19.1372 22.0627 18.5371 21.4626C17.937 20.8625 17.5998 20.0486 17.5998 19.1999V11.1999ZM20.7998 9.59987C20.3755 9.59987 19.9685 9.76844 19.6685 10.0685C19.3684 10.3686 19.1998 10.7755 19.1998 11.1999V19.1999C19.1998 19.6242 19.3684 20.0312 19.6685 20.3312C19.9685 20.6313 20.3755 20.7999 20.7998 20.7999H22.3998C22.8242 20.7999 23.2311 20.6313 23.5312 20.3312C23.8313 20.0312 23.9998 19.6242 23.9998 19.1999V11.1999C23.9998 10.7755 23.8313 10.3686 23.5312 10.0685C23.2311 9.76844 22.8242 9.59987 22.3998 9.59987H20.7998ZM9.59983 7.99987C8.75114 7.99987 7.9372 8.33701 7.33709 8.93712C6.73697 9.53724 6.39983 10.3512 6.39983 11.1999V23.9999C6.39983 24.8486 6.73697 25.6625 7.33709 26.2626C7.9372 26.8627 8.75114 27.1999 9.59983 27.1999H11.1998C12.0485 27.1999 12.8625 26.8627 13.4626 26.2626C14.0627 25.6625 14.3998 24.8486 14.3998 23.9999V11.1999C14.3998 10.3512 14.0627 9.53724 13.4626 8.93712C12.8625 8.33701 12.0485 7.99987 11.1998 7.99987H9.59983ZM7.99983 11.1999C7.99983 10.7755 8.1684 10.3686 8.46846 10.0685C8.76852 9.76844 9.17548 9.59987 9.59983 9.59987H11.1998C11.6242 9.59987 12.0311 9.76844 12.3312 10.0685C12.6313 10.3686 12.7998 10.7755 12.7998 11.1999V23.9999C12.7998 24.4242 12.6313 24.8312 12.3312 25.1312C12.0311 25.4313 11.6242 25.5999 11.1998 25.5999H9.59983C9.17548 25.5999 8.76852 25.4313 8.46846 25.1312C8.1684 24.8312 7.99983 24.4242 7.99983 23.9999V11.1999Z" fill="#525252"/>
</svg>
