<svg width="16" height="25" viewBox="0 0 16 25" fill="none" xmlns="http://www.w3.org/2000/svg">
<path d="M12.6654 5.616V4.66667C12.6654 3.42899 12.1737 2.242 11.2985 1.36684C10.4234 0.491665 9.23637 0 7.9987 0C6.76102 0 5.57404 0.491665 4.69887 1.36684C3.8237 2.242 3.33203 3.42899 3.33203 4.66667V5.616C2.73827 5.87514 2.23289 6.30168 1.8777 6.84347C1.5225 7.38527 1.33288 8.01882 1.33203 8.66667V12.6667C1.33309 13.5504 1.68462 14.3976 2.30951 15.0225C2.9344 15.6474 3.78163 15.9989 4.66536 16H11.332C12.2158 15.9989 13.063 15.6474 13.6879 15.0225C14.3128 14.3976 14.6643 13.5504 14.6654 12.6667V8.66667C14.6645 8.01882 14.4749 7.38527 14.1197 6.84347C13.7645 6.30168 13.2591 5.87514 12.6654 5.616ZM4.66536 4.66667C4.66536 3.78261 5.01655 2.93477 5.64167 2.30964C6.2668 1.68452 7.11464 1.33333 7.9987 1.33333C8.88275 1.33333 9.7306 1.68452 10.3557 2.30964C10.9808 2.93477 11.332 3.78261 11.332 4.66667V5.33333H4.66536V4.66667ZM13.332 12.6667C13.332 13.1971 13.1213 13.7058 12.7462 14.0809C12.3712 14.456 11.8625 14.6667 11.332 14.6667H4.66536C4.13493 14.6667 3.62622 14.456 3.25115 14.0809C2.87608 13.7058 2.66536 13.1971 2.66536 12.6667V8.66667C2.66536 8.13623 2.87608 7.62753 3.25115 7.25245C3.62622 6.87738 4.13493 6.66667 4.66536 6.66667H11.332C11.8625 6.66667 12.3712 6.87738 12.7462 7.25245C13.1213 7.62753 13.332 8.13623 13.332 8.66667V12.6667Z" fill="#191919"/>
<path d="M7.9987 9.33301C7.82189 9.33301 7.65232 9.40325 7.52729 9.52827C7.40227 9.65329 7.33203 9.82286 7.33203 9.99967V11.333C7.33203 11.5098 7.40227 11.6794 7.52729 11.8044C7.65232 11.9294 7.82189 11.9997 7.9987 11.9997C8.17551 11.9997 8.34508 11.9294 8.47011 11.8044C8.59513 11.6794 8.66537 11.5098 8.66537 11.333V9.99967C8.66537 9.82286 8.59513 9.65329 8.47011 9.52827C8.34508 9.40325 8.17551 9.33301 7.9987 9.33301Z" fill="#191919"/>
<path d="M2.136 20.024L1.704 19.712L2.32 18.856L1.312 18.52L1.464 18.008L2.488 18.344V17.32H3.024V18.344L4.04 18.016L4.208 18.52L3.192 18.856L3.824 19.712L3.392 20.024L2.76 19.168L2.136 20.024ZM5.69069 20.024L5.25869 19.712L5.87469 18.856L4.86669 18.52L5.01869 18.008L6.04269 18.344V17.32H6.57869V18.344L7.59469 18.016L7.76269 18.52L6.74669 18.856L7.37869 19.712L6.94669 20.024L6.31469 19.168L5.69069 20.024ZM9.24538 20.024L8.81338 19.712L9.42938 18.856L8.42138 18.52L8.57338 18.008L9.59738 18.344V17.32H10.1334V18.344L11.1494 18.016L11.3174 18.52L10.3014 18.856L10.9334 19.712L10.5014 20.024L9.86938 19.168L9.24538 20.024ZM12.8001 20.024L12.3681 19.712L12.9841 18.856L11.9761 18.52L12.1281 18.008L13.1521 18.344V17.32H13.6881V18.344L14.7041 18.016L14.8721 18.52L13.8561 18.856L14.4881 19.712L14.0561 20.024L13.4241 19.168L12.8001 20.024Z" fill="black"/>
</svg>
