<svg width="17" height="16" viewBox="0 0 17 16" fill="none" xmlns="http://www.w3.org/2000/svg">
<g id="vuesax/outline/edit-2">
<g id="edit-2">
<path id="Vector" d="M4.26754 13.0127C3.86088 13.0127 3.48088 12.8727 3.20754 12.6127C2.86088 12.286 2.69421 11.7927 2.75421 11.2594L3.00088 9.09938C3.04754 8.69272 3.29421 8.15272 3.58088 7.85938L9.05421 2.06605C10.4209 0.619382 11.8475 0.579382 13.2942 1.94605C14.7409 3.31272 14.7809 4.73938 13.4142 6.18605L7.94088 11.9794C7.66088 12.2794 7.14088 12.5594 6.73421 12.626L4.58754 12.9927C4.47421 12.9994 4.37421 13.0127 4.26754 13.0127ZM11.1942 1.93938C10.6809 1.93938 10.2342 2.25938 9.78088 2.73938L4.30754 8.53938C4.17421 8.67938 4.02088 9.01272 3.99421 9.20605L3.74754 11.366C3.72088 11.586 3.77421 11.766 3.89421 11.8794C4.01421 11.9927 4.19421 12.0327 4.41421 11.9994L6.56088 11.6327C6.75421 11.5994 7.07421 11.426 7.20754 11.286L12.6809 5.49271C13.5075 4.61272 13.8075 3.79938 12.6009 2.66605C12.0675 2.15272 11.6075 1.93938 11.1942 1.93938Z" fill="#4545FE"/>
<path id="Vector_2" d="M12.1332 7.30023C12.1199 7.30023 12.0999 7.30023 12.0865 7.30023C10.0065 7.09356 8.33321 5.51356 8.01321 3.44689C7.97321 3.17356 8.15987 2.92023 8.43321 2.87356C8.70654 2.83356 8.95987 3.02023 9.00654 3.29356C9.25987 4.90689 10.5665 6.14689 12.1932 6.30689C12.4665 6.33356 12.6665 6.58022 12.6399 6.85356C12.6065 7.10689 12.3865 7.30023 12.1332 7.30023Z" fill="#4545FE"/>
<path id="Vector_3" d="M14.5781 15.167H2.57812C2.30479 15.167 2.07812 14.9403 2.07812 14.667C2.07812 14.3937 2.30479 14.167 2.57812 14.167H14.5781C14.8515 14.167 15.0781 14.3937 15.0781 14.667C15.0781 14.9403 14.8515 15.167 14.5781 15.167Z" fill="#4545FE"/>
</g>
</g>
</svg>
