<svg width="24" height="26" viewBox="0 0 24 26" fill="none" xmlns="http://www.w3.org/2000/svg">
<path fill-rule="evenodd" clip-rule="evenodd" d="M7.94127 4.48534C7.67694 4.84235 7.7073 5.35161 8.04125 5.67479C8.39675 6.03029 8.9774 6.03029 9.3329 5.67479L11.2171 3.77879V8.68469H13.042V3.77879L14.9261 5.67479L15.0283 5.76293C15.3853 6.02735 15.8946 5.99797 16.2178 5.67479C16.3955 5.49704 16.4903 5.26004 16.4903 5.02304C16.4903 4.79789 16.3955 4.56089 16.2178 4.38314L12.7694 0.922941L12.6619 0.826339C12.5087 0.711063 12.3191 0.650391 12.1295 0.650391C11.8807 0.650391 11.6555 0.745191 11.4778 0.922941L8.0294 4.38314L7.94127 4.48534ZM5.29322 8.69075C2.50462 8.82246 0.279297 11.1683 0.279297 14.026V19.9097L0.28503 20.1615C0.414503 22.9994 2.72074 25.2749 5.55255 25.2749H18.7179L18.9654 25.2691C21.754 25.1374 23.9793 22.7912 23.9793 19.9217V14.0501L23.9735 13.7974C23.8434 10.9491 21.5263 8.68492 18.706 8.68492H13.0417V15.9189L13.0333 16.0461C12.972 16.5028 12.5855 16.8473 12.1293 16.8473C11.6197 16.8473 11.2168 16.4374 11.2168 15.9189V8.68492H5.5407L5.29322 8.69075Z" fill="#4545FE"/>
</svg>
