<svg width="58" height="58" viewBox="0 0 58 58" fill="none" xmlns="http://www.w3.org/2000/svg">
<path opacity="0.4" d="M15.5789 53.1663C9.6557 53.1663 4.83203 48.26 4.83203 42.2321V30.2428C4.83203 24.2272 9.6412 19.333 15.5548 19.333H42.4184C48.3441 19.333 53.1654 24.2393 53.1654 30.2699V42.2541C53.1654 48.2721 48.3562 53.1663 42.4426 53.1663H40.1709H15.5789Z" fill="#4545FE"/>
<path d="M27.6826 5.36728L20.6525 12.2446C19.9275 12.9554 19.9275 14.0993 20.6574 14.8077C21.3872 15.5138 22.5641 15.5114 23.2891 14.803L27.1389 11.0348V14.6477V34.9241C27.1389 35.9246 27.9726 36.7366 28.9997 36.7366C30.0292 36.7366 30.8605 35.9246 30.8605 34.9241V11.0348L34.7103 14.803C35.4353 15.5114 36.6122 15.5138 37.342 14.8077C37.7069 14.4523 37.8906 13.9886 37.8906 13.5226C37.8906 13.0613 37.7069 12.5976 37.3469 12.2446L30.3192 5.36728C29.9688 5.026 29.4951 4.83301 28.9997 4.83301C28.5067 4.83301 28.033 5.026 27.6826 5.36728Z" fill="#4545FE"/>
</svg>
