<svg xmlns="http://www.w3.org/2000/svg" width="24" height="25" viewBox="0 0 24 25" fill="none">
  <path d="M19.5 4.17C19.5 4.16 19.5 4.15 19.48 4.14C19.26 3.86 18.97 3.71 18.63 3.71C18.1 3.71 17.46 4.06 16.77 4.8C15.95 5.68 14.69 5.61 13.97 4.65L12.96 3.31C12.56 2.77 12.03 2.5 11.5 2.5C10.97 2.5 10.44 2.77 10.04 3.31L9.02 4.66C8.31 5.61 7.06 5.68 6.24 4.81L6.23 4.8C5.1 3.59 4.09 3.41 3.52 4.14C3.5 4.15 3.5 4.16 3.5 4.17C3.14 4.94 3 6.02 3 7.54V17.46C3 18.98 3.14 20.06 3.5 20.83C3.5 20.84 3.51 20.86 3.52 20.87C4.1 21.59 5.1 21.41 6.23 20.2L6.24 20.19C7.06 19.32 8.31 19.39 9.02 20.34L10.04 21.69C10.44 22.23 10.97 22.5 11.5 22.5C12.03 22.5 12.56 22.23 12.96 21.69L13.97 20.35C14.69 19.39 15.95 19.32 16.77 20.2C17.46 20.94 18.1 21.29 18.63 21.29C18.97 21.29 19.26 21.15 19.48 20.87C19.49 20.86 19.5 20.84 19.5 20.83C19.86 20.06 20 18.98 20 17.46V7.54C20 6.02 19.86 4.94 19.5 4.17ZM14 15H8C7.59 15 7.25 14.66 7.25 14.25C7.25 13.84 7.59 13.5 8 13.5H14C14.41 13.5 14.75 13.84 14.75 14.25C14.75 14.66 14.41 15 14 15ZM16 11.5H8C7.59 11.5 7.25 11.16 7.25 10.75C7.25 10.34 7.59 10 8 10H16C16.41 10 16.75 10.34 16.75 10.75C16.75 11.16 16.41 11.5 16 11.5Z" fill="#4545FE"/>
</svg>