<svg width="20" height="21" viewBox="0 0 20 21" fill="none" xmlns="http://www.w3.org/2000/svg">
<g clipPath="url(#clip0_9611_44665)">
<path d="M9.17316 2.64863L9.16732 15.5136C9.16732 15.7346 9.25512 15.9466 9.4114 16.1029C9.56768 16.2592 9.77964 16.347 10.0007 16.347C10.2217 16.347 10.4336 16.2592 10.5899 16.1029C10.7462 15.9466 10.834 15.7346 10.834 15.5136L10.8398 2.6628L13.2665 5.0903C13.4228 5.24653 13.6347 5.33429 13.8557 5.33429C14.0766 5.33429 14.2885 5.24653 14.4448 5.0903C14.601 4.93403 14.6888 4.7221 14.6888 4.50113C14.6888 4.28016 14.601 4.06824 14.4448 3.91197L11.769 1.2328C11.5368 1.00048 11.2612 0.816191 10.9577 0.690454C10.6543 0.564718 10.3291 0.5 10.0007 0.5C9.67222 0.5 9.34699 0.564718 9.04358 0.690454C8.74016 0.816191 8.46449 1.00048 8.23232 1.2328L5.55649 3.90947C5.40026 4.06574 5.3125 4.27766 5.3125 4.49863C5.3125 4.7196 5.40026 4.93153 5.55649 5.0878C5.71276 5.24403 5.92469 5.33179 6.14566 5.33179C6.36663 5.33179 6.57855 5.24403 6.73482 5.0878L9.17316 2.64863Z" fill="white"/>
<path d="M18.3333 14.6663V17.9997C18.3333 18.2207 18.2455 18.4326 18.0893 18.5889C17.933 18.7452 17.721 18.833 17.5 18.833H2.5C2.27899 18.833 2.06702 18.7452 1.91074 18.5889C1.75446 18.4326 1.66667 18.2207 1.66667 17.9997V14.6663C1.66667 14.4453 1.57887 14.2334 1.42259 14.0771C1.26631 13.9208 1.05435 13.833 0.833333 13.833C0.61232 13.833 0.400358 13.9208 0.244078 14.0771C0.0877974 14.2334 0 14.4453 0 14.6663L0 17.9997C0 18.6627 0.263392 19.2986 0.732233 19.7674C1.20107 20.2363 1.83696 20.4997 2.5 20.4997H17.5C18.163 20.4997 18.7989 20.2363 19.2678 19.7674C19.7366 19.2986 20 18.6627 20 17.9997V14.6663C20 14.4453 19.9122 14.2334 19.7559 14.0771C19.5996 13.9208 19.3877 13.833 19.1667 13.833C18.9457 13.833 18.7337 13.9208 18.5774 14.0771C18.4211 14.2334 18.3333 14.4453 18.3333 14.6663Z" fill="white"/>
</g>
<defs>
<clipPath id="clip0_9611_44665">
<rect width="20" height="20" fill="white" transform="translate(0 0.5)"/>
</clipPath>
</defs>
</svg>
