<svg xmlns="http://www.w3.org/2000/svg" width="20" height="20" viewBox="0 0 20 20" fill="none">
  <path opacity="0.4" d="M5.54583 18.0267C3.56783 18.0267 1.95703 16.3883 1.95703 14.3754V10.3717C1.95703 8.36288 3.56299 6.72852 5.53776 6.72852H14.5085C16.4873 6.72852 18.0973 8.36692 18.0973 10.3807V14.3827C18.0973 16.3924 16.4914 18.0267 14.5166 18.0267H13.758H5.54583Z" fill="#3D3D3D"/>
  <path d="M9.59148 2.06513L7.24388 4.36173C7.00177 4.59909 7.00177 4.98107 7.24549 5.21764C7.48921 5.45344 7.88223 5.45264 8.12433 5.21608L9.40991 3.95774V5.1642V11.9353C9.40991 12.2694 9.68833 12.5405 10.0313 12.5405C10.3751 12.5405 10.6527 12.2694 10.6527 11.9353V3.95774L11.9383 5.21608C12.1804 5.45264 12.5734 5.45344 12.8171 5.21764C12.939 5.09896 13.0003 4.94413 13.0003 4.7885C13.0003 4.63446 12.939 4.47962 12.8187 4.36173L10.4719 2.06513C10.3549 1.95117 10.1967 1.88672 10.0313 1.88672C9.86668 1.88672 9.7085 1.95117 9.59148 2.06513Z" fill="#242526"/>
</svg>