<svg width="21" height="20" viewBox="0 0 21 20" fill="none" xmlns="http://www.w3.org/2000/svg">
<g id="Upload 2">
<path id="Vector" opacity="0.4" d="M6.03934 18.0359C4.07461 18.0359 2.47461 16.4085 2.47461 14.4091V10.4322C2.47461 8.43688 4.0698 6.81348 6.03132 6.81348H14.9419C16.9075 6.81348 18.5067 8.44089 18.5067 10.4412V14.4164C18.5067 16.4125 16.9115 18.0359 14.95 18.0359H14.1965H6.03934Z" fill="white"/>
<path id="Vector_2" d="M10.054 2.18112L7.72215 4.46232C7.48167 4.69809 7.48167 5.0775 7.72376 5.31249C7.96584 5.5467 8.35622 5.54592 8.5967 5.31094L9.87366 4.06104V5.25941V11.9851C9.87366 12.3169 10.1502 12.5863 10.4909 12.5863C10.8324 12.5863 11.1081 12.3169 11.1081 11.9851V4.06104L12.3851 5.31094C12.6256 5.54592 13.0159 5.5467 13.258 5.31249C13.3791 5.19461 13.44 5.04081 13.44 4.88623C13.44 4.73322 13.3791 4.57942 13.2596 4.46232L10.9286 2.18112C10.8123 2.06792 10.6552 2.00391 10.4909 2.00391C10.3274 2.00391 10.1702 2.06792 10.054 2.18112Z" fill="white"/>
</g>
</svg>
