<svg width="386" height="93" viewBox="0 0 386 93" fill="none" xmlns="http://www.w3.org/2000/svg">
<g clipPath="url(#clip0_10802_87655)">
<path d="M0 20C0 8.9543 8.95431 0 20 0H366C377.046 0 386 8.95431 386 20V93H0V20Z" fill="#2A2A2A"/>
<circle cx="23.5" cy="108.5" r="33.5" fill="white" fill-opacity="0.1"/>
<circle cx="28.5" cy="105.5" r="33" stroke="white" stroke-opacity="0.4"/>
<circle cx="123.5" cy="13.5" r="33.5" fill="white" fill-opacity="0.1"/>
<circle cx="123.5" cy="19.5" r="33" stroke="white" stroke-opacity="0.4"/>
<circle cx="333.5" cy="13.5" r="33.5" fill="white" fill-opacity="0.1"/>
<circle cx="333.5" cy="19.5" r="33" stroke="white" stroke-opacity="0.4"/>
<circle cx="355.833" cy="119.482" r="33.5" transform="rotate(173.659 355.833 119.482)" fill="white" fill-opacity="0.1"/>
<circle cx="355.169" cy="113.519" r="33" transform="rotate(173.659 355.169 113.519)" stroke="white" stroke-opacity="0.4"/>
<path d="M126.472 53L121.108 40.22H123.412L127.39 49.778L131.35 40.22H133.672L128.308 53H126.472ZM137.914 53.18C136.546 53.18 135.418 52.742 134.53 51.866C133.654 50.99 133.216 49.868 133.216 48.5C133.216 47.168 133.66 46.058 134.548 45.17C135.436 44.27 136.558 43.82 137.914 43.82C139.162 43.82 140.194 44.216 141.01 45.008C141.838 45.8 142.252 46.892 142.252 48.284C142.252 48.524 142.246 48.74 142.234 48.932H135.16C135.208 49.664 135.49 50.258 136.006 50.714C136.522 51.158 137.164 51.38 137.932 51.38C139.084 51.38 139.942 50.924 140.506 50.012L142.018 51.092C141.154 52.484 139.786 53.18 137.914 53.18ZM135.25 47.492H140.254C140.146 46.868 139.864 46.382 139.408 46.034C138.964 45.674 138.442 45.494 137.842 45.494C137.218 45.494 136.66 45.668 136.168 46.016C135.688 46.364 135.382 46.856 135.25 47.492ZM148.355 53.18C146.987 53.18 145.859 52.742 144.971 51.866C144.095 50.99 143.657 49.868 143.657 48.5C143.657 47.168 144.101 46.058 144.989 45.17C145.877 44.27 146.999 43.82 148.355 43.82C149.603 43.82 150.635 44.216 151.451 45.008C152.279 45.8 152.693 46.892 152.693 48.284C152.693 48.524 152.687 48.74 152.675 48.932H145.601C145.649 49.664 145.931 50.258 146.447 50.714C146.963 51.158 147.605 51.38 148.373 51.38C149.525 51.38 150.383 50.924 150.947 50.012L152.459 51.092C151.595 52.484 150.227 53.18 148.355 53.18ZM145.691 47.492H150.695C150.587 46.868 150.305 46.382 149.849 46.034C149.405 45.674 148.883 45.494 148.283 45.494C147.659 45.494 147.101 45.668 146.609 46.016C146.129 46.364 145.823 46.856 145.691 47.492ZM154.728 53V44H156.708V45.602C156.876 45.098 157.182 44.69 157.626 44.378C158.082 44.066 158.568 43.91 159.084 43.91C159.396 43.91 159.654 43.934 159.858 43.982V46.016C159.57 45.908 159.24 45.854 158.868 45.854C158.268 45.854 157.758 46.1 157.338 46.592C156.918 47.072 156.708 47.744 156.708 48.608V53H154.728ZM163.427 50.354C163.943 50.87 164.579 51.128 165.335 51.128C166.091 51.128 166.727 50.87 167.243 50.354C167.759 49.826 168.017 49.166 168.017 48.374C168.017 47.582 167.759 46.928 167.243 46.412C166.727 45.884 166.091 45.62 165.335 45.62C164.579 45.62 163.943 45.884 163.427 46.412C162.911 46.928 162.653 47.582 162.653 48.374C162.653 49.166 162.911 49.826 163.427 50.354ZM165.155 56.942C164.279 56.942 163.469 56.792 162.725 56.492C161.981 56.204 161.387 55.802 160.943 55.286L162.149 53.864C162.953 54.74 163.949 55.178 165.137 55.178C165.917 55.178 166.565 54.926 167.081 54.422C167.597 53.93 167.855 53.246 167.855 52.37V51.542C167.567 51.95 167.165 52.286 166.649 52.55C166.133 52.814 165.575 52.946 164.975 52.946C163.763 52.946 162.737 52.508 161.897 51.632C161.069 50.744 160.655 49.658 160.655 48.374C160.655 47.102 161.069 46.028 161.897 45.152C162.737 44.264 163.763 43.82 164.975 43.82C165.575 43.82 166.133 43.952 166.649 44.216C167.165 44.468 167.567 44.798 167.855 45.206V44H169.835V52.388C169.835 53.888 169.403 55.022 168.539 55.79C167.687 56.558 166.559 56.942 165.155 56.942ZM176.568 53.18C175.2 53.18 174.072 52.742 173.184 51.866C172.308 50.99 171.87 49.868 171.87 48.5C171.87 47.168 172.314 46.058 173.202 45.17C174.09 44.27 175.212 43.82 176.568 43.82C177.816 43.82 178.848 44.216 179.664 45.008C180.492 45.8 180.906 46.892 180.906 48.284C180.906 48.524 180.9 48.74 180.888 48.932H173.814C173.862 49.664 174.144 50.258 174.66 50.714C175.176 51.158 175.818 51.38 176.586 51.38C177.738 51.38 178.596 50.924 179.16 50.012L180.672 51.092C179.808 52.484 178.44 53.18 176.568 53.18ZM173.904 47.492H178.908C178.8 46.868 178.518 46.382 178.062 46.034C177.618 45.674 177.096 45.494 176.496 45.494C175.872 45.494 175.314 45.668 174.822 46.016C174.342 46.364 174.036 46.856 173.904 47.492ZM185.338 53L190.918 40.22H192.754L198.334 53H196.138L194.68 49.652H188.956L187.516 53H185.338ZM191.818 43.064L189.766 47.78H193.87L191.818 43.064ZM202.608 53.18C201.78 53.18 201.048 53.024 200.412 52.712C199.776 52.388 199.302 51.908 198.99 51.272L200.448 50.228C200.628 50.612 200.916 50.918 201.312 51.146C201.708 51.362 202.14 51.47 202.608 51.47C202.98 51.47 203.286 51.386 203.526 51.218C203.778 51.05 203.904 50.816 203.904 50.516C203.904 50.252 203.802 50.036 203.598 49.868C203.406 49.7 203.046 49.532 202.518 49.364L201.726 49.148C200.13 48.716 199.344 47.798 199.368 46.394C199.368 45.614 199.674 44.99 200.286 44.522C200.898 44.054 201.666 43.82 202.59 43.82C203.982 43.82 204.996 44.33 205.632 45.35L204.264 46.394C203.808 45.782 203.238 45.476 202.554 45.476C202.23 45.476 201.948 45.554 201.708 45.71C201.468 45.854 201.348 46.058 201.348 46.322C201.348 46.562 201.426 46.766 201.582 46.934C201.738 47.102 202.02 47.252 202.428 47.384L203.346 47.654C204.186 47.906 204.816 48.248 205.236 48.68C205.656 49.1 205.866 49.67 205.866 50.39C205.866 51.242 205.56 51.92 204.948 52.424C204.336 52.928 203.556 53.18 202.608 53.18ZM210.782 53.18C209.954 53.18 209.222 53.024 208.586 52.712C207.95 52.388 207.476 51.908 207.164 51.272L208.622 50.228C208.802 50.612 209.09 50.918 209.486 51.146C209.882 51.362 210.314 51.47 210.782 51.47C211.154 51.47 211.46 51.386 211.7 51.218C211.952 51.05 212.078 50.816 212.078 50.516C212.078 50.252 211.976 50.036 211.772 49.868C211.58 49.7 211.22 49.532 210.692 49.364L209.9 49.148C208.304 48.716 207.518 47.798 207.542 46.394C207.542 45.614 207.848 44.99 208.46 44.522C209.072 44.054 209.84 43.82 210.764 43.82C212.156 43.82 213.17 44.33 213.806 45.35L212.438 46.394C211.982 45.782 211.412 45.476 210.728 45.476C210.404 45.476 210.122 45.554 209.882 45.71C209.642 45.854 209.522 46.058 209.522 46.322C209.522 46.562 209.6 46.766 209.756 46.934C209.912 47.102 210.194 47.252 210.602 47.384L211.52 47.654C212.36 47.906 212.99 48.248 213.41 48.68C213.83 49.1 214.04 49.67 214.04 50.39C214.04 51.242 213.734 51.92 213.122 52.424C212.51 52.928 211.73 53.18 210.782 53.18ZM217.084 42.038C216.724 42.038 216.412 41.912 216.148 41.66C215.884 41.396 215.752 41.078 215.752 40.706C215.752 40.346 215.884 40.04 216.148 39.788C216.412 39.524 216.724 39.392 217.084 39.392C217.456 39.392 217.768 39.524 218.02 39.788C218.272 40.04 218.398 40.346 218.398 40.706C218.398 41.078 218.272 41.396 218.02 41.66C217.768 41.912 217.456 42.038 217.084 42.038ZM216.094 53V44H218.074V53H216.094ZM223.596 53.18C222.768 53.18 222.036 53.024 221.4 52.712C220.764 52.388 220.29 51.908 219.978 51.272L221.436 50.228C221.616 50.612 221.904 50.918 222.3 51.146C222.696 51.362 223.128 51.47 223.596 51.47C223.968 51.47 224.274 51.386 224.514 51.218C224.766 51.05 224.892 50.816 224.892 50.516C224.892 50.252 224.79 50.036 224.586 49.868C224.394 49.7 224.034 49.532 223.506 49.364L222.714 49.148C221.118 48.716 220.332 47.798 220.356 46.394C220.356 45.614 220.662 44.99 221.274 44.522C221.886 44.054 222.654 43.82 223.578 43.82C224.97 43.82 225.984 44.33 226.62 45.35L225.252 46.394C224.796 45.782 224.226 45.476 223.542 45.476C223.218 45.476 222.936 45.554 222.696 45.71C222.456 45.854 222.336 46.058 222.336 46.322C222.336 46.562 222.414 46.766 222.57 46.934C222.726 47.102 223.008 47.252 223.416 47.384L224.334 47.654C225.174 47.906 225.804 48.248 226.224 48.68C226.644 49.1 226.854 49.67 226.854 50.39C226.854 51.242 226.548 51.92 225.936 52.424C225.324 52.928 224.544 53.18 223.596 53.18ZM232.691 53.09C231.779 53.09 231.035 52.838 230.459 52.334C229.895 51.818 229.613 51.074 229.613 50.102V45.764H227.741V44H229.613V41.498H231.593V44H234.167V45.764H231.593V49.778C231.593 50.33 231.713 50.726 231.953 50.966C232.193 51.194 232.577 51.308 233.105 51.308C233.537 51.308 233.891 51.248 234.167 51.128V52.892C233.735 53.024 233.243 53.09 232.691 53.09ZM239.612 53.18C238.388 53.18 237.356 52.724 236.516 51.812C235.688 50.9 235.274 49.796 235.274 48.5C235.274 47.204 235.688 46.1 236.516 45.188C237.356 44.276 238.388 43.82 239.612 43.82C240.224 43.82 240.788 43.958 241.304 44.234C241.82 44.498 242.216 44.822 242.492 45.206V44H244.472V53H242.492V51.794C242.216 52.178 241.82 52.508 241.304 52.784C240.788 53.048 240.224 53.18 239.612 53.18ZM238.046 50.552C238.55 51.104 239.192 51.38 239.972 51.38C240.752 51.38 241.394 51.104 241.898 50.552C242.402 50 242.654 49.316 242.654 48.5C242.654 47.684 242.402 47 241.898 46.448C241.394 45.896 240.752 45.62 239.972 45.62C239.192 45.62 238.55 45.896 238.046 46.448C237.542 47 237.29 47.684 237.29 48.5C237.29 49.316 237.542 50 238.046 50.552ZM247.154 53V44H249.134V45.224C249.698 44.288 250.61 43.82 251.87 43.82C252.914 43.82 253.748 44.162 254.372 44.846C254.996 45.53 255.308 46.442 255.308 47.582V53H253.328V47.906C253.328 47.186 253.16 46.628 252.824 46.232C252.488 45.824 252.032 45.62 251.456 45.62C250.772 45.62 250.214 45.878 249.782 46.394C249.35 46.91 249.134 47.636 249.134 48.572V53H247.154ZM261.642 53.09C260.73 53.09 259.986 52.838 259.41 52.334C258.846 51.818 258.564 51.074 258.564 50.102V45.764H256.692V44H258.564V41.498H260.544V44H263.118V45.764H260.544V49.778C260.544 50.33 260.664 50.726 260.904 50.966C261.144 51.194 261.528 51.308 262.056 51.308C262.488 51.308 262.842 51.248 263.118 51.128V52.892C262.686 53.024 262.194 53.09 261.642 53.09Z" fill="white"/>
</g>
<defs>
<clipPath id="clip0_10802_87655">
<rect width="386" height="93" fill="white"/>
</clipPath>
</defs>
</svg>
