<svg width="18" height="18" viewBox="0 0 18 18" fill="none" xmlns="http://www.w3.org/2000/svg">
<path d="M8.21191 9.52503L7.12441 8.45628C6.98691 8.31878 6.81491 8.25003 6.60841 8.25003C6.40191 8.25003 6.22391 8.32503 6.07441 8.47503C5.93691 8.61253 5.86816 8.78753 5.86816 9.00003C5.86816 9.21253 5.93691 9.38753 6.07441 9.52503L7.68691 11.1375C7.83691 11.2875 8.01191 11.3625 8.21191 11.3625C8.41191 11.3625 8.58691 11.2875 8.73691 11.1375L11.9244 7.95003C12.0744 7.80003 12.1462 7.62503 12.1397 7.42503C12.1332 7.22503 12.0614 7.05003 11.9244 6.90003C11.7744 6.75003 11.5962 6.67203 11.3897 6.66603C11.1832 6.66003 11.0052 6.73178 10.8557 6.88128L8.21191 9.52503ZM6.11191 16.3125L5.02441 14.475L2.96191 14.025C2.77441 13.9875 2.62441 13.8905 2.51191 13.734C2.39941 13.5775 2.35566 13.4058 2.38066 13.2188L2.58691 11.1L1.18066 9.48753C1.05566 9.35003 0.993164 9.18753 0.993164 9.00003C0.993164 8.81253 1.05566 8.65003 1.18066 8.51253L2.58691 6.90003L2.38066 4.78128C2.35566 4.59378 2.39941 4.42178 2.51191 4.26528C2.62441 4.10878 2.77441 4.01203 2.96191 3.97503L5.02441 3.52503L6.11191 1.68753C6.21191 1.52503 6.34941 1.41553 6.52441 1.35903C6.69941 1.30253 6.87441 1.31203 7.04941 1.38753L8.99941 2.21253L10.9494 1.38753C11.1244 1.31253 11.2994 1.30303 11.4744 1.35903C11.6494 1.41503 11.7869 1.52453 11.8869 1.68753L12.9744 3.52503L15.0369 3.97503C15.2244 4.01253 15.3744 4.10953 15.4869 4.26603C15.5994 4.42253 15.6432 4.59428 15.6182 4.78128L15.4119 6.90003L16.8182 8.51253C16.9432 8.65003 17.0057 8.81253 17.0057 9.00003C17.0057 9.18753 16.9432 9.35003 16.8182 9.48753L15.4119 11.1L15.6182 13.2188C15.6432 13.4063 15.5994 13.5783 15.4869 13.7348C15.3744 13.8913 15.2244 13.988 15.0369 14.025L12.9744 14.475L11.8869 16.3125C11.7869 16.475 11.6494 16.5845 11.4744 16.641C11.2994 16.6975 11.1244 16.688 10.9494 16.6125L8.99941 15.7875L7.04941 16.6125C6.87441 16.6875 6.69941 16.697 6.52441 16.641C6.34941 16.585 6.21191 16.4755 6.11191 16.3125Z" fill="#4545FE"/>
</svg>
