<svg width="24" height="25" viewBox="0 0 24 25" fill="none" xmlns="http://www.w3.org/2000/svg">
<g id="Iconly/Bold/Play">
<g id="Play">
<path id="Play_2" fill-rule="evenodd" clip-rule="evenodd" d="M2 12.4501C2 6.93059 6.48842 2.44434 12 2.44434C17.5116 2.44434 22 6.93059 22 12.4501C22 17.9581 17.5116 22.4443 12 22.4443C6.48842 22.4443 2 17.9581 2 12.4501ZM15.668 13.4622C15.7741 13.3561 15.9093 13.192 15.9382 13.1535C16.0927 12.9508 16.1699 12.7 16.1699 12.4501C16.1699 12.1694 16.083 11.9089 15.9189 11.6966C15.9055 11.6832 15.8791 11.6545 15.8448 11.6172C15.7806 11.5473 15.6885 11.447 15.6004 11.359C14.8089 10.5099 12.7432 9.12065 11.6622 8.69614C11.4981 8.62957 11.083 8.48389 10.861 8.47424C10.6486 8.47424 10.4459 8.52248 10.2529 8.61896C10.0116 8.75403 9.81853 8.96628 9.71236 9.21713C9.64479 9.39079 9.53861 9.91177 9.53861 9.92142C9.43243 10.4906 9.37452 11.4168 9.37452 12.4395C9.37452 13.4149 9.43243 14.3015 9.51931 14.8804C9.52169 14.8828 9.53 14.9242 9.5429 14.9885C9.58211 15.184 9.6638 15.5914 9.75097 15.7584C9.96332 16.1636 10.3784 16.4144 10.8224 16.4144H10.861C11.1506 16.4048 11.7587 16.1539 11.7587 16.1443C12.7819 15.7198 14.7992 14.398 15.61 13.5201L15.668 13.4622Z" fill="white"/>
</g>
</g>
</svg>
