<svg width="21" height="25" viewBox="0 0 21 25" fill="none" xmlns="http://www.w3.org/2000/svg">
<path fill-rule="evenodd" clip-rule="evenodd" d="M6.4863 17.7025H12.8689C13.3499 17.7025 13.7488 17.2996 13.7488 16.8138C13.7488 16.3279 13.3499 15.9369 12.8689 15.9369H6.4863C6.00526 15.9369 5.60635 16.3279 5.60635 16.8138C5.60635 17.2996 6.00526 17.7025 6.4863 17.7025ZM10.4519 10.0119H6.4863C6.00526 10.0119 5.60635 10.4148 5.60635 10.9006C5.60635 11.3865 6.00526 11.7775 6.4863 11.7775H10.4519C10.933 11.7775 11.3319 11.3865 11.3319 10.9006C11.3319 10.4148 10.933 10.0119 10.4519 10.0119ZM18.8248 8.97574C19.1005 8.97256 19.4008 8.96909 19.6737 8.96909C19.967 8.96909 20.2016 9.20609 20.2016 9.50234V19.0297C20.2016 21.9685 17.8434 24.3504 14.9337 24.3504H5.59446C2.54397 24.3504 0.0566406 21.85 0.0566406 18.769V5.99474C0.0566406 3.05594 2.42664 0.650391 5.34808 0.650391H11.6133C11.9184 0.650391 12.153 0.899241 12.153 1.19549V5.01119C12.153 7.17974 13.9247 8.95724 16.0717 8.96909C16.5733 8.96909 17.0154 8.97284 17.4023 8.97612C17.7033 8.97867 17.9709 8.98094 18.2071 8.98094C18.3741 8.98094 18.5906 8.97844 18.8248 8.97574ZM19.1483 7.2459C18.1839 7.24945 17.047 7.2459 16.2293 7.2376C14.9316 7.2376 13.8628 6.15807 13.8628 4.84746V1.7238C13.8628 1.21306 14.4764 0.959472 14.8272 1.32801C15.4615 1.99418 16.333 2.90964 17.2008 3.82118C18.068 4.73217 18.9315 5.63923 19.5508 6.2896C19.8934 6.64866 19.6423 7.24471 19.1483 7.2459Z" fill="#4545FE"/>
</svg>
