<svg xmlns="http://www.w3.org/2000/svg" width="28" height="24" viewBox="0 0 28 24" fill="none">
<path fill-rule="evenodd" clip-rule="evenodd" d="M21.6912 7.17573H27.3327C27.3327 2.64612 24.6185 0 20.0201 0H7.9786C3.3801 0 0.666016 2.64612 0.666016 7.11796V16.882C0.666016 21.3539 3.3801 24 7.9786 24H20.0201C24.6185 24 27.3327 21.3539 27.3327 16.882V16.466H21.6912C19.0729 16.466 16.9504 14.3967 16.9504 11.844C16.9504 9.29132 19.0729 7.22196 21.6912 7.22196V7.17573ZM21.6912 9.16321H26.3371C26.8869 9.16321 27.3327 9.59773 27.3327 10.1339V13.508C27.3263 14.0415 26.8843 14.4724 26.3371 14.4785H21.7979C20.4724 14.496 19.3133 13.6112 19.0127 12.3524C18.8621 11.5711 19.0735 10.7648 19.5901 10.1496C20.1067 9.53453 20.8757 9.17343 21.6912 9.16321ZM21.8927 12.7107H22.3312C22.8941 12.7107 23.3504 12.2657 23.3504 11.7169C23.3504 11.1681 22.8941 10.7232 22.3312 10.7232H21.8927C21.6235 10.7201 21.3641 10.8221 21.1727 11.0067C20.9812 11.1912 20.8733 11.4428 20.8735 11.7053C20.8733 12.2561 21.3279 12.7043 21.8927 12.7107ZM6.98306 7.17573H14.5089C15.0719 7.17573 15.5283 6.73083 15.5283 6.18199C15.5283 5.63316 15.0719 5.18825 14.5089 5.18825H6.98306C6.42472 5.18821 5.97028 5.62613 5.96379 6.17044C5.96376 6.72116 6.41822 7.1694 6.98306 7.17573Z" fill="#4545FE"/>
</svg>