<svg width="40" height="40" viewBox="0 0 40 40" fill="none" xmlns="http://www.w3.org/2000/svg">
<g clip-path="url(#clip0_134_19152)">
<circle cx="20" cy="20" r="20" fill="#4545FE"/>
<path d="M24.5156 11C27.9645 11 30 12.9847 30 16.3818H25.7686V16.416C23.8051 16.4162 22.213 17.9685 22.2129 19.8828C22.2129 21.7972 23.805 23.3494 25.7686 23.3496H30V23.6611C30 27.015 27.9645 29 24.5156 29H15.4844C12.0355 29 10 27.015 10 23.6611V16.3389C10 12.985 12.0355 11 15.4844 11H24.5156ZM29.2539 17.8721C29.6658 17.8724 29.9996 18.1981 30 18.5996V21.1309C29.9951 21.5307 29.6639 21.8534 29.2539 21.8584H25.8496C24.8555 21.8714 23.9853 21.2077 23.7598 20.2637C23.6471 19.6779 23.8062 19.0734 24.1934 18.6123C24.5808 18.1511 25.1581 17.8797 25.7695 17.8721H29.2539ZM25.9199 19.042C25.7182 19.0398 25.5234 19.1167 25.3799 19.2549C25.2366 19.3931 25.1564 19.5818 25.1562 19.7783C25.1562 20.1913 25.4964 20.5273 25.9199 20.5322H26.249C26.6711 20.5321 27.0137 20.1987 27.0137 19.7871C27.0134 19.3758 26.6709 19.0421 26.249 19.042H25.9199ZM14.7373 14.8916C14.3188 14.8918 13.9785 15.2199 13.9736 15.6279C13.9737 16.0408 14.3139 16.3768 14.7373 16.3818H20.3818C20.804 16.3818 21.1464 16.0482 21.1465 15.6367C21.1465 15.2251 20.804 14.8916 20.3818 14.8916H14.7373Z" fill="white"/>
</g>
<defs>
<clipPath id="clip0_134_19152">
<rect width="40" height="40" fill="white"/>
</clipPath>
</defs>
</svg>
