<svg width="40" height="40" viewBox="0 0 40 40" fill="none" xmlns="http://www.w3.org/2000/svg">
<path d="M12.0232 21.8879L23.4368 14.8559C23.6924 14.6992 24.0196 14.7142 24.259 14.8992C25.3434 15.7343 26.3121 16.581 26.9585 17.2927C26.9585 17.2927 27.5153 17.8627 27.7563 18.2244C28.1454 18.7178 28.3327 19.3628 28.3327 19.9895C28.3327 20.6929 28.1275 21.3579 27.7189 21.8896C27.6261 21.9846 27.2727 22.403 26.939 22.7446C24.9917 24.8714 19.9085 28.3849 17.235 29.45C16.8459 29.6216 15.8071 29.98 15.2682 30C14.7488 30 14.2473 29.8867 13.7654 29.6383C13.1727 29.2966 12.7087 28.7666 12.4482 28.1382C12.2805 27.7016 12.0216 26.3915 12.0216 26.3532C11.8539 25.4181 11.7285 24.1047 11.6667 22.5713C11.6553 22.2963 11.7937 22.0296 12.0232 21.8879Z" fill="black"/>
<path opacity="0.4" d="M12.7866 18.1002C12.2835 18.4119 11.6501 18.0135 11.6745 17.4152C11.7348 16.0118 11.839 14.7751 11.966 13.855C11.9855 13.835 12.2444 12.2033 12.5423 11.6516C13.0617 10.6265 14.081 9.99981 15.1767 9.99981H15.2679C15.9745 10.0181 17.4773 10.6448 17.4773 10.6832C18.2344 10.9982 19.2227 11.5316 20.2859 12.1733C20.7646 12.4633 20.776 13.175 20.2973 13.47L12.7866 18.1002Z" fill="black"/>
</svg>
