<svg width="25" height="24" viewBox="0 0 25 24" fill="none" xmlns="http://www.w3.org/2000/svg">
<path d="M22.0589 10.74L20.7089 9.15999C20.4589 8.85999 20.2489 8.29999 20.2489 7.89999V6.19999C20.2489 5.13999 19.3789 4.26999 18.3189 4.26999H16.6189C16.2189 4.26999 15.6489 4.05999 15.3489 3.80999L13.7689 2.45999C13.0789 1.86999 11.9489 1.86999 11.2589 2.45999L9.65891 3.80999C9.35891 4.05999 8.79891 4.26999 8.39891 4.26999H6.66891C5.60891 4.26999 4.73891 5.13999 4.73891 6.19999V7.89999C4.73891 8.28999 4.53891 8.84999 4.28891 9.14999L2.93891 10.74C2.35891 11.44 2.35891 12.56 2.93891 13.24L4.28891 14.83C4.53891 15.12 4.73891 15.69 4.73891 16.08V17.79C4.73891 18.85 5.60891 19.72 6.66891 19.72H8.40891C8.79891 19.72 9.36891 19.93 9.66891 20.18L11.2489 21.53C11.9389 22.12 13.0689 22.12 13.7589 21.53L15.3389 20.18C15.6389 19.93 16.1989 19.72 16.5989 19.72H18.2989C19.3589 19.72 20.2289 18.85 20.2289 17.79V16.09C20.2289 15.69 20.4389 15.13 20.6889 14.83L22.0389 13.25C22.6489 12.57 22.6489 11.44 22.0589 10.74ZM11.7489 8.12999C11.7489 7.71999 12.0889 7.37999 12.4989 7.37999C12.9089 7.37999 13.2489 7.71999 13.2489 8.12999V12.96C13.2489 13.37 12.9089 13.71 12.4989 13.71C12.0889 13.71 11.7489 13.37 11.7489 12.96V8.12999ZM12.4989 16.87C11.9489 16.87 11.4989 16.42 11.4989 15.87C11.4989 15.32 11.9389 14.87 12.4989 14.87C13.0489 14.87 13.4989 15.32 13.4989 15.87C13.4989 16.42 13.0589 16.87 12.4989 16.87Z" fill="#27272A"/>
</svg>
