<svg width="25" height="24" viewBox="0 0 25 24" fill="none" xmlns="http://www.w3.org/2000/svg">
<path d="M9.5 2C6.88 2 4.75 4.13 4.75 6.75C4.75 9.32 6.76 11.4 9.38 11.49C9.46 11.48 9.54 11.48 9.6 11.49C9.62 11.49 9.63 11.49 9.65 11.49C9.66 11.49 9.66 11.49 9.67 11.49C12.23 11.4 14.24 9.32 14.25 6.75C14.25 4.13 12.12 2 9.5 2Z" fill="#292D32"/>
<path d="M14.5809 14.15C11.7909 12.29 7.24094 12.29 4.43094 14.15C3.16094 15 2.46094 16.15 2.46094 17.38C2.46094 18.61 3.16094 19.75 4.42094 20.59C5.82094 21.53 7.66094 22 9.50094 22C11.3409 22 13.1809 21.53 14.5809 20.59C15.8409 19.74 16.5409 18.6 16.5409 17.36C16.5309 16.13 15.8409 14.99 14.5809 14.15Z" fill="#292D32"/>
<path d="M20.4894 7.34001C20.6494 9.28001 19.2694 10.98 17.3594 11.21C17.3494 11.21 17.3494 11.21 17.3394 11.21H17.3094C17.2494 11.21 17.1894 11.21 17.1394 11.23C16.1694 11.28 15.2794 10.97 14.6094 10.4C15.6394 9.48001 16.2294 8.10001 16.1094 6.60001C16.0394 5.79001 15.7594 5.05001 15.3394 4.42001C15.7194 4.23001 16.1594 4.11001 16.6094 4.07001C18.5694 3.90001 20.3194 5.36001 20.4894 7.34001Z" fill="#292D32"/>
<path d="M22.4902 16.59C22.4102 17.56 21.7902 18.4 20.7502 18.97C19.7502 19.52 18.4902 19.78 17.2402 19.75C17.9602 19.1 18.3802 18.29 18.4602 17.43C18.5602 16.19 17.9702 15 16.7902 14.05C16.1202 13.52 15.3402 13.1 14.4902 12.79C16.7002 12.15 19.4802 12.58 21.1902 13.96C22.1102 14.7 22.5802 15.63 22.4902 16.59Z" fill="#292D32"/>
</svg>
