<svg width="25" height="24" viewBox="0 0 25 24" fill="none" xmlns="http://www.w3.org/2000/svg">
<path d="M11.2509 2.45001C11.9509 1.86001 13.0809 1.86001 13.7609 2.45001L15.3409 3.80001C15.6409 4.05001 16.2109 4.26001 16.6109 4.26001H18.3109C19.3709 4.26001 20.2409 5.13001 20.2409 6.19001V7.89001C20.2409 8.29001 20.4509 8.85001 20.7009 9.15001L22.0509 10.73C22.6409 11.43 22.6409 12.56 22.0509 13.24L20.7009 14.82C20.4509 15.12 20.2409 15.68 20.2409 16.08V17.78C20.2409 18.84 19.3709 19.71 18.3109 19.71H16.6109C16.2109 19.71 15.6509 19.92 15.3509 20.17L13.7709 21.52C13.0709 22.11 11.9409 22.11 11.2609 21.52L9.68086 20.17C9.38086 19.92 8.81086 19.71 8.42086 19.71H6.67086C5.61086 19.71 4.74086 18.84 4.74086 17.78V16.07C4.74086 15.68 4.54086 15.11 4.29086 14.82L2.94086 13.23C2.36086 12.54 2.36086 11.42 2.94086 10.73L4.29086 9.14001C4.54086 8.84001 4.74086 8.28001 4.74086 7.89001V6.20001C4.74086 5.14001 5.61086 4.27001 6.67086 4.27001H8.40086C8.80086 4.27001 9.36086 4.06001 9.66086 3.81001L11.2509 2.45001Z" stroke="#27272A" stroke-width="1.5" stroke-linecap="round" stroke-linejoin="round"/>
<path d="M12.5 8.13V12.96" stroke="#27272A" stroke-width="1.5" stroke-linecap="round" stroke-linejoin="round"/>
<path d="M12.4941 16H12.5031" stroke="#27272A" stroke-width="2" stroke-linecap="round" stroke-linejoin="round"/>
</svg>
