<svg width="25" height="24" viewBox="0 0 25 24" fill="none" xmlns="http://www.w3.org/2000/svg">
<path d="M18.6367 10.8967C20.0317 10.7007 21.1057 9.5047 21.1087 8.0557C21.1087 6.6277 20.0677 5.4437 18.7027 5.2197" stroke="#27272A" stroke-width="1.5" stroke-linecap="round" stroke-linejoin="round"/>
<path d="M20.4805 14.2503C21.8315 14.4523 22.7745 14.9253 22.7745 15.9003C22.7745 16.5713 22.3305 17.0073 21.6125 17.2813" stroke="#27272A" stroke-width="1.5" stroke-linecap="round" stroke-linejoin="round"/>
<path fill-rule="evenodd" clip-rule="evenodd" d="M12.6387 14.6638C9.42469 14.6638 6.67969 15.1508 6.67969 17.0958C6.67969 19.0398 9.40769 19.5408 12.6387 19.5408C15.8527 19.5408 18.5967 19.0588 18.5967 17.1128C18.5967 15.1668 15.8697 14.6638 12.6387 14.6638Z" stroke="#27272A" stroke-width="1.5" stroke-linecap="round" stroke-linejoin="round"/>
<path fill-rule="evenodd" clip-rule="evenodd" d="M12.6354 11.8879C14.7444 11.8879 16.4544 10.1789 16.4544 8.06891C16.4544 5.95991 14.7444 4.24991 12.6354 4.24991C10.5264 4.24991 8.81643 5.95991 8.81643 8.06891C8.80843 10.1709 10.5054 11.8809 12.6074 11.8879H12.6354Z" stroke="#27272A" stroke-width="1.5" stroke-linecap="round" stroke-linejoin="round"/>
<path d="M6.63606 10.8967C5.24006 10.7007 4.16706 9.5047 4.16406 8.0557C4.16406 6.6277 5.20506 5.4437 6.57006 5.2197" stroke="#27272A" stroke-width="1.5" stroke-linecap="round" stroke-linejoin="round"/>
<path d="M4.794 14.2503C3.443 14.4523 2.5 14.9253 2.5 15.9003C2.5 16.5713 2.944 17.0073 3.662 17.2813" stroke="#27272A" stroke-width="1.5" stroke-linecap="round" stroke-linejoin="round"/>
</svg>
