<svg width="25" height="24" viewBox="0 0 25 24" fill="none" xmlns="http://www.w3.org/2000/svg">
<path d="M20.75 10.19H17.86C15.49 10.19 13.56 8.26 13.56 5.89V3C13.56 2.45 13.11 2 12.56 2H8.32C5.24 2 2.75 4 2.75 7.57V16.43C2.75 20 5.24 22 8.32 22H16.18C19.26 22 21.75 20 21.75 16.43V11.19C21.75 10.64 21.3 10.19 20.75 10.19ZM14 14.94C14 14.99 14 15.05 14 15.1C13.98 15.24 13.92 15.37 13.82 15.49C13.81 15.5 13.79 15.52 13.78 15.53L11.78 17.53C11.63 17.68 11.44 17.75 11.25 17.75C11.06 17.75 10.87 17.68 10.72 17.53C10.43 17.24 10.43 16.76 10.72 16.47L11.44 15.75H7.25C6.84 15.75 6.5 15.41 6.5 15C6.5 14.59 6.84 14.25 7.25 14.25H11.44L10.72 13.53C10.57 13.38 10.5 13.19 10.5 13C10.5 12.81 10.57 12.62 10.72 12.47C11.01 12.18 11.49 12.18 11.78 12.47L13.78 14.47C13.91 14.61 13.98 14.77 14 14.94Z" fill="black"/>
<path d="M17.6797 8.80999C18.6297 8.81999 19.9497 8.81999 21.0797 8.81999C21.6497 8.81999 21.9497 8.14999 21.5497 7.74999C20.1097 6.29999 17.5297 3.68999 16.0497 2.20999C15.6397 1.79999 14.9297 2.07999 14.9297 2.64999V6.13999C14.9297 7.59999 16.1697 8.80999 17.6797 8.80999Z" fill="black"/>
</svg>
