<svg width="25" height="24" viewBox="0 0 25 24" fill="none" xmlns="http://www.w3.org/2000/svg">
<path d="M12.6991 14.54C16.1302 14.5401 19.0594 15.084 19.0594 17.2607C19.0591 19.4362 16.1488 20 12.6991 20C9.26793 20 6.33782 19.4561 6.33773 17.2803C6.33773 15.1035 9.24907 14.54 12.6991 14.54ZM7.31527 13.2295C7.33496 13.2322 7.34473 13.2468 7.34652 13.2549C7.34902 13.2683 7.34376 13.2875 7.31917 13.3018C6.7121 13.6035 4.36844 14.9161 4.66292 17.6826C4.67546 17.8033 4.58084 17.9058 4.46175 17.8887C3.88505 17.8058 2.40146 17.4851 1.94124 16.4863C1.68626 15.9578 1.68625 15.3459 1.94124 14.8174C2.24208 14.1735 2.9672 13.7297 4.07113 13.5117C4.59312 13.3847 6.00265 13.2052 7.31527 13.2295ZM18.1854 13.2285C19.4967 13.2043 20.9062 13.3848 21.4276 13.5127C22.5316 13.7297 23.2585 14.1725 23.5594 14.8164C23.8137 15.345 23.8136 15.9586 23.5594 16.4863C23.0993 17.4849 21.6158 17.8057 21.0389 17.8887C20.9199 17.9067 20.8235 17.8032 20.8358 17.6836C21.1303 14.9162 18.7878 13.6035 18.1815 13.3018C18.1555 13.2882 18.1505 13.2675 18.1532 13.2549C18.1551 13.2459 18.1658 13.2312 18.1854 13.2285ZM12.6991 4C15.0349 4.0001 16.9078 5.8821 16.908 8.23242C16.908 10.582 15.0351 12.4667 12.6991 12.4668C10.3629 12.4668 8.48909 10.5821 8.48909 8.23242C8.48932 5.88204 10.3631 4 12.6991 4ZM7.08577 4.70605C7.33102 4.70606 7.56562 4.73152 7.79476 4.77832C7.8252 4.78553 7.85986 4.80111 7.87777 4.82812C7.89828 4.86234 7.88264 4.90878 7.86116 4.93848C7.18344 5.89398 6.7928 7.05962 6.7928 8.30957C6.79289 9.50721 7.15047 10.6233 7.77718 11.5508C7.84126 11.6462 7.7842 11.775 7.67073 11.7949C7.51326 11.8228 7.35196 11.8373 7.18734 11.8418C5.54431 11.885 4.0694 10.8209 3.66195 9.21973C3.05755 6.84122 4.82936 4.70605 7.08577 4.70605ZM18.4129 4.70605C20.6693 4.70605 22.4412 6.84122 21.8377 9.21973C21.4303 10.8208 19.9562 11.8849 18.3133 11.8418C18.1487 11.8373 17.9864 11.8219 17.8299 11.7949C17.7163 11.7751 17.6584 11.6462 17.7225 11.5508C18.3492 10.6232 18.7068 9.50725 18.7069 8.30957C18.7069 7.05955 18.3163 5.89401 17.6385 4.93848C17.617 4.90876 17.6014 4.86235 17.6229 4.82812C17.6408 4.80046 17.6737 4.78649 17.7049 4.7793C17.9331 4.73249 18.1677 4.70608 18.4129 4.70605Z" fill="#27272A"/>
</svg>
