<svg xmlns="http://www.w3.org/2000/svg" width="16" height="16" viewBox="0 0 16 16" fill="none">
  <g clip-path="url(#clip0_122_5508)">
    <path d="M13.6571 2.34324C12.5386 1.22573 11.1138 0.464927 9.56296 0.157005C8.01209 -0.150917 6.40475 0.0078663 4.9441 0.613284C3.48346 1.2187 2.2351 2.24357 1.35682 3.55835C0.478534 4.87312 0.00976562 6.41877 0.00976562 7.99991C0.00976562 9.58105 0.478534 11.1267 1.35682 12.4415C2.2351 13.7562 3.48346 14.7811 4.9441 15.3865C6.40475 15.992 8.01209 16.1507 9.56296 15.8428C11.1138 15.5349 12.5386 14.7741 13.6571 13.6566C15.1552 12.1552 15.9965 10.1208 15.9965 7.99991C15.9965 5.87897 15.1552 3.84464 13.6571 2.34324ZM14.6231 7.28791C13.8237 7.38489 13.0127 7.29874 12.2514 7.03598C11.4902 6.77322 10.7987 6.34074 10.2293 5.77127C9.65989 5.2018 9.22748 4.51026 8.96481 3.74899C8.70214 2.98773 8.61608 2.17668 8.71315 1.37724C10.2263 1.53633 11.6389 2.2102 12.7147 3.28611C13.7905 4.36203 14.4642 5.77474 14.6231 7.28791ZM1.37782 8.71191C2.17726 8.61493 2.9883 8.70108 3.74954 8.96384C4.51077 9.2266 5.20226 9.65908 5.77167 10.2285C6.34108 10.798 6.77348 11.4896 7.03615 12.2508C7.29883 13.0121 7.38489 13.8231 7.28782 14.6226C5.77466 14.4635 4.36203 13.7896 3.28624 12.7137C2.21044 11.6378 1.53673 10.2251 1.37782 8.71191ZM12.7145 12.7119C11.6192 13.8096 10.1739 14.4887 8.62982 14.6312C8.72548 13.6534 8.60321 12.6666 8.2718 11.7417C7.94038 10.8168 7.40806 9.97682 6.71315 9.28229C6.01824 8.58776 5.17801 8.05591 4.25293 7.725C3.32784 7.3941 2.34091 7.27237 1.36315 7.36858C1.50816 5.82477 2.18788 4.38011 3.28487 3.28421C4.38186 2.18832 5.8272 1.51004 7.37115 1.36658C7.2815 2.29095 7.38624 3.22385 7.67864 4.10532C7.97105 4.98679 8.44465 5.79733 9.069 6.48485C9.69335 7.17237 10.4546 7.72165 11.304 8.09738C12.1533 8.47312 13.0718 8.66701 14.0005 8.66658C14.2118 8.66658 14.4238 8.65591 14.6358 8.63591C14.491 10.1778 13.8113 11.6205 12.7145 12.7139V12.7119Z" fill="black"/>
  </g>
  <defs>
    <clipPath id="clip0_122_5508">
      <rect width="16" height="16" fill="white"/>
    </clipPath>
  </defs>
</svg>