<svg width="16" height="16" viewBox="0 0 16 16" fill="none" xmlns="http://www.w3.org/2000/svg">
<path opacity="0.4" d="M9.61152 3.66C9.29416 3.60138 9.0027 3.8039 8.94228 4.11369C8.88186 4.42348 9.08502 4.72594 9.39375 4.78656C10.3233 4.96777 11.041 5.68728 11.2229 6.61997V6.62064C11.2747 6.88912 11.511 7.08432 11.7833 7.08432C11.8198 7.08432 11.8563 7.08099 11.8935 7.07432C12.2022 7.01237 12.4054 6.71057 12.3449 6.40012C12.0734 5.00708 11.0011 3.93115 9.61152 3.66Z" fill="#4545FE"/>
<path opacity="0.4" d="M9.56926 1.33878C9.42054 1.31746 9.27116 1.36143 9.15231 1.45604C9.03015 1.55197 8.9538 1.69054 8.9372 1.84577C8.90201 2.15955 9.12841 2.44336 9.44179 2.47867C11.6029 2.71983 13.2826 4.40334 13.5256 6.57119C13.5582 6.86166 13.8018 7.08084 14.0926 7.08084C14.1146 7.08084 14.1358 7.07951 14.1577 7.07684C14.3098 7.06019 14.4452 6.98491 14.5408 6.86499C14.6357 6.74507 14.6789 6.59584 14.6616 6.44328C14.3589 3.73847 12.2655 1.63924 9.56926 1.33878Z" fill="#4545FE"/>
<path fill-rule="evenodd" clip-rule="evenodd" d="M7.35515 8.64826C10.0145 11.3069 10.6178 8.23115 12.3111 9.92321C13.9435 11.5552 14.8817 11.8821 12.8135 13.9498C12.5544 14.158 10.9084 16.6628 5.12372 10.8798C-0.661668 5.096 1.84171 3.4483 2.04996 3.1893C4.12323 1.1159 4.44456 2.05959 6.07698 3.69155C7.77023 5.38433 4.69576 5.98961 7.35515 8.64826Z" fill="#4545FE"/>
</svg>
