<svg xmlns="http://www.w3.org/2000/svg" width="16" height="16" viewBox="0 0 16 16" fill="none">
  <path d="M2.66602 10.0002H3.99935C4.35297 10.0002 4.69211 10.1406 4.94216 10.3907C5.19221 10.6407 5.33268 10.9799 5.33268 11.3335V12.6668H5.99935V11.3335C5.99935 10.9799 6.13983 10.6407 6.38987 10.3907C6.63992 10.1406 6.97906 10.0002 7.33268 10.0002H8.66602C9.01964 10.0002 9.35878 10.1406 9.60882 10.3907C9.85887 10.6407 9.99935 10.9799 9.99935 11.3335V12.6668H10.666V11.3335C10.666 10.9799 10.8065 10.6407 11.0565 10.3907C11.3066 10.1406 11.6457 10.0002 11.9993 10.0002H13.3327C13.6863 10.0002 14.0254 10.1406 14.2755 10.3907C14.5255 10.6407 14.666 10.9799 14.666 11.3335V12.6668H15.3327V14.6668H0.666016V12.6668H1.33268V11.3335C1.33268 10.9799 1.47316 10.6407 1.72321 10.3907C1.97326 10.1406 2.31239 10.0002 2.66602 10.0002ZM7.33268 4.66683L9.99935 6.66683L7.33268 8.66683V4.66683ZM2.66602 1.3335H13.3327C13.6863 1.3335 14.0254 1.47397 14.2755 1.72402C14.5255 1.97407 14.666 2.31321 14.666 2.66683V9.02683C14.2623 8.78852 13.8015 8.6641 13.3327 8.66683V2.66683H2.66602V8.66683C2.17935 8.66683 1.72602 8.7935 1.33268 9.02683V2.66683C1.33268 2.31321 1.47316 1.97407 1.72321 1.72402C1.97326 1.47397 2.31239 1.3335 2.66602 1.3335Z" fill="black"/>
</svg>