<svg width="19" height="21" viewBox="0 0 19 21" fill="none" xmlns="http://www.w3.org/2000/svg">
<g id="Document">
<path id="Path" opacity="0.4" d="M13.941 0.935059H5.56C2.52 0.935059 0.75 2.71506 0.75 5.76506V16.0951C0.75 19.1951 2.52 20.9351 5.56 20.9351H13.941C17.03 20.9351 18.75 19.1951 18.75 16.0951V5.76506C18.75 2.71506 17.03 0.935059 13.941 0.935059Z" fill="#064B38"/>
<path id="Combined Shape" fill-rule="evenodd" clip-rule="evenodd" d="M5.83094 5.58496V5.59496C5.39994 5.59496 5.05094 5.94496 5.05094 6.37496C5.05094 6.80496 5.39994 7.15496 5.83094 7.15496H8.81994C9.25094 7.15496 9.60094 6.80496 9.60094 6.36396C9.60094 5.93496 9.25094 5.58496 8.81994 5.58496H5.83094ZM13.6709 11.675H5.83094C5.39994 11.675 5.05094 11.325 5.05094 10.895C5.05094 10.465 5.39994 10.114 5.83094 10.114H13.6709C14.1009 10.114 14.4509 10.465 14.4509 10.895C14.4509 11.325 14.1009 11.675 13.6709 11.675ZM13.6709 16.245H5.83094C5.53094 16.285 5.24094 16.135 5.08094 15.885C4.92094 15.625 4.92094 15.295 5.08094 15.045C5.24094 14.785 5.53094 14.645 5.83094 14.675H13.6709C14.0699 14.715 14.3709 15.055 14.3709 15.465C14.3709 15.864 14.0699 16.205 13.6709 16.245Z" fill="#064B38"/>
</g>
</svg>
