<svg xmlns="http://www.w3.org/2000/svg" width="16" height="16" viewBox="0 0 16 16" fill="none">
  <path d="M1.71512 10.8571C2.34598 10.8571 2.85798 10.0891 2.85798 9.14279C2.85798 8.1965 2.34598 7.4285 1.71512 7.4285C1.08427 7.4285 0.572266 8.1965 0.572266 9.14279C0.572266 10.0891 1.08427 10.8571 1.71512 10.8571ZM5.14369 5.71422C5.77455 5.71422 6.28655 4.94622 6.28655 3.99993C6.28655 3.05364 5.77455 2.28564 5.14369 2.28564C4.51284 2.28564 4.00084 3.05364 4.00084 3.99993C4.00084 4.94622 4.51284 5.71422 5.14369 5.71422ZM10.858 5.71422C11.4888 5.71422 12.0008 4.94622 12.0008 3.99993C12.0008 3.05364 11.4888 2.28564 10.858 2.28564C10.2271 2.28564 9.71512 3.05364 9.71512 3.99993C9.71512 4.94622 10.2271 5.71422 10.858 5.71422ZM14.2866 10.8571C14.9174 10.8571 15.4294 10.0891 15.4294 9.14279C15.4294 8.1965 14.9174 7.4285 14.2866 7.4285C13.6557 7.4285 13.1437 8.1965 13.1437 9.14279C13.1437 10.0891 13.6557 10.8571 14.2866 10.8571ZM11.4294 11.4285C11.4294 13.0056 9.57798 13.7142 8.00084 13.7142C6.42369 13.7142 4.57227 13.0056 4.57227 11.4285C4.57227 9.85136 5.71512 7.4285 8.00084 7.4285C10.2866 7.4285 11.4294 9.85136 11.4294 11.4285Z" stroke="#27272A" stroke-width="1.14286" stroke-linecap="round" stroke-linejoin="round"/>
</svg>