<svg xmlns="http://www.w3.org/2000/svg" width="16" height="16" viewBox="0 0 16 16" fill="none">
  <g clip-path="url(#clip0_122_5536)">
    <path d="M2.00014 11.9998C1.62015 11.9996 1.24458 11.9182 0.898618 11.761C0.552652 11.6039 0.244272 11.3746 -0.00585938 11.0885L1.00014 10.2098C1.17898 10.4126 1.41525 10.5563 1.6776 10.6217C1.93995 10.6871 2.21599 10.6712 2.4691 10.5761C2.72221 10.481 2.94042 10.3112 3.0948 10.0892C3.24917 9.86722 3.33241 9.60355 3.33347 9.33317H4.66681C4.66681 9.68679 4.80728 10.0259 5.05733 10.276C5.30738 10.526 5.64652 10.6665 6.00014 10.6665C6.35376 10.6665 6.6929 10.526 6.94295 10.276C7.193 10.0259 7.33347 9.68679 7.33347 9.33317H8.66681C8.66681 9.68679 8.80728 10.0259 9.05733 10.276C9.30738 10.526 9.64652 10.6665 10.0001 10.6665C10.3538 10.6665 10.6929 10.526 10.943 10.276C11.193 10.0259 11.3335 9.68679 11.3335 9.33317H12.6668C12.6677 9.60361 12.7509 9.86737 12.9052 10.0895C13.0595 10.3115 13.2777 10.4814 13.5309 10.5766C13.784 10.6718 14.0601 10.6878 14.3225 10.6224C14.5849 10.557 14.8213 10.4133 15.0001 10.2105L16.0041 11.0878C15.755 11.3746 15.4471 11.6044 15.1013 11.7615C14.7555 11.9187 14.3799 11.9996 14 11.9987C13.6202 11.9978 13.2449 11.9152 12.8999 11.7564C12.5548 11.5976 12.2479 11.3664 12.0001 11.0785C11.7531 11.3674 11.4464 11.5994 11.1012 11.7585C10.7559 11.9175 10.3803 11.9999 10.0001 11.9999C9.62 11.9999 9.24438 11.9175 8.89912 11.7585C8.55387 11.5994 8.24717 11.3674 8.00014 11.0785C7.75311 11.3674 7.44642 11.5994 7.10116 11.7585C6.7559 11.9175 6.38028 11.9999 6.00014 11.9999C5.62001 11.9999 5.24438 11.9175 4.89912 11.7585C4.55386 11.5994 4.24717 11.3674 4.00014 11.0785C3.75233 11.3665 3.44548 11.5978 3.1004 11.7568C2.75531 11.9158 2.38008 11.9987 2.00014 11.9998ZM14.0001 13.9998C13.6465 13.9998 13.3074 13.8594 13.0573 13.6093C12.8073 13.3593 12.6668 13.0201 12.6668 12.6665H11.3335C11.3335 13.0201 11.193 13.3593 10.943 13.6093C10.6929 13.8594 10.3538 13.9998 10.0001 13.9998C9.64652 13.9998 9.30738 13.8594 9.05733 13.6093C8.80728 13.3593 8.66681 13.0201 8.66681 12.6665H7.33347C7.33347 13.0201 7.193 13.3593 6.94295 13.6093C6.6929 13.8594 6.35376 13.9998 6.00014 13.9998C5.64652 13.9998 5.30738 13.8594 5.05733 13.6093C4.80728 13.3593 4.66681 13.0201 4.66681 12.6665H3.33347C3.33241 12.9369 3.24917 13.2006 3.0948 13.4225C2.94042 13.6445 2.72221 13.8143 2.4691 13.9094C2.21599 14.0045 1.93995 14.0204 1.6776 13.955C1.41525 13.8896 1.17898 13.746 1.00014 13.5432L-0.00585938 14.4218C0.243377 14.7088 0.551481 14.9387 0.897502 15.096C1.24352 15.2532 1.61935 15.3341 1.99943 15.3332C2.37951 15.3322 2.75492 15.2494 3.10016 15.0905C3.44539 14.9315 3.75234 14.7 4.00014 14.4118C4.24717 14.7008 4.55386 14.9327 4.89912 15.0918C5.24438 15.2509 5.62001 15.3332 6.00014 15.3332C6.38028 15.3332 6.7559 15.2509 7.10116 15.0918C7.44642 14.9327 7.75311 14.7008 8.00014 14.4118C8.24717 14.7008 8.55387 14.9327 8.89912 15.0918C9.24438 15.2509 9.62 15.3332 10.0001 15.3332C10.3803 15.3332 10.7559 15.2509 11.1012 15.0918C11.4464 14.9327 11.7531 14.7008 12.0001 14.4118C12.2479 14.7001 12.5549 14.9316 12.9002 15.0906C13.2454 15.2496 13.6209 15.3323 14.001 15.3332C14.3811 15.3341 14.757 15.2531 15.103 15.0957C15.449 14.9383 15.757 14.7083 16.0061 14.4212L15.0001 13.5438C14.8754 13.6865 14.7217 13.801 14.5493 13.8797C14.3769 13.9583 14.1897 13.9993 14.0001 13.9998ZM3.16281 7.99984L8.10614 4.53917L10.5395 7.99984H12.1695L7.61081 1.51584H7.60747C7.42322 1.25389 7.17875 1.04002 6.89464 0.892222C6.61052 0.744422 6.29507 0.667012 5.97481 0.666504H1.33347V1.99984H5.97481C6.0816 1.99989 6.18681 2.02559 6.2816 2.07478C6.37638 2.12397 6.45796 2.19521 6.51947 2.2825L7.33947 3.44784L0.837474 7.99984H3.16281ZM12.3335 5.33317C12.6631 5.33317 12.9853 5.23542 13.2594 5.05229C13.5335 4.86915 13.7471 4.60885 13.8733 4.30431C13.9994 3.99977 14.0324 3.66466 13.9681 3.34135C13.9038 3.01805 13.7451 2.72108 13.512 2.48799C13.2789 2.25491 12.9819 2.09617 12.6586 2.03186C12.3353 1.96755 12.0002 2.00056 11.6957 2.1267C11.3911 2.25285 11.1308 2.46647 10.9477 2.74055C10.7646 3.01464 10.6668 3.33687 10.6668 3.6665C10.6668 4.10853 10.8424 4.53245 11.155 4.84502C11.4675 5.15758 11.8914 5.33317 12.3335 5.33317Z" fill="#3D3D3D"/>
  </g>
  <defs>
    <clipPath id="clip0_122_5536">
      <rect width="16" height="16" fill="white"/>
    </clipPath>
  </defs>
</svg>