<svg xmlns="http://www.w3.org/2000/svg" width="12" height="12" viewBox="0 0 12 12" fill="none">
  <path d="M10.7814 5.37027L10.1014 4.58027C9.97141 4.43027 9.86641 4.15027 9.86641 3.95027V3.10027C9.86641 2.57027 9.43141 2.13527 8.90141 2.13527H8.05141C7.85641 2.13527 7.57141 2.03027 7.42141 1.90027L6.63141 1.22027C6.28641 0.925273 5.72141 0.925273 5.37141 1.22027L4.58641 1.90527C4.43641 2.03027 4.15141 2.13527 3.95641 2.13527H3.09141C2.56141 2.13527 2.12641 2.57027 2.12641 3.10027V3.95527C2.12641 4.15027 2.02141 4.43027 1.89641 4.58027L1.22141 5.37527C0.931406 5.72027 0.931406 6.28027 1.22141 6.62527L1.89641 7.42027C2.02141 7.57027 2.12641 7.85027 2.12641 8.04527V8.90027C2.12641 9.43027 2.56141 9.86527 3.09141 9.86527H3.95641C4.15141 9.86527 4.43641 9.97027 4.58641 10.1003L5.37641 10.7803C5.72141 11.0753 6.28641 11.0753 6.63641 10.7803L7.42641 10.1003C7.57641 9.97027 7.85641 9.86527 8.05641 9.86527H8.90641C9.43641 9.86527 9.87141 9.43027 9.87141 8.90027V8.05027C9.87141 7.85527 9.97641 7.57027 10.1064 7.42027L10.7864 6.63027C11.0764 6.28527 11.0764 5.71527 10.7814 5.37027ZM8.08141 5.05527L5.66641 7.47027C5.59641 7.54027 5.50141 7.58027 5.40141 7.58027C5.30141 7.58027 5.20641 7.54027 5.13641 7.47027L3.92641 6.26027C3.78141 6.11527 3.78141 5.87527 3.92641 5.73027C4.07141 5.58527 4.31141 5.58527 4.45641 5.73027L5.40141 6.67527L7.55141 4.52527C7.69641 4.38027 7.93641 4.38027 8.08141 4.52527C8.22641 4.67027 8.22641 4.91027 8.08141 5.05527Z" fill="#4545FE"/>
</svg>