<svg width="1290" height="633" viewBox="0 0 1290 633" fill="none" xmlns="http://www.w3.org/2000/svg">
<g opacity="0.05">
<path fill-rule="evenodd" clip-rule="evenodd" d="M294.222 291.836C294.176 281.517 275.973 269.912 268.197 263.93C252.822 252.097 236.831 241.17 220.989 230.068C205.146 218.967 189.261 207.895 174.154 195.707C164.345 187.795 152.82 178.885 146.167 167.587C131.996 143.512 176.678 147.088 188.252 146.561C217.695 145.216 251.468 145.83 279.067 133.293C295.542 125.808 302.112 113.256 298.573 94.962C297.433 89.0124 294.057 82.1661 296.917 76.37C299.97 70.1797 306.996 66.6076 312.828 64.2121C334.096 55.4849 358.55 54.4737 381.054 53.3783C405.319 52.1746 429.813 52.5267 453.908 52.4334C464.124 52.3943 474.794 48.5212 484.523 45.3734C497.278 41.2475 509.881 36.6131 522.53 32.1321C550.357 22.2974 579.031 11.9391 608.472 9.44135C626.909 7.87647 647.06 9.99207 661.383 23.6035C668.574 30.4378 672.338 40.5975 676.496 49.6226C681.528 60.5256 686.362 71.5339 691.719 82.2654C708.979 116.828 733.621 150.602 773.618 152.3C779.669 152.556 785.611 151.722 791.633 151.566C795.468 151.469 798.882 152.447 800.307 156.681C803.892 167.302 792.626 184.067 788.006 192.493C777.892 210.938 766.487 228.555 755.802 246.629C748.734 258.582 736.498 274.917 736.37 289.44C736.256 302.381 752.566 311.734 761.445 318.108C769.766 324.075 784.841 332.426 785.754 344.566C786.196 350.453 782.517 355.331 778.676 359.117C771.944 365.737 764.188 370.408 758.132 377.961C748.2 390.354 739.903 407.405 741.251 424.104C742.187 435.675 748.443 443.253 756.401 450.497C759.746 453.542 762.46 455.697 762.637 460.641C762.922 468.493 760.008 476.802 757.607 484.081C749.019 510.133 736.82 535.325 723.25 558.846C716.47 570.601 709.144 582.32 700.154 592.347C694.266 598.931 686.324 606.768 677.342 606.759C666.943 606.759 655.94 602.798 645.831 599.837C626.952 594.303 608.301 587.905 589.724 581.342C546.762 566.156 504.205 549.741 462.051 532.096C432.359 519.646 402.037 507.178 374.122 490.627C368.678 487.376 363.539 483.586 358.775 479.308C353.686 474.815 347.37 472.805 340.965 471.306C301.217 462.004 257.67 469.146 217.755 473.624C207.624 474.758 197.493 475.899 187.333 476.693C178.6 477.376 168.143 479.335 159.655 476.392C142.928 470.599 157.55 449.248 163.732 440.548C185.497 409.915 213.578 383.998 239.606 357.54C251.981 344.939 264.45 332.372 276.152 319.059C282.246 312.137 294.262 300.882 294.222 291.836Z" stroke="#101828"/>
<path fill-rule="evenodd" clip-rule="evenodd" d="M301.722 290.097C295.05 279.178 283.346 271.107 273.63 263.512C259.648 252.577 245.228 242.251 231.023 231.626C217.593 221.579 204.133 211.418 191.695 200.009C184.111 193.051 174.595 184.731 171.003 174.44C163.21 152.135 205.132 155.519 215.481 154.936C241.21 153.492 270.38 153.161 294.183 141.418C309.046 134.084 315.152 121.923 311.982 105.038C310.887 99.1967 308.912 94.2093 311.412 88.3978C314.302 81.6718 320.951 77.4785 327.045 74.5186C346.137 65.2448 368.705 63.2745 389.4 61.6351C410.781 59.9416 433.057 58.7474 453.75 59.9867C462.024 60.48 471.549 57.6795 479.738 55.5318C492.339 52.2229 504.811 48.4057 517.349 44.8562C542.829 37.6369 568.972 30.6823 595.48 29.8911C614.618 29.3196 634.571 32.4179 650.493 44.393C666.629 56.5365 673.788 75.3609 682.736 93.2558C698.19 124.194 719.063 161.809 754.815 168.346C760.237 169.338 765.447 168.8 770.863 169.044C773.648 169.167 776.818 169.558 778.23 172.455C781.897 179.975 771.85 193.725 768.469 199.485C759.127 215.404 748.624 230.543 738.834 246.155C731.058 258.551 721.203 272.325 718.195 287.02C714.546 304.851 738.391 317.539 746.778 330.095C761.316 351.867 733.772 364.272 720.193 374.653C704.599 386.571 691.727 408.313 705.706 426.753C711.053 433.804 717.633 438.006 720.021 447.207C723.756 461.598 720.932 478.043 717.901 492.268C713.336 513.652 706.111 534.805 696.29 554.132C689.253 567.969 677.58 589.666 660.486 588.038C648.978 586.953 637.279 582.985 626.074 579.478C609.296 574.228 592.729 568.245 576.251 562.031C538.213 547.725 500.594 531.95 463.714 514.6C438.55 502.757 368.357 454.361 363.075 452.634C347.327 447.49 329.422 448.396 313.186 449.193C291.589 450.252 270.1 452.995 248.629 455.537C238.408 456.74 228.136 458.211 217.861 458.803C210.548 459.225 200.943 459.586 194.537 455.101C182.034 446.35 195.964 426.329 201.725 417.858C219.373 391.889 241.698 369.401 262.63 346.408C272.902 335.118 283.332 323.847 292.656 311.652C296.417 306.728 305.845 296.841 301.722 290.097Z" stroke="#101828"/>
<path fill-rule="evenodd" clip-rule="evenodd" d="M310.951 284.497C292.732 262.646 267.586 246.395 245.884 228.146C234.991 218.984 224.03 209.572 214.635 198.659C209.748 192.984 203.645 185.808 202.704 177.897C200.188 156.736 237.972 159.597 249.281 158.794C271.147 157.235 295.847 156.053 315.684 145.254C327.803 138.652 333.772 127.817 331.507 113.576C330.502 107.258 328.939 101.89 331.507 95.6853C334.108 89.3997 339.529 84.9646 345.018 81.6398C360.792 72.0775 380.395 69.0204 398.155 66.7427C418.989 64.0897 439.979 63.0539 460.957 63.6435C479.33 64.1521 497.615 58.4321 515.554 54.662C539.319 49.6702 563.515 45.3103 587.834 45.9693C607.04 46.4928 626.397 50.606 642.816 61.5373C659.5 72.6702 669.531 89.3335 678.575 107.315C692.246 134.497 709.284 170.923 739.277 181.246C743.64 182.751 747.705 182.916 752.204 183.178C754.39 183.304 757.211 183.343 758.295 185.748C760.903 191.537 751.263 202.76 748.572 206.671C739.985 219.158 730.676 231.083 721.874 243.404C713.658 254.907 704.708 266.895 699.604 280.374C691.482 301.843 717.449 314.396 716.722 334.853C716.268 347.554 704.739 356.662 695.61 362.963C684.369 370.71 668.184 375.805 662.558 389.943C658.367 400.474 664.944 406.604 670.008 414.595C678.589 428.135 679.174 446.49 678.281 462.163C677.077 483.342 672.373 504.835 664.364 524.303C660.735 533.128 656.291 542.308 649.746 549.162C643.615 555.586 637.812 557.232 629.618 555.917C604.535 551.885 579.209 540.647 555.156 530.609C524.934 517.996 495.13 504.071 466.215 488.403C446.498 477.719 426.336 466.414 409.03 451.653C404.52 447.804 399.901 443.622 396.603 438.546C394.109 434.731 393.051 431.58 388.848 429.402C376.392 422.948 359.066 424.636 345.72 425.307C324.38 426.375 303.142 429.218 281.934 431.779C269.557 433.283 246.243 438.016 236.36 426.664C227.83 416.861 238.124 400.146 243.382 391.511C256.682 369.672 273.791 350.506 289.665 330.77C296.94 321.726 304.5 312.612 310.509 302.556C312.044 299.992 314.503 296.595 314.925 293.481C315.399 289.913 313.188 287.189 310.951 284.497Z" stroke="#101828"/>
<path fill-rule="evenodd" clip-rule="evenodd" d="M312.519 289.583C295.684 270.263 275.402 254.391 257.329 236.312C249.225 228.205 241.042 219.702 234.867 209.813C231.546 204.495 228.019 197.801 228.935 191.191C231.563 172.221 262.639 173.934 275.194 172.823C293.849 171.191 315.281 169.547 331.776 159.318C342.582 152.618 346.634 142.723 344.617 129.961C342.451 116.272 347.293 106.336 358.313 98.6991C372.129 89.1325 389.569 85.2329 405.611 82.4626C424.938 79.1409 444.51 77.6684 464.088 78.0632C483.129 78.4487 501.576 75.0821 520.491 72.893C545.569 69.9932 571.452 68.5629 596.248 74.507C617.837 79.6833 637.337 91.0897 651.955 108.729C667.223 127.14 674.782 150.335 687.18 170.703C694.913 183.408 705.696 200.213 720.145 205.151C724.965 206.799 733.747 204.576 729.898 212.68C727.698 217.314 723.581 221.379 720.328 225.167C715.072 231.289 709.642 237.242 704.298 243.279C692.907 256.149 680.709 269.293 672.171 284.533C661.414 303.721 677.404 318.488 675.455 337.943C674.408 348.413 667.509 356.769 660.21 363.334C655.487 367.585 650.32 371.268 645.044 374.704C639.534 378.293 633.014 381.027 628.209 385.668C621.361 392.271 624.334 400.088 625.618 408.625C627.878 423.628 628.375 438.867 627.096 453.998C625.533 472.544 621.866 491.62 614.142 508.474C611.137 515.035 607.331 521.991 601.678 526.391C596.026 530.79 590.179 530.489 583.702 529.164C564.49 525.249 545.318 516.141 527.094 507.507C504.284 496.7 481.922 484.622 460.567 470.882C445.826 461.397 431.037 451.15 418.705 438.289C415.118 434.546 411.705 430.538 408.946 426.063C407.052 422.995 406.036 419.035 403.291 416.728C394.702 409.529 377.459 411.679 367.387 412.097C347.285 412.931 327.499 416.897 307.423 417.861C296.466 418.388 279.305 419.712 271.259 409.869C263.692 400.615 270.546 386.041 275.068 377.125C283.957 359.594 295.898 343.974 306.601 327.678C311.001 320.972 315.823 313.956 318.674 306.298C321.207 299.475 316.833 294.536 312.519 289.583Z" stroke="#101828"/>
<path fill-rule="evenodd" clip-rule="evenodd" d="M316.659 289.899C303.259 272.898 287.105 257.807 273.608 240.529C265.707 230.411 252.102 213.401 258.212 199.136C264.915 183.461 288.28 183.034 301.785 181.771C317.86 180.268 336.737 178.214 350.493 168.427C354.844 165.333 358.55 161.237 360.121 155.843C361.803 150.07 359.964 145.018 359.725 139.239C359.223 127.115 366.083 117.382 375.161 110.697C387.991 101.247 404.034 96.7783 419.187 93.6632C436.355 90.1496 453.808 88.4174 471.297 88.4913C488.01 88.5514 504.546 88.1606 521.276 87.7095C543.155 87.1081 565.343 88.0794 586.566 94.2104C607.473 100.254 626.481 111.581 641.412 128.243C655.979 144.501 665.806 164.373 674.414 184.616C679.298 196.105 687.549 213.275 699.198 219.078C704.379 221.661 709.462 221.483 703.954 228.201C697.017 236.659 687.669 243.446 679.634 250.68C668.044 261.12 656.164 271.765 646.436 284.177C640.224 292.103 637.455 299.795 637.883 310.058C638.214 317.875 639.713 325.612 638.955 333.46C637.179 351.88 623.428 364.512 611.271 376.275C603.45 383.841 596.308 389.611 592.282 400.373C587.521 413.092 585.523 426.93 582.341 440.136C578.845 454.638 574.808 469.724 567.179 482.497C560.387 493.869 552.128 498.969 539.765 495.905C520.484 491.13 501.478 479.367 484.36 468.485C466.937 457.414 449.814 444.965 435.376 429.747C427.581 421.529 422.261 411.88 415.338 403.052C406.631 391.968 386.933 396.166 375.226 397.104C355.793 398.662 294.646 410.317 300.288 372.568C302.643 356.812 311.918 342.27 318.701 328.367C321.512 322.596 325.58 315.671 326.216 309.059C326.909 301.858 320.688 295.017 316.659 289.899Z" stroke="#101828"/>
<path fill-rule="evenodd" clip-rule="evenodd" d="M323.734 291.343C313.494 275.937 301.238 261.382 292.452 244.742C286.752 233.966 281.154 219.567 288.507 208.165C296.807 195.298 315.107 192.299 328.553 190.659C342.407 188.971 358.945 187.551 370.269 177.795C373.871 174.687 376.841 170.496 377.394 165.478C377.927 160.665 376.422 155.851 376.921 150.95C378.038 139.945 384.362 130.878 392.516 124.301C416.635 104.846 452.534 100.52 481.636 100.011C496.202 99.7584 511.193 101.085 525.854 102.036C544.877 103.269 563.93 105.917 582.073 112.298C620.648 125.86 646.503 155.938 664.561 193.367C670.244 205.148 674.593 217.895 683.499 227.362C688.09 232.251 687.087 235.762 682.393 240.221C675.054 247.188 666.103 252.513 657.957 258.329C646.372 266.599 634.539 274.992 624.293 284.899C617.231 291.729 612.217 298.308 610.695 308.549C609.61 315.85 609.863 323.29 609.211 330.637C607.968 344.593 603.713 358.444 596.18 370.021C590.195 379.197 583.07 387.536 575.706 395.487C566.133 405.84 558.036 416.357 550.765 428.644C541.127 444.908 527.583 474.908 504.88 466.969C479.84 458.208 456.37 435.948 440.305 414.381C434.91 407.139 430.481 398.258 423.205 392.918C412.312 384.937 401.26 385.217 388.303 385.25C368.906 385.295 326.698 389.738 326.242 359.076C326.062 346.928 331.044 335.442 333.429 323.757C336.12 310.67 330.728 301.843 323.734 291.343Z" stroke="#101828"/>
<path fill-rule="evenodd" clip-rule="evenodd" d="M331.361 292.717C321.232 272.637 298.519 239.643 315.794 217.314C324.919 205.514 341.059 201.08 354.599 198.437C365.495 196.3 378.635 195.497 386.867 186.436C392.918 179.774 390.232 170.078 392.551 161.739C395.428 151.4 402.032 142.94 410.148 136.582C432.826 118.811 464.359 113.357 491.64 112.197C519.974 110.994 551.193 116.619 577.855 127.439C611.099 140.935 636.005 166.489 653.422 198.849C656.636 204.823 659.556 210.953 662.641 216.999C664.714 221.054 667.788 224.978 669.422 229.244C672.143 236.357 668.938 242.171 663.799 246.807C656.408 253.481 647.328 258.231 638.902 263.24C627.379 270.094 615.599 276.825 604.88 284.867C597.677 290.279 590.137 296.108 587.559 305.497C585.8 311.901 585.435 318.683 585.497 325.315C585.634 339.535 584.927 351.034 578.636 364.058C568.285 385.439 552.368 404.665 535.552 420.662C522.355 433.216 501.473 452.718 482.244 444.325C464.992 436.809 454.9 418.819 443.534 404.274C438.008 397.203 431.8 390.745 424.505 385.716C415.309 379.375 406.652 376.715 395.756 375.677C377.417 373.931 349.765 373.477 344.096 350.268C342.003 341.703 343.198 332.831 342.1 324.154C340.666 312.682 336.471 302.845 331.361 292.717Z" stroke="#101828"/>
<path fill-rule="evenodd" clip-rule="evenodd" d="M341.892 293.46C334.679 271.489 325.204 243.8 342.624 224.273C351.062 214.813 362.931 209.525 374.419 205.573C382.646 202.741 395.709 201.908 400.753 193.201C404.458 186.793 404.97 177.953 408.322 171.088C412.927 161.65 419.903 153.876 428.087 147.79C449.409 131.932 477.18 125.804 502.505 124.05C557.534 120.242 613.525 150.565 642.971 200.454C651.751 215.325 663.085 231.153 648.896 246.346C633.405 262.92 610.068 270.685 591.579 282.462C584.515 286.959 575.512 292.364 571.571 300.506C569.2 305.399 569.038 311.539 568.93 316.926C568.645 330.648 567.565 342.988 562.335 355.791C554.259 375.577 541.381 393.83 526.788 408.783C514.061 421.821 495.911 437.143 477.428 427.744C463.256 420.521 454.268 405.189 443.257 393.888C431.003 381.301 415.848 372.82 399.205 368.675C383.016 364.654 365.26 361.943 356.727 344.86C353.801 339 350.743 331.412 349.646 324.926C347.875 314.232 345.281 303.709 341.892 293.46Z" stroke="#101828"/>
<path fill-rule="evenodd" clip-rule="evenodd" d="M353.635 293.615C350.299 271.429 349.928 248.295 365.431 230.81C372.666 222.652 381.813 216.857 391.062 211.606C397.866 207.742 404.894 204.483 409.976 198.149C414.684 192.285 418.263 185.475 422.809 179.457C428.806 171.482 435.981 164.578 444.059 159.01C464.308 145.081 488.94 138.567 512.506 136.307C523.914 135.209 536.288 134.637 547.619 137.631C558.562 140.52 569.383 145.087 579.444 150.413C600.834 161.724 619.371 178.289 632.81 199.233C642.024 213.598 647.007 227.566 635.074 242.139C621.622 258.565 600.529 267.629 583.143 278.29C571.219 285.602 557.855 292.769 555.628 308.308C553.854 320.673 552.413 332.408 547.825 344.095C540.995 361.334 530.954 376.95 518.296 390.017C506.719 401.92 492.075 412.022 475.516 405.664C462.397 400.617 452.219 389.312 440.757 381.23C427.983 372.203 413.948 367.226 399.17 363.224C385.888 359.613 373.382 354.064 364.798 342.284C363.041 339.876 361.196 337.255 359.841 334.562C358.113 331.126 358.247 327.72 357.908 323.868C357.024 313.704 355.144 303.656 353.635 293.615Z" stroke="#101828"/>
<path fill-rule="evenodd" clip-rule="evenodd" d="M366.583 291.802C366.868 270.729 371.672 250.813 384.827 234.39C390.452 227.364 397.168 221.578 403.356 215.14C408.339 209.95 413.048 205.128 418.778 200.851C432.37 190.724 443.416 177.62 457.86 168.602C477.142 156.546 499.228 149.883 521.144 147.218C531.845 145.916 542.9 145.461 553.727 146.932C563.025 148.195 571.931 152.628 580.192 157.164C596.383 166.049 612.104 178.678 622.617 194.654C645.796 229.878 600.098 255.487 576.643 270.484C565.856 277.383 549.374 285.373 544.955 299.038C541.797 308.8 539.873 318.728 535.805 328.189C524.878 353.596 502.698 383.479 473.14 379.501C460.491 377.801 448.963 370.896 437.156 366.261C424.998 361.486 412.45 358.825 399.813 355.905C388.003 353.177 378.59 349.295 370.962 338.888C367.316 333.918 367.638 327.969 367.313 321.872C366.783 311.856 366.455 301.784 366.583 291.802Z" stroke="#101828"/>
<path fill-rule="evenodd" clip-rule="evenodd" d="M378.375 289.102C383.124 257.294 400.76 222.568 426.692 204.096C457.196 182.366 490.243 164.068 526.689 158.808C543.586 156.368 562.096 155.168 578.04 163.144C590.174 169.211 604.269 178.279 610.947 191.031C627.285 222.222 590.945 247.053 570.241 261.483C559.094 269.252 544.905 276.822 536.503 288.167C531.629 294.744 529.14 303.445 525.205 310.669C513.279 332.562 493.648 350.219 469.194 353.377C457.887 354.836 446.498 353.031 435.277 351.597C423.79 350.129 412.161 349.332 400.746 347.284C391.634 345.648 380.895 342.878 377.539 332.589C373.307 319.623 376.437 302.092 378.375 289.102Z" stroke="#101828"/>
<path fill-rule="evenodd" clip-rule="evenodd" d="M389.936 283.993C396.862 254.088 411.527 224.917 436.181 207.064C449.255 197.598 464.432 191.063 479.004 184.606C495.521 177.289 512.778 171.609 530.403 168.791C552.348 165.282 587.891 162.118 599.356 188.501C610.736 214.689 581.979 237.867 564.974 251.075C554.071 259.536 542.403 267.302 531.986 276.552C526.337 281.567 521.986 287.361 517.206 293.243C503.995 309.539 485.161 322.441 465.964 329.328C447.358 336.004 424.341 338.96 404.702 336.754C396.228 335.805 390.171 332.606 387.608 323.509C384.056 310.864 387.073 296.346 389.936 283.993Z" stroke="#101828"/>
<path fill-rule="evenodd" clip-rule="evenodd" d="M401.428 275.938C408.308 249.608 423.148 225.558 444.794 209.755C469.058 192.04 500.301 182.196 529.018 177.19C544.282 174.531 577.361 167.322 585.141 187.954C592.921 208.586 570.429 228.919 557.484 240.111C541.773 253.675 524.833 266.772 507.914 278.942C493.213 289.523 477.527 300.341 461.605 308.512C452.625 313.148 443.27 316.933 433.652 319.822C426.53 321.944 417.473 325.109 410.006 323.53C391.172 319.54 398.138 288.528 401.428 275.938Z" stroke="#101828"/>
<path fill-rule="evenodd" clip-rule="evenodd" d="M415.607 268.053C430.703 218.259 478.53 193.77 524.581 185.234C535.281 183.252 565.279 176.109 571.26 191.319C577.056 206.067 558.623 223.557 549.992 231.844C523.25 257.521 490.211 276.559 458.903 295.42C449.131 301.307 431.506 314.082 419.384 308.189C406.222 301.779 412.48 278.378 415.607 268.053Z" stroke="#101828"/>
<path fill-rule="evenodd" clip-rule="evenodd" d="M431.071 258.469C444.199 221.8 482.383 200.769 517.489 193.836C526.087 192.139 547.925 186.857 554.438 197.09C560.465 206.556 546.082 220.272 540.701 225.722C528.722 237.859 514.525 247.858 500.5 257.468C487.532 266.359 474.424 275.473 460.779 282.993C453.592 286.951 440.113 295.398 431.946 289.285C423.153 282.71 428.156 266.612 431.071 258.469Z" stroke="#101828"/>
<path fill-rule="evenodd" clip-rule="evenodd" d="M448.111 247.756C458.116 223.81 484.915 208.26 508.554 203.092C514.915 201.705 528.663 198.106 534.029 204.501C538.969 210.39 531.007 219.025 527.474 223.012C511.813 240.687 488.88 256.475 467.868 266.172C462.585 268.609 453.088 273.394 447.653 268.474C442.078 263.421 445.812 253.255 448.111 247.756Z" stroke="#101828"/>
<path fill-rule="evenodd" clip-rule="evenodd" d="M466.187 237.697C471.825 225.806 486.561 216.835 498.768 213.979C507.359 211.971 517.685 213.706 510.198 224.056C502.761 234.328 488.961 243.709 477.264 247.868C468.34 251.04 461.346 247.911 466.187 237.697Z" stroke="#101828"/>
<path fill-rule="evenodd" clip-rule="evenodd" d="M8.96819 320.055C8.60657 296.563 -3.2243 272.148 2.61852 248.21C7.41634 228.551 31.5706 226.91 46.0609 218.003C57.5757 210.926 64.1104 198.391 70.3376 186.364C75.9327 175.566 80.9584 164.444 86.8524 153.824C90.6679 146.958 97.2197 133.476 105.494 133.232C113.416 132.998 120.679 143.504 125.281 149.714C131.28 157.81 136.599 166.44 142.425 174.665C152.242 188.537 164.022 198.806 177.51 208.525C192.859 219.583 208.462 230.263 224.318 240.566C235.992 248.174 247.746 255.726 258.968 264.085C266.006 269.331 281.542 279.173 281.613 288.843C281.647 293.457 277.504 298.568 274.711 302.256C269.984 308.5 264.597 314.208 259.193 319.793C249.127 330.197 238.635 340.129 228.256 350.181C214.785 363.228 201.918 376.061 190.075 390.871C177.832 406.202 166.135 422.038 154.199 437.657C146.115 448.239 138.04 460.122 126.38 466.615C111.775 474.731 99.788 466.173 85.0187 466.073C72.3137 465.986 73.2505 434.916 71.6361 426.276C70.0159 417.532 66.4453 409.392 65.0615 400.626C63.3359 389.684 63.3132 378.489 62.8889 367.43C62.3735 353.903 62.1685 341.025 48.4698 335.867C40.6737 332.936 32.2398 332.32 24.1703 330.564C18.9425 329.425 9.08208 327.477 8.96819 320.055Z" stroke="#101828"/>
<path fill-rule="evenodd" clip-rule="evenodd" d="M15.2152 315.876C13.8834 296.184 6.01561 270.979 13.4557 250.652C19.8121 233.28 39.6912 231.029 53.077 221.903C64.1273 214.377 69.0465 202.061 74.5702 189.961C79.0018 180.255 83.2993 170.455 88.3296 161.059C92.0368 154.135 97.6974 142.445 105.406 141.012C112.335 139.723 119.767 150.044 123.656 155.294C129.331 162.959 134.185 171.283 139.198 179.433C148.007 193.748 157.027 206.622 169.919 217.138C182.869 227.699 197.036 235.596 211.354 243.815C222.556 250.245 233.7 256.862 244.343 264.287C252.27 269.814 263.669 276.889 267.296 286.746C270.168 294.543 255.604 307.483 251.309 312.05C242.469 321.44 233.101 330.255 223.716 339.015C212.276 349.691 200.47 359.027 190.366 371.205C172.295 392.977 157.189 420.091 133.937 436.273C119.912 446.033 104.305 448.529 88.7061 447.069C82.5293 446.491 81.0464 437.287 80.2679 431.919C78.9732 423.002 78.8107 413.931 77.8155 404.978C76.883 396.596 74.8126 388.633 73.1444 380.414C71.4562 372.087 70.9828 363.555 69.7395 355.17C68.9695 349.965 68.2081 343.908 64.8403 339.723C61.3555 335.391 55.6065 333.575 50.5818 332.196C41.1456 329.631 16.1562 329.773 15.2152 315.876Z" stroke="#101828"/>
<path fill-rule="evenodd" clip-rule="evenodd" d="M23.2517 307.633C21.012 289.556 17.8765 267.043 27.0007 250.389C34.4588 236.772 50.3649 233.834 61.726 224.961C71.1755 217.583 74.7447 205.848 79.4352 194.943C83.2841 185.998 87.1529 177.014 91.8177 168.502C95.3556 162.047 99.9149 153.295 106.939 151.043C112.945 149.118 119.73 157.739 123.059 162.029C128.728 169.341 133.35 177.534 137.941 185.619C145.451 198.849 152.361 212.98 163.049 223.741C173.434 234.183 185.771 240.346 198.339 247.277C207.965 252.587 217.532 258.101 226.602 264.433C233.566 269.292 242.197 275.049 245.826 283.134C248.964 290.107 240.907 298.36 236.881 303.279C230.234 311.397 222.856 318.844 215.58 326.322C207.728 334.389 199.032 341.83 191.434 350.096C175.457 367.489 162.692 386.747 143 400.072C130.246 408.704 113.085 416.546 98.009 415.136C87.1672 414.119 87.8805 388.797 86.8391 380.706C85.1272 367.477 81.8204 353.577 76.5679 341.391C72.0571 330.949 61.3379 327.729 51.4776 325.387C45.3006 323.917 38.8269 323.123 32.8525 320.85C25.9365 318.216 24.1904 315.209 23.2517 307.633Z" stroke="#101828"/>
<path fill-rule="evenodd" clip-rule="evenodd" d="M30.7521 299.159C29.4186 283.877 29.7185 265.805 38.3564 252.585C45.9265 241.006 59.4046 237.957 68.9906 228.836C76.4721 221.719 79.4104 210.116 83.4339 200.704C88.3511 189.197 95.2415 167.944 107.646 163.614C119.185 159.588 131.253 185.304 135.43 192.973C142.044 205.11 147.575 218.42 155.596 229.629C162.504 239.278 171.758 244.613 181.581 250.345C194.106 257.667 213.121 266.348 219.817 280.617C224.808 291.25 208.578 307.057 203.035 314.424C197.238 322.119 192.872 331.241 186.89 338.665C177.449 350.38 162.152 359.812 149.522 367.01C137.244 374.012 121.298 381.762 107.369 381.301C98.2141 380.999 96.4722 366.079 94.5191 358.79C91.7206 348.429 87.9999 339.144 80.0072 332.097C71.8718 324.924 62.2829 321.543 52.2029 318.585C47.0287 317.077 41.1263 315.901 36.4975 312.856C31.3832 309.542 31.2661 305.033 30.7521 299.159Z" stroke="#101828"/>
<path fill-rule="evenodd" clip-rule="evenodd" d="M39.8889 290.351C39.9629 277.148 42.8234 263.069 51.3053 252.885C58.3698 244.402 69.4276 241.566 76.1903 232.895C81.547 226.029 84.2737 216.391 87.86 208.418C92.2462 198.648 98.4482 181.58 109.355 178.19C120 174.889 129.416 193.688 133.497 201.127C139.474 212.034 144.313 223.596 150.344 234.473C155.069 243.007 160.847 248.507 168.541 254.007C177.572 260.467 190.172 267.624 194.997 278.312C198.475 286.051 190.056 298.417 186.999 305.234C184.949 309.813 183.074 314.464 182.043 319.427C181.241 323.292 181.161 326.869 178.836 330.188C172.981 338.535 160.144 339.625 151.434 342.376C139.867 346.028 127.594 350.178 115.489 350.97C108.049 351.465 104.252 344.231 100.005 339.141C94.9871 333.125 87.8828 328.798 81.6779 324.258C73.4892 318.257 64.5775 314.524 55.3584 310.701C51.2 308.976 46.3158 307.284 43.0938 303.854C39.7295 300.298 39.8633 295.116 39.8889 290.351Z" stroke="#101828"/>
<path fill-rule="evenodd" clip-rule="evenodd" d="M49.4835 282.513C50.9536 271.425 55.5351 260.827 63.2735 252.988C69.2055 246.97 77.0835 243.581 81.8444 236.35C86.2806 229.61 89.372 221.946 93.036 214.739C96.9137 207.12 102.675 194.385 111.618 192.312C121.257 190.079 128.682 202.925 132.793 210.045C137.987 219.042 141.934 228.722 146.578 238.029C150.076 244.966 154.539 251.311 159.818 256.851C165.354 262.692 172.861 268.286 175.662 276.317C178.138 283.431 173.505 292.037 172.688 299.25C171.813 306.956 173.346 315.051 168.496 321.668C158.496 335.314 133.397 332.784 119.049 333.075C104.891 333.376 93.509 325.026 82.0524 317.082C74.485 311.837 66.6042 307.396 58.8459 302.509C50.9366 297.523 48.1899 292.272 49.4835 282.513Z" stroke="#101828"/>
<path fill-rule="evenodd" clip-rule="evenodd" d="M58.4 276.167C62.7477 260.103 76.3265 251.565 86.0338 239.425C93.9765 229.486 99.932 208.904 113.308 206.182C128.495 203.092 137.587 230.362 142.867 240.885C148.725 252.555 159.159 262.048 163.499 274.402C165.779 280.886 163.821 286.936 162.606 293.418C161.275 300.534 160.274 307.81 155.679 313.538C146.633 324.811 128.966 324.733 116.242 325.043C103.071 325.365 91.4192 317.64 80.925 309.93C69.7951 301.766 53.9469 292.641 58.4 276.167Z" stroke="#101828"/>
<path fill-rule="evenodd" clip-rule="evenodd" d="M65.68 271.811C70.5789 260.365 80.8736 251.061 89.2272 242.277C96.1994 234.954 103.7 220.213 114.331 219.162C126.825 217.923 134.398 233.664 139.314 243.316C144.152 252.8 151.125 262.814 153.804 273.224C156.598 284.067 149.158 298.671 142.062 306.344C134.148 314.9 121.2 318.062 110.089 317.72C98.4565 317.373 87.7827 310.302 78.9726 302.967C69.5538 295.126 59.9827 285.097 65.68 271.811Z" stroke="#101828"/>
<path fill-rule="evenodd" clip-rule="evenodd" d="M72.4395 269.656C77.119 260.136 85.2306 252.083 92.7098 244.9C98.4816 239.355 106.998 229.926 115.326 229.695C124.486 229.44 132.25 237.354 135.892 245.467C139.482 253.469 143.265 263.501 143.802 272.28C144.969 291.397 121.21 312.811 103.368 311.068C86.4522 309.416 63.1092 288.622 72.4395 269.656Z" stroke="#101828"/>
<path fill-rule="evenodd" clip-rule="evenodd" d="M78.6849 268.606C85.1406 256.203 100.822 238.52 115.339 238.101C132.002 237.621 136.186 257.297 134.014 271.557C131.807 286.111 112.595 307.176 97.2762 304.33C82.325 301.552 71.0341 283.315 78.6849 268.606Z" stroke="#101828"/>
<path fill-rule="evenodd" clip-rule="evenodd" d="M85.2835 266.601C90.7493 256.216 102.413 243.245 114.578 242.852C129.073 242.387 128.799 259 125.512 269.34C122.094 280.075 107.041 298.411 94.3495 295.516C82.008 292.69 80.0455 276.554 85.2835 266.601Z" stroke="#101828"/>
<path fill-rule="evenodd" clip-rule="evenodd" d="M91.0308 265.405C94.6386 257.995 103.668 248.63 112.252 248.33C122.744 247.97 120.705 261.146 117.994 267.506C114.771 275.074 103.971 288.223 94.9071 286.092C85.9833 283.994 88.0543 271.511 91.0308 265.405Z" stroke="#101828"/>
<path fill-rule="evenodd" clip-rule="evenodd" d="M584.596 688.789C561.373 703.656 535.12 715.928 510.363 728.401C474.185 746.627 437.473 764.363 399.458 777.94C379.077 785.217 352.667 795.709 330.798 790.008C322.802 787.924 315.511 781.621 308.342 777.525C298.456 771.878 288.425 766.51 278.411 761.131C258.324 750.347 238.173 739.672 218.431 728.197C208.924 722.67 199.7 715.709 189.803 710.993C184.019 708.236 177.098 709.526 170.918 709.7C156.603 710.106 142.296 710.876 127.99 711.532C110.49 712.332 92.9511 713.183 75.4319 712.867C67.5303 712.723 48.1781 714.202 43.8282 707.021C41.488 703.154 47.0037 696.181 49.5606 692.954C54.2554 687.024 59.6515 681.68 64.9762 676.391C77.2904 664.158 90.3686 652.509 101.315 638.844C106.939 631.82 114.307 623.238 110.636 613.648C106.93 603.962 100.511 595.575 96.5941 585.923C92.0846 574.815 90.2146 563.255 88.0853 551.477C86.509 542.771 82.8375 535.058 79.3855 527.032C75.5716 518.161 71.6207 509.215 68.9726 499.86C67.2224 493.68 64.3975 482.563 70.5204 478.651C79.2202 473.088 95.5337 477.592 105.451 479.231C119.156 481.493 132.761 484.373 146.43 486.854C156.352 488.658 166.309 490.637 176.397 490.848C192.659 491.187 208.976 490.012 225.195 488.917C255.228 486.89 285.046 484.142 315.18 484.142C341.581 484.142 402.591 516.369 416.872 522.043C445.377 533.371 474.641 544.109 501.615 559.181C508.912 563.261 520.143 568.698 523.983 577.097C526.352 582.272 525.263 585.264 530.85 588.599C538.472 593.149 548.238 594.935 556.676 596.971C570.264 600.248 583.958 603.024 597.609 605.992C625.219 611.979 652.641 618.751 680.137 625.267C688.449 627.237 698.506 627.673 706.43 631.143C711.538 633.372 711.008 636.177 707.054 639.563C700.119 645.505 690.399 648.804 682.207 652.193C670.203 657.158 658.003 661.587 645.797 665.953C633.591 670.32 621.322 674.551 609.111 678.926C601.044 681.807 591.845 684.149 584.596 688.789Z" stroke="#101828"/>
<path fill-rule="evenodd" clip-rule="evenodd" d="M565.485 685.519C540.919 700.416 513.651 712.284 487.364 723.863C453.721 738.691 419.316 752.588 383.868 761.857C363.055 767.296 338.498 773.301 317.231 767.064C309.645 764.839 303.976 759.837 297.473 755.422C290.06 750.384 282.362 745.768 274.664 741.223C258.818 731.87 242.804 722.836 226.623 714.121C218.052 709.486 208.618 703.28 198.935 701.672C191.237 700.392 182.493 702.244 174.761 702.783C160.836 703.753 146.914 704.752 132.983 705.602C116.908 706.58 100.788 707.484 84.6792 707.327C75.701 707.24 60.2878 708.682 53.9384 702.56C48.3986 697.218 68.5675 677.897 72.1143 674.226C83.1909 662.765 94.8406 651.851 105.15 639.595C111.243 632.368 118.662 623.578 121.231 613.998C123.418 605.834 119.198 596.532 116.706 588.986C113.59 579.533 111.075 569.734 107.454 560.48C104.229 552.235 99.0974 544.89 94.5897 537.395C89.6316 529.15 84.6108 520.769 80.93 511.774C78.6747 506.239 74.9426 496.97 79.4246 491.694C84.6022 485.611 100.563 489.586 107.123 490.453C120.432 492.236 133.639 494.886 146.857 497.259C168.81 501.198 189.74 504.643 212.096 503.818C241.209 502.74 270.293 500.204 299.4 498.801C310.149 498.277 321.069 497.223 331.826 497.792C337.993 498.12 342.689 500.108 346.276 504.592C351.174 510.711 362.456 514.099 370.302 517.61C382.536 523.082 394.925 528.171 407.279 533.326C434.398 544.649 462.04 555.562 487.76 570.207C495.897 574.838 505.215 580.003 511.233 587.655C514.592 591.922 513.745 596.032 515.795 600.568C518.51 606.533 527.434 609.225 532.768 611.177C543.063 614.947 553.781 617.473 564.416 619.84C588.479 625.195 612.6 628.715 637.054 631.308C642.784 631.91 665.351 633.997 653.499 644.055C640.404 655.17 621.495 660.618 606.079 666.881C592.191 672.513 578.292 677.752 565.485 685.519Z" stroke="#101828"/>
<path fill-rule="evenodd" clip-rule="evenodd" d="M531.536 682.764C508.446 695.87 482.866 705.648 457.998 715.002C427.82 726.352 396.887 736.469 365.236 742.137C345.354 745.694 323.434 748.427 303.686 742.516C290.2 738.481 279.768 727.573 267.923 720.068C256.078 712.563 243.753 705.519 231.061 699.647C223.183 696.003 214.709 692.332 205.944 692.813C184.631 693.979 163.345 696.76 142.01 698.11C127.896 699.012 113.753 699.755 99.5964 699.532C91.0595 699.4 79.3316 699.941 71.7737 695.203C63.4194 689.962 107.902 645.217 112.106 640.181C122.647 627.553 135.411 610.794 133.373 592.835C131.424 575.667 122.975 562.85 113.419 549.398C107.996 541.746 90.6057 521.304 97.0504 511.351C100.732 505.663 112.868 507.632 118.634 508.02C129.996 508.784 141.296 510.425 152.599 511.851C169.079 513.916 186.013 517.106 202.564 518.041C214.09 518.691 225.683 517.822 237.229 517.804C253.783 517.78 270.337 517.912 286.892 518.068C300.792 518.201 314.808 518.068 328.66 519.475C337.271 520.341 343.807 522.287 349.984 527.783C355.358 532.563 363.467 535.363 370.317 538.402C381.631 543.421 393.093 548.072 404.519 552.798C428.44 562.696 452.635 572.387 475.531 584.756C485.983 590.4 503.556 598.301 506.008 611.984C506.893 616.918 507.544 619.05 512.11 621.855C518.592 625.836 526.356 627.631 533.628 629.192C550.582 632.83 568.027 632.285 584.952 635.881C591.845 637.364 600.845 640.563 592.976 647.887C583.794 656.453 570.427 661.161 559.427 666.453C553.936 669.093 548.279 671.565 543.064 674.788C539.06 677.271 535.632 680.455 531.536 682.764Z" stroke="#101828"/>
<path fill-rule="evenodd" clip-rule="evenodd" d="M487.803 678.672C466.47 689.317 443.302 697.056 420.55 704.033C395.279 711.773 369.399 718.183 343.176 720.911C325.069 722.801 305.776 723.358 288.202 717.575C277.089 713.916 269.554 706.222 259.99 699.769C245.557 690.016 229.94 682.289 212.6 684.169C193.16 686.273 173.655 687.851 154.087 688.904C142.284 689.54 130.435 690.016 118.617 689.573C111.146 689.296 101.519 688.829 95.0192 685.257C86.3219 680.474 118.991 644.079 123.063 638.775C133.162 625.619 140.566 611.816 144.892 595.517C148.419 582.217 141.213 571.762 133.778 561.813C129.156 555.635 114.22 540.095 118.897 532.073C121.461 527.648 129.914 527.877 134.453 527.651C143.105 527.223 151.793 527.669 160.445 527.865C173.22 528.167 186.819 526.096 199.486 527.763C227.558 531.452 255.559 534.646 283.805 537.175C299.376 538.567 315.041 539.833 330.472 542.519C336.012 543.483 341.734 544.505 346.983 546.687C350.36 548.088 352.201 550.475 355.05 552.434C368.638 561.759 386.374 566.557 401.677 572.533C422.021 580.478 442.473 588.299 462.276 597.684C472.691 602.621 487.239 608.293 494.406 618.368C496.572 621.412 495.648 623.847 497.01 626.774C498.578 630.149 503.34 631.156 506.414 632.096C513.393 634.233 542.605 637.464 529.143 649.998C522.72 655.969 514.536 659.799 507.295 664.492C504.673 666.192 502.117 667.901 499.931 670.194C496.275 674.04 492.673 676.234 487.803 678.672Z" stroke="#101828"/>
<path fill-rule="evenodd" clip-rule="evenodd" d="M441.203 674.063C399.089 691.285 349.734 703.018 303.82 700.745C288.551 699.986 272.123 697.454 258.888 688.789C251.083 683.67 244.847 677.893 235.472 676.044C228.704 674.71 221.417 676.225 214.609 676.773C204.749 677.567 194.883 678.278 185.009 678.853C172.767 679.555 160.485 680.097 148.221 679.808C139.457 679.6 127.355 679.835 119.742 674.867C110.653 668.941 133.789 641.145 137.044 636.192C144.934 624.188 150.465 612.557 152.464 598.09C153.052 593.875 155.034 589.554 154.777 585.306C154.509 580.968 151.976 577.105 149.637 573.693C146.579 569.222 135.967 558.618 139.006 553.165C140.685 550.155 146.987 549.775 150.254 549.137C156.382 547.932 162.598 547.285 168.763 546.328C179.223 544.696 189.609 539.382 200.106 539.532C228.333 539.93 256.969 549.167 284.63 554.24C301.075 557.266 317.632 560.012 333.877 564.11C339.017 565.407 344.311 566.75 349.197 568.951C352.607 570.487 354.797 573.224 357.955 574.943C370.066 581.546 383.992 585.553 396.996 589.997C413.878 595.778 430.818 601.384 447.582 607.538C458.091 611.395 471.603 614.788 480.658 621.942C487.272 627.166 482.751 628.729 479.262 633.594C477.48 636.075 477.891 638.52 477.117 641.329C476.012 645.339 472.888 648.227 469.959 650.822C465.918 654.408 460.535 657.362 457.231 661.758C456.066 663.305 456.121 665.226 455.178 666.575C452.437 670.504 445.164 672.443 441.203 674.063Z" stroke="#101828"/>
<path fill-rule="evenodd" clip-rule="evenodd" d="M396.428 667.927C362.248 678.755 324.217 684.92 288.087 682.059C275.517 681.062 262.869 678.746 251.159 673.659C245.832 671.352 241.833 668.78 235.995 668.641C222.449 668.322 208.861 669.439 195.319 669.707C185.627 669.9 175.887 669.969 166.218 669.147C159.753 668.599 151.011 667.943 145.715 663.759C138.019 657.666 151.912 636.953 154.739 631.231C159.426 621.74 164.075 611.19 162.216 600.209C161.646 596.85 160.637 593.884 160.506 590.459C160.38 587.517 160.731 584.8 159.742 581.987C158.519 578.499 153.08 573.087 154.95 569.876C156.224 567.683 160.004 567.581 162.518 566.879C166.596 565.741 170.577 564.248 174.422 562.416C178.47 560.476 181.916 557.479 186.109 555.877C192.916 553.281 200.535 553.037 207.69 553.048C236.237 553.097 265.147 559.039 292.97 565.253C307.459 568.488 322.028 571.936 336.109 576.843C340.385 578.333 345.23 579.83 348.99 582.583C351.336 584.297 352.927 586.444 355.592 587.733C378.359 598.739 404.68 602.826 428.849 610.774C435.14 612.843 470.004 623.298 451.775 633.131C440.701 639.107 429 641.824 418.895 649.998C415.817 652.483 413.764 654.54 412.561 658.332C411.769 660.856 413.676 659.576 411.014 662.214C407.784 665.385 400.41 666.665 396.428 667.927Z" stroke="#101828"/>
<path fill-rule="evenodd" clip-rule="evenodd" d="M360.888 661.525C320.871 670.363 278.493 670.783 237.844 662.948C227.597 660.975 216.932 661.447 206.559 660.945C196.481 660.465 178.562 661.465 171.242 653.287C165.934 647.359 171.693 634.762 173.685 628.131C176.224 619.684 178.442 610.957 174.274 602.752C171.833 597.948 168.489 593.374 165.871 588.614C164.619 586.341 162.041 582.857 163.115 580.704C164.893 577.152 173.211 575.656 177.247 573.98C190.147 568.626 203.807 567.26 217.598 567.298C243.072 567.368 268.677 571.044 293.665 576.029C305.161 578.323 316.818 580.77 327.905 584.758C334.179 587.014 338.807 591.365 344.798 593.945C364.089 602.257 384.815 606.698 404.438 614.299C410.117 616.5 431.332 623.828 420.645 632.467C410.297 640.831 395.205 639.837 384.446 647.705C383.229 648.606 381.722 649.684 381.016 651.14C380.599 652.011 381.334 653.669 381.016 654.164C377.712 659.549 365.967 660.405 360.888 661.525Z" stroke="#101828"/>
<path fill-rule="evenodd" clip-rule="evenodd" d="M334.962 655.684C314.432 658.655 293.451 659.392 272.575 659.579C261.164 659.682 248.628 660.449 237.463 657.399C230.604 655.521 223.98 653.879 216.91 652.695C209.303 651.421 197.055 650.494 192.422 643.589C188.962 638.429 191.333 627.822 191.459 621.547C191.593 614.666 190.256 609.563 185.652 604.639C182.757 601.538 169.478 590.282 171.012 587.036C172.473 583.944 181.726 583.47 185.727 582.667C198.372 580.119 211.186 579.231 224.048 579.37C243.97 579.581 263.965 581.725 283.575 585.409C291.682 586.939 300.061 588.525 307.805 591.583C313.02 593.645 317.37 597.302 322.551 599.434C337.388 605.548 353.077 609.699 367.966 615.925C372.744 617.927 388.312 623.256 384.58 631.469C381.468 638.326 370.883 640.412 365.682 645.008C356.835 652.846 346.244 654.054 334.962 655.684Z" stroke="#101828"/>
<path fill-rule="evenodd" clip-rule="evenodd" d="M322.029 651.744C305.744 653.711 289.079 654.571 272.555 654.613C261.89 654.64 250.64 654.793 240.174 652.264C234.918 650.995 230.35 648.026 225.375 645.909C220.252 643.732 213.182 641.301 210.968 636.309C208.887 631.617 209.664 624.772 207.837 619.115C206.212 614.095 202.811 610.994 199.148 607.602C196.814 605.434 184.829 596.047 186.215 593.975C187.7 591.755 194.898 591.936 198.644 591.629C208.963 590.769 219.319 590.495 229.667 590.808C243.789 591.265 258.02 592.54 271.897 595.427C281.742 597.473 289.168 602.345 298.346 605.918C310.238 610.558 322.556 614.228 334.333 619.304C340.202 621.834 348.888 625.088 351.893 631.617C353.049 634.119 354.17 640.483 352.884 642.986C351.338 645.993 345.586 647.268 342.871 648.041C336.069 649.969 328.951 650.907 322.029 651.744Z" stroke="#101828"/>
</g>
<g opacity="0.05">
<path fill-rule="evenodd" clip-rule="evenodd" d="M1094.22 291.836C1094.18 281.517 1075.97 269.912 1068.2 263.93C1052.82 252.097 1036.83 241.17 1020.99 230.068C1005.15 218.967 989.261 207.895 974.154 195.707C964.345 187.795 952.82 178.885 946.167 167.587C931.996 143.512 976.678 147.088 988.252 146.561C1017.7 145.216 1051.47 145.83 1079.07 133.293C1095.54 125.808 1102.11 113.256 1098.57 94.962C1097.43 89.0124 1094.06 82.1661 1096.92 76.37C1099.97 70.1797 1107 66.6076 1112.83 64.2121C1134.1 55.4849 1158.55 54.4737 1181.05 53.3783C1205.32 52.1746 1229.81 52.5267 1253.91 52.4334C1264.12 52.3943 1274.79 48.5212 1284.52 45.3734C1297.28 41.2475 1309.88 36.6131 1322.53 32.1321C1350.36 22.2974 1379.03 11.9391 1408.47 9.44135C1426.91 7.87647 1447.06 9.99207 1461.38 23.6035C1468.57 30.4378 1472.34 40.5975 1476.5 49.6226C1481.53 60.5256 1486.36 71.5339 1491.72 82.2654C1508.98 116.828 1533.62 150.602 1573.62 152.3C1579.67 152.556 1585.61 151.722 1591.63 151.566C1595.47 151.469 1598.88 152.447 1600.31 156.681C1603.89 167.302 1592.63 184.067 1588.01 192.493C1577.89 210.938 1566.49 228.555 1555.8 246.629C1548.73 258.582 1536.5 274.917 1536.37 289.44C1536.26 302.381 1552.57 311.734 1561.45 318.108C1569.77 324.075 1584.84 332.426 1585.75 344.566C1586.2 350.453 1582.52 355.331 1578.68 359.117C1571.94 365.737 1564.19 370.408 1558.13 377.961C1548.2 390.354 1539.9 407.405 1541.25 424.104C1542.19 435.675 1548.44 443.253 1556.4 450.497C1559.75 453.542 1562.46 455.697 1562.64 460.641C1562.92 468.493 1560.01 476.802 1557.61 484.081C1549.02 510.133 1536.82 535.325 1523.25 558.846C1516.47 570.601 1509.14 582.32 1500.15 592.347C1494.27 598.931 1486.32 606.768 1477.34 606.759C1466.94 606.759 1455.94 602.798 1445.83 599.837C1426.95 594.303 1408.3 587.905 1389.72 581.342C1346.76 566.156 1304.2 549.741 1262.05 532.096C1232.36 519.646 1202.04 507.178 1174.12 490.627C1168.68 487.376 1163.54 483.586 1158.78 479.308C1153.69 474.815 1147.37 472.805 1140.97 471.306C1101.22 462.004 1057.67 469.146 1017.76 473.624C1007.62 474.758 997.493 475.899 987.333 476.693C978.6 477.376 968.143 479.335 959.655 476.392C942.928 470.599 957.55 449.248 963.732 440.548C985.497 409.915 1013.58 383.998 1039.61 357.54C1051.98 344.939 1064.45 332.372 1076.15 319.059C1082.25 312.137 1094.26 300.882 1094.22 291.836Z" stroke="#101828"/>
<path fill-rule="evenodd" clip-rule="evenodd" d="M1101.72 290.097C1095.05 279.178 1083.35 271.107 1073.63 263.512C1059.65 252.577 1045.23 242.251 1031.02 231.626C1017.59 221.579 1004.13 211.418 991.695 200.009C984.111 193.051 974.595 184.731 971.003 174.44C963.21 152.135 1005.13 155.519 1015.48 154.936C1041.21 153.492 1070.38 153.161 1094.18 141.418C1109.05 134.084 1115.15 121.923 1111.98 105.038C1110.89 99.1967 1108.91 94.2093 1111.41 88.3978C1114.3 81.6718 1120.95 77.4785 1127.05 74.5186C1146.14 65.2448 1168.7 63.2745 1189.4 61.6351C1210.78 59.9416 1233.06 58.7474 1253.75 59.9867C1262.02 60.48 1271.55 57.6795 1279.74 55.5318C1292.34 52.2229 1304.81 48.4057 1317.35 44.8562C1342.83 37.6369 1368.97 30.6823 1395.48 29.8911C1414.62 29.3196 1434.57 32.4179 1450.49 44.393C1466.63 56.5365 1473.79 75.3609 1482.74 93.2558C1498.19 124.194 1519.06 161.809 1554.82 168.346C1560.24 169.338 1565.45 168.8 1570.86 169.044C1573.65 169.167 1576.82 169.558 1578.23 172.455C1581.9 179.975 1571.85 193.725 1568.47 199.485C1559.13 215.404 1548.62 230.543 1538.83 246.155C1531.06 258.551 1521.2 272.325 1518.2 287.02C1514.55 304.851 1538.39 317.539 1546.78 330.095C1561.32 351.867 1533.77 364.272 1520.19 374.653C1504.6 386.571 1491.73 408.313 1505.71 426.753C1511.05 433.804 1517.63 438.006 1520.02 447.207C1523.76 461.598 1520.93 478.043 1517.9 492.268C1513.34 513.652 1506.11 534.805 1496.29 554.132C1489.25 567.969 1477.58 589.666 1460.49 588.038C1448.98 586.953 1437.28 582.985 1426.07 579.478C1409.3 574.228 1392.73 568.245 1376.25 562.031C1338.21 547.725 1300.59 531.95 1263.71 514.6C1238.55 502.757 1168.36 454.361 1163.07 452.634C1147.33 447.49 1129.42 448.396 1113.19 449.193C1091.59 450.252 1070.1 452.995 1048.63 455.537C1038.41 456.74 1028.14 458.211 1017.86 458.803C1010.55 459.225 1000.94 459.586 994.537 455.101C982.034 446.35 995.964 426.329 1001.72 417.858C1019.37 391.889 1041.7 369.401 1062.63 346.408C1072.9 335.118 1083.33 323.847 1092.66 311.652C1096.42 306.728 1105.84 296.841 1101.72 290.097Z" stroke="#101828"/>
<path fill-rule="evenodd" clip-rule="evenodd" d="M1110.95 284.497C1092.73 262.646 1067.59 246.395 1045.88 228.146C1034.99 218.984 1024.03 209.572 1014.64 198.659C1009.75 192.984 1003.65 185.808 1002.7 177.897C1000.19 156.736 1037.97 159.597 1049.28 158.794C1071.15 157.235 1095.85 156.053 1115.68 145.254C1127.8 138.652 1133.77 127.817 1131.51 113.576C1130.5 107.258 1128.94 101.89 1131.51 95.6853C1134.11 89.3997 1139.53 84.9646 1145.02 81.6398C1160.79 72.0775 1180.39 69.0204 1198.15 66.7427C1218.99 64.0897 1239.98 63.0539 1260.96 63.6435C1279.33 64.1521 1297.61 58.4321 1315.55 54.662C1339.32 49.6702 1363.52 45.3103 1387.83 45.9693C1407.04 46.4928 1426.4 50.606 1442.82 61.5373C1459.5 72.6702 1469.53 89.3335 1478.57 107.315C1492.25 134.497 1509.28 170.923 1539.28 181.246C1543.64 182.751 1547.71 182.916 1552.2 183.178C1554.39 183.304 1557.21 183.343 1558.3 185.748C1560.9 191.537 1551.26 202.76 1548.57 206.671C1539.98 219.158 1530.68 231.083 1521.87 243.404C1513.66 254.907 1504.71 266.895 1499.6 280.374C1491.48 301.843 1517.45 314.396 1516.72 334.853C1516.27 347.554 1504.74 356.662 1495.61 362.963C1484.37 370.71 1468.18 375.805 1462.56 389.943C1458.37 400.474 1464.94 406.604 1470.01 414.595C1478.59 428.135 1479.17 446.49 1478.28 462.163C1477.08 483.342 1472.37 504.835 1464.36 524.303C1460.74 533.128 1456.29 542.308 1449.75 549.162C1443.61 555.586 1437.81 557.232 1429.62 555.917C1404.53 551.885 1379.21 540.647 1355.16 530.609C1324.93 517.996 1295.13 504.071 1266.21 488.403C1246.5 477.719 1226.34 466.414 1209.03 451.653C1204.52 447.804 1199.9 443.622 1196.6 438.546C1194.11 434.731 1193.05 431.58 1188.85 429.402C1176.39 422.948 1159.07 424.636 1145.72 425.307C1124.38 426.375 1103.14 429.218 1081.93 431.779C1069.56 433.283 1046.24 438.016 1036.36 426.664C1027.83 416.861 1038.12 400.146 1043.38 391.511C1056.68 369.672 1073.79 350.506 1089.67 330.77C1096.94 321.726 1104.5 312.612 1110.51 302.556C1112.04 299.992 1114.5 296.595 1114.93 293.481C1115.4 289.913 1113.19 287.189 1110.95 284.497Z" stroke="#101828"/>
<path fill-rule="evenodd" clip-rule="evenodd" d="M1112.52 289.583C1095.68 270.263 1075.4 254.391 1057.33 236.312C1049.23 228.205 1041.04 219.702 1034.87 209.813C1031.55 204.495 1028.02 197.801 1028.93 191.191C1031.56 172.221 1062.64 173.934 1075.19 172.823C1093.85 171.191 1115.28 169.547 1131.78 159.318C1142.58 152.618 1146.63 142.723 1144.62 129.961C1142.45 116.272 1147.29 106.336 1158.31 98.6991C1172.13 89.1325 1189.57 85.2329 1205.61 82.4626C1224.94 79.1409 1244.51 77.6684 1264.09 78.0632C1283.13 78.4487 1301.58 75.0821 1320.49 72.893C1345.57 69.9932 1371.45 68.5629 1396.25 74.507C1417.84 79.6833 1437.34 91.0897 1451.96 108.729C1467.22 127.14 1474.78 150.335 1487.18 170.703C1494.91 183.408 1505.7 200.213 1520.15 205.151C1524.96 206.799 1533.75 204.576 1529.9 212.68C1527.7 217.314 1523.58 221.379 1520.33 225.167C1515.07 231.289 1509.64 237.242 1504.3 243.279C1492.91 256.149 1480.71 269.293 1472.17 284.533C1461.41 303.721 1477.4 318.488 1475.46 337.943C1474.41 348.413 1467.51 356.769 1460.21 363.334C1455.49 367.585 1450.32 371.268 1445.04 374.704C1439.53 378.293 1433.01 381.027 1428.21 385.668C1421.36 392.271 1424.33 400.088 1425.62 408.625C1427.88 423.628 1428.37 438.867 1427.1 453.998C1425.53 472.544 1421.87 491.62 1414.14 508.474C1411.14 515.035 1407.33 521.991 1401.68 526.391C1396.03 530.79 1390.18 530.489 1383.7 529.164C1364.49 525.249 1345.32 516.141 1327.09 507.507C1304.28 496.7 1281.92 484.622 1260.57 470.882C1245.83 461.397 1231.04 451.15 1218.7 438.289C1215.12 434.546 1211.71 430.538 1208.95 426.063C1207.05 422.995 1206.04 419.035 1203.29 416.728C1194.7 409.529 1177.46 411.679 1167.39 412.097C1147.28 412.931 1127.5 416.897 1107.42 417.861C1096.47 418.388 1079.31 419.712 1071.26 409.869C1063.69 400.615 1070.55 386.041 1075.07 377.125C1083.96 359.594 1095.9 343.974 1106.6 327.678C1111 320.972 1115.82 313.956 1118.67 306.298C1121.21 299.475 1116.83 294.536 1112.52 289.583Z" stroke="#101828"/>
<path fill-rule="evenodd" clip-rule="evenodd" d="M1116.66 289.899C1103.26 272.898 1087.1 257.807 1073.61 240.529C1065.71 230.411 1052.1 213.401 1058.21 199.136C1064.91 183.461 1088.28 183.034 1101.79 181.771C1117.86 180.268 1136.74 178.214 1150.49 168.427C1154.84 165.333 1158.55 161.237 1160.12 155.843C1161.8 150.07 1159.96 145.018 1159.72 139.239C1159.22 127.115 1166.08 117.382 1175.16 110.697C1187.99 101.247 1204.03 96.7783 1219.19 93.6632C1236.36 90.1496 1253.81 88.4174 1271.3 88.4913C1288.01 88.5514 1304.55 88.1606 1321.28 87.7095C1343.16 87.1081 1365.34 88.0794 1386.57 94.2104C1407.47 100.254 1426.48 111.581 1441.41 128.243C1455.98 144.501 1465.81 164.373 1474.41 184.616C1479.3 196.105 1487.55 213.275 1499.2 219.078C1504.38 221.661 1509.46 221.483 1503.95 228.201C1497.02 236.659 1487.67 243.446 1479.63 250.68C1468.04 261.12 1456.16 271.765 1446.44 284.177C1440.22 292.103 1437.46 299.795 1437.88 310.058C1438.21 317.875 1439.71 325.612 1438.95 333.46C1437.18 351.88 1423.43 364.512 1411.27 376.275C1403.45 383.841 1396.31 389.611 1392.28 400.373C1387.52 413.092 1385.52 426.93 1382.34 440.136C1378.85 454.638 1374.81 469.724 1367.18 482.497C1360.39 493.869 1352.13 498.969 1339.77 495.905C1320.48 491.13 1301.48 479.367 1284.36 468.485C1266.94 457.414 1249.81 444.965 1235.38 429.747C1227.58 421.529 1222.26 411.88 1215.34 403.052C1206.63 391.968 1186.93 396.166 1175.23 397.104C1155.79 398.662 1094.65 410.317 1100.29 372.568C1102.64 356.812 1111.92 342.27 1118.7 328.367C1121.51 322.596 1125.58 315.671 1126.22 309.059C1126.91 301.858 1120.69 295.017 1116.66 289.899Z" stroke="#101828"/>
<path fill-rule="evenodd" clip-rule="evenodd" d="M1123.73 291.343C1113.49 275.937 1101.24 261.382 1092.45 244.742C1086.75 233.966 1081.15 219.567 1088.51 208.165C1096.81 195.298 1115.11 192.299 1128.55 190.659C1142.41 188.971 1158.95 187.551 1170.27 177.795C1173.87 174.687 1176.84 170.496 1177.39 165.478C1177.93 160.665 1176.42 155.851 1176.92 150.95C1178.04 139.945 1184.36 130.878 1192.52 124.301C1216.64 104.846 1252.53 100.52 1281.64 100.011C1296.2 99.7584 1311.19 101.085 1325.85 102.036C1344.88 103.269 1363.93 105.917 1382.07 112.298C1420.65 125.86 1446.5 155.938 1464.56 193.367C1470.24 205.148 1474.59 217.895 1483.5 227.362C1488.09 232.251 1487.09 235.762 1482.39 240.221C1475.05 247.188 1466.1 252.513 1457.96 258.329C1446.37 266.599 1434.54 274.992 1424.29 284.899C1417.23 291.729 1412.22 298.308 1410.7 308.549C1409.61 315.85 1409.86 323.29 1409.21 330.637C1407.97 344.593 1403.71 358.444 1396.18 370.021C1390.2 379.197 1383.07 387.536 1375.71 395.487C1366.13 405.84 1358.04 416.357 1350.77 428.644C1341.13 444.908 1327.58 474.908 1304.88 466.969C1279.84 458.208 1256.37 435.948 1240.3 414.381C1234.91 407.139 1230.48 398.258 1223.2 392.918C1212.31 384.937 1201.26 385.217 1188.3 385.25C1168.91 385.295 1126.7 389.738 1126.24 359.076C1126.06 346.928 1131.04 335.442 1133.43 323.757C1136.12 310.67 1130.73 301.843 1123.73 291.343Z" stroke="#101828"/>
<path fill-rule="evenodd" clip-rule="evenodd" d="M1131.36 292.717C1121.23 272.637 1098.52 239.643 1115.79 217.314C1124.92 205.514 1141.06 201.08 1154.6 198.437C1165.49 196.3 1178.63 195.497 1186.87 186.436C1192.92 179.774 1190.23 170.078 1192.55 161.739C1195.43 151.4 1202.03 142.94 1210.15 136.582C1232.83 118.811 1264.36 113.357 1291.64 112.197C1319.97 110.994 1351.19 116.619 1377.86 127.439C1411.1 140.935 1436 166.489 1453.42 198.849C1456.64 204.823 1459.56 210.953 1462.64 216.999C1464.71 221.054 1467.79 224.978 1469.42 229.244C1472.14 236.357 1468.94 242.171 1463.8 246.807C1456.41 253.481 1447.33 258.231 1438.9 263.24C1427.38 270.094 1415.6 276.825 1404.88 284.867C1397.68 290.279 1390.14 296.108 1387.56 305.497C1385.8 311.901 1385.43 318.683 1385.5 325.315C1385.63 339.535 1384.93 351.034 1378.64 364.058C1368.29 385.439 1352.37 404.665 1335.55 420.662C1322.35 433.216 1301.47 452.718 1282.24 444.325C1264.99 436.809 1254.9 418.819 1243.53 404.274C1238.01 397.203 1231.8 390.745 1224.51 385.716C1215.31 379.375 1206.65 376.715 1195.76 375.677C1177.42 373.931 1149.77 373.477 1144.1 350.268C1142 341.703 1143.2 332.831 1142.1 324.154C1140.67 312.682 1136.47 302.845 1131.36 292.717Z" stroke="#101828"/>
<path fill-rule="evenodd" clip-rule="evenodd" d="M1141.89 293.46C1134.68 271.489 1125.21 243.8 1142.63 224.273C1151.06 214.813 1162.93 209.525 1174.42 205.573C1182.65 202.741 1195.71 201.908 1200.75 193.201C1204.46 186.793 1204.97 177.953 1208.32 171.088C1212.93 161.65 1219.91 153.876 1228.09 147.79C1249.41 131.932 1277.18 125.804 1302.51 124.05C1357.54 120.242 1413.53 150.565 1442.97 200.454C1451.75 215.325 1463.09 231.153 1448.9 246.346C1433.41 262.92 1410.07 270.685 1391.58 282.462C1384.52 286.959 1375.51 292.364 1371.57 300.506C1369.2 305.399 1369.04 311.539 1368.93 316.926C1368.65 330.648 1367.57 342.988 1362.34 355.791C1354.26 375.577 1341.38 393.83 1326.79 408.783C1314.06 421.821 1295.91 437.143 1277.43 427.744C1263.26 420.521 1254.27 405.189 1243.26 393.888C1231 381.301 1215.85 372.82 1199.21 368.675C1183.02 364.654 1165.26 361.943 1156.73 344.86C1153.8 339 1150.74 331.412 1149.65 324.926C1147.88 314.232 1145.28 303.709 1141.89 293.46Z" stroke="#101828"/>
<path fill-rule="evenodd" clip-rule="evenodd" d="M1153.64 293.615C1150.3 271.429 1149.93 248.295 1165.43 230.81C1172.67 222.652 1181.81 216.857 1191.06 211.606C1197.87 207.742 1204.9 204.483 1209.98 198.149C1214.69 192.285 1218.27 185.475 1222.81 179.457C1228.81 171.482 1235.98 164.578 1244.06 159.01C1264.31 145.081 1288.94 138.567 1312.51 136.307C1323.92 135.209 1336.29 134.637 1347.62 137.631C1358.56 140.52 1369.38 145.087 1379.45 150.413C1400.84 161.724 1419.37 178.289 1432.81 199.233C1442.03 213.598 1447.01 227.566 1435.08 242.139C1421.62 258.565 1400.53 267.629 1383.15 278.29C1371.22 285.602 1357.86 292.769 1355.63 308.308C1353.86 320.673 1352.42 332.408 1347.83 344.095C1341 361.334 1330.96 376.95 1318.3 390.017C1306.72 401.92 1292.08 412.022 1275.52 405.664C1262.4 400.617 1252.22 389.312 1240.76 381.23C1227.98 372.203 1213.95 367.226 1199.17 363.224C1185.89 359.613 1173.38 354.064 1164.8 342.284C1163.04 339.876 1161.2 337.255 1159.84 334.562C1158.11 331.126 1158.25 327.72 1157.91 323.868C1157.03 313.704 1155.15 303.656 1153.64 293.615Z" stroke="#101828"/>
<path fill-rule="evenodd" clip-rule="evenodd" d="M1166.59 291.802C1166.87 270.729 1171.67 250.813 1184.83 234.39C1190.45 227.364 1197.17 221.578 1203.36 215.14C1208.34 209.95 1213.05 205.128 1218.78 200.851C1232.37 190.724 1243.42 177.62 1257.86 168.602C1277.14 156.546 1299.23 149.883 1321.15 147.218C1331.85 145.916 1342.9 145.461 1353.73 146.932C1363.03 148.195 1371.93 152.628 1380.19 157.164C1396.39 166.049 1412.11 178.678 1422.62 194.654C1445.8 229.878 1400.1 255.487 1376.64 270.484C1365.86 277.383 1349.38 285.373 1344.96 299.038C1341.8 308.8 1339.87 318.728 1335.81 328.189C1324.88 353.596 1302.7 383.479 1273.14 379.501C1260.49 377.801 1248.97 370.896 1237.16 366.261C1225 361.486 1212.45 358.825 1199.81 355.905C1188 353.177 1178.59 349.295 1170.96 338.888C1167.32 333.918 1167.64 327.969 1167.32 321.872C1166.78 311.856 1166.46 301.784 1166.59 291.802Z" stroke="#101828"/>
<path fill-rule="evenodd" clip-rule="evenodd" d="M1178.37 289.102C1183.12 257.294 1200.76 222.568 1226.69 204.096C1257.2 182.366 1290.24 164.068 1326.69 158.808C1343.59 156.368 1362.1 155.168 1378.04 163.144C1390.17 169.211 1404.27 178.279 1410.95 191.031C1427.28 222.222 1390.94 247.053 1370.24 261.483C1359.09 269.252 1344.9 276.822 1336.5 288.167C1331.63 294.744 1329.14 303.445 1325.21 310.669C1313.28 332.562 1293.65 350.219 1269.19 353.377C1257.89 354.836 1246.5 353.031 1235.28 351.597C1223.79 350.129 1212.16 349.332 1200.75 347.284C1191.63 345.648 1180.89 342.878 1177.54 332.589C1173.31 319.623 1176.44 302.092 1178.37 289.102Z" stroke="#101828"/>
<path fill-rule="evenodd" clip-rule="evenodd" d="M1189.94 283.993C1196.86 254.088 1211.53 224.917 1236.18 207.064C1249.26 197.598 1264.43 191.063 1279.01 184.606C1295.52 177.289 1312.78 171.609 1330.4 168.791C1352.35 165.282 1387.89 162.118 1399.36 188.501C1410.74 214.689 1381.98 237.867 1364.98 251.075C1354.07 259.536 1342.4 267.302 1331.99 276.552C1326.34 281.567 1321.99 287.361 1317.21 293.243C1304 309.539 1285.16 322.441 1265.97 329.328C1247.36 336.004 1224.34 338.96 1204.7 336.754C1196.23 335.805 1190.17 332.606 1187.61 323.509C1184.06 310.864 1187.08 296.346 1189.94 283.993Z" stroke="#101828"/>
<path fill-rule="evenodd" clip-rule="evenodd" d="M1201.43 275.938C1208.31 249.608 1223.15 225.558 1244.79 209.755C1269.06 192.04 1300.3 182.196 1329.02 177.19C1344.28 174.531 1377.36 167.322 1385.14 187.954C1392.92 208.586 1370.43 228.919 1357.48 240.111C1341.77 253.675 1324.83 266.772 1307.91 278.942C1293.21 289.523 1277.53 300.341 1261.6 308.512C1252.62 313.148 1243.27 316.933 1233.65 319.822C1226.53 321.944 1217.47 325.109 1210 323.53C1191.17 319.54 1198.14 288.528 1201.43 275.938Z" stroke="#101828"/>
<path fill-rule="evenodd" clip-rule="evenodd" d="M1215.61 268.053C1230.7 218.259 1278.53 193.77 1324.58 185.234C1335.28 183.252 1365.28 176.109 1371.26 191.319C1377.06 206.067 1358.62 223.557 1349.99 231.844C1323.25 257.521 1290.21 276.559 1258.91 295.42C1249.13 301.307 1231.51 314.082 1219.39 308.189C1206.22 301.779 1212.48 278.378 1215.61 268.053Z" stroke="#101828"/>
<path fill-rule="evenodd" clip-rule="evenodd" d="M1231.07 258.469C1244.2 221.8 1282.38 200.769 1317.49 193.836C1326.09 192.139 1347.93 186.857 1354.44 197.09C1360.46 206.556 1346.08 220.272 1340.7 225.722C1328.72 237.859 1314.53 247.858 1300.5 257.468C1287.53 266.359 1274.42 275.473 1260.78 282.993C1253.59 286.951 1240.11 295.398 1231.95 289.285C1223.15 282.71 1228.16 266.612 1231.07 258.469Z" stroke="#101828"/>
<path fill-rule="evenodd" clip-rule="evenodd" d="M1248.11 247.756C1258.12 223.81 1284.91 208.26 1308.55 203.092C1314.92 201.705 1328.66 198.106 1334.03 204.501C1338.97 210.39 1331.01 219.025 1327.47 223.012C1311.81 240.687 1288.88 256.475 1267.87 266.172C1262.58 268.609 1253.09 273.394 1247.65 268.474C1242.08 263.421 1245.81 253.255 1248.11 247.756Z" stroke="#101828"/>
<path fill-rule="evenodd" clip-rule="evenodd" d="M1266.19 237.697C1271.82 225.806 1286.56 216.835 1298.77 213.979C1307.36 211.971 1317.68 213.706 1310.2 224.056C1302.76 234.328 1288.96 243.709 1277.26 247.868C1268.34 251.04 1261.34 247.911 1266.19 237.697Z" stroke="#101828"/>
<path fill-rule="evenodd" clip-rule="evenodd" d="M808.968 320.055C808.607 296.563 796.776 272.148 802.619 248.21C807.416 228.551 831.571 226.91 846.061 218.003C857.576 210.926 864.11 198.391 870.338 186.364C875.933 175.566 880.958 164.444 886.852 153.824C890.668 146.958 897.22 133.476 905.494 133.232C913.416 132.998 920.679 143.504 925.281 149.714C931.28 157.81 936.599 166.44 942.425 174.665C952.242 188.537 964.022 198.806 977.51 208.525C992.859 219.583 1008.46 230.263 1024.32 240.566C1035.99 248.174 1047.75 255.726 1058.97 264.085C1066.01 269.331 1081.54 279.173 1081.61 288.843C1081.65 293.457 1077.5 298.568 1074.71 302.256C1069.98 308.5 1064.6 314.208 1059.19 319.793C1049.13 330.197 1038.63 340.129 1028.26 350.181C1014.78 363.228 1001.92 376.061 990.075 390.871C977.832 406.202 966.135 422.038 954.199 437.657C946.115 448.239 938.04 460.122 926.38 466.615C911.775 474.731 899.788 466.173 885.019 466.073C872.314 465.986 873.251 434.916 871.636 426.276C870.016 417.532 866.445 409.392 865.061 400.626C863.336 389.684 863.313 378.489 862.889 367.43C862.374 353.903 862.169 341.025 848.47 335.867C840.674 332.936 832.24 332.32 824.17 330.564C818.943 329.425 809.082 327.477 808.968 320.055Z" stroke="#101828"/>
<path fill-rule="evenodd" clip-rule="evenodd" d="M815.215 315.876C813.883 296.184 806.016 270.979 813.456 250.652C819.812 233.28 839.691 231.029 853.077 221.903C864.127 214.377 869.047 202.061 874.57 189.961C879.002 180.255 883.299 170.455 888.33 161.059C892.037 154.135 897.697 142.445 905.406 141.012C912.335 139.723 919.767 150.044 923.656 155.294C929.331 162.959 934.185 171.283 939.198 179.433C948.007 193.748 957.027 206.622 969.919 217.138C982.869 227.699 997.036 235.596 1011.35 243.815C1022.56 250.245 1033.7 256.862 1044.34 264.287C1052.27 269.814 1063.67 276.889 1067.3 286.746C1070.17 294.543 1055.6 307.483 1051.31 312.05C1042.47 321.44 1033.1 330.255 1023.72 339.015C1012.28 349.691 1000.47 359.027 990.366 371.205C972.295 392.977 957.189 420.091 933.937 436.273C919.912 446.033 904.305 448.529 888.706 447.069C882.529 446.491 881.046 437.287 880.268 431.919C878.973 423.002 878.811 413.931 877.815 404.978C876.883 396.596 874.813 388.633 873.144 380.414C871.456 372.087 870.983 363.555 869.739 355.17C868.97 349.965 868.208 343.908 864.84 339.723C861.355 335.391 855.606 333.575 850.582 332.196C841.146 329.631 816.156 329.773 815.215 315.876Z" stroke="#101828"/>
<path fill-rule="evenodd" clip-rule="evenodd" d="M823.252 307.633C821.012 289.556 817.876 267.043 827.001 250.389C834.459 236.772 850.365 233.834 861.726 224.961C871.175 217.583 874.745 205.848 879.435 194.943C883.284 185.998 887.153 177.014 891.818 168.502C895.356 162.047 899.915 153.295 906.939 151.043C912.945 149.118 919.73 157.739 923.059 162.029C928.728 169.341 933.35 177.534 937.941 185.619C945.451 198.849 952.361 212.98 963.049 223.741C973.434 234.183 985.771 240.346 998.339 247.277C1007.97 252.587 1017.53 258.101 1026.6 264.433C1033.57 269.292 1042.2 275.049 1045.83 283.134C1048.96 290.107 1040.91 298.36 1036.88 303.279C1030.23 311.397 1022.86 318.844 1015.58 326.322C1007.73 334.389 999.032 341.83 991.434 350.096C975.457 367.489 962.692 386.747 943 400.072C930.246 408.704 913.085 416.546 898.009 415.136C887.167 414.119 887.88 388.797 886.839 380.706C885.127 367.477 881.82 353.577 876.568 341.391C872.057 330.949 861.338 327.729 851.478 325.387C845.301 323.917 838.827 323.123 832.852 320.85C825.937 318.216 824.19 315.209 823.252 307.633Z" stroke="#101828"/>
<path fill-rule="evenodd" clip-rule="evenodd" d="M830.752 299.159C829.419 283.877 829.718 265.805 838.356 252.585C845.926 241.006 859.405 237.957 868.991 228.836C876.472 221.719 879.41 210.116 883.434 200.704C888.351 189.197 895.242 167.944 907.646 163.614C919.185 159.588 931.253 185.304 935.43 192.973C942.044 205.11 947.575 218.42 955.596 229.629C962.504 239.278 971.758 244.613 981.581 250.345C994.106 257.667 1013.12 266.348 1019.82 280.617C1024.81 291.25 1008.58 307.057 1003.04 314.424C997.238 322.119 992.872 331.241 986.89 338.665C977.449 350.38 962.152 359.812 949.522 367.01C937.244 374.012 921.298 381.762 907.369 381.301C898.214 380.999 896.472 366.079 894.519 358.79C891.721 348.429 888 339.144 880.007 332.097C871.872 324.924 862.283 321.543 852.203 318.585C847.029 317.077 841.126 315.901 836.497 312.856C831.383 309.542 831.266 305.033 830.752 299.159Z" stroke="#101828"/>
<path fill-rule="evenodd" clip-rule="evenodd" d="M839.889 290.351C839.963 277.148 842.823 263.069 851.305 252.885C858.37 244.402 869.428 241.566 876.19 232.895C881.547 226.029 884.274 216.391 887.86 208.418C892.246 198.648 898.448 181.58 909.355 178.19C920 174.889 929.416 193.688 933.497 201.127C939.474 212.034 944.313 223.596 950.344 234.473C955.069 243.007 960.847 248.507 968.541 254.007C977.572 260.467 990.172 267.624 994.997 278.312C998.475 286.051 990.056 298.417 986.999 305.234C984.949 309.813 983.074 314.464 982.043 319.427C981.241 323.292 981.161 326.869 978.836 330.188C972.981 338.535 960.144 339.625 951.434 342.376C939.867 346.028 927.594 350.178 915.489 350.97C908.049 351.465 904.252 344.231 900.005 339.141C894.987 333.125 887.883 328.798 881.678 324.258C873.489 318.257 864.578 314.524 855.358 310.701C851.2 308.976 846.316 307.284 843.094 303.854C839.73 300.298 839.863 295.116 839.889 290.351Z" stroke="#101828"/>
<path fill-rule="evenodd" clip-rule="evenodd" d="M849.483 282.513C850.954 271.425 855.535 260.827 863.273 252.988C869.205 246.97 877.083 243.581 881.844 236.35C886.281 229.61 889.372 221.946 893.036 214.739C896.914 207.12 902.675 194.385 911.618 192.312C921.257 190.079 928.682 202.925 932.793 210.045C937.987 219.042 941.934 228.722 946.578 238.029C950.076 244.966 954.539 251.311 959.818 256.851C965.354 262.692 972.861 268.286 975.662 276.317C978.138 283.431 973.505 292.037 972.688 299.25C971.813 306.956 973.346 315.051 968.496 321.668C958.496 335.314 933.397 332.784 919.049 333.075C904.891 333.376 893.509 325.026 882.052 317.082C874.485 311.837 866.604 307.396 858.846 302.509C850.937 297.523 848.19 292.272 849.483 282.513Z" stroke="#101828"/>
<path fill-rule="evenodd" clip-rule="evenodd" d="M858.4 276.167C862.748 260.103 876.327 251.565 886.034 239.425C893.976 229.486 899.932 208.904 913.308 206.182C928.495 203.092 937.587 230.362 942.867 240.885C948.725 252.555 959.159 262.048 963.499 274.402C965.779 280.886 963.821 286.936 962.606 293.418C961.275 300.534 960.274 307.81 955.679 313.538C946.633 324.811 928.966 324.733 916.242 325.043C903.071 325.365 891.419 317.64 880.925 309.93C869.795 301.766 853.947 292.641 858.4 276.167Z" stroke="#101828"/>
<path fill-rule="evenodd" clip-rule="evenodd" d="M865.68 271.811C870.579 260.365 880.874 251.061 889.227 242.277C896.199 234.954 903.7 220.213 914.331 219.162C926.825 217.923 934.398 233.664 939.314 243.316C944.152 252.8 951.125 262.814 953.804 273.224C956.598 284.067 949.158 298.671 942.062 306.344C934.148 314.9 921.2 318.062 910.089 317.72C898.457 317.373 887.783 310.302 878.973 302.967C869.554 295.126 859.983 285.097 865.68 271.811Z" stroke="#101828"/>
<path fill-rule="evenodd" clip-rule="evenodd" d="M872.44 269.656C877.119 260.136 885.231 252.083 892.71 244.9C898.482 239.355 906.998 229.926 915.326 229.695C924.486 229.44 932.25 237.354 935.892 245.467C939.482 253.469 943.265 263.501 943.802 272.28C944.969 291.397 921.21 312.811 903.368 311.068C886.452 309.416 863.109 288.622 872.44 269.656Z" stroke="#101828"/>
<path fill-rule="evenodd" clip-rule="evenodd" d="M878.685 268.606C885.141 256.203 900.822 238.52 915.339 238.101C932.002 237.621 936.186 257.297 934.014 271.557C931.807 286.111 912.595 307.176 897.276 304.33C882.325 301.552 871.034 283.315 878.685 268.606Z" stroke="#101828"/>
<path fill-rule="evenodd" clip-rule="evenodd" d="M885.283 266.601C890.749 256.216 902.413 243.245 914.578 242.852C929.073 242.387 928.799 259 925.512 269.34C922.094 280.075 907.041 298.411 894.349 295.516C882.008 292.69 880.046 276.554 885.283 266.601Z" stroke="#101828"/>
<path fill-rule="evenodd" clip-rule="evenodd" d="M891.031 265.405C894.639 257.995 903.668 248.63 912.252 248.33C922.744 247.97 920.705 261.146 917.994 267.506C914.771 275.074 903.971 288.223 894.907 286.092C885.983 283.994 888.054 271.511 891.031 265.405Z" stroke="#101828"/>
<path fill-rule="evenodd" clip-rule="evenodd" d="M1384.59 688.789C1361.37 703.656 1335.12 715.928 1310.36 728.401C1274.18 746.627 1237.47 764.363 1199.46 777.94C1179.08 785.217 1152.67 795.709 1130.8 790.008C1122.8 787.924 1115.51 781.621 1108.34 777.525C1098.45 771.878 1088.42 766.51 1078.41 761.131C1058.32 750.347 1038.17 739.672 1018.43 728.197C1008.92 722.67 999.698 715.709 989.801 710.993C984.017 708.236 977.096 709.526 970.916 709.7C956.601 710.106 942.294 710.876 927.988 711.532C910.488 712.332 892.949 713.183 875.43 712.867C867.528 712.723 848.176 714.202 843.826 707.021C841.486 703.154 847.002 696.181 849.559 692.954C854.253 687.024 859.65 681.68 864.974 676.391C877.288 664.158 890.367 652.509 901.313 638.844C906.937 631.82 914.305 623.238 910.634 613.648C906.928 603.962 900.509 595.575 896.592 585.923C892.083 574.815 890.213 563.255 888.083 551.477C886.507 542.771 882.836 535.058 879.384 527.032C875.57 518.161 871.619 509.215 868.971 499.86C867.22 493.68 864.396 482.563 870.518 478.651C879.218 473.088 895.532 477.592 905.449 479.231C919.154 481.493 932.759 484.373 946.428 486.854C956.35 488.658 966.307 490.637 976.395 490.848C992.657 491.187 1008.97 490.012 1025.19 488.917C1055.23 486.89 1085.04 484.142 1115.18 484.142C1141.58 484.142 1202.59 516.369 1216.87 522.043C1245.38 533.371 1274.64 544.109 1301.61 559.181C1308.91 563.261 1320.14 568.698 1323.98 577.097C1326.35 582.272 1325.26 585.264 1330.85 588.599C1338.47 593.149 1348.24 594.935 1356.67 596.971C1370.26 600.248 1383.96 603.024 1397.61 605.992C1425.22 611.979 1452.64 618.751 1480.14 625.267C1488.45 627.237 1498.5 627.673 1506.43 631.143C1511.54 633.372 1511.01 636.177 1507.05 639.563C1500.12 645.505 1490.4 648.804 1482.2 652.193C1470.2 657.158 1458 661.587 1445.79 665.953C1433.59 670.32 1421.32 674.551 1409.11 678.926C1401.04 681.807 1391.84 684.149 1384.59 688.789Z" stroke="#101828"/>
<path fill-rule="evenodd" clip-rule="evenodd" d="M1365.48 685.519C1340.92 700.416 1313.65 712.284 1287.36 723.863C1253.72 738.691 1219.32 752.588 1183.87 761.857C1163.05 767.296 1138.5 773.301 1117.23 767.064C1109.64 764.839 1103.98 759.837 1097.47 755.422C1090.06 750.384 1082.36 745.768 1074.66 741.223C1058.82 731.87 1042.8 722.836 1026.62 714.121C1018.05 709.486 1008.62 703.28 998.935 701.672C991.237 700.392 982.493 702.244 974.761 702.783C960.836 703.753 946.914 704.752 932.983 705.602C916.908 706.58 900.788 707.484 884.679 707.327C875.701 707.24 860.288 708.682 853.938 702.56C848.399 697.218 868.567 677.897 872.114 674.226C883.191 662.765 894.841 651.851 905.15 639.595C911.243 632.368 918.662 623.578 921.231 613.998C923.418 605.834 919.198 596.532 916.706 588.986C913.59 579.533 911.075 569.734 907.454 560.48C904.229 552.235 899.097 544.89 894.59 537.395C889.632 529.15 884.611 520.769 880.93 511.774C878.675 506.239 874.943 496.97 879.425 491.694C884.602 485.611 900.563 489.586 907.123 490.453C920.432 492.236 933.639 494.886 946.857 497.259C968.81 501.198 989.74 504.643 1012.1 503.818C1041.21 502.74 1070.29 500.204 1099.4 498.801C1110.15 498.277 1121.07 497.223 1131.83 497.792C1137.99 498.12 1142.69 500.108 1146.28 504.592C1151.17 510.711 1162.46 514.099 1170.3 517.61C1182.54 523.082 1194.92 528.171 1207.28 533.326C1234.4 544.649 1262.04 555.562 1287.76 570.207C1295.9 574.838 1305.21 580.003 1311.23 587.655C1314.59 591.922 1313.75 596.032 1315.8 600.568C1318.51 606.533 1327.43 609.225 1332.77 611.177C1343.06 614.947 1353.78 617.473 1364.42 619.84C1388.48 625.195 1412.6 628.715 1437.05 631.308C1442.78 631.91 1465.35 633.997 1453.5 644.055C1440.4 655.17 1421.5 660.618 1406.08 666.881C1392.19 672.513 1378.29 677.752 1365.48 685.519Z" stroke="#101828"/>
<path fill-rule="evenodd" clip-rule="evenodd" d="M1331.54 682.764C1308.45 695.87 1282.87 705.648 1258 715.002C1227.82 726.352 1196.89 736.469 1165.24 742.137C1145.35 745.694 1123.43 748.427 1103.69 742.516C1090.2 738.481 1079.77 727.573 1067.92 720.068C1056.08 712.563 1043.75 705.519 1031.06 699.647C1023.18 696.003 1014.71 692.332 1005.94 692.813C984.631 693.979 963.345 696.76 942.01 698.11C927.896 699.012 913.753 699.755 899.596 699.532C891.06 699.4 879.332 699.941 871.774 695.203C863.419 689.962 907.902 645.217 912.106 640.181C922.647 627.553 935.411 610.794 933.373 592.835C931.424 575.667 922.975 562.85 913.419 549.398C907.996 541.746 890.606 521.304 897.05 511.351C900.732 505.663 912.868 507.632 918.634 508.02C929.996 508.784 941.296 510.425 952.599 511.851C969.079 513.916 986.013 517.106 1002.56 518.041C1014.09 518.691 1025.68 517.822 1037.23 517.804C1053.78 517.78 1070.34 517.912 1086.89 518.068C1100.79 518.201 1114.81 518.068 1128.66 519.475C1137.27 520.341 1143.81 522.287 1149.98 527.783C1155.36 532.563 1163.47 535.363 1170.32 538.402C1181.63 543.421 1193.09 548.072 1204.52 552.798C1228.44 562.696 1252.63 572.387 1275.53 584.756C1285.98 590.4 1303.56 598.301 1306.01 611.984C1306.89 616.918 1307.54 619.05 1312.11 621.855C1318.59 625.836 1326.36 627.631 1333.63 629.192C1350.58 632.83 1368.03 632.285 1384.95 635.881C1391.85 637.364 1400.84 640.563 1392.98 647.887C1383.79 656.453 1370.43 661.161 1359.43 666.453C1353.94 669.093 1348.28 671.565 1343.06 674.788C1339.06 677.271 1335.63 680.455 1331.54 682.764Z" stroke="#101828"/>
<path fill-rule="evenodd" clip-rule="evenodd" d="M1287.8 678.672C1266.47 689.317 1243.3 697.056 1220.55 704.033C1195.28 711.773 1169.4 718.183 1143.17 720.911C1125.07 722.801 1105.77 723.358 1088.2 717.575C1077.09 713.916 1069.55 706.222 1059.99 699.769C1045.55 690.016 1029.94 682.289 1012.6 684.169C993.158 686.273 973.653 687.851 954.086 688.904C942.282 689.54 930.433 690.016 918.615 689.573C911.144 689.296 901.517 688.829 895.017 685.257C886.32 680.474 918.989 644.079 923.061 638.775C933.16 625.619 940.564 611.816 944.89 595.517C948.417 582.217 941.211 571.762 933.776 561.813C929.154 555.635 914.218 540.095 918.895 532.073C921.459 527.648 929.912 527.877 934.451 527.651C943.103 527.223 951.792 527.669 960.443 527.865C973.218 528.167 986.817 526.096 999.484 527.763C1027.56 531.452 1055.56 534.646 1083.8 537.175C1099.37 538.567 1115.04 539.833 1130.47 542.519C1136.01 543.483 1141.73 544.505 1146.98 546.687C1150.36 548.088 1152.2 550.475 1155.05 552.434C1168.64 561.759 1186.37 566.557 1201.67 572.533C1222.02 580.478 1242.47 588.299 1262.27 597.684C1272.69 602.621 1287.24 608.293 1294.4 618.368C1296.57 621.412 1295.65 623.847 1297.01 626.774C1298.58 630.149 1303.34 631.156 1306.41 632.096C1313.39 634.233 1342.6 637.464 1329.14 649.998C1322.72 655.969 1314.53 659.799 1307.29 664.492C1304.67 666.192 1302.12 667.901 1299.93 670.194C1296.27 674.04 1292.67 676.234 1287.8 678.672Z" stroke="#101828"/>
<path fill-rule="evenodd" clip-rule="evenodd" d="M1241.2 674.063C1199.09 691.285 1149.73 703.018 1103.82 700.745C1088.55 699.986 1072.12 697.454 1058.89 688.789C1051.08 683.67 1044.85 677.893 1035.47 676.044C1028.7 674.71 1021.42 676.225 1014.61 676.773C1004.75 677.567 994.883 678.278 985.009 678.853C972.767 679.555 960.485 680.097 948.221 679.808C939.457 679.6 927.355 679.835 919.742 674.867C910.653 668.941 933.789 641.145 937.044 636.192C944.934 624.188 950.465 612.557 952.464 598.09C953.052 593.875 955.034 589.554 954.777 585.306C954.509 580.968 951.976 577.105 949.637 573.693C946.579 569.222 935.967 558.618 939.006 553.165C940.685 550.155 946.987 549.775 950.254 549.137C956.382 547.932 962.598 547.285 968.763 546.328C979.223 544.696 989.609 539.382 1000.11 539.532C1028.33 539.93 1056.97 549.167 1084.63 554.24C1101.08 557.266 1117.63 560.012 1133.88 564.11C1139.02 565.407 1144.31 566.75 1149.2 568.951C1152.61 570.487 1154.8 573.224 1157.96 574.943C1170.07 581.546 1183.99 585.553 1197 589.997C1213.88 595.778 1230.82 601.384 1247.58 607.538C1258.09 611.395 1271.6 614.788 1280.66 621.942C1287.27 627.166 1282.75 628.729 1279.26 633.594C1277.48 636.075 1277.89 638.52 1277.12 641.329C1276.01 645.339 1272.89 648.227 1269.96 650.822C1265.92 654.408 1260.54 657.362 1257.23 661.758C1256.07 663.305 1256.12 665.226 1255.18 666.575C1252.44 670.504 1245.16 672.443 1241.2 674.063Z" stroke="#101828"/>
<path fill-rule="evenodd" clip-rule="evenodd" d="M1196.43 667.927C1162.25 678.755 1124.22 684.92 1088.09 682.059C1075.52 681.062 1062.87 678.746 1051.16 673.659C1045.83 671.352 1041.83 668.78 1035.99 668.641C1022.45 668.322 1008.86 669.439 995.319 669.707C985.627 669.9 975.887 669.969 966.218 669.147C959.753 668.599 951.011 667.943 945.715 663.759C938.019 657.666 951.912 636.953 954.739 631.231C959.426 621.74 964.075 611.19 962.216 600.209C961.646 596.85 960.637 593.884 960.506 590.459C960.38 587.517 960.731 584.8 959.742 581.987C958.519 578.499 953.08 573.087 954.95 569.876C956.224 567.683 960.004 567.581 962.518 566.879C966.596 565.741 970.577 564.248 974.422 562.416C978.47 560.476 981.916 557.479 986.109 555.877C992.916 553.281 1000.54 553.037 1007.69 553.048C1036.24 553.097 1065.15 559.039 1092.97 565.253C1107.46 568.488 1122.03 571.936 1136.11 576.843C1140.38 578.333 1145.23 579.83 1148.99 582.583C1151.34 584.297 1152.93 586.444 1155.59 587.733C1178.36 598.739 1204.68 602.826 1228.85 610.774C1235.14 612.843 1270 623.298 1251.78 633.131C1240.7 639.107 1229 641.824 1218.9 649.998C1215.82 652.483 1213.76 654.54 1212.56 658.332C1211.77 660.856 1213.68 659.576 1211.01 662.214C1207.78 665.385 1200.41 666.665 1196.43 667.927Z" stroke="#101828"/>
<path fill-rule="evenodd" clip-rule="evenodd" d="M1160.89 661.525C1120.87 670.363 1078.49 670.783 1037.84 662.948C1027.6 660.975 1016.93 661.447 1006.56 660.945C996.481 660.465 978.562 661.465 971.242 653.287C965.934 647.359 971.693 634.762 973.685 628.131C976.224 619.684 978.442 610.957 974.274 602.752C971.833 597.948 968.489 593.374 965.871 588.614C964.619 586.341 962.041 582.857 963.115 580.704C964.893 577.152 973.211 575.656 977.247 573.98C990.147 568.626 1003.81 567.26 1017.6 567.298C1043.07 567.368 1068.68 571.044 1093.66 576.029C1105.16 578.323 1116.82 580.77 1127.91 584.758C1134.18 587.014 1138.81 591.365 1144.8 593.945C1164.09 602.257 1184.82 606.698 1204.44 614.299C1210.12 616.5 1231.33 623.828 1220.64 632.467C1210.3 640.831 1195.21 639.837 1184.45 647.705C1183.23 648.606 1181.72 649.684 1181.02 651.14C1180.6 652.011 1181.33 653.669 1181.02 654.164C1177.71 659.549 1165.97 660.405 1160.89 661.525Z" stroke="#101828"/>
<path fill-rule="evenodd" clip-rule="evenodd" d="M1134.96 655.684C1114.43 658.655 1093.45 659.392 1072.58 659.579C1061.16 659.682 1048.63 660.449 1037.46 657.399C1030.6 655.521 1023.98 653.879 1016.91 652.695C1009.3 651.421 997.055 650.494 992.422 643.589C988.962 638.429 991.333 627.822 991.459 621.547C991.593 614.666 990.256 609.563 985.652 604.639C982.757 601.538 969.478 590.282 971.012 587.036C972.473 583.944 981.726 583.47 985.727 582.667C998.372 580.119 1011.19 579.231 1024.05 579.37C1043.97 579.581 1063.96 581.725 1083.57 585.409C1091.68 586.939 1100.06 588.525 1107.81 591.583C1113.02 593.645 1117.37 597.302 1122.55 599.434C1137.39 605.548 1153.08 609.699 1167.97 615.925C1172.74 617.927 1188.31 623.256 1184.58 631.469C1181.47 638.326 1170.88 640.412 1165.68 645.008C1156.83 652.846 1146.24 654.054 1134.96 655.684Z" stroke="#101828"/>
<path fill-rule="evenodd" clip-rule="evenodd" d="M1122.03 651.744C1105.74 653.711 1089.08 654.571 1072.55 654.613C1061.89 654.64 1050.64 654.793 1040.17 652.264C1034.92 650.995 1030.35 648.026 1025.37 645.909C1020.25 643.732 1013.18 641.301 1010.97 636.309C1008.89 631.617 1009.66 624.772 1007.84 619.115C1006.21 614.095 1002.81 610.994 999.148 607.602C996.814 605.434 984.829 596.047 986.215 593.975C987.7 591.755 994.898 591.936 998.644 591.629C1008.96 590.769 1019.32 590.495 1029.67 590.808C1043.79 591.265 1058.02 592.54 1071.9 595.427C1081.74 597.473 1089.17 602.345 1098.35 605.918C1110.24 610.558 1122.56 614.228 1134.33 619.304C1140.2 621.834 1148.89 625.088 1151.89 631.617C1153.05 634.119 1154.17 640.483 1152.88 642.986C1151.34 645.993 1145.59 647.268 1142.87 648.041C1136.07 649.969 1128.95 650.907 1122.03 651.744Z" stroke="#101828"/>
</g>
</svg>
