<svg width="1291" height="128" viewBox="0 0 1291 128" fill="none" xmlns="http://www.w3.org/2000/svg">
<rect x="5" width="1284" height="128" rx="20" fill="#060623"/>
<g opacity="0.5" clipPath="url(#clip0_11038_151309)">
<g clipPath="url(#clip1_11038_151309)">
<mask id="mask0_11038_151309" style="mask-type:alpha" maskUnits="userSpaceOnUse" x="0" y="-1" width="620" height="183">
<rect x="0.496094" y="-0.359375" width="618.656" height="182.359" rx="9.957" fill="#4A3AFF"/>
</mask>
<g mask="url(#mask0_11038_151309)">
<path opacity="0.1" d="M183.637 91.8896L93.5264 182L93.5264 91.8896L183.637 91.8896Z" fill="white"/>
<rect opacity="0.2" x="93.5" y="-1.04053" width="92.9304" height="92.9316" transform="rotate(90 93.5 -1.04053)" fill="white"/>
</g>
</g>
</g>
<path d="M78.09 61.7503C75.6873 61.7503 73.6247 61.2403 71.902 60.2203C70.1793 59.1776 68.8533 57.7383 67.924 55.9023C66.9947 54.0436 66.53 51.9016 66.53 49.4763C66.53 47.051 66.9947 44.909 67.924 43.0503C68.8533 41.1916 70.1793 39.741 71.902 38.6983C73.6247 37.6556 75.6873 37.1343 78.09 37.1343C80.946 37.1343 83.2807 37.8483 85.094 39.2763C86.93 40.6816 88.0747 42.665 88.528 45.2263H83.734C83.4393 43.9343 82.8047 42.9256 81.83 42.2003C80.878 41.4523 79.6087 41.0783 78.022 41.0783C75.8233 41.0783 74.1007 41.8263 72.854 43.3223C71.6073 44.8183 70.984 46.8696 70.984 49.4763C70.984 52.083 71.6073 54.1343 72.854 55.6303C74.1007 57.1036 75.8233 57.8403 78.022 57.8403C79.6087 57.8403 80.878 57.5003 81.83 56.8203C82.8047 56.1176 83.4393 55.1543 83.734 53.9303H88.528C88.0747 56.3783 86.93 58.2936 85.094 59.6763C83.2807 61.059 80.946 61.7503 78.09 61.7503ZM100.37 61.7503C98.7384 61.7503 97.265 61.3763 95.9504 60.6283C94.6584 59.8803 93.627 58.849 92.8564 57.5343C92.1084 56.197 91.7344 54.6556 91.7344 52.9103C91.7344 51.165 92.1197 49.635 92.8904 48.3203C93.661 46.983 94.6924 45.9403 95.9844 45.1923C97.299 44.4443 98.7724 44.0703 100.404 44.0703C102.014 44.0703 103.464 44.4443 104.756 45.1923C106.071 45.9403 107.102 46.983 107.85 48.3203C108.621 49.635 109.006 51.165 109.006 52.9103C109.006 54.6556 108.621 56.197 107.85 57.5343C107.102 58.849 106.071 59.8803 104.756 60.6283C103.442 61.3763 101.98 61.7503 100.37 61.7503ZM100.37 57.9763C101.504 57.9763 102.49 57.557 103.328 56.7183C104.167 55.857 104.586 54.5876 104.586 52.9103C104.586 51.233 104.167 49.975 103.328 49.1363C102.49 48.275 101.515 47.8443 100.404 47.8443C99.2484 47.8443 98.251 48.275 97.4124 49.1363C96.5964 49.975 96.1884 51.233 96.1884 52.9103C96.1884 54.5876 96.5964 55.857 97.4124 56.7183C98.251 57.557 99.237 57.9763 100.37 57.9763ZM112.898 61.3423V44.4783H116.74L117.114 46.7563C117.658 45.9403 118.372 45.2943 119.256 44.8183C120.162 44.3196 121.205 44.0703 122.384 44.0703C124.99 44.0703 126.838 45.079 127.926 47.0963C128.538 46.167 129.354 45.4303 130.374 44.8863C131.416 44.3423 132.55 44.0703 133.774 44.0703C135.972 44.0703 137.661 44.7276 138.84 46.0423C140.018 47.357 140.608 49.2836 140.608 51.8223V61.3423H136.256V52.2303C136.256 50.7796 135.972 49.669 135.406 48.8983C134.862 48.1276 134.012 47.7423 132.856 47.7423C131.677 47.7423 130.725 48.173 130 49.0343C129.297 49.8956 128.946 51.097 128.946 52.6383V61.3423H124.594V52.2303C124.594 50.7796 124.31 49.669 123.744 48.8983C123.177 48.1276 122.304 47.7423 121.126 47.7423C119.97 47.7423 119.029 48.173 118.304 49.0343C117.601 49.8956 117.25 51.097 117.25 52.6383V61.3423H112.898ZM144.739 68.8223V44.4783H148.615L149.091 46.8923C149.635 46.1443 150.349 45.487 151.233 44.9203C152.14 44.3536 153.307 44.0703 154.735 44.0703C156.322 44.0703 157.739 44.4556 158.985 45.2263C160.232 45.997 161.218 47.051 161.943 48.3883C162.669 49.7256 163.031 51.2443 163.031 52.9443C163.031 54.6443 162.669 56.163 161.943 57.5003C161.218 58.815 160.232 59.8576 158.985 60.6283C157.739 61.3763 156.322 61.7503 154.735 61.7503C153.466 61.7503 152.355 61.5123 151.403 61.0363C150.451 60.5603 149.681 59.8916 149.091 59.0303V68.8223H144.739ZM153.817 57.9423C155.2 57.9423 156.345 57.4776 157.251 56.5483C158.158 55.619 158.611 54.4176 158.611 52.9443C158.611 51.471 158.158 50.2583 157.251 49.3063C156.345 48.3543 155.2 47.8783 153.817 47.8783C152.412 47.8783 151.256 48.3543 150.349 49.3063C149.465 50.2356 149.023 51.437 149.023 52.9103C149.023 54.3836 149.465 55.5963 150.349 56.5483C151.256 57.4776 152.412 57.9423 153.817 57.9423ZM166.919 61.3423V36.8623H171.271V61.3423H166.919ZM183.912 61.7503C182.212 61.7503 180.704 61.3876 179.39 60.6623C178.075 59.937 177.044 58.917 176.296 57.6023C175.548 56.2876 175.174 54.769 175.174 53.0463C175.174 51.301 175.536 49.7483 176.262 48.3883C177.01 47.0283 178.03 45.9743 179.322 45.2263C180.636 44.4556 182.178 44.0703 183.946 44.0703C185.6 44.0703 187.062 44.433 188.332 45.1583C189.601 45.8836 190.587 46.881 191.29 48.1503C192.015 49.397 192.378 50.791 192.378 52.3323C192.378 52.5816 192.366 52.8423 192.344 53.1143C192.344 53.3863 192.332 53.6696 192.31 53.9643H179.492C179.582 55.279 180.036 56.3103 180.852 57.0583C181.69 57.8063 182.699 58.1803 183.878 58.1803C184.762 58.1803 185.498 57.9876 186.088 57.6023C186.7 57.1943 187.153 56.673 187.448 56.0383H191.868C191.55 57.1036 191.018 58.0783 190.27 58.9623C189.544 59.8236 188.638 60.5036 187.55 61.0023C186.484 61.501 185.272 61.7503 183.912 61.7503ZM183.946 47.6063C182.88 47.6063 181.94 47.9123 181.124 48.5243C180.308 49.1136 179.786 50.0203 179.56 51.2443H187.958C187.89 50.1336 187.482 49.2496 186.734 48.5923C185.986 47.935 185.056 47.6063 183.946 47.6063ZM203.253 61.3423C201.485 61.3423 200.069 60.9116 199.003 60.0503C197.938 59.189 197.405 57.659 197.405 55.4603V48.1163H194.515V44.4783H197.405L197.915 39.9563H201.757V44.4783H206.313V48.1163H201.757V55.4943C201.757 56.3103 201.927 56.877 202.267 57.1943C202.63 57.489 203.242 57.6363 204.103 57.6363H206.211V61.3423H203.253ZM217.812 61.7503C216.112 61.7503 214.605 61.3876 213.29 60.6623C211.976 59.937 210.944 58.917 210.196 57.6023C209.448 56.2876 209.074 54.769 209.074 53.0463C209.074 51.301 209.437 49.7483 210.162 48.3883C210.91 47.0283 211.93 45.9743 213.222 45.2263C214.537 44.4556 216.078 44.0703 217.846 44.0703C219.501 44.0703 220.963 44.433 222.232 45.1583C223.502 45.8836 224.488 46.881 225.19 48.1503C225.916 49.397 226.278 50.791 226.278 52.3323C226.278 52.5816 226.267 52.8423 226.244 53.1143C226.244 53.3863 226.233 53.6696 226.21 53.9643H213.392C213.483 55.279 213.936 56.3103 214.752 57.0583C215.591 57.8063 216.6 58.1803 217.778 58.1803C218.662 58.1803 219.399 57.9876 219.988 57.6023C220.6 57.1943 221.054 56.673 221.348 56.0383H225.768C225.451 57.1036 224.918 58.0783 224.17 58.9623C223.445 59.8236 222.538 60.5036 221.45 61.0023C220.385 61.501 219.172 61.7503 217.812 61.7503ZM217.846 47.6063C216.781 47.6063 215.84 47.9123 215.024 48.5243C214.208 49.1136 213.687 50.0203 213.46 51.2443H221.858C221.79 50.1336 221.382 49.2496 220.634 48.5923C219.886 47.935 218.957 47.6063 217.846 47.6063ZM238.04 61.3423V44.4783H241.916L242.324 47.6403C242.936 46.5523 243.763 45.691 244.806 45.0563C245.871 44.399 247.118 44.0703 248.546 44.0703V48.6603H247.322C246.37 48.6603 245.52 48.8076 244.772 49.1023C244.024 49.397 243.435 49.907 243.004 50.6323C242.596 51.3576 242.392 52.3663 242.392 53.6583V61.3423H238.04ZM259.416 61.7503C257.716 61.7503 256.208 61.3876 254.894 60.6623C253.579 59.937 252.548 58.917 251.8 57.6023C251.052 56.2876 250.678 54.769 250.678 53.0463C250.678 51.301 251.04 49.7483 251.766 48.3883C252.514 47.0283 253.534 45.9743 254.826 45.2263C256.14 44.4556 257.682 44.0703 259.45 44.0703C261.104 44.0703 262.566 44.433 263.836 45.1583C265.105 45.8836 266.091 46.881 266.794 48.1503C267.519 49.397 267.882 50.791 267.882 52.3323C267.882 52.5816 267.87 52.8423 267.848 53.1143C267.848 53.3863 267.836 53.6696 267.814 53.9643H254.996C255.086 55.279 255.54 56.3103 256.356 57.0583C257.194 57.8063 258.203 58.1803 259.382 58.1803C260.266 58.1803 261.002 57.9876 261.592 57.6023C262.204 57.1943 262.657 56.673 262.952 56.0383H267.372C267.054 57.1036 266.522 58.0783 265.774 58.9623C265.048 59.8236 264.142 60.5036 263.054 61.0023C261.988 61.501 260.776 61.7503 259.416 61.7503ZM259.45 47.6063C258.384 47.6063 257.444 47.9123 256.628 48.5243C255.812 49.1136 255.29 50.0203 255.064 51.2443H263.462C263.394 50.1336 262.986 49.2496 262.238 48.5923C261.49 47.935 260.56 47.6063 259.45 47.6063ZM278.317 56.3103C277.501 56.3103 276.741 56.2196 276.039 56.0383L274.781 57.2963C275.166 57.5003 275.687 57.6703 276.345 57.8063C277.002 57.9423 278.067 58.0783 279.541 58.2143C281.785 58.4183 283.417 58.951 284.437 59.8123C285.457 60.6736 285.967 61.8636 285.967 63.3823C285.967 64.3796 285.695 65.3203 285.151 66.2043C284.607 67.111 283.768 67.8363 282.635 68.3803C281.501 68.947 280.051 69.2303 278.283 69.2303C275.88 69.2303 273.942 68.777 272.469 67.8703C270.995 66.9863 270.259 65.649 270.259 63.8583C270.259 62.3396 270.995 61.025 272.469 59.9143C272.015 59.7103 271.619 59.495 271.279 59.2683C270.961 59.0416 270.678 58.8036 270.429 58.5543V57.7723L273.387 54.6443C272.072 53.4883 271.415 52.0036 271.415 50.1903C271.415 49.057 271.687 48.0256 272.231 47.0963C272.797 46.167 273.591 45.4303 274.611 44.8863C275.631 44.3423 276.866 44.0703 278.317 44.0703C279.269 44.0703 280.153 44.2063 280.969 44.4783H287.361V47.1303L284.471 47.3343C284.924 48.1956 285.151 49.1476 285.151 50.1903C285.151 51.3236 284.879 52.355 284.335 53.2843C283.791 54.2136 282.997 54.9503 281.955 55.4943C280.935 56.0383 279.722 56.3103 278.317 56.3103ZM278.317 52.9783C279.201 52.9783 279.926 52.7403 280.493 52.2643C281.082 51.7883 281.377 51.1083 281.377 50.2243C281.377 49.3403 281.082 48.6603 280.493 48.1843C279.926 47.7083 279.201 47.4703 278.317 47.4703C277.387 47.4703 276.639 47.7083 276.073 48.1843C275.506 48.6603 275.223 49.3403 275.223 50.2243C275.223 51.1083 275.506 51.7883 276.073 52.2643C276.639 52.7403 277.387 52.9783 278.317 52.9783ZM274.237 63.4163C274.237 64.255 274.622 64.8783 275.393 65.2863C276.186 65.717 277.149 65.9323 278.283 65.9323C279.371 65.9323 280.255 65.7056 280.935 65.2523C281.615 64.8216 281.955 64.2323 281.955 63.4843C281.955 62.8723 281.728 62.3623 281.275 61.9543C280.844 61.5463 279.971 61.297 278.657 61.2063C277.727 61.1383 276.866 61.0363 276.073 60.9003C275.415 61.263 274.939 61.6596 274.645 62.0903C274.373 62.521 274.237 62.963 274.237 63.4163ZM292.88 41.8603C292.087 41.8603 291.43 41.6223 290.908 41.1463C290.41 40.6703 290.16 40.0696 290.16 39.3443C290.16 38.619 290.41 38.0296 290.908 37.5763C291.43 37.1003 292.087 36.8623 292.88 36.8623C293.674 36.8623 294.32 37.1003 294.818 37.5763C295.34 38.0296 295.6 38.619 295.6 39.3443C295.6 40.0696 295.34 40.6703 294.818 41.1463C294.32 41.6223 293.674 41.8603 292.88 41.8603ZM290.704 61.3423V44.4783H295.056V61.3423H290.704ZM306.569 61.7503C305.073 61.7503 303.758 61.5123 302.625 61.0363C301.491 60.5376 300.585 59.8576 299.905 58.9963C299.225 58.135 298.817 57.1376 298.681 56.0043H303.067C303.203 56.6616 303.565 57.2283 304.155 57.7043C304.767 58.1576 305.549 58.3843 306.501 58.3843C307.453 58.3843 308.144 58.1916 308.575 57.8063C309.028 57.421 309.255 56.979 309.255 56.4803C309.255 55.755 308.937 55.2676 308.303 55.0183C307.668 54.7463 306.784 54.4856 305.651 54.2363C304.925 54.0776 304.189 53.885 303.441 53.6583C302.693 53.4316 302.001 53.1483 301.367 52.8083C300.755 52.4456 300.256 51.9923 299.871 51.4483C299.485 50.8816 299.293 50.1903 299.293 49.3743C299.293 47.8783 299.882 46.6203 301.061 45.6003C302.262 44.5803 303.939 44.0703 306.093 44.0703C308.087 44.0703 309.674 44.535 310.853 45.4643C312.054 46.3936 312.768 47.6743 312.995 49.3063H308.881C308.631 48.0596 307.691 47.4363 306.059 47.4363C305.243 47.4363 304.608 47.595 304.155 47.9123C303.724 48.2296 303.509 48.6263 303.509 49.1023C303.509 49.601 303.837 49.9976 304.495 50.2923C305.152 50.587 306.025 50.859 307.113 51.1083C308.291 51.3803 309.368 51.6863 310.343 52.0263C311.34 52.3436 312.133 52.831 312.723 53.4883C313.312 54.123 313.607 55.041 313.607 56.2423C313.629 57.285 313.357 58.2256 312.791 59.0643C312.224 59.903 311.408 60.5603 310.343 61.0363C309.277 61.5123 308.019 61.7503 306.569 61.7503ZM324.445 61.3423C322.677 61.3423 321.26 60.9116 320.195 60.0503C319.129 59.189 318.597 57.659 318.597 55.4603V48.1163H315.707V44.4783H318.597L319.107 39.9563H322.949V44.4783H327.505V48.1163H322.949V55.4943C322.949 56.3103 323.119 56.877 323.459 57.1943C323.821 57.489 324.433 57.6363 325.295 57.6363H327.403V61.3423H324.445ZM331.241 61.3423V44.4783H335.117L335.525 47.6403C336.137 46.5523 336.965 45.691 338.007 45.0563C339.073 44.399 340.319 44.0703 341.747 44.0703V48.6603H340.523C339.571 48.6603 338.721 48.8076 337.973 49.1023C337.225 49.397 336.636 49.907 336.205 50.6323C335.797 51.3576 335.593 52.3663 335.593 53.6583V61.3423H331.241ZM350.536 61.7503C349.085 61.7503 347.895 61.5236 346.966 61.0703C346.036 60.5943 345.345 59.971 344.892 59.2003C344.438 58.4296 344.212 57.5796 344.212 56.6503C344.212 55.0863 344.824 53.817 346.048 52.8423C347.272 51.8676 349.108 51.3803 351.556 51.3803H355.84V50.9723C355.84 49.8163 355.511 48.9663 354.854 48.4223C354.196 47.8783 353.38 47.6063 352.406 47.6063C351.522 47.6063 350.751 47.8216 350.094 48.2523C349.436 48.6603 349.028 49.2723 348.87 50.0883H344.62C344.733 48.8643 345.141 47.799 345.844 46.8923C346.569 45.9856 347.498 45.2943 348.632 44.8183C349.765 44.3196 351.034 44.0703 352.44 44.0703C354.842 44.0703 356.735 44.671 358.118 45.8723C359.5 47.0736 360.192 48.7736 360.192 50.9723V61.3423H356.486L356.078 58.6223C355.579 59.529 354.876 60.277 353.97 60.8663C353.086 61.4556 351.941 61.7503 350.536 61.7503ZM351.522 58.3503C352.768 58.3503 353.732 57.9423 354.412 57.1263C355.114 56.3103 355.556 55.3016 355.738 54.1003H352.032C350.876 54.1003 350.048 54.3156 349.55 54.7463C349.051 55.1543 348.802 55.6643 348.802 56.2763C348.802 56.9336 349.051 57.4436 349.55 57.8063C350.048 58.169 350.706 58.3503 351.522 58.3503ZM371.626 61.3423C369.858 61.3423 368.442 60.9116 367.376 60.0503C366.311 59.189 365.778 57.659 365.778 55.4603V48.1163H362.888V44.4783H365.778L366.288 39.9563H370.13V44.4783H374.686V48.1163H370.13V55.4943C370.13 56.3103 370.3 56.877 370.64 57.1943C371.003 57.489 371.615 57.6363 372.476 57.6363H374.584V61.3423H371.626ZM380.769 41.8603C379.976 41.8603 379.318 41.6223 378.797 41.1463C378.298 40.6703 378.049 40.0696 378.049 39.3443C378.049 38.619 378.298 38.0296 378.797 37.5763C379.318 37.1003 379.976 36.8623 380.769 36.8623C381.562 36.8623 382.208 37.1003 382.707 37.5763C383.228 38.0296 383.489 38.619 383.489 39.3443C383.489 40.0696 383.228 40.6703 382.707 41.1463C382.208 41.6223 381.562 41.8603 380.769 41.8603ZM378.593 61.3423V44.4783H382.945V61.3423H378.593ZM395.579 61.7503C393.947 61.7503 392.474 61.3763 391.159 60.6283C389.867 59.8803 388.836 58.849 388.065 57.5343C387.317 56.197 386.943 54.6556 386.943 52.9103C386.943 51.165 387.329 49.635 388.099 48.3203C388.87 46.983 389.901 45.9403 391.193 45.1923C392.508 44.4443 393.981 44.0703 395.613 44.0703C397.223 44.0703 398.673 44.4443 399.965 45.1923C401.28 45.9403 402.311 46.983 403.059 48.3203C403.83 49.635 404.215 51.165 404.215 52.9103C404.215 54.6556 403.83 56.197 403.059 57.5343C402.311 58.849 401.28 59.8803 399.965 60.6283C398.651 61.3763 397.189 61.7503 395.579 61.7503ZM395.579 57.9763C396.713 57.9763 397.699 57.557 398.537 56.7183C399.376 55.857 399.795 54.5876 399.795 52.9103C399.795 51.233 399.376 49.975 398.537 49.1363C397.699 48.275 396.724 47.8443 395.613 47.8443C394.457 47.8443 393.46 48.275 392.621 49.1363C391.805 49.975 391.397 51.233 391.397 52.9103C391.397 54.5876 391.805 55.857 392.621 56.7183C393.46 57.557 394.446 57.9763 395.579 57.9763ZM408.106 61.3423V44.4783H411.948L412.288 47.3343C412.81 46.337 413.558 45.5436 414.532 44.9543C415.53 44.365 416.697 44.0703 418.034 44.0703C420.12 44.0703 421.74 44.7276 422.896 46.0423C424.052 47.357 424.63 49.2836 424.63 51.8223V61.3423H420.278V52.2303C420.278 50.7796 419.984 49.669 419.394 48.8983C418.805 48.1276 417.887 47.7423 416.64 47.7423C415.416 47.7423 414.408 48.173 413.614 49.0343C412.844 49.8956 412.458 51.097 412.458 52.6383V61.3423H408.106ZM429.71 53.8283L429.234 37.5423H433.892L433.382 53.8283H429.71ZM431.648 61.5803C430.832 61.5803 430.163 61.331 429.642 60.8323C429.143 60.3336 428.894 59.733 428.894 59.0303C428.894 58.305 429.143 57.693 429.642 57.1943C430.163 56.6956 430.832 56.4463 431.648 56.4463C432.419 56.4463 433.053 56.6956 433.552 57.1943C434.073 57.693 434.334 58.305 434.334 59.0303C434.334 59.733 434.073 60.3336 433.552 60.8323C433.053 61.331 432.419 61.5803 431.648 61.5803Z" fill="white"/>
<path d="M68.808 98.3423V88.3903H65.272V86.9823H73.8V88.3903H70.264V98.3423H68.808ZM77.5355 98.5023C76.3302 98.5023 75.3275 98.1023 74.5275 97.3023C73.7382 96.4916 73.3435 95.505 73.3435 94.3423C73.3435 93.1796 73.7382 92.1983 74.5275 91.3983C75.3275 90.5876 76.3302 90.1823 77.5355 90.1823C78.7302 90.1823 79.7222 90.5876 80.5115 91.3983C81.3115 92.1983 81.7115 93.1796 81.7115 94.3423C81.7115 95.505 81.3115 96.4916 80.5115 97.3023C79.7222 98.1023 78.7302 98.5023 77.5355 98.5023ZM75.5195 96.3903C76.0422 96.945 76.7142 97.2223 77.5355 97.2223C78.3568 97.2223 79.0235 96.945 79.5355 96.3903C80.0475 95.8356 80.3035 95.153 80.3035 94.3423C80.3035 93.5316 80.0475 92.849 79.5355 92.2943C79.0235 91.7396 78.3568 91.4623 77.5355 91.4623C76.7142 91.4623 76.0422 91.7396 75.5195 92.2943C75.0075 92.849 74.7515 93.5316 74.7515 94.3423C74.7515 95.153 75.0075 95.8356 75.5195 96.3903ZM89.082 96.2623C89.5833 96.785 90.234 97.0463 91.034 97.0463C91.834 97.0463 92.4847 96.785 92.986 96.2623C93.4873 95.729 93.738 95.057 93.738 94.2463C93.738 93.4356 93.482 92.769 92.97 92.2463C92.4687 91.713 91.8233 91.4463 91.034 91.4463C90.2447 91.4463 89.594 91.713 89.082 92.2463C88.5807 92.769 88.33 93.4356 88.33 94.2463C88.33 95.057 88.5807 95.729 89.082 96.2623ZM90.954 101.846C90.1327 101.846 89.3913 101.692 88.73 101.382C88.0687 101.084 87.5567 100.694 87.194 100.214L88.154 99.2543C88.858 100.15 89.7913 100.598 90.954 100.598C91.7007 100.598 92.33 100.364 92.842 99.8943C93.3647 99.425 93.626 98.737 93.626 97.8303V96.9183C93.338 97.345 92.9487 97.6863 92.458 97.9423C91.9673 98.1983 91.4287 98.3263 90.842 98.3263C89.722 98.3263 88.7887 97.937 88.042 97.1583C87.2953 96.369 86.922 95.3983 86.922 94.2463C86.922 93.105 87.2953 92.145 88.042 91.3663C88.7993 90.577 89.7327 90.1823 90.842 90.1823C91.4287 90.1823 91.9673 90.3103 92.458 90.5663C92.9487 90.8223 93.338 91.1583 93.626 91.5743V90.3423H95.002V97.8783C95.002 99.169 94.6233 100.15 93.866 100.822C93.1193 101.505 92.1487 101.846 90.954 101.846ZM101.113 98.5023C99.8862 98.5023 98.8889 98.1076 98.1209 97.3183C97.3529 96.529 96.9689 95.537 96.9689 94.3423C96.9689 93.1583 97.3582 92.1716 98.1369 91.3823C98.9155 90.5823 99.9129 90.1823 101.129 90.1823C102.206 90.1823 103.108 90.545 103.833 91.2703C104.569 91.985 104.937 92.961 104.937 94.1983C104.937 94.3583 104.932 94.497 104.921 94.6143H98.3609C98.3822 95.361 98.6489 95.985 99.1609 96.4863C99.6835 96.9876 100.34 97.2383 101.129 97.2383C102.249 97.2383 103.081 96.7743 103.625 95.8463L104.713 96.5983C103.934 97.8676 102.734 98.5023 101.113 98.5023ZM98.4569 93.4943H103.529C103.422 92.8543 103.14 92.3476 102.681 91.9743C102.233 91.5903 101.7 91.3983 101.081 91.3983C100.452 91.3983 99.8862 91.5903 99.3849 91.9743C98.8942 92.3476 98.5849 92.8543 98.4569 93.4943ZM109.884 98.4223C109.148 98.4223 108.556 98.2143 108.108 97.7983C107.66 97.3823 107.436 96.7743 107.436 95.9743V91.6063H105.74V90.3423H107.436V88.1183H108.812V90.3423H111.116V91.6063H108.812V95.7983C108.812 96.2996 108.919 96.6516 109.132 96.8543C109.346 97.057 109.682 97.1583 110.14 97.1583C110.546 97.1583 110.871 97.105 111.116 96.9983V98.2303C110.732 98.3583 110.322 98.4223 109.884 98.4223ZM119.15 98.5023C118.414 98.5023 117.768 98.3476 117.214 98.0383C116.659 97.7183 116.259 97.2543 116.014 96.6463L117.134 96.0223C117.283 96.417 117.544 96.7263 117.918 96.9503C118.291 97.1743 118.707 97.2863 119.166 97.2863C119.56 97.2863 119.891 97.1903 120.158 96.9983C120.424 96.8063 120.558 96.545 120.558 96.2143C120.558 95.9263 120.451 95.6863 120.238 95.4943C120.035 95.3023 119.678 95.1263 119.166 94.9663L118.366 94.7103C117.032 94.3263 116.366 93.5476 116.366 92.3743C116.366 91.713 116.627 91.185 117.15 90.7903C117.683 90.385 118.339 90.1823 119.118 90.1823C120.334 90.1823 121.214 90.6463 121.758 91.5743L120.734 92.2783C120.296 91.6703 119.742 91.3663 119.07 91.3663C118.707 91.3663 118.392 91.457 118.126 91.6383C117.87 91.809 117.742 92.0383 117.742 92.3263C117.742 92.593 117.822 92.8223 117.982 93.0143C118.152 93.1956 118.451 93.3503 118.878 93.4783L119.758 93.7503C121.208 94.1983 121.934 94.9823 121.934 96.1023C121.934 96.849 121.672 97.4356 121.15 97.8623C120.638 98.289 119.971 98.5023 119.15 98.5023ZM126.963 98.4223C126.227 98.4223 125.635 98.2143 125.187 97.7983C124.739 97.3823 124.515 96.7743 124.515 95.9743V91.6063H122.819V90.3423H124.515V88.1183H125.891V90.3423H128.195V91.6063H125.891V95.7983C125.891 96.2996 125.997 96.6516 126.211 96.8543C126.424 97.057 126.76 97.1583 127.219 97.1583C127.624 97.1583 127.949 97.105 128.195 96.9983V98.2303C127.811 98.3583 127.4 98.4223 126.963 98.4223ZM133.139 98.5023C132.03 98.5023 131.096 98.097 130.339 97.2863C129.592 96.4756 129.219 95.4943 129.219 94.3423C129.219 93.1903 129.592 92.209 130.339 91.3983C131.096 90.5876 132.03 90.1823 133.139 90.1823C133.726 90.1823 134.27 90.3156 134.771 90.5823C135.283 90.8383 135.678 91.169 135.955 91.5743V90.3423H137.331V98.3423H135.955V97.1103C135.678 97.5156 135.283 97.8516 134.771 98.1183C134.27 98.3743 133.726 98.5023 133.139 98.5023ZM133.347 97.2383C134.136 97.2383 134.787 96.961 135.299 96.4063C135.811 95.8516 136.067 95.1636 136.067 94.3423C136.067 93.521 135.811 92.833 135.299 92.2783C134.787 91.7236 134.136 91.4463 133.347 91.4463C132.547 91.4463 131.891 91.7236 131.379 92.2783C130.867 92.833 130.611 93.521 130.611 94.3423C130.611 95.1636 130.867 95.8516 131.379 96.4063C131.891 96.961 132.547 97.2383 133.347 97.2383ZM139.921 98.3423V90.3423H141.297V91.8943C141.446 91.4036 141.734 91.009 142.161 90.7103C142.598 90.4116 143.057 90.2623 143.537 90.2623C143.772 90.2623 143.98 90.2836 144.161 90.3263V91.7503C143.969 91.665 143.718 91.6223 143.409 91.6223C142.854 91.6223 142.364 91.8623 141.937 92.3423C141.51 92.8223 141.297 93.4996 141.297 94.3743V98.3423H139.921ZM148.884 98.4223C148.148 98.4223 147.556 98.2143 147.108 97.7983C146.66 97.3823 146.436 96.7743 146.436 95.9743V91.6063H144.74V90.3423H146.436V88.1183H147.812V90.3423H150.116V91.6063H147.812V95.7983C147.812 96.2996 147.919 96.6516 148.132 96.8543C148.346 97.057 148.682 97.1583 149.14 97.1583C149.546 97.1583 149.871 97.105 150.116 96.9983V98.2303C149.732 98.3583 149.322 98.4223 148.884 98.4223ZM155.285 98.5023C154.058 98.5023 153.061 98.1076 152.293 97.3183C151.525 96.529 151.141 95.537 151.141 94.3423C151.141 93.1583 151.53 92.1716 152.309 91.3823C153.087 90.5823 154.085 90.1823 155.301 90.1823C156.378 90.1823 157.279 90.545 158.005 91.2703C158.741 91.985 159.109 92.961 159.109 94.1983C159.109 94.3583 159.103 94.497 159.093 94.6143H152.533C152.554 95.361 152.821 95.985 153.333 96.4863C153.855 96.9876 154.511 97.2383 155.301 97.2383C156.421 97.2383 157.253 96.7743 157.797 95.8463L158.885 96.5983C158.106 97.8676 156.906 98.5023 155.285 98.5023ZM152.629 93.4943H157.701C157.594 92.8543 157.311 92.3476 156.853 91.9743C156.405 91.5903 155.871 91.3983 155.253 91.3983C154.623 91.3983 154.058 91.5903 153.557 91.9743C153.066 92.3476 152.757 92.8543 152.629 93.4943ZM164.358 98.5023C163.248 98.5023 162.315 98.097 161.558 97.2863C160.811 96.4756 160.438 95.4943 160.438 94.3423C160.438 93.1903 160.811 92.209 161.558 91.3983C162.315 90.5876 163.248 90.1823 164.358 90.1823C164.944 90.1823 165.488 90.3156 165.99 90.5823C166.502 90.8383 166.896 91.169 167.174 91.5743V86.3423H168.55V98.3423H167.174V97.1103C166.896 97.5156 166.502 97.8516 165.99 98.1183C165.488 98.3743 164.944 98.5023 164.358 98.5023ZM164.566 97.2383C165.355 97.2383 166.006 96.961 166.518 96.4063C167.03 95.8516 167.286 95.1636 167.286 94.3423C167.286 93.521 167.03 92.833 166.518 92.2783C166.006 91.7236 165.355 91.4463 164.566 91.4463C163.766 91.4463 163.11 91.7236 162.598 92.2783C162.086 92.833 161.83 93.521 161.83 94.3423C161.83 95.1636 162.086 95.8516 162.598 96.4063C163.11 96.961 163.766 97.2383 164.566 97.2383ZM178.295 98.5023C177.186 98.5023 176.252 98.097 175.495 97.2863C174.748 96.4756 174.375 95.4943 174.375 94.3423C174.375 93.1903 174.748 92.209 175.495 91.3983C176.252 90.5876 177.186 90.1823 178.295 90.1823C178.882 90.1823 179.426 90.3156 179.927 90.5823C180.439 90.8383 180.834 91.169 181.111 91.5743V90.3423H182.487V98.3423H181.111V97.1103C180.834 97.5156 180.439 97.8516 179.927 98.1183C179.426 98.3743 178.882 98.5023 178.295 98.5023ZM178.503 97.2383C179.292 97.2383 179.943 96.961 180.455 96.4063C180.967 95.8516 181.223 95.1636 181.223 94.3423C181.223 93.521 180.967 92.833 180.455 92.2783C179.943 91.7236 179.292 91.4463 178.503 91.4463C177.703 91.4463 177.047 91.7236 176.535 92.2783C176.023 92.833 175.767 93.521 175.767 94.3423C175.767 95.1636 176.023 95.8516 176.535 96.4063C177.047 96.961 177.703 97.2383 178.503 97.2383ZM185.077 98.3423V90.3423H186.453V91.5743C186.997 90.6463 187.845 90.1823 188.997 90.1823C189.904 90.1823 190.635 90.4756 191.189 91.0623C191.744 91.649 192.021 92.433 192.021 93.4143V98.3423H190.661V93.6223C190.661 92.9503 190.491 92.4223 190.149 92.0383C189.808 91.6436 189.349 91.4463 188.773 91.4463C188.112 91.4463 187.557 91.7076 187.109 92.2303C186.672 92.753 186.453 93.4676 186.453 94.3743V98.3423H185.077ZM197.795 98.5023C196.686 98.5023 195.752 98.097 194.995 97.2863C194.248 96.4756 193.875 95.4943 193.875 94.3423C193.875 93.1903 194.248 92.209 194.995 91.3983C195.752 90.5876 196.686 90.1823 197.795 90.1823C198.382 90.1823 198.926 90.3156 199.427 90.5823C199.939 90.8383 200.334 91.169 200.611 91.5743V86.3423H201.987V98.3423H200.611V97.1103C200.334 97.5156 199.939 97.8516 199.427 98.1183C198.926 98.3743 198.382 98.5023 197.795 98.5023ZM198.003 97.2383C198.792 97.2383 199.443 96.961 199.955 96.4063C200.467 95.8516 200.723 95.1636 200.723 94.3423C200.723 93.521 200.467 92.833 199.955 92.2783C199.443 91.7236 198.792 91.4463 198.003 91.4463C197.203 91.4463 196.547 91.7236 196.035 92.2783C195.523 92.833 195.267 93.521 195.267 94.3423C195.267 95.1636 195.523 95.8516 196.035 96.4063C196.547 96.961 197.203 97.2383 198.003 97.2383ZM211.957 98.5023C210.73 98.5023 209.733 98.1076 208.965 97.3183C208.197 96.529 207.813 95.537 207.813 94.3423C207.813 93.1583 208.202 92.1716 208.981 91.3823C209.759 90.5823 210.757 90.1823 211.973 90.1823C213.05 90.1823 213.951 90.545 214.677 91.2703C215.413 91.985 215.781 92.961 215.781 94.1983C215.781 94.3583 215.775 94.497 215.765 94.6143H209.205C209.226 95.361 209.493 95.985 210.005 96.4863C210.527 96.9876 211.183 97.2383 211.973 97.2383C213.093 97.2383 213.925 96.7743 214.469 95.8463L215.557 96.5983C214.778 97.8676 213.578 98.5023 211.957 98.5023ZM209.301 93.4943H214.373C214.266 92.8543 213.983 92.3476 213.525 91.9743C213.077 91.5903 212.543 91.3983 211.925 91.3983C211.295 91.3983 210.73 91.5903 210.229 91.9743C209.738 92.3476 209.429 92.8543 209.301 93.4943ZM217.734 98.3423V90.3423H219.11V91.5743C219.654 90.6463 220.502 90.1823 221.654 90.1823C222.56 90.1823 223.291 90.4756 223.846 91.0623C224.4 91.649 224.678 92.433 224.678 93.4143V98.3423H223.318V93.6223C223.318 92.9503 223.147 92.4223 222.806 92.0383C222.464 91.6436 222.006 91.4463 221.43 91.4463C220.768 91.4463 220.214 91.7076 219.766 92.2303C219.328 92.753 219.11 93.4676 219.11 94.3743V98.3423H217.734ZM228.659 90.3423V99.3983C228.659 100.198 228.435 100.806 227.987 101.222C227.539 101.638 226.958 101.846 226.243 101.846C225.998 101.846 225.779 101.83 225.587 101.798V100.566C225.758 100.588 225.913 100.598 226.051 100.598C226.873 100.598 227.283 100.145 227.283 99.2383V90.3423H228.659ZM228.675 87.9263C228.494 88.1076 228.265 88.1983 227.987 88.1983C227.71 88.1983 227.475 88.1076 227.283 87.9263C227.091 87.7343 226.995 87.4996 226.995 87.2223C226.995 86.9556 227.091 86.7263 227.283 86.5343C227.475 86.3423 227.71 86.2463 227.987 86.2463C228.265 86.2463 228.494 86.3423 228.675 86.5343C228.857 86.7263 228.947 86.9556 228.947 87.2223C228.947 87.4996 228.857 87.7343 228.675 87.9263ZM234.817 98.5023C233.611 98.5023 232.609 98.1023 231.809 97.3023C231.019 96.4916 230.625 95.505 230.625 94.3423C230.625 93.1796 231.019 92.1983 231.809 91.3983C232.609 90.5876 233.611 90.1823 234.817 90.1823C236.011 90.1823 237.003 90.5876 237.793 91.3983C238.593 92.1983 238.993 93.1796 238.993 94.3423C238.993 95.505 238.593 96.4916 237.793 97.3023C237.003 98.1023 236.011 98.5023 234.817 98.5023ZM232.801 96.3903C233.323 96.945 233.995 97.2223 234.817 97.2223C235.638 97.2223 236.305 96.945 236.817 96.3903C237.329 95.8356 237.585 95.153 237.585 94.3423C237.585 93.5316 237.329 92.849 236.817 92.2943C236.305 91.7396 235.638 91.4623 234.817 91.4623C233.995 91.4623 233.323 91.7396 232.801 92.2943C232.289 92.849 232.033 93.5316 232.033 94.3423C232.033 95.153 232.289 95.8356 232.801 96.3903ZM242.924 101.686H241.388L243.132 97.9263L239.628 90.3423H241.148L243.9 96.4223L246.636 90.3423H248.172L242.924 101.686ZM256.342 98.5023C255.233 98.5023 254.299 98.097 253.542 97.2863C252.795 96.4756 252.422 95.4943 252.422 94.3423C252.422 93.1903 252.795 92.209 253.542 91.3983C254.299 90.5876 255.233 90.1823 256.342 90.1823C256.929 90.1823 257.473 90.3156 257.974 90.5823C258.486 90.8383 258.881 91.169 259.158 91.5743V90.3423H260.534V98.3423H259.158V97.1103C258.881 97.5156 258.486 97.8516 257.974 98.1183C257.473 98.3743 256.929 98.5023 256.342 98.5023ZM256.55 97.2383C257.339 97.2383 257.99 96.961 258.502 96.4063C259.014 95.8516 259.27 95.1636 259.27 94.3423C259.27 93.521 259.014 92.833 258.502 92.2783C257.99 91.7236 257.339 91.4463 256.55 91.4463C255.75 91.4463 255.094 91.7236 254.582 92.2783C254.07 92.833 253.814 93.521 253.814 94.3423C253.814 95.1636 254.07 95.8516 254.582 96.4063C255.094 96.961 255.75 97.2383 256.55 97.2383ZM270.44 98.5023C269.309 98.5023 268.349 98.161 267.56 97.4783C266.781 96.785 266.392 95.921 266.392 94.8863H267.784C267.826 95.5583 268.098 96.1076 268.6 96.5343C269.101 96.9503 269.714 97.1583 270.44 97.1583C271.101 97.1583 271.65 96.977 272.088 96.6143C272.525 96.2516 272.744 95.7503 272.744 95.1103C272.744 94.4276 272.52 93.9156 272.072 93.5743C271.634 93.233 271.032 93.0623 270.264 93.0623H269.416V91.7983H270.328C270.936 91.7983 271.432 91.6276 271.816 91.2863C272.21 90.945 272.413 90.5023 272.424 89.9583C272.424 89.425 272.226 88.9876 271.832 88.6463C271.448 88.305 270.962 88.1343 270.376 88.1343C269.704 88.1343 269.138 88.3316 268.68 88.7263C268.221 89.121 267.992 89.6703 267.992 90.3743H266.584C266.584 89.2863 266.946 88.417 267.672 87.7663C268.397 87.1156 269.298 86.7903 270.376 86.7903C271.368 86.7903 272.189 87.0783 272.84 87.6543C273.501 88.2196 273.832 88.9716 273.832 89.9103C273.821 90.4543 273.672 90.945 273.384 91.3823C273.106 91.8196 272.744 92.1556 272.296 92.3903C272.872 92.625 273.325 92.9876 273.656 93.4783C273.986 93.9583 274.152 94.5183 274.152 95.1583C274.152 96.1503 273.805 96.9556 273.112 97.5743C272.418 98.193 271.528 98.5023 270.44 98.5023ZM279.945 98.5023C278.761 98.5023 277.795 98.1076 277.049 97.3183C276.302 96.5183 275.929 95.489 275.929 94.2303V91.0623C275.929 89.8036 276.302 88.7796 277.049 87.9903C277.806 87.1903 278.771 86.7903 279.945 86.7903C281.118 86.7903 282.083 87.1903 282.841 87.9903C283.598 88.7903 283.977 89.8143 283.977 91.0623V94.2303C283.977 95.489 283.598 96.5183 282.841 97.3183C282.083 98.1076 281.118 98.5023 279.945 98.5023ZM279.945 97.1583C280.734 97.1583 281.374 96.897 281.865 96.3743C282.355 95.8516 282.601 95.137 282.601 94.2303V91.0623C282.601 90.1556 282.355 89.441 281.865 88.9183C281.374 88.3956 280.734 88.1343 279.945 88.1343C279.166 88.1343 278.531 88.3956 278.041 88.9183C277.55 89.441 277.305 90.1556 277.305 91.0623V94.2303C277.305 95.137 277.55 95.8516 278.041 96.3743C278.531 96.897 279.166 97.1583 279.945 97.1583ZM285.978 94.5503V93.1743H290.058V94.5503H285.978ZM295.701 98.5023C294.592 98.5023 293.659 98.097 292.901 97.2863C292.155 96.4756 291.781 95.4943 291.781 94.3423C291.781 93.1903 292.155 92.209 292.901 91.3983C293.659 90.5876 294.592 90.1823 295.701 90.1823C296.288 90.1823 296.832 90.3156 297.333 90.5823C297.845 90.8383 298.24 91.169 298.517 91.5743V86.3423H299.893V98.3423H298.517V97.1103C298.24 97.5156 297.845 97.8516 297.333 98.1183C296.832 98.3743 296.288 98.5023 295.701 98.5023ZM295.909 97.2383C296.699 97.2383 297.349 96.961 297.861 96.4063C298.373 95.8516 298.629 95.1636 298.629 94.3423C298.629 93.521 298.373 92.833 297.861 92.2783C297.349 91.7236 296.699 91.4463 295.909 91.4463C295.109 91.4463 294.453 91.7236 293.941 92.2783C293.429 92.833 293.173 93.521 293.173 94.3423C293.173 95.1636 293.429 95.8516 293.941 96.4063C294.453 96.961 295.109 97.2383 295.909 97.2383ZM305.78 98.5023C304.67 98.5023 303.737 98.097 302.98 97.2863C302.233 96.4756 301.86 95.4943 301.86 94.3423C301.86 93.1903 302.233 92.209 302.98 91.3983C303.737 90.5876 304.67 90.1823 305.78 90.1823C306.366 90.1823 306.91 90.3156 307.412 90.5823C307.924 90.8383 308.318 91.169 308.596 91.5743V90.3423H309.972V98.3423H308.596V97.1103C308.318 97.5156 307.924 97.8516 307.412 98.1183C306.91 98.3743 306.366 98.5023 305.78 98.5023ZM305.988 97.2383C306.777 97.2383 307.428 96.961 307.94 96.4063C308.452 95.8516 308.708 95.1636 308.708 94.3423C308.708 93.521 308.452 92.833 307.94 92.2783C307.428 91.7236 306.777 91.4463 305.988 91.4463C305.188 91.4463 304.532 91.7236 304.02 92.2783C303.508 92.833 303.252 93.521 303.252 94.3423C303.252 95.1636 303.508 95.8516 304.02 96.4063C304.532 96.961 305.188 97.2383 305.988 97.2383ZM314.69 101.686H313.154L314.898 97.9263L311.394 90.3423H312.914L315.666 96.4223L318.402 90.3423H319.938L314.69 101.686ZM325.281 98.3423V91.6063H323.585V90.3423H325.281V88.7263C325.281 87.9263 325.505 87.313 325.953 86.8863C326.401 86.4596 326.993 86.2463 327.729 86.2463C328.166 86.2463 328.582 86.3156 328.977 86.4543V87.6703C328.731 87.5636 328.401 87.5103 327.985 87.5103C327.526 87.5103 327.19 87.6116 326.977 87.8143C326.763 88.017 326.657 88.369 326.657 88.8703V90.3423H328.977V91.6063H326.657V98.3423H325.281ZM330.484 98.3423V90.3423H331.86V91.8943C332.009 91.4036 332.297 91.009 332.724 90.7103C333.161 90.4116 333.62 90.2623 334.1 90.2623C334.334 90.2623 334.542 90.2836 334.724 90.3263V91.7503C334.532 91.665 334.281 91.6223 333.972 91.6223C333.417 91.6223 332.926 91.8623 332.5 92.3423C332.073 92.8223 331.86 93.4996 331.86 94.3743V98.3423H330.484ZM339.582 98.5023C338.355 98.5023 337.358 98.1076 336.59 97.3183C335.822 96.529 335.438 95.537 335.438 94.3423C335.438 93.1583 335.827 92.1716 336.606 91.3823C337.384 90.5823 338.382 90.1823 339.598 90.1823C340.675 90.1823 341.576 90.545 342.302 91.2703C343.038 91.985 343.406 92.961 343.406 94.1983C343.406 94.3583 343.4 94.497 343.39 94.6143H336.83C336.851 95.361 337.118 95.985 337.63 96.4863C338.152 96.9876 338.808 97.2383 339.598 97.2383C340.718 97.2383 341.55 96.7743 342.094 95.8463L343.182 96.5983C342.403 97.8676 341.203 98.5023 339.582 98.5023ZM336.926 93.4943H341.998C341.891 92.8543 341.608 92.3476 341.15 91.9743C340.702 91.5903 340.168 91.3983 339.55 91.3983C338.92 91.3983 338.355 91.5903 337.854 91.9743C337.363 92.3476 337.054 92.8543 336.926 93.4943ZM348.879 98.5023C347.652 98.5023 346.655 98.1076 345.887 97.3183C345.119 96.529 344.735 95.537 344.735 94.3423C344.735 93.1583 345.124 92.1716 345.903 91.3823C346.681 90.5823 347.679 90.1823 348.895 90.1823C349.972 90.1823 350.873 90.545 351.599 91.2703C352.335 91.985 352.703 92.961 352.703 94.1983C352.703 94.3583 352.697 94.497 352.687 94.6143H346.127C346.148 95.361 346.415 95.985 346.927 96.4863C347.449 96.9876 348.105 97.2383 348.895 97.2383C350.015 97.2383 350.847 96.7743 351.391 95.8463L352.479 96.5983C351.7 97.8676 350.5 98.5023 348.879 98.5023ZM346.223 93.4943H351.295C351.188 92.8543 350.905 92.3476 350.447 91.9743C349.999 91.5903 349.465 91.3983 348.847 91.3983C348.217 91.3983 347.652 91.5903 347.151 91.9743C346.66 92.3476 346.351 92.8543 346.223 93.4943ZM361.353 98.4223C360.617 98.4223 360.025 98.2143 359.577 97.7983C359.129 97.3823 358.905 96.7743 358.905 95.9743V91.6063H357.209V90.3423H358.905V88.1183H360.281V90.3423H362.585V91.6063H360.281V95.7983C360.281 96.2996 360.388 96.6516 360.601 96.8543C360.814 97.057 361.15 97.1583 361.609 97.1583C362.014 97.1583 362.34 97.105 362.585 96.9983V98.2303C362.201 98.3583 361.79 98.4223 361.353 98.4223ZM364.343 98.3423V90.3423H365.719V91.8943C365.868 91.4036 366.156 91.009 366.583 90.7103C367.02 90.4116 367.479 90.2623 367.959 90.2623C368.194 90.2623 368.402 90.2836 368.583 90.3263V91.7503C368.391 91.665 368.14 91.6223 367.831 91.6223C367.276 91.6223 366.786 91.8623 366.359 92.3423C365.932 92.8223 365.719 93.4996 365.719 94.3743V98.3423H364.343ZM371.594 87.9263C371.413 88.1076 371.184 88.1983 370.906 88.1983C370.629 88.1983 370.394 88.1076 370.202 87.9263C370.01 87.7343 369.914 87.4996 369.914 87.2223C369.914 86.9556 370.01 86.7263 370.202 86.5343C370.394 86.3423 370.629 86.2463 370.906 86.2463C371.184 86.2463 371.413 86.3423 371.594 86.5343C371.776 86.7263 371.866 86.9556 371.866 87.2223C371.866 87.4996 371.776 87.7343 371.594 87.9263ZM370.202 98.3423V90.3423H371.578V98.3423H370.202ZM377.483 98.5023C376.373 98.5023 375.44 98.097 374.683 97.2863C373.936 96.4756 373.563 95.4943 373.563 94.3423C373.563 93.1903 373.936 92.209 374.683 91.3983C375.44 90.5876 376.373 90.1823 377.483 90.1823C378.069 90.1823 378.613 90.3156 379.115 90.5823C379.627 90.8383 380.021 91.169 380.299 91.5743V90.3423H381.675V98.3423H380.299V97.1103C380.021 97.5156 379.627 97.8516 379.115 98.1183C378.613 98.3743 378.069 98.5023 377.483 98.5023ZM377.691 97.2383C378.48 97.2383 379.131 96.961 379.643 96.4063C380.155 95.8516 380.411 95.1636 380.411 94.3423C380.411 93.521 380.155 92.833 379.643 92.2783C379.131 91.7236 378.48 91.4463 377.691 91.4463C376.891 91.4463 376.235 91.7236 375.723 92.2783C375.211 92.833 374.955 93.521 374.955 94.3423C374.955 95.1636 375.211 95.8516 375.723 96.4063C376.235 96.961 376.891 97.2383 377.691 97.2383ZM384.265 98.3423V86.3423H385.641V98.3423H384.265ZM389.961 97.9903L388.313 100.63H387.401L388.473 98.3423C388.036 98.129 387.817 97.7716 387.817 97.2703C387.817 96.9503 387.934 96.673 388.169 96.4383C388.404 96.193 388.681 96.0703 389.001 96.0703C389.321 96.0703 389.598 96.193 389.833 96.4383C390.068 96.673 390.185 96.9503 390.185 97.2703C390.185 97.505 390.11 97.745 389.961 97.9903ZM397.578 101.686H396.202V90.3423H397.578V91.5743C397.856 91.169 398.245 90.8383 398.746 90.5823C399.258 90.3156 399.808 90.1823 400.394 90.1823C401.504 90.1823 402.432 90.5876 403.178 91.3983C403.936 92.209 404.314 93.1903 404.314 94.3423C404.314 95.4943 403.936 96.4756 403.178 97.2863C402.432 98.097 401.504 98.5023 400.394 98.5023C399.808 98.5023 399.258 98.3743 398.746 98.1183C398.245 97.8516 397.856 97.5156 397.578 97.1103V101.686ZM398.234 96.4063C398.746 96.961 399.397 97.2383 400.186 97.2383C400.976 97.2383 401.626 96.961 402.138 96.4063C402.65 95.8516 402.906 95.1636 402.906 94.3423C402.906 93.521 402.65 92.833 402.138 92.2783C401.626 91.7236 400.976 91.4463 400.186 91.4463C399.397 91.4463 398.746 91.7236 398.234 92.2783C397.722 92.833 397.466 93.521 397.466 94.3423C397.466 95.1636 397.722 95.8516 398.234 96.4063ZM406.296 98.3423V86.3423H407.672V98.3423H406.296ZM413.8 98.5023C412.574 98.5023 411.576 98.1076 410.808 97.3183C410.04 96.529 409.656 95.537 409.656 94.3423C409.656 93.1583 410.046 92.1716 410.824 91.3823C411.603 90.5823 412.6 90.1823 413.816 90.1823C414.894 90.1823 415.795 90.545 416.52 91.2703C417.256 91.985 417.624 92.961 417.624 94.1983C417.624 94.3583 417.619 94.497 417.608 94.6143H411.048C411.07 95.361 411.336 95.985 411.848 96.4863C412.371 96.9876 413.027 97.2383 413.816 97.2383C414.936 97.2383 415.768 96.7743 416.312 95.8463L417.4 96.5983C416.622 97.8676 415.422 98.5023 413.8 98.5023ZM411.144 93.4943H416.216C416.11 92.8543 415.827 92.3476 415.368 91.9743C414.92 91.5903 414.387 91.3983 413.768 91.3983C413.139 91.3983 412.574 91.5903 412.072 91.9743C411.582 92.3476 411.272 92.8543 411.144 93.4943ZM422.873 98.5023C421.764 98.5023 420.831 98.097 420.073 97.2863C419.327 96.4756 418.953 95.4943 418.953 94.3423C418.953 93.1903 419.327 92.209 420.073 91.3983C420.831 90.5876 421.764 90.1823 422.873 90.1823C423.46 90.1823 424.004 90.3156 424.505 90.5823C425.017 90.8383 425.412 91.169 425.689 91.5743V90.3423H427.065V98.3423H425.689V97.1103C425.412 97.5156 425.017 97.8516 424.505 98.1183C424.004 98.3743 423.46 98.5023 422.873 98.5023ZM423.081 97.2383C423.871 97.2383 424.521 96.961 425.033 96.4063C425.545 95.8516 425.801 95.1636 425.801 94.3423C425.801 93.521 425.545 92.833 425.033 92.2783C424.521 91.7236 423.871 91.4463 423.081 91.4463C422.281 91.4463 421.625 91.7236 421.113 92.2783C420.601 92.833 420.345 93.521 420.345 94.3423C420.345 95.1636 420.601 95.8516 421.113 96.4063C421.625 96.961 422.281 97.2383 423.081 97.2383ZM432.071 98.5023C431.335 98.5023 430.69 98.3476 430.135 98.0383C429.581 97.7183 429.181 97.2543 428.935 96.6463L430.055 96.0223C430.205 96.417 430.466 96.7263 430.839 96.9503C431.213 97.1743 431.629 97.2863 432.087 97.2863C432.482 97.2863 432.813 97.1903 433.079 96.9983C433.346 96.8063 433.479 96.545 433.479 96.2143C433.479 95.9263 433.373 95.6863 433.159 95.4943C432.957 95.3023 432.599 95.1263 432.087 94.9663L431.287 94.7103C429.954 94.3263 429.287 93.5476 429.287 92.3743C429.287 91.713 429.549 91.185 430.071 90.7903C430.605 90.385 431.261 90.1823 432.039 90.1823C433.255 90.1823 434.135 90.6463 434.679 91.5743L433.655 92.2783C433.218 91.6703 432.663 91.3663 431.991 91.3663C431.629 91.3663 431.314 91.457 431.047 91.6383C430.791 91.809 430.663 92.0383 430.663 92.3263C430.663 92.593 430.743 92.8223 430.903 93.0143C431.074 93.1956 431.373 93.3503 431.799 93.4783L432.679 93.7503C434.13 94.1983 434.855 94.9823 434.855 96.1023C434.855 96.849 434.594 97.4356 434.071 97.8623C433.559 98.289 432.893 98.5023 432.071 98.5023ZM440.379 98.5023C439.152 98.5023 438.155 98.1076 437.387 97.3183C436.619 96.529 436.235 95.537 436.235 94.3423C436.235 93.1583 436.624 92.1716 437.403 91.3823C438.181 90.5823 439.179 90.1823 440.395 90.1823C441.472 90.1823 442.373 90.545 443.099 91.2703C443.835 91.985 444.203 92.961 444.203 94.1983C444.203 94.3583 444.197 94.497 444.187 94.6143H437.627C437.648 95.361 437.915 95.985 438.427 96.4863C438.949 96.9876 439.605 97.2383 440.395 97.2383C441.515 97.2383 442.347 96.7743 442.891 95.8463L443.979 96.5983C443.2 97.8676 442 98.5023 440.379 98.5023ZM437.723 93.4943H442.795C442.688 92.8543 442.405 92.3476 441.947 91.9743C441.499 91.5903 440.965 91.3983 440.347 91.3983C439.717 91.3983 439.152 91.5903 438.651 91.9743C438.16 92.3476 437.851 92.8543 437.723 93.4943ZM453.583 98.5023C452.377 98.5023 451.375 98.1023 450.575 97.3023C449.785 96.5023 449.391 95.5156 449.391 94.3423C449.391 93.169 449.785 92.1823 450.575 91.3823C451.375 90.5823 452.377 90.1823 453.583 90.1823C454.393 90.1823 455.119 90.3743 455.759 90.7583C456.409 91.1423 456.916 91.665 457.279 92.3263L456.079 92.9983C455.844 92.529 455.508 92.1556 455.071 91.8783C454.644 91.601 454.148 91.4623 453.583 91.4623C452.761 91.4623 452.089 91.7396 451.567 92.2943C451.044 92.849 450.783 93.5316 450.783 94.3423C450.783 95.153 451.044 95.8356 451.567 96.3903C452.089 96.945 452.761 97.2223 453.583 97.2223C454.148 97.2223 454.644 97.0836 455.071 96.8063C455.508 96.529 455.844 96.1556 456.079 95.6863L457.279 96.3583C456.916 97.0196 456.409 97.5423 455.759 97.9263C455.119 98.3103 454.393 98.5023 453.583 98.5023ZM462.614 98.5023C461.408 98.5023 460.406 98.1023 459.606 97.3023C458.816 96.4916 458.422 95.505 458.422 94.3423C458.422 93.1796 458.816 92.1983 459.606 91.3983C460.406 90.5876 461.408 90.1823 462.614 90.1823C463.808 90.1823 464.8 90.5876 465.59 91.3983C466.39 92.1983 466.79 93.1796 466.79 94.3423C466.79 95.505 466.39 96.4916 465.59 97.3023C464.8 98.1023 463.808 98.5023 462.614 98.5023ZM460.598 96.3903C461.12 96.945 461.792 97.2223 462.614 97.2223C463.435 97.2223 464.102 96.945 464.614 96.3903C465.126 95.8356 465.382 95.153 465.382 94.3423C465.382 93.5316 465.126 92.849 464.614 92.2943C464.102 91.7396 463.435 91.4623 462.614 91.4623C461.792 91.4623 461.12 91.7396 460.598 92.2943C460.086 92.849 459.83 93.5316 459.83 94.3423C459.83 95.153 460.086 95.8356 460.598 96.3903ZM479.069 98.3423V93.6383C479.069 92.977 478.93 92.449 478.653 92.0543C478.386 91.649 477.997 91.4463 477.485 91.4463C476.845 91.4463 476.322 91.697 475.917 92.1983C475.522 92.6996 475.314 93.3823 475.293 94.2463V98.3423H473.917V93.6383C473.917 92.9663 473.778 92.433 473.501 92.0383C473.234 91.6436 472.85 91.4463 472.349 91.4463C471.687 91.4463 471.154 91.713 470.749 92.2463C470.343 92.769 470.141 93.4783 470.141 94.3743V98.3423H468.765V90.3423H470.141V91.5743C470.653 90.6463 471.458 90.1823 472.557 90.1823C473.773 90.1823 474.594 90.753 475.021 91.8943C475.234 91.3716 475.575 90.9556 476.045 90.6463C476.514 90.337 477.047 90.1823 477.645 90.1823C478.509 90.1823 479.191 90.4756 479.693 91.0623C480.194 91.649 480.445 92.4383 480.445 93.4303V98.3423H479.069ZM484.297 101.686H482.921V90.3423H484.297V91.5743C484.574 91.169 484.964 90.8383 485.465 90.5823C485.977 90.3156 486.526 90.1823 487.113 90.1823C488.222 90.1823 489.15 90.5876 489.897 91.3983C490.654 92.209 491.033 93.1903 491.033 94.3423C491.033 95.4943 490.654 96.4756 489.897 97.2863C489.15 98.097 488.222 98.5023 487.113 98.5023C486.526 98.5023 485.977 98.3743 485.465 98.1183C484.964 97.8516 484.574 97.5156 484.297 97.1103V101.686ZM484.953 96.4063C485.465 96.961 486.116 97.2383 486.905 97.2383C487.694 97.2383 488.345 96.961 488.857 96.4063C489.369 95.8516 489.625 95.1636 489.625 94.3423C489.625 93.521 489.369 92.833 488.857 92.2783C488.345 91.7236 487.694 91.4463 486.905 91.4463C486.116 91.4463 485.465 91.7236 484.953 92.2783C484.441 92.833 484.185 93.521 484.185 94.3423C484.185 95.1636 484.441 95.8516 484.953 96.4063ZM493.015 98.3423V86.3423H494.391V98.3423H493.015ZM500.519 98.5023C499.292 98.5023 498.295 98.1076 497.527 97.3183C496.759 96.529 496.375 95.537 496.375 94.3423C496.375 93.1583 496.764 92.1716 497.543 91.3823C498.322 90.5823 499.319 90.1823 500.535 90.1823C501.612 90.1823 502.514 90.545 503.239 91.2703C503.975 91.985 504.343 92.961 504.343 94.1983C504.343 94.3583 504.338 94.497 504.327 94.6143H497.767C497.788 95.361 498.055 95.985 498.567 96.4863C499.09 96.9876 499.746 97.2383 500.535 97.2383C501.655 97.2383 502.487 96.7743 503.031 95.8463L504.119 96.5983C503.34 97.8676 502.14 98.5023 500.519 98.5023ZM497.863 93.4943H502.935C502.828 92.8543 502.546 92.3476 502.087 91.9743C501.639 91.5903 501.106 91.3983 500.487 91.3983C499.858 91.3983 499.292 91.5903 498.791 91.9743C498.3 92.3476 497.991 92.8543 497.863 93.4943ZM509.291 98.4223C508.555 98.4223 507.963 98.2143 507.515 97.7983C507.067 97.3823 506.843 96.7743 506.843 95.9743V91.6063H505.147V90.3423H506.843V88.1183H508.219V90.3423H510.523V91.6063H508.219V95.7983C508.219 96.2996 508.325 96.6516 508.539 96.8543C508.752 97.057 509.088 97.1583 509.547 97.1583C509.952 97.1583 510.277 97.105 510.523 96.9983V98.2303C510.139 98.3583 509.728 98.4223 509.291 98.4223ZM515.691 98.5023C514.464 98.5023 513.467 98.1076 512.699 97.3183C511.931 96.529 511.547 95.537 511.547 94.3423C511.547 93.1583 511.936 92.1716 512.715 91.3823C513.494 90.5823 514.491 90.1823 515.707 90.1823C516.784 90.1823 517.686 90.545 518.411 91.2703C519.147 91.985 519.515 92.961 519.515 94.1983C519.515 94.3583 519.51 94.497 519.499 94.6143H512.939C512.96 95.361 513.227 95.985 513.739 96.4863C514.262 96.9876 514.918 97.2383 515.707 97.2383C516.827 97.2383 517.659 96.7743 518.203 95.8463L519.291 96.5983C518.512 97.8676 517.312 98.5023 515.691 98.5023ZM513.035 93.4943H518.107C518 92.8543 517.718 92.3476 517.259 91.9743C516.811 91.5903 516.278 91.3983 515.659 91.3983C515.03 91.3983 514.464 91.5903 513.963 91.9743C513.472 92.3476 513.163 92.8543 513.035 93.4943ZM527.08 101.686H525.544L527.288 97.9263L523.784 90.3423H525.304L528.056 96.4223L530.792 90.3423H532.328L527.08 101.686ZM537.082 98.5023C535.877 98.5023 534.874 98.1023 534.074 97.3023C533.285 96.4916 532.89 95.505 532.89 94.3423C532.89 93.1796 533.285 92.1983 534.074 91.3983C534.874 90.5876 535.877 90.1823 537.082 90.1823C538.277 90.1823 539.269 90.5876 540.058 91.3983C540.858 92.1983 541.258 93.1796 541.258 94.3423C541.258 95.505 540.858 96.4916 540.058 97.3023C539.269 98.1023 538.277 98.5023 537.082 98.5023ZM535.066 96.3903C535.589 96.945 536.261 97.2223 537.082 97.2223C537.904 97.2223 538.57 96.945 539.082 96.3903C539.594 95.8356 539.85 95.153 539.85 94.3423C539.85 93.5316 539.594 92.849 539.082 92.2943C538.57 91.7396 537.904 91.4623 537.082 91.4623C536.261 91.4623 535.589 91.7396 535.066 92.2943C534.554 92.849 534.298 93.5316 534.298 94.3423C534.298 95.153 534.554 95.8356 535.066 96.3903ZM546.066 98.5023C545.191 98.5023 544.482 98.209 543.938 97.6223C543.394 97.025 543.122 96.2356 543.122 95.2543V90.3423H544.498V95.0463C544.498 95.7183 544.658 96.2516 544.978 96.6463C545.308 97.041 545.751 97.2383 546.306 97.2383C546.946 97.2383 547.474 96.977 547.89 96.4543C548.316 95.921 548.53 95.2063 548.53 94.3103V90.3423H549.906V98.3423H548.53V97.1103C548.007 98.0383 547.186 98.5023 546.066 98.5023ZM552.499 98.3423V90.3423H553.875V91.8943C554.024 91.4036 554.312 91.009 554.739 90.7103C555.176 90.4116 555.635 90.2623 556.115 90.2623C556.35 90.2623 556.558 90.2836 556.739 90.3263V91.7503C556.547 91.665 556.296 91.6223 555.987 91.6223C555.432 91.6223 554.942 91.8623 554.515 92.3423C554.088 92.8223 553.875 93.4996 553.875 94.3743V98.3423H552.499ZM561.812 98.3423V90.3423H563.188V91.8943C563.337 91.4036 563.625 91.009 564.052 90.7103C564.489 90.4116 564.948 90.2623 565.428 90.2623C565.662 90.2623 565.87 90.2836 566.052 90.3263V91.7503C565.86 91.665 565.609 91.6223 565.3 91.6223C564.745 91.6223 564.254 91.8623 563.828 92.3423C563.401 92.8223 563.188 93.4996 563.188 94.3743V98.3423H561.812ZM570.91 98.5023C569.683 98.5023 568.686 98.1076 567.918 97.3183C567.15 96.529 566.766 95.537 566.766 94.3423C566.766 93.1583 567.155 92.1716 567.934 91.3823C568.712 90.5823 569.71 90.1823 570.926 90.1823C572.003 90.1823 572.904 90.545 573.63 91.2703C574.366 91.985 574.734 92.961 574.734 94.1983C574.734 94.3583 574.728 94.497 574.718 94.6143H568.158C568.179 95.361 568.446 95.985 568.958 96.4863C569.48 96.9876 570.136 97.2383 570.926 97.2383C572.046 97.2383 572.878 96.7743 573.422 95.8463L574.51 96.5983C573.731 97.8676 572.531 98.5023 570.91 98.5023ZM568.254 93.4943H573.326C573.219 92.8543 572.936 92.3476 572.478 91.9743C572.03 91.5903 571.496 91.3983 570.878 91.3983C570.248 91.3983 569.683 91.5903 569.182 91.9743C568.691 92.3476 568.382 92.8543 568.254 93.4943ZM578.223 96.2623C578.724 96.785 579.375 97.0463 580.175 97.0463C580.975 97.0463 581.625 96.785 582.127 96.2623C582.628 95.729 582.879 95.057 582.879 94.2463C582.879 93.4356 582.623 92.769 582.111 92.2463C581.609 91.713 580.964 91.4463 580.175 91.4463C579.385 91.4463 578.735 91.713 578.223 92.2463C577.721 92.769 577.471 93.4356 577.471 94.2463C577.471 95.057 577.721 95.729 578.223 96.2623ZM580.095 101.846C579.273 101.846 578.532 101.692 577.871 101.382C577.209 101.084 576.697 100.694 576.335 100.214L577.295 99.2543C577.999 100.15 578.932 100.598 580.095 100.598C580.841 100.598 581.471 100.364 581.983 99.8943C582.505 99.425 582.767 98.737 582.767 97.8303V96.9183C582.479 97.345 582.089 97.6863 581.599 97.9423C581.108 98.1983 580.569 98.3263 579.983 98.3263C578.863 98.3263 577.929 97.937 577.183 97.1583C576.436 96.369 576.063 95.3983 576.063 94.2463C576.063 93.105 576.436 92.145 577.183 91.3663C577.94 90.577 578.873 90.1823 579.983 90.1823C580.569 90.1823 581.108 90.3103 581.599 90.5663C582.089 90.8223 582.479 91.1583 582.767 91.5743V90.3423H584.143V97.8783C584.143 99.169 583.764 100.15 583.007 100.822C582.26 101.505 581.289 101.846 580.095 101.846ZM588.126 87.9263C587.944 88.1076 587.715 88.1983 587.438 88.1983C587.16 88.1983 586.926 88.1076 586.734 87.9263C586.542 87.7343 586.446 87.4996 586.446 87.2223C586.446 86.9556 586.542 86.7263 586.734 86.5343C586.926 86.3423 587.16 86.2463 587.438 86.2463C587.715 86.2463 587.944 86.3423 588.126 86.5343C588.307 86.7263 588.398 86.9556 588.398 87.2223C588.398 87.4996 588.307 87.7343 588.126 87.9263ZM586.734 98.3423V90.3423H588.11V98.3423H586.734ZM593.134 98.5023C592.398 98.5023 591.753 98.3476 591.198 98.0383C590.643 97.7183 590.243 97.2543 589.998 96.6463L591.118 96.0223C591.267 96.417 591.529 96.7263 591.902 96.9503C592.275 97.1743 592.691 97.2863 593.15 97.2863C593.545 97.2863 593.875 97.1903 594.142 96.9983C594.409 96.8063 594.542 96.545 594.542 96.2143C594.542 95.9263 594.435 95.6863 594.222 95.4943C594.019 95.3023 593.662 95.1263 593.15 94.9663L592.35 94.7103C591.017 94.3263 590.35 93.5476 590.35 92.3743C590.35 91.713 590.611 91.185 591.134 90.7903C591.667 90.385 592.323 90.1823 593.102 90.1823C594.318 90.1823 595.198 90.6463 595.742 91.5743L594.718 92.2783C594.281 91.6703 593.726 91.3663 593.054 91.3663C592.691 91.3663 592.377 91.457 592.11 91.6383C591.854 91.809 591.726 92.0383 591.726 92.3263C591.726 92.593 591.806 92.8223 591.966 93.0143C592.137 93.1956 592.435 93.3503 592.862 93.4783L593.742 93.7503C595.193 94.1983 595.918 94.9823 595.918 96.1023C595.918 96.849 595.657 97.4356 595.134 97.8623C594.622 98.289 593.955 98.5023 593.134 98.5023ZM600.947 98.4223C600.211 98.4223 599.619 98.2143 599.171 97.7983C598.723 97.3823 598.499 96.7743 598.499 95.9743V91.6063H596.803V90.3423H598.499V88.1183H599.875V90.3423H602.179V91.6063H599.875V95.7983C599.875 96.2996 599.982 96.6516 600.195 96.8543C600.408 97.057 600.744 97.1583 601.203 97.1583C601.608 97.1583 601.934 97.105 602.179 96.9983V98.2303C601.795 98.3583 601.384 98.4223 600.947 98.4223ZM603.937 98.3423V90.3423H605.313V91.8943C605.462 91.4036 605.75 91.009 606.177 90.7103C606.614 90.4116 607.073 90.2623 607.553 90.2623C607.787 90.2623 607.995 90.2836 608.177 90.3263V91.7503C607.985 91.665 607.734 91.6223 607.425 91.6223C606.87 91.6223 606.379 91.8623 605.953 92.3423C605.526 92.8223 605.313 93.4996 605.313 94.3743V98.3423H603.937ZM612.826 98.5023C611.717 98.5023 610.784 98.097 610.026 97.2863C609.28 96.4756 608.906 95.4943 608.906 94.3423C608.906 93.1903 609.28 92.209 610.026 91.3983C610.784 90.5876 611.717 90.1823 612.826 90.1823C613.413 90.1823 613.957 90.3156 614.458 90.5823C614.97 90.8383 615.365 91.169 615.642 91.5743V90.3423H617.018V98.3423H615.642V97.1103C615.365 97.5156 614.97 97.8516 614.458 98.1183C613.957 98.3743 613.413 98.5023 612.826 98.5023ZM613.034 97.2383C613.824 97.2383 614.474 96.961 614.986 96.4063C615.498 95.8516 615.754 95.1636 615.754 94.3423C615.754 93.521 615.498 92.833 614.986 92.2783C614.474 91.7236 613.824 91.4463 613.034 91.4463C612.234 91.4463 611.578 91.7236 611.066 92.2783C610.554 92.833 610.298 93.521 610.298 94.3423C610.298 95.1636 610.554 95.8516 611.066 96.4063C611.578 96.961 612.234 97.2383 613.034 97.2383ZM622.713 98.4223C621.977 98.4223 621.385 98.2143 620.937 97.7983C620.489 97.3823 620.265 96.7743 620.265 95.9743V91.6063H618.569V90.3423H620.265V88.1183H621.641V90.3423H623.945V91.6063H621.641V95.7983C621.641 96.2996 621.747 96.6516 621.961 96.8543C622.174 97.057 622.51 97.1583 622.969 97.1583C623.374 97.1583 623.699 97.105 623.945 96.9983V98.2303C623.561 98.3583 623.15 98.4223 622.713 98.4223ZM627.094 87.9263C626.913 88.1076 626.684 88.1983 626.406 88.1983C626.129 88.1983 625.894 88.1076 625.702 87.9263C625.51 87.7343 625.414 87.4996 625.414 87.2223C625.414 86.9556 625.51 86.7263 625.702 86.5343C625.894 86.3423 626.129 86.2463 626.406 86.2463C626.684 86.2463 626.913 86.3423 627.094 86.5343C627.276 86.7263 627.366 86.9556 627.366 87.2223C627.366 87.4996 627.276 87.7343 627.094 87.9263ZM625.702 98.3423V90.3423H627.078V98.3423H625.702ZM633.239 98.5023C632.033 98.5023 631.031 98.1023 630.231 97.3023C629.441 96.4916 629.047 95.505 629.047 94.3423C629.047 93.1796 629.441 92.1983 630.231 91.3983C631.031 90.5876 632.033 90.1823 633.239 90.1823C634.433 90.1823 635.425 90.5876 636.215 91.3983C637.015 92.1983 637.415 93.1796 637.415 94.3423C637.415 95.505 637.015 96.4916 636.215 97.3023C635.425 98.1023 634.433 98.5023 633.239 98.5023ZM631.223 96.3903C631.745 96.945 632.417 97.2223 633.239 97.2223C634.06 97.2223 634.727 96.945 635.239 96.3903C635.751 95.8356 636.007 95.153 636.007 94.3423C636.007 93.5316 635.751 92.849 635.239 92.2943C634.727 91.7396 634.06 91.4623 633.239 91.4623C632.417 91.4623 631.745 91.7396 631.223 92.2943C630.711 92.849 630.455 93.5316 630.455 94.3423C630.455 95.153 630.711 95.8356 631.223 96.3903ZM639.39 98.3423V90.3423H640.766V91.5743C641.31 90.6463 642.158 90.1823 643.31 90.1823C644.216 90.1823 644.947 90.4756 645.502 91.0623C646.056 91.649 646.334 92.433 646.334 93.4143V98.3423H644.974V93.6223C644.974 92.9503 644.803 92.4223 644.462 92.0383C644.12 91.6436 643.662 91.4463 643.086 91.4463C642.424 91.4463 641.87 91.7076 641.422 92.2303C640.984 92.753 640.766 93.4676 640.766 94.3743V98.3423H639.39ZM656.863 98.5023C656.276 98.5023 655.727 98.3743 655.215 98.1183C654.714 97.8516 654.324 97.5156 654.047 97.1103V98.3423H652.671V86.3423H654.047V91.5743C654.324 91.169 654.714 90.8383 655.215 90.5823C655.727 90.3156 656.276 90.1823 656.863 90.1823C657.972 90.1823 658.9 90.5876 659.647 91.3983C660.404 92.209 660.783 93.1903 660.783 94.3423C660.783 95.4943 660.404 96.4756 659.647 97.2863C658.9 98.097 657.972 98.5023 656.863 98.5023ZM654.703 96.4063C655.215 96.961 655.866 97.2383 656.655 97.2383C657.444 97.2383 658.095 96.961 658.607 96.4063C659.119 95.8516 659.375 95.1636 659.375 94.3423C659.375 93.521 659.119 92.833 658.607 92.2783C658.095 91.7236 657.444 91.4463 656.655 91.4463C655.866 91.4463 655.215 91.7236 654.703 92.2783C654.191 92.833 653.935 93.521 653.935 94.3423C653.935 95.1636 654.191 95.8516 654.703 96.4063ZM664.721 101.686H663.185L664.929 97.9263L661.425 90.3423H662.945L665.697 96.4223L668.433 90.3423H669.969L664.721 101.686ZM676.98 98.3423L673.284 90.3423H674.82L677.556 96.4063L680.292 90.3423H681.828L678.132 98.3423H676.98ZM684.61 87.9263C684.429 88.1076 684.199 88.1983 683.922 88.1983C683.645 88.1983 683.41 88.1076 683.218 87.9263C683.026 87.7343 682.93 87.4996 682.93 87.2223C682.93 86.9556 683.026 86.7263 683.218 86.5343C683.41 86.3423 683.645 86.2463 683.922 86.2463C684.199 86.2463 684.429 86.3423 684.61 86.5343C684.791 86.7263 684.882 86.9556 684.882 87.2223C684.882 87.4996 684.791 87.7343 684.61 87.9263ZM683.218 98.3423V90.3423H684.594V98.3423H683.218ZM689.618 98.5023C688.882 98.5023 688.237 98.3476 687.682 98.0383C687.128 97.7183 686.728 97.2543 686.482 96.6463L687.602 96.0223C687.752 96.417 688.013 96.7263 688.386 96.9503C688.76 97.1743 689.176 97.2863 689.634 97.2863C690.029 97.2863 690.36 97.1903 690.626 96.9983C690.893 96.8063 691.026 96.545 691.026 96.2143C691.026 95.9263 690.92 95.6863 690.706 95.4943C690.504 95.3023 690.146 95.1263 689.634 94.9663L688.834 94.7103C687.501 94.3263 686.834 93.5476 686.834 92.3743C686.834 91.713 687.096 91.185 687.618 90.7903C688.152 90.385 688.808 90.1823 689.586 90.1823C690.802 90.1823 691.682 90.6463 692.226 91.5743L691.202 92.2783C690.765 91.6703 690.21 91.3663 689.538 91.3663C689.176 91.3663 688.861 91.457 688.594 91.6383C688.338 91.809 688.21 92.0383 688.21 92.3263C688.21 92.593 688.29 92.8223 688.45 93.0143C688.621 93.1956 688.92 93.3503 689.346 93.4783L690.226 93.7503C691.677 94.1983 692.402 94.9823 692.402 96.1023C692.402 96.849 692.141 97.4356 691.618 97.8623C691.106 98.289 690.44 98.5023 689.618 98.5023ZM695.797 87.9263C695.616 88.1076 695.387 88.1983 695.109 88.1983C694.832 88.1983 694.597 88.1076 694.405 87.9263C694.213 87.7343 694.117 87.4996 694.117 87.2223C694.117 86.9556 694.213 86.7263 694.405 86.5343C694.597 86.3423 694.832 86.2463 695.109 86.2463C695.387 86.2463 695.616 86.3423 695.797 86.5343C695.979 86.7263 696.069 86.9556 696.069 87.2223C696.069 87.4996 695.979 87.7343 695.797 87.9263ZM694.405 98.3423V90.3423H695.781V98.3423H694.405ZM701.494 98.4223C700.758 98.4223 700.166 98.2143 699.718 97.7983C699.27 97.3823 699.046 96.7743 699.046 95.9743V91.6063H697.35V90.3423H699.046V88.1183H700.422V90.3423H702.726V91.6063H700.422V95.7983C700.422 96.2996 700.528 96.6516 700.742 96.8543C700.955 97.057 701.291 97.1583 701.75 97.1583C702.155 97.1583 702.48 97.105 702.726 96.9983V98.2303C702.342 98.3583 701.931 98.4223 701.494 98.4223ZM705.876 87.9263C705.694 88.1076 705.465 88.1983 705.188 88.1983C704.91 88.1983 704.676 88.1076 704.484 87.9263C704.292 87.7343 704.196 87.4996 704.196 87.2223C704.196 86.9556 704.292 86.7263 704.484 86.5343C704.676 86.3423 704.91 86.2463 705.188 86.2463C705.465 86.2463 705.694 86.3423 705.876 86.5343C706.057 86.7263 706.148 86.9556 706.148 87.2223C706.148 87.4996 706.057 87.7343 705.876 87.9263ZM704.484 98.3423V90.3423H705.86V98.3423H704.484ZM708.468 98.3423V90.3423H709.844V91.5743C710.388 90.6463 711.236 90.1823 712.388 90.1823C713.295 90.1823 714.025 90.4756 714.58 91.0623C715.135 91.649 715.412 92.433 715.412 93.4143V98.3423H714.052V93.6223C714.052 92.9503 713.881 92.4223 713.54 92.0383C713.199 91.6436 712.74 91.4463 712.164 91.4463C711.503 91.4463 710.948 91.7076 710.5 92.2303C710.063 92.753 709.844 93.4676 709.844 94.3743V98.3423H708.468ZM719.426 96.2623C719.927 96.785 720.578 97.0463 721.378 97.0463C722.178 97.0463 722.828 96.785 723.33 96.2623C723.831 95.729 724.082 95.057 724.082 94.2463C724.082 93.4356 723.826 92.769 723.314 92.2463C722.812 91.713 722.167 91.4463 721.378 91.4463C720.588 91.4463 719.938 91.713 719.426 92.2463C718.924 92.769 718.674 93.4356 718.674 94.2463C718.674 95.057 718.924 95.729 719.426 96.2623ZM721.298 101.846C720.476 101.846 719.735 101.692 719.074 101.382C718.412 101.084 717.9 100.694 717.538 100.214L718.498 99.2543C719.202 100.15 720.135 100.598 721.298 100.598C722.044 100.598 722.674 100.364 723.186 99.8943C723.708 99.425 723.97 98.737 723.97 97.8303V96.9183C723.682 97.345 723.292 97.6863 722.802 97.9423C722.311 98.1983 721.772 98.3263 721.186 98.3263C720.066 98.3263 719.132 97.937 718.386 97.1583C717.639 96.369 717.266 95.3983 717.266 94.2463C717.266 93.105 717.639 92.145 718.386 91.3663C719.143 90.577 720.076 90.1823 721.186 90.1823C721.772 90.1823 722.311 90.3103 722.802 90.5663C723.292 90.8223 723.682 91.1583 723.97 91.5743V90.3423H725.346V97.8783C725.346 99.169 724.967 100.15 724.21 100.822C723.463 101.505 722.492 101.846 721.298 101.846ZM734.634 98.4223C733.898 98.4223 733.306 98.2143 732.858 97.7983C732.41 97.3823 732.186 96.7743 732.186 95.9743V91.6063H730.49V90.3423H732.186V88.1183H733.562V90.3423H735.866V91.6063H733.562V95.7983C733.562 96.2996 733.669 96.6516 733.882 96.8543C734.096 97.057 734.432 97.1583 734.89 97.1583C735.296 97.1583 735.621 97.105 735.866 96.9983V98.2303C735.482 98.3583 735.072 98.4223 734.634 98.4223ZM739 98.3423H737.624V86.3423H739V91.5743C739.544 90.6463 740.392 90.1823 741.544 90.1823C742.451 90.1823 743.181 90.4756 743.736 91.0623C744.291 91.649 744.568 92.433 744.568 93.4143V98.3423H743.208V93.6223C743.208 92.9503 743.037 92.4223 742.696 92.0383C742.355 91.6436 741.896 91.4463 741.32 91.4463C740.659 91.4463 740.104 91.7076 739.656 92.2303C739.219 92.753 739 93.4676 739 94.3743V98.3423ZM750.566 98.5023C749.339 98.5023 748.342 98.1076 747.574 97.3183C746.806 96.529 746.422 95.537 746.422 94.3423C746.422 93.1583 746.811 92.1716 747.59 91.3823C748.369 90.5823 749.366 90.1823 750.582 90.1823C751.659 90.1823 752.561 90.545 753.286 91.2703C754.022 91.985 754.39 92.961 754.39 94.1983C754.39 94.3583 754.385 94.497 754.374 94.6143H747.814C747.835 95.361 748.102 95.985 748.614 96.4863C749.137 96.9876 749.793 97.2383 750.582 97.2383C751.702 97.2383 752.534 96.7743 753.078 95.8463L754.166 96.5983C753.387 97.8676 752.187 98.5023 750.566 98.5023ZM747.91 93.4943H752.982C752.875 92.8543 752.593 92.3476 752.134 91.9743C751.686 91.5903 751.153 91.3983 750.534 91.3983C749.905 91.3983 749.339 91.5903 748.838 91.9743C748.347 92.3476 748.038 92.8543 747.91 93.4943ZM762.618 98.5023C761.882 98.5023 761.237 98.3476 760.682 98.0383C760.128 97.7183 759.728 97.2543 759.482 96.6463L760.602 96.0223C760.752 96.417 761.013 96.7263 761.386 96.9503C761.76 97.1743 762.176 97.2863 762.634 97.2863C763.029 97.2863 763.36 97.1903 763.626 96.9983C763.893 96.8063 764.026 96.545 764.026 96.2143C764.026 95.9263 763.92 95.6863 763.706 95.4943C763.504 95.3023 763.146 95.1263 762.634 94.9663L761.834 94.7103C760.501 94.3263 759.834 93.5476 759.834 92.3743C759.834 91.713 760.096 91.185 760.618 90.7903C761.152 90.385 761.808 90.1823 762.586 90.1823C763.802 90.1823 764.682 90.6463 765.226 91.5743L764.202 92.2783C763.765 91.6703 763.21 91.3663 762.538 91.3663C762.176 91.3663 761.861 91.457 761.594 91.6383C761.338 91.809 761.21 92.0383 761.21 92.3263C761.21 92.593 761.29 92.8223 761.45 93.0143C761.621 93.1956 761.92 93.3503 762.346 93.4783L763.226 93.7503C764.677 94.1983 765.402 94.9823 765.402 96.1023C765.402 96.849 765.141 97.4356 764.618 97.8623C764.106 98.289 763.44 98.5023 762.618 98.5023ZM770.925 98.5023C769.699 98.5023 768.701 98.1076 767.933 97.3183C767.165 96.529 766.781 95.537 766.781 94.3423C766.781 93.1583 767.171 92.1716 767.949 91.3823C768.728 90.5823 769.725 90.1823 770.941 90.1823C772.019 90.1823 772.92 90.545 773.645 91.2703C774.381 91.985 774.749 92.961 774.749 94.1983C774.749 94.3583 774.744 94.497 774.733 94.6143H768.173C768.195 95.361 768.461 95.985 768.973 96.4863C769.496 96.9876 770.152 97.2383 770.941 97.2383C772.061 97.2383 772.893 96.7743 773.437 95.8463L774.525 96.5983C773.747 97.8676 772.547 98.5023 770.925 98.5023ZM768.269 93.4943H773.341C773.235 92.8543 772.952 92.3476 772.493 91.9743C772.045 91.5903 771.512 91.3983 770.893 91.3983C770.264 91.3983 769.699 91.5903 769.197 91.9743C768.707 92.3476 768.397 92.8543 768.269 93.4943ZM785.553 98.4223C784.817 98.4223 784.225 98.2143 783.777 97.7983C783.329 97.3823 783.105 96.7743 783.105 95.9743V91.6063H781.601V90.3423H783.105V88.1183H784.481V90.3423H786.801V91.6063H784.481V95.7983C784.481 96.2996 784.588 96.6516 784.801 96.8543C785.014 97.057 785.35 97.1583 785.809 97.1583C786.225 97.1583 786.556 97.105 786.801 96.9983V98.2303C786.385 98.3583 785.969 98.4223 785.553 98.4223ZM779.697 98.4223C778.961 98.4223 778.369 98.2143 777.921 97.7983C777.473 97.3823 777.249 96.7743 777.249 95.9743V91.6063H775.553V90.3423H777.249V88.1183H778.625V90.3423H780.705V91.6063H778.625V95.7983C778.625 96.2996 778.732 96.6516 778.945 96.8543C779.158 97.057 779.494 97.1583 779.953 97.1583C780.358 97.1583 780.684 97.105 780.929 96.9983V98.2303C780.545 98.3583 780.134 98.4223 779.697 98.4223ZM789.954 87.9263C789.772 88.1076 789.543 88.1983 789.266 88.1983C788.988 88.1983 788.754 88.1076 788.562 87.9263C788.37 87.7343 788.274 87.4996 788.274 87.2223C788.274 86.9556 788.37 86.7263 788.562 86.5343C788.754 86.3423 788.988 86.2463 789.266 86.2463C789.543 86.2463 789.772 86.3423 789.954 86.5343C790.135 86.7263 790.226 86.9556 790.226 87.2223C790.226 87.4996 790.135 87.7343 789.954 87.9263ZM788.562 98.3423V90.3423H789.938V98.3423H788.562ZM792.546 98.3423V90.3423H793.922V91.5743C794.466 90.6463 795.314 90.1823 796.466 90.1823C797.373 90.1823 798.103 90.4756 798.658 91.0623C799.213 91.649 799.49 92.433 799.49 93.4143V98.3423H798.13V93.6223C798.13 92.9503 797.959 92.4223 797.618 92.0383C797.277 91.6436 796.818 91.4463 796.242 91.4463C795.581 91.4463 795.026 91.7076 794.578 92.2303C794.141 92.753 793.922 93.4676 793.922 94.3743V98.3423H792.546ZM803.504 96.2623C804.005 96.785 804.656 97.0463 805.456 97.0463C806.256 97.0463 806.907 96.785 807.408 96.2623C807.909 95.729 808.16 95.057 808.16 94.2463C808.16 93.4356 807.904 92.769 807.392 92.2463C806.891 91.713 806.245 91.4463 805.456 91.4463C804.667 91.4463 804.016 91.713 803.504 92.2463C803.003 92.769 802.752 93.4356 802.752 94.2463C802.752 95.057 803.003 95.729 803.504 96.2623ZM805.376 101.846C804.555 101.846 803.813 101.692 803.152 101.382C802.491 101.084 801.979 100.694 801.616 100.214L802.576 99.2543C803.28 100.15 804.213 100.598 805.376 100.598C806.123 100.598 806.752 100.364 807.264 99.8943C807.787 99.425 808.048 98.737 808.048 97.8303V96.9183C807.76 97.345 807.371 97.6863 806.88 97.9423C806.389 98.1983 805.851 98.3263 805.264 98.3263C804.144 98.3263 803.211 97.937 802.464 97.1583C801.717 96.369 801.344 95.3983 801.344 94.2463C801.344 93.105 801.717 92.145 802.464 91.3663C803.221 90.577 804.155 90.1823 805.264 90.1823C805.851 90.1823 806.389 90.3103 806.88 90.5663C807.371 90.8223 807.76 91.1583 808.048 91.5743V90.3423H809.424V97.8783C809.424 99.169 809.045 100.15 808.288 100.822C807.541 101.505 806.571 101.846 805.376 101.846ZM814.431 98.5023C813.695 98.5023 813.049 98.3476 812.495 98.0383C811.94 97.7183 811.54 97.2543 811.295 96.6463L812.415 96.0223C812.564 96.417 812.825 96.7263 813.199 96.9503C813.572 97.1743 813.988 97.2863 814.447 97.2863C814.841 97.2863 815.172 97.1903 815.439 96.9983C815.705 96.8063 815.839 96.545 815.839 96.2143C815.839 95.9263 815.732 95.6863 815.519 95.4943C815.316 95.3023 814.959 95.1263 814.447 94.9663L813.647 94.7103C812.313 94.3263 811.647 93.5476 811.647 92.3743C811.647 91.713 811.908 91.185 812.431 90.7903C812.964 90.385 813.62 90.1823 814.399 90.1823C815.615 90.1823 816.495 90.6463 817.039 91.5743L816.015 92.2783C815.577 91.6703 815.023 91.3663 814.351 91.3663C813.988 91.3663 813.673 91.457 813.407 91.6383C813.151 91.809 813.023 92.0383 813.023 92.3263C813.023 92.593 813.103 92.8223 813.263 93.0143C813.433 93.1956 813.732 93.3503 814.159 93.4783L815.039 93.7503C816.489 94.1983 817.215 94.9823 817.215 96.1023C817.215 96.849 816.953 97.4356 816.431 97.8623C815.919 98.289 815.252 98.5023 814.431 98.5023ZM825.493 98.5023C824.757 98.5023 824.112 98.3476 823.557 98.0383C823.003 97.7183 822.603 97.2543 822.357 96.6463L823.477 96.0223C823.627 96.417 823.888 96.7263 824.261 96.9503C824.635 97.1743 825.051 97.2863 825.509 97.2863C825.904 97.2863 826.235 97.1903 826.501 96.9983C826.768 96.8063 826.901 96.545 826.901 96.2143C826.901 95.9263 826.795 95.6863 826.581 95.4943C826.379 95.3023 826.021 95.1263 825.509 94.9663L824.709 94.7103C823.376 94.3263 822.709 93.5476 822.709 92.3743C822.709 91.713 822.971 91.185 823.493 90.7903C824.027 90.385 824.683 90.1823 825.461 90.1823C826.677 90.1823 827.557 90.6463 828.101 91.5743L827.077 92.2783C826.64 91.6703 826.085 91.3663 825.413 91.3663C825.051 91.3663 824.736 91.457 824.469 91.6383C824.213 91.809 824.085 92.0383 824.085 92.3263C824.085 92.593 824.165 92.8223 824.325 93.0143C824.496 93.1956 824.795 93.3503 825.221 93.4783L826.101 93.7503C827.552 94.1983 828.277 94.9823 828.277 96.1023C828.277 96.849 828.016 97.4356 827.493 97.8623C826.981 98.289 826.315 98.5023 825.493 98.5023ZM833.8 98.5023C832.574 98.5023 831.576 98.1076 830.808 97.3183C830.04 96.529 829.656 95.537 829.656 94.3423C829.656 93.1583 830.046 92.1716 830.824 91.3823C831.603 90.5823 832.6 90.1823 833.816 90.1823C834.894 90.1823 835.795 90.545 836.52 91.2703C837.256 91.985 837.624 92.961 837.624 94.1983C837.624 94.3583 837.619 94.497 837.608 94.6143H831.048C831.07 95.361 831.336 95.985 831.848 96.4863C832.371 96.9876 833.027 97.2383 833.816 97.2383C834.936 97.2383 835.768 96.7743 836.312 95.8463L837.4 96.5983C836.622 97.8676 835.422 98.5023 833.8 98.5023ZM831.144 93.4943H836.216C836.11 92.8543 835.827 92.3476 835.368 91.9743C834.92 91.5903 834.387 91.3983 833.768 91.3983C833.139 91.3983 832.574 91.5903 832.072 91.9743C831.582 92.3476 831.272 92.8543 831.144 93.4943ZM843.145 98.5023C841.94 98.5023 840.937 98.1023 840.137 97.3023C839.348 96.5023 838.953 95.5156 838.953 94.3423C838.953 93.169 839.348 92.1823 840.137 91.3823C840.937 90.5823 841.94 90.1823 843.145 90.1823C843.956 90.1823 844.681 90.3743 845.321 90.7583C845.972 91.1423 846.479 91.665 846.841 92.3263L845.641 92.9983C845.407 92.529 845.071 92.1556 844.633 91.8783C844.207 91.601 843.711 91.4623 843.145 91.4623C842.324 91.4623 841.652 91.7396 841.129 92.2943C840.607 92.849 840.345 93.5316 840.345 94.3423C840.345 95.153 840.607 95.8356 841.129 96.3903C841.652 96.945 842.324 97.2223 843.145 97.2223C843.711 97.2223 844.207 97.0836 844.633 96.8063C845.071 96.529 845.407 96.1556 845.641 95.6863L846.841 96.3583C846.479 97.0196 845.972 97.5423 845.321 97.9263C844.681 98.3103 843.956 98.5023 843.145 98.5023ZM851.728 98.4223C850.992 98.4223 850.4 98.2143 849.952 97.7983C849.504 97.3823 849.28 96.7743 849.28 95.9743V91.6063H847.584V90.3423H849.28V88.1183H850.656V90.3423H852.96V91.6063H850.656V95.7983C850.656 96.2996 850.763 96.6516 850.976 96.8543C851.189 97.057 851.525 97.1583 851.984 97.1583C852.389 97.1583 852.715 97.105 852.96 96.9983V98.2303C852.576 98.3583 852.165 98.4223 851.728 98.4223ZM856.11 87.9263C855.929 88.1076 855.699 88.1983 855.422 88.1983C855.145 88.1983 854.91 88.1076 854.718 87.9263C854.526 87.7343 854.43 87.4996 854.43 87.2223C854.43 86.9556 854.526 86.7263 854.718 86.5343C854.91 86.3423 855.145 86.2463 855.422 86.2463C855.699 86.2463 855.929 86.3423 856.11 86.5343C856.291 86.7263 856.382 86.9556 856.382 87.2223C856.382 87.4996 856.291 87.7343 856.11 87.9263ZM854.718 98.3423V90.3423H856.094V98.3423H854.718ZM862.254 98.5023C861.049 98.5023 860.046 98.1023 859.246 97.3023C858.457 96.4916 858.062 95.505 858.062 94.3423C858.062 93.1796 858.457 92.1983 859.246 91.3983C860.046 90.5876 861.049 90.1823 862.254 90.1823C863.449 90.1823 864.441 90.5876 865.23 91.3983C866.03 92.1983 866.43 93.1796 866.43 94.3423C866.43 95.505 866.03 96.4916 865.23 97.3023C864.441 98.1023 863.449 98.5023 862.254 98.5023ZM860.238 96.3903C860.761 96.945 861.433 97.2223 862.254 97.2223C863.076 97.2223 863.742 96.945 864.254 96.3903C864.766 95.8356 865.022 95.153 865.022 94.3423C865.022 93.5316 864.766 92.849 864.254 92.2943C863.742 91.7396 863.076 91.4623 862.254 91.4623C861.433 91.4623 860.761 91.7396 860.238 92.2943C859.726 92.849 859.47 93.5316 859.47 94.3423C859.47 95.153 859.726 95.8356 860.238 96.3903ZM868.405 98.3423V90.3423H869.781V91.5743C870.325 90.6463 871.173 90.1823 872.325 90.1823C873.232 90.1823 873.963 90.4756 874.517 91.0623C875.072 91.649 875.349 92.433 875.349 93.4143V98.3423H873.989V93.6223C873.989 92.9503 873.819 92.4223 873.477 92.0383C873.136 91.6436 872.677 91.4463 872.101 91.4463C871.44 91.4463 870.885 91.7076 870.437 92.2303C870 92.753 869.781 93.4676 869.781 94.3743V98.3423H868.405ZM879.379 98.1183C879.155 98.353 878.878 98.4703 878.547 98.4703C878.217 98.4703 877.934 98.353 877.699 98.1183C877.475 97.8836 877.363 97.601 877.363 97.2703C877.363 96.9503 877.481 96.673 877.715 96.4383C877.95 96.193 878.227 96.0703 878.547 96.0703C878.867 96.0703 879.145 96.193 879.379 96.4383C879.614 96.673 879.731 96.9503 879.731 97.2703C879.731 97.601 879.614 97.8836 879.379 98.1183Z" fill="white"/>
<g opacity="0.5" clipPath="url(#clip2_11038_151309)">
<circle cx="1244.64" cy="87.6614" r="46.3" transform="rotate(90 1244.64 87.6614)" fill="white" fill-opacity="0.1"/>
<path opacity="0.1" d="M1105.06 -4.93872C1105.06 1.14149 1106.26 7.16216 1108.59 12.7795C1110.91 18.3969 1114.32 23.501 1118.62 27.8004C1122.92 32.0997 1128.03 35.5102 1133.64 37.8369C1139.26 40.1637 1145.28 41.3613 1151.36 41.3613C1157.44 41.3613 1163.46 40.1637 1169.08 37.8369C1174.7 35.5101 1179.8 32.0997 1184.1 27.8003C1188.4 23.501 1191.81 18.3969 1194.14 12.7795C1196.47 7.16215 1197.66 1.14148 1197.66 -4.93874L1151.36 -4.93872L1105.06 -4.93872Z" fill="white"/>
<path opacity="0.1" d="M1058.54 134.043C1064.64 134.043 1070.69 132.84 1076.33 130.505C1081.97 128.169 1087.09 124.745 1091.41 120.429C1095.72 116.113 1099.15 110.989 1101.48 105.349C1103.82 99.7101 1105.02 93.6659 1105.02 87.5619C1105.02 81.458 1103.82 75.4138 1101.48 69.7745C1099.15 64.1352 1095.72 59.0112 1091.41 54.6951C1087.09 50.3789 1081.97 46.9552 1076.33 44.6193C1070.69 42.2834 1064.64 41.0812 1058.54 41.0812L1058.54 87.562L1058.54 134.043Z" fill="white"/>
<rect opacity="0.2" x="1198" y="41.1104" width="92.9304" height="92.9316" transform="rotate(90 1198 41.1104)" fill="white"/>
<path d="M1198 41.1104L1247.5 -7.04298L1290.93 -51.8201L1290.93 41.1104L1198 41.1104Z" fill="white" fill-opacity="0.15"/>
</g>
<path d="M1077.7 71.216C1075.7 71.216 1074.05 70.586 1072.75 69.326C1071.47 68.066 1070.83 66.494 1070.83 64.61C1070.83 62.75 1071.46 61.184 1072.74 59.912C1074.01 58.64 1075.59 58.004 1077.49 58.004C1079.44 58.004 1081.05 58.598 1082.29 59.786L1081.18 60.992C1080.16 60.056 1078.93 59.588 1077.49 59.588C1076.05 59.588 1074.85 60.074 1073.91 61.046C1072.97 62.006 1072.5 63.194 1072.5 64.61C1072.5 66.05 1072.98 67.25 1073.92 68.21C1074.88 69.158 1076.14 69.632 1077.7 69.632C1079.17 69.632 1080.3 69.314 1081.11 68.678V65.258H1077.49V63.692H1082.73V69.416C1082.16 70.004 1081.44 70.454 1080.55 70.766C1079.66 71.066 1078.71 71.216 1077.7 71.216ZM1089.22 71.18C1087.86 71.18 1086.73 70.73 1085.83 69.83C1084.95 68.918 1084.5 67.808 1084.5 66.5C1084.5 65.192 1084.95 64.088 1085.83 63.188C1086.73 62.276 1087.86 61.82 1089.22 61.82C1090.56 61.82 1091.68 62.276 1092.57 63.188C1093.47 64.088 1093.92 65.192 1093.92 66.5C1093.92 67.808 1093.47 68.918 1092.57 69.83C1091.68 70.73 1090.56 71.18 1089.22 71.18ZM1086.95 68.804C1087.54 69.428 1088.29 69.74 1089.22 69.74C1090.14 69.74 1090.89 69.428 1091.47 68.804C1092.04 68.18 1092.33 67.412 1092.33 66.5C1092.33 65.588 1092.04 64.82 1091.47 64.196C1090.89 63.572 1090.14 63.26 1089.22 63.26C1088.29 63.26 1087.54 63.572 1086.95 64.196C1086.37 64.82 1086.09 65.588 1086.09 66.5C1086.09 67.412 1086.37 68.18 1086.95 68.804ZM1103.67 71.09C1102.84 71.09 1102.18 70.856 1101.67 70.388C1101.17 69.92 1100.92 69.236 1100.92 68.336V63.422H1099.01V62H1100.92V59.498H1102.47V62H1105.06V63.422H1102.47V68.138C1102.47 68.702 1102.59 69.098 1102.83 69.326C1103.07 69.554 1103.44 69.668 1103.96 69.668C1104.42 69.668 1104.78 69.608 1105.06 69.488V70.874C1104.63 71.018 1104.16 71.09 1103.67 71.09ZM1110.91 71.18C1109.55 71.18 1108.43 70.73 1107.53 69.83C1106.64 68.918 1106.19 67.808 1106.19 66.5C1106.19 65.192 1106.64 64.088 1107.53 63.188C1108.43 62.276 1109.55 61.82 1110.91 61.82C1112.25 61.82 1113.37 62.276 1114.26 63.188C1115.16 64.088 1115.61 65.192 1115.61 66.5C1115.61 67.808 1115.16 68.918 1114.26 69.83C1113.37 70.73 1112.25 71.18 1110.91 71.18ZM1108.64 68.804C1109.23 69.428 1109.99 69.74 1110.91 69.74C1111.83 69.74 1112.58 69.428 1113.16 68.804C1113.74 68.18 1114.02 67.412 1114.02 66.5C1114.02 65.588 1113.74 64.82 1113.16 64.196C1112.58 63.572 1111.83 63.26 1110.91 63.26C1109.99 63.26 1109.23 63.572 1108.64 64.196C1108.07 64.82 1107.78 65.588 1107.78 66.5C1107.78 67.412 1108.07 68.18 1108.64 68.804ZM1125.84 71.216C1124.82 71.216 1123.9 71 1123.09 70.568C1122.28 70.136 1121.71 69.584 1121.36 68.912L1122.71 67.904C1123.47 69.068 1124.52 69.65 1125.88 69.65C1126.56 69.65 1127.13 69.482 1127.57 69.146C1128.01 68.798 1128.24 68.33 1128.24 67.742C1128.24 66.758 1127.62 66.038 1126.4 65.582L1124.71 64.934C1123.7 64.562 1122.96 64.1 1122.49 63.548C1122.04 62.984 1121.81 62.27 1121.81 61.406C1121.81 60.374 1122.18 59.552 1122.93 58.94C1123.68 58.316 1124.64 58.004 1125.81 58.004C1126.59 58.004 1127.3 58.166 1127.95 58.49C1128.6 58.802 1129.12 59.222 1129.53 59.75L1128.31 60.83C1127.6 59.99 1126.75 59.57 1125.77 59.57C1125.12 59.57 1124.58 59.738 1124.13 60.074C1123.69 60.398 1123.47 60.818 1123.47 61.334C1123.47 61.85 1123.62 62.258 1123.92 62.558C1124.22 62.858 1124.71 63.134 1125.39 63.386L1126.94 63.98C1127.92 64.352 1128.66 64.832 1129.15 65.42C1129.66 66.008 1129.91 66.758 1129.91 67.67C1129.91 68.738 1129.53 69.596 1128.76 70.244C1128 70.892 1127.03 71.216 1125.84 71.216ZM1136.1 71.18C1134.72 71.18 1133.6 70.736 1132.73 69.848C1131.87 68.96 1131.44 67.844 1131.44 66.5C1131.44 65.168 1131.87 64.058 1132.75 63.17C1133.63 62.27 1134.75 61.82 1136.12 61.82C1137.33 61.82 1138.34 62.228 1139.16 63.044C1139.99 63.848 1140.4 64.946 1140.4 66.338C1140.4 66.518 1140.39 66.674 1140.38 66.806H1133C1133.03 67.646 1133.33 68.348 1133.9 68.912C1134.49 69.476 1135.23 69.758 1136.12 69.758C1137.38 69.758 1138.31 69.236 1138.92 68.192L1140.15 69.038C1139.27 70.466 1137.92 71.18 1136.1 71.18ZM1133.11 65.546H1138.82C1138.7 64.826 1138.38 64.256 1137.86 63.836C1137.36 63.404 1136.76 63.188 1136.06 63.188C1135.35 63.188 1134.72 63.404 1134.15 63.836C1133.6 64.256 1133.25 64.826 1133.11 65.546ZM1152.55 71.09C1151.73 71.09 1151.06 70.856 1150.56 70.388C1150.05 69.92 1149.8 69.236 1149.8 68.336V63.422H1148.11V62H1149.8V59.498H1151.35V62H1153.96V63.422H1151.35V68.138C1151.35 68.702 1151.47 69.098 1151.71 69.326C1151.95 69.554 1152.33 69.668 1152.84 69.668C1153.31 69.668 1153.68 69.608 1153.96 69.488V70.874C1153.49 71.018 1153.02 71.09 1152.55 71.09ZM1145.97 71.09C1145.14 71.09 1144.47 70.856 1143.97 70.388C1143.46 69.92 1143.21 69.236 1143.21 68.336V63.422H1141.3V62H1143.21V59.498H1144.76V62H1147.1V63.422H1144.76V68.138C1144.76 68.702 1144.88 69.098 1145.12 69.326C1145.36 69.554 1145.74 69.668 1146.25 69.668C1146.71 69.668 1147.08 69.608 1147.35 69.488V70.874C1146.92 71.018 1146.46 71.09 1145.97 71.09ZM1157.5 59.282C1157.3 59.486 1157.04 59.588 1156.73 59.588C1156.42 59.588 1156.15 59.486 1155.94 59.282C1155.72 59.066 1155.61 58.802 1155.61 58.49C1155.61 58.19 1155.72 57.932 1155.94 57.716C1156.15 57.5 1156.42 57.392 1156.73 57.392C1157.04 57.392 1157.3 57.5 1157.5 57.716C1157.71 57.932 1157.81 58.19 1157.81 58.49C1157.81 58.802 1157.71 59.066 1157.5 59.282ZM1155.94 71V62H1157.49V71H1155.94ZM1160.42 71V62H1161.97V63.386C1162.58 62.342 1163.53 61.82 1164.83 61.82C1165.85 61.82 1166.67 62.15 1167.3 62.81C1167.92 63.47 1168.23 64.352 1168.23 65.456V71H1166.7V65.69C1166.7 64.934 1166.51 64.34 1166.13 63.908C1165.74 63.464 1165.23 63.242 1164.58 63.242C1163.83 63.242 1163.21 63.536 1162.71 64.124C1162.21 64.712 1161.97 65.516 1161.97 66.536V71H1160.42ZM1172.75 68.66C1173.31 69.248 1174.04 69.542 1174.94 69.542C1175.84 69.542 1176.58 69.248 1177.14 68.66C1177.7 68.06 1177.99 67.304 1177.99 66.392C1177.99 65.48 1177.7 64.73 1177.12 64.142C1176.56 63.542 1175.83 63.242 1174.94 63.242C1174.06 63.242 1173.32 63.542 1172.75 64.142C1172.18 64.73 1171.9 65.48 1171.9 66.392C1171.9 67.304 1172.18 68.06 1172.75 68.66ZM1174.85 74.942C1173.93 74.942 1173.1 74.768 1172.35 74.42C1171.61 74.084 1171.03 73.646 1170.62 73.106L1171.7 72.026C1172.5 73.034 1173.55 73.538 1174.85 73.538C1175.69 73.538 1176.4 73.274 1176.98 72.746C1177.57 72.218 1177.86 71.444 1177.86 70.424V69.398C1177.54 69.878 1177.1 70.262 1176.55 70.55C1175.99 70.838 1175.39 70.982 1174.73 70.982C1173.47 70.982 1172.42 70.544 1171.58 69.668C1170.74 68.78 1170.32 67.688 1170.32 66.392C1170.32 65.108 1170.74 64.028 1171.58 63.152C1172.43 62.264 1173.48 61.82 1174.73 61.82C1175.39 61.82 1175.99 61.964 1176.55 62.252C1177.1 62.54 1177.54 62.918 1177.86 63.386V62H1179.41V70.478C1179.41 71.93 1178.98 73.034 1178.13 73.79C1177.29 74.558 1176.2 74.942 1174.85 74.942ZM1185.04 71.18C1184.21 71.18 1183.49 71.006 1182.86 70.658C1182.24 70.298 1181.79 69.776 1181.51 69.092L1182.77 68.39C1182.94 68.834 1183.24 69.182 1183.66 69.434C1184.08 69.686 1184.54 69.812 1185.06 69.812C1185.5 69.812 1185.88 69.704 1186.18 69.488C1186.48 69.272 1186.63 68.978 1186.63 68.606C1186.63 68.282 1186.51 68.012 1186.27 67.796C1186.04 67.58 1185.64 67.382 1185.06 67.202L1184.16 66.914C1182.66 66.482 1181.91 65.606 1181.91 64.286C1181.91 63.542 1182.2 62.948 1182.79 62.504C1183.39 62.048 1184.13 61.82 1185.01 61.82C1186.37 61.82 1187.36 62.342 1187.98 63.386L1186.82 64.178C1186.33 63.494 1185.71 63.152 1184.95 63.152C1184.54 63.152 1184.19 63.254 1183.89 63.458C1183.6 63.65 1183.46 63.908 1183.46 64.232C1183.46 64.532 1183.55 64.79 1183.73 65.006C1183.92 65.21 1184.26 65.384 1184.74 65.528L1185.73 65.834C1187.36 66.338 1188.17 67.22 1188.17 68.48C1188.17 69.32 1187.88 69.98 1187.29 70.46C1186.72 70.94 1185.97 71.18 1185.04 71.18Z" fill="white"/>
<rect x="1030.5" y="37.5" width="198" height="54" rx="11.5" stroke="white"/>
<defs>
<clipPath id="clip0_11038_151309">
<rect width="619" height="128" fill="white"/>
</clipPath>
<clipPath id="clip1_11038_151309">
<rect width="618.656" height="182.359" fill="white" transform="translate(0.496094 -0.359375)"/>
</clipPath>
<clipPath id="clip2_11038_151309">
<rect width="232" height="128" fill="white" transform="translate(1059)"/>
</clipPath>
</defs>
</svg>
