<svg width="1291" height="128" viewBox="0 0 1291 128" fill="none" xmlns="http://www.w3.org/2000/svg">
<rect width="1291" height="128" fill="#1E1E1E"/>
<g clipPath="url(#clip0_600_857)">
<rect width="1440" height="960" transform="translate(-73 -160)" fill="white"/>
<rect x="-73" y="-160" width="1440" height="900" fill="#FBFCFC"/>
<rect x="5" width="1284" height="128" rx="20" fill="url(#paint0_linear_600_857)"/>
<g opacity="0.5" clipPath="url(#clip1_600_857)">
<g clipPath="url(#clip2_600_857)">
<mask id="mask0_600_857" style="mask-type:alpha" maskUnits="userSpaceOnUse" x="0" y="-1" width="620" height="183">
<rect x="0.496094" y="-0.359375" width="618.656" height="182.359" rx="9.957" fill="#4A3AFF"/>
</mask>
<g mask="url(#mask0_600_857)">
<path opacity="0.1" d="M183.637 91.8896L93.5264 182L93.5264 91.8896L183.637 91.8896Z" fill="white"/>
<rect opacity="0.2" x="93.5" y="-1.04053" width="92.9304" height="92.9316" transform="rotate(90 93.5 -1.04053)" fill="white"/>
</g>
</g>
</g>
<path d="M63.782 51L72.486 27.2H77.382L86.086 51H81.462L79.558 45.492H70.276L68.338 51H63.782ZM71.466 42.092H78.368L74.9 32.198L71.466 42.092ZM96.515 51.408C94.7923 51.408 93.2736 51.034 91.959 50.286C90.6443 49.538 89.6016 48.4953 88.831 47.158C88.083 45.8207 87.709 44.2907 87.709 42.568C87.709 40.8453 88.083 39.3153 88.831 37.978C89.6016 36.6407 90.6443 35.598 91.959 34.85C93.2736 34.102 94.7923 33.728 96.515 33.728C98.6683 33.728 100.482 34.2947 101.955 35.428C103.428 36.5387 104.369 38.08 104.777 40.052H100.187C99.9603 39.236 99.507 38.6013 98.827 38.148C98.1696 37.672 97.3876 37.434 96.481 37.434C95.2796 37.434 94.2596 37.8873 93.421 38.794C92.5823 39.7007 92.163 40.9587 92.163 42.568C92.163 44.1773 92.5823 45.4353 93.421 46.342C94.2596 47.2487 95.2796 47.702 96.481 47.702C97.3876 47.702 98.1696 47.4753 98.827 47.022C99.507 46.5687 99.9603 45.9227 100.187 45.084H104.777C104.369 46.988 103.428 48.518 101.955 49.674C100.482 50.83 98.6683 51.408 96.515 51.408ZM116.902 51.408C115.179 51.408 113.66 51.034 112.346 50.286C111.031 49.538 109.988 48.4953 109.218 47.158C108.47 45.8207 108.096 44.2907 108.096 42.568C108.096 40.8453 108.47 39.3153 109.218 37.978C109.988 36.6407 111.031 35.598 112.346 34.85C113.66 34.102 115.179 33.728 116.902 33.728C119.055 33.728 120.868 34.2947 122.342 35.428C123.815 36.5387 124.756 38.08 125.164 40.052H120.574C120.347 39.236 119.894 38.6013 119.214 38.148C118.556 37.672 117.774 37.434 116.868 37.434C115.666 37.434 114.646 37.8873 113.808 38.794C112.969 39.7007 112.55 40.9587 112.55 42.568C112.55 44.1773 112.969 45.4353 113.808 46.342C114.646 47.2487 115.666 47.702 116.868 47.702C117.774 47.702 118.556 47.4753 119.214 47.022C119.894 46.5687 120.347 45.9227 120.574 45.084H125.164C124.756 46.988 123.815 48.518 122.342 49.674C120.868 50.83 119.055 51.408 116.902 51.408ZM137.118 51.408C135.486 51.408 134.013 51.034 132.698 50.286C131.406 49.538 130.375 48.5067 129.604 47.192C128.856 45.8547 128.482 44.3133 128.482 42.568C128.482 40.8227 128.868 39.2927 129.638 37.978C130.409 36.6407 131.44 35.598 132.732 34.85C134.047 34.102 135.52 33.728 137.152 33.728C138.762 33.728 140.212 34.102 141.504 34.85C142.819 35.598 143.85 36.6407 144.598 37.978C145.369 39.2927 145.754 40.8227 145.754 42.568C145.754 44.3133 145.369 45.8547 144.598 47.192C143.85 48.5067 142.819 49.538 141.504 50.286C140.19 51.034 138.728 51.408 137.118 51.408ZM137.118 47.634C138.252 47.634 139.238 47.2147 140.076 46.376C140.915 45.5147 141.334 44.2453 141.334 42.568C141.334 40.8907 140.915 39.6327 140.076 38.794C139.238 37.9327 138.263 37.502 137.152 37.502C135.996 37.502 134.999 37.9327 134.16 38.794C133.344 39.6327 132.936 40.8907 132.936 42.568C132.936 44.2453 133.344 45.5147 134.16 46.376C134.999 47.2147 135.985 47.634 137.118 47.634ZM155.97 51.408C153.862 51.408 152.23 50.7507 151.074 49.436C149.94 48.1213 149.374 46.1947 149.374 43.656V34.136H153.692V43.248C153.692 44.6987 153.986 45.8093 154.576 46.58C155.165 47.3507 156.094 47.736 157.364 47.736C158.565 47.736 159.551 47.3053 160.322 46.444C161.115 45.5827 161.512 44.3813 161.512 42.84V34.136H165.864V51H162.022L161.682 48.144C161.16 49.1413 160.401 49.9347 159.404 50.524C158.429 51.1133 157.284 51.408 155.97 51.408ZM170.331 51V34.136H174.173L174.513 36.992C175.034 35.9947 175.782 35.2013 176.757 34.612C177.754 34.0227 178.922 33.728 180.259 33.728C182.344 33.728 183.965 34.3853 185.121 35.7C186.277 37.0147 186.855 38.9413 186.855 41.48V51H182.503V41.888C182.503 40.4373 182.208 39.3267 181.619 38.556C181.03 37.7853 180.112 37.4 178.865 37.4C177.641 37.4 176.632 37.8307 175.839 38.692C175.068 39.5533 174.683 40.7547 174.683 42.296V51H170.331ZM198.531 51C196.763 51 195.346 50.5693 194.281 49.708C193.215 48.8467 192.683 47.3167 192.683 45.118V37.774H189.793V34.136H192.683L193.193 29.614H197.035V34.136H201.591V37.774H197.035V45.152C197.035 45.968 197.205 46.5347 197.545 46.852C197.907 47.1467 198.519 47.294 199.381 47.294H201.489V51H198.531ZM222.711 51.408C220.965 51.408 219.39 51.068 217.985 50.388C216.579 49.6853 215.457 48.6313 214.619 47.226C213.803 45.8207 213.395 44.0413 213.395 41.888V27.2H217.747V41.922C217.747 43.7807 218.189 45.1633 219.073 46.07C219.979 46.9767 221.226 47.43 222.813 47.43C224.377 47.43 225.612 46.9767 226.519 46.07C227.425 45.1633 227.879 43.7807 227.879 41.922V27.2H232.231V41.888C232.231 44.0413 231.8 45.8207 230.939 47.226C230.077 48.6313 228.921 49.6853 227.471 50.388C226.043 51.068 224.456 51.408 222.711 51.408ZM236.571 51V34.136H240.413L240.753 36.992C241.275 35.9947 242.023 35.2013 242.997 34.612C243.995 34.0227 245.162 33.728 246.499 33.728C248.585 33.728 250.205 34.3853 251.361 35.7C252.517 37.0147 253.095 38.9413 253.095 41.48V51H248.743V41.888C248.743 40.4373 248.449 39.3267 247.859 38.556C247.27 37.7853 246.352 37.4 245.105 37.4C243.881 37.4 242.873 37.8307 242.079 38.692C241.309 39.5533 240.923 40.7547 240.923 42.296V51H236.571ZM265.009 51.408C263.422 51.408 262.006 51.0227 260.759 50.252C259.512 49.4813 258.526 48.4273 257.801 47.09C257.076 45.7527 256.713 44.234 256.713 42.534C256.713 40.834 257.076 39.3267 257.801 38.012C258.526 36.6747 259.512 35.632 260.759 34.884C262.006 34.1133 263.422 33.728 265.009 33.728C266.278 33.728 267.389 33.966 268.341 34.442C269.293 34.918 270.064 35.5867 270.653 36.448V26.52H275.005V51H271.129L270.653 48.586C270.109 49.334 269.384 49.9913 268.477 50.558C267.593 51.1247 266.437 51.408 265.009 51.408ZM265.927 47.6C267.332 47.6 268.477 47.1353 269.361 46.206C270.268 45.254 270.721 44.0413 270.721 42.568C270.721 41.0947 270.268 39.8933 269.361 38.964C268.477 38.012 267.332 37.536 265.927 37.536C264.544 37.536 263.4 38.0007 262.493 38.93C261.586 39.8593 261.133 41.0607 261.133 42.534C261.133 44.0073 261.586 45.22 262.493 46.172C263.4 47.124 264.544 47.6 265.927 47.6ZM287.631 51.408C285.931 51.408 284.423 51.0453 283.109 50.32C281.794 49.5947 280.763 48.5747 280.015 47.26C279.267 45.9453 278.893 44.4267 278.893 42.704C278.893 40.9587 279.255 39.406 279.981 38.046C280.729 36.686 281.749 35.632 283.041 34.884C284.355 34.1133 285.897 33.728 287.665 33.728C289.319 33.728 290.781 34.0907 292.051 34.816C293.32 35.5413 294.306 36.5387 295.009 37.808C295.734 39.0547 296.097 40.4487 296.097 41.99C296.097 42.2393 296.085 42.5 296.063 42.772C296.063 43.044 296.051 43.3273 296.029 43.622H283.211C283.301 44.9367 283.755 45.968 284.571 46.716C285.409 47.464 286.418 47.838 287.597 47.838C288.481 47.838 289.217 47.6453 289.807 47.26C290.419 46.852 290.872 46.3307 291.167 45.696H295.587C295.269 46.7613 294.737 47.736 293.989 48.62C293.263 49.4813 292.357 50.1613 291.269 50.66C290.203 51.1587 288.991 51.408 287.631 51.408ZM287.665 37.264C286.599 37.264 285.659 37.57 284.843 38.182C284.027 38.7713 283.505 39.678 283.279 40.902H291.677C291.609 39.7913 291.201 38.9073 290.453 38.25C289.705 37.5927 288.775 37.264 287.665 37.264ZM299.757 51V34.136H303.633L304.041 37.298C304.653 36.21 305.48 35.3487 306.523 34.714C307.588 34.0567 308.835 33.728 310.263 33.728V38.318H309.039C308.087 38.318 307.237 38.4653 306.489 38.76C305.741 39.0547 305.152 39.5647 304.721 40.29C304.313 41.0153 304.109 42.024 304.109 43.316V51H299.757ZM321.441 51V27.2H330.179C332.083 27.2 333.647 27.5287 334.871 28.186C336.118 28.8207 337.047 29.6933 337.659 30.804C338.271 31.892 338.577 33.1047 338.577 34.442C338.577 35.8927 338.192 37.2187 337.421 38.42C336.673 39.6213 335.494 40.494 333.885 41.038L338.815 51H333.817L329.397 41.616H325.793V51H321.441ZM325.793 38.42H329.907C331.358 38.42 332.423 38.0687 333.103 37.366C333.783 36.6633 334.123 35.734 334.123 34.578C334.123 33.4447 333.783 32.538 333.103 31.858C332.446 31.178 331.369 30.838 329.873 30.838H325.793V38.42ZM349.687 51.408C347.987 51.408 346.48 51.0453 345.165 50.32C343.851 49.5947 342.819 48.5747 342.071 47.26C341.323 45.9453 340.949 44.4267 340.949 42.704C340.949 40.9587 341.312 39.406 342.037 38.046C342.785 36.686 343.805 35.632 345.097 34.884C346.412 34.1133 347.953 33.728 349.721 33.728C351.376 33.728 352.838 34.0907 354.107 34.816C355.377 35.5413 356.363 36.5387 357.065 37.808C357.791 39.0547 358.153 40.4487 358.153 41.99C358.153 42.2393 358.142 42.5 358.119 42.772C358.119 43.044 358.108 43.3273 358.085 43.622H345.267C345.358 44.9367 345.811 45.968 346.627 46.716C347.466 47.464 348.475 47.838 349.653 47.838C350.537 47.838 351.274 47.6453 351.863 47.26C352.475 46.852 352.929 46.3307 353.223 45.696H357.643C357.326 46.7613 356.793 47.736 356.045 48.62C355.32 49.4813 354.413 50.1613 353.325 50.66C352.26 51.1587 351.047 51.408 349.687 51.408ZM349.721 37.264C348.656 37.264 347.715 37.57 346.899 38.182C346.083 38.7713 345.562 39.678 345.335 40.902H353.733C353.665 39.7913 353.257 38.9073 352.509 38.25C351.761 37.5927 350.832 37.264 349.721 37.264ZM365.705 51L359.517 34.136H364.073L368.357 46.886L372.641 34.136H377.197L370.975 51H365.705ZM382.288 31.518C381.495 31.518 380.838 31.28 380.316 30.804C379.818 30.328 379.568 29.7273 379.568 29.002C379.568 28.2767 379.818 27.6873 380.316 27.234C380.838 26.758 381.495 26.52 382.288 26.52C383.082 26.52 383.728 26.758 384.226 27.234C384.748 27.6873 385.008 28.2767 385.008 29.002C385.008 29.7273 384.748 30.328 384.226 30.804C383.728 31.28 383.082 31.518 382.288 31.518ZM380.112 51V34.136H384.464V51H380.112ZM397.201 51.408C395.501 51.408 393.994 51.0453 392.679 50.32C391.364 49.5947 390.333 48.5747 389.585 47.26C388.837 45.9453 388.463 44.4267 388.463 42.704C388.463 40.9587 388.826 39.406 389.551 38.046C390.299 36.686 391.319 35.632 392.611 34.884C393.926 34.1133 395.467 33.728 397.235 33.728C398.89 33.728 400.352 34.0907 401.621 34.816C402.89 35.5413 403.876 36.5387 404.579 37.808C405.304 39.0547 405.667 40.4487 405.667 41.99C405.667 42.2393 405.656 42.5 405.633 42.772C405.633 43.044 405.622 43.3273 405.599 43.622H392.781C392.872 44.9367 393.325 45.968 394.141 46.716C394.98 47.464 395.988 47.838 397.167 47.838C398.051 47.838 398.788 47.6453 399.377 47.26C399.989 46.852 400.442 46.3307 400.737 45.696H405.157C404.84 46.7613 404.307 47.736 403.559 48.62C402.834 49.4813 401.927 50.1613 400.839 50.66C399.774 51.1587 398.561 51.408 397.201 51.408ZM397.235 37.264C396.17 37.264 395.229 37.57 394.413 38.182C393.597 38.7713 393.076 39.678 392.849 40.902H401.247C401.179 39.7913 400.771 38.9073 400.023 38.25C399.275 37.5927 398.346 37.264 397.235 37.264ZM411.961 51L407.031 34.136H411.349L414.273 46.274L417.673 34.136H422.501L425.901 46.274L428.859 34.136H433.177L428.213 51H423.691L420.087 38.386L416.483 51H411.961Z" fill="white"/>
<path d="M67.656 88V83.184L63.24 76.64H65.016L68.392 81.696L71.784 76.64H73.56L69.128 83.2V88H67.656ZM76.8011 88.16C75.5958 88.16 74.5931 87.76 73.7931 86.96C73.0038 86.1493 72.6091 85.1627 72.6091 84C72.6091 82.8373 73.0038 81.856 73.7931 81.056C74.5931 80.2453 75.5958 79.84 76.8011 79.84C77.9958 79.84 78.9878 80.2453 79.7771 81.056C80.5771 81.856 80.9771 82.8373 80.9771 84C80.9771 85.1627 80.5771 86.1493 79.7771 86.96C78.9878 87.76 77.9958 88.16 76.8011 88.16ZM74.7851 86.048C75.3078 86.6027 75.9798 86.88 76.8011 86.88C77.6225 86.88 78.2891 86.6027 78.8011 86.048C79.3131 85.4933 79.5691 84.8107 79.5691 84C79.5691 83.1893 79.3131 82.5067 78.8011 81.952C78.2891 81.3973 77.6225 81.12 76.8011 81.12C75.9798 81.12 75.3078 81.3973 74.7851 81.952C74.2731 82.5067 74.0171 83.1893 74.0171 84C74.0171 84.8107 74.2731 85.4933 74.7851 86.048ZM85.7843 88.16C84.9096 88.16 84.2003 87.8667 83.6562 87.28C83.1123 86.6827 82.8403 85.8933 82.8403 84.912V80H84.2163V84.704C84.2163 85.376 84.3763 85.9093 84.6963 86.304C85.0269 86.6987 85.4696 86.896 86.0243 86.896C86.6643 86.896 87.1923 86.6347 87.6083 86.112C88.0349 85.5787 88.2483 84.864 88.2483 83.968V80H89.6243V88H88.2483V86.768C87.7256 87.696 86.9043 88.16 85.7843 88.16ZM92.2179 88V80H93.5939V81.552C93.7432 81.0613 94.0312 80.6667 94.4579 80.368C94.8952 80.0693 95.3539 79.92 95.8339 79.92C96.0685 79.92 96.2765 79.9413 96.4579 79.984V81.408C96.2659 81.3227 96.0152 81.28 95.7059 81.28C95.1512 81.28 94.6605 81.52 94.2339 82C93.8072 82.48 93.5939 83.1573 93.5939 84.032V88H92.2179ZM104.826 88.16C103.717 88.16 102.784 87.7547 102.026 86.944C101.28 86.1333 100.906 85.152 100.906 84C100.906 82.848 101.28 81.8667 102.026 81.056C102.784 80.2453 103.717 79.84 104.826 79.84C105.413 79.84 105.957 79.9733 106.458 80.24C106.97 80.496 107.365 80.8267 107.642 81.232V80H109.018V88H107.642V86.768C107.365 87.1733 106.97 87.5093 106.458 87.776C105.957 88.032 105.413 88.16 104.826 88.16ZM105.034 86.896C105.824 86.896 106.474 86.6187 106.986 86.064C107.498 85.5093 107.754 84.8213 107.754 84C107.754 83.1787 107.498 82.4907 106.986 81.936C106.474 81.3813 105.824 81.104 105.034 81.104C104.234 81.104 103.578 81.3813 103.066 81.936C102.554 82.4907 102.298 83.1787 102.298 84C102.298 84.8213 102.554 85.5093 103.066 86.064C103.578 86.6187 104.234 86.896 105.034 86.896ZM115.177 88.16C113.971 88.16 112.969 87.76 112.169 86.96C111.379 86.16 110.985 85.1733 110.985 84C110.985 82.8267 111.379 81.84 112.169 81.04C112.969 80.24 113.971 79.84 115.177 79.84C115.987 79.84 116.713 80.032 117.353 80.416C118.003 80.8 118.51 81.3227 118.873 81.984L117.673 82.656C117.438 82.1867 117.102 81.8133 116.665 81.536C116.238 81.2587 115.742 81.12 115.177 81.12C114.355 81.12 113.683 81.3973 113.161 81.952C112.638 82.5067 112.377 83.1893 112.377 84C112.377 84.8107 112.638 85.4933 113.161 86.048C113.683 86.6027 114.355 86.88 115.177 86.88C115.742 86.88 116.238 86.7413 116.665 86.464C117.102 86.1867 117.438 85.8133 117.673 85.344L118.873 86.016C118.51 86.6773 118.003 87.2 117.353 87.584C116.713 87.968 115.987 88.16 115.177 88.16ZM124.223 88.16C123.018 88.16 122.015 87.76 121.215 86.96C120.426 86.16 120.031 85.1733 120.031 84C120.031 82.8267 120.426 81.84 121.215 81.04C122.015 80.24 123.018 79.84 124.223 79.84C125.034 79.84 125.759 80.032 126.399 80.416C127.05 80.8 127.557 81.3227 127.919 81.984L126.719 82.656C126.485 82.1867 126.149 81.8133 125.711 81.536C125.285 81.2587 124.789 81.12 124.223 81.12C123.402 81.12 122.73 81.3973 122.207 81.952C121.685 82.5067 121.423 83.1893 121.423 84C121.423 84.8107 121.685 85.4933 122.207 86.048C122.73 86.6027 123.402 86.88 124.223 86.88C124.789 86.88 125.285 86.7413 125.711 86.464C126.149 86.1867 126.485 85.8133 126.719 85.344L127.919 86.016C127.557 86.6773 127.05 87.2 126.399 87.584C125.759 87.968 125.034 88.16 124.223 88.16ZM133.254 88.16C132.049 88.16 131.046 87.76 130.246 86.96C129.457 86.1493 129.062 85.1627 129.062 84C129.062 82.8373 129.457 81.856 130.246 81.056C131.046 80.2453 132.049 79.84 133.254 79.84C134.449 79.84 135.441 80.2453 136.23 81.056C137.03 81.856 137.43 82.8373 137.43 84C137.43 85.1627 137.03 86.1493 136.23 86.96C135.441 87.76 134.449 88.16 133.254 88.16ZM131.238 86.048C131.761 86.6027 132.433 86.88 133.254 86.88C134.076 86.88 134.742 86.6027 135.254 86.048C135.766 85.4933 136.022 84.8107 136.022 84C136.022 83.1893 135.766 82.5067 135.254 81.952C134.742 81.3973 134.076 81.12 133.254 81.12C132.433 81.12 131.761 81.3973 131.238 81.952C130.726 82.5067 130.47 83.1893 130.47 84C130.47 84.8107 130.726 85.4933 131.238 86.048ZM142.237 88.16C141.363 88.16 140.653 87.8667 140.109 87.28C139.565 86.6827 139.293 85.8933 139.293 84.912V80H140.669V84.704C140.669 85.376 140.829 85.9093 141.149 86.304C141.48 86.6987 141.923 86.896 142.477 86.896C143.117 86.896 143.645 86.6347 144.061 86.112C144.488 85.5787 144.701 84.864 144.701 83.968V80H146.077V88H144.701V86.768C144.179 87.696 143.357 88.16 142.237 88.16ZM148.671 88V80H150.047V81.232C150.591 80.304 151.439 79.84 152.591 79.84C153.498 79.84 154.228 80.1333 154.783 80.72C155.338 81.3067 155.615 82.0907 155.615 83.072V88H154.255V83.28C154.255 82.608 154.084 82.08 153.743 81.696C153.402 81.3013 152.943 81.104 152.367 81.104C151.706 81.104 151.151 81.3653 150.703 81.888C150.266 82.4107 150.047 83.1253 150.047 84.032V88H148.671ZM161.103 88.08C160.367 88.08 159.775 87.872 159.327 87.456C158.879 87.04 158.655 86.432 158.655 85.632V81.264H156.959V80H158.655V77.776H160.031V80H162.335V81.264H160.031V85.456C160.031 85.9573 160.138 86.3093 160.351 86.512C160.564 86.7147 160.9 86.816 161.359 86.816C161.764 86.816 162.09 86.7627 162.335 86.656V87.888C161.951 88.016 161.54 88.08 161.103 88.08ZM169.344 77.584C169.163 77.7653 168.934 77.856 168.656 77.856C168.379 77.856 168.144 77.7653 167.952 77.584C167.76 77.392 167.664 77.1573 167.664 76.88C167.664 76.6133 167.76 76.384 167.952 76.192C168.144 76 168.379 75.904 168.656 75.904C168.934 75.904 169.163 76 169.344 76.192C169.526 76.384 169.616 76.6133 169.616 76.88C169.616 77.1573 169.526 77.392 169.344 77.584ZM167.952 88V80H169.328V88H167.952ZM174.353 88.16C173.617 88.16 172.971 88.0053 172.417 87.696C171.862 87.376 171.462 86.912 171.217 86.304L172.337 85.68C172.486 86.0747 172.747 86.384 173.121 86.608C173.494 86.832 173.91 86.944 174.369 86.944C174.763 86.944 175.094 86.848 175.361 86.656C175.627 86.464 175.761 86.2027 175.761 85.872C175.761 85.584 175.654 85.344 175.441 85.152C175.238 84.96 174.881 84.784 174.369 84.624L173.569 84.368C172.235 83.984 171.569 83.2053 171.569 82.032C171.569 81.3707 171.83 80.8427 172.353 80.448C172.886 80.0427 173.542 79.84 174.321 79.84C175.537 79.84 176.417 80.304 176.961 81.232L175.937 81.936C175.499 81.328 174.945 81.024 174.273 81.024C173.91 81.024 173.595 81.1147 173.329 81.296C173.073 81.4667 172.945 81.696 172.945 81.984C172.945 82.2507 173.025 82.48 173.185 82.672C173.355 82.8533 173.654 83.008 174.081 83.136L174.961 83.408C176.411 83.856 177.137 84.64 177.137 85.76C177.137 86.5067 176.875 87.0933 176.353 87.52C175.841 87.9467 175.174 88.16 174.353 88.16ZM186.567 88.16C185.362 88.16 184.359 87.76 183.559 86.96C182.77 86.16 182.375 85.1733 182.375 84C182.375 82.8267 182.77 81.84 183.559 81.04C184.359 80.24 185.362 79.84 186.567 79.84C187.378 79.84 188.103 80.032 188.743 80.416C189.394 80.8 189.9 81.3227 190.263 81.984L189.063 82.656C188.828 82.1867 188.492 81.8133 188.055 81.536C187.628 81.2587 187.132 81.12 186.567 81.12C185.746 81.12 185.074 81.3973 184.551 81.952C184.028 82.5067 183.767 83.1893 183.767 84C183.767 84.8107 184.028 85.4933 184.551 86.048C185.074 86.6027 185.746 86.88 186.567 86.88C187.132 86.88 187.628 86.7413 188.055 86.464C188.492 86.1867 188.828 85.8133 189.063 85.344L190.263 86.016C189.9 86.6773 189.394 87.2 188.743 87.584C188.103 87.968 187.378 88.16 186.567 88.16ZM194.878 88.16C194.003 88.16 193.294 87.8667 192.75 87.28C192.206 86.6827 191.934 85.8933 191.934 84.912V80H193.31V84.704C193.31 85.376 193.47 85.9093 193.79 86.304C194.121 86.6987 194.563 86.896 195.118 86.896C195.758 86.896 196.286 86.6347 196.702 86.112C197.129 85.5787 197.342 84.864 197.342 83.968V80H198.718V88H197.342V86.768C196.819 87.696 195.998 88.16 194.878 88.16ZM201.312 88V80H202.688V81.552C202.837 81.0613 203.125 80.6667 203.552 80.368C203.989 80.0693 204.448 79.92 204.928 79.92C205.162 79.92 205.37 79.9413 205.552 79.984V81.408C205.36 81.3227 205.109 81.28 204.8 81.28C204.245 81.28 203.754 81.52 203.328 82C202.901 82.48 202.688 83.1573 202.688 84.032V88H201.312ZM207.171 88V80H208.547V81.552C208.696 81.0613 208.984 80.6667 209.411 80.368C209.848 80.0693 210.307 79.92 210.787 79.92C211.022 79.92 211.23 79.9413 211.411 79.984V81.408C211.219 81.3227 210.968 81.28 210.659 81.28C210.104 81.28 209.614 81.52 209.187 82C208.76 82.48 208.547 83.1573 208.547 84.032V88H207.171ZM216.269 88.16C215.042 88.16 214.045 87.7653 213.277 86.976C212.509 86.1867 212.125 85.1947 212.125 84C212.125 82.816 212.514 81.8293 213.293 81.04C214.072 80.24 215.069 79.84 216.285 79.84C217.362 79.84 218.264 80.2027 218.989 80.928C219.725 81.6427 220.093 82.6187 220.093 83.856C220.093 84.016 220.088 84.1547 220.077 84.272H213.517C213.538 85.0187 213.805 85.6427 214.317 86.144C214.84 86.6453 215.496 86.896 216.285 86.896C217.405 86.896 218.237 86.432 218.781 85.504L219.869 86.256C219.09 87.5253 217.89 88.16 216.269 88.16ZM213.613 83.152H218.685C218.578 82.512 218.296 82.0053 217.837 81.632C217.389 81.248 216.856 81.056 216.237 81.056C215.608 81.056 215.042 81.248 214.541 81.632C214.05 82.0053 213.741 82.512 213.613 83.152ZM222.046 88V80H223.422V81.232C223.966 80.304 224.814 79.84 225.966 79.84C226.873 79.84 227.603 80.1333 228.158 80.72C228.713 81.3067 228.99 82.0907 228.99 83.072V88H227.63V83.28C227.63 82.608 227.459 82.08 227.118 81.696C226.777 81.3013 226.318 81.104 225.742 81.104C225.081 81.104 224.526 81.3653 224.078 81.888C223.641 82.4107 223.422 83.1253 223.422 84.032V88H222.046ZM234.478 88.08C233.742 88.08 233.15 87.872 232.702 87.456C232.254 87.04 232.03 86.432 232.03 85.632V81.264H230.334V80H232.03V77.776H233.406V80H235.71V81.264H233.406V85.456C233.406 85.9573 233.513 86.3093 233.726 86.512C233.939 86.7147 234.275 86.816 234.734 86.816C235.139 86.816 235.465 86.7627 235.71 86.656V87.888C235.326 88.016 234.915 88.08 234.478 88.08ZM237.468 88V76H238.844V88H237.468ZM243.58 91.344H242.044L243.788 87.584L240.284 80H241.804L244.556 86.08L247.292 80H248.828L243.58 91.344ZM256.534 88.16C255.66 88.16 254.95 87.8667 254.406 87.28C253.862 86.6827 253.59 85.8933 253.59 84.912V80H254.966V84.704C254.966 85.376 255.126 85.9093 255.446 86.304C255.777 86.6987 256.22 86.896 256.774 86.896C257.414 86.896 257.942 86.6347 258.358 86.112C258.785 85.5787 258.998 84.864 258.998 83.968V80H260.374V88H258.998V86.768C258.476 87.696 257.654 88.16 256.534 88.16ZM262.968 88V80H264.344V81.232C264.888 80.304 265.736 79.84 266.888 79.84C267.795 79.84 268.525 80.1333 269.08 80.72C269.635 81.3067 269.912 82.0907 269.912 83.072V88H268.552V83.28C268.552 82.608 268.381 82.08 268.04 81.696C267.699 81.3013 267.24 81.104 266.664 81.104C266.003 81.104 265.448 81.3653 265 81.888C264.563 82.4107 264.344 83.1253 264.344 84.032V88H262.968ZM275.686 88.16C274.576 88.16 273.643 87.7547 272.886 86.944C272.139 86.1333 271.766 85.152 271.766 84C271.766 82.848 272.139 81.8667 272.886 81.056C273.643 80.2453 274.576 79.84 275.686 79.84C276.272 79.84 276.816 79.9733 277.318 80.24C277.83 80.496 278.224 80.8267 278.502 81.232V76H279.878V88H278.502V86.768C278.224 87.1733 277.83 87.5093 277.318 87.776C276.816 88.032 276.272 88.16 275.686 88.16ZM275.894 86.896C276.683 86.896 277.334 86.6187 277.846 86.064C278.358 85.5093 278.614 84.8213 278.614 84C278.614 83.1787 278.358 82.4907 277.846 81.936C277.334 81.3813 276.683 81.104 275.894 81.104C275.094 81.104 274.438 81.3813 273.926 81.936C273.414 82.4907 273.158 83.1787 273.158 84C273.158 84.8213 273.414 85.5093 273.926 86.064C274.438 86.6187 275.094 86.896 275.894 86.896ZM285.988 88.16C284.761 88.16 283.764 87.7653 282.996 86.976C282.228 86.1867 281.844 85.1947 281.844 84C281.844 82.816 282.233 81.8293 283.012 81.04C283.791 80.24 284.788 79.84 286.004 79.84C287.081 79.84 287.983 80.2027 288.708 80.928C289.444 81.6427 289.812 82.6187 289.812 83.856C289.812 84.016 289.807 84.1547 289.796 84.272H283.236C283.257 85.0187 283.524 85.6427 284.036 86.144C284.559 86.6453 285.215 86.896 286.004 86.896C287.124 86.896 287.956 86.432 288.5 85.504L289.588 86.256C288.809 87.5253 287.609 88.16 285.988 88.16ZM283.332 83.152H288.404C288.297 82.512 288.015 82.0053 287.556 81.632C287.108 81.248 286.575 81.056 285.956 81.056C285.327 81.056 284.761 81.248 284.26 81.632C283.769 82.0053 283.46 82.512 283.332 83.152ZM291.765 88V80H293.141V81.552C293.29 81.0613 293.578 80.6667 294.005 80.368C294.442 80.0693 294.901 79.92 295.381 79.92C295.615 79.92 295.823 79.9413 296.005 79.984V81.408C295.813 81.3227 295.562 81.28 295.253 81.28C294.698 81.28 294.207 81.52 293.781 82C293.354 82.48 293.141 83.1573 293.141 84.032V88H291.765ZM301.077 88V80H302.453V81.552C302.603 81.0613 302.891 80.6667 303.317 80.368C303.755 80.0693 304.213 79.92 304.693 79.92C304.928 79.92 305.136 79.9413 305.317 79.984V81.408C305.125 81.3227 304.875 81.28 304.565 81.28C304.011 81.28 303.52 81.52 303.093 82C302.667 82.48 302.453 83.1573 302.453 84.032V88H301.077ZM310.175 88.16C308.949 88.16 307.951 87.7653 307.183 86.976C306.415 86.1867 306.031 85.1947 306.031 84C306.031 82.816 306.421 81.8293 307.199 81.04C307.978 80.24 308.975 79.84 310.191 79.84C311.269 79.84 312.17 80.2027 312.895 80.928C313.631 81.6427 313.999 82.6187 313.999 83.856C313.999 84.016 313.994 84.1547 313.983 84.272H307.423C307.445 85.0187 307.711 85.6427 308.223 86.144C308.746 86.6453 309.402 86.896 310.191 86.896C311.311 86.896 312.143 86.432 312.687 85.504L313.775 86.256C312.997 87.5253 311.797 88.16 310.175 88.16ZM307.519 83.152H312.591C312.485 82.512 312.202 82.0053 311.743 81.632C311.295 81.248 310.762 81.056 310.143 81.056C309.514 81.056 308.949 81.248 308.447 81.632C307.957 82.0053 307.647 82.512 307.519 83.152ZM318.323 88L314.627 80H316.163L318.899 86.064L321.635 80H323.171L319.475 88H318.323ZM325.954 77.584C325.772 77.7653 325.543 77.856 325.266 77.856C324.988 77.856 324.754 77.7653 324.562 77.584C324.37 77.392 324.274 77.1573 324.274 76.88C324.274 76.6133 324.37 76.384 324.562 76.192C324.754 76 324.988 75.904 325.266 75.904C325.543 75.904 325.772 76 325.954 76.192C326.135 76.384 326.226 76.6133 326.226 76.88C326.226 77.1573 326.135 77.392 325.954 77.584ZM324.562 88V80H325.938V88H324.562ZM332.066 88.16C330.839 88.16 329.842 87.7653 329.074 86.976C328.306 86.1867 327.922 85.1947 327.922 84C327.922 82.816 328.311 81.8293 329.09 81.04C329.869 80.24 330.866 79.84 332.082 79.84C333.159 79.84 334.061 80.2027 334.786 80.928C335.522 81.6427 335.89 82.6187 335.89 83.856C335.89 84.016 335.885 84.1547 335.874 84.272H329.314C329.335 85.0187 329.602 85.6427 330.114 86.144C330.637 86.6453 331.293 86.896 332.082 86.896C333.202 86.896 334.034 86.432 334.578 85.504L335.666 86.256C334.887 87.5253 333.687 88.16 332.066 88.16ZM329.41 83.152H334.482C334.375 82.512 334.093 82.0053 333.634 81.632C333.186 81.248 332.653 81.056 332.034 81.056C331.405 81.056 330.839 81.248 330.338 81.632C329.847 82.0053 329.538 82.512 329.41 83.152ZM344.611 88L342.627 82.256L340.659 88H339.443L336.723 80H338.163L340.099 85.84L342.099 80H343.155L345.155 85.84L347.091 80H348.547L345.827 88H344.611ZM350.973 87.776C350.749 88.0107 350.472 88.128 350.141 88.128C349.81 88.128 349.528 88.0107 349.293 87.776C349.069 87.5413 348.957 87.2587 348.957 86.928C348.957 86.608 349.074 86.3307 349.309 86.096C349.544 85.8507 349.821 85.728 350.141 85.728C350.461 85.728 350.738 85.8507 350.973 86.096C351.208 86.3307 351.325 86.608 351.325 86.928C351.325 87.2587 351.208 87.5413 350.973 87.776ZM357.52 88V76.64H361.392C362.437 76.64 363.264 76.928 363.872 77.504C364.48 78.0693 364.784 78.8267 364.784 79.776C364.784 80.608 364.533 81.2907 364.032 81.824C363.541 82.3573 362.853 82.688 361.968 82.816L366.352 88H364.48L360.112 82.832H359.008V88H357.52ZM359.008 81.504H361.216C361.877 81.504 362.389 81.36 362.752 81.072C363.114 80.7733 363.296 80.3413 363.296 79.776C363.296 79.2107 363.114 78.7787 362.752 78.48C362.389 78.1707 361.877 78.016 361.216 78.016H359.008V81.504ZM370.754 88.16C369.527 88.16 368.53 87.7653 367.762 86.976C366.994 86.1867 366.61 85.1947 366.61 84C366.61 82.816 366.999 81.8293 367.778 81.04C368.556 80.24 369.554 79.84 370.77 79.84C371.847 79.84 372.748 80.2027 373.474 80.928C374.21 81.6427 374.578 82.6187 374.578 83.856C374.578 84.016 374.572 84.1547 374.562 84.272H368.002C368.023 85.0187 368.29 85.6427 368.802 86.144C369.324 86.6453 369.98 86.896 370.77 86.896C371.89 86.896 372.722 86.432 373.266 85.504L374.354 86.256C373.575 87.5253 372.375 88.16 370.754 88.16ZM368.098 83.152H373.17C373.063 82.512 372.78 82.0053 372.322 81.632C371.874 81.248 371.34 81.056 370.722 81.056C370.092 81.056 369.527 81.248 369.026 81.632C368.535 82.0053 368.226 82.512 368.098 83.152ZM378.946 88.16C378.21 88.16 377.565 88.0053 377.01 87.696C376.456 87.376 376.056 86.912 375.81 86.304L376.93 85.68C377.08 86.0747 377.341 86.384 377.714 86.608C378.088 86.832 378.504 86.944 378.962 86.944C379.357 86.944 379.688 86.848 379.954 86.656C380.221 86.464 380.354 86.2027 380.354 85.872C380.354 85.584 380.248 85.344 380.034 85.152C379.832 84.96 379.474 84.784 378.962 84.624L378.162 84.368C376.829 83.984 376.162 83.2053 376.162 82.032C376.162 81.3707 376.424 80.8427 376.946 80.448C377.48 80.0427 378.136 79.84 378.914 79.84C380.13 79.84 381.01 80.304 381.554 81.232L380.53 81.936C380.093 81.328 379.538 81.024 378.866 81.024C378.504 81.024 378.189 81.1147 377.922 81.296C377.666 81.4667 377.538 81.696 377.538 81.984C377.538 82.2507 377.618 82.48 377.778 82.672C377.949 82.8533 378.248 83.008 378.674 83.136L379.554 83.408C381.005 83.856 381.73 84.64 381.73 85.76C381.73 86.5067 381.469 87.0933 380.946 87.52C380.434 87.9467 379.768 88.16 378.946 88.16ZM386.759 88.08C386.023 88.08 385.431 87.872 384.983 87.456C384.535 87.04 384.311 86.432 384.311 85.632V81.264H382.615V80H384.311V77.776H385.687V80H387.991V81.264H385.687V85.456C385.687 85.9573 385.794 86.3093 386.007 86.512C386.221 86.7147 386.557 86.816 387.015 86.816C387.421 86.816 387.746 86.7627 387.991 86.656V87.888C387.607 88.016 387.197 88.08 386.759 88.08ZM396.905 88.16C395.795 88.16 394.862 87.7547 394.105 86.944C393.358 86.1333 392.985 85.152 392.985 84C392.985 82.848 393.358 81.8667 394.105 81.056C394.862 80.2453 395.795 79.84 396.905 79.84C397.491 79.84 398.035 79.9733 398.537 80.24C399.049 80.496 399.443 80.8267 399.721 81.232V80H401.097V88H399.721V86.768C399.443 87.1733 399.049 87.5093 398.537 87.776C398.035 88.032 397.491 88.16 396.905 88.16ZM397.113 86.896C397.902 86.896 398.553 86.6187 399.065 86.064C399.577 85.5093 399.833 84.8213 399.833 84C399.833 83.1787 399.577 82.4907 399.065 81.936C398.553 81.3813 397.902 81.104 397.113 81.104C396.313 81.104 395.657 81.3813 395.145 81.936C394.633 82.4907 394.377 83.1787 394.377 84C394.377 84.8213 394.633 85.5093 395.145 86.064C395.657 86.6187 396.313 86.896 397.113 86.896ZM406.103 88.16C405.367 88.16 404.721 88.0053 404.167 87.696C403.612 87.376 403.212 86.912 402.967 86.304L404.087 85.68C404.236 86.0747 404.497 86.384 404.871 86.608C405.244 86.832 405.66 86.944 406.119 86.944C406.513 86.944 406.844 86.848 407.111 86.656C407.377 86.464 407.511 86.2027 407.511 85.872C407.511 85.584 407.404 85.344 407.191 85.152C406.988 84.96 406.631 84.784 406.119 84.624L405.319 84.368C403.985 83.984 403.319 83.2053 403.319 82.032C403.319 81.3707 403.58 80.8427 404.103 80.448C404.636 80.0427 405.292 79.84 406.071 79.84C407.287 79.84 408.167 80.304 408.711 81.232L407.687 81.936C407.249 81.328 406.695 81.024 406.023 81.024C405.66 81.024 405.345 81.1147 405.079 81.296C404.823 81.4667 404.695 81.696 404.695 81.984C404.695 82.2507 404.775 82.48 404.935 82.672C405.105 82.8533 405.404 83.008 405.831 83.136L406.711 83.408C408.161 83.856 408.887 84.64 408.887 85.76C408.887 86.5067 408.625 87.0933 408.103 87.52C407.591 87.9467 406.924 88.16 406.103 88.16ZM413.306 88.16C412.57 88.16 411.924 88.0053 411.37 87.696C410.815 87.376 410.415 86.912 410.17 86.304L411.29 85.68C411.439 86.0747 411.7 86.384 412.074 86.608C412.447 86.832 412.863 86.944 413.322 86.944C413.716 86.944 414.047 86.848 414.314 86.656C414.58 86.464 414.714 86.2027 414.714 85.872C414.714 85.584 414.607 85.344 414.394 85.152C414.191 84.96 413.834 84.784 413.322 84.624L412.522 84.368C411.188 83.984 410.522 83.2053 410.522 82.032C410.522 81.3707 410.783 80.8427 411.306 80.448C411.839 80.0427 412.495 79.84 413.274 79.84C414.49 79.84 415.37 80.304 415.914 81.232L414.89 81.936C414.452 81.328 413.898 81.024 413.226 81.024C412.863 81.024 412.548 81.1147 412.282 81.296C412.026 81.4667 411.898 81.696 411.898 81.984C411.898 82.2507 411.978 82.48 412.138 82.672C412.308 82.8533 412.607 83.008 413.034 83.136L413.914 83.408C415.364 83.856 416.09 84.64 416.09 85.76C416.09 86.5067 415.828 87.0933 415.306 87.52C414.794 87.9467 414.127 88.16 413.306 88.16ZM420.925 88.16C420.05 88.16 419.341 87.8667 418.797 87.28C418.253 86.6827 417.981 85.8933 417.981 84.912V80H419.357V84.704C419.357 85.376 419.517 85.9093 419.837 86.304C420.168 86.6987 420.61 86.896 421.165 86.896C421.805 86.896 422.333 86.6347 422.749 86.112C423.176 85.5787 423.389 84.864 423.389 83.968V80H424.765V88H423.389V86.768C422.866 87.696 422.045 88.16 420.925 88.16ZM427.359 88V80H428.735V81.552C428.884 81.0613 429.172 80.6667 429.599 80.368C430.036 80.0693 430.495 79.92 430.975 79.92C431.209 79.92 431.417 79.9413 431.599 79.984V81.408C431.407 81.3227 431.156 81.28 430.847 81.28C430.292 81.28 429.801 81.52 429.375 82C428.948 82.48 428.735 83.1573 428.735 84.032V88H427.359ZM436.457 88.16C435.23 88.16 434.233 87.7653 433.465 86.976C432.697 86.1867 432.313 85.1947 432.313 84C432.313 82.816 432.702 81.8293 433.481 81.04C434.259 80.24 435.257 79.84 436.473 79.84C437.55 79.84 438.451 80.2027 439.177 80.928C439.913 81.6427 440.281 82.6187 440.281 83.856C440.281 84.016 440.275 84.1547 440.265 84.272H433.705C433.726 85.0187 433.993 85.6427 434.505 86.144C435.027 86.6453 435.683 86.896 436.473 86.896C437.593 86.896 438.425 86.432 438.969 85.504L440.057 86.256C439.278 87.5253 438.078 88.16 436.457 88.16ZM433.801 83.152H438.873C438.766 82.512 438.483 82.0053 438.025 81.632C437.577 81.248 437.043 81.056 436.425 81.056C435.795 81.056 435.23 81.248 434.729 81.632C434.238 82.0053 433.929 82.512 433.801 83.152ZM445.53 88.16C444.42 88.16 443.487 87.7547 442.73 86.944C441.983 86.1333 441.61 85.152 441.61 84C441.61 82.848 441.983 81.8667 442.73 81.056C443.487 80.2453 444.42 79.84 445.53 79.84C446.116 79.84 446.66 79.9733 447.162 80.24C447.674 80.496 448.068 80.8267 448.346 81.232V76H449.722V88H448.346V86.768C448.068 87.1733 447.674 87.5093 447.162 87.776C446.66 88.032 446.116 88.16 445.53 88.16ZM445.738 86.896C446.527 86.896 447.178 86.6187 447.69 86.064C448.202 85.5093 448.458 84.8213 448.458 84C448.458 83.1787 448.202 82.4907 447.69 81.936C447.178 81.3813 446.527 81.104 445.738 81.104C444.938 81.104 444.282 81.3813 443.77 81.936C443.258 82.4907 443.002 83.1787 443.002 84C443.002 84.8213 443.258 85.5093 443.77 86.064C444.282 86.6187 444.938 86.896 445.738 86.896ZM454.024 87.648L452.376 90.288H451.464L452.536 88C452.098 87.7867 451.88 87.4293 451.88 86.928C451.88 86.608 451.997 86.3307 452.232 86.096C452.466 85.8507 452.744 85.728 453.064 85.728C453.384 85.728 453.661 85.8507 453.896 86.096C454.13 86.3307 454.248 86.608 454.248 86.928C454.248 87.1627 454.173 87.4027 454.024 87.648ZM461.657 77.584C461.475 77.7653 461.246 77.856 460.969 77.856C460.691 77.856 460.457 77.7653 460.265 77.584C460.073 77.392 459.977 77.1573 459.977 76.88C459.977 76.6133 460.073 76.384 460.265 76.192C460.457 76 460.691 75.904 460.969 75.904C461.246 75.904 461.475 76 461.657 76.192C461.838 76.384 461.929 76.6133 461.929 76.88C461.929 77.1573 461.838 77.392 461.657 77.584ZM460.265 88V80H461.641V88H460.265ZM464.921 88V81.264H463.225V80H464.921V78.384C464.921 77.584 465.145 76.9707 465.593 76.544C466.041 76.1173 466.633 75.904 467.369 75.904C467.806 75.904 468.222 75.9733 468.617 76.112V77.328C468.372 77.2213 468.041 77.168 467.625 77.168C467.166 77.168 466.83 77.2693 466.617 77.472C466.404 77.6747 466.297 78.0267 466.297 78.528V80H468.617V81.264H466.297V88H464.921ZM480.064 88L478.08 82.256L476.112 88H474.896L472.176 80H473.616L475.552 85.84L477.552 80H478.608L480.608 85.84L482.544 80H484L481.28 88H480.064ZM488.972 88.16C487.746 88.16 486.748 87.7653 485.98 86.976C485.212 86.1867 484.828 85.1947 484.828 84C484.828 82.816 485.218 81.8293 485.996 81.04C486.775 80.24 487.772 79.84 488.988 79.84C490.066 79.84 490.967 80.2027 491.692 80.928C492.428 81.6427 492.796 82.6187 492.796 83.856C492.796 84.016 492.791 84.1547 492.78 84.272H486.22C486.242 85.0187 486.508 85.6427 487.02 86.144C487.543 86.6453 488.199 86.896 488.988 86.896C490.108 86.896 490.94 86.432 491.484 85.504L492.572 86.256C491.794 87.5253 490.594 88.16 488.972 88.16ZM486.316 83.152H491.388C491.282 82.512 490.999 82.0053 490.54 81.632C490.092 81.248 489.559 81.056 488.94 81.056C488.311 81.056 487.746 81.248 487.244 81.632C486.754 82.0053 486.444 82.512 486.316 83.152ZM498.609 88V80H499.985V81.552C500.134 81.0613 500.422 80.6667 500.849 80.368C501.286 80.0693 501.745 79.92 502.225 79.92C502.459 79.92 502.667 79.9413 502.849 79.984V81.408C502.657 81.3227 502.406 81.28 502.097 81.28C501.542 81.28 501.051 81.52 500.625 82C500.198 82.48 499.985 83.1573 499.985 84.032V88H498.609ZM507.707 88.16C506.48 88.16 505.483 87.7653 504.715 86.976C503.947 86.1867 503.563 85.1947 503.563 84C503.563 82.816 503.952 81.8293 504.731 81.04C505.509 80.24 506.507 79.84 507.723 79.84C508.8 79.84 509.701 80.2027 510.427 80.928C511.163 81.6427 511.531 82.6187 511.531 83.856C511.531 84.016 511.525 84.1547 511.515 84.272H504.955C504.976 85.0187 505.243 85.6427 505.755 86.144C506.277 86.6453 506.933 86.896 507.723 86.896C508.843 86.896 509.675 86.432 510.219 85.504L511.307 86.256C510.528 87.5253 509.328 88.16 507.707 88.16ZM505.051 83.152H510.123C510.016 82.512 509.733 82.0053 509.275 81.632C508.827 81.248 508.293 81.056 507.675 81.056C507.045 81.056 506.48 81.248 505.979 81.632C505.488 82.0053 505.179 82.512 505.051 83.152ZM520.972 91.344H519.596V86.768C519.318 87.1733 518.924 87.5093 518.412 87.776C517.91 88.032 517.366 88.16 516.78 88.16C515.67 88.16 514.737 87.7547 513.98 86.944C513.233 86.1333 512.86 85.152 512.86 84C512.86 82.848 513.233 81.8667 513.98 81.056C514.737 80.2453 515.67 79.84 516.78 79.84C517.366 79.84 517.91 79.9733 518.412 80.24C518.924 80.496 519.318 80.8267 519.596 81.232V80H520.972V91.344ZM516.988 86.896C517.777 86.896 518.428 86.6187 518.94 86.064C519.452 85.5093 519.708 84.8213 519.708 84C519.708 83.1787 519.452 82.4907 518.94 81.936C518.428 81.3813 517.777 81.104 516.988 81.104C516.188 81.104 515.532 81.3813 515.02 81.936C514.508 82.4907 514.252 83.1787 514.252 84C514.252 84.8213 514.508 85.5093 515.02 86.064C515.532 86.6187 516.188 86.896 516.988 86.896ZM526.394 88.16C525.519 88.16 524.81 87.8667 524.266 87.28C523.722 86.6827 523.45 85.8933 523.45 84.912V80H524.826V84.704C524.826 85.376 524.986 85.9093 525.306 86.304C525.636 86.6987 526.079 86.896 526.634 86.896C527.274 86.896 527.802 86.6347 528.218 86.112C528.644 85.5787 528.858 84.864 528.858 83.968V80H530.234V88H528.858V86.768C528.335 87.696 527.514 88.16 526.394 88.16ZM534.219 77.584C534.038 77.7653 533.809 77.856 533.531 77.856C533.254 77.856 533.019 77.7653 532.827 77.584C532.635 77.392 532.539 77.1573 532.539 76.88C532.539 76.6133 532.635 76.384 532.827 76.192C533.019 76 533.254 75.904 533.531 75.904C533.809 75.904 534.038 76 534.219 76.192C534.401 76.384 534.491 76.6133 534.491 76.88C534.491 77.1573 534.401 77.392 534.219 77.584ZM532.827 88V80H534.203V88H532.827ZM536.812 88V80H538.188V81.552C538.337 81.0613 538.625 80.6667 539.052 80.368C539.489 80.0693 539.948 79.92 540.428 79.92C540.662 79.92 540.87 79.9413 541.052 79.984V81.408C540.86 81.3227 540.609 81.28 540.3 81.28C539.745 81.28 539.254 81.52 538.828 82C538.401 82.48 538.188 83.1573 538.188 84.032V88H536.812ZM545.91 88.16C544.683 88.16 543.686 87.7653 542.918 86.976C542.15 86.1867 541.766 85.1947 541.766 84C541.766 82.816 542.155 81.8293 542.934 81.04C543.712 80.24 544.71 79.84 545.926 79.84C547.003 79.84 547.904 80.2027 548.63 80.928C549.366 81.6427 549.734 82.6187 549.734 83.856C549.734 84.016 549.728 84.1547 549.718 84.272H543.158C543.179 85.0187 543.446 85.6427 543.958 86.144C544.48 86.6453 545.136 86.896 545.926 86.896C547.046 86.896 547.878 86.432 548.422 85.504L549.51 86.256C548.731 87.5253 547.531 88.16 545.91 88.16ZM543.254 83.152H548.326C548.219 82.512 547.936 82.0053 547.478 81.632C547.03 81.248 546.496 81.056 545.878 81.056C545.248 81.056 544.683 81.248 544.182 81.632C543.691 82.0053 543.382 82.512 543.254 83.152ZM558.842 88.16C557.733 88.16 556.799 87.7547 556.042 86.944C555.295 86.1333 554.922 85.152 554.922 84C554.922 82.848 555.295 81.8667 556.042 81.056C556.799 80.2453 557.733 79.84 558.842 79.84C559.429 79.84 559.973 79.9733 560.474 80.24C560.986 80.496 561.381 80.8267 561.658 81.232V80H563.034V88H561.658V86.768C561.381 87.1733 560.986 87.5093 560.474 87.776C559.973 88.032 559.429 88.16 558.842 88.16ZM559.05 86.896C559.839 86.896 560.49 86.6187 561.002 86.064C561.514 85.5093 561.77 84.8213 561.77 84C561.77 83.1787 561.514 82.4907 561.002 81.936C560.49 81.3813 559.839 81.104 559.05 81.104C558.25 81.104 557.594 81.3813 557.082 81.936C556.57 82.4907 556.314 83.1787 556.314 84C556.314 84.8213 556.57 85.5093 557.082 86.064C557.594 86.6187 558.25 86.896 559.05 86.896ZM565.624 88V80H567V81.232C567.544 80.304 568.392 79.84 569.544 79.84C570.451 79.84 571.181 80.1333 571.736 80.72C572.291 81.3067 572.568 82.0907 572.568 83.072V88H571.208V83.28C571.208 82.608 571.037 82.08 570.696 81.696C570.355 81.3013 569.896 81.104 569.32 81.104C568.659 81.104 568.104 81.3653 567.656 81.888C567.219 82.4107 567 83.1253 567 84.032V88H565.624ZM577.018 91.344H575.482L577.226 87.584L573.722 80H575.242L577.994 86.08L580.73 80H582.266L577.018 91.344ZM590.436 88.16C589.326 88.16 588.393 87.7547 587.636 86.944C586.889 86.1333 586.516 85.152 586.516 84C586.516 82.848 586.889 81.8667 587.636 81.056C588.393 80.2453 589.326 79.84 590.436 79.84C591.022 79.84 591.566 79.9733 592.068 80.24C592.58 80.496 592.974 80.8267 593.252 81.232V80H594.628V88H593.252V86.768C592.974 87.1733 592.58 87.5093 592.068 87.776C591.566 88.032 591.022 88.16 590.436 88.16ZM590.644 86.896C591.433 86.896 592.084 86.6187 592.596 86.064C593.108 85.5093 593.364 84.8213 593.364 84C593.364 83.1787 593.108 82.4907 592.596 81.936C592.084 81.3813 591.433 81.104 590.644 81.104C589.844 81.104 589.188 81.3813 588.676 81.936C588.164 82.4907 587.908 83.1787 587.908 84C587.908 84.8213 588.164 85.5093 588.676 86.064C589.188 86.6187 589.844 86.896 590.644 86.896ZM600.514 88.16C599.405 88.16 598.471 87.7547 597.714 86.944C596.967 86.1333 596.594 85.152 596.594 84C596.594 82.848 596.967 81.8667 597.714 81.056C598.471 80.2453 599.405 79.84 600.514 79.84C601.101 79.84 601.645 79.9733 602.146 80.24C602.658 80.496 603.053 80.8267 603.33 81.232V76H604.706V88H603.33V86.768C603.053 87.1733 602.658 87.5093 602.146 87.776C601.645 88.032 601.101 88.16 600.514 88.16ZM600.722 86.896C601.511 86.896 602.162 86.6187 602.674 86.064C603.186 85.5093 603.442 84.8213 603.442 84C603.442 83.1787 603.186 82.4907 602.674 81.936C602.162 81.3813 601.511 81.104 600.722 81.104C599.922 81.104 599.266 81.3813 598.754 81.936C598.242 82.4907 597.986 83.1787 597.986 84C597.986 84.8213 598.242 85.5093 598.754 86.064C599.266 86.6187 599.922 86.896 600.722 86.896ZM610.592 88.16C609.483 88.16 608.549 87.7547 607.792 86.944C607.045 86.1333 606.672 85.152 606.672 84C606.672 82.848 607.045 81.8667 607.792 81.056C608.549 80.2453 609.483 79.84 610.592 79.84C611.179 79.84 611.723 79.9733 612.224 80.24C612.736 80.496 613.131 80.8267 613.408 81.232V76H614.784V88H613.408V86.768C613.131 87.1733 612.736 87.5093 612.224 87.776C611.723 88.032 611.179 88.16 610.592 88.16ZM610.8 86.896C611.589 86.896 612.24 86.6187 612.752 86.064C613.264 85.5093 613.52 84.8213 613.52 84C613.52 83.1787 613.264 82.4907 612.752 81.936C612.24 81.3813 611.589 81.104 610.8 81.104C610 81.104 609.344 81.3813 608.832 81.936C608.32 82.4907 608.064 83.1787 608.064 84C608.064 84.8213 608.32 85.5093 608.832 86.064C609.344 86.6187 610 86.896 610.8 86.896ZM618.766 77.584C618.585 77.7653 618.355 77.856 618.078 77.856C617.801 77.856 617.566 77.7653 617.374 77.584C617.182 77.392 617.086 77.1573 617.086 76.88C617.086 76.6133 617.182 76.384 617.374 76.192C617.566 76 617.801 75.904 618.078 75.904C618.355 75.904 618.585 76 618.766 76.192C618.947 76.384 619.038 76.6133 619.038 76.88C619.038 77.1573 618.947 77.392 618.766 77.584ZM617.374 88V80H618.75V88H617.374ZM624.463 88.08C623.727 88.08 623.135 87.872 622.687 87.456C622.239 87.04 622.015 86.432 622.015 85.632V81.264H620.319V80H622.015V77.776H623.391V80H625.695V81.264H623.391V85.456C623.391 85.9573 623.497 86.3093 623.711 86.512C623.924 86.7147 624.26 86.816 624.719 86.816C625.124 86.816 625.449 86.7627 625.695 86.656V87.888C625.311 88.016 624.9 88.08 624.463 88.08ZM628.844 77.584C628.663 77.7653 628.434 77.856 628.156 77.856C627.879 77.856 627.644 77.7653 627.452 77.584C627.26 77.392 627.164 77.1573 627.164 76.88C627.164 76.6133 627.26 76.384 627.452 76.192C627.644 76 627.879 75.904 628.156 75.904C628.434 75.904 628.663 76 628.844 76.192C629.026 76.384 629.116 76.6133 629.116 76.88C629.116 77.1573 629.026 77.392 628.844 77.584ZM627.452 88V80H628.828V88H627.452ZM634.989 88.16C633.783 88.16 632.781 87.76 631.981 86.96C631.191 86.1493 630.797 85.1627 630.797 84C630.797 82.8373 631.191 81.856 631.981 81.056C632.781 80.2453 633.783 79.84 634.989 79.84C636.183 79.84 637.175 80.2453 637.965 81.056C638.765 81.856 639.165 82.8373 639.165 84C639.165 85.1627 638.765 86.1493 637.965 86.96C637.175 87.76 636.183 88.16 634.989 88.16ZM632.973 86.048C633.495 86.6027 634.167 86.88 634.989 86.88C635.81 86.88 636.477 86.6027 636.989 86.048C637.501 85.4933 637.757 84.8107 637.757 84C637.757 83.1893 637.501 82.5067 636.989 81.952C636.477 81.3973 635.81 81.12 634.989 81.12C634.167 81.12 633.495 81.3973 632.973 81.952C632.461 82.5067 632.205 83.1893 632.205 84C632.205 84.8107 632.461 85.4933 632.973 86.048ZM641.14 88V80H642.516V81.232C643.06 80.304 643.908 79.84 645.06 79.84C645.966 79.84 646.697 80.1333 647.252 80.72C647.806 81.3067 648.084 82.0907 648.084 83.072V88H646.724V83.28C646.724 82.608 646.553 82.08 646.212 81.696C645.87 81.3013 645.412 81.104 644.836 81.104C644.174 81.104 643.62 81.3653 643.172 81.888C642.734 82.4107 642.516 83.1253 642.516 84.032V88H641.14ZM653.858 88.16C652.748 88.16 651.815 87.7547 651.058 86.944C650.311 86.1333 649.938 85.152 649.938 84C649.938 82.848 650.311 81.8667 651.058 81.056C651.815 80.2453 652.748 79.84 653.858 79.84C654.444 79.84 654.988 79.9733 655.49 80.24C656.002 80.496 656.396 80.8267 656.674 81.232V80H658.05V88H656.674V86.768C656.396 87.1733 656.002 87.5093 655.49 87.776C654.988 88.032 654.444 88.16 653.858 88.16ZM654.066 86.896C654.855 86.896 655.506 86.6187 656.018 86.064C656.53 85.5093 656.786 84.8213 656.786 84C656.786 83.1787 656.53 82.4907 656.018 81.936C655.506 81.3813 654.855 81.104 654.066 81.104C653.266 81.104 652.61 81.3813 652.098 81.936C651.586 82.4907 651.33 83.1787 651.33 84C651.33 84.8213 651.586 85.5093 652.098 86.064C652.61 86.6187 653.266 86.896 654.066 86.896ZM660.64 88V76H662.016V88H660.64ZM669.876 77.584C669.694 77.7653 669.465 77.856 669.188 77.856C668.91 77.856 668.676 77.7653 668.484 77.584C668.292 77.392 668.196 77.1573 668.196 76.88C668.196 76.6133 668.292 76.384 668.484 76.192C668.676 76 668.91 75.904 669.188 75.904C669.465 75.904 669.694 76 669.876 76.192C670.057 76.384 670.148 76.6133 670.148 76.88C670.148 77.1573 670.057 77.392 669.876 77.584ZM668.484 88V80H669.86V88H668.484ZM672.468 88V80H673.844V81.232C674.388 80.304 675.236 79.84 676.388 79.84C677.295 79.84 678.025 80.1333 678.58 80.72C679.135 81.3067 679.412 82.0907 679.412 83.072V88H678.052V83.28C678.052 82.608 677.881 82.08 677.54 81.696C677.199 81.3013 676.74 81.104 676.164 81.104C675.503 81.104 674.948 81.3653 674.5 81.888C674.063 82.4107 673.844 83.1253 673.844 84.032V88H672.468ZM682.468 88V81.264H680.772V80H682.468V78.384C682.468 77.584 682.692 76.9707 683.14 76.544C683.588 76.1173 684.18 75.904 684.916 75.904C685.353 75.904 685.769 75.9733 686.164 76.112V77.328C685.919 77.2213 685.588 77.168 685.172 77.168C684.713 77.168 684.377 77.2693 684.164 77.472C683.951 77.6747 683.844 78.0267 683.844 78.528V80H686.164V81.264H683.844V88H682.468ZM691.02 88.16C689.815 88.16 688.812 87.76 688.012 86.96C687.223 86.1493 686.828 85.1627 686.828 84C686.828 82.8373 687.223 81.856 688.012 81.056C688.812 80.2453 689.815 79.84 691.02 79.84C692.215 79.84 693.207 80.2453 693.996 81.056C694.796 81.856 695.196 82.8373 695.196 84C695.196 85.1627 694.796 86.1493 693.996 86.96C693.207 87.76 692.215 88.16 691.02 88.16ZM689.004 86.048C689.527 86.6027 690.199 86.88 691.02 86.88C691.841 86.88 692.508 86.6027 693.02 86.048C693.532 85.4933 693.788 84.8107 693.788 84C693.788 83.1893 693.532 82.5067 693.02 81.952C692.508 81.3973 691.841 81.12 691.02 81.12C690.199 81.12 689.527 81.3973 689.004 81.952C688.492 82.5067 688.236 83.1893 688.236 84C688.236 84.8107 688.492 85.4933 689.004 86.048ZM697.171 88V80H698.547V81.552C698.696 81.0613 698.984 80.6667 699.411 80.368C699.848 80.0693 700.307 79.92 700.787 79.92C701.022 79.92 701.23 79.9413 701.411 79.984V81.408C701.219 81.3227 700.968 81.28 700.659 81.28C700.104 81.28 699.614 81.52 699.187 82C698.76 82.48 698.547 83.1573 698.547 84.032V88H697.171ZM713.334 88V83.296C713.334 82.6347 713.196 82.1067 712.918 81.712C712.652 81.3067 712.262 81.104 711.75 81.104C711.11 81.104 710.588 81.3547 710.182 81.856C709.788 82.3573 709.58 83.04 709.558 83.904V88H708.182V83.296C708.182 82.624 708.044 82.0907 707.766 81.696C707.5 81.3013 707.116 81.104 706.614 81.104C705.953 81.104 705.42 81.3707 705.014 81.904C704.609 82.4267 704.406 83.136 704.406 84.032V88H703.03V80H704.406V81.232C704.918 80.304 705.724 79.84 706.822 79.84C708.038 79.84 708.86 80.4107 709.286 81.552C709.5 81.0293 709.841 80.6133 710.31 80.304C710.78 79.9947 711.313 79.84 711.91 79.84C712.774 79.84 713.457 80.1333 713.958 80.72C714.46 81.3067 714.71 82.096 714.71 83.088V88H713.334ZM720.483 88.16C719.373 88.16 718.44 87.7547 717.683 86.944C716.936 86.1333 716.563 85.152 716.563 84C716.563 82.848 716.936 81.8667 717.683 81.056C718.44 80.2453 719.373 79.84 720.483 79.84C721.069 79.84 721.613 79.9733 722.115 80.24C722.627 80.496 723.021 80.8267 723.299 81.232V80H724.675V88H723.299V86.768C723.021 87.1733 722.627 87.5093 722.115 87.776C721.613 88.032 721.069 88.16 720.483 88.16ZM720.691 86.896C721.48 86.896 722.131 86.6187 722.643 86.064C723.155 85.5093 723.411 84.8213 723.411 84C723.411 83.1787 723.155 82.4907 722.643 81.936C722.131 81.3813 721.48 81.104 720.691 81.104C719.891 81.104 719.235 81.3813 718.723 81.936C718.211 82.4907 717.955 83.1787 717.955 84C717.955 84.8213 718.211 85.5093 718.723 86.064C719.235 86.6187 719.891 86.896 720.691 86.896ZM730.369 88.08C729.633 88.08 729.041 87.872 728.593 87.456C728.145 87.04 727.921 86.432 727.921 85.632V81.264H726.225V80H727.921V77.776H729.297V80H731.601V81.264H729.297V85.456C729.297 85.9573 729.403 86.3093 729.617 86.512C729.83 86.7147 730.166 86.816 730.625 86.816C731.03 86.816 731.355 86.7627 731.601 86.656V87.888C731.217 88.016 730.806 88.08 730.369 88.08ZM734.751 77.584C734.569 77.7653 734.34 77.856 734.062 77.856C733.785 77.856 733.551 77.7653 733.359 77.584C733.167 77.392 733.071 77.1573 733.071 76.88C733.071 76.6133 733.167 76.384 733.359 76.192C733.551 76 733.785 75.904 734.062 75.904C734.34 75.904 734.569 76 734.751 76.192C734.932 76.384 735.023 76.6133 735.023 76.88C735.023 77.1573 734.932 77.392 734.751 77.584ZM733.359 88V80H734.735V88H733.359ZM740.895 88.16C739.69 88.16 738.687 87.76 737.887 86.96C737.098 86.1493 736.703 85.1627 736.703 84C736.703 82.8373 737.098 81.856 737.887 81.056C738.687 80.2453 739.69 79.84 740.895 79.84C742.09 79.84 743.082 80.2453 743.871 81.056C744.671 81.856 745.071 82.8373 745.071 84C745.071 85.1627 744.671 86.1493 743.871 86.96C743.082 87.76 742.09 88.16 740.895 88.16ZM738.879 86.048C739.402 86.6027 740.074 86.88 740.895 86.88C741.716 86.88 742.383 86.6027 742.895 86.048C743.407 85.4933 743.663 84.8107 743.663 84C743.663 83.1893 743.407 82.5067 742.895 81.952C742.383 81.3973 741.716 81.12 740.895 81.12C740.074 81.12 739.402 81.3973 738.879 81.952C738.367 82.5067 738.111 83.1893 738.111 84C738.111 84.8107 738.367 85.4933 738.879 86.048ZM747.046 88V80H748.422V81.232C748.966 80.304 749.814 79.84 750.966 79.84C751.873 79.84 752.603 80.1333 753.158 80.72C753.713 81.3067 753.99 82.0907 753.99 83.072V88H752.63V83.28C752.63 82.608 752.459 82.08 752.118 81.696C751.777 81.3013 751.318 81.104 750.742 81.104C750.081 81.104 749.526 81.3653 749.078 81.888C748.641 82.4107 748.422 83.1253 748.422 84.032V88H747.046ZM758.18 87.648L756.532 90.288H755.62L756.692 88C756.255 87.7867 756.036 87.4293 756.036 86.928C756.036 86.608 756.153 86.3307 756.388 86.096C756.623 85.8507 756.9 85.728 757.22 85.728C757.54 85.728 757.817 85.8507 758.052 86.096C758.287 86.3307 758.404 86.608 758.404 86.928C758.404 87.1627 758.329 87.4027 758.18 87.648ZM71.08 108L69.096 102.256L67.128 108H65.912L63.192 100H64.632L66.568 105.84L68.568 100H69.624L71.624 105.84L73.56 100H75.016L72.296 108H71.08ZM79.9879 108.16C78.7612 108.16 77.7639 107.765 76.9959 106.976C76.2279 106.187 75.8439 105.195 75.8439 104C75.8439 102.816 76.2332 101.829 77.0119 101.04C77.7905 100.24 78.7879 99.84 80.0039 99.84C81.0812 99.84 81.9825 100.203 82.7079 100.928C83.4439 101.643 83.8119 102.619 83.8119 103.856C83.8119 104.016 83.8065 104.155 83.7959 104.272H77.2359C77.2572 105.019 77.5239 105.643 78.0359 106.144C78.5585 106.645 79.2145 106.896 80.0039 106.896C81.1239 106.896 81.9559 106.432 82.4999 105.504L83.5879 106.256C82.8092 107.525 81.6092 108.16 79.9879 108.16ZM77.3319 103.152H82.4039C82.2972 102.512 82.0145 102.005 81.5559 101.632C81.1079 101.248 80.5745 101.056 79.9559 101.056C79.3265 101.056 78.7612 101.248 78.2599 101.632C77.7692 102.005 77.4599 102.512 77.3319 103.152ZM85.0716 100.592V96.64H86.3196V100.592H85.0716ZM88.6866 108V96H90.0626V108H88.6866ZM92.671 108V96H94.047V108H92.671ZM100.515 108V100H101.891V101.552C102.04 101.061 102.328 100.667 102.755 100.368C103.192 100.069 103.651 99.92 104.131 99.92C104.365 99.92 104.573 99.9413 104.755 99.984V101.408C104.563 101.323 104.312 101.28 104.003 101.28C103.448 101.28 102.957 101.52 102.531 102C102.104 102.48 101.891 103.157 101.891 104.032V108H100.515ZM109.613 108.16C108.386 108.16 107.389 107.765 106.621 106.976C105.853 106.187 105.469 105.195 105.469 104C105.469 102.816 105.858 101.829 106.637 101.04C107.416 100.24 108.413 99.84 109.629 99.84C110.706 99.84 111.608 100.203 112.333 100.928C113.069 101.643 113.437 102.619 113.437 103.856C113.437 104.016 113.432 104.155 113.421 104.272H106.861C106.882 105.019 107.149 105.643 107.661 106.144C108.184 106.645 108.84 106.896 109.629 106.896C110.749 106.896 111.581 106.432 112.125 105.504L113.213 106.256C112.434 107.525 111.234 108.16 109.613 108.16ZM106.957 103.152H112.029C111.922 102.512 111.64 102.005 111.181 101.632C110.733 101.248 110.2 101.056 109.581 101.056C108.952 101.056 108.386 101.248 107.885 101.632C107.394 102.005 107.085 102.512 106.957 103.152ZM118.686 108.16C117.576 108.16 116.643 107.755 115.886 106.944C115.139 106.133 114.766 105.152 114.766 104C114.766 102.848 115.139 101.867 115.886 101.056C116.643 100.245 117.576 99.84 118.686 99.84C119.272 99.84 119.816 99.9733 120.318 100.24C120.83 100.496 121.224 100.827 121.502 101.232V100H122.878V108H121.502V106.768C121.224 107.173 120.83 107.509 120.318 107.776C119.816 108.032 119.272 108.16 118.686 108.16ZM118.894 106.896C119.683 106.896 120.334 106.619 120.846 106.064C121.358 105.509 121.614 104.821 121.614 104C121.614 103.179 121.358 102.491 120.846 101.936C120.334 101.381 119.683 101.104 118.894 101.104C118.094 101.104 117.438 101.381 116.926 101.936C116.414 102.491 116.158 103.179 116.158 104C116.158 104.821 116.414 105.509 116.926 106.064C117.438 106.619 118.094 106.896 118.894 106.896ZM129.036 108.16C127.831 108.16 126.828 107.76 126.028 106.96C125.239 106.16 124.844 105.173 124.844 104C124.844 102.827 125.239 101.84 126.028 101.04C126.828 100.24 127.831 99.84 129.036 99.84C129.847 99.84 130.572 100.032 131.212 100.416C131.863 100.8 132.369 101.323 132.732 101.984L131.532 102.656C131.297 102.187 130.961 101.813 130.524 101.536C130.097 101.259 129.601 101.12 129.036 101.12C128.215 101.12 127.543 101.397 127.02 101.952C126.497 102.507 126.236 103.189 126.236 104C126.236 104.811 126.497 105.493 127.02 106.048C127.543 106.603 128.215 106.88 129.036 106.88C129.601 106.88 130.097 106.741 130.524 106.464C130.961 106.187 131.297 105.813 131.532 105.344L132.732 106.016C132.369 106.677 131.863 107.2 131.212 107.584C130.572 107.968 129.847 108.16 129.036 108.16ZM135.891 108H134.515V96H135.891V101.232C136.435 100.304 137.283 99.84 138.435 99.84C139.341 99.84 140.072 100.133 140.627 100.72C141.181 101.307 141.459 102.091 141.459 103.072V108H140.099V103.28C140.099 102.608 139.928 102.08 139.587 101.696C139.245 101.301 138.787 101.104 138.211 101.104C137.549 101.104 136.995 101.365 136.547 101.888C136.109 102.411 135.891 103.125 135.891 104.032V108ZM151.348 108.16C150.143 108.16 149.14 107.76 148.34 106.96C147.551 106.149 147.156 105.163 147.156 104C147.156 102.837 147.551 101.856 148.34 101.056C149.14 100.245 150.143 99.84 151.348 99.84C152.543 99.84 153.535 100.245 154.324 101.056C155.124 101.856 155.524 102.837 155.524 104C155.524 105.163 155.124 106.149 154.324 106.96C153.535 107.76 152.543 108.16 151.348 108.16ZM149.332 106.048C149.855 106.603 150.527 106.88 151.348 106.88C152.169 106.88 152.836 106.603 153.348 106.048C153.86 105.493 154.116 104.811 154.116 104C154.116 103.189 153.86 102.507 153.348 101.952C152.836 101.397 152.169 101.12 151.348 101.12C150.527 101.12 149.855 101.397 149.332 101.952C148.82 102.507 148.564 103.189 148.564 104C148.564 104.811 148.82 105.493 149.332 106.048ZM160.331 108.16C159.456 108.16 158.747 107.867 158.203 107.28C157.659 106.683 157.387 105.893 157.387 104.912V100H158.763V104.704C158.763 105.376 158.923 105.909 159.243 106.304C159.574 106.699 160.016 106.896 160.571 106.896C161.211 106.896 161.739 106.635 162.155 106.112C162.582 105.579 162.795 104.864 162.795 103.968V100H164.171V108H162.795V106.768C162.272 107.696 161.451 108.16 160.331 108.16ZM169.869 108.08C169.133 108.08 168.541 107.872 168.093 107.456C167.645 107.04 167.421 106.432 167.421 105.632V101.264H165.725V100H167.421V97.776H168.797V100H171.101V101.264H168.797V105.456C168.797 105.957 168.903 106.309 169.117 106.512C169.33 106.715 169.666 106.816 170.125 106.816C170.53 106.816 170.855 106.763 171.101 106.656V107.888C170.717 108.016 170.306 108.08 169.869 108.08ZM179.556 108.08C178.82 108.08 178.228 107.872 177.78 107.456C177.332 107.04 177.108 106.432 177.108 105.632V101.264H175.412V100H177.108V97.776H178.484V100H180.788V101.264H178.484V105.456C178.484 105.957 178.591 106.309 178.804 106.512C179.018 106.715 179.354 106.816 179.812 106.816C180.218 106.816 180.543 106.763 180.788 106.656V107.888C180.404 108.016 179.994 108.08 179.556 108.08ZM185.989 108.16C184.783 108.16 183.781 107.76 182.981 106.96C182.191 106.149 181.797 105.163 181.797 104C181.797 102.837 182.191 101.856 182.981 101.056C183.781 100.245 184.783 99.84 185.989 99.84C187.183 99.84 188.175 100.245 188.965 101.056C189.765 101.856 190.165 102.837 190.165 104C190.165 105.163 189.765 106.149 188.965 106.96C188.175 107.76 187.183 108.16 185.989 108.16ZM183.973 106.048C184.495 106.603 185.167 106.88 185.989 106.88C186.81 106.88 187.477 106.603 187.989 106.048C188.501 105.493 188.757 104.811 188.757 104C188.757 103.189 188.501 102.507 187.989 101.952C187.477 101.397 186.81 101.12 185.989 101.12C185.167 101.12 184.495 101.397 183.973 101.952C183.461 102.507 183.205 103.189 183.205 104C183.205 104.811 183.461 105.493 183.973 106.048ZM197.752 111.344H196.216L197.96 107.584L194.456 100H195.976L198.728 106.08L201.464 100H203L197.752 111.344ZM207.754 108.16C206.549 108.16 205.546 107.76 204.746 106.96C203.957 106.149 203.562 105.163 203.562 104C203.562 102.837 203.957 101.856 204.746 101.056C205.546 100.245 206.549 99.84 207.754 99.84C208.949 99.84 209.941 100.245 210.73 101.056C211.53 101.856 211.93 102.837 211.93 104C211.93 105.163 211.53 106.149 210.73 106.96C209.941 107.76 208.949 108.16 207.754 108.16ZM205.738 106.048C206.261 106.603 206.933 106.88 207.754 106.88C208.576 106.88 209.242 106.603 209.754 106.048C210.266 105.493 210.522 104.811 210.522 104C210.522 103.189 210.266 102.507 209.754 101.952C209.242 101.397 208.576 101.12 207.754 101.12C206.933 101.12 206.261 101.397 205.738 101.952C205.226 102.507 204.97 103.189 204.97 104C204.97 104.811 205.226 105.493 205.738 106.048ZM216.737 108.16C215.863 108.16 215.153 107.867 214.609 107.28C214.065 106.683 213.793 105.893 213.793 104.912V100H215.169V104.704C215.169 105.376 215.329 105.909 215.649 106.304C215.98 106.699 216.423 106.896 216.977 106.896C217.617 106.896 218.145 106.635 218.561 106.112C218.988 105.579 219.201 104.864 219.201 103.968V100H220.577V108H219.201V106.768C218.679 107.696 217.857 108.16 216.737 108.16ZM228.406 111.344H227.03V100H228.406V101.232C228.684 100.827 229.073 100.496 229.574 100.24C230.086 99.9733 230.636 99.84 231.222 99.84C232.332 99.84 233.26 100.245 234.006 101.056C234.764 101.867 235.142 102.848 235.142 104C235.142 105.152 234.764 106.133 234.006 106.944C233.26 107.755 232.332 108.16 231.222 108.16C230.636 108.16 230.086 108.032 229.574 107.776C229.073 107.509 228.684 107.173 228.406 106.768V111.344ZM229.062 106.064C229.574 106.619 230.225 106.896 231.014 106.896C231.804 106.896 232.454 106.619 232.966 106.064C233.478 105.509 233.734 104.821 233.734 104C233.734 103.179 233.478 102.491 232.966 101.936C232.454 101.381 231.804 101.104 231.014 101.104C230.225 101.104 229.574 101.381 229.062 101.936C228.55 102.491 228.294 103.179 228.294 104C228.294 104.821 228.55 105.509 229.062 106.064ZM237.124 108V100H238.5V101.552C238.649 101.061 238.937 100.667 239.364 100.368C239.801 100.069 240.26 99.92 240.74 99.92C240.975 99.92 241.183 99.9413 241.364 99.984V101.408C241.172 101.323 240.921 101.28 240.612 101.28C240.057 101.28 239.567 101.52 239.14 102C238.713 102.48 238.5 103.157 238.5 104.032V108H237.124ZM246.254 108.16C245.049 108.16 244.046 107.76 243.246 106.96C242.457 106.149 242.062 105.163 242.062 104C242.062 102.837 242.457 101.856 243.246 101.056C244.046 100.245 245.049 99.84 246.254 99.84C247.449 99.84 248.441 100.245 249.23 101.056C250.03 101.856 250.43 102.837 250.43 104C250.43 105.163 250.03 106.149 249.23 106.96C248.441 107.76 247.449 108.16 246.254 108.16ZM244.238 106.048C244.761 106.603 245.433 106.88 246.254 106.88C247.076 106.88 247.742 106.603 248.254 106.048C248.766 105.493 249.022 104.811 249.022 104C249.022 103.189 248.766 102.507 248.254 101.952C247.742 101.397 247.076 101.12 246.254 101.12C245.433 101.12 244.761 101.397 244.238 101.952C243.726 102.507 243.47 103.189 243.47 104C243.47 104.811 243.726 105.493 244.238 106.048ZM262.709 108V103.296C262.709 102.635 262.571 102.107 262.293 101.712C262.027 101.307 261.637 101.104 261.125 101.104C260.485 101.104 259.963 101.355 259.557 101.856C259.163 102.357 258.955 103.04 258.933 103.904V108H257.557V103.296C257.557 102.624 257.419 102.091 257.141 101.696C256.875 101.301 256.491 101.104 255.989 101.104C255.328 101.104 254.795 101.371 254.389 101.904C253.984 102.427 253.781 103.136 253.781 104.032V108H252.405V100H253.781V101.232C254.293 100.304 255.099 99.84 256.197 99.84C257.413 99.84 258.235 100.411 258.661 101.552C258.875 101.029 259.216 100.613 259.685 100.304C260.155 99.9947 260.688 99.84 261.285 99.84C262.149 99.84 262.832 100.133 263.333 100.72C263.835 101.307 264.085 102.096 264.085 103.088V108H262.709ZM267.938 111.344H266.562V100H267.938V101.232C268.215 100.827 268.604 100.496 269.106 100.24C269.618 99.9733 270.167 99.84 270.754 99.84C271.863 99.84 272.791 100.245 273.538 101.056C274.295 101.867 274.674 102.848 274.674 104C274.674 105.152 274.295 106.133 273.538 106.944C272.791 107.755 271.863 108.16 270.754 108.16C270.167 108.16 269.618 108.032 269.106 107.776C268.604 107.509 268.215 107.173 267.938 106.768V111.344ZM268.594 106.064C269.106 106.619 269.756 106.896 270.546 106.896C271.335 106.896 271.986 106.619 272.498 106.064C273.01 105.509 273.266 104.821 273.266 104C273.266 103.179 273.01 102.491 272.498 101.936C271.986 101.381 271.335 101.104 270.546 101.104C269.756 101.104 269.106 101.381 268.594 101.936C268.082 102.491 267.826 103.179 267.826 104C267.826 104.821 268.082 105.509 268.594 106.064ZM279.619 108.08C278.883 108.08 278.291 107.872 277.843 107.456C277.395 107.04 277.171 106.432 277.171 105.632V101.264H275.475V100H277.171V97.776H278.547V100H280.851V101.264H278.547V105.456C278.547 105.957 278.653 106.309 278.867 106.512C279.08 106.715 279.416 106.816 279.875 106.816C280.28 106.816 280.605 106.763 280.851 106.656V107.888C280.467 108.016 280.056 108.08 279.619 108.08ZM282.609 108V96H283.985V108H282.609ZM288.721 111.344H287.185L288.929 107.584L285.425 100H286.945L289.697 106.08L292.433 100H293.969L288.721 111.344ZM296.114 107.776C295.89 108.011 295.612 108.128 295.282 108.128C294.951 108.128 294.668 108.011 294.434 107.776C294.21 107.541 294.098 107.259 294.098 106.928C294.098 106.608 294.215 106.331 294.45 106.096C294.684 105.851 294.962 105.728 295.282 105.728C295.602 105.728 295.879 105.851 296.114 106.096C296.348 106.331 296.466 106.608 296.466 106.928C296.466 107.259 296.348 107.541 296.114 107.776ZM304.433 108V98.048H300.897V96.64H309.425V98.048H305.889V108H304.433ZM312.266 108H310.89V96H312.266V101.232C312.81 100.304 313.658 99.84 314.81 99.84C315.716 99.84 316.447 100.133 317.002 100.72C317.556 101.307 317.834 102.091 317.834 103.072V108H316.474V103.28C316.474 102.608 316.303 102.08 315.962 101.696C315.62 101.301 315.162 101.104 314.586 101.104C313.924 101.104 313.37 101.365 312.922 101.888C312.484 102.411 312.266 103.125 312.266 104.032V108ZM323.608 108.16C322.498 108.16 321.565 107.755 320.808 106.944C320.061 106.133 319.688 105.152 319.688 104C319.688 102.848 320.061 101.867 320.808 101.056C321.565 100.245 322.498 99.84 323.608 99.84C324.194 99.84 324.738 99.9733 325.24 100.24C325.752 100.496 326.146 100.827 326.424 101.232V100H327.8V108H326.424V106.768C326.146 107.173 325.752 107.509 325.24 107.776C324.738 108.032 324.194 108.16 323.608 108.16ZM323.816 106.896C324.605 106.896 325.256 106.619 325.768 106.064C326.28 105.509 326.536 104.821 326.536 104C326.536 103.179 326.28 102.491 325.768 101.936C325.256 101.381 324.605 101.104 323.816 101.104C323.016 101.104 322.36 101.381 321.848 101.936C321.336 102.491 321.08 103.179 321.08 104C321.08 104.821 321.336 105.509 321.848 106.064C322.36 106.619 323.016 106.896 323.816 106.896ZM330.39 108V100H331.766V101.232C332.31 100.304 333.158 99.84 334.31 99.84C335.216 99.84 335.947 100.133 336.502 100.72C337.056 101.307 337.334 102.091 337.334 103.072V108H335.974V103.28C335.974 102.608 335.803 102.08 335.462 101.696C335.12 101.301 334.662 101.104 334.086 101.104C333.424 101.104 332.87 101.365 332.422 101.888C331.984 102.411 331.766 103.125 331.766 104.032V108H330.39ZM345.524 108L341.188 104V108H339.812V96H341.188V103.12L344.676 100H346.5L342.564 103.536L347.38 108H345.524ZM353.737 111.344H352.201L353.945 107.584L350.441 100H351.961L354.713 106.08L357.449 100H358.985L353.737 111.344ZM363.739 108.16C362.533 108.16 361.531 107.76 360.731 106.96C359.941 106.149 359.547 105.163 359.547 104C359.547 102.837 359.941 101.856 360.731 101.056C361.531 100.245 362.533 99.84 363.739 99.84C364.933 99.84 365.925 100.245 366.715 101.056C367.515 101.856 367.915 102.837 367.915 104C367.915 105.163 367.515 106.149 366.715 106.96C365.925 107.76 364.933 108.16 363.739 108.16ZM361.723 106.048C362.245 106.603 362.917 106.88 363.739 106.88C364.56 106.88 365.227 106.603 365.739 106.048C366.251 105.493 366.507 104.811 366.507 104C366.507 103.189 366.251 102.507 365.739 101.952C365.227 101.397 364.56 101.12 363.739 101.12C362.917 101.12 362.245 101.397 361.723 101.952C361.211 102.507 360.955 103.189 360.955 104C360.955 104.811 361.211 105.493 361.723 106.048ZM372.722 108.16C371.847 108.16 371.138 107.867 370.594 107.28C370.05 106.683 369.778 105.893 369.778 104.912V100H371.154V104.704C371.154 105.376 371.314 105.909 371.634 106.304C371.964 106.699 372.407 106.896 372.962 106.896C373.602 106.896 374.13 106.635 374.546 106.112C374.972 105.579 375.186 104.864 375.186 103.968V100H376.562V108H375.186V106.768C374.663 107.696 373.842 108.16 372.722 108.16ZM383.484 108V101.264H381.788V100H383.484V98.384C383.484 97.584 383.708 96.9707 384.156 96.544C384.604 96.1173 385.196 95.904 385.932 95.904C386.369 95.904 386.785 95.9733 387.18 96.112V97.328C386.934 97.2213 386.604 97.168 386.188 97.168C385.729 97.168 385.393 97.2693 385.18 97.472C384.966 97.6747 384.86 98.0267 384.86 98.528V100H387.18V101.264H384.86V108H383.484ZM392.036 108.16C390.83 108.16 389.828 107.76 389.028 106.96C388.238 106.149 387.844 105.163 387.844 104C387.844 102.837 388.238 101.856 389.028 101.056C389.828 100.245 390.83 99.84 392.036 99.84C393.23 99.84 394.222 100.245 395.012 101.056C395.812 101.856 396.212 102.837 396.212 104C396.212 105.163 395.812 106.149 395.012 106.96C394.222 107.76 393.23 108.16 392.036 108.16ZM390.02 106.048C390.542 106.603 391.214 106.88 392.036 106.88C392.857 106.88 393.524 106.603 394.036 106.048C394.548 105.493 394.804 104.811 394.804 104C394.804 103.189 394.548 102.507 394.036 101.952C393.524 101.397 392.857 101.12 392.036 101.12C391.214 101.12 390.542 101.397 390.02 101.952C389.508 102.507 389.252 103.189 389.252 104C389.252 104.811 389.508 105.493 390.02 106.048ZM398.187 108V100H399.563V101.552C399.712 101.061 400 100.667 400.427 100.368C400.864 100.069 401.323 99.92 401.803 99.92C402.037 99.92 402.245 99.9413 402.427 99.984V101.408C402.235 101.323 401.984 101.28 401.675 101.28C401.12 101.28 400.629 101.52 400.203 102C399.776 102.48 399.563 103.157 399.563 104.032V108H398.187ZM409.252 111.344H407.716L409.46 107.584L405.956 100H407.476L410.228 106.08L412.964 100H414.5L409.252 111.344ZM419.254 108.16C418.049 108.16 417.046 107.76 416.246 106.96C415.457 106.149 415.062 105.163 415.062 104C415.062 102.837 415.457 101.856 416.246 101.056C417.046 100.245 418.049 99.84 419.254 99.84C420.449 99.84 421.441 100.245 422.23 101.056C423.03 101.856 423.43 102.837 423.43 104C423.43 105.163 423.03 106.149 422.23 106.96C421.441 107.76 420.449 108.16 419.254 108.16ZM417.238 106.048C417.761 106.603 418.433 106.88 419.254 106.88C420.076 106.88 420.742 106.603 421.254 106.048C421.766 105.493 422.022 104.811 422.022 104C422.022 103.189 421.766 102.507 421.254 101.952C420.742 101.397 420.076 101.12 419.254 101.12C418.433 101.12 417.761 101.397 417.238 101.952C416.726 102.507 416.47 103.189 416.47 104C416.47 104.811 416.726 105.493 417.238 106.048ZM428.237 108.16C427.363 108.16 426.653 107.867 426.109 107.28C425.565 106.683 425.293 105.893 425.293 104.912V100H426.669V104.704C426.669 105.376 426.829 105.909 427.149 106.304C427.48 106.699 427.923 106.896 428.477 106.896C429.117 106.896 429.645 106.635 430.061 106.112C430.488 105.579 430.701 104.864 430.701 103.968V100H432.077V108H430.701V106.768C430.179 107.696 429.357 108.16 428.237 108.16ZM434.671 108V100H436.047V101.552C436.196 101.061 436.484 100.667 436.911 100.368C437.348 100.069 437.807 99.92 438.287 99.92C438.522 99.92 438.73 99.9413 438.911 99.984V101.408C438.719 101.323 438.468 101.28 438.159 101.28C437.604 101.28 437.114 101.52 436.687 102C436.26 102.48 436.047 103.157 436.047 104.032V108H434.671ZM445.36 111.344H443.984V100H445.36V101.232C445.637 100.827 446.026 100.496 446.528 100.24C447.04 99.9733 447.589 99.84 448.176 99.84C449.285 99.84 450.213 100.245 450.96 101.056C451.717 101.867 452.095 102.848 452.095 104C452.095 105.152 451.717 106.133 450.96 106.944C450.213 107.755 449.285 108.16 448.176 108.16C447.589 108.16 447.04 108.032 446.528 107.776C446.026 107.509 445.637 107.173 445.36 106.768V111.344ZM446.016 106.064C446.528 106.619 447.178 106.896 447.968 106.896C448.757 106.896 449.408 106.619 449.92 106.064C450.432 105.509 450.688 104.821 450.688 104C450.688 103.179 450.432 102.491 449.92 101.936C449.408 101.381 448.757 101.104 447.968 101.104C447.178 101.104 446.528 101.381 446.016 101.936C445.504 102.491 445.248 103.179 445.248 104C445.248 104.821 445.504 105.509 446.016 106.064ZM457.373 108.16C456.264 108.16 455.331 107.755 454.573 106.944C453.827 106.133 453.453 105.152 453.453 104C453.453 102.848 453.827 101.867 454.573 101.056C455.331 100.245 456.264 99.84 457.373 99.84C457.96 99.84 458.504 99.9733 459.005 100.24C459.517 100.496 459.912 100.827 460.189 101.232V100H461.565V108H460.189V106.768C459.912 107.173 459.517 107.509 459.005 107.776C458.504 108.032 457.96 108.16 457.373 108.16ZM457.581 106.896C458.371 106.896 459.021 106.619 459.533 106.064C460.045 105.509 460.301 104.821 460.301 104C460.301 103.179 460.045 102.491 459.533 101.936C459.021 101.381 458.371 101.104 457.581 101.104C456.781 101.104 456.125 101.381 455.613 101.936C455.101 102.491 454.845 103.179 454.845 104C454.845 104.821 455.101 105.509 455.613 106.064C456.125 106.619 456.781 106.896 457.581 106.896ZM467.259 108.08C466.523 108.08 465.931 107.872 465.483 107.456C465.035 107.04 464.811 106.432 464.811 105.632V101.264H463.115V100H464.811V97.776H466.187V100H468.491V101.264H466.187V105.456C466.187 105.957 466.294 106.309 466.507 106.512C466.721 106.715 467.057 106.816 467.515 106.816C467.921 106.816 468.246 106.763 468.491 106.656V107.888C468.107 108.016 467.697 108.08 467.259 108.08ZM471.641 97.584C471.46 97.7653 471.23 97.856 470.953 97.856C470.676 97.856 470.441 97.7653 470.249 97.584C470.057 97.392 469.961 97.1573 469.961 96.88C469.961 96.6133 470.057 96.384 470.249 96.192C470.441 96 470.676 95.904 470.953 95.904C471.23 95.904 471.46 96 471.641 96.192C471.822 96.384 471.913 96.6133 471.913 96.88C471.913 97.1573 471.822 97.392 471.641 97.584ZM470.249 108V100H471.625V108H470.249ZM477.754 108.16C476.527 108.16 475.53 107.765 474.762 106.976C473.994 106.187 473.61 105.195 473.61 104C473.61 102.816 473.999 101.829 474.778 101.04C475.556 100.24 476.554 99.84 477.77 99.84C478.847 99.84 479.748 100.203 480.474 100.928C481.21 101.643 481.578 102.619 481.578 103.856C481.578 104.016 481.572 104.155 481.562 104.272H475.002C475.023 105.019 475.29 105.643 475.802 106.144C476.324 106.645 476.98 106.896 477.77 106.896C478.89 106.896 479.722 106.432 480.266 105.504L481.354 106.256C480.575 107.525 479.375 108.16 477.754 108.16ZM475.098 103.152H480.17C480.063 102.512 479.78 102.005 479.322 101.632C478.874 101.248 478.34 101.056 477.722 101.056C477.092 101.056 476.527 101.248 476.026 101.632C475.535 102.005 475.226 102.512 475.098 103.152ZM483.53 108V100H484.906V101.232C485.45 100.304 486.298 99.84 487.45 99.84C488.357 99.84 489.088 100.133 489.642 100.72C490.197 101.307 490.474 102.091 490.474 103.072V108H489.114V103.28C489.114 102.608 488.944 102.08 488.602 101.696C488.261 101.301 487.802 101.104 487.226 101.104C486.565 101.104 486.01 101.365 485.562 101.888C485.125 102.411 484.906 103.125 484.906 104.032V108H483.53ZM496.52 108.16C495.315 108.16 494.312 107.76 493.512 106.96C492.723 106.16 492.328 105.173 492.328 104C492.328 102.827 492.723 101.84 493.512 101.04C494.312 100.24 495.315 99.84 496.52 99.84C497.331 99.84 498.056 100.032 498.696 100.416C499.347 100.8 499.854 101.323 500.216 101.984L499.016 102.656C498.782 102.187 498.446 101.813 498.008 101.536C497.582 101.259 497.086 101.12 496.52 101.12C495.699 101.12 495.027 101.397 494.504 101.952C493.982 102.507 493.72 103.189 493.72 104C493.72 104.811 493.982 105.493 494.504 106.048C495.027 106.603 495.699 106.88 496.52 106.88C497.086 106.88 497.582 106.741 498.008 106.464C498.446 106.187 498.782 105.813 499.016 105.344L500.216 106.016C499.854 106.677 499.347 107.2 498.696 107.584C498.056 107.968 497.331 108.16 496.52 108.16ZM505.519 108.16C504.292 108.16 503.295 107.765 502.527 106.976C501.759 106.187 501.375 105.195 501.375 104C501.375 102.816 501.764 101.829 502.543 101.04C503.322 100.24 504.319 99.84 505.535 99.84C506.612 99.84 507.514 100.203 508.239 100.928C508.975 101.643 509.343 102.619 509.343 103.856C509.343 104.016 509.338 104.155 509.327 104.272H502.767C502.788 105.019 503.055 105.643 503.567 106.144C504.09 106.645 504.746 106.896 505.535 106.896C506.655 106.896 507.487 106.432 508.031 105.504L509.119 106.256C508.34 107.525 507.14 108.16 505.519 108.16ZM502.863 103.152H507.935C507.828 102.512 507.546 102.005 507.087 101.632C506.639 101.248 506.106 101.056 505.487 101.056C504.858 101.056 504.292 101.248 503.791 101.632C503.3 102.005 502.991 102.512 502.863 103.152ZM512.848 107.776C512.624 108.011 512.347 108.128 512.016 108.128C511.685 108.128 511.403 108.011 511.168 107.776C510.944 107.541 510.832 107.259 510.832 106.928C510.832 106.608 510.949 106.331 511.184 106.096C511.419 105.851 511.696 105.728 512.016 105.728C512.336 105.728 512.613 105.851 512.848 106.096C513.083 106.331 513.2 106.608 513.2 106.928C513.2 107.259 513.083 107.541 512.848 107.776Z" fill="white"/>
<g opacity="0.5" clipPath="url(#clip3_600_857)">
<circle cx="1244.64" cy="87.6614" r="46.3" transform="rotate(90 1244.64 87.6614)" fill="white" fill-opacity="0.1"/>
<path opacity="0.1" d="M1105.06 -4.93872C1105.06 1.14149 1106.26 7.16216 1108.59 12.7795C1110.91 18.3969 1114.32 23.501 1118.62 27.8004C1122.92 32.0997 1128.03 35.5102 1133.64 37.8369C1139.26 40.1637 1145.28 41.3613 1151.36 41.3613C1157.44 41.3613 1163.46 40.1637 1169.08 37.8369C1174.7 35.5101 1179.8 32.0997 1184.1 27.8003C1188.4 23.501 1191.81 18.3969 1194.14 12.7795C1196.47 7.16215 1197.66 1.14148 1197.66 -4.93874L1151.36 -4.93872L1105.06 -4.93872Z" fill="white"/>
<path opacity="0.1" d="M1058.54 134.043C1064.64 134.043 1070.69 132.84 1076.33 130.505C1081.97 128.169 1087.09 124.745 1091.41 120.429C1095.72 116.113 1099.15 110.989 1101.48 105.349C1103.82 99.7101 1105.02 93.6659 1105.02 87.5619C1105.02 81.458 1103.82 75.4138 1101.48 69.7745C1099.15 64.1352 1095.72 59.0112 1091.41 54.6951C1087.09 50.3789 1081.97 46.9552 1076.33 44.6193C1070.69 42.2834 1064.64 41.0812 1058.54 41.0812L1058.54 87.562L1058.54 134.043Z" fill="white"/>
<rect opacity="0.2" x="1198" y="41.1104" width="92.9304" height="92.9316" transform="rotate(90 1198 41.1104)" fill="white"/>
<path d="M1198 41.1104L1247.5 -7.04298L1290.93 -51.8201L1290.93 41.1104L1198 41.1104Z" fill="white" fill-opacity="0.15"/>
</g>
<g filter="url(#filter0_d_600_857)">
<rect x="-73" y="-78" width="1440" height="67" fill="white"/>
</g>
</g>
<defs>
<filter id="filter0_d_600_857" x="-81" y="-82" width="1456" height="83" filterUnits="userSpaceOnUse" color-interpolation-filters="sRGB">
<feFlood flood-opacity="0" result="BackgroundImageFix"/>
<feColorMatrix in="SourceAlpha" type="matrix" values="0 0 0 0 0 0 0 0 0 0 0 0 0 0 0 0 0 0 127 0" result="hardAlpha"/>
<feOffset dy="4"/>
<feGaussianBlur stdDeviation="4"/>
<feComposite in2="hardAlpha" operator="out"/>
<feColorMatrix type="matrix" values="0 0 0 0 0 0 0 0 0 0 0 0 0 0 0 0 0 0 0.02 0"/>
<feBlend mode="normal" in2="BackgroundImageFix" result="effect1_dropShadow_600_857"/>
<feBlend mode="normal" in="SourceGraphic" in2="effect1_dropShadow_600_857" result="shape"/>
</filter>
<linearGradient id="paint0_linear_600_857" x1="900.694" y1="113.517" x2="897.543" y2="-12.3608" gradientUnits="userSpaceOnUse">
<stop stop-color="#012D30"/>
<stop offset="1" stop-color="#171717" stop-opacity="0.7"/>
</linearGradient>
<clipPath id="clip0_600_857">
<rect width="1440" height="960" fill="white" transform="translate(-73 -160)"/>
</clipPath>
<clipPath id="clip1_600_857">
<rect width="619" height="128" fill="white"/>
</clipPath>
<clipPath id="clip2_600_857">
<rect width="618.656" height="182.359" fill="white" transform="translate(0.496094 -0.359375)"/>
</clipPath>
<clipPath id="clip3_600_857">
<rect width="232" height="128" fill="white" transform="translate(1059)"/>
</clipPath>
</defs>
</svg>
