<svg width="1291" height="128" viewBox="0 0 1291 128" fill="none" xmlns="http://www.w3.org/2000/svg">
<rect x="5" width="1284" height="128" rx="20" fill="#191919"/>
<g opacity="0.5" clipPath="url(#clip0_11038_151311)">
<g clipPath="url(#clip1_11038_151311)">
<mask id="mask0_11038_151311" style="mask-type:alpha" maskUnits="userSpaceOnUse" x="0" y="-1" width="620" height="183">
<rect x="0.496094" y="-0.359375" width="618.656" height="182.359" rx="9.957" fill="#4A3AFF"/>
</mask>
<g mask="url(#mask0_11038_151311)">
<path opacity="0.1" d="M183.637 91.8896L93.5264 182L93.5264 91.8896L183.637 91.8896Z" fill="white"/>
<rect opacity="0.2" x="93.5" y="-1.04053" width="92.9304" height="92.9316" transform="rotate(90 93.5 -1.04053)" fill="white"/>
</g>
</g>
</g>
<path d="M76.492 60.7503C74.7467 60.7503 73.1713 60.4103 71.766 59.7303C70.3607 59.0276 69.2387 57.9736 68.4 56.5683C67.584 55.163 67.176 53.3836 67.176 51.2303V36.5423H71.528V51.2643C71.528 53.123 71.97 54.5056 72.854 55.4123C73.7607 56.319 75.0073 56.7723 76.594 56.7723C78.158 56.7723 79.3933 56.319 80.3 55.4123C81.2067 54.5056 81.66 53.123 81.66 51.2643V36.5423H86.012V51.2303C86.012 53.3836 85.5813 55.163 84.72 56.5683C83.8587 57.9736 82.7027 59.0276 81.252 59.7303C79.824 60.4103 78.2373 60.7503 76.492 60.7503ZM90.3526 60.3423V43.4783H94.1946L94.5346 46.3343C95.0559 45.337 95.8039 44.5436 96.7786 43.9543C97.7759 43.365 98.9432 43.0703 100.281 43.0703C102.366 43.0703 103.987 43.7276 105.143 45.0423C106.299 46.357 106.877 48.2836 106.877 50.8223V60.3423H102.525V51.2303C102.525 49.7796 102.23 48.669 101.641 47.8983C101.051 47.1276 100.133 46.7423 98.8866 46.7423C97.6626 46.7423 96.6539 47.173 95.8606 48.0343C95.0899 48.8956 94.7046 50.097 94.7046 51.6383V60.3423H90.3526ZM113.384 40.8603C112.591 40.8603 111.933 40.6223 111.412 40.1463C110.913 39.6703 110.664 39.0696 110.664 38.3443C110.664 37.619 110.913 37.0296 111.412 36.5763C111.933 36.1003 112.591 35.8623 113.384 35.8623C114.177 35.8623 114.823 36.1003 115.322 36.5763C115.843 37.0296 116.104 37.619 116.104 38.3443C116.104 39.0696 115.843 39.6703 115.322 40.1463C114.823 40.6223 114.177 40.8603 113.384 40.8603ZM111.208 60.3423V43.4783H115.56V60.3423H111.208ZM127.617 60.3423C125.849 60.3423 124.432 59.9116 123.367 59.0503C122.301 58.189 121.769 56.659 121.769 54.4603V47.1163H118.879V43.4783H121.769L122.279 38.9563H126.121V43.4783H130.677V47.1163H126.121V54.4943C126.121 55.3103 126.291 55.877 126.631 56.1943C126.993 56.489 127.605 56.6363 128.467 56.6363H130.575V60.3423H127.617ZM141.087 60.3423L149.791 36.5423H154.687L163.391 60.3423H158.767L156.863 54.8343H147.581L145.643 60.3423H141.087ZM148.771 51.4343H155.673L152.205 41.5403L148.771 51.4343ZM166.355 60.3423V35.8623H170.707V60.3423H166.355ZM175.153 60.3423V35.8623H179.505V60.3423H175.153ZM192.044 60.7503C190.412 60.7503 188.939 60.3763 187.624 59.6283C186.332 58.8803 185.301 57.849 184.53 56.5343C183.782 55.197 183.408 53.6556 183.408 51.9103C183.408 50.165 183.794 48.635 184.564 47.3203C185.335 45.983 186.366 44.9403 187.658 44.1923C188.973 43.4443 190.446 43.0703 192.078 43.0703C193.688 43.0703 195.138 43.4443 196.43 44.1923C197.745 44.9403 198.776 45.983 199.524 47.3203C200.295 48.635 200.68 50.165 200.68 51.9103C200.68 53.6556 200.295 55.197 199.524 56.5343C198.776 57.849 197.745 58.8803 196.43 59.6283C195.116 60.3763 193.654 60.7503 192.044 60.7503ZM192.044 56.9763C193.178 56.9763 194.164 56.557 195.002 55.7183C195.841 54.857 196.26 53.5876 196.26 51.9103C196.26 50.233 195.841 48.975 195.002 48.1363C194.164 47.275 193.189 46.8443 192.078 46.8443C190.922 46.8443 189.925 47.275 189.086 48.1363C188.27 48.975 187.862 50.233 187.862 51.9103C187.862 53.5876 188.27 54.857 189.086 55.7183C189.925 56.557 190.911 56.9763 192.044 56.9763ZM212.833 60.7503C211.111 60.7503 209.592 60.3763 208.277 59.6283C206.963 58.8803 205.92 57.8376 205.149 56.5003C204.401 55.163 204.027 53.633 204.027 51.9103C204.027 50.1876 204.401 48.6576 205.149 47.3203C205.92 45.983 206.963 44.9403 208.277 44.1923C209.592 43.4443 211.111 43.0703 212.833 43.0703C214.987 43.0703 216.8 43.637 218.273 44.7703C219.747 45.881 220.687 47.4223 221.095 49.3943H216.505C216.279 48.5783 215.825 47.9436 215.145 47.4903C214.488 47.0143 213.706 46.7763 212.799 46.7763C211.598 46.7763 210.578 47.2296 209.739 48.1363C208.901 49.043 208.481 50.301 208.481 51.9103C208.481 53.5196 208.901 54.7776 209.739 55.6843C210.578 56.591 211.598 57.0443 212.799 57.0443C213.706 57.0443 214.488 56.8176 215.145 56.3643C215.825 55.911 216.279 55.265 216.505 54.4263H221.095C220.687 56.3303 219.747 57.8603 218.273 59.0163C216.8 60.1723 214.987 60.7503 212.833 60.7503ZM230.772 60.7503C229.321 60.7503 228.131 60.5236 227.202 60.0703C226.273 59.5943 225.581 58.971 225.128 58.2003C224.675 57.4296 224.448 56.5796 224.448 55.6503C224.448 54.0863 225.06 52.817 226.284 51.8423C227.508 50.8676 229.344 50.3803 231.792 50.3803H236.076V49.9723C236.076 48.8163 235.747 47.9663 235.09 47.4223C234.433 46.8783 233.617 46.6063 232.642 46.6063C231.758 46.6063 230.987 46.8216 230.33 47.2523C229.673 47.6603 229.265 48.2723 229.106 49.0883H224.856C224.969 47.8643 225.377 46.799 226.08 45.8923C226.805 44.9856 227.735 44.2943 228.868 43.8183C230.001 43.3196 231.271 43.0703 232.676 43.0703C235.079 43.0703 236.971 43.671 238.354 44.8723C239.737 46.0736 240.428 47.7736 240.428 49.9723V60.3423H236.722L236.314 57.6223C235.815 58.529 235.113 59.277 234.206 59.8663C233.322 60.4556 232.177 60.7503 230.772 60.7503ZM231.758 57.3503C233.005 57.3503 233.968 56.9423 234.648 56.1263C235.351 55.3103 235.793 54.3016 235.974 53.1003H232.268C231.112 53.1003 230.285 53.3156 229.786 53.7463C229.287 54.1543 229.038 54.6643 229.038 55.2763C229.038 55.9336 229.287 56.4436 229.786 56.8063C230.285 57.169 230.942 57.3503 231.758 57.3503ZM251.863 60.3423C250.095 60.3423 248.678 59.9116 247.613 59.0503C246.547 58.189 246.015 56.659 246.015 54.4603V47.1163H243.125V43.4783H246.015L246.525 38.9563H250.367V43.4783H254.923V47.1163H250.367V54.4943C250.367 55.3103 250.537 55.877 250.877 56.1943C251.239 56.489 251.851 56.6363 252.713 56.6363H254.821V60.3423H251.863ZM261.005 40.8603C260.212 40.8603 259.555 40.6223 259.033 40.1463C258.535 39.6703 258.285 39.0696 258.285 38.3443C258.285 37.619 258.535 37.0296 259.033 36.5763C259.555 36.1003 260.212 35.8623 261.005 35.8623C261.799 35.8623 262.445 36.1003 262.943 36.5763C263.465 37.0296 263.725 37.619 263.725 38.3443C263.725 39.0696 263.465 39.6703 262.943 40.1463C262.445 40.6223 261.799 40.8603 261.005 40.8603ZM258.829 60.3423V43.4783H263.181V60.3423H258.829ZM275.816 60.7503C274.184 60.7503 272.71 60.3763 271.396 59.6283C270.104 58.8803 269.072 57.849 268.302 56.5343C267.554 55.197 267.18 53.6556 267.18 51.9103C267.18 50.165 267.565 48.635 268.336 47.3203C269.106 45.983 270.138 44.9403 271.43 44.1923C272.744 43.4443 274.218 43.0703 275.85 43.0703C277.459 43.0703 278.91 43.4443 280.202 44.1923C281.516 44.9403 282.548 45.983 283.296 47.3203C284.066 48.635 284.452 50.165 284.452 51.9103C284.452 53.6556 284.066 55.197 283.296 56.5343C282.548 57.849 281.516 58.8803 280.202 59.6283C278.887 60.3763 277.425 60.7503 275.816 60.7503ZM275.816 56.9763C276.949 56.9763 277.935 56.557 278.774 55.7183C279.612 54.857 280.032 53.5876 280.032 51.9103C280.032 50.233 279.612 48.975 278.774 48.1363C277.935 47.275 276.96 46.8443 275.85 46.8443C274.694 46.8443 273.696 47.275 272.858 48.1363C272.042 48.975 271.634 50.233 271.634 51.9103C271.634 53.5876 272.042 54.857 272.858 55.7183C273.696 56.557 274.682 56.9763 275.816 56.9763ZM288.343 60.3423V43.4783H292.185L292.525 46.3343C293.046 45.337 293.794 44.5436 294.769 43.9543C295.766 43.365 296.933 43.0703 298.271 43.0703C300.356 43.0703 301.977 43.7276 303.133 45.0423C304.289 46.357 304.867 48.2836 304.867 50.8223V60.3423H300.515V51.2303C300.515 49.7796 300.22 48.669 299.631 47.8983C299.041 47.1276 298.123 46.7423 296.877 46.7423C295.653 46.7423 294.644 47.173 293.851 48.0343C293.08 48.8956 292.695 50.097 292.695 51.6383V60.3423H288.343Z" fill="white"/>
<path d="M69.656 97.3423V92.5263L65.24 85.9823H67.016L70.392 91.0383L73.784 85.9823H75.56L71.128 92.5423V97.3423H69.656ZM78.8011 97.5023C77.5958 97.5023 76.5931 97.1023 75.7931 96.3023C75.0038 95.4916 74.6091 94.505 74.6091 93.3423C74.6091 92.1796 75.0038 91.1983 75.7931 90.3983C76.5931 89.5876 77.5958 89.1823 78.8011 89.1823C79.9958 89.1823 80.9878 89.5876 81.7771 90.3983C82.5771 91.1983 82.9771 92.1796 82.9771 93.3423C82.9771 94.505 82.5771 95.4916 81.7771 96.3023C80.9878 97.1023 79.9958 97.5023 78.8011 97.5023ZM76.7851 95.3903C77.3078 95.945 77.9798 96.2223 78.8011 96.2223C79.6225 96.2223 80.2891 95.945 80.8011 95.3903C81.3131 94.8356 81.5691 94.153 81.5691 93.3423C81.5691 92.5316 81.3131 91.849 80.8011 91.2943C80.2891 90.7396 79.6225 90.4623 78.8011 90.4623C77.9798 90.4623 77.3078 90.7396 76.7851 91.2943C76.2731 91.849 76.0171 92.5316 76.0171 93.3423C76.0171 94.153 76.2731 94.8356 76.7851 95.3903ZM87.7843 97.5023C86.9096 97.5023 86.2003 97.209 85.6562 96.6223C85.1123 96.025 84.8403 95.2356 84.8403 94.2543V89.3423H86.2163V94.0463C86.2163 94.7183 86.3763 95.2516 86.6963 95.6463C87.0269 96.041 87.4696 96.2383 88.0243 96.2383C88.6643 96.2383 89.1923 95.977 89.6083 95.4543C90.0349 94.921 90.2483 94.2063 90.2483 93.3103V89.3423H91.6243V97.3423H90.2483V96.1103C89.7256 97.0383 88.9043 97.5023 87.7843 97.5023ZM101.645 97.5023C100.44 97.5023 99.4373 97.1023 98.6373 96.3023C97.8479 95.5023 97.4533 94.5156 97.4533 93.3423C97.4533 92.169 97.8479 91.1823 98.6373 90.3823C99.4373 89.5823 100.44 89.1823 101.645 89.1823C102.456 89.1823 103.181 89.3743 103.821 89.7583C104.472 90.1423 104.979 90.665 105.341 91.3263L104.141 91.9983C103.907 91.529 103.571 91.1556 103.133 90.8783C102.707 90.601 102.211 90.4623 101.645 90.4623C100.824 90.4623 100.152 90.7396 99.6293 91.2943C99.1066 91.849 98.8453 92.5316 98.8453 93.3423C98.8453 94.153 99.1066 94.8356 99.6293 95.3903C100.152 95.945 100.824 96.2223 101.645 96.2223C102.211 96.2223 102.707 96.0836 103.133 95.8063C103.571 95.529 103.907 95.1556 104.141 94.6863L105.341 95.3583C104.979 96.0196 104.472 96.5423 103.821 96.9263C103.181 97.3103 102.456 97.5023 101.645 97.5023ZM110.42 97.5023C109.311 97.5023 108.377 97.097 107.62 96.2863C106.873 95.4756 106.5 94.4943 106.5 93.3423C106.5 92.1903 106.873 91.209 107.62 90.3983C108.377 89.5876 109.311 89.1823 110.42 89.1823C111.007 89.1823 111.551 89.3156 112.052 89.5823C112.564 89.8383 112.959 90.169 113.236 90.5743V89.3423H114.612V97.3423H113.236V96.1103C112.959 96.5156 112.564 96.8516 112.052 97.1183C111.551 97.3743 111.007 97.5023 110.42 97.5023ZM110.628 96.2383C111.417 96.2383 112.068 95.961 112.58 95.4063C113.092 94.8516 113.348 94.1636 113.348 93.3423C113.348 92.521 113.092 91.833 112.58 91.2783C112.068 90.7236 111.417 90.4463 110.628 90.4463C109.828 90.4463 109.172 90.7236 108.66 91.2783C108.148 91.833 107.892 92.521 107.892 93.3423C107.892 94.1636 108.148 94.8516 108.66 95.4063C109.172 95.961 109.828 96.2383 110.628 96.2383ZM117.202 97.3423V89.3423H118.578V90.5743C119.122 89.6463 119.97 89.1823 121.122 89.1823C122.029 89.1823 122.76 89.4756 123.314 90.0623C123.869 90.649 124.146 91.433 124.146 92.4143V97.3423H122.786V92.6223C122.786 91.9503 122.616 91.4223 122.274 91.0383C121.933 90.6436 121.474 90.4463 120.898 90.4463C120.237 90.4463 119.682 90.7076 119.234 91.2303C118.797 91.753 118.578 92.4676 118.578 93.3743V97.3423H117.202ZM134.052 97.5023C132.846 97.5023 131.844 97.1023 131.044 96.3023C130.254 95.5023 129.86 94.5156 129.86 93.3423C129.86 92.169 130.254 91.1823 131.044 90.3823C131.844 89.5823 132.846 89.1823 134.052 89.1823C134.862 89.1823 135.588 89.3743 136.228 89.7583C136.878 90.1423 137.385 90.665 137.748 91.3263L136.548 91.9983C136.313 91.529 135.977 91.1556 135.54 90.8783C135.113 90.601 134.617 90.4623 134.052 90.4623C133.23 90.4623 132.558 90.7396 132.036 91.2943C131.513 91.849 131.252 92.5316 131.252 93.3423C131.252 94.153 131.513 94.8356 132.036 95.3903C132.558 95.945 133.23 96.2223 134.052 96.2223C134.617 96.2223 135.113 96.0836 135.54 95.8063C135.977 95.529 136.313 95.1556 136.548 94.6863L137.748 95.3583C137.385 96.0196 136.878 96.5423 136.228 96.9263C135.588 97.3103 134.862 97.5023 134.052 97.5023ZM139.53 97.3423V89.3423H140.906V90.8943C141.056 90.4036 141.344 90.009 141.77 89.7103C142.208 89.4116 142.666 89.2623 143.146 89.2623C143.381 89.2623 143.589 89.2836 143.77 89.3263V90.7503C143.578 90.665 143.328 90.6223 143.018 90.6223C142.464 90.6223 141.973 90.8623 141.546 91.3423C141.12 91.8223 140.906 92.4996 140.906 93.3743V97.3423H139.53ZM148.629 97.5023C147.402 97.5023 146.405 97.1076 145.637 96.3183C144.869 95.529 144.485 94.537 144.485 93.3423C144.485 92.1583 144.874 91.1716 145.653 90.3823C146.431 89.5823 147.429 89.1823 148.645 89.1823C149.722 89.1823 150.623 89.545 151.349 90.2703C152.085 90.985 152.453 91.961 152.453 93.1983C152.453 93.3583 152.447 93.497 152.437 93.6143H145.877C145.898 94.361 146.165 94.985 146.677 95.4863C147.199 95.9876 147.855 96.2383 148.645 96.2383C149.765 96.2383 150.597 95.7743 151.141 94.8463L152.229 95.5983C151.45 96.8676 150.25 97.5023 148.629 97.5023ZM145.973 92.4943H151.045C150.938 91.8543 150.655 91.3476 150.197 90.9743C149.749 90.5903 149.215 90.3983 148.597 90.3983C147.967 90.3983 147.402 90.5903 146.901 90.9743C146.41 91.3476 146.101 91.8543 145.973 92.4943ZM157.701 97.5023C156.592 97.5023 155.659 97.097 154.901 96.2863C154.155 95.4756 153.781 94.4943 153.781 93.3423C153.781 92.1903 154.155 91.209 154.901 90.3983C155.659 89.5876 156.592 89.1823 157.701 89.1823C158.288 89.1823 158.832 89.3156 159.333 89.5823C159.845 89.8383 160.24 90.169 160.517 90.5743V89.3423H161.893V97.3423H160.517V96.1103C160.24 96.5156 159.845 96.8516 159.333 97.1183C158.832 97.3743 158.288 97.5023 157.701 97.5023ZM157.909 96.2383C158.699 96.2383 159.349 95.961 159.861 95.4063C160.373 94.8516 160.629 94.1636 160.629 93.3423C160.629 92.521 160.373 91.833 159.861 91.2783C159.349 90.7236 158.699 90.4463 157.909 90.4463C157.109 90.4463 156.453 90.7236 155.941 91.2783C155.429 91.833 155.173 92.521 155.173 93.3423C155.173 94.1636 155.429 94.8516 155.941 95.4063C156.453 95.961 157.109 96.2383 157.909 96.2383ZM167.588 97.4223C166.852 97.4223 166.26 97.2143 165.812 96.7983C165.364 96.3823 165.14 95.7743 165.14 94.9743V90.6063H163.444V89.3423H165.14V87.1183H166.516V89.3423H168.82V90.6063H166.516V94.7983C166.516 95.2996 166.622 95.6516 166.836 95.8543C167.049 96.057 167.385 96.1583 167.844 96.1583C168.249 96.1583 168.574 96.105 168.82 95.9983V97.2303C168.436 97.3583 168.025 97.4223 167.588 97.4223ZM173.988 97.5023C172.761 97.5023 171.764 97.1076 170.996 96.3183C170.228 95.529 169.844 94.537 169.844 93.3423C169.844 92.1583 170.233 91.1716 171.012 90.3823C171.791 89.5823 172.788 89.1823 174.004 89.1823C175.081 89.1823 175.983 89.545 176.708 90.2703C177.444 90.985 177.812 91.961 177.812 93.1983C177.812 93.3583 177.807 93.497 177.796 93.6143H171.236C171.257 94.361 171.524 94.985 172.036 95.4863C172.559 95.9876 173.215 96.2383 174.004 96.2383C175.124 96.2383 175.956 95.7743 176.5 94.8463L177.588 95.5983C176.809 96.8676 175.609 97.5023 173.988 97.5023ZM171.332 92.4943H176.404C176.297 91.8543 176.015 91.3476 175.556 90.9743C175.108 90.5903 174.575 90.3983 173.956 90.3983C173.327 90.3983 172.761 90.5903 172.26 90.9743C171.769 91.3476 171.46 91.8543 171.332 92.4943ZM187.192 97.5023C185.987 97.5023 184.984 97.1023 184.184 96.3023C183.395 95.5023 183 94.5156 183 93.3423C183 92.169 183.395 91.1823 184.184 90.3823C184.984 89.5823 185.987 89.1823 187.192 89.1823C188.003 89.1823 188.728 89.3743 189.368 89.7583C190.019 90.1423 190.525 90.665 190.888 91.3263L189.688 91.9983C189.453 91.529 189.117 91.1556 188.68 90.8783C188.253 90.601 187.757 90.4623 187.192 90.4623C186.371 90.4623 185.699 90.7396 185.176 91.2943C184.653 91.849 184.392 92.5316 184.392 93.3423C184.392 94.153 184.653 94.8356 185.176 95.3903C185.699 95.945 186.371 96.2223 187.192 96.2223C187.757 96.2223 188.253 96.0836 188.68 95.8063C189.117 95.529 189.453 95.1556 189.688 94.6863L190.888 95.3583C190.525 96.0196 190.019 96.5423 189.368 96.9263C188.728 97.3103 188.003 97.5023 187.192 97.5023ZM192.671 97.3423V89.3423H194.047V90.8943C194.196 90.4036 194.484 90.009 194.911 89.7103C195.348 89.4116 195.807 89.2623 196.287 89.2623C196.522 89.2623 196.73 89.2836 196.911 89.3263V90.7503C196.719 90.665 196.468 90.6223 196.159 90.6223C195.604 90.6223 195.114 90.8623 194.687 91.3423C194.26 91.8223 194.047 92.4996 194.047 93.3743V97.3423H192.671ZM201.769 97.5023C200.542 97.5023 199.545 97.1076 198.777 96.3183C198.009 95.529 197.625 94.537 197.625 93.3423C197.625 92.1583 198.014 91.1716 198.793 90.3823C199.572 89.5823 200.569 89.1823 201.785 89.1823C202.862 89.1823 203.764 89.545 204.489 90.2703C205.225 90.985 205.593 91.961 205.593 93.1983C205.593 93.3583 205.588 93.497 205.577 93.6143H199.017C199.038 94.361 199.305 94.985 199.817 95.4863C200.34 95.9876 200.996 96.2383 201.785 96.2383C202.905 96.2383 203.737 95.7743 204.281 94.8463L205.369 95.5983C204.59 96.8676 203.39 97.5023 201.769 97.5023ZM199.113 92.4943H204.185C204.078 91.8543 203.796 91.3476 203.337 90.9743C202.889 90.5903 202.356 90.3983 201.737 90.3983C201.108 90.3983 200.542 90.5903 200.041 90.9743C199.55 91.3476 199.241 91.8543 199.113 92.4943ZM210.842 97.5023C209.733 97.5023 208.799 97.097 208.042 96.2863C207.295 95.4756 206.922 94.4943 206.922 93.3423C206.922 92.1903 207.295 91.209 208.042 90.3983C208.799 89.5876 209.733 89.1823 210.842 89.1823C211.429 89.1823 211.973 89.3156 212.474 89.5823C212.986 89.8383 213.381 90.169 213.658 90.5743V89.3423H215.034V97.3423H213.658V96.1103C213.381 96.5156 212.986 96.8516 212.474 97.1183C211.973 97.3743 211.429 97.5023 210.842 97.5023ZM211.05 96.2383C211.839 96.2383 212.49 95.961 213.002 95.4063C213.514 94.8516 213.77 94.1636 213.77 93.3423C213.77 92.521 213.514 91.833 213.002 91.2783C212.49 90.7236 211.839 90.4463 211.05 90.4463C210.25 90.4463 209.594 90.7236 209.082 91.2783C208.57 91.833 208.314 92.521 208.314 93.3423C208.314 94.1636 208.57 94.8516 209.082 95.4063C209.594 95.961 210.25 96.2383 211.05 96.2383ZM220.728 97.4223C219.992 97.4223 219.4 97.2143 218.952 96.7983C218.504 96.3823 218.28 95.7743 218.28 94.9743V90.6063H216.584V89.3423H218.28V87.1183H219.656V89.3423H221.96V90.6063H219.656V94.7983C219.656 95.2996 219.763 95.6516 219.976 95.8543C220.189 96.057 220.525 96.1583 220.984 96.1583C221.389 96.1583 221.715 96.105 221.96 95.9983V97.2303C221.576 97.3583 221.165 97.4223 220.728 97.4223ZM227.129 97.5023C225.902 97.5023 224.905 97.1076 224.137 96.3183C223.369 95.529 222.985 94.537 222.985 93.3423C222.985 92.1583 223.374 91.1716 224.153 90.3823C224.931 89.5823 225.929 89.1823 227.145 89.1823C228.222 89.1823 229.123 89.545 229.849 90.2703C230.585 90.985 230.953 91.961 230.953 93.1983C230.953 93.3583 230.947 93.497 230.937 93.6143H224.377C224.398 94.361 224.665 94.985 225.177 95.4863C225.699 95.9876 226.355 96.2383 227.145 96.2383C228.265 96.2383 229.097 95.7743 229.641 94.8463L230.729 95.5983C229.95 96.8676 228.75 97.5023 227.129 97.5023ZM224.473 92.4943H229.545C229.438 91.8543 229.155 91.3476 228.697 90.9743C228.249 90.5903 227.715 90.3983 227.097 90.3983C226.467 90.3983 225.902 90.5903 225.401 90.9743C224.91 91.3476 224.601 91.8543 224.473 92.4943ZM240.061 97.5023C238.951 97.5023 238.018 97.097 237.261 96.2863C236.514 95.4756 236.141 94.4943 236.141 93.3423C236.141 92.1903 236.514 91.209 237.261 90.3983C238.018 89.5876 238.951 89.1823 240.061 89.1823C240.647 89.1823 241.191 89.3156 241.693 89.5823C242.205 89.8383 242.599 90.169 242.877 90.5743V89.3423H244.253V97.3423H242.877V96.1103C242.599 96.5156 242.205 96.8516 241.693 97.1183C241.191 97.3743 240.647 97.5023 240.061 97.5023ZM240.269 96.2383C241.058 96.2383 241.709 95.961 242.221 95.4063C242.733 94.8516 242.989 94.1636 242.989 93.3423C242.989 92.521 242.733 91.833 242.221 91.2783C241.709 90.7236 241.058 90.4463 240.269 90.4463C239.469 90.4463 238.813 90.7236 238.301 91.2783C237.789 91.833 237.533 92.521 237.533 93.3423C237.533 94.1636 237.789 94.8516 238.301 95.4063C238.813 95.961 239.469 96.2383 240.269 96.2383ZM246.843 97.3423V85.3423H248.219V97.3423H246.843ZM250.827 97.3423V85.3423H252.203V97.3423H250.827ZM258.364 97.5023C257.158 97.5023 256.156 97.1023 255.356 96.3023C254.566 95.4916 254.172 94.505 254.172 93.3423C254.172 92.1796 254.566 91.1983 255.356 90.3983C256.156 89.5876 257.158 89.1823 258.364 89.1823C259.558 89.1823 260.55 89.5876 261.34 90.3983C262.14 91.1983 262.54 92.1796 262.54 93.3423C262.54 94.505 262.14 95.4916 261.34 96.3023C260.55 97.1023 259.558 97.5023 258.364 97.5023ZM256.348 95.3903C256.87 95.945 257.542 96.2223 258.364 96.2223C259.185 96.2223 259.852 95.945 260.364 95.3903C260.876 94.8356 261.132 94.153 261.132 93.3423C261.132 92.5316 260.876 91.849 260.364 91.2943C259.852 90.7396 259.185 90.4623 258.364 90.4623C257.542 90.4623 256.87 90.7396 256.348 91.2943C255.836 91.849 255.58 92.5316 255.58 93.3423C255.58 94.153 255.836 94.8356 256.348 95.3903ZM268.083 97.5023C266.877 97.5023 265.875 97.1023 265.075 96.3023C264.285 95.5023 263.891 94.5156 263.891 93.3423C263.891 92.169 264.285 91.1823 265.075 90.3823C265.875 89.5823 266.877 89.1823 268.083 89.1823C268.893 89.1823 269.619 89.3743 270.259 89.7583C270.909 90.1423 271.416 90.665 271.779 91.3263L270.579 91.9983C270.344 91.529 270.008 91.1556 269.571 90.8783C269.144 90.601 268.648 90.4623 268.083 90.4623C267.261 90.4623 266.589 90.7396 266.067 91.2943C265.544 91.849 265.283 92.5316 265.283 93.3423C265.283 94.153 265.544 94.8356 266.067 95.3903C266.589 95.945 267.261 96.2223 268.083 96.2223C268.648 96.2223 269.144 96.0836 269.571 95.8063C270.008 95.529 270.344 95.1556 270.579 94.6863L271.779 95.3583C271.416 96.0196 270.909 96.5423 270.259 96.9263C269.619 97.3103 268.893 97.5023 268.083 97.5023ZM276.858 97.5023C275.748 97.5023 274.815 97.097 274.058 96.2863C273.311 95.4756 272.938 94.4943 272.938 93.3423C272.938 92.1903 273.311 91.209 274.058 90.3983C274.815 89.5876 275.748 89.1823 276.858 89.1823C277.444 89.1823 277.988 89.3156 278.49 89.5823C279.002 89.8383 279.396 90.169 279.674 90.5743V89.3423H281.05V97.3423H279.674V96.1103C279.396 96.5156 279.002 96.8516 278.49 97.1183C277.988 97.3743 277.444 97.5023 276.858 97.5023ZM277.066 96.2383C277.855 96.2383 278.506 95.961 279.018 95.4063C279.53 94.8516 279.786 94.1636 279.786 93.3423C279.786 92.521 279.53 91.833 279.018 91.2783C278.506 90.7236 277.855 90.4463 277.066 90.4463C276.266 90.4463 275.61 90.7236 275.098 91.2783C274.586 91.833 274.33 92.521 274.33 93.3423C274.33 94.1636 274.586 94.8516 275.098 95.4063C275.61 95.961 276.266 96.2383 277.066 96.2383ZM286.744 97.4223C286.008 97.4223 285.416 97.2143 284.968 96.7983C284.52 96.3823 284.296 95.7743 284.296 94.9743V90.6063H282.6V89.3423H284.296V87.1183H285.672V89.3423H287.976V90.6063H285.672V94.7983C285.672 95.2996 285.778 95.6516 285.992 95.8543C286.205 96.057 286.541 96.1583 287 96.1583C287.405 96.1583 287.73 96.105 287.976 95.9983V97.2303C287.592 97.3583 287.181 97.4223 286.744 97.4223ZM291.126 86.9263C290.944 87.1076 290.715 87.1983 290.438 87.1983C290.16 87.1983 289.926 87.1076 289.734 86.9263C289.542 86.7343 289.446 86.4996 289.446 86.2223C289.446 85.9556 289.542 85.7263 289.734 85.5343C289.926 85.3423 290.16 85.2463 290.438 85.2463C290.715 85.2463 290.944 85.3423 291.126 85.5343C291.307 85.7263 291.398 85.9556 291.398 86.2223C291.398 86.4996 291.307 86.7343 291.126 86.9263ZM289.734 97.3423V89.3423H291.11V97.3423H289.734ZM297.27 97.5023C296.065 97.5023 295.062 97.1023 294.262 96.3023C293.473 95.4916 293.078 94.505 293.078 93.3423C293.078 92.1796 293.473 91.1983 294.262 90.3983C295.062 89.5876 296.065 89.1823 297.27 89.1823C298.465 89.1823 299.457 89.5876 300.246 90.3983C301.046 91.1983 301.446 92.1796 301.446 93.3423C301.446 94.505 301.046 95.4916 300.246 96.3023C299.457 97.1023 298.465 97.5023 297.27 97.5023ZM295.254 95.3903C295.777 95.945 296.449 96.2223 297.27 96.2223C298.091 96.2223 298.758 95.945 299.27 95.3903C299.782 94.8356 300.038 94.153 300.038 93.3423C300.038 92.5316 299.782 91.849 299.27 91.2943C298.758 90.7396 298.091 90.4623 297.27 90.4623C296.449 90.4623 295.777 90.7396 295.254 91.2943C294.742 91.849 294.486 92.5316 294.486 93.3423C294.486 94.153 294.742 94.8356 295.254 95.3903ZM303.421 97.3423V89.3423H304.797V90.5743C305.341 89.6463 306.189 89.1823 307.341 89.1823C308.248 89.1823 308.978 89.4756 309.533 90.0623C310.088 90.649 310.365 91.433 310.365 92.4143V97.3423H309.005V92.6223C309.005 91.9503 308.834 91.4223 308.493 91.0383C308.152 90.6436 307.693 90.4463 307.117 90.4463C306.456 90.4463 305.901 90.7076 305.453 91.2303C305.016 91.753 304.797 92.4676 304.797 93.3743V97.3423H303.421ZM315.259 97.5023C314.523 97.5023 313.878 97.3476 313.323 97.0383C312.768 96.7183 312.368 96.2543 312.123 95.6463L313.243 95.0223C313.392 95.417 313.654 95.7263 314.027 95.9503C314.4 96.1743 314.816 96.2863 315.275 96.2863C315.67 96.2863 316 96.1903 316.267 95.9983C316.534 95.8063 316.667 95.545 316.667 95.2143C316.667 94.9263 316.56 94.6863 316.347 94.4943C316.144 94.3023 315.787 94.1263 315.275 93.9663L314.475 93.7103C313.142 93.3263 312.475 92.5476 312.475 91.3743C312.475 90.713 312.736 90.185 313.259 89.7903C313.792 89.385 314.448 89.1823 315.227 89.1823C316.443 89.1823 317.323 89.6463 317.867 90.5743L316.843 91.2783C316.406 90.6703 315.851 90.3663 315.179 90.3663C314.816 90.3663 314.502 90.457 314.235 90.6383C313.979 90.809 313.851 91.0383 313.851 91.3263C313.851 91.593 313.931 91.8223 314.091 92.0143C314.262 92.1956 314.56 92.3503 314.987 92.4783L315.867 92.7503C317.318 93.1983 318.043 93.9823 318.043 95.1023C318.043 95.849 317.782 96.4356 317.259 96.8623C316.747 97.289 316.08 97.5023 315.259 97.5023ZM327.201 97.5023C326.092 97.5023 325.159 97.097 324.401 96.2863C323.655 95.4756 323.281 94.4943 323.281 93.3423C323.281 92.1903 323.655 91.209 324.401 90.3983C325.159 89.5876 326.092 89.1823 327.201 89.1823C327.788 89.1823 328.332 89.3156 328.833 89.5823C329.345 89.8383 329.74 90.169 330.017 90.5743V89.3423H331.393V97.3423H330.017V96.1103C329.74 96.5156 329.345 96.8516 328.833 97.1183C328.332 97.3743 327.788 97.5023 327.201 97.5023ZM327.409 96.2383C328.199 96.2383 328.849 95.961 329.361 95.4063C329.873 94.8516 330.129 94.1636 330.129 93.3423C330.129 92.521 329.873 91.833 329.361 91.2783C328.849 90.7236 328.199 90.4463 327.409 90.4463C326.609 90.4463 325.953 90.7236 325.441 91.2783C324.929 91.833 324.673 92.521 324.673 93.3423C324.673 94.1636 324.929 94.8516 325.441 95.4063C325.953 95.961 326.609 96.2383 327.409 96.2383ZM333.984 97.3423V89.3423H335.36V90.5743C335.904 89.6463 336.752 89.1823 337.904 89.1823C338.81 89.1823 339.541 89.4756 340.096 90.0623C340.65 90.649 340.928 91.433 340.928 92.4143V97.3423H339.568V92.6223C339.568 91.9503 339.397 91.4223 339.056 91.0383C338.714 90.6436 338.256 90.4463 337.68 90.4463C337.018 90.4463 336.464 90.7076 336.016 91.2303C335.578 91.753 335.36 92.4676 335.36 93.3743V97.3423H333.984ZM346.701 97.5023C345.592 97.5023 344.659 97.097 343.901 96.2863C343.155 95.4756 342.781 94.4943 342.781 93.3423C342.781 92.1903 343.155 91.209 343.901 90.3983C344.659 89.5876 345.592 89.1823 346.701 89.1823C347.288 89.1823 347.832 89.3156 348.333 89.5823C348.845 89.8383 349.24 90.169 349.517 90.5743V85.3423H350.893V97.3423H349.517V96.1103C349.24 96.5156 348.845 96.8516 348.333 97.1183C347.832 97.3743 347.288 97.5023 346.701 97.5023ZM346.909 96.2383C347.699 96.2383 348.349 95.961 348.861 95.4063C349.373 94.8516 349.629 94.1636 349.629 93.3423C349.629 92.521 349.373 91.833 348.861 91.2783C348.349 90.7236 347.699 90.4463 346.909 90.4463C346.109 90.4463 345.453 90.7236 344.941 91.2783C344.429 91.833 344.173 92.521 344.173 93.3423C344.173 94.1636 344.429 94.8516 344.941 95.4063C345.453 95.961 346.109 96.2383 346.909 96.2383ZM360.639 97.5023C359.53 97.5023 358.596 97.097 357.839 96.2863C357.092 95.4756 356.719 94.4943 356.719 93.3423C356.719 92.1903 357.092 91.209 357.839 90.3983C358.596 89.5876 359.53 89.1823 360.639 89.1823C361.226 89.1823 361.77 89.3156 362.271 89.5823C362.783 89.8383 363.178 90.169 363.455 90.5743V89.3423H364.831V97.3423H363.455V96.1103C363.178 96.5156 362.783 96.8516 362.271 97.1183C361.77 97.3743 361.226 97.5023 360.639 97.5023ZM360.847 96.2383C361.636 96.2383 362.287 95.961 362.799 95.4063C363.311 94.8516 363.567 94.1636 363.567 93.3423C363.567 92.521 363.311 91.833 362.799 91.2783C362.287 90.7236 361.636 90.4463 360.847 90.4463C360.047 90.4463 359.391 90.7236 358.879 91.2783C358.367 91.833 358.111 92.521 358.111 93.3423C358.111 94.1636 358.367 94.8516 358.879 95.4063C359.391 95.961 360.047 96.2383 360.847 96.2383ZM367.421 97.3423V85.3423H368.797V97.3423H367.421ZM371.405 97.3423V85.3423H372.781V97.3423H371.405ZM378.942 97.5023C377.736 97.5023 376.734 97.1023 375.934 96.3023C375.144 95.4916 374.75 94.505 374.75 93.3423C374.75 92.1796 375.144 91.1983 375.934 90.3983C376.734 89.5876 377.736 89.1823 378.942 89.1823C380.136 89.1823 381.128 89.5876 381.918 90.3983C382.718 91.1983 383.118 92.1796 383.118 93.3423C383.118 94.505 382.718 95.4916 381.918 96.3023C381.128 97.1023 380.136 97.5023 378.942 97.5023ZM376.926 95.3903C377.448 95.945 378.12 96.2223 378.942 96.2223C379.763 96.2223 380.43 95.945 380.942 95.3903C381.454 94.8356 381.71 94.153 381.71 93.3423C381.71 92.5316 381.454 91.849 380.942 91.2943C380.43 90.7396 379.763 90.4623 378.942 90.4623C378.12 90.4623 377.448 90.7396 376.926 91.2943C376.414 91.849 376.158 92.5316 376.158 93.3423C376.158 94.153 376.414 94.8356 376.926 95.3903ZM388.661 97.5023C387.456 97.5023 386.453 97.1023 385.653 96.3023C384.864 95.5023 384.469 94.5156 384.469 93.3423C384.469 92.169 384.864 91.1823 385.653 90.3823C386.453 89.5823 387.456 89.1823 388.661 89.1823C389.472 89.1823 390.197 89.3743 390.837 89.7583C391.488 90.1423 391.994 90.665 392.357 91.3263L391.157 91.9983C390.922 91.529 390.586 91.1556 390.149 90.8783C389.722 90.601 389.226 90.4623 388.661 90.4623C387.84 90.4623 387.168 90.7396 386.645 91.2943C386.122 91.849 385.861 92.5316 385.861 93.3423C385.861 94.153 386.122 94.8356 386.645 95.3903C387.168 95.945 387.84 96.2223 388.661 96.2223C389.226 96.2223 389.722 96.0836 390.149 95.8063C390.586 95.529 390.922 95.1556 391.157 94.6863L392.357 95.3583C391.994 96.0196 391.488 96.5423 390.837 96.9263C390.197 97.3103 389.472 97.5023 388.661 97.5023ZM397.436 97.5023C396.326 97.5023 395.393 97.097 394.636 96.2863C393.889 95.4756 393.516 94.4943 393.516 93.3423C393.516 92.1903 393.889 91.209 394.636 90.3983C395.393 89.5876 396.326 89.1823 397.436 89.1823C398.022 89.1823 398.566 89.3156 399.068 89.5823C399.58 89.8383 399.974 90.169 400.252 90.5743V89.3423H401.628V97.3423H400.252V96.1103C399.974 96.5156 399.58 96.8516 399.068 97.1183C398.566 97.3743 398.022 97.5023 397.436 97.5023ZM397.644 96.2383C398.433 96.2383 399.084 95.961 399.596 95.4063C400.108 94.8516 400.364 94.1636 400.364 93.3423C400.364 92.521 400.108 91.833 399.596 91.2783C399.084 90.7236 398.433 90.4463 397.644 90.4463C396.844 90.4463 396.188 90.7236 395.676 91.2783C395.164 91.833 394.908 92.521 394.908 93.3423C394.908 94.1636 395.164 94.8516 395.676 95.4063C396.188 95.961 396.844 96.2383 397.644 96.2383ZM407.322 97.4223C406.586 97.4223 405.994 97.2143 405.546 96.7983C405.098 96.3823 404.874 95.7743 404.874 94.9743V90.6063H403.178V89.3423H404.874V87.1183H406.25V89.3423H408.554V90.6063H406.25V94.7983C406.25 95.2996 406.357 95.6516 406.57 95.8543C406.783 96.057 407.119 96.1583 407.578 96.1583C407.983 96.1583 408.309 96.105 408.554 95.9983V97.2303C408.17 97.3583 407.759 97.4223 407.322 97.4223ZM413.722 97.5023C412.496 97.5023 411.498 97.1076 410.73 96.3183C409.962 95.529 409.578 94.537 409.578 93.3423C409.578 92.1583 409.968 91.1716 410.746 90.3823C411.525 89.5823 412.522 89.1823 413.738 89.1823C414.816 89.1823 415.717 89.545 416.442 90.2703C417.178 90.985 417.546 91.961 417.546 93.1983C417.546 93.3583 417.541 93.497 417.53 93.6143H410.97C410.992 94.361 411.258 94.985 411.77 95.4863C412.293 95.9876 412.949 96.2383 413.738 96.2383C414.858 96.2383 415.69 95.7743 416.234 94.8463L417.322 95.5983C416.544 96.8676 415.344 97.5023 413.722 97.5023ZM411.066 92.4943H416.138C416.032 91.8543 415.749 91.3476 415.29 90.9743C414.842 90.5903 414.309 90.3983 413.69 90.3983C413.061 90.3983 412.496 90.5903 411.994 90.9743C411.504 91.3476 411.194 91.8543 411.066 92.4943ZM426.197 97.4223C425.461 97.4223 424.869 97.2143 424.421 96.7983C423.973 96.3823 423.749 95.7743 423.749 94.9743V90.6063H422.053V89.3423H423.749V87.1183H425.125V89.3423H427.429V90.6063H425.125V94.7983C425.125 95.2996 425.232 95.6516 425.445 95.8543C425.658 96.057 425.994 96.1583 426.453 96.1583C426.858 96.1583 427.184 96.105 427.429 95.9983V97.2303C427.045 97.3583 426.634 97.4223 426.197 97.4223ZM432.629 97.5023C431.424 97.5023 430.421 97.1023 429.621 96.3023C428.832 95.4916 428.437 94.505 428.437 93.3423C428.437 92.1796 428.832 91.1983 429.621 90.3983C430.421 89.5876 431.424 89.1823 432.629 89.1823C433.824 89.1823 434.816 89.5876 435.605 90.3983C436.405 91.1983 436.805 92.1796 436.805 93.3423C436.805 94.505 436.405 95.4916 435.605 96.3023C434.816 97.1023 433.824 97.5023 432.629 97.5023ZM430.613 95.3903C431.136 95.945 431.808 96.2223 432.629 96.2223C433.451 96.2223 434.117 95.945 434.629 95.3903C435.141 94.8356 435.397 94.153 435.397 93.3423C435.397 92.5316 435.141 91.849 434.629 91.2943C434.117 90.7396 433.451 90.4623 432.629 90.4623C431.808 90.4623 431.136 90.7396 430.613 91.2943C430.101 91.849 429.845 92.5316 429.845 93.3423C429.845 94.153 430.101 94.8356 430.613 95.3903ZM445.936 97.5023C444.826 97.5023 443.893 97.097 443.136 96.2863C442.389 95.4756 442.016 94.4943 442.016 93.3423C442.016 92.1903 442.389 91.209 443.136 90.3983C443.893 89.5876 444.826 89.1823 445.936 89.1823C446.522 89.1823 447.066 89.3156 447.568 89.5823C448.08 89.8383 448.474 90.169 448.752 90.5743V85.3423H450.128V97.3423H448.752V96.1103C448.474 96.5156 448.08 96.8516 447.568 97.1183C447.066 97.3743 446.522 97.5023 445.936 97.5023ZM446.144 96.2383C446.933 96.2383 447.584 95.961 448.096 95.4063C448.608 94.8516 448.864 94.1636 448.864 93.3423C448.864 92.521 448.608 91.833 448.096 91.2783C447.584 90.7236 446.933 90.4463 446.144 90.4463C445.344 90.4463 444.688 90.7236 444.176 91.2783C443.664 91.833 443.408 92.521 443.408 93.3423C443.408 94.1636 443.664 94.8516 444.176 95.4063C444.688 95.961 445.344 96.2383 446.144 96.2383ZM454.11 86.9263C453.929 87.1076 453.699 87.1983 453.422 87.1983C453.145 87.1983 452.91 87.1076 452.718 86.9263C452.526 86.7343 452.43 86.4996 452.43 86.2223C452.43 85.9556 452.526 85.7263 452.718 85.5343C452.91 85.3423 453.145 85.2463 453.422 85.2463C453.699 85.2463 453.929 85.3423 454.11 85.5343C454.291 85.7263 454.382 85.9556 454.382 86.2223C454.382 86.4996 454.291 86.7343 454.11 86.9263ZM452.718 97.3423V89.3423H454.094V97.3423H452.718ZM457.374 97.3423V90.6063H455.678V89.3423H457.374V87.6943C457.374 86.8943 457.598 86.2863 458.046 85.8703C458.494 85.4543 459.086 85.2463 459.822 85.2463C460.26 85.2463 460.676 85.3156 461.07 85.4543V86.6703C460.846 86.5636 460.516 86.5103 460.078 86.5103C459.62 86.5103 459.284 86.6116 459.07 86.8143C458.857 87.017 458.75 87.369 458.75 87.8703V89.3423H460.718V90.6063H458.75V97.3423H457.374ZM462.974 97.3423V90.6063H461.598V89.3423H462.974V87.6943C462.974 86.8943 463.198 86.2863 463.646 85.8703C464.094 85.4543 464.686 85.2463 465.422 85.2463C465.86 85.2463 466.276 85.3156 466.67 85.4543V86.6703C466.425 86.5636 466.089 86.5103 465.662 86.5103C465.204 86.5103 464.868 86.6116 464.654 86.8143C464.452 87.017 464.35 87.369 464.35 87.8703V89.3423H466.67V90.6063H464.35V97.3423H462.974ZM471.488 97.5023C470.261 97.5023 469.264 97.1076 468.496 96.3183C467.728 95.529 467.344 94.537 467.344 93.3423C467.344 92.1583 467.733 91.1716 468.512 90.3823C469.291 89.5823 470.288 89.1823 471.504 89.1823C472.581 89.1823 473.483 89.545 474.208 90.2703C474.944 90.985 475.312 91.961 475.312 93.1983C475.312 93.3583 475.307 93.497 475.296 93.6143H468.736C468.757 94.361 469.024 94.985 469.536 95.4863C470.059 95.9876 470.715 96.2383 471.504 96.2383C472.624 96.2383 473.456 95.7743 474 94.8463L475.088 95.5983C474.309 96.8676 473.109 97.5023 471.488 97.5023ZM468.832 92.4943H473.904C473.797 91.8543 473.515 91.3476 473.056 90.9743C472.608 90.5903 472.075 90.3983 471.456 90.3983C470.827 90.3983 470.261 90.5903 469.76 90.9743C469.269 91.3476 468.96 91.8543 468.832 92.4943ZM477.265 97.3423V89.3423H478.641V90.8943C478.79 90.4036 479.078 90.009 479.505 89.7103C479.942 89.4116 480.401 89.2623 480.881 89.2623C481.115 89.2623 481.323 89.2836 481.505 89.3263V90.7503C481.313 90.665 481.062 90.6223 480.753 90.6223C480.198 90.6223 479.707 90.8623 479.281 91.3423C478.854 91.8223 478.641 92.4996 478.641 93.3743V97.3423H477.265ZM486.363 97.5023C485.136 97.5023 484.139 97.1076 483.371 96.3183C482.603 95.529 482.219 94.537 482.219 93.3423C482.219 92.1583 482.608 91.1716 483.387 90.3823C484.166 89.5823 485.163 89.1823 486.379 89.1823C487.456 89.1823 488.358 89.545 489.083 90.2703C489.819 90.985 490.187 91.961 490.187 93.1983C490.187 93.3583 490.182 93.497 490.171 93.6143H483.611C483.632 94.361 483.899 94.985 484.411 95.4863C484.934 95.9876 485.59 96.2383 486.379 96.2383C487.499 96.2383 488.331 95.7743 488.875 94.8463L489.963 95.5983C489.184 96.8676 487.984 97.5023 486.363 97.5023ZM483.707 92.4943H488.779C488.672 91.8543 488.39 91.3476 487.931 90.9743C487.483 90.5903 486.95 90.3983 486.331 90.3983C485.702 90.3983 485.136 90.5903 484.635 90.9743C484.144 91.3476 483.835 91.8543 483.707 92.4943ZM492.14 97.3423V89.3423H493.516V90.5743C494.06 89.6463 494.908 89.1823 496.06 89.1823C496.966 89.1823 497.697 89.4756 498.252 90.0623C498.806 90.649 499.084 91.433 499.084 92.4143V97.3423H497.724V92.6223C497.724 91.9503 497.553 91.4223 497.212 91.0383C496.87 90.6436 496.412 90.4463 495.836 90.4463C495.174 90.4463 494.62 90.7076 494.172 91.2303C493.734 91.753 493.516 92.4676 493.516 93.3743V97.3423H492.14ZM504.572 97.4223C503.836 97.4223 503.244 97.2143 502.796 96.7983C502.348 96.3823 502.124 95.7743 502.124 94.9743V90.6063H500.428V89.3423H502.124V87.1183H503.5V89.3423H505.804V90.6063H503.5V94.7983C503.5 95.2996 503.607 95.6516 503.82 95.8543C504.033 96.057 504.369 96.1583 504.828 96.1583C505.233 96.1583 505.559 96.105 505.804 95.9983V97.2303C505.42 97.3583 505.009 97.4223 504.572 97.4223ZM514.989 97.5023C513.784 97.5023 512.781 97.1023 511.981 96.3023C511.192 95.5023 510.797 94.5156 510.797 93.3423C510.797 92.169 511.192 91.1823 511.981 90.3823C512.781 89.5823 513.784 89.1823 514.989 89.1823C515.8 89.1823 516.525 89.3743 517.165 89.7583C517.816 90.1423 518.322 90.665 518.685 91.3263L517.485 91.9983C517.25 91.529 516.914 91.1556 516.477 90.8783C516.05 90.601 515.554 90.4623 514.989 90.4623C514.168 90.4623 513.496 90.7396 512.973 91.2943C512.45 91.849 512.189 92.5316 512.189 93.3423C512.189 94.153 512.45 94.8356 512.973 95.3903C513.496 95.945 514.168 96.2223 514.989 96.2223C515.554 96.2223 516.05 96.0836 516.477 95.8063C516.914 95.529 517.25 95.1556 517.485 94.6863L518.685 95.3583C518.322 96.0196 517.816 96.5423 517.165 96.9263C516.525 97.3103 515.8 97.5023 514.989 97.5023ZM520.468 97.3423V85.3423H521.844V97.3423H520.468ZM525.844 86.9263C525.663 87.1076 525.434 87.1983 525.156 87.1983C524.879 87.1983 524.644 87.1076 524.452 86.9263C524.26 86.7343 524.164 86.4996 524.164 86.2223C524.164 85.9556 524.26 85.7263 524.452 85.5343C524.644 85.3423 524.879 85.2463 525.156 85.2463C525.434 85.2463 525.663 85.3423 525.844 85.5343C526.026 85.7263 526.116 85.9556 526.116 86.2223C526.116 86.4996 526.026 86.7343 525.844 86.9263ZM524.452 97.3423V89.3423H525.828V97.3423H524.452ZM531.957 97.5023C530.73 97.5023 529.733 97.1076 528.965 96.3183C528.197 95.529 527.813 94.537 527.813 93.3423C527.813 92.1583 528.202 91.1716 528.981 90.3823C529.759 89.5823 530.757 89.1823 531.973 89.1823C533.05 89.1823 533.951 89.545 534.677 90.2703C535.413 90.985 535.781 91.961 535.781 93.1983C535.781 93.3583 535.775 93.497 535.765 93.6143H529.205C529.226 94.361 529.493 94.985 530.005 95.4863C530.527 95.9876 531.183 96.2383 531.973 96.2383C533.093 96.2383 533.925 95.7743 534.469 94.8463L535.557 95.5983C534.778 96.8676 533.578 97.5023 531.957 97.5023ZM529.301 92.4943H534.373C534.266 91.8543 533.983 91.3476 533.525 90.9743C533.077 90.5903 532.543 90.3983 531.925 90.3983C531.295 90.3983 530.73 90.5903 530.229 90.9743C529.738 91.3476 529.429 91.8543 529.301 92.4943ZM537.734 97.3423V89.3423H539.11V90.5743C539.654 89.6463 540.502 89.1823 541.654 89.1823C542.56 89.1823 543.291 89.4756 543.846 90.0623C544.4 90.649 544.678 91.433 544.678 92.4143V97.3423H543.318V92.6223C543.318 91.9503 543.147 91.4223 542.806 91.0383C542.464 90.6436 542.006 90.4463 541.43 90.4463C540.768 90.4463 540.214 90.7076 539.766 91.2303C539.328 91.753 539.11 92.4676 539.11 93.3743V97.3423H537.734ZM550.166 97.4223C549.43 97.4223 548.838 97.2143 548.39 96.7983C547.942 96.3823 547.718 95.7743 547.718 94.9743V90.6063H546.022V89.3423H547.718V87.1183H549.094V89.3423H551.398V90.6063H549.094V94.7983C549.094 95.2996 549.2 95.6516 549.414 95.8543C549.627 96.057 549.963 96.1583 550.422 96.1583C550.827 96.1583 551.152 96.105 551.398 95.9983V97.2303C551.014 97.3583 550.603 97.4223 550.166 97.4223ZM555.571 97.5023C554.835 97.5023 554.19 97.3476 553.635 97.0383C553.081 96.7183 552.681 96.2543 552.435 95.6463L553.555 95.0223C553.705 95.417 553.966 95.7263 554.339 95.9503C554.713 96.1743 555.129 96.2863 555.587 96.2863C555.982 96.2863 556.313 96.1903 556.579 95.9983C556.846 95.8063 556.979 95.545 556.979 95.2143C556.979 94.9263 556.873 94.6863 556.659 94.4943C556.457 94.3023 556.099 94.1263 555.587 93.9663L554.787 93.7103C553.454 93.3263 552.787 92.5476 552.787 91.3743C552.787 90.713 553.049 90.185 553.571 89.7903C554.105 89.385 554.761 89.1823 555.539 89.1823C556.755 89.1823 557.635 89.6463 558.179 90.5743L557.155 91.2783C556.718 90.6703 556.163 90.3663 555.491 90.3663C555.129 90.3663 554.814 90.457 554.547 90.6383C554.291 90.809 554.163 91.0383 554.163 91.3263C554.163 91.593 554.243 91.8223 554.403 92.0143C554.574 92.1956 554.873 92.3503 555.299 92.4783L556.179 92.7503C557.63 93.1983 558.355 93.9823 558.355 95.1023C558.355 95.849 558.094 96.4356 557.571 96.8623C557.059 97.289 556.393 97.5023 555.571 97.5023ZM561.911 97.1183C561.687 97.353 561.409 97.4703 561.079 97.4703C560.748 97.4703 560.465 97.353 560.231 97.1183C560.007 96.8836 559.895 96.601 559.895 96.2703C559.895 95.9503 560.012 95.673 560.247 95.4383C560.481 95.193 560.759 95.0703 561.079 95.0703C561.399 95.0703 561.676 95.193 561.911 95.4383C562.145 95.673 562.263 95.9503 562.263 96.2703C562.263 96.601 562.145 96.8836 561.911 97.1183Z" fill="white"/>
<g opacity="0.5" clipPath="url(#clip2_11038_151311)">
<circle cx="1244.64" cy="87.6614" r="46.3" transform="rotate(90 1244.64 87.6614)" fill="white" fill-opacity="0.1"/>
<path opacity="0.1" d="M1105.06 -4.93872C1105.06 1.14149 1106.26 7.16216 1108.59 12.7795C1110.91 18.3969 1114.32 23.501 1118.62 27.8004C1122.92 32.0997 1128.03 35.5102 1133.64 37.8369C1139.26 40.1637 1145.28 41.3613 1151.36 41.3613C1157.44 41.3613 1163.46 40.1637 1169.08 37.8369C1174.7 35.5101 1179.8 32.0997 1184.1 27.8003C1188.4 23.501 1191.81 18.3969 1194.14 12.7795C1196.47 7.16215 1197.66 1.14148 1197.66 -4.93874L1151.36 -4.93872L1105.06 -4.93872Z" fill="white"/>
<path opacity="0.1" d="M1058.54 134.043C1064.64 134.043 1070.69 132.841 1076.33 130.505C1081.97 128.169 1087.09 124.745 1091.41 120.429C1095.72 116.113 1099.15 110.989 1101.48 105.35C1103.82 99.7103 1105.02 93.6661 1105.02 87.5622C1105.02 81.4582 1103.82 75.4141 1101.48 69.7748C1099.15 64.1354 1095.72 59.0114 1091.41 54.6953C1087.09 50.3792 1081.97 46.9554 1076.33 44.6195C1070.69 42.2837 1064.64 41.0814 1058.54 41.0814L1058.54 87.5622L1058.54 134.043Z" fill="white"/>
<rect opacity="0.2" x="1198" y="41.1104" width="92.9304" height="92.9316" transform="rotate(90 1198 41.1104)" fill="white"/>
<path d="M1198 41.1104L1247.5 -7.04298L1290.93 -51.8201L1290.93 41.1104L1198 41.1104Z" fill="white" fill-opacity="0.15"/>
</g>
<path d="M1061.92 71.216C1060.08 71.216 1058.52 70.58 1057.24 69.308C1055.95 68.024 1055.31 66.458 1055.31 64.61C1055.31 62.762 1055.95 61.202 1057.24 59.93C1058.52 58.646 1060.08 58.004 1061.92 58.004C1063.13 58.004 1064.23 58.28 1065.21 58.832C1066.19 59.384 1066.98 60.14 1067.57 61.1L1066.16 61.946C1065.71 61.214 1065.11 60.638 1064.38 60.218C1063.65 59.798 1062.83 59.588 1061.92 59.588C1060.52 59.588 1059.35 60.074 1058.41 61.046C1057.47 62.018 1057 63.206 1057 64.61C1057 66.014 1057.47 67.202 1058.41 68.174C1059.35 69.146 1060.52 69.632 1061.92 69.632C1062.83 69.632 1063.65 69.422 1064.38 69.002C1065.11 68.582 1065.71 68.006 1066.16 67.274L1067.57 68.12C1066.98 69.08 1066.19 69.836 1065.21 70.388C1064.23 70.94 1063.13 71.216 1061.92 71.216ZM1069.55 71V62H1071.09V63.746C1071.26 63.194 1071.59 62.75 1072.07 62.414C1072.56 62.078 1073.07 61.91 1073.61 61.91C1073.88 61.91 1074.11 61.934 1074.32 61.982V63.584C1074.1 63.488 1073.82 63.44 1073.47 63.44C1072.85 63.44 1072.29 63.71 1071.81 64.25C1071.33 64.79 1071.09 65.552 1071.09 66.536V71H1069.55ZM1079.78 71.18C1078.4 71.18 1077.28 70.736 1076.42 69.848C1075.55 68.96 1075.12 67.844 1075.12 66.5C1075.12 65.168 1075.56 64.058 1076.43 63.17C1077.31 62.27 1078.43 61.82 1079.8 61.82C1081.01 61.82 1082.03 62.228 1082.84 63.044C1083.67 63.848 1084.08 64.946 1084.08 66.338C1084.08 66.518 1084.08 66.674 1084.07 66.806H1076.69C1076.71 67.646 1077.01 68.348 1077.59 68.912C1078.17 69.476 1078.91 69.758 1079.8 69.758C1081.06 69.758 1082 69.236 1082.61 68.192L1083.83 69.038C1082.96 70.466 1081.61 71.18 1079.78 71.18ZM1076.79 65.546H1082.5C1082.38 64.826 1082.06 64.256 1081.55 63.836C1081.04 63.404 1080.44 63.188 1079.75 63.188C1079.04 63.188 1078.4 63.404 1077.84 63.836C1077.29 64.256 1076.94 64.826 1076.79 65.546ZM1089.99 71.18C1088.74 71.18 1087.69 70.724 1086.84 69.812C1086 68.9 1085.58 67.796 1085.58 66.5C1085.58 65.204 1086 64.1 1086.84 63.188C1087.69 62.276 1088.74 61.82 1089.99 61.82C1090.65 61.82 1091.26 61.97 1091.82 62.27C1092.4 62.558 1092.84 62.93 1093.16 63.386V62H1094.7V71H1093.16V69.614C1092.84 70.07 1092.4 70.448 1091.82 70.748C1091.26 71.036 1090.65 71.18 1089.99 71.18ZM1090.22 69.758C1091.11 69.758 1091.84 69.446 1092.42 68.822C1092.99 68.198 1093.28 67.424 1093.28 66.5C1093.28 65.576 1092.99 64.802 1092.42 64.178C1091.84 63.554 1091.11 63.242 1090.22 63.242C1089.32 63.242 1088.58 63.554 1088.01 64.178C1087.43 64.802 1087.14 65.576 1087.14 66.5C1087.14 67.424 1087.43 68.198 1088.01 68.822C1088.58 69.446 1089.32 69.758 1090.22 69.758ZM1101.11 71.09C1100.28 71.09 1099.62 70.856 1099.11 70.388C1098.61 69.92 1098.36 69.236 1098.36 68.336V63.422H1096.45V62H1098.36V59.498H1099.9V62H1102.5V63.422H1099.9V68.138C1099.9 68.702 1100.02 69.098 1100.26 69.326C1100.5 69.554 1100.88 69.668 1101.4 69.668C1101.85 69.668 1102.22 69.608 1102.5 69.488V70.874C1102.06 71.018 1101.6 71.09 1101.11 71.09ZM1108.31 71.18C1106.93 71.18 1105.81 70.736 1104.94 69.848C1104.08 68.96 1103.65 67.844 1103.65 66.5C1103.65 65.168 1104.09 64.058 1104.96 63.17C1105.84 62.27 1106.96 61.82 1108.33 61.82C1109.54 61.82 1110.55 62.228 1111.37 63.044C1112.2 63.848 1112.61 64.946 1112.61 66.338C1112.61 66.518 1112.61 66.674 1112.59 66.806H1105.21C1105.24 67.646 1105.54 68.348 1106.11 68.912C1106.7 69.476 1107.44 69.758 1108.33 69.758C1109.59 69.758 1110.52 69.236 1111.14 68.192L1112.36 69.038C1111.48 70.466 1110.13 71.18 1108.31 71.18ZM1105.32 65.546H1111.03C1110.91 64.826 1110.59 64.256 1110.07 63.836C1109.57 63.404 1108.97 63.188 1108.27 63.188C1107.57 63.188 1106.93 63.404 1106.37 63.836C1105.81 64.256 1105.47 64.826 1105.32 65.546ZM1117.2 71L1122.86 58.22H1124.24L1129.91 71H1128.17L1126.51 67.274H1120.55L1118.93 71H1117.2ZM1123.52 60.488L1121.22 65.762H1125.84L1123.52 60.488ZM1131.47 71V57.5H1133.02V71H1131.47ZM1135.96 71V57.5H1137.5V71H1135.96ZM1144.43 71.18C1143.08 71.18 1141.95 70.73 1141.05 69.83C1140.16 68.918 1139.72 67.808 1139.72 66.5C1139.72 65.192 1140.16 64.088 1141.05 63.188C1141.95 62.276 1143.08 61.82 1144.43 61.82C1145.78 61.82 1146.89 62.276 1147.78 63.188C1148.68 64.088 1149.13 65.192 1149.13 66.5C1149.13 67.808 1148.68 68.918 1147.78 69.83C1146.89 70.73 1145.78 71.18 1144.43 71.18ZM1142.17 68.804C1142.75 69.428 1143.51 69.74 1144.43 69.74C1145.36 69.74 1146.11 69.428 1146.68 68.804C1147.26 68.18 1147.55 67.412 1147.55 66.5C1147.55 65.588 1147.26 64.82 1146.68 64.196C1146.11 63.572 1145.36 63.26 1144.43 63.26C1143.51 63.26 1142.75 63.572 1142.17 64.196C1141.59 64.82 1141.3 65.588 1141.3 66.5C1141.3 67.412 1141.59 68.18 1142.17 68.804ZM1155.37 71.18C1154.01 71.18 1152.88 70.73 1151.98 69.83C1151.1 68.93 1150.65 67.82 1150.65 66.5C1150.65 65.18 1151.1 64.07 1151.98 63.17C1152.88 62.27 1154.01 61.82 1155.37 61.82C1156.28 61.82 1157.1 62.036 1157.82 62.468C1158.55 62.9 1159.12 63.488 1159.53 64.232L1158.18 64.988C1157.91 64.46 1157.53 64.04 1157.04 63.728C1156.56 63.416 1156 63.26 1155.37 63.26C1154.44 63.26 1153.69 63.572 1153.1 64.196C1152.51 64.82 1152.22 65.588 1152.22 66.5C1152.22 67.412 1152.51 68.18 1153.1 68.804C1153.69 69.428 1154.44 69.74 1155.37 69.74C1156 69.74 1156.56 69.584 1157.04 69.272C1157.53 68.96 1157.91 68.54 1158.18 68.012L1159.53 68.768C1159.12 69.512 1158.55 70.1 1157.82 70.532C1157.1 70.964 1156.28 71.18 1155.37 71.18ZM1165.24 71.18C1163.99 71.18 1162.94 70.724 1162.09 69.812C1161.25 68.9 1160.83 67.796 1160.83 66.5C1160.83 65.204 1161.25 64.1 1162.09 63.188C1162.94 62.276 1163.99 61.82 1165.24 61.82C1165.9 61.82 1166.51 61.97 1167.08 62.27C1167.65 62.558 1168.1 62.93 1168.41 63.386V62H1169.96V71H1168.41V69.614C1168.1 70.07 1167.65 70.448 1167.08 70.748C1166.51 71.036 1165.9 71.18 1165.24 71.18ZM1165.47 69.758C1166.36 69.758 1167.09 69.446 1167.67 68.822C1168.25 68.198 1168.53 67.424 1168.53 66.5C1168.53 65.576 1168.25 64.802 1167.67 64.178C1167.09 63.554 1166.36 63.242 1165.47 63.242C1164.57 63.242 1163.84 63.554 1163.26 64.178C1162.68 64.802 1162.4 65.576 1162.4 66.5C1162.4 67.424 1162.68 68.198 1163.26 68.822C1163.84 69.446 1164.57 69.758 1165.47 69.758ZM1176.36 71.09C1175.53 71.09 1174.87 70.856 1174.36 70.388C1173.86 69.92 1173.61 69.236 1173.61 68.336V63.422H1171.7V62H1173.61V59.498H1175.16V62H1177.75V63.422H1175.16V68.138C1175.16 68.702 1175.28 69.098 1175.52 69.326C1175.76 69.554 1176.13 69.668 1176.65 69.668C1177.11 69.668 1177.47 69.608 1177.75 69.488V70.874C1177.32 71.018 1176.85 71.09 1176.36 71.09ZM1181.29 59.282C1181.09 59.486 1180.83 59.588 1180.52 59.588C1180.21 59.588 1179.94 59.486 1179.73 59.282C1179.51 59.066 1179.4 58.802 1179.4 58.49C1179.4 58.19 1179.51 57.932 1179.73 57.716C1179.94 57.5 1180.21 57.392 1180.52 57.392C1180.83 57.392 1181.09 57.5 1181.29 57.716C1181.5 57.932 1181.6 58.19 1181.6 58.49C1181.6 58.802 1181.5 59.066 1181.29 59.282ZM1179.73 71V62H1181.27V71H1179.73ZM1188.2 71.18C1186.85 71.18 1185.72 70.73 1184.82 69.83C1183.93 68.918 1183.49 67.808 1183.49 66.5C1183.49 65.192 1183.93 64.088 1184.82 63.188C1185.72 62.276 1186.85 61.82 1188.2 61.82C1189.55 61.82 1190.66 62.276 1191.55 63.188C1192.45 64.088 1192.9 65.192 1192.9 66.5C1192.9 67.808 1192.45 68.918 1191.55 69.83C1190.66 70.73 1189.55 71.18 1188.2 71.18ZM1185.94 68.804C1186.52 69.428 1187.28 69.74 1188.2 69.74C1189.13 69.74 1189.88 69.428 1190.45 68.804C1191.03 68.18 1191.32 67.412 1191.32 66.5C1191.32 65.588 1191.03 64.82 1190.45 64.196C1189.88 63.572 1189.13 63.26 1188.2 63.26C1187.28 63.26 1186.52 63.572 1185.94 64.196C1185.36 64.82 1185.07 65.588 1185.07 66.5C1185.07 67.412 1185.36 68.18 1185.94 68.804ZM1195.12 71V62H1196.67V63.386C1197.28 62.342 1198.24 61.82 1199.53 61.82C1200.55 61.82 1201.38 62.15 1202 62.81C1202.62 63.47 1202.94 64.352 1202.94 65.456V71H1201.41V65.69C1201.41 64.934 1201.21 64.34 1200.83 63.908C1200.45 63.464 1199.93 63.242 1199.28 63.242C1198.54 63.242 1197.91 63.536 1197.41 64.124C1196.92 64.712 1196.67 65.516 1196.67 66.536V71H1195.12Z" fill="white"/>
<rect x="1030.5" y="37.5" width="198" height="54" rx="11.5" stroke="white"/>
<defs>
<clipPath id="clip0_11038_151311">
<rect width="619" height="128" fill="white"/>
</clipPath>
<clipPath id="clip1_11038_151311">
<rect width="618.656" height="182.359" fill="white" transform="translate(0.496094 -0.359375)"/>
</clipPath>
<clipPath id="clip2_11038_151311">
<rect width="232" height="128" fill="white" transform="translate(1059)"/>
</clipPath>
</defs>
</svg>
