<svg width="1291" height="128" viewBox="0 0 1291 128" fill="none" xmlns="http://www.w3.org/2000/svg">
<rect x="5" width="1284" height="128" rx="20" fill="#1D6169"/>
<g opacity="0.5" clipPath="url(#clip0_11038_151355)">
<g clipPath="url(#clip1_11038_151355)">
<mask id="mask0_11038_151355" style="mask-type:alpha" maskUnits="userSpaceOnUse" x="0" y="-1" width="620" height="183">
<rect x="0.496094" y="-0.359375" width="618.656" height="182.359" rx="9.957" fill="#4A3AFF"/>
</mask>
<g mask="url(#mask0_11038_151355)">
<path opacity="0.1" d="M183.637 91.8896L93.5264 182L93.5264 91.8896L183.637 91.8896Z" fill="white"/>
<rect opacity="0.2" x="93.5" y="-1.04053" width="92.9304" height="92.9316" transform="rotate(90 93.5 -1.04053)" fill="white"/>
</g>
</g>
</g>
<path d="M72.14 46L65.85 22.2H70.508L74.792 41.138L79.824 22.2H84.618L89.514 41.138L93.798 22.2H98.49L92.03 46H86.862L82.136 28.354L77.274 46H72.14ZM101.542 46V21.52H105.894V31.72C106.461 30.7907 107.22 30.0653 108.172 29.544C109.147 29 110.257 28.728 111.504 28.728C113.589 28.728 115.199 29.3853 116.332 30.7C117.488 32.0147 118.066 33.9413 118.066 36.48V46H113.748V36.888C113.748 35.4373 113.453 34.3267 112.864 33.556C112.297 32.7853 111.391 32.4 110.144 32.4C108.92 32.4 107.9 32.8307 107.084 33.692C106.291 34.5533 105.894 35.7547 105.894 37.296V46H101.542ZM128.042 46.408C126.591 46.408 125.401 46.1813 124.472 45.728C123.542 45.252 122.851 44.6287 122.398 43.858C121.944 43.0873 121.718 42.2373 121.718 41.308C121.718 39.744 122.33 38.4747 123.554 37.5C124.778 36.5253 126.614 36.038 129.062 36.038H133.346V35.63C133.346 34.474 133.017 33.624 132.36 33.08C131.702 32.536 130.886 32.264 129.912 32.264C129.028 32.264 128.257 32.4793 127.6 32.91C126.942 33.318 126.534 33.93 126.376 34.746H122.126C122.239 33.522 122.647 32.4567 123.35 31.55C124.075 30.6433 125.004 29.952 126.138 29.476C127.271 28.9773 128.54 28.728 129.946 28.728C132.348 28.728 134.241 29.3287 135.624 30.53C137.006 31.7313 137.698 33.4313 137.698 35.63V46H133.992L133.584 43.28C133.085 44.1867 132.382 44.9347 131.476 45.524C130.592 46.1133 129.447 46.408 128.042 46.408ZM129.028 43.008C130.274 43.008 131.238 42.6 131.918 41.784C132.62 40.968 133.062 39.9593 133.244 38.758H129.538C128.382 38.758 127.554 38.9733 127.056 39.404C126.557 39.812 126.308 40.322 126.308 40.934C126.308 41.5913 126.557 42.1013 127.056 42.464C127.554 42.8267 128.212 43.008 129.028 43.008ZM149.132 46C147.364 46 145.948 45.5693 144.882 44.708C143.817 43.8467 143.284 42.3167 143.284 40.118V32.774H140.394V29.136H143.284L143.794 24.614H147.636V29.136H152.192V32.774H147.636V40.152C147.636 40.968 147.806 41.5347 148.146 41.852C148.509 42.1467 149.121 42.294 149.982 42.294H152.09V46H149.132ZM164.03 46V29.136H167.872L168.212 31.992C168.734 30.9947 169.482 30.2013 170.456 29.612C171.454 29.0227 172.621 28.728 173.958 28.728C176.044 28.728 177.664 29.3853 178.82 30.7C179.976 32.0147 180.554 33.9413 180.554 36.48V46H176.202V36.888C176.202 35.4373 175.908 34.3267 175.318 33.556C174.729 32.7853 173.811 32.4 172.564 32.4C171.34 32.4 170.332 32.8307 169.538 33.692C168.768 34.5533 168.382 35.7547 168.382 37.296V46H164.03ZM192.91 46.408C191.21 46.408 189.703 46.0453 188.388 45.32C187.073 44.5947 186.042 43.5747 185.294 42.26C184.546 40.9453 184.172 39.4267 184.172 37.704C184.172 35.9587 184.535 34.406 185.26 33.046C186.008 31.686 187.028 30.632 188.32 29.884C189.635 29.1133 191.176 28.728 192.944 28.728C194.599 28.728 196.061 29.0907 197.33 29.816C198.599 30.5413 199.585 31.5387 200.288 32.808C201.013 34.0547 201.376 35.4487 201.376 36.99C201.376 37.2393 201.365 37.5 201.342 37.772C201.342 38.044 201.331 38.3273 201.308 38.622H188.49C188.581 39.9367 189.034 40.968 189.85 41.716C190.689 42.464 191.697 42.838 192.876 42.838C193.76 42.838 194.497 42.6453 195.086 42.26C195.698 41.852 196.151 41.3307 196.446 40.696H200.866C200.549 41.7613 200.016 42.736 199.268 43.62C198.543 44.4813 197.636 45.1613 196.548 45.66C195.483 46.1587 194.27 46.408 192.91 46.408ZM192.944 32.264C191.879 32.264 190.938 32.57 190.122 33.182C189.306 33.7713 188.785 34.678 188.558 35.902H196.956C196.888 34.7913 196.48 33.9073 195.732 33.25C194.984 32.5927 194.055 32.264 192.944 32.264ZM202.276 46L208.396 37.568L202.276 29.136H206.934L211.218 35.12L215.468 29.136H220.16L214.006 37.568L220.16 46H215.468L211.218 40.016L206.934 46H202.276ZM230.447 46C228.679 46 227.262 45.5693 226.197 44.708C225.131 43.8467 224.599 42.3167 224.599 40.118V32.774H221.709V29.136H224.599L225.109 24.614H228.951V29.136H233.507V32.774H228.951V40.152C228.951 40.968 229.121 41.5347 229.461 41.852C229.823 42.1467 230.435 42.294 231.297 42.294H233.405V46H230.447ZM239.691 38.588L239.555 32.978H241.119C242.275 32.978 243.329 32.876 244.281 32.672C245.233 32.468 245.993 32.0713 246.559 31.482C247.126 30.8927 247.409 30.0313 247.409 28.898C247.409 27.81 247.081 26.96 246.423 26.348C245.766 25.7133 244.893 25.396 243.805 25.396C242.672 25.396 241.788 25.7133 241.153 26.348C240.519 26.96 240.201 27.7987 240.201 28.864H236.087C236.065 27.504 236.359 26.2913 236.971 25.226C237.583 24.1607 238.467 23.322 239.623 22.71C240.802 22.098 242.207 21.792 243.839 21.792C245.358 21.792 246.695 22.0753 247.851 22.642C249.03 23.2087 249.948 24.0247 250.605 25.09C251.285 26.1327 251.625 27.4133 251.625 28.932C251.625 30.496 251.274 31.788 250.571 32.808C249.891 33.828 248.951 34.5873 247.749 35.086C246.571 35.5847 245.199 35.8453 243.635 35.868L243.533 38.588H239.691ZM241.629 46.238C240.836 46.238 240.179 45.9887 239.657 45.49C239.159 44.9913 238.909 44.3907 238.909 43.688C238.909 42.9627 239.159 42.3507 239.657 41.852C240.179 41.3533 240.836 41.104 241.629 41.104C242.423 41.104 243.069 41.3533 243.567 41.852C244.066 42.3507 244.315 42.9627 244.315 43.688C244.315 44.3907 244.066 44.9913 243.567 45.49C243.069 45.9887 242.423 46.238 241.629 46.238Z" fill="white"/>
<path d="M72.792 72.664C73.5173 73.3467 73.88 74.2107 73.88 75.256C73.88 76.3013 73.5173 77.1653 72.792 77.848C72.0773 78.52 71.1387 78.856 69.976 78.856H67.992V83H66.504V71.64H69.976C71.1387 71.64 72.0773 71.9813 72.792 72.664ZM71.752 76.856C72.1893 76.44 72.408 75.9067 72.408 75.256C72.408 74.6053 72.1893 74.072 71.752 73.656C71.3253 73.24 70.7333 73.032 69.976 73.032H67.992V77.48H69.976C70.7333 77.48 71.3253 77.272 71.752 76.856ZM75.6398 83V71H77.0158V83H75.6398ZM83.1441 83.16C81.9175 83.16 80.9201 82.7653 80.1521 81.976C79.3841 81.1867 79.0001 80.1947 79.0001 79C79.0001 77.816 79.3895 76.8293 80.1681 76.04C80.9468 75.24 81.9441 74.84 83.1601 74.84C84.2375 74.84 85.1388 75.2027 85.8641 75.928C86.6001 76.6427 86.9681 77.6187 86.9681 78.856C86.9681 79.016 86.9628 79.1547 86.9521 79.272H80.3921C80.4135 80.0187 80.6801 80.6427 81.1921 81.144C81.7148 81.6453 82.3708 81.896 83.1601 81.896C84.2801 81.896 85.1121 81.432 85.6561 80.504L86.7441 81.256C85.9655 82.5253 84.7655 83.16 83.1441 83.16ZM80.4881 78.152H85.5601C85.4535 77.512 85.1708 77.0053 84.7121 76.632C84.2641 76.248 83.7308 76.056 83.1121 76.056C82.4828 76.056 81.9175 76.248 81.4161 76.632C80.9255 77.0053 80.6161 77.512 80.4881 78.152ZM92.217 83.16C91.1077 83.16 90.1743 82.7547 89.417 81.944C88.6703 81.1333 88.297 80.152 88.297 79C88.297 77.848 88.6703 76.8667 89.417 76.056C90.1743 75.2453 91.1077 74.84 92.217 74.84C92.8037 74.84 93.3477 74.9733 93.849 75.24C94.361 75.496 94.7557 75.8267 95.033 76.232V75H96.409V83H95.033V81.768C94.7557 82.1733 94.361 82.5093 93.849 82.776C93.3477 83.032 92.8037 83.16 92.217 83.16ZM92.425 81.896C93.2143 81.896 93.865 81.6187 94.377 81.064C94.889 80.5093 95.145 79.8213 95.145 79C95.145 78.1787 94.889 77.4907 94.377 76.936C93.865 76.3813 93.2143 76.104 92.425 76.104C91.625 76.104 90.969 76.3813 90.457 76.936C89.945 77.4907 89.689 78.1787 89.689 79C89.689 79.8213 89.945 80.5093 90.457 81.064C90.969 81.6187 91.625 81.896 92.425 81.896ZM101.415 83.16C100.679 83.16 100.034 83.0053 99.4791 82.696C98.9245 82.376 98.5245 81.912 98.2791 81.304L99.3991 80.68C99.5485 81.0747 99.8098 81.384 100.183 81.608C100.556 81.832 100.972 81.944 101.431 81.944C101.826 81.944 102.156 81.848 102.423 81.656C102.69 81.464 102.823 81.2027 102.823 80.872C102.823 80.584 102.716 80.344 102.503 80.152C102.3 79.96 101.943 79.784 101.431 79.624L100.631 79.368C99.2978 78.984 98.6311 78.2053 98.6311 77.032C98.6311 76.3707 98.8925 75.8427 99.4151 75.448C99.9485 75.0427 100.604 74.84 101.383 74.84C102.599 74.84 103.479 75.304 104.023 76.232L102.999 76.936C102.562 76.328 102.007 76.024 101.335 76.024C100.972 76.024 100.658 76.1147 100.391 76.296C100.135 76.4667 100.007 76.696 100.007 76.984C100.007 77.2507 100.087 77.48 100.247 77.672C100.418 77.8533 100.716 78.008 101.143 78.136L102.023 78.408C103.474 78.856 104.199 79.64 104.199 80.76C104.199 81.5067 103.938 82.0933 103.415 82.52C102.903 82.9467 102.236 83.16 101.415 83.16ZM109.722 83.16C108.496 83.16 107.498 82.7653 106.73 81.976C105.962 81.1867 105.578 80.1947 105.578 79C105.578 77.816 105.968 76.8293 106.746 76.04C107.525 75.24 108.522 74.84 109.738 74.84C110.816 74.84 111.717 75.2027 112.442 75.928C113.178 76.6427 113.546 77.6187 113.546 78.856C113.546 79.016 113.541 79.1547 113.53 79.272H106.97C106.992 80.0187 107.258 80.6427 107.77 81.144C108.293 81.6453 108.949 81.896 109.738 81.896C110.858 81.896 111.69 81.432 112.234 80.504L113.322 81.256C112.544 82.5253 111.344 83.16 109.722 83.16ZM107.066 78.152H112.138C112.032 77.512 111.749 77.0053 111.29 76.632C110.842 76.248 110.309 76.056 109.69 76.056C109.061 76.056 108.496 76.248 107.994 76.632C107.504 77.0053 107.194 77.512 107.066 78.152ZM121.775 83.16C121.039 83.16 120.393 83.0053 119.839 82.696C119.284 82.376 118.884 81.912 118.639 81.304L119.759 80.68C119.908 81.0747 120.169 81.384 120.543 81.608C120.916 81.832 121.332 81.944 121.791 81.944C122.185 81.944 122.516 81.848 122.783 81.656C123.049 81.464 123.183 81.2027 123.183 80.872C123.183 80.584 123.076 80.344 122.863 80.152C122.66 79.96 122.303 79.784 121.791 79.624L120.991 79.368C119.657 78.984 118.991 78.2053 118.991 77.032C118.991 76.3707 119.252 75.8427 119.775 75.448C120.308 75.0427 120.964 74.84 121.743 74.84C122.959 74.84 123.839 75.304 124.383 76.232L123.359 76.936C122.921 76.328 122.367 76.024 121.695 76.024C121.332 76.024 121.017 76.1147 120.751 76.296C120.495 76.4667 120.367 76.696 120.367 76.984C120.367 77.2507 120.447 77.48 120.607 77.672C120.777 77.8533 121.076 78.008 121.503 78.136L122.383 78.408C123.833 78.856 124.559 79.64 124.559 80.76C124.559 81.5067 124.297 82.0933 123.775 82.52C123.263 82.9467 122.596 83.16 121.775 83.16ZM130.082 83.16C128.855 83.16 127.858 82.7653 127.09 81.976C126.322 81.1867 125.938 80.1947 125.938 79C125.938 77.816 126.327 76.8293 127.106 76.04C127.884 75.24 128.882 74.84 130.098 74.84C131.175 74.84 132.076 75.2027 132.802 75.928C133.538 76.6427 133.906 77.6187 133.906 78.856C133.906 79.016 133.9 79.1547 133.89 79.272H127.33C127.351 80.0187 127.618 80.6427 128.13 81.144C128.652 81.6453 129.308 81.896 130.098 81.896C131.218 81.896 132.05 81.432 132.594 80.504L133.682 81.256C132.903 82.5253 131.703 83.16 130.082 83.16ZM127.426 78.152H132.498C132.391 77.512 132.108 77.0053 131.65 76.632C131.202 76.248 130.668 76.056 130.05 76.056C129.42 76.056 128.855 76.248 128.354 76.632C127.863 77.0053 127.554 77.512 127.426 78.152ZM135.859 83V71H137.235V83H135.859ZM143.363 83.16C142.136 83.16 141.139 82.7653 140.371 81.976C139.603 81.1867 139.219 80.1947 139.219 79C139.219 77.816 139.608 76.8293 140.387 76.04C141.166 75.24 142.163 74.84 143.379 74.84C144.456 74.84 145.358 75.2027 146.083 75.928C146.819 76.6427 147.187 77.6187 147.187 78.856C147.187 79.016 147.182 79.1547 147.171 79.272H140.611C140.632 80.0187 140.899 80.6427 141.411 81.144C141.934 81.6453 142.59 81.896 143.379 81.896C144.499 81.896 145.331 81.432 145.875 80.504L146.963 81.256C146.184 82.5253 144.984 83.16 143.363 83.16ZM140.707 78.152H145.779C145.672 77.512 145.39 77.0053 144.931 76.632C144.483 76.248 143.95 76.056 143.331 76.056C142.702 76.056 142.136 76.248 141.635 76.632C141.144 77.0053 140.835 77.512 140.707 78.152ZM152.708 83.16C151.502 83.16 150.5 82.76 149.7 81.96C148.91 81.16 148.516 80.1733 148.516 79C148.516 77.8267 148.91 76.84 149.7 76.04C150.5 75.24 151.502 74.84 152.708 74.84C153.518 74.84 154.244 75.032 154.884 75.416C155.534 75.8 156.041 76.3227 156.404 76.984L155.204 77.656C154.969 77.1867 154.633 76.8133 154.196 76.536C153.769 76.2587 153.273 76.12 152.708 76.12C151.886 76.12 151.214 76.3973 150.692 76.952C150.169 77.5067 149.908 78.1893 149.908 79C149.908 79.8107 150.169 80.4933 150.692 81.048C151.214 81.6027 151.886 81.88 152.708 81.88C153.273 81.88 153.769 81.7413 154.196 81.464C154.633 81.1867 154.969 80.8133 155.204 80.344L156.404 81.016C156.041 81.6773 155.534 82.2 154.884 82.584C154.244 82.968 153.518 83.16 152.708 83.16ZM161.291 83.08C160.555 83.08 159.963 82.872 159.515 82.456C159.067 82.04 158.843 81.432 158.843 80.632V76.264H157.147V75H158.843V72.776H160.219V75H162.523V76.264H160.219V80.456C160.219 80.9573 160.325 81.3093 160.539 81.512C160.752 81.7147 161.088 81.816 161.547 81.816C161.952 81.816 162.277 81.7627 162.523 81.656V82.888C162.139 83.016 161.728 83.08 161.291 83.08ZM171.436 83.16C170.326 83.16 169.393 82.7547 168.636 81.944C167.889 81.1333 167.516 80.152 167.516 79C167.516 77.848 167.889 76.8667 168.636 76.056C169.393 75.2453 170.326 74.84 171.436 74.84C172.022 74.84 172.566 74.9733 173.068 75.24C173.58 75.496 173.974 75.8267 174.252 76.232V75H175.628V83H174.252V81.768C173.974 82.1733 173.58 82.5093 173.068 82.776C172.566 83.032 172.022 83.16 171.436 83.16ZM171.644 81.896C172.433 81.896 173.084 81.6187 173.596 81.064C174.108 80.5093 174.364 79.8213 174.364 79C174.364 78.1787 174.108 77.4907 173.596 76.936C173.084 76.3813 172.433 76.104 171.644 76.104C170.844 76.104 170.188 76.3813 169.676 76.936C169.164 77.4907 168.908 78.1787 168.908 79C168.908 79.8213 169.164 80.5093 169.676 81.064C170.188 81.6187 170.844 81.896 171.644 81.896ZM183.453 86.344H182.077V75H183.453V76.232C183.731 75.8267 184.12 75.496 184.621 75.24C185.133 74.9733 185.683 74.84 186.269 74.84C187.379 74.84 188.307 75.2453 189.053 76.056C189.811 76.8667 190.189 77.848 190.189 79C190.189 80.152 189.811 81.1333 189.053 81.944C188.307 82.7547 187.379 83.16 186.269 83.16C185.683 83.16 185.133 83.032 184.621 82.776C184.12 82.5093 183.731 82.1733 183.453 81.768V86.344ZM184.109 81.064C184.621 81.6187 185.272 81.896 186.061 81.896C186.851 81.896 187.501 81.6187 188.013 81.064C188.525 80.5093 188.781 79.8213 188.781 79C188.781 78.1787 188.525 77.4907 188.013 76.936C187.501 76.3813 186.851 76.104 186.061 76.104C185.272 76.104 184.621 76.3813 184.109 76.936C183.597 77.4907 183.341 78.1787 183.341 79C183.341 79.8213 183.597 80.5093 184.109 81.064ZM192.171 83V71H193.547V83H192.171ZM199.451 83.16C198.342 83.16 197.409 82.7547 196.651 81.944C195.905 81.1333 195.531 80.152 195.531 79C195.531 77.848 195.905 76.8667 196.651 76.056C197.409 75.2453 198.342 74.84 199.451 74.84C200.038 74.84 200.582 74.9733 201.083 75.24C201.595 75.496 201.99 75.8267 202.267 76.232V75H203.643V83H202.267V81.768C201.99 82.1733 201.595 82.5093 201.083 82.776C200.582 83.032 200.038 83.16 199.451 83.16ZM199.659 81.896C200.449 81.896 201.099 81.6187 201.611 81.064C202.123 80.5093 202.379 79.8213 202.379 79C202.379 78.1787 202.123 77.4907 201.611 76.936C201.099 76.3813 200.449 76.104 199.659 76.104C198.859 76.104 198.203 76.3813 197.691 76.936C197.179 77.4907 196.923 78.1787 196.923 79C196.923 79.8213 197.179 80.5093 197.691 81.064C198.203 81.6187 198.859 81.896 199.659 81.896ZM206.234 83V75H207.61V76.232C208.154 75.304 209.002 74.84 210.154 74.84C211.06 74.84 211.791 75.1333 212.346 75.72C212.9 76.3067 213.178 77.0907 213.178 78.072V83H211.818V78.28C211.818 77.608 211.647 77.08 211.306 76.696C210.964 76.3013 210.506 76.104 209.93 76.104C209.268 76.104 208.714 76.3653 208.266 76.888C207.828 77.4107 207.61 78.1253 207.61 79.032V83H206.234ZM222.353 83.08C221.617 83.08 221.025 82.872 220.577 82.456C220.129 82.04 219.905 81.432 219.905 80.632V76.264H218.209V75H219.905V72.776H221.281V75H223.585V76.264H221.281V80.456C221.281 80.9573 221.388 81.3093 221.601 81.512C221.814 81.7147 222.15 81.816 222.609 81.816C223.014 81.816 223.34 81.7627 223.585 81.656V82.888C223.201 83.016 222.79 83.08 222.353 83.08ZM226.719 83H225.343V71H226.719V76.232C227.263 75.304 228.111 74.84 229.263 74.84C230.17 74.84 230.9 75.1333 231.455 75.72C232.01 76.3067 232.287 77.0907 232.287 78.072V83H230.927V78.28C230.927 77.608 230.756 77.08 230.415 76.696C230.074 76.3013 229.615 76.104 229.039 76.104C228.378 76.104 227.823 76.3653 227.375 76.888C226.938 77.4107 226.719 78.1253 226.719 79.032V83ZM238.061 83.16C236.951 83.16 236.018 82.7547 235.261 81.944C234.514 81.1333 234.141 80.152 234.141 79C234.141 77.848 234.514 76.8667 235.261 76.056C236.018 75.2453 236.951 74.84 238.061 74.84C238.647 74.84 239.191 74.9733 239.693 75.24C240.205 75.496 240.599 75.8267 240.877 76.232V75H242.253V83H240.877V81.768C240.599 82.1733 240.205 82.5093 239.693 82.776C239.191 83.032 238.647 83.16 238.061 83.16ZM238.269 81.896C239.058 81.896 239.709 81.6187 240.221 81.064C240.733 80.5093 240.989 79.8213 240.989 79C240.989 78.1787 240.733 77.4907 240.221 76.936C239.709 76.3813 239.058 76.104 238.269 76.104C237.469 76.104 236.813 76.3813 236.301 76.936C235.789 77.4907 235.533 78.1787 235.533 79C235.533 79.8213 235.789 80.5093 236.301 81.064C236.813 81.6187 237.469 81.896 238.269 81.896ZM247.947 83.08C247.211 83.08 246.619 82.872 246.171 82.456C245.723 82.04 245.499 81.432 245.499 80.632V76.264H243.803V75H245.499V72.776H246.875V75H249.179V76.264H246.875V80.456C246.875 80.9573 246.982 81.3093 247.195 81.512C247.408 81.7147 247.744 81.816 248.203 81.816C248.608 81.816 248.934 81.7627 249.179 81.656V82.888C248.795 83.016 248.384 83.08 247.947 83.08ZM258.988 83.16C258.401 83.16 257.852 83.032 257.34 82.776C256.839 82.5093 256.449 82.1733 256.172 81.768V83H254.796V71H256.172V76.232C256.449 75.8267 256.839 75.496 257.34 75.24C257.852 74.9733 258.401 74.84 258.988 74.84C260.097 74.84 261.025 75.2453 261.772 76.056C262.529 76.8667 262.908 77.848 262.908 79C262.908 80.152 262.529 81.1333 261.772 81.944C261.025 82.7547 260.097 83.16 258.988 83.16ZM256.828 81.064C257.34 81.6187 257.991 81.896 258.78 81.896C259.569 81.896 260.22 81.6187 260.732 81.064C261.244 80.5093 261.5 79.8213 261.5 79C261.5 78.1787 261.244 77.4907 260.732 76.936C260.22 76.3813 259.569 76.104 258.78 76.104C257.991 76.104 257.34 76.3813 256.828 76.936C256.316 77.4907 256.06 78.1787 256.06 79C256.06 79.8213 256.316 80.5093 256.828 81.064ZM268.394 83.16C267.167 83.16 266.17 82.7653 265.402 81.976C264.634 81.1867 264.25 80.1947 264.25 79C264.25 77.816 264.639 76.8293 265.418 76.04C266.197 75.24 267.194 74.84 268.41 74.84C269.487 74.84 270.389 75.2027 271.114 75.928C271.85 76.6427 272.218 77.6187 272.218 78.856C272.218 79.016 272.213 79.1547 272.202 79.272H265.642C265.663 80.0187 265.93 80.6427 266.442 81.144C266.965 81.6453 267.621 81.896 268.41 81.896C269.53 81.896 270.362 81.432 270.906 80.504L271.994 81.256C271.215 82.5253 270.015 83.16 268.394 83.16ZM265.738 78.152H270.81C270.703 77.512 270.421 77.0053 269.962 76.632C269.514 76.248 268.981 76.056 268.362 76.056C267.733 76.056 267.167 76.248 266.666 76.632C266.175 77.0053 265.866 77.512 265.738 78.152ZM276.587 83.16C275.851 83.16 275.206 83.0053 274.651 82.696C274.096 82.376 273.696 81.912 273.451 81.304L274.571 80.68C274.72 81.0747 274.982 81.384 275.355 81.608C275.728 81.832 276.144 81.944 276.603 81.944C276.998 81.944 277.328 81.848 277.595 81.656C277.862 81.464 277.995 81.2027 277.995 80.872C277.995 80.584 277.888 80.344 277.675 80.152C277.472 79.96 277.115 79.784 276.603 79.624L275.803 79.368C274.47 78.984 273.803 78.2053 273.803 77.032C273.803 76.3707 274.064 75.8427 274.587 75.448C275.12 75.0427 275.776 74.84 276.555 74.84C277.771 74.84 278.651 75.304 279.195 76.232L278.171 76.936C277.734 76.328 277.179 76.024 276.507 76.024C276.144 76.024 275.83 76.1147 275.563 76.296C275.307 76.4667 275.179 76.696 275.179 76.984C275.179 77.2507 275.259 77.48 275.419 77.672C275.59 77.8533 275.888 78.008 276.315 78.136L277.195 78.408C278.646 78.856 279.371 79.64 279.371 80.76C279.371 81.5067 279.11 82.0933 278.587 82.52C278.075 82.9467 277.408 83.16 276.587 83.16ZM284.4 83.08C283.664 83.08 283.072 82.872 282.624 82.456C282.176 82.04 281.952 81.432 281.952 80.632V76.264H280.256V75H281.952V72.776H283.328V75H285.632V76.264H283.328V80.456C283.328 80.9573 283.435 81.3093 283.648 81.512C283.861 81.7147 284.197 81.816 284.656 81.816C285.061 81.816 285.387 81.7627 285.632 81.656V82.888C285.248 83.016 284.837 83.08 284.4 83.08ZM294.545 83.16C293.436 83.16 292.502 82.7547 291.745 81.944C290.998 81.1333 290.625 80.152 290.625 79C290.625 77.848 290.998 76.8667 291.745 76.056C292.502 75.2453 293.436 74.84 294.545 74.84C295.132 74.84 295.676 74.9733 296.177 75.24C296.689 75.496 297.084 75.8267 297.361 76.232V75H298.737V83H297.361V81.768C297.084 82.1733 296.689 82.5093 296.177 82.776C295.676 83.032 295.132 83.16 294.545 83.16ZM294.753 81.896C295.542 81.896 296.193 81.6187 296.705 81.064C297.217 80.5093 297.473 79.8213 297.473 79C297.473 78.1787 297.217 77.4907 296.705 76.936C296.193 76.3813 295.542 76.104 294.753 76.104C293.953 76.104 293.297 76.3813 292.785 76.936C292.273 77.4907 292.017 78.1787 292.017 79C292.017 79.8213 292.273 80.5093 292.785 81.064C293.297 81.6187 293.953 81.896 294.753 81.896ZM301.327 83V71H302.703V83H301.327ZM306.704 72.584C306.522 72.7653 306.293 72.856 306.016 72.856C305.738 72.856 305.504 72.7653 305.312 72.584C305.12 72.392 305.024 72.1573 305.024 71.88C305.024 71.6133 305.12 71.384 305.312 71.192C305.504 71 305.738 70.904 306.016 70.904C306.293 70.904 306.522 71 306.704 71.192C306.885 71.384 306.976 71.6133 306.976 71.88C306.976 72.1573 306.885 72.392 306.704 72.584ZM305.312 83V75H306.688V83H305.312ZM310.832 80.92C311.333 81.4427 311.984 81.704 312.784 81.704C313.584 81.704 314.235 81.4427 314.736 80.92C315.237 80.3867 315.488 79.7147 315.488 78.904C315.488 78.0933 315.232 77.4267 314.72 76.904C314.219 76.3707 313.573 76.104 312.784 76.104C311.995 76.104 311.344 76.3707 310.832 76.904C310.331 77.4267 310.08 78.0933 310.08 78.904C310.08 79.7147 310.331 80.3867 310.832 80.92ZM312.704 86.504C311.883 86.504 311.141 86.3493 310.48 86.04C309.819 85.7413 309.307 85.352 308.944 84.872L309.904 83.912C310.608 84.808 311.541 85.256 312.704 85.256C313.451 85.256 314.08 85.0213 314.592 84.552C315.115 84.0827 315.376 83.3947 315.376 82.488V81.576C315.088 82.0027 314.699 82.344 314.208 82.6C313.717 82.856 313.179 82.984 312.592 82.984C311.472 82.984 310.539 82.5947 309.792 81.816C309.045 81.0267 308.672 80.056 308.672 78.904C308.672 77.7627 309.045 76.8027 309.792 76.024C310.549 75.2347 311.483 74.84 312.592 74.84C313.179 74.84 313.717 74.968 314.208 75.224C314.699 75.48 315.088 75.816 315.376 76.232V75H316.752V82.536C316.752 83.8267 316.373 84.808 315.616 85.48C314.869 86.1627 313.899 86.504 312.704 86.504ZM319.343 83V75H320.719V76.232C321.263 75.304 322.111 74.84 323.263 74.84C324.17 74.84 324.9 75.1333 325.455 75.72C326.01 76.3067 326.287 77.0907 326.287 78.072V83H324.927V78.28C324.927 77.608 324.756 77.08 324.415 76.696C324.074 76.3013 323.615 76.104 323.039 76.104C322.378 76.104 321.823 76.3653 321.375 76.888C320.938 77.4107 320.719 78.1253 320.719 79.032V83H319.343ZM331.181 83.16C330.445 83.16 329.799 83.0053 329.245 82.696C328.69 82.376 328.29 81.912 328.045 81.304L329.165 80.68C329.314 81.0747 329.575 81.384 329.949 81.608C330.322 81.832 330.738 81.944 331.197 81.944C331.591 81.944 331.922 81.848 332.189 81.656C332.455 81.464 332.589 81.2027 332.589 80.872C332.589 80.584 332.482 80.344 332.269 80.152C332.066 79.96 331.709 79.784 331.197 79.624L330.397 79.368C329.063 78.984 328.397 78.2053 328.397 77.032C328.397 76.3707 328.658 75.8427 329.181 75.448C329.714 75.0427 330.37 74.84 331.149 74.84C332.365 74.84 333.245 75.304 333.789 76.232L332.765 76.936C332.327 76.328 331.773 76.024 331.101 76.024C330.738 76.024 330.423 76.1147 330.157 76.296C329.901 76.4667 329.773 76.696 329.773 76.984C329.773 77.2507 329.853 77.48 330.013 77.672C330.183 77.8533 330.482 78.008 330.909 78.136L331.789 78.408C333.239 78.856 333.965 79.64 333.965 80.76C333.965 81.5067 333.703 82.0933 333.181 82.52C332.669 82.9467 332.002 83.16 331.181 83.16ZM346.33 83L344.346 77.256L342.378 83H341.162L338.442 75H339.882L341.818 80.84L343.818 75H344.874L346.874 80.84L348.81 75H350.266L347.546 83H346.33ZM353.141 72.584C352.96 72.7653 352.73 72.856 352.453 72.856C352.176 72.856 351.941 72.7653 351.749 72.584C351.557 72.392 351.461 72.1573 351.461 71.88C351.461 71.6133 351.557 71.384 351.749 71.192C351.941 71 352.176 70.904 352.453 70.904C352.73 70.904 352.96 71 353.141 71.192C353.322 71.384 353.413 71.6133 353.413 71.88C353.413 72.1573 353.322 72.392 353.141 72.584ZM351.749 83V75H353.125V83H351.749ZM358.838 83.08C358.102 83.08 357.51 82.872 357.062 82.456C356.614 82.04 356.39 81.432 356.39 80.632V76.264H354.694V75H356.39V72.776H357.766V75H360.07V76.264H357.766V80.456C357.766 80.9573 357.872 81.3093 358.086 81.512C358.299 81.7147 358.635 81.816 359.094 81.816C359.499 81.816 359.824 81.7627 360.07 81.656V82.888C359.686 83.016 359.275 83.08 358.838 83.08ZM363.203 83H361.827V71H363.203V76.232C363.747 75.304 364.595 74.84 365.747 74.84C366.654 74.84 367.385 75.1333 367.939 75.72C368.494 76.3067 368.771 77.0907 368.771 78.072V83H367.411V78.28C367.411 77.608 367.241 77.08 366.899 76.696C366.558 76.3013 366.099 76.104 365.523 76.104C364.862 76.104 364.307 76.3653 363.859 76.888C363.422 77.4107 363.203 78.1253 363.203 79.032V83ZM376.862 86.344H375.326L377.07 82.584L373.566 75H375.086L377.838 81.08L380.574 75H382.11L376.862 86.344ZM386.864 83.16C385.658 83.16 384.656 82.76 383.856 81.96C383.066 81.1493 382.672 80.1627 382.672 79C382.672 77.8373 383.066 76.856 383.856 76.056C384.656 75.2453 385.658 74.84 386.864 74.84C388.058 74.84 389.05 75.2453 389.84 76.056C390.64 76.856 391.04 77.8373 391.04 79C391.04 80.1627 390.64 81.1493 389.84 81.96C389.05 82.76 388.058 83.16 386.864 83.16ZM384.848 81.048C385.37 81.6027 386.042 81.88 386.864 81.88C387.685 81.88 388.352 81.6027 388.864 81.048C389.376 80.4933 389.632 79.8107 389.632 79C389.632 78.1893 389.376 77.5067 388.864 76.952C388.352 76.3973 387.685 76.12 386.864 76.12C386.042 76.12 385.37 76.3973 384.848 76.952C384.336 77.5067 384.08 78.1893 384.08 79C384.08 79.8107 384.336 80.4933 384.848 81.048ZM395.847 83.16C394.972 83.16 394.263 82.8667 393.719 82.28C393.175 81.6827 392.903 80.8933 392.903 79.912V75H394.279V79.704C394.279 80.376 394.439 80.9093 394.759 81.304C395.089 81.6987 395.532 81.896 396.087 81.896C396.727 81.896 397.255 81.6347 397.671 81.112C398.097 80.5787 398.311 79.864 398.311 78.968V75H399.687V83H398.311V81.768C397.788 82.696 396.967 83.16 395.847 83.16ZM402.28 83V75H403.656V76.552C403.806 76.0613 404.094 75.6667 404.52 75.368C404.958 75.0693 405.416 74.92 405.896 74.92C406.131 74.92 406.339 74.9413 406.52 74.984V76.408C406.328 76.3227 406.078 76.28 405.768 76.28C405.214 76.28 404.723 76.52 404.296 77C403.87 77.48 403.656 78.1573 403.656 79.032V83H402.28ZM411.593 83V75H412.969V76.552C413.118 76.0613 413.406 75.6667 413.833 75.368C414.27 75.0693 414.729 74.92 415.209 74.92C415.444 74.92 415.652 74.9413 415.833 74.984V76.408C415.641 76.3227 415.39 76.28 415.081 76.28C414.526 76.28 414.036 76.52 413.609 77C413.182 77.48 412.969 78.1573 412.969 79.032V83H411.593ZM420.691 83.16C419.464 83.16 418.467 82.7653 417.699 81.976C416.931 81.1867 416.547 80.1947 416.547 79C416.547 77.816 416.936 76.8293 417.715 76.04C418.494 75.24 419.491 74.84 420.707 74.84C421.784 74.84 422.686 75.2027 423.411 75.928C424.147 76.6427 424.515 77.6187 424.515 78.856C424.515 79.016 424.51 79.1547 424.499 79.272H417.939C417.96 80.0187 418.227 80.6427 418.739 81.144C419.262 81.6453 419.918 81.896 420.707 81.896C421.827 81.896 422.659 81.432 423.203 80.504L424.291 81.256C423.512 82.5253 422.312 83.16 420.691 83.16ZM418.035 78.152H423.107C423 77.512 422.718 77.0053 422.259 76.632C421.811 76.248 421.278 76.056 420.659 76.056C420.03 76.056 419.464 76.248 418.963 76.632C418.472 77.0053 418.163 77.512 418.035 78.152ZM433.956 86.344H432.58V81.768C432.303 82.1733 431.908 82.5093 431.396 82.776C430.895 83.032 430.351 83.16 429.764 83.16C428.655 83.16 427.721 82.7547 426.964 81.944C426.217 81.1333 425.844 80.152 425.844 79C425.844 77.848 426.217 76.8667 426.964 76.056C427.721 75.2453 428.655 74.84 429.764 74.84C430.351 74.84 430.895 74.9733 431.396 75.24C431.908 75.496 432.303 75.8267 432.58 76.232V75H433.956V86.344ZM429.972 81.896C430.761 81.896 431.412 81.6187 431.924 81.064C432.436 80.5093 432.692 79.8213 432.692 79C432.692 78.1787 432.436 77.4907 431.924 76.936C431.412 76.3813 430.761 76.104 429.972 76.104C429.172 76.104 428.516 76.3813 428.004 76.936C427.492 77.4907 427.236 78.1787 427.236 79C427.236 79.8213 427.492 80.5093 428.004 81.064C428.516 81.6187 429.172 81.896 429.972 81.896ZM439.378 83.16C438.503 83.16 437.794 82.8667 437.25 82.28C436.706 81.6827 436.434 80.8933 436.434 79.912V75H437.81V79.704C437.81 80.376 437.97 80.9093 438.29 81.304C438.621 81.6987 439.063 81.896 439.618 81.896C440.258 81.896 440.786 81.6347 441.202 81.112C441.629 80.5787 441.842 79.864 441.842 78.968V75H443.218V83H441.842V81.768C441.319 82.696 440.498 83.16 439.378 83.16ZM447.204 72.584C447.022 72.7653 446.793 72.856 446.516 72.856C446.238 72.856 446.004 72.7653 445.812 72.584C445.62 72.392 445.524 72.1573 445.524 71.88C445.524 71.6133 445.62 71.384 445.812 71.192C446.004 71 446.238 70.904 446.516 70.904C446.793 70.904 447.022 71 447.204 71.192C447.385 71.384 447.476 71.6133 447.476 71.88C447.476 72.1573 447.385 72.392 447.204 72.584ZM445.812 83V75H447.188V83H445.812ZM449.796 83V75H451.172V76.552C451.321 76.0613 451.609 75.6667 452.036 75.368C452.473 75.0693 452.932 74.92 453.412 74.92C453.647 74.92 453.855 74.9413 454.036 74.984V76.408C453.844 76.3227 453.593 76.28 453.284 76.28C452.729 76.28 452.239 76.52 451.812 77C451.385 77.48 451.172 78.1573 451.172 79.032V83H449.796ZM458.894 83.16C457.667 83.16 456.67 82.7653 455.902 81.976C455.134 81.1867 454.75 80.1947 454.75 79C454.75 77.816 455.139 76.8293 455.918 76.04C456.697 75.24 457.694 74.84 458.91 74.84C459.987 74.84 460.889 75.2027 461.614 75.928C462.35 76.6427 462.718 77.6187 462.718 78.856C462.718 79.016 462.713 79.1547 462.702 79.272H456.142C456.163 80.0187 456.43 80.6427 456.942 81.144C457.465 81.6453 458.121 81.896 458.91 81.896C460.03 81.896 460.862 81.432 461.406 80.504L462.494 81.256C461.715 82.5253 460.515 83.16 458.894 83.16ZM456.238 78.152H461.31C461.203 77.512 460.921 77.0053 460.462 76.632C460.014 76.248 459.481 76.056 458.862 76.056C458.233 76.056 457.667 76.248 457.166 76.632C456.675 77.0053 456.366 77.512 456.238 78.152ZM474.975 83V78.296C474.975 77.6347 474.836 77.1067 474.559 76.712C474.292 76.3067 473.903 76.104 473.391 76.104C472.751 76.104 472.228 76.3547 471.823 76.856C471.428 77.3573 471.22 78.04 471.199 78.904V83H469.823V78.296C469.823 77.624 469.684 77.0907 469.407 76.696C469.14 76.3013 468.756 76.104 468.255 76.104C467.594 76.104 467.06 76.3707 466.655 76.904C466.25 77.4267 466.047 78.136 466.047 79.032V83H464.671V75H466.047V76.232C466.559 75.304 467.364 74.84 468.463 74.84C469.679 74.84 470.5 75.4107 470.927 76.552C471.14 76.0293 471.482 75.6133 471.951 75.304C472.42 74.9947 472.954 74.84 473.551 74.84C474.415 74.84 475.098 75.1333 475.599 75.72C476.1 76.3067 476.351 77.096 476.351 78.088V83H474.975ZM482.347 83.16C481.121 83.16 480.123 82.7653 479.355 81.976C478.587 81.1867 478.203 80.1947 478.203 79C478.203 77.816 478.593 76.8293 479.371 76.04C480.15 75.24 481.147 74.84 482.363 74.84C483.441 74.84 484.342 75.2027 485.067 75.928C485.803 76.6427 486.171 77.6187 486.171 78.856C486.171 79.016 486.166 79.1547 486.155 79.272H479.595C479.617 80.0187 479.883 80.6427 480.395 81.144C480.918 81.6453 481.574 81.896 482.363 81.896C483.483 81.896 484.315 81.432 484.859 80.504L485.947 81.256C485.169 82.5253 483.969 83.16 482.347 83.16ZM479.691 78.152H484.763C484.657 77.512 484.374 77.0053 483.915 76.632C483.467 76.248 482.934 76.056 482.315 76.056C481.686 76.056 481.121 76.248 480.619 76.632C480.129 77.0053 479.819 77.512 479.691 78.152ZM488.124 83V75H489.5V76.232C490.044 75.304 490.892 74.84 492.044 74.84C492.951 74.84 493.681 75.1333 494.236 75.72C494.791 76.3067 495.068 77.0907 495.068 78.072V83H493.708V78.28C493.708 77.608 493.537 77.08 493.196 76.696C492.855 76.3013 492.396 76.104 491.82 76.104C491.159 76.104 490.604 76.3653 490.156 76.888C489.719 77.4107 489.5 78.1253 489.5 79.032V83H488.124ZM500.556 83.08C499.82 83.08 499.228 82.872 498.78 82.456C498.332 82.04 498.108 81.432 498.108 80.632V76.264H496.412V75H498.108V72.776H499.484V75H501.788V76.264H499.484V80.456C499.484 80.9573 499.591 81.3093 499.804 81.512C500.018 81.7147 500.354 81.816 500.812 81.816C501.218 81.816 501.543 81.7627 501.788 81.656V82.888C501.404 83.016 500.994 83.08 500.556 83.08ZM505.962 83.16C505.226 83.16 504.581 83.0053 504.026 82.696C503.471 82.376 503.071 81.912 502.826 81.304L503.946 80.68C504.095 81.0747 504.357 81.384 504.73 81.608C505.103 81.832 505.519 81.944 505.978 81.944C506.373 81.944 506.703 81.848 506.97 81.656C507.237 81.464 507.37 81.2027 507.37 80.872C507.37 80.584 507.263 80.344 507.05 80.152C506.847 79.96 506.49 79.784 505.978 79.624L505.178 79.368C503.845 78.984 503.178 78.2053 503.178 77.032C503.178 76.3707 503.439 75.8427 503.962 75.448C504.495 75.0427 505.151 74.84 505.93 74.84C507.146 74.84 508.026 75.304 508.57 76.232L507.546 76.936C507.109 76.328 506.554 76.024 505.882 76.024C505.519 76.024 505.205 76.1147 504.938 76.296C504.682 76.4667 504.554 76.696 504.554 76.984C504.554 77.2507 504.634 77.48 504.794 77.672C504.965 77.8533 505.263 78.008 505.69 78.136L506.57 78.408C508.021 78.856 508.746 79.64 508.746 80.76C508.746 81.5067 508.485 82.0933 507.962 82.52C507.45 82.9467 506.783 83.16 505.962 83.16ZM517.447 83.08C516.711 83.08 516.119 82.872 515.671 82.456C515.223 82.04 514.999 81.432 514.999 80.632V76.264H513.303V75H514.999V72.776H516.375V75H518.679V76.264H516.375V80.456C516.375 80.9573 516.482 81.3093 516.695 81.512C516.908 81.7147 517.244 81.816 517.703 81.816C518.108 81.816 518.434 81.7627 518.679 81.656V82.888C518.295 83.016 517.884 83.08 517.447 83.08ZM523.879 83.16C522.674 83.16 521.671 82.76 520.871 81.96C520.082 81.1493 519.687 80.1627 519.687 79C519.687 77.8373 520.082 76.856 520.871 76.056C521.671 75.2453 522.674 74.84 523.879 74.84C525.074 74.84 526.066 75.2453 526.855 76.056C527.655 76.856 528.055 77.8373 528.055 79C528.055 80.1627 527.655 81.1493 526.855 81.96C526.066 82.76 525.074 83.16 523.879 83.16ZM521.863 81.048C522.386 81.6027 523.058 81.88 523.879 81.88C524.701 81.88 525.367 81.6027 525.879 81.048C526.391 80.4933 526.647 79.8107 526.647 79C526.647 78.1893 526.391 77.5067 525.879 76.952C525.367 76.3973 524.701 76.12 523.879 76.12C523.058 76.12 522.386 76.3973 521.863 76.952C521.351 77.5067 521.095 78.1893 521.095 79C521.095 79.8107 521.351 80.4933 521.863 81.048ZM535.266 83H533.89V71H535.266V76.232C535.81 75.304 536.658 74.84 537.81 74.84C538.716 74.84 539.447 75.1333 540.002 75.72C540.556 76.3067 540.834 77.0907 540.834 78.072V83H539.474V78.28C539.474 77.608 539.303 77.08 538.962 76.696C538.62 76.3013 538.162 76.104 537.586 76.104C536.924 76.104 536.37 76.3653 535.922 76.888C535.484 77.4107 535.266 78.1253 535.266 79.032V83ZM544.704 72.584C544.522 72.7653 544.293 72.856 544.016 72.856C543.738 72.856 543.504 72.7653 543.312 72.584C543.12 72.392 543.024 72.1573 543.024 71.88C543.024 71.6133 543.12 71.384 543.312 71.192C543.504 71 543.738 70.904 544.016 70.904C544.293 70.904 544.522 71 544.704 71.192C544.885 71.384 544.976 71.6133 544.976 71.88C544.976 72.1573 544.885 72.392 544.704 72.584ZM543.312 83V75H544.688V83H543.312ZM550.4 83.08C549.664 83.08 549.072 82.872 548.624 82.456C548.176 82.04 547.952 81.432 547.952 80.632V76.264H546.256V75H547.952V72.776H549.328V75H551.632V76.264H549.328V80.456C549.328 80.9573 549.435 81.3093 549.648 81.512C549.861 81.7147 550.197 81.816 550.656 81.816C551.061 81.816 551.387 81.7627 551.632 81.656V82.888C551.248 83.016 550.837 83.08 550.4 83.08ZM560.088 83.08C559.352 83.08 558.76 82.872 558.312 82.456C557.864 82.04 557.64 81.432 557.64 80.632V76.264H555.944V75H557.64V72.776H559.016V75H561.32V76.264H559.016V80.456C559.016 80.9573 559.122 81.3093 559.336 81.512C559.549 81.7147 559.885 81.816 560.344 81.816C560.749 81.816 561.074 81.7627 561.32 81.656V82.888C560.936 83.016 560.525 83.08 560.088 83.08ZM564.453 83H563.077V71H564.453V76.232C564.997 75.304 565.845 74.84 566.997 74.84C567.904 74.84 568.635 75.1333 569.189 75.72C569.744 76.3067 570.021 77.0907 570.021 78.072V83H568.661V78.28C568.661 77.608 568.491 77.08 568.149 76.696C567.808 76.3013 567.349 76.104 566.773 76.104C566.112 76.104 565.557 76.3653 565.109 76.888C564.672 77.4107 564.453 78.1253 564.453 79.032V83ZM576.019 83.16C574.792 83.16 573.795 82.7653 573.027 81.976C572.259 81.1867 571.875 80.1947 571.875 79C571.875 77.816 572.264 76.8293 573.043 76.04C573.822 75.24 574.819 74.84 576.035 74.84C577.112 74.84 578.014 75.2027 578.739 75.928C579.475 76.6427 579.843 77.6187 579.843 78.856C579.843 79.016 579.838 79.1547 579.827 79.272H573.267C573.288 80.0187 573.555 80.6427 574.067 81.144C574.59 81.6453 575.246 81.896 576.035 81.896C577.155 81.896 577.987 81.432 578.531 80.504L579.619 81.256C578.84 82.5253 577.64 83.16 576.019 83.16ZM573.363 78.152H578.435C578.328 77.512 578.046 77.0053 577.587 76.632C577.139 76.248 576.606 76.056 575.987 76.056C575.358 76.056 574.792 76.248 574.291 76.632C573.8 77.0053 573.491 77.512 573.363 78.152ZM587.191 80.92C587.693 81.4427 588.343 81.704 589.143 81.704C589.943 81.704 590.594 81.4427 591.095 80.92C591.597 80.3867 591.847 79.7147 591.847 78.904C591.847 78.0933 591.591 77.4267 591.079 76.904C590.578 76.3707 589.933 76.104 589.143 76.104C588.354 76.104 587.703 76.3707 587.191 76.904C586.69 77.4267 586.439 78.0933 586.439 78.904C586.439 79.7147 586.69 80.3867 587.191 80.92ZM589.063 86.504C588.242 86.504 587.501 86.3493 586.839 86.04C586.178 85.7413 585.666 85.352 585.303 84.872L586.263 83.912C586.967 84.808 587.901 85.256 589.063 85.256C589.81 85.256 590.439 85.0213 590.951 84.552C591.474 84.0827 591.735 83.3947 591.735 82.488V81.576C591.447 82.0027 591.058 82.344 590.567 82.6C590.077 82.856 589.538 82.984 588.951 82.984C587.831 82.984 586.898 82.5947 586.151 81.816C585.405 81.0267 585.031 80.056 585.031 78.904C585.031 77.7627 585.405 76.8027 586.151 76.024C586.909 75.2347 587.842 74.84 588.951 74.84C589.538 74.84 590.077 74.968 590.567 75.224C591.058 75.48 591.447 75.816 591.735 76.232V75H593.111V82.536C593.111 83.8267 592.733 84.808 591.975 85.48C591.229 86.1627 590.258 86.504 589.063 86.504ZM595.702 83V75H597.078V76.552C597.228 76.0613 597.516 75.6667 597.942 75.368C598.38 75.0693 598.838 74.92 599.318 74.92C599.553 74.92 599.761 74.9413 599.942 74.984V76.408C599.75 76.3227 599.5 76.28 599.19 76.28C598.636 76.28 598.145 76.52 597.718 77C597.292 77.48 597.078 78.1573 597.078 79.032V83H595.702ZM604.832 83.16C603.627 83.16 602.624 82.76 601.824 81.96C601.035 81.1493 600.64 80.1627 600.64 79C600.64 77.8373 601.035 76.856 601.824 76.056C602.624 75.2453 603.627 74.84 604.832 74.84C606.027 74.84 607.019 75.2453 607.808 76.056C608.608 76.856 609.008 77.8373 609.008 79C609.008 80.1627 608.608 81.1493 607.808 81.96C607.019 82.76 606.027 83.16 604.832 83.16ZM602.816 81.048C603.339 81.6027 604.011 81.88 604.832 81.88C605.654 81.88 606.32 81.6027 606.832 81.048C607.344 80.4933 607.6 79.8107 607.6 79C607.6 78.1893 607.344 77.5067 606.832 76.952C606.32 76.3973 605.654 76.12 604.832 76.12C604.011 76.12 603.339 76.3973 602.816 76.952C602.304 77.5067 602.048 78.1893 602.048 79C602.048 79.8107 602.304 80.4933 602.816 81.048ZM613.816 83.16C612.941 83.16 612.232 82.8667 611.688 82.28C611.144 81.6827 610.872 80.8933 610.872 79.912V75H612.248V79.704C612.248 80.376 612.408 80.9093 612.728 81.304C613.058 81.6987 613.501 81.896 614.056 81.896C614.696 81.896 615.224 81.6347 615.64 81.112C616.066 80.5787 616.28 79.864 616.28 78.968V75H617.656V83H616.28V81.768C615.757 82.696 614.936 83.16 613.816 83.16ZM620.249 83V75H621.625V76.232C622.169 75.304 623.017 74.84 624.169 74.84C625.076 74.84 625.806 75.1333 626.361 75.72C626.916 76.3067 627.193 77.0907 627.193 78.072V83H625.833V78.28C625.833 77.608 625.662 77.08 625.321 76.696C624.98 76.3013 624.521 76.104 623.945 76.104C623.284 76.104 622.729 76.3653 622.281 76.888C621.844 77.4107 621.625 78.1253 621.625 79.032V83H620.249ZM632.967 83.16C631.858 83.16 630.924 82.7547 630.167 81.944C629.42 81.1333 629.047 80.152 629.047 79C629.047 77.848 629.42 76.8667 630.167 76.056C630.924 75.2453 631.858 74.84 632.967 74.84C633.554 74.84 634.098 74.9733 634.599 75.24C635.111 75.496 635.506 75.8267 635.783 76.232V71H637.159V83H635.783V81.768C635.506 82.1733 635.111 82.5093 634.599 82.776C634.098 83.032 633.554 83.16 632.967 83.16ZM633.175 81.896C633.964 81.896 634.615 81.6187 635.127 81.064C635.639 80.5093 635.895 79.8213 635.895 79C635.895 78.1787 635.639 77.4907 635.127 76.936C634.615 76.3813 633.964 76.104 633.175 76.104C632.375 76.104 631.719 76.3813 631.207 76.936C630.695 77.4907 630.439 78.1787 630.439 79C630.439 79.8213 630.695 80.5093 631.207 81.064C631.719 81.6187 632.375 81.896 633.175 81.896ZM643.609 83V75H644.985V76.552C645.134 76.0613 645.422 75.6667 645.849 75.368C646.286 75.0693 646.745 74.92 647.225 74.92C647.459 74.92 647.667 74.9413 647.849 74.984V76.408C647.657 76.3227 647.406 76.28 647.097 76.28C646.542 76.28 646.051 76.52 645.625 77C645.198 77.48 644.985 78.1573 644.985 79.032V83H643.609ZM652.3 83.16C651.425 83.16 650.716 82.8667 650.172 82.28C649.628 81.6827 649.356 80.8933 649.356 79.912V75H650.732V79.704C650.732 80.376 650.892 80.9093 651.212 81.304C651.543 81.6987 651.985 81.896 652.54 81.896C653.18 81.896 653.708 81.6347 654.124 81.112C654.551 80.5787 654.764 79.864 654.764 78.968V75H656.14V83H654.764V81.768C654.241 82.696 653.42 83.16 652.3 83.16ZM658.734 83V75H660.11V76.232C660.654 75.304 661.502 74.84 662.654 74.84C663.56 74.84 664.291 75.1333 664.846 75.72C665.4 76.3067 665.678 77.0907 665.678 78.072V83H664.318V78.28C664.318 77.608 664.147 77.08 663.806 76.696C663.464 76.3013 663.006 76.104 662.43 76.104C661.768 76.104 661.214 76.3653 660.766 76.888C660.328 77.4107 660.11 78.1253 660.11 79.032V83H658.734ZM668.155 83V75H669.531V76.232C670.075 75.304 670.923 74.84 672.075 74.84C672.982 74.84 673.713 75.1333 674.267 75.72C674.822 76.3067 675.099 77.0907 675.099 78.072V83H673.739V78.28C673.739 77.608 673.569 77.08 673.227 76.696C672.886 76.3013 672.427 76.104 671.851 76.104C671.19 76.104 670.635 76.3653 670.187 76.888C669.75 77.4107 669.531 78.1253 669.531 79.032V83H668.155ZM678.969 72.584C678.788 72.7653 678.559 72.856 678.281 72.856C678.004 72.856 677.769 72.7653 677.577 72.584C677.385 72.392 677.289 72.1573 677.289 71.88C677.289 71.6133 677.385 71.384 677.577 71.192C677.769 71 678.004 70.904 678.281 70.904C678.559 70.904 678.788 71 678.969 71.192C679.151 71.384 679.241 71.6133 679.241 71.88C679.241 72.1573 679.151 72.392 678.969 72.584ZM677.577 83V75H678.953V83H677.577ZM681.562 83V75H682.938V76.232C683.482 75.304 684.33 74.84 685.482 74.84C686.388 74.84 687.119 75.1333 687.674 75.72C688.228 76.3067 688.506 77.0907 688.506 78.072V83H687.146V78.28C687.146 77.608 686.975 77.08 686.634 76.696C686.292 76.3013 685.834 76.104 685.258 76.104C684.596 76.104 684.042 76.3653 683.594 76.888C683.156 77.4107 682.938 78.1253 682.938 79.032V83H681.562ZM692.52 80.92C693.021 81.4427 693.672 81.704 694.472 81.704C695.272 81.704 695.922 81.4427 696.424 80.92C696.925 80.3867 697.176 79.7147 697.176 78.904C697.176 78.0933 696.92 77.4267 696.408 76.904C695.906 76.3707 695.261 76.104 694.472 76.104C693.682 76.104 693.032 76.3707 692.52 76.904C692.018 77.4267 691.768 78.0933 691.768 78.904C691.768 79.7147 692.018 80.3867 692.52 80.92ZM694.391 86.504C693.57 86.504 692.829 86.3493 692.168 86.04C691.506 85.7413 690.994 85.352 690.632 84.872L691.592 83.912C692.296 84.808 693.229 85.256 694.391 85.256C695.138 85.256 695.768 85.0213 696.28 84.552C696.802 84.0827 697.064 83.3947 697.064 82.488V81.576C696.776 82.0027 696.386 82.344 695.896 82.6C695.405 82.856 694.866 82.984 694.28 82.984C693.16 82.984 692.226 82.5947 691.48 81.816C690.733 81.0267 690.36 80.056 690.36 78.904C690.36 77.7627 690.733 76.8027 691.48 76.024C692.237 75.2347 693.17 74.84 694.28 74.84C694.866 74.84 695.405 74.968 695.896 75.224C696.386 75.48 696.776 75.816 697.064 76.232V75H698.44V82.536C698.44 83.8267 698.061 84.808 697.304 85.48C696.557 86.1627 695.586 86.504 694.391 86.504ZM708.186 83.16C707.076 83.16 706.143 82.7547 705.386 81.944C704.639 81.1333 704.266 80.152 704.266 79C704.266 77.848 704.639 76.8667 705.386 76.056C706.143 75.2453 707.076 74.84 708.186 74.84C708.772 74.84 709.316 74.9733 709.818 75.24C710.33 75.496 710.724 75.8267 711.002 76.232V75H712.378V83H711.002V81.768C710.724 82.1733 710.33 82.5093 709.818 82.776C709.316 83.032 708.772 83.16 708.186 83.16ZM708.394 81.896C709.183 81.896 709.834 81.6187 710.346 81.064C710.858 80.5093 711.114 79.8213 711.114 79C711.114 78.1787 710.858 77.4907 710.346 76.936C709.834 76.3813 709.183 76.104 708.394 76.104C707.594 76.104 706.938 76.3813 706.426 76.936C705.914 77.4907 705.658 78.1787 705.658 79C705.658 79.8213 705.914 80.5093 706.426 81.064C706.938 81.6187 707.594 81.896 708.394 81.896ZM714.968 83V75H716.344V76.232C716.888 75.304 717.736 74.84 718.888 74.84C719.795 74.84 720.525 75.1333 721.08 75.72C721.635 76.3067 721.912 77.0907 721.912 78.072V83H720.552V78.28C720.552 77.608 720.381 77.08 720.04 76.696C719.699 76.3013 719.24 76.104 718.664 76.104C718.003 76.104 717.448 76.3653 717 76.888C716.563 77.4107 716.344 78.1253 716.344 79.032V83H714.968ZM727.686 83.16C726.576 83.16 725.643 82.7547 724.886 81.944C724.139 81.1333 723.766 80.152 723.766 79C723.766 77.848 724.139 76.8667 724.886 76.056C725.643 75.2453 726.576 74.84 727.686 74.84C728.272 74.84 728.816 74.9733 729.318 75.24C729.83 75.496 730.224 75.8267 730.502 76.232V71H731.878V83H730.502V81.768C730.224 82.1733 729.83 82.5093 729.318 82.776C728.816 83.032 728.272 83.16 727.686 83.16ZM727.894 81.896C728.683 81.896 729.334 81.6187 729.846 81.064C730.358 80.5093 730.614 79.8213 730.614 79C730.614 78.1787 730.358 77.4907 729.846 76.936C729.334 76.3813 728.683 76.104 727.894 76.104C727.094 76.104 726.438 76.3813 725.926 76.936C725.414 77.4907 725.158 78.1787 725.158 79C725.158 79.8213 725.414 80.5093 725.926 81.064C726.438 81.6187 727.094 81.896 727.894 81.896ZM741.847 83.16C740.621 83.16 739.623 82.7653 738.855 81.976C738.087 81.1867 737.703 80.1947 737.703 79C737.703 77.816 738.093 76.8293 738.871 76.04C739.65 75.24 740.647 74.84 741.863 74.84C742.941 74.84 743.842 75.2027 744.567 75.928C745.303 76.6427 745.671 77.6187 745.671 78.856C745.671 79.016 745.666 79.1547 745.655 79.272H739.095C739.117 80.0187 739.383 80.6427 739.895 81.144C740.418 81.6453 741.074 81.896 741.863 81.896C742.983 81.896 743.815 81.432 744.359 80.504L745.447 81.256C744.669 82.5253 743.469 83.16 741.847 83.16ZM739.191 78.152H744.263C744.157 77.512 743.874 77.0053 743.415 76.632C742.967 76.248 742.434 76.056 741.815 76.056C741.186 76.056 740.621 76.248 740.119 76.632C739.629 77.0053 739.319 77.512 739.191 78.152ZM747.624 83V75H749V76.232C749.544 75.304 750.392 74.84 751.544 74.84C752.451 74.84 753.181 75.1333 753.736 75.72C754.291 76.3067 754.568 77.0907 754.568 78.072V83H753.208V78.28C753.208 77.608 753.037 77.08 752.696 76.696C752.355 76.3013 751.896 76.104 751.32 76.104C750.659 76.104 750.104 76.3653 749.656 76.888C749.219 77.4107 749 78.1253 749 79.032V83H747.624ZM758.55 75V84.056C758.55 84.856 758.326 85.464 757.878 85.88C757.43 86.296 756.849 86.504 756.134 86.504C755.889 86.504 755.67 86.488 755.478 86.456V85.224C755.649 85.2453 755.803 85.256 755.942 85.256C756.763 85.256 757.174 84.8027 757.174 83.896V75H758.55ZM758.566 72.584C758.385 72.7653 758.155 72.856 757.878 72.856C757.601 72.856 757.366 72.7653 757.174 72.584C756.982 72.392 756.886 72.1573 756.886 71.88C756.886 71.6133 756.982 71.384 757.174 71.192C757.366 71 757.601 70.904 757.878 70.904C758.155 70.904 758.385 71 758.566 71.192C758.747 71.384 758.838 71.6133 758.838 71.88C758.838 72.1573 758.747 72.392 758.566 72.584ZM764.707 83.16C763.502 83.16 762.499 82.76 761.699 81.96C760.91 81.1493 760.515 80.1627 760.515 79C760.515 77.8373 760.91 76.856 761.699 76.056C762.499 75.2453 763.502 74.84 764.707 74.84C765.902 74.84 766.894 75.2453 767.683 76.056C768.483 76.856 768.883 77.8373 768.883 79C768.883 80.1627 768.483 81.1493 767.683 81.96C766.894 82.76 765.902 83.16 764.707 83.16ZM762.691 81.048C763.214 81.6027 763.886 81.88 764.707 81.88C765.529 81.88 766.195 81.6027 766.707 81.048C767.219 80.4933 767.475 79.8107 767.475 79C767.475 78.1893 767.219 77.5067 766.707 76.952C766.195 76.3973 765.529 76.12 764.707 76.12C763.886 76.12 763.214 76.3973 762.691 76.952C762.179 77.5067 761.923 78.1893 761.923 79C761.923 79.8107 762.179 80.4933 762.691 81.048ZM772.815 86.344H771.279L773.023 82.584L769.519 75H771.039L773.791 81.08L776.527 75H778.063L772.815 86.344ZM68.424 106.344H66.888L68.632 102.584L65.128 95H66.648L69.4 101.08L72.136 95H73.672L68.424 106.344ZM78.4261 103.16C77.2208 103.16 76.2181 102.76 75.4181 101.96C74.6288 101.149 74.2341 100.163 74.2341 99C74.2341 97.8373 74.6288 96.856 75.4181 96.056C76.2181 95.2453 77.2208 94.84 78.4261 94.84C79.6208 94.84 80.6128 95.2453 81.4021 96.056C82.2021 96.856 82.6021 97.8373 82.6021 99C82.6021 100.163 82.2021 101.149 81.4021 101.96C80.6128 102.76 79.6208 103.16 78.4261 103.16ZM76.4101 101.048C76.9328 101.603 77.6048 101.88 78.4261 101.88C79.2475 101.88 79.9141 101.603 80.4261 101.048C80.9381 100.493 81.1941 99.8107 81.1941 99C81.1941 98.1893 80.9381 97.5067 80.4261 96.952C79.9141 96.3973 79.2475 96.12 78.4261 96.12C77.6048 96.12 76.9328 96.3973 76.4101 96.952C75.8981 97.5067 75.6421 98.1893 75.6421 99C75.6421 99.8107 75.8981 100.493 76.4101 101.048ZM87.4093 103.16C86.5346 103.16 85.8253 102.867 85.2812 102.28C84.7373 101.683 84.4653 100.893 84.4653 99.912V95H85.8413V99.704C85.8413 100.376 86.0013 100.909 86.3213 101.304C86.6519 101.699 87.0946 101.896 87.6493 101.896C88.2893 101.896 88.8173 101.635 89.2333 101.112C89.6599 100.579 89.8733 99.864 89.8733 98.968V95H91.2493V103H89.8733V101.768C89.3506 102.696 88.5293 103.16 87.4093 103.16ZM93.8429 103V95H95.2189V96.552C95.3682 96.0613 95.6562 95.6667 96.0829 95.368C96.5202 95.0693 96.9789 94.92 97.4589 94.92C97.6935 94.92 97.9015 94.9413 98.0829 94.984V96.408C97.8909 96.3227 97.6402 96.28 97.3309 96.28C96.7762 96.28 96.2855 96.52 95.8589 97C95.4322 97.48 95.2189 98.1573 95.2189 99.032V103H93.8429ZM103.624 103V96.264H101.928V95H103.624V93.384C103.624 92.584 103.848 91.9707 104.296 91.544C104.744 91.1173 105.336 90.904 106.072 90.904C106.51 90.904 106.926 90.9733 107.32 91.112V92.328C107.075 92.2213 106.744 92.168 106.328 92.168C105.87 92.168 105.534 92.2693 105.32 92.472C105.107 92.6747 105 93.0267 105 93.528V95H107.32V96.264H105V103H103.624ZM108.827 103V95H110.203V96.552C110.353 96.0613 110.641 95.6667 111.067 95.368C111.505 95.0693 111.963 94.92 112.443 94.92C112.678 94.92 112.886 94.9413 113.067 94.984V96.408C112.875 96.3227 112.625 96.28 112.315 96.28C111.761 96.28 111.27 96.52 110.843 97C110.417 97.48 110.203 98.1573 110.203 99.032V103H108.827ZM117.925 103.16C116.699 103.16 115.701 102.765 114.933 101.976C114.165 101.187 113.781 100.195 113.781 99C113.781 97.816 114.171 96.8293 114.949 96.04C115.728 95.24 116.725 94.84 117.941 94.84C119.019 94.84 119.92 95.2027 120.645 95.928C121.381 96.6427 121.749 97.6187 121.749 98.856C121.749 99.016 121.744 99.1547 121.733 99.272H115.173C115.195 100.019 115.461 100.643 115.973 101.144C116.496 101.645 117.152 101.896 117.941 101.896C119.061 101.896 119.893 101.432 120.437 100.504L121.525 101.256C120.747 102.525 119.547 103.16 117.925 103.16ZM115.269 98.152H120.341C120.235 97.512 119.952 97.0053 119.493 96.632C119.045 96.248 118.512 96.056 117.893 96.056C117.264 96.056 116.699 96.248 116.197 96.632C115.707 97.0053 115.397 97.512 115.269 98.152ZM127.222 103.16C125.996 103.16 124.998 102.765 124.23 101.976C123.462 101.187 123.078 100.195 123.078 99C123.078 97.816 123.468 96.8293 124.246 96.04C125.025 95.24 126.022 94.84 127.238 94.84C128.316 94.84 129.217 95.2027 129.942 95.928C130.678 96.6427 131.046 97.6187 131.046 98.856C131.046 99.016 131.041 99.1547 131.03 99.272H124.47C124.492 100.019 124.758 100.643 125.27 101.144C125.793 101.645 126.449 101.896 127.238 101.896C128.358 101.896 129.19 101.432 129.734 100.504L130.822 101.256C130.044 102.525 128.844 103.16 127.222 103.16ZM124.566 98.152H129.638C129.532 97.512 129.249 97.0053 128.79 96.632C128.342 96.248 127.809 96.056 127.19 96.056C126.561 96.056 125.996 96.248 125.494 96.632C125.004 97.0053 124.694 97.512 124.566 98.152ZM139.697 103.08C138.961 103.08 138.369 102.872 137.921 102.456C137.473 102.04 137.249 101.432 137.249 100.632V96.264H135.553V95H137.249V92.776H138.625V95H140.929V96.264H138.625V100.456C138.625 100.957 138.732 101.309 138.945 101.512C139.158 101.715 139.494 101.816 139.953 101.816C140.358 101.816 140.684 101.763 140.929 101.656V102.888C140.545 103.016 140.134 103.08 139.697 103.08ZM142.687 103V95H144.063V96.552C144.212 96.0613 144.5 95.6667 144.927 95.368C145.364 95.0693 145.823 94.92 146.303 94.92C146.537 94.92 146.745 94.9413 146.927 94.984V96.408C146.735 96.3227 146.484 96.28 146.175 96.28C145.62 96.28 145.129 96.52 144.703 97C144.276 97.48 144.063 98.1573 144.063 99.032V103H142.687ZM149.938 92.584C149.757 92.7653 149.527 92.856 149.25 92.856C148.973 92.856 148.738 92.7653 148.546 92.584C148.354 92.392 148.258 92.1573 148.258 91.88C148.258 91.6133 148.354 91.384 148.546 91.192C148.738 91 148.973 90.904 149.25 90.904C149.527 90.904 149.757 91 149.938 91.192C150.119 91.384 150.21 91.6133 150.21 91.88C150.21 92.1573 150.119 92.392 149.938 92.584ZM148.546 103V95H149.922V103H148.546ZM155.826 103.16C154.717 103.16 153.784 102.755 153.026 101.944C152.28 101.133 151.906 100.152 151.906 99C151.906 97.848 152.28 96.8667 153.026 96.056C153.784 95.2453 154.717 94.84 155.826 94.84C156.413 94.84 156.957 94.9733 157.458 95.24C157.97 95.496 158.365 95.8267 158.642 96.232V95H160.018V103H158.642V101.768C158.365 102.173 157.97 102.509 157.458 102.776C156.957 103.032 156.413 103.16 155.826 103.16ZM156.034 101.896C156.824 101.896 157.474 101.619 157.986 101.064C158.498 100.509 158.754 99.8213 158.754 99C158.754 98.1787 158.498 97.4907 157.986 96.936C157.474 96.3813 156.824 96.104 156.034 96.104C155.234 96.104 154.578 96.3813 154.066 96.936C153.554 97.4907 153.298 98.1787 153.298 99C153.298 99.8213 153.554 100.509 154.066 101.064C154.578 101.619 155.234 101.896 156.034 101.896ZM162.609 103V91H163.985V103H162.609ZM171.828 106.344H170.452V95H171.828V96.232C172.106 95.8267 172.495 95.496 172.996 95.24C173.508 94.9733 174.058 94.84 174.644 94.84C175.754 94.84 176.682 95.2453 177.428 96.056C178.186 96.8667 178.564 97.848 178.564 99C178.564 100.152 178.186 101.133 177.428 101.944C176.682 102.755 175.754 103.16 174.644 103.16C174.058 103.16 173.508 103.032 172.996 102.776C172.495 102.509 172.106 102.173 171.828 101.768V106.344ZM172.484 101.064C172.996 101.619 173.647 101.896 174.436 101.896C175.226 101.896 175.876 101.619 176.388 101.064C176.9 100.509 177.156 99.8213 177.156 99C177.156 98.1787 176.9 97.4907 176.388 96.936C175.876 96.3813 175.226 96.104 174.436 96.104C173.647 96.104 172.996 96.3813 172.484 96.936C171.972 97.4907 171.716 98.1787 171.716 99C171.716 99.8213 171.972 100.509 172.484 101.064ZM184.066 103.16C182.839 103.16 181.842 102.765 181.074 101.976C180.306 101.187 179.922 100.195 179.922 99C179.922 97.816 180.311 96.8293 181.09 96.04C181.869 95.24 182.866 94.84 184.082 94.84C185.159 94.84 186.061 95.2027 186.786 95.928C187.522 96.6427 187.89 97.6187 187.89 98.856C187.89 99.016 187.885 99.1547 187.874 99.272H181.314C181.335 100.019 181.602 100.643 182.114 101.144C182.637 101.645 183.293 101.896 184.082 101.896C185.202 101.896 186.034 101.432 186.578 100.504L187.666 101.256C186.887 102.525 185.687 103.16 184.066 103.16ZM181.41 98.152H186.482C186.375 97.512 186.093 97.0053 185.634 96.632C185.186 96.248 184.653 96.056 184.034 96.056C183.405 96.056 182.839 96.248 182.338 96.632C181.847 97.0053 181.538 97.512 181.41 98.152ZM189.843 103V95H191.219V96.552C191.368 96.0613 191.656 95.6667 192.083 95.368C192.52 95.0693 192.979 94.92 193.459 94.92C193.694 94.92 193.902 94.9413 194.083 94.984V96.408C193.891 96.3227 193.64 96.28 193.331 96.28C192.776 96.28 192.286 96.52 191.859 97C191.432 97.48 191.219 98.1573 191.219 99.032V103H189.843ZM197.094 92.584C196.913 92.7653 196.684 92.856 196.406 92.856C196.129 92.856 195.894 92.7653 195.702 92.584C195.51 92.392 195.414 92.1573 195.414 91.88C195.414 91.6133 195.51 91.384 195.702 91.192C195.894 91 196.129 90.904 196.406 90.904C196.684 90.904 196.913 91 197.094 91.192C197.276 91.384 197.366 91.6133 197.366 91.88C197.366 92.1573 197.276 92.392 197.094 92.584ZM195.702 103V95H197.078V103H195.702ZM203.239 103.16C202.033 103.16 201.031 102.76 200.231 101.96C199.441 101.149 199.047 100.163 199.047 99C199.047 97.8373 199.441 96.856 200.231 96.056C201.031 95.2453 202.033 94.84 203.239 94.84C204.433 94.84 205.425 95.2453 206.215 96.056C207.015 96.856 207.415 97.8373 207.415 99C207.415 100.163 207.015 101.149 206.215 101.96C205.425 102.76 204.433 103.16 203.239 103.16ZM201.223 101.048C201.745 101.603 202.417 101.88 203.239 101.88C204.06 101.88 204.727 101.603 205.239 101.048C205.751 100.493 206.007 99.8107 206.007 99C206.007 98.1893 205.751 97.5067 205.239 96.952C204.727 96.3973 204.06 96.12 203.239 96.12C202.417 96.12 201.745 96.3973 201.223 96.952C200.711 97.5067 200.455 98.1893 200.455 99C200.455 99.8107 200.711 100.493 201.223 101.048ZM212.686 103.16C211.576 103.16 210.643 102.755 209.886 101.944C209.139 101.133 208.766 100.152 208.766 99C208.766 97.848 209.139 96.8667 209.886 96.056C210.643 95.2453 211.576 94.84 212.686 94.84C213.272 94.84 213.816 94.9733 214.318 95.24C214.83 95.496 215.224 95.8267 215.502 96.232V91H216.878V103H215.502V101.768C215.224 102.173 214.83 102.509 214.318 102.776C213.816 103.032 213.272 103.16 212.686 103.16ZM212.894 101.896C213.683 101.896 214.334 101.619 214.846 101.064C215.358 100.509 215.614 99.8213 215.614 99C215.614 98.1787 215.358 97.4907 214.846 96.936C214.334 96.3813 213.683 96.104 212.894 96.104C212.094 96.104 211.438 96.3813 210.926 96.936C210.414 97.4907 210.158 98.1787 210.158 99C210.158 99.8213 210.414 100.509 210.926 101.064C211.438 101.619 212.094 101.896 212.894 101.896ZM221.02 102.776C220.796 103.011 220.519 103.128 220.188 103.128C219.857 103.128 219.575 103.011 219.34 102.776C219.116 102.541 219.004 102.259 219.004 101.928C219.004 101.608 219.121 101.331 219.356 101.096C219.591 100.851 219.868 100.728 220.188 100.728C220.508 100.728 220.785 100.851 221.02 101.096C221.255 101.331 221.372 101.608 221.372 101.928C221.372 102.259 221.255 102.541 221.02 102.776Z" fill="white"/>
<g opacity="0.5" clipPath="url(#clip2_11038_151355)">
<circle cx="1244.64" cy="87.6614" r="46.3" transform="rotate(90 1244.64 87.6614)" fill="white" fill-opacity="0.1"/>
<path opacity="0.1" d="M1105.06 -4.93872C1105.06 1.14149 1106.26 7.16216 1108.59 12.7795C1110.91 18.3969 1114.32 23.501 1118.62 27.8004C1122.92 32.0997 1128.03 35.5102 1133.64 37.8369C1139.26 40.1637 1145.28 41.3613 1151.36 41.3613C1157.44 41.3613 1163.46 40.1637 1169.08 37.8369C1174.7 35.5101 1179.8 32.0997 1184.1 27.8003C1188.4 23.501 1191.81 18.3969 1194.14 12.7795C1196.47 7.16215 1197.66 1.14148 1197.66 -4.93874L1151.36 -4.93872L1105.06 -4.93872Z" fill="white"/>
<path opacity="0.1" d="M1058.54 134.043C1064.64 134.043 1070.69 132.84 1076.33 130.505C1081.97 128.169 1087.09 124.745 1091.41 120.429C1095.72 116.113 1099.15 110.989 1101.48 105.349C1103.82 99.7101 1105.02 93.6659 1105.02 87.5619C1105.02 81.458 1103.82 75.4138 1101.48 69.7745C1099.15 64.1352 1095.72 59.0112 1091.41 54.6951C1087.09 50.3789 1081.97 46.9552 1076.33 44.6193C1070.69 42.2834 1064.64 41.0812 1058.54 41.0812L1058.54 87.562L1058.54 134.043Z" fill="white"/>
<rect opacity="0.2" x="1198" y="41.1104" width="92.9304" height="92.9316" transform="rotate(90 1198 41.1104)" fill="white"/>
<path d="M1198 41.1104L1247.5 -7.04298L1290.93 -51.8201L1290.93 41.1104L1198 41.1104Z" fill="white" fill-opacity="0.15"/>
</g>
<path d="M1083.92 71.216C1082.08 71.216 1080.52 70.58 1079.24 69.308C1077.95 68.024 1077.31 66.458 1077.31 64.61C1077.31 62.762 1077.95 61.202 1079.24 59.93C1080.52 58.646 1082.08 58.004 1083.92 58.004C1085.13 58.004 1086.23 58.28 1087.21 58.832C1088.19 59.384 1088.98 60.14 1089.57 61.1L1088.16 61.946C1087.71 61.214 1087.11 60.638 1086.38 60.218C1085.65 59.798 1084.83 59.588 1083.92 59.588C1082.52 59.588 1081.35 60.074 1080.41 61.046C1079.47 62.018 1079 63.206 1079 64.61C1079 66.014 1079.47 67.202 1080.41 68.174C1081.35 69.146 1082.52 69.632 1083.92 69.632C1084.83 69.632 1085.65 69.422 1086.38 69.002C1087.11 68.582 1087.71 68.006 1088.16 67.274L1089.57 68.12C1088.98 69.08 1088.19 69.836 1087.21 70.388C1086.23 70.94 1085.13 71.216 1083.92 71.216ZM1093.09 71H1091.55V57.5H1093.09V63.386C1093.71 62.342 1094.66 61.82 1095.96 61.82C1096.98 61.82 1097.8 62.15 1098.42 62.81C1099.05 63.47 1099.36 64.352 1099.36 65.456V71H1097.83V65.69C1097.83 64.934 1097.64 64.34 1097.25 63.908C1096.87 63.464 1096.35 63.242 1095.7 63.242C1094.96 63.242 1094.34 63.536 1093.83 64.124C1093.34 64.712 1093.09 65.516 1093.09 66.536V71ZM1106.14 71.18C1104.79 71.18 1103.66 70.73 1102.76 69.83C1101.87 68.918 1101.43 67.808 1101.43 66.5C1101.43 65.192 1101.87 64.088 1102.76 63.188C1103.66 62.276 1104.79 61.82 1106.14 61.82C1107.49 61.82 1108.6 62.276 1109.49 63.188C1110.39 64.088 1110.84 65.192 1110.84 66.5C1110.84 67.808 1110.39 68.918 1109.49 69.83C1108.6 70.73 1107.49 71.18 1106.14 71.18ZM1103.87 68.804C1104.46 69.428 1105.22 69.74 1106.14 69.74C1107.07 69.74 1107.82 69.428 1108.39 68.804C1108.97 68.18 1109.26 67.412 1109.26 66.5C1109.26 65.588 1108.97 64.82 1108.39 64.196C1107.82 63.572 1107.07 63.26 1106.14 63.26C1105.22 63.26 1104.46 63.572 1103.87 64.196C1103.3 64.82 1103.01 65.588 1103.01 66.5C1103.01 67.412 1103.3 68.18 1103.87 68.804ZM1117.06 71.18C1115.7 71.18 1114.57 70.73 1113.67 69.83C1112.79 68.918 1112.34 67.808 1112.34 66.5C1112.34 65.192 1112.79 64.088 1113.67 63.188C1114.57 62.276 1115.7 61.82 1117.06 61.82C1118.4 61.82 1119.52 62.276 1120.41 63.188C1121.31 64.088 1121.76 65.192 1121.76 66.5C1121.76 67.808 1121.31 68.918 1120.41 69.83C1119.52 70.73 1118.4 71.18 1117.06 71.18ZM1114.79 68.804C1115.38 69.428 1116.13 69.74 1117.06 69.74C1117.98 69.74 1118.73 69.428 1119.31 68.804C1119.88 68.18 1120.17 67.412 1120.17 66.5C1120.17 65.588 1119.88 64.82 1119.31 64.196C1118.73 63.572 1117.98 63.26 1117.06 63.26C1116.13 63.26 1115.38 63.572 1114.79 64.196C1114.21 64.82 1113.93 65.588 1113.93 66.5C1113.93 67.412 1114.21 68.18 1114.79 68.804ZM1126.68 71.18C1125.85 71.18 1125.12 71.006 1124.5 70.658C1123.88 70.298 1123.43 69.776 1123.15 69.092L1124.41 68.39C1124.58 68.834 1124.87 69.182 1125.29 69.434C1125.71 69.686 1126.18 69.812 1126.7 69.812C1127.14 69.812 1127.51 69.704 1127.81 69.488C1128.11 69.272 1128.26 68.978 1128.26 68.606C1128.26 68.282 1128.14 68.012 1127.9 67.796C1127.67 67.58 1127.27 67.382 1126.7 67.202L1125.8 66.914C1124.3 66.482 1123.55 65.606 1123.55 64.286C1123.55 63.542 1123.84 62.948 1124.43 62.504C1125.03 62.048 1125.77 61.82 1126.64 61.82C1128.01 61.82 1129 62.342 1129.61 63.386L1128.46 64.178C1127.97 63.494 1127.34 63.152 1126.59 63.152C1126.18 63.152 1125.83 63.254 1125.53 63.458C1125.24 63.65 1125.09 63.908 1125.09 64.232C1125.09 64.532 1125.18 64.79 1125.36 65.006C1125.56 65.21 1125.89 65.384 1126.37 65.528L1127.36 65.834C1128.99 66.338 1129.81 67.22 1129.81 68.48C1129.81 69.32 1129.52 69.98 1128.93 70.46C1128.35 70.94 1127.6 71.18 1126.68 71.18ZM1136.02 71.18C1134.64 71.18 1133.52 70.736 1132.66 69.848C1131.79 68.96 1131.36 67.844 1131.36 66.5C1131.36 65.168 1131.8 64.058 1132.68 63.17C1133.55 62.27 1134.67 61.82 1136.04 61.82C1137.25 61.82 1138.27 62.228 1139.08 63.044C1139.91 63.848 1140.33 64.946 1140.33 66.338C1140.33 66.518 1140.32 66.674 1140.31 66.806H1132.93C1132.95 67.646 1133.25 68.348 1133.83 68.912C1134.42 69.476 1135.15 69.758 1136.04 69.758C1137.3 69.758 1138.24 69.236 1138.85 68.192L1140.07 69.038C1139.2 70.466 1137.85 71.18 1136.02 71.18ZM1133.04 65.546H1138.74C1138.62 64.826 1138.3 64.256 1137.79 63.836C1137.28 63.404 1136.68 63.188 1135.99 63.188C1135.28 63.188 1134.64 63.404 1134.08 63.836C1133.53 64.256 1133.18 64.826 1133.04 65.546ZM1154.17 59.372C1154.99 60.14 1155.4 61.112 1155.4 62.288C1155.4 63.464 1154.99 64.436 1154.17 65.204C1153.37 65.96 1152.31 66.338 1151 66.338H1148.77V71H1147.1V58.22H1151C1152.31 58.22 1153.37 58.604 1154.17 59.372ZM1153 64.088C1153.49 63.62 1153.74 63.02 1153.74 62.288C1153.74 61.556 1153.49 60.956 1153 60.488C1152.52 60.02 1151.86 59.786 1151 59.786H1148.77V64.79H1151C1151.86 64.79 1152.52 64.556 1153 64.088ZM1157.38 71V57.5H1158.92V71H1157.38ZM1165.57 71.18C1164.32 71.18 1163.27 70.724 1162.42 69.812C1161.58 68.9 1161.16 67.796 1161.16 66.5C1161.16 65.204 1161.58 64.1 1162.42 63.188C1163.27 62.276 1164.32 61.82 1165.57 61.82C1166.23 61.82 1166.84 61.97 1167.4 62.27C1167.98 62.558 1168.42 62.93 1168.73 63.386V62H1170.28V71H1168.73V69.614C1168.42 70.07 1167.98 70.448 1167.4 70.748C1166.84 71.036 1166.23 71.18 1165.57 71.18ZM1165.8 69.758C1166.69 69.758 1167.42 69.446 1168 68.822C1168.57 68.198 1168.86 67.424 1168.86 66.5C1168.86 65.576 1168.57 64.802 1168 64.178C1167.42 63.554 1166.69 63.242 1165.8 63.242C1164.9 63.242 1164.16 63.554 1163.59 64.178C1163.01 64.802 1162.72 65.576 1162.72 66.5C1162.72 67.424 1163.01 68.198 1163.59 68.822C1164.16 69.446 1164.9 69.758 1165.8 69.758ZM1173.2 71V62H1174.74V63.386C1175.36 62.342 1176.31 61.82 1177.61 61.82C1178.63 61.82 1179.45 62.15 1180.07 62.81C1180.7 63.47 1181.01 64.352 1181.01 65.456V71H1179.48V65.69C1179.48 64.934 1179.29 64.34 1178.9 63.908C1178.52 63.464 1178 63.242 1177.35 63.242C1176.61 63.242 1175.99 63.536 1175.48 64.124C1174.99 64.712 1174.74 65.516 1174.74 66.536V71H1173.2Z" fill="white"/>
<rect x="1030.5" y="37.5" width="198" height="54" rx="11.5" stroke="white"/>
<defs>
<clipPath id="clip0_11038_151355">
<rect width="619" height="128" fill="white"/>
</clipPath>
<clipPath id="clip1_11038_151355">
<rect width="618.656" height="182.359" fill="white" transform="translate(0.496094 -0.359375)"/>
</clipPath>
<clipPath id="clip2_11038_151355">
<rect width="232" height="128" fill="white" transform="translate(1059)"/>
</clipPath>
</defs>
</svg>
