<svg width="32" height="32" viewBox="0 0 32 32" fill="none" xmlns="http://www.w3.org/2000/svg">
<path d="M24.9993 18.5333H22.5377C22.2737 18.5333 22.0155 18.6117 21.7961 18.7585L18.786 20.7733C18.306 21.0933 17.746 21.2399 17.1993 21.2399C16.7327 21.2399 16.266 21.1333 15.8393 20.8933C15.197 20.5537 14.7251 19.9299 14.4934 19.2306C14.3078 18.6705 13.9376 18.1514 13.4042 17.8992C12.7919 17.6096 12.2399 17.2272 11.7727 16.7599C10.626 15.6133 9.99935 13.9999 9.99935 12.1999V6.99992V6.66658C9.99935 5.93021 9.4024 5.33325 8.66602 5.33325C5.06602 5.33325 2.66602 7.13325 2.66602 11.3333V18.5333C2.66602 22.7333 5.06602 24.5333 8.66602 24.5333H13.666V28.3333H9.86602C9.31935 28.3333 8.86602 28.7866 8.86602 29.3333C8.86602 29.8799 9.31935 30.3333 9.86602 30.3333H19.466C20.0127 30.3333 20.466 29.8799 20.466 29.3333C20.466 28.7866 20.0127 28.3333 19.466 28.3333H15.666V24.5333H20.666C23.8599 24.5333 26.1093 23.1165 26.5761 19.8639C26.6807 19.135 26.0691 18.5333 25.3327 18.5333H24.9993Z" fill="white"/>
<path d="M25 2.66675H16.3333C14.3467 2.66675 12.8533 3.68008 12.2667 5.33341C12.0933 5.84008 12 6.40008 12 7.00008V12.2001C12 13.4934 12.4267 14.5867 13.1867 15.3467C13.9467 16.1067 15.04 16.5334 16.3333 16.5334V18.3867C16.3333 19.0667 17.1067 19.4801 17.68 19.1067L21.5333 16.5334H25C25.6 16.5334 26.16 16.4401 26.6667 16.2667C28.32 15.6801 29.3333 14.1867 29.3333 12.2001V7.00008C29.3333 4.40008 27.6 2.66675 25 2.66675ZM16.8267 10.6667C16.2667 10.6667 15.8267 10.2134 15.8267 9.66675C15.8267 9.12008 16.2667 8.66675 16.8267 8.66675C17.3867 8.66675 17.8267 9.12008 17.8267 9.66675C17.8267 10.2134 17.3867 10.6667 16.8267 10.6667ZM20.5867 10.6667C20.0267 10.6667 19.5867 10.2134 19.5867 9.66675C19.5867 9.12008 20.04 8.66675 20.5867 8.66675C21.1333 8.66675 21.5867 9.12008 21.5867 9.66675C21.5867 10.2134 21.1333 10.6667 20.5867 10.6667ZM24.3333 10.6667C23.7733 10.6667 23.3333 10.2134 23.3333 9.66675C23.3333 9.12008 23.7867 8.66675 24.3333 8.66675C24.88 8.66675 25.3333 9.12008 25.3333 9.66675C25.3333 10.2134 24.88 10.6667 24.3333 10.6667Z" fill="white"/>
<path d="M29.3333 7.00008V12.2001C29.3333 14.1867 28.32 15.6801 26.6667 16.2667C26.16 16.4401 25.6 16.5334 25 16.5334H21.5333L17.68 19.1067C17.1067 19.4801 16.3333 19.0667 16.3333 18.3867V16.5334C15.04 16.5334 13.9467 16.1067 13.1867 15.3467C12.4267 14.5867 12 13.4934 12 12.2001V7.00008C12 6.40008 12.0933 5.84008 12.2667 5.33341C12.8533 3.68008 14.3467 2.66675 16.3333 2.66675H25C27.6 2.66675 29.3333 4.40008 29.3333 7.00008Z" fill="white"/>
</svg>
