<svg width="32" height="32" viewBox="0 0 32 32" fill="none" xmlns="http://www.w3.org/2000/svg">
<path opacity="0.4" d="M21.4394 2.66602H25.954C27.8237 2.66602 29.3387 4.19382 29.3387 6.0793V10.632C29.3387 12.5175 27.8237 14.0453 25.954 14.0453H21.4394C19.5697 14.0453 18.0547 12.5175 18.0547 10.632V6.0793C18.0547 4.19382 19.5697 2.66602 21.4394 2.66602Z" fill="white"/>
<path fill-rule="evenodd" clip-rule="evenodd" d="M6.05657 2.66602H10.5712C12.4409 2.66602 13.9559 4.19382 13.9559 6.0793V10.632C13.9559 12.5175 12.4409 14.0453 10.5712 14.0453H6.05657C4.18688 14.0453 2.67188 12.5175 2.67188 10.632V6.0793C2.67188 4.19382 4.18688 2.66602 6.05657 2.66602ZM6.05657 17.9531H10.5712C12.4409 17.9531 13.9559 19.4809 13.9559 21.3664V25.9192C13.9559 27.8034 12.4409 29.3324 10.5712 29.3324H6.05657C4.18688 29.3324 2.67188 27.8034 2.67188 25.9192V21.3664C2.67188 19.4809 4.18688 17.9531 6.05657 17.9531ZM25.9566 17.9531H21.442C19.5723 17.9531 18.0573 19.4809 18.0573 21.3664V25.9192C18.0573 27.8034 19.5723 29.3324 21.442 29.3324H25.9566C27.8263 29.3324 29.3413 27.8034 29.3413 25.9192V21.3664C29.3413 19.4809 27.8263 17.9531 25.9566 17.9531Z" fill="white"/>
</svg>
