<svg width="33" height="33" viewBox="0 0 33 33" fill="none" xmlns="http://www.w3.org/2000/svg">
<circle opacity="0.1" cx="16.4375" cy="16.0977" r="16" fill="#B8B8FF"/>
<path fill-rule="evenodd" clip-rule="evenodd" d="M20.1325 12.7489C20.1325 14.8375 18.4674 16.5122 16.3909 16.5122C14.3144 16.5122 12.6493 14.8375 12.6493 12.7489C12.6493 10.6595 14.3144 8.98633 16.3909 8.98633C18.4674 8.98633 20.1325 10.6595 20.1325 12.7489ZM16.3868 23.2085C13.3369 23.2085 10.7326 22.725 10.7326 20.7909C10.7326 18.856 13.3202 18.3548 16.3868 18.3548C19.4367 18.3548 22.041 18.8383 22.041 20.7732C22.041 22.7074 19.4535 23.2085 16.3868 23.2085ZM21.7263 12.8169C21.7263 13.8816 21.4088 14.8735 20.8516 15.698C20.7943 15.7829 20.8453 15.8974 20.9463 15.915C21.0856 15.939 21.2297 15.9526 21.3761 15.9566C22.8366 15.995 24.1475 15.0496 24.5097 13.6262C25.0461 11.512 23.471 9.61393 21.4653 9.61393C21.2472 9.61393 21.0387 9.63715 20.8357 9.67878C20.8079 9.68518 20.7784 9.69799 20.7625 9.72281C20.7434 9.75323 20.7577 9.79405 20.7768 9.82047C21.3793 10.6698 21.7263 11.7057 21.7263 12.8169ZM24.1446 17.4419C25.126 17.6348 25.7715 18.0287 26.0389 18.601C26.265 19.071 26.265 19.6161 26.0389 20.0852C25.6298 20.973 24.311 21.258 23.7984 21.3317C23.6926 21.3477 23.6074 21.2556 23.6185 21.1492C23.8804 18.6891 21.7975 17.5227 21.2587 17.2545C21.2356 17.2425 21.2308 17.2241 21.2332 17.2129C21.2348 17.2049 21.2443 17.1921 21.2618 17.1897C22.4279 17.1681 23.6814 17.3282 24.1446 17.4419ZM11.4863 15.9562C11.6327 15.9522 11.776 15.9394 11.9161 15.9145C12.0171 15.8969 12.0681 15.7825 12.0108 15.6976C11.4536 14.873 11.1361 13.8812 11.1361 12.8165C11.1361 11.7053 11.4831 10.6694 12.0856 9.82004C12.1047 9.79362 12.1182 9.75279 12.0999 9.72237C12.084 9.69836 12.0538 9.68475 12.0267 9.67834C11.8229 9.63671 11.6144 9.6135 11.3963 9.6135C9.39063 9.6135 7.81552 11.5116 8.35276 13.6258C8.7149 15.0492 10.0258 15.9946 11.4863 15.9562ZM11.6313 17.2125C11.6337 17.2246 11.6289 17.2422 11.6066 17.255C11.067 17.5232 8.9841 18.6895 9.24595 21.1488C9.2571 21.2561 9.17273 21.3473 9.06687 21.3321C8.5543 21.2585 7.23548 20.9735 6.82638 20.0857C6.59954 19.6158 6.59954 19.0714 6.82638 18.6015C7.0938 18.0291 7.73849 17.6352 8.71985 17.4415C9.18387 17.3286 10.4366 17.1685 11.6034 17.1901C11.621 17.1925 11.6297 17.2053 11.6313 17.2125Z" fill="#B8B8FF"/>
</svg>
