<svg width="33" height="33" viewBox="0 0 33 33" fill="none" xmlns="http://www.w3.org/2000/svg">
<circle cx="16.2821" cy="16.6805" r="16.0321" fill="#B8B8FF" fill-opacity="0.1"/>
<path fill-rule="evenodd" clip-rule="evenodd" d="M7.60156 16.6932C7.60156 12.1185 11.2575 7.99609 16.303 7.99609C21.2355 7.99609 24.9696 12.0402 24.9696 16.6671C24.9696 22.0332 20.5929 25.3642 16.2856 25.3642C14.8614 25.3642 13.2809 24.9815 12.0131 24.2335C11.5702 23.9639 11.1968 23.7639 10.7191 23.9204L8.96496 24.4423C8.52207 24.5814 8.1226 24.2335 8.25287 23.7639L8.8347 21.8158C8.93022 21.5461 8.91285 21.2591 8.77391 21.033C8.02708 19.6589 7.60156 18.1543 7.60156 16.6932ZM15.1571 16.6931C15.1571 17.3106 15.6521 17.8064 16.2687 17.8151C16.8853 17.8151 17.3803 17.3106 17.3803 16.7018C17.3803 16.0843 16.8853 15.5886 16.2687 15.5886C15.6608 15.5799 15.1571 16.0843 15.1571 16.6931ZM19.1599 16.7017C19.1599 17.3105 19.6549 17.815 20.2715 17.815C20.8881 17.815 21.3831 17.3105 21.3831 16.7017C21.3831 16.0842 20.8881 15.5885 20.2715 15.5885C19.6549 15.5885 19.1599 16.0842 19.1599 16.7017ZM12.2681 17.8151C11.6603 17.8151 11.1566 17.3107 11.1566 16.7019C11.1566 16.0844 11.6516 15.5887 12.2681 15.5887C12.8847 15.5887 13.3797 16.0844 13.3797 16.7019C13.3797 17.3107 12.8847 17.8064 12.2681 17.8151Z" fill="#B8B8FF"/>
</svg>
