<svg width="33" height="33" viewBox="0 0 33 33" fill="none" xmlns="http://www.w3.org/2000/svg">
<circle cx="16.7821" cy="16.0955" r="16.0321" fill="#B8B8FF" fill-opacity="0.1"/>
<path fill-rule="evenodd" clip-rule="evenodd" d="M7.875 16.0932C7.875 11.1767 11.8563 7.18652 16.7817 7.18652C21.6982 7.18652 25.6884 11.1767 25.6884 16.0932C25.6884 21.0186 21.6982 24.9999 16.7817 24.9999C11.8563 24.9999 7.875 21.0186 7.875 16.0932ZM18.7688 17.7234L20.2117 13.1632C20.3097 12.8514 20.0247 12.5575 19.7129 12.6555L15.1527 14.0806C14.9657 14.1429 14.8142 14.2854 14.7608 14.4725L13.3357 19.0416C13.2378 19.3444 13.5317 19.6383 13.8345 19.5404L18.3769 18.1153C18.564 18.0619 18.7154 17.9104 18.7688 17.7234Z" fill="#B8B8FF"/>
</svg>
