<svg width="33" height="33" viewBox="0 0 33 33" fill="none" xmlns="http://www.w3.org/2000/svg">
<circle cx="16.7821" cy="16.2401" r="16.0321" fill="#B8B8FF" fill-opacity="0.1"/>
<path d="M16.9974 8.37988C12.3974 8.37988 8.66406 12.1132 8.66406 16.7132C8.66406 21.3132 12.3974 25.0465 16.9974 25.0465C21.5974 25.0465 25.3307 21.3132 25.3307 16.7132C25.3307 12.1132 21.5974 8.37988 16.9974 8.37988ZM14.4974 13.3799C14.9557 13.3799 15.3307 13.7549 15.3307 14.2132C15.3307 14.6715 14.9641 15.0465 14.4974 15.0465C14.0391 15.0465 13.6641 14.6715 13.6641 14.2132C13.6641 13.7549 14.0391 13.3799 14.4974 13.3799ZM14.9391 19.6549C14.8141 19.7799 14.6557 19.8382 14.4974 19.8382C14.3391 19.8382 14.1807 19.7799 14.0557 19.6549C13.8141 19.4132 13.8141 19.0132 14.0557 18.7715L19.0557 13.7715C19.2974 13.5299 19.6974 13.5299 19.9391 13.7715C20.1807 14.0132 20.1807 14.4132 19.9391 14.6549L14.9391 19.6549ZM19.4974 20.0465C19.0307 20.0465 18.6557 19.6715 18.6557 19.2132C18.6557 18.7549 19.0307 18.3799 19.4891 18.3799C19.9474 18.3799 20.3224 18.7549 20.3224 19.2132C20.3224 19.6715 19.9557 20.0465 19.4974 20.0465Z" fill="#B8B8FF"/>
</svg>
