<svg width="33" height="33" viewBox="0 0 33 33" fill="none" xmlns="http://www.w3.org/2000/svg">
<ellipse opacity="0.1" cx="16.5312" cy="16.7629" rx="16" ry="16.0002" fill="#B8B8FF"/>
<path d="M10.6693 19.2305C8.8276 19.2305 7.33594 20.7221 7.33594 22.5638C7.33594 23.1888 7.51094 23.7805 7.81927 24.2805C8.39427 25.2471 9.4526 25.8971 10.6693 25.8971C11.8859 25.8971 12.9443 25.2471 13.5193 24.2805C13.8276 23.7805 14.0026 23.1888 14.0026 22.5638C14.0026 20.7221 12.5109 19.2305 10.6693 19.2305ZM12.3109 22.2888L10.5359 23.9305C10.4193 24.0388 10.2609 24.0971 10.1109 24.0971C9.9526 24.0971 9.79427 24.0388 9.66927 23.9138L8.84427 23.0888C8.6026 22.8471 8.6026 22.4471 8.84427 22.2055C9.08594 21.9638 9.48594 21.9638 9.7276 22.2055L10.1276 22.6055L11.4609 21.3721C11.7109 21.1388 12.1109 21.1555 12.3443 21.4055C12.5776 21.6555 12.5609 22.0555 12.3109 22.2888Z" fill="#B8B8FF"/>
<path d="M24.4141 17.1475H22.3307C21.4141 17.1475 20.6641 17.8975 20.6641 18.8141C20.6641 19.7308 21.4141 20.4808 22.3307 20.4808H24.4141C24.6474 20.4808 24.8307 20.2975 24.8307 20.0641V17.5641C24.8307 17.3308 24.6474 17.1475 24.4141 17.1475Z" fill="#B8B8FF"/>
<path d="M20.275 11.2303C20.525 11.4719 20.3167 11.8469 19.9667 11.8469L13.0667 11.8386C12.6667 11.8386 12.4667 11.3553 12.75 11.0719L14.2083 9.60527C15.4417 8.38027 17.4333 8.38027 18.6667 9.60527L20.2417 11.1969C20.25 11.2053 20.2667 11.2219 20.275 11.2303Z" fill="#B8B8FF"/>
<path d="M24.7245 22.2801C24.2161 23.9968 22.7495 25.0635 20.7495 25.0635H15.3328C15.0078 25.0635 14.7995 24.7051 14.9328 24.4051C15.1828 23.8218 15.3411 23.1635 15.3411 22.5635C15.3411 20.0385 13.2828 17.9801 10.7578 17.9801C10.1245 17.9801 9.50781 18.1135 8.94115 18.3635C8.63281 18.4968 8.25781 18.2885 8.25781 17.9551V16.7301C8.25781 14.4635 9.62448 12.8801 11.7495 12.6135C11.9578 12.5801 12.1828 12.5635 12.4161 12.5635H20.7495C20.9661 12.5635 21.1745 12.5718 21.3745 12.6051C23.0578 12.7968 24.2745 13.8218 24.7245 15.3468C24.8078 15.6218 24.6078 15.8968 24.3245 15.8968H22.4161C20.6078 15.8968 19.1745 17.5468 19.5661 19.4218C19.8411 20.7885 21.1078 21.7301 22.4995 21.7301H24.3245C24.6161 21.7301 24.8078 22.0135 24.7245 22.2801Z" fill="#B8B8FF"/>
</svg>
