<svg width="33" height="33" viewBox="0 0 33 33" fill="none" xmlns="http://www.w3.org/2000/svg">
<circle cx="16.7821" cy="16.6707" r="16.0321" fill="#B8B8FF" fill-opacity="0.1"/>
<path d="M23.6979 12.7316L18.8979 9.37325C17.5896 8.45658 15.5813 8.50658 14.3229 9.48158L10.1479 12.7399C9.31458 13.3899 8.65625 14.7232 8.65625 15.7732V21.5232C8.65625 23.6482 10.3813 25.3816 12.5063 25.3816H21.4896C23.6146 25.3816 25.3396 23.6566 25.3396 21.5316V15.8816C25.3396 14.7566 24.6146 13.3732 23.6979 12.7316ZM17.6229 22.0482C17.6229 22.3899 17.3396 22.6732 16.9979 22.6732C16.6563 22.6732 16.3729 22.3899 16.3729 22.0482V19.5482C16.3729 19.2066 16.6563 18.9232 16.9979 18.9232C17.3396 18.9232 17.6229 19.2066 17.6229 19.5482V22.0482Z" fill="#B8B8FF"/>
</svg>
