<svg width="33" height="33" viewBox="0 0 33 33" fill="none" xmlns="http://www.w3.org/2000/svg">
<circle opacity="0.1" cx="16.0321" cy="16.3221" r="16.0321" fill="#B8B8FF"/>
<path d="M18.4566 12.1582C18.4566 11.601 18.1821 11.0853 17.7164 10.7776L14.3897 8.55705C13.8325 8.1828 13.1006 8.1828 12.5434 8.55705L9.21675 10.7776C8.75933 11.0853 8.47656 11.601 8.47656 12.1582V16.882C8.47656 17.1149 8.65953 17.2979 8.8924 17.2979H18.0407C18.2736 17.2979 18.4566 17.1149 18.4566 16.882V12.1582ZM13.4666 15.2187C12.6682 15.2187 12.0111 14.5617 12.0111 13.7633C12.0111 12.9649 12.6682 12.3079 13.4666 12.3079C14.265 12.3079 14.922 12.9649 14.922 13.7633C14.922 14.5617 14.265 15.2187 13.4666 15.2187Z" fill="#B8B8FF"/>
<path d="M24.2805 23.9504H23.2243V21.4554C24.0144 21.1975 24.5882 20.4574 24.5882 19.5841V17.9208C24.5882 16.8313 23.6984 15.9414 22.6089 15.9414C21.5194 15.9414 20.6295 16.8313 20.6295 17.9208V19.5841C20.6295 20.449 21.195 21.1809 21.9685 21.447V23.9504H18.4589V18.9604C18.4589 18.7275 18.2759 18.5445 18.043 18.5445H8.89469C8.66182 18.5445 8.47885 18.7275 8.47885 18.9604V23.9504H7.64719C7.3062 23.9504 7.02344 24.2331 7.02344 24.5741C7.02344 24.9151 7.3062 25.1979 7.64719 25.1979H22.559C22.5756 25.1979 22.5839 25.2062 22.6006 25.2062C22.6172 25.2062 22.6255 25.1979 22.6421 25.1979H24.2805C24.6215 25.1979 24.9043 24.9151 24.9043 24.5741C24.9043 24.2331 24.6215 23.9504 24.2805 23.9504ZM12.8451 21.4554C12.8451 21.1144 13.1279 20.8316 13.4689 20.8316C13.8098 20.8316 14.0926 21.1144 14.0926 21.4554V23.9504H12.8451V21.4554Z" fill="#B8B8FF"/>
</svg>
