<svg xmlns="http://www.w3.org/2000/svg" width="32" height="27" viewBox="0 0 32 27" fill="none">
<path d="M0 6.17907C0 4.49568 0.498062 3.05842 1.54326 2.02539L3.36101 3.82197C1.33786 5.81437 3.1047 12.009 8.86513 17.7077C14.6256 23.4064 20.8968 25.1509 22.9181 23.1549L24.7358 24.9515C21.3258 28.3219 13.5585 25.9306 7.05648 19.5025C2.54666 15.0434 0 9.98422 0 6.17907Z" fill="#009A46"/>
<path d="M11.4701 26.502C9.76684 26.502 8.31264 26.0098 7.26562 24.9767L9.08337 23.1802C11.1029 25.1761 17.3705 23.4299 23.1363 17.7329C28.9022 12.036 30.6654 5.8414 28.6459 3.8454L30.4637 2.04883C33.8756 5.4192 31.4543 13.096 24.9504 19.5223C20.4388 23.9868 15.32 26.502 11.4701 26.502Z" fill="#FF5805"/>
<path d="M25.5415 16.9501C24.4381 13.8097 22.1841 10.4537 19.194 7.50014C12.6919 1.07199 4.92467 -1.32104 1.51459 2.05113C1.27283 2.29187 1.48187 2.88654 1.98357 3.38239C2.48526 3.87825 3.08694 4.08306 3.3287 3.84411C5.35003 1.84812 11.6176 3.59439 17.3817 9.29313C20.1083 11.988 22.1405 14.9973 23.1203 17.7819C23.9783 20.2235 23.8946 22.1925 22.8949 23.1807C22.6513 23.4196 22.8622 24.0161 23.362 24.5101C23.8619 25.0042 24.4654 25.2126 24.709 24.9718C26.4558 23.2453 26.7521 20.3924 25.5415 16.9501Z" fill="#F5AFCB"/>
<path d="M30.4635 2.0504C28.713 0.320299 25.8301 0.027457 22.3437 1.22577C19.1681 2.3145 15.7707 4.54405 12.7823 7.49762C6.28026 13.924 3.85903 21.6007 7.26912 24.9729C7.51269 25.2119 8.11437 25.0052 8.61606 24.5112C9.11776 24.0171 9.3268 23.4207 9.08322 23.1799C7.05826 21.1839 8.83056 14.9893 14.5964 9.2906C17.323 6.59574 20.3678 4.58717 23.1853 3.61881C25.6556 2.77262 27.6478 2.85347 28.6494 3.84159C28.8912 4.08053 29.4947 3.87393 29.9945 3.37807C30.4944 2.88222 30.7053 2.28935 30.4635 2.0504Z" fill="#FF9B00"/>
</svg>
