<svg xmlns="http://www.w3.org/2000/svg" width="40" height="12" viewBox="0 0 40 12" fill="none">
  <g clip-path="url(#clip0_28863_84227)">
    <path d="M13.1367 6.37966L13.2726 5.65678C13.2726 5.65678 12.2264 5.33923 11.375 5.92814V8.81993H12.2792V6.47048C12.6395 6.19911 13.1367 6.37966 13.1367 6.37966Z" fill="#00425F"/>
    <mask id="mask0_28863_84227" style="mask-type:luminance" maskUnits="userSpaceOnUse" x="11" y="5" width="3" height="4">
      <path fill-rule="evenodd" clip-rule="evenodd" d="M11.3828 5.92902C11.7925 5.64575 12.2472 5.57221 12.6088 5.57227C12.9988 5.57227 13.2804 5.65772 13.2804 5.65772L13.1445 6.3806C13.1445 6.3806 12.6473 6.20005 12.287 6.47136V8.82081H11.3828V5.92902Z" fill="white"/>
    </mask>
    <g mask="url(#mask0_28863_84227)">
      <path d="M-43.6562 17.7828H83.6731V-150.805H-43.6562V17.7828Z" fill="#00425F"/>
    </g>
    <mask id="mask1_28863_84227" style="mask-type:luminance" maskUnits="userSpaceOnUse" x="11" y="5" width="3" height="4">
      <path fill-rule="evenodd" clip-rule="evenodd" d="M11.3828 5.92902C11.7925 5.64575 12.2472 5.57227 12.6088 5.57227C12.9988 5.57227 13.2804 5.65772 13.2804 5.65772L13.1445 6.3806C13.1445 6.3806 12.6473 6.20005 12.287 6.47136V8.82081H11.3828V5.92902Z" fill="white"/>
    </mask>
    <g mask="url(#mask1_28863_84227)">
      <path d="M9.86719 10.2373H14.7965V4.15527H9.86719V10.2373Z" fill="#00425F"/>
    </g>
    <path d="M5.34375 4.83298L6.24748 4.67383V5.61434H7.14178V6.36643H6.24748V7.4881C6.24748 7.67916 6.28054 7.83086 6.34814 7.94301C6.41496 8.05692 6.54899 8.11334 6.75027 8.11334C6.84866 8.11334 6.94751 8.10453 7.05175 8.08583C7.15308 8.0668 7.24754 8.04234 7.33254 8.01034L7.46042 8.71483C7.35102 8.75871 7.23011 8.79677 7.09681 8.82904C6.96308 8.86101 6.7989 8.87768 6.6049 8.87768C6.3583 8.87768 6.15451 8.84407 5.99245 8.7774C5.8312 8.71077 5.70157 8.61722 5.60493 8.49789C5.50827 8.37959 5.44033 8.2344 5.40217 8.0644C5.36333 7.89474 5.34375 7.70737 5.34375 7.50068V4.83298Z" fill="#00425F"/>
    <mask id="mask2_28863_84227" style="mask-type:luminance" maskUnits="userSpaceOnUse" x="5" y="4" width="3" height="5">
      <path fill-rule="evenodd" clip-rule="evenodd" d="M5.35156 4.832L6.25529 4.67285V5.61334H7.14959V6.36546H6.25529V7.48712C6.25529 7.67825 6.28835 7.82988 6.3559 7.94203C6.42271 8.05597 6.55674 8.11237 6.75802 8.11237C6.85641 8.11237 6.9552 8.10355 7.0595 8.08485C7.16084 8.06582 7.25535 8.04137 7.34035 8.00943L7.46817 8.71385C7.35884 8.75779 7.23787 8.79585 7.10456 8.82812C6.97084 8.86006 6.80665 8.8767 6.61265 8.8767C6.36599 8.8767 6.16226 8.84309 6.00026 8.77643C5.83896 8.70979 5.70926 8.61625 5.61268 8.49697C5.51602 8.37861 5.44814 8.23343 5.40999 8.06343C5.37108 7.89376 5.35156 7.70643 5.35156 7.4997V4.832Z" fill="white"/>
    </mask>
    <g mask="url(#mask2_28863_84227)">
      <path d="M-43.6562 17.7828H83.6731V-150.805H-43.6562V17.7828Z" fill="#00425F"/>
    </g>
    <mask id="mask3_28863_84227" style="mask-type:luminance" maskUnits="userSpaceOnUse" x="5" y="4" width="3" height="5">
      <path fill-rule="evenodd" clip-rule="evenodd" d="M5.35156 4.832L6.25529 4.67285V5.61334H7.14959V6.36546H6.25529V7.48712C6.25529 7.67825 6.28835 7.82988 6.3559 7.94203C6.42271 8.05597 6.55674 8.11237 6.75802 8.11237C6.85641 8.11237 6.9552 8.10355 7.0595 8.08485C7.16084 8.06582 7.25535 8.04137 7.34035 8.00943L7.46817 8.71385C7.35884 8.75779 7.23787 8.79585 7.10456 8.82812C6.97084 8.86006 6.80665 8.8767 6.61265 8.8767C6.36599 8.8767 6.16226 8.84309 6.00026 8.77643C5.83896 8.70979 5.70926 8.61625 5.61268 8.49697C5.51602 8.37861 5.44814 8.23343 5.40999 8.06343C5.37108 7.89376 5.35156 7.70643 5.35156 7.4997V4.832Z" fill="white"/>
    </mask>
    <g mask="url(#mask3_28863_84227)">
      <path d="M3.83594 10.2941H8.98424V3.25684H3.83594V10.2941Z" fill="#00425F"/>
    </g>
    <path d="M14.6117 8.17283C14.777 8.17283 14.894 8.15577 14.9634 8.12383C15.0324 8.09156 15.0658 8.02832 15.0658 7.93583C15.0658 7.86274 15.0222 7.79916 14.9328 7.7451C14.8435 7.69001 14.7091 7.62883 14.5268 7.5591C14.3854 7.50641 14.2568 7.45204 14.141 7.39592C14.0265 7.33883 13.9285 7.27216 13.8475 7.19292C13.7668 7.11407 13.7043 7.01953 13.6593 6.90938C13.6142 6.80123 13.5928 6.67035 13.5928 6.51595C13.5928 6.21707 13.7043 5.98007 13.9263 5.80635C14.1486 5.63329 14.453 5.54492 14.8417 5.54492C15.036 5.54492 15.222 5.56222 15.4 5.59726C15.5776 5.63126 15.7197 5.67004 15.8239 5.7091L15.6666 6.41289C15.5613 6.37653 15.4469 6.34459 15.3237 6.31671C15.2006 6.28819 15.0618 6.27319 14.9085 6.27319C14.6255 6.27319 14.4838 6.35274 14.4838 6.51016C14.4838 6.54653 14.49 6.57886 14.5024 6.60707C14.5147 6.63565 14.5388 6.66286 14.5744 6.68901C14.6117 6.71489 14.6604 6.74407 14.7236 6.77404C14.7864 6.80565 14.8664 6.83826 14.9634 6.87535C15.1606 6.94877 15.3244 7.02016 15.4538 7.09229C15.5834 7.16435 15.6851 7.24022 15.7604 7.32447C15.8351 7.4068 15.8882 7.49795 15.918 7.59919C15.9478 7.70022 15.9634 7.81683 15.9634 7.9498C15.9634 8.26498 15.845 8.50329 15.6092 8.66447C15.3724 8.82495 15.0374 8.90586 14.6048 8.90586C14.3222 8.90586 14.0868 8.88241 13.899 8.83313C13.7105 8.78519 13.5804 8.74374 13.5078 8.71174L13.6593 7.97798C13.8122 8.03853 13.9713 8.08541 14.1319 8.12083C14.2946 8.1555 14.453 8.17283 14.6117 8.17283Z" fill="#00425F"/>
    <mask id="mask4_28863_84227" style="mask-type:luminance" maskUnits="userSpaceOnUse" x="13" y="5" width="3" height="4">
      <path fill-rule="evenodd" clip-rule="evenodd" d="M13.9341 5.80543C14.1564 5.63231 14.4608 5.54395 14.8495 5.54395C15.0439 5.54395 15.2299 5.56125 15.4079 5.59628C15.5854 5.63028 15.7275 5.66901 15.8317 5.70813L15.6745 6.41191C15.5691 6.37555 15.4547 6.34361 15.3315 6.31573C15.2084 6.28716 15.0696 6.27228 14.9164 6.27228C14.6334 6.27228 14.4917 6.35173 14.4917 6.50919C14.4917 6.54555 14.4978 6.57788 14.5102 6.6061C14.5226 6.63467 14.5466 6.66188 14.5822 6.68804C14.6195 6.71391 14.6683 6.7431 14.7315 6.77307C14.7943 6.80461 14.8742 6.83734 14.9712 6.87437C15.1685 6.94779 15.3323 7.01919 15.4616 7.09131C15.5913 7.16337 15.693 7.23919 15.7682 7.32349C15.843 7.40582 15.896 7.49691 15.9259 7.59822C15.9557 7.69925 15.9712 7.81585 15.9712 7.94882C15.9712 8.26401 15.8528 8.50237 15.6171 8.66349C15.3802 8.82398 15.0453 8.90488 14.6127 8.90488C14.3301 8.90488 14.0947 8.88143 13.9069 8.83216C13.7183 8.78422 13.5883 8.74276 13.5156 8.71076L13.6671 7.97701C13.8201 8.03761 13.9791 8.08443 14.1397 8.11985C14.3024 8.15446 14.4608 8.17185 14.6195 8.17185C14.7848 8.17185 14.9018 8.15485 14.9712 8.12285C15.0402 8.09058 15.0737 8.02734 15.0737 7.93485C15.0737 7.86176 15.0301 7.79819 14.9407 7.74413C14.8513 7.68904 14.7169 7.62785 14.5346 7.55813C14.3932 7.50543 14.2647 7.45107 14.1488 7.39495C14.0344 7.33785 13.9363 7.27119 13.8554 7.19195C13.7747 7.11307 13.7122 7.01855 13.6671 6.9084C13.6221 6.80019 13.6007 6.66937 13.6007 6.51498C13.6007 6.21616 13.7122 5.97916 13.9341 5.80543Z" fill="white"/>
    </mask>
    <g mask="url(#mask4_28863_84227)">
      <path d="M-43.6641 17.7819H83.6653V-150.806H-43.6641V17.7819Z" fill="#00425F"/>
    </g>
    <mask id="mask5_28863_84227" style="mask-type:luminance" maskUnits="userSpaceOnUse" x="13" y="5" width="3" height="4">
      <path fill-rule="evenodd" clip-rule="evenodd" d="M13.9341 5.80543C14.1564 5.63231 14.4608 5.54395 14.8495 5.54395C15.0439 5.54395 15.2299 5.56125 15.4079 5.59628C15.5854 5.63028 15.7275 5.66901 15.8317 5.70813L15.6745 6.41191C15.5691 6.37555 15.4547 6.34361 15.3315 6.31573C15.2084 6.28716 15.0696 6.27228 14.9164 6.27228C14.6334 6.27228 14.4917 6.35173 14.4917 6.50919C14.4917 6.54555 14.4978 6.57788 14.5102 6.6061C14.5226 6.63467 14.5466 6.66188 14.5822 6.68804C14.6195 6.71391 14.6683 6.7431 14.7315 6.77307C14.7943 6.80461 14.8742 6.83734 14.9712 6.87437C15.1685 6.94779 15.3323 7.01919 15.4616 7.09131C15.5913 7.16337 15.693 7.23919 15.7682 7.32349C15.843 7.40582 15.896 7.49691 15.9259 7.59822C15.9557 7.69925 15.9712 7.81585 15.9712 7.94882C15.9712 8.26401 15.8528 8.50237 15.6171 8.66349C15.3802 8.82398 15.0453 8.90488 14.6127 8.90488C14.3301 8.90488 14.0947 8.88143 13.9069 8.83216C13.7183 8.78422 13.5883 8.74276 13.5156 8.71076L13.6671 7.97701C13.8201 8.03761 13.9791 8.08443 14.1397 8.11985C14.3024 8.15446 14.4608 8.17185 14.6195 8.17185C14.7848 8.17185 14.9018 8.15485 14.9712 8.12285C15.0402 8.09058 15.0737 8.02734 15.0737 7.93485C15.0737 7.86176 15.0301 7.79819 14.9407 7.74413C14.8513 7.68904 14.7169 7.62785 14.5346 7.55813C14.3932 7.50543 14.2647 7.45107 14.1488 7.39495C14.0344 7.33785 13.9363 7.27119 13.8554 7.19195C13.7747 7.11307 13.7122 7.01855 13.6671 6.9084C13.6221 6.80019 13.6007 6.66937 13.6007 6.51498C13.6007 6.21616 13.7122 5.97916 13.9341 5.80543Z" fill="white"/>
    </mask>
    <g mask="url(#mask5_28863_84227)">
      <path d="M12 10.3223H17.4872V4.12793H12V10.3223Z" fill="#00425F"/>
    </g>
    <path d="M18.7523 6.98888C18.6713 7.29628 18.5859 7.60231 18.4948 7.90488C18.4039 8.20852 18.3073 8.51388 18.2075 8.82122H17.5039C17.4308 8.65122 17.3513 8.44928 17.2663 8.21497C17.1805 7.9797 17.093 7.72434 17.0011 7.44658C16.9102 7.16976 16.8173 6.87673 16.7221 6.56661C16.6266 6.25791 16.5339 5.94576 16.4453 5.62988H17.3978C17.4293 5.77506 17.4653 5.93458 17.5042 6.10622C17.5427 6.27828 17.5834 6.45543 17.6259 6.6377C17.6684 6.81928 17.7138 7.00179 17.7603 7.18609C17.8071 7.3704 17.8551 7.54685 17.9037 7.71658C17.9564 7.53873 18.008 7.35716 18.0585 7.17116C18.1083 6.98485 18.1573 6.80188 18.2042 6.62206C18.2503 6.44252 18.2957 6.26813 18.3371 6.10016C18.3793 5.93246 18.4167 5.77506 18.4498 5.62988H19.1039C19.1374 5.77506 19.1726 5.93246 19.2136 6.10016C19.2536 6.26813 19.2961 6.44252 19.3412 6.62206C19.3847 6.80188 19.4323 6.98485 19.4799 7.17116C19.5289 7.35716 19.5791 7.53873 19.631 7.71658C19.68 7.54685 19.7288 7.3704 19.7778 7.18609C19.8268 7.00179 19.8729 6.81928 19.9151 6.6377C19.9572 6.45543 19.9979 6.27828 20.0372 6.10622C20.076 5.93458 20.1113 5.77506 20.1436 5.62988H21.0837C20.9943 5.94576 20.9024 6.25791 20.8069 6.56661C20.7106 6.87673 20.6187 7.16976 20.5268 7.44658C20.4363 7.72434 20.347 7.9797 20.2602 8.21497C20.1726 8.44928 20.0919 8.65122 20.0201 8.82122H19.3165C19.2147 8.51388 19.1159 8.20852 19.0186 7.90488C18.9216 7.60231 18.8337 7.29628 18.7523 6.98888Z" fill="#00425F"/>
    <mask id="mask6_28863_84227" style="mask-type:luminance" maskUnits="userSpaceOnUse" x="16" y="5" width="6" height="4">
      <path fill-rule="evenodd" clip-rule="evenodd" d="M20.1436 5.62988H21.0837C20.9943 5.94576 20.9024 6.25791 20.8068 6.56655C20.7106 6.8767 20.6187 7.16982 20.5268 7.44658C20.4363 7.72434 20.347 7.9797 20.2601 8.21497C20.1726 8.44925 20.0919 8.65116 20.02 8.82122H19.3164C19.2147 8.51388 19.1159 8.20846 19.0186 7.90482C18.9216 7.60231 18.8337 7.29628 18.7523 6.98888C18.6713 7.29628 18.5859 7.60231 18.4948 7.90482C18.4039 8.20846 18.3073 8.51388 18.2074 8.82122H17.5038C17.4308 8.65116 17.3513 8.44925 17.2662 8.21497C17.1805 7.9797 17.0929 7.72434 17.0011 7.44658C16.9102 7.16982 16.8173 6.8767 16.7221 6.56655C16.6266 6.25791 16.5339 5.94576 16.4453 5.62988H17.3977C17.4293 5.77506 17.4653 5.93452 17.5042 6.10622C17.5427 6.27828 17.5833 6.45543 17.6259 6.63764C17.6683 6.81922 17.7138 7.00179 17.7603 7.18609C17.8071 7.37037 17.8551 7.54685 17.9037 7.71655C17.9564 7.53873 18.008 7.35709 18.0585 7.17113C18.1082 6.98485 18.1573 6.80188 18.2042 6.62206C18.2503 6.44246 18.2957 6.26806 18.3371 6.10016C18.3793 5.93246 18.4167 5.77506 18.4497 5.62988H19.1039C19.1373 5.77506 19.1726 5.93246 19.2136 6.10016C19.2536 6.26806 19.2961 6.44246 19.3411 6.62206C19.3847 6.80188 19.4323 6.98485 19.4799 7.17113C19.5289 7.35709 19.5791 7.53873 19.631 7.71655C19.68 7.54685 19.7287 7.37037 19.7778 7.18609C19.8268 7.00179 19.8729 6.81922 19.9151 6.63764C19.9572 6.45543 19.9979 6.27828 20.0371 6.10622C20.076 5.93452 20.1113 5.77506 20.1436 5.62988Z" fill="white"/>
    </mask>
    <g mask="url(#mask6_28863_84227)">
      <path d="M-43.6562 17.7828H83.6731V-150.805H-43.6562V17.7828Z" fill="#00425F"/>
    </g>
    <mask id="mask7_28863_84227" style="mask-type:luminance" maskUnits="userSpaceOnUse" x="16" y="5" width="6" height="4">
      <path fill-rule="evenodd" clip-rule="evenodd" d="M20.1436 5.62988H21.0837C20.9943 5.94576 20.9024 6.25791 20.8068 6.56655C20.7106 6.8767 20.6187 7.16982 20.5268 7.44658C20.4363 7.72434 20.347 7.9797 20.2601 8.21497C20.1726 8.44925 20.0919 8.65116 20.02 8.82122H19.3164C19.2147 8.51388 19.1159 8.20846 19.0186 7.90482C18.9216 7.60231 18.8337 7.29628 18.7523 6.98888C18.6713 7.29628 18.5859 7.60231 18.4948 7.90482C18.4039 8.20846 18.3073 8.51388 18.2074 8.82122H17.5038C17.4308 8.65116 17.3513 8.44925 17.2662 8.21497C17.1805 7.9797 17.0929 7.72434 17.0011 7.44658C16.9102 7.16982 16.8173 6.8767 16.7221 6.56655C16.6266 6.25791 16.5339 5.94576 16.4453 5.62988H17.3977C17.4293 5.77506 17.4653 5.93452 17.5042 6.10622C17.5427 6.27828 17.5833 6.45543 17.6259 6.63764C17.6683 6.81922 17.7138 7.00179 17.7603 7.18609C17.8071 7.37037 17.8551 7.54685 17.9037 7.71655C17.9564 7.53873 18.008 7.35709 18.0585 7.17113C18.1082 6.98485 18.1573 6.80188 18.2042 6.62206C18.2503 6.44246 18.2957 6.26806 18.3371 6.10016C18.3793 5.93246 18.4167 5.77506 18.4497 5.62988H19.1039C19.1373 5.77506 19.1726 5.93246 19.2136 6.10016C19.2536 6.26806 19.2961 6.44246 19.3411 6.62206C19.3847 6.80188 19.4323 6.98485 19.4799 7.17113C19.5289 7.35709 19.5791 7.53873 19.631 7.71655C19.68 7.54685 19.7287 7.37037 19.7778 7.18609C19.8268 7.00179 19.8729 6.81922 19.9151 6.63764C19.9572 6.45543 19.9979 6.27828 20.0371 6.10622C20.076 5.93452 20.1113 5.77506 20.1436 5.62988Z" fill="white"/>
    </mask>
    <g mask="url(#mask7_28863_84227)">
      <path d="M14.9297 10.2386H22.5997V4.21387H14.9297V10.2386Z" fill="#00425F"/>
    </g>
    <path d="M21.7188 8.81957H22.6211V5.62891H21.7188V8.81957Z" fill="#00425F"/>
    <mask id="mask8_28863_84227" style="mask-type:luminance" maskUnits="userSpaceOnUse" x="21" y="5" width="2" height="4">
      <path fill-rule="evenodd" clip-rule="evenodd" d="M21.7266 8.82052V5.62988H22.629V8.82052H21.7266Z" fill="white"/>
    </mask>
    <g mask="url(#mask8_28863_84227)">
      <path d="M-43.6562 17.7828H83.6731V-150.805H-43.6562V17.7828Z" fill="#00425F"/>
    </g>
    <mask id="mask9_28863_84227" style="mask-type:luminance" maskUnits="userSpaceOnUse" x="21" y="5" width="2" height="4">
      <path fill-rule="evenodd" clip-rule="evenodd" d="M21.7266 8.82052V5.62988H22.629V8.82052H21.7266Z" fill="white"/>
    </mask>
    <g mask="url(#mask9_28863_84227)">
      <path d="M20.2109 10.237H24.1449V4.21289H20.2109V10.237Z" fill="#00425F"/>
    </g>
    <path d="M23.3438 4.83395L24.2468 4.67383V5.63125H25.1404V6.38201H24.2468V7.50474C24.2468 7.69477 24.2802 7.84783 24.3467 7.95968C24.4132 8.07289 24.5479 8.12968 24.7496 8.12968C24.8473 8.12968 24.9475 8.12149 25.0499 8.1028C25.1534 8.08443 25.2472 8.05828 25.3326 8.02665L25.4594 8.7305C25.35 8.77528 25.2283 8.81343 25.0958 8.84604C24.9616 8.87798 24.7993 8.89431 24.6046 8.89431C24.3576 8.89431 24.1538 8.86104 23.9922 8.79368C23.8302 8.72807 23.7008 8.63525 23.6042 8.51486C23.5076 8.39656 23.4401 8.25068 23.4012 8.08174C23.3619 7.9114 23.3438 7.72301 23.3438 7.51725V4.83395Z" fill="#00425F"/>
    <mask id="mask10_28863_84227" style="mask-type:luminance" maskUnits="userSpaceOnUse" x="23" y="4" width="3" height="5">
      <path fill-rule="evenodd" clip-rule="evenodd" d="M23.3438 4.83297L24.2467 4.67285V5.63028H25.1404V6.38103H24.2467V7.50376C24.2467 7.69379 24.2802 7.84679 24.3467 7.9587C24.4132 8.07191 24.5479 8.12864 24.7495 8.12864C24.8472 8.12864 24.9475 8.12052 25.0499 8.10182C25.1534 8.0834 25.2472 8.05731 25.3325 8.02567L25.4593 8.72946C25.35 8.77431 25.2282 8.81246 25.0958 8.84506C24.9616 8.877 24.7993 8.89334 24.6046 8.89334C24.3576 8.89334 24.1538 8.86006 23.9922 8.7927C23.8301 8.72703 23.7008 8.63428 23.6042 8.51394C23.5076 8.39558 23.4401 8.24976 23.4011 8.08076C23.3619 7.91043 23.3438 7.72197 23.3438 7.51634V4.83297Z" fill="white"/>
    </mask>
    <g mask="url(#mask10_28863_84227)">
      <path d="M-43.6641 17.7828H83.6656V-150.805H-43.6641V17.7828Z" fill="#00425F"/>
    </g>
    <mask id="mask11_28863_84227" style="mask-type:luminance" maskUnits="userSpaceOnUse" x="23" y="4" width="3" height="5">
      <path fill-rule="evenodd" clip-rule="evenodd" d="M23.3438 4.83297L24.2467 4.67285V5.63028H25.1404V6.38103H24.2467V7.50376C24.2467 7.69379 24.2802 7.84679 24.3467 7.9587C24.4132 8.07191 24.5479 8.12864 24.7495 8.12864C24.8472 8.12864 24.9475 8.12052 25.0499 8.10182C25.1534 8.0834 25.2472 8.05731 25.3325 8.02567L25.4593 8.72946C25.35 8.77431 25.2282 8.81246 25.0958 8.84506C24.9616 8.877 24.7993 8.89334 24.6046 8.89334C24.3576 8.89334 24.1538 8.86006 23.9922 8.7927C23.8301 8.72703 23.7008 8.63428 23.6042 8.51394C23.5076 8.39558 23.4401 8.24976 23.4011 8.08076C23.3619 7.91043 23.3438 7.72197 23.3438 7.51634V4.83297Z" fill="white"/>
    </mask>
    <g mask="url(#mask11_28863_84227)">
      <path d="M21.8281 10.3108H26.9754V3.25684H21.8281V10.3108Z" fill="#00425F"/>
    </g>
    <path d="M25.7734 7.22629C25.7734 6.99538 25.8109 6.7778 25.8857 6.5738C25.9605 6.3691 26.0684 6.19165 26.2098 6.03965C26.3514 5.88768 26.5229 5.76795 26.7255 5.67856C26.9271 5.5905 27.1575 5.54492 27.4161 5.54492C27.5857 5.54492 27.7416 5.56092 27.8832 5.59083C28.025 5.62177 28.163 5.66498 28.2955 5.72104L28.1081 6.44292C28.0228 6.41092 27.9301 6.38307 27.8284 6.35789C27.7274 6.33407 27.6137 6.32156 27.4888 6.32156C27.2222 6.32156 27.0227 6.4048 26.8923 6.57071C26.7596 6.73701 26.695 6.95498 26.695 7.22629C26.695 7.51286 26.7564 7.73556 26.8807 7.89338C27.0027 8.0508 27.2185 8.13001 27.5254 8.13001C27.6348 8.13001 27.7514 8.11944 27.8774 8.09941C28.0024 8.07898 28.1175 8.04704 28.2236 8.00216L28.3501 8.74271C28.2446 8.78723 28.1139 8.82465 27.9563 8.85759C27.7979 8.88965 27.6246 8.90626 27.435 8.90626C27.144 8.90626 26.8927 8.86204 26.683 8.77532C26.4731 8.68865 26.2998 8.57029 26.1647 8.42071C26.0285 8.27077 25.9304 8.09398 25.8676 7.88995C25.8047 7.68562 25.7734 7.46398 25.7734 7.22629Z" fill="#00425F"/>
    <mask id="mask12_28863_84227" style="mask-type:luminance" maskUnits="userSpaceOnUse" x="25" y="5" width="4" height="4">
      <path fill-rule="evenodd" clip-rule="evenodd" d="M26.7333 5.67856C26.9349 5.5905 27.1652 5.54492 27.4239 5.54492C27.5935 5.54492 27.7494 5.56086 27.891 5.59077C28.0327 5.62177 28.1708 5.66492 28.3033 5.72104L28.1159 6.44286C28.0305 6.41092 27.9379 6.38307 27.8362 6.35789C27.7352 6.33401 27.6215 6.3215 27.4965 6.3215C27.23 6.3215 27.0305 6.4048 26.9001 6.57071C26.7675 6.73698 26.7028 6.95492 26.7028 7.22629C26.7028 7.51286 26.7643 7.73556 26.8885 7.89338C27.0105 8.0508 27.2263 8.13001 27.5332 8.13001C27.6426 8.13001 27.7592 8.11944 27.8852 8.09941C28.0102 8.07898 28.1253 8.04704 28.2314 8.00213L28.3578 8.74271C28.2525 8.78723 28.1217 8.82459 27.964 8.85759C27.8057 8.88959 27.6324 8.90626 27.4428 8.90626C27.1517 8.90626 26.9005 8.86201 26.6908 8.77526C26.4809 8.68859 26.3076 8.57029 26.1724 8.42074C26.0363 8.27077 25.9382 8.09398 25.8754 7.88995C25.8125 7.68562 25.7812 7.46392 25.7812 7.22629C25.7812 6.99538 25.8187 6.7778 25.8935 6.5738C25.9683 6.3691 26.0762 6.19159 26.2175 6.03959C26.3592 5.88762 26.5307 5.76795 26.7333 5.67856Z" fill="white"/>
    </mask>
    <g mask="url(#mask12_28863_84227)">
      <path d="M-43.6641 17.7828H83.6653V-150.805H-43.6641V17.7828Z" fill="#00425F"/>
    </g>
    <mask id="mask13_28863_84227" style="mask-type:luminance" maskUnits="userSpaceOnUse" x="25" y="5" width="4" height="4">
      <path fill-rule="evenodd" clip-rule="evenodd" d="M26.7333 5.67856C26.9349 5.5905 27.1652 5.54492 27.4239 5.54492C27.5935 5.54492 27.7494 5.56086 27.891 5.59077C28.0327 5.62177 28.1708 5.66492 28.3033 5.72104L28.1159 6.44286C28.0305 6.41092 27.9379 6.38307 27.8362 6.35789C27.7352 6.33401 27.6215 6.3215 27.4965 6.3215C27.23 6.3215 27.0305 6.4048 26.9001 6.57071C26.7675 6.73698 26.7028 6.95492 26.7028 7.22629C26.7028 7.51286 26.7643 7.73556 26.8885 7.89338C27.0105 8.0508 27.2263 8.13001 27.5332 8.13001C27.6426 8.13001 27.7592 8.11944 27.8852 8.09941C28.0102 8.07898 28.1253 8.04704 28.2314 8.00213L28.3578 8.74271C28.2525 8.78723 28.1217 8.82459 27.964 8.85759C27.8057 8.88959 27.6324 8.90626 27.4428 8.90626C27.1517 8.90626 26.9005 8.86201 26.6908 8.77526C26.4809 8.68859 26.3076 8.57029 26.1724 8.42074C26.0363 8.27077 25.9382 8.09398 25.8754 7.88995C25.8125 7.68562 25.7812 7.46392 25.7812 7.22629C25.7812 6.99538 25.8187 6.7778 25.8935 6.5738C25.9683 6.3691 26.0762 6.19159 26.2175 6.03959C26.3592 5.88762 26.5307 5.76795 26.7333 5.67856Z" fill="white"/>
    </mask>
    <g mask="url(#mask13_28863_84227)">
      <path d="M24.2656 10.3237H29.8738V4.12891H24.2656V10.3237Z" fill="#00425F"/>
    </g>
    <path d="M28.9375 8.82019V4.83256L29.8409 4.67383V5.64283C29.9012 5.62274 29.9786 5.60337 30.0745 5.58507C30.1689 5.56701 30.2616 5.55746 30.3503 5.55746C30.6084 5.55746 30.823 5.59316 30.9954 5.66359C31.1669 5.73431 31.3051 5.83462 31.4075 5.96413C31.5115 6.09301 31.5833 6.24734 31.6266 6.42453C31.6684 6.60298 31.6893 6.80162 31.6893 7.01989V8.82019H30.7863V7.12831C30.7863 6.83725 30.749 6.63122 30.6745 6.50916C30.5997 6.3891 30.4609 6.32828 30.2594 6.32828C30.1773 6.32828 30.1024 6.33546 30.0312 6.34904C29.9607 6.36334 29.8972 6.37895 29.8409 6.39495V8.82019H28.9375Z" fill="#00425F"/>
    <mask id="mask14_28863_84227" style="mask-type:luminance" maskUnits="userSpaceOnUse" x="28" y="4" width="4" height="5">
      <path fill-rule="evenodd" clip-rule="evenodd" d="M28.9375 4.83256L29.8408 4.67383V5.64289C29.9012 5.62274 29.9786 5.60337 30.0745 5.58507C30.1689 5.56701 30.2616 5.55753 30.3503 5.55753C30.6084 5.55753 30.8233 5.59322 30.9954 5.66359C31.1669 5.73437 31.3051 5.83465 31.4075 5.96419C31.5115 6.09301 31.5836 6.24734 31.6266 6.42459C31.6684 6.60301 31.6893 6.80162 31.6893 7.01995V8.82019H30.7863V7.12831C30.7863 6.83731 30.749 6.63122 30.6745 6.50916C30.5997 6.38916 30.4609 6.32828 30.2594 6.32828C30.1773 6.32828 30.1024 6.33546 30.0312 6.3491C29.9607 6.36334 29.8972 6.37895 29.8408 6.39495V8.82019H28.9375V4.83256Z" fill="white"/>
    </mask>
    <g mask="url(#mask14_28863_84227)">
      <path d="M-43.6641 17.7838H83.6653V-150.804H-43.6641V17.7838Z" fill="#00425F"/>
    </g>
    <mask id="mask15_28863_84227" style="mask-type:luminance" maskUnits="userSpaceOnUse" x="28" y="4" width="4" height="5">
      <path fill-rule="evenodd" clip-rule="evenodd" d="M28.9375 4.83256L29.8408 4.67383V5.64289C29.9012 5.62274 29.9786 5.60337 30.0745 5.58507C30.1689 5.56701 30.2616 5.55753 30.3503 5.55753C30.6084 5.55753 30.8233 5.59322 30.9954 5.66359C31.1669 5.73437 31.3051 5.83465 31.4075 5.96419C31.5115 6.09301 31.5836 6.24734 31.6266 6.42459C31.6684 6.60301 31.6893 6.80162 31.6893 7.01995V8.82019H30.7863V7.12831C30.7863 6.83731 30.749 6.63122 30.6745 6.50916C30.5997 6.38916 30.4609 6.32828 30.2594 6.32828C30.1773 6.32828 30.1024 6.33546 30.0312 6.3491C29.9607 6.36334 29.8972 6.37895 29.8408 6.39495V8.82019H28.9375V4.83256Z" fill="white"/>
    </mask>
    <g mask="url(#mask15_28863_84227)">
      <path d="M27.4219 10.2367H33.2053V3.25684H27.4219V10.2367Z" fill="#00425F"/>
    </g>
    <path d="M1.70312 8.82062V5.92919C1.70312 5.92919 2.15718 5.56641 3.15032 5.56641C4.05407 5.56641 4.55035 6.01829 4.55035 7.0128V8.82062H3.64765V7.0128C3.64765 6.37938 3.33086 6.3355 3.06023 6.3355C2.7896 6.3355 2.60835 6.47013 2.60835 6.47013V8.82062H1.70312Z" fill="#00425F"/>
    <mask id="mask16_28863_84227" style="mask-type:luminance" maskUnits="userSpaceOnUse" x="1" y="5" width="4" height="4">
      <path fill-rule="evenodd" clip-rule="evenodd" d="M1.69531 5.93017C1.69531 5.93017 2.14937 5.56738 3.1425 5.56738C4.04626 5.56738 4.54247 6.0192 4.54247 7.01384V8.82159H3.63984V7.01384C3.63984 6.38029 3.32305 6.33647 3.05241 6.33647C2.78179 6.33647 2.60054 6.47117 2.60054 6.47117V8.82159H1.69531V5.93017Z" fill="white"/>
    </mask>
    <g mask="url(#mask16_28863_84227)">
      <path d="M-43.6641 17.7828H83.6653V-150.805H-43.6641V17.7828Z" fill="#00425F"/>
    </g>
    <mask id="mask17_28863_84227" style="mask-type:luminance" maskUnits="userSpaceOnUse" x="1" y="5" width="4" height="4">
      <path fill-rule="evenodd" clip-rule="evenodd" d="M1.69531 5.93017C1.69531 5.93017 2.14937 5.56738 3.1425 5.56738C4.04626 5.56738 4.54247 6.0192 4.54247 7.01384V8.82159H3.63984V7.01384C3.63984 6.38029 3.32305 6.33647 3.05241 6.33647C2.78179 6.33647 2.60054 6.47117 2.60054 6.47117V8.82159H1.69531V5.93017Z" fill="white"/>
    </mask>
    <g mask="url(#mask17_28863_84227)">
      <path d="M0.179688 10.238H6.05844V4.15039H0.179688V10.238Z" fill="#00425F"/>
    </g>
    <path d="M0 8.82131V4.83298L0.903755 4.67383V8.82131H0Z" fill="#00425F"/>
    <mask id="mask18_28863_84227" style="mask-type:luminance" maskUnits="userSpaceOnUse" x="0" y="4" width="1" height="5">
      <path fill-rule="evenodd" clip-rule="evenodd" d="M0 4.83206L0.903755 4.67285V8.82034H0V4.83206Z" fill="white"/>
    </mask>
    <g mask="url(#mask18_28863_84227)">
      <path d="M-43.6641 17.7828H83.6653V-150.805H-43.6641V17.7828Z" fill="#00425F"/>
    </g>
    <mask id="mask19_28863_84227" style="mask-type:luminance" maskUnits="userSpaceOnUse" x="0" y="4" width="1" height="5">
      <path fill-rule="evenodd" clip-rule="evenodd" d="M0 4.83206L0.903755 4.67285V8.82034H0V4.83206Z" fill="white"/>
    </mask>
    <g mask="url(#mask19_28863_84227)">
      <path d="M-1.51562 10.2377H2.41983V3.25684H-1.51562V10.2377Z" fill="#00425F"/>
    </g>
    <path fill-rule="evenodd" clip-rule="evenodd" d="M8.63961 7.45489H10.6724C10.7632 6.9115 10.6724 5.55762 9.31677 5.55762C8.41331 5.55762 7.78125 6.18934 7.78125 7.18425C7.78125 8.44934 8.59422 8.90059 9.49837 8.90059C10.1304 8.90059 10.5819 8.72137 10.5819 8.72137L10.4915 7.9975C10.4915 7.9975 10.0396 8.13253 9.58767 8.13253C8.68501 8.13253 8.63961 7.45489 8.63961 7.45489ZM8.63958 6.82174C8.63958 6.82174 8.68498 6.18934 9.2724 6.18934C9.85943 6.18934 9.9037 6.82174 9.9037 6.82174H8.63958Z" fill="#00425F"/>
    <mask id="mask20_28863_84227" style="mask-type:luminance" maskUnits="userSpaceOnUse" x="7" y="5" width="4" height="4">
      <path fill-rule="evenodd" clip-rule="evenodd" d="M7.78125 7.18325C7.78125 6.18834 8.41334 5.55664 9.31674 5.55664C10.6723 5.55664 10.7632 6.91055 10.6723 7.45388H8.63961C8.63961 7.45388 8.68501 8.13152 9.58764 8.13152C10.0396 8.13152 10.4915 7.99649 10.4915 7.99649L10.5819 8.72037C10.5819 8.72037 10.1304 8.89964 9.49831 8.89964C8.59422 8.89964 7.78125 8.4484 7.78125 7.18325ZM9.27237 6.18834C8.68501 6.18834 8.63961 6.82079 8.63961 6.82079H9.9037C9.9037 6.82079 9.85937 6.18834 9.27237 6.18834Z" fill="white"/>
    </mask>
    <g mask="url(#mask20_28863_84227)">
      <path d="M-43.6641 17.7819H83.6653V-150.806H-43.6641V17.7819Z" fill="#00425F"/>
    </g>
    <mask id="mask21_28863_84227" style="mask-type:luminance" maskUnits="userSpaceOnUse" x="7" y="5" width="4" height="4">
      <path fill-rule="evenodd" clip-rule="evenodd" d="M7.78125 7.18325C7.78125 6.18834 8.41334 5.55664 9.31674 5.55664C10.6723 5.55664 10.7632 6.91055 10.6723 7.45388H8.63961C8.63961 7.45388 8.68501 8.13152 9.58764 8.13152C10.0396 8.13152 10.4915 7.99649 10.4915 7.99649L10.5819 8.72037C10.5819 8.72037 10.1304 8.89964 9.49831 8.89964C8.59422 8.89964 7.78125 8.4484 7.78125 7.18325ZM9.27237 6.18834C8.68501 6.18834 8.63961 6.82079 8.63961 6.82079H9.9037C9.9037 6.82079 9.85937 6.18834 9.27237 6.18834Z" fill="white"/>
    </mask>
    <g mask="url(#mask21_28863_84227)">
      <path d="M6.26562 10.317H12.2137V4.14062H6.26562V10.317Z" fill="#00425F"/>
    </g>
    <mask id="mask22_28863_84227" style="mask-type:luminance" maskUnits="userSpaceOnUse" x="32" y="4" width="7" height="8">
      <path fill-rule="evenodd" clip-rule="evenodd" d="M32.8906 4.67425C32.8906 4.48146 35.4888 4.06543 37.2312 4.06543C37.987 4.06543 38.5818 4.14367 38.734 4.35225C39.5185 5.32061 33.9949 11.3959 33.5346 11.2116C33.1655 11.1194 36.4794 7.25252 35.927 5.68682C35.6512 4.85888 32.8906 4.95098 32.8906 4.67425Z" fill="white"/>
    </mask>
    <g mask="url(#mask22_28863_84227)">
      <path d="M31.375 12.6321H40.3259V2.64844H31.375V12.6321Z" fill="#EE312A"/>
    </g>
    <mask id="mask23_28863_84227" style="mask-type:luminance" maskUnits="userSpaceOnUse" x="37" y="1" width="3" height="3">
      <path fill-rule="evenodd" clip-rule="evenodd" d="M37.5859 2.28142C37.5859 1.62012 38.1217 1.08496 38.782 1.08496C39.4432 1.08496 39.9781 1.62012 39.9781 2.28142C39.9781 2.94305 39.4432 3.47821 38.782 3.47821C38.1217 3.47821 37.5859 2.94305 37.5859 2.28142Z" fill="white"/>
    </mask>
    <g mask="url(#mask23_28863_84227)">
      <path d="M36.0703 4.89374H41.4946V-0.333008H36.0703V4.89374Z" fill="#EE312A"/>
    </g>
  </g>
  <defs>
    <clipPath id="clip0_28863_84227">
      <rect width="40" height="10.6061" fill="white" transform="translate(0 0.847656)"/>
    </clipPath>
  </defs>
</svg>