<svg xmlns="http://www.w3.org/2000/svg" width="32" height="27" viewBox="0 0 32 27" fill="none">
<g clip-path="url(#clip0_28863_84206)">
<path d="M12.6313 21.4797C11.2988 21.4797 10.2188 20.4168 10.2188 19.1014V15.6429L15.0227 13.1104L15.0441 19.0894C15.0487 20.4095 13.9672 21.4797 12.6313 21.4797Z" fill="#5FDB89"/>
<path d="M16.9431 25.0735V9.79137L10.3454 13.3555C9.1718 13.9916 7.7063 13.57 7.04757 12.4068C6.73861 11.8488 6.66678 11.1896 6.8483 10.5779C7.02982 9.96619 7.4494 9.45352 8.01235 9.1556L20.0777 2.63591C20.6458 2.32893 21.3552 2.54061 21.6622 3.10872C21.7544 3.27947 21.8028 3.47049 21.8028 3.66457V18.9465L28.4005 15.3817C29.5743 14.7458 31.0398 15.1676 31.6983 16.331C32.0074 16.8888 32.0796 17.5478 31.8984 18.1595C31.7173 18.7712 31.2981 19.284 30.7355 19.5823L18.6681 26.1022C18.1 26.4091 17.3906 26.1974 17.0836 25.6293C16.9914 25.4585 16.9431 25.2675 16.9431 25.0735Z" fill="#2357D1"/>
<path d="M6.40912 7.91568L15.053 3.2454C15.053 1.45302 13.6 0 11.8076 0C11.269 0 10.7388 0.134062 10.2649 0.390096L1.26056 5.25502C0.69809 5.55343 0.27907 6.06624 0.0979493 6.67787C-0.0831715 7.2895 -0.011151 7.94848 0.297778 8.50628C0.956304 9.67008 2.42234 10.092 3.5963 9.45561L6.11425 8.09572C6.20901 8.03393 6.30641 7.97082 6.40912 7.91568Z" fill="#5FDB89"/>
</g>
<defs>
<clipPath id="clip0_28863_84206">
<rect width="32" height="27" fill="white"/>
</clipPath>
</defs>
</svg>