<svg width="230" height="103" viewBox="0 0 230 103" fill="none" xmlns="http://www.w3.org/2000/svg">
<g opacity="0.85">
<rect x="14.4005" y="2.17399" width="36.5373" height="36.5373" rx="8.67847" stroke="#E4E4E4" stroke-width="0.347974"/>
</g>
<g filter="url(#filter0_dd_26165_81964)">
<rect x="69.1172" y="2" width="36.8852" height="36.8852" rx="8.85246" fill="#F9FAFB"/>
<rect x="69.2912" y="2.17399" width="36.5373" height="36.5373" rx="8.67847" stroke="url(#paint0_linear_26165_81964)" stroke-width="0.347974"/>
<path fill-rule="evenodd" clip-rule="evenodd" d="M97.1908 20.6602C97.1908 19.295 96.5297 18.2174 95.2654 18.2174C93.9964 18.2174 93.2281 19.2947 93.2281 20.6493C93.2281 22.2546 94.1347 23.0651 95.4359 23.0651C96.0706 23.0651 96.5506 22.9213 96.9132 22.7186V21.6519C96.5506 21.8333 96.1346 21.9451 95.6066 21.9451C95.0893 21.9451 94.6307 21.7637 94.572 21.1346H97.1795C97.1795 21.065 97.1901 20.788 97.1901 20.6599L97.1908 20.6602ZM94.5585 20.1538C94.5585 19.5511 94.9265 19.3005 95.2626 19.3005C95.5878 19.3005 95.9347 19.5511 95.9347 20.1538H94.5585ZM91.1723 18.2179C90.6496 18.2179 90.3139 18.4631 90.127 18.6338L90.0574 18.3032H88.8819V24.5215L90.2151 24.239L90.2205 22.7297C90.4125 22.8684 90.6951 23.0656 91.1646 23.0656C92.1192 23.0656 92.9885 22.3001 92.9885 20.6071C92.9831 19.0604 92.1032 18.2176 91.1697 18.2176L91.1723 18.2179ZM90.8521 21.8925C90.5376 21.8925 90.3511 21.7804 90.2228 21.6419L90.2174 19.6631C90.3562 19.5084 90.548 19.4019 90.8521 19.4019C91.3375 19.4019 91.6734 19.9459 91.6734 20.6444C91.6734 21.3589 91.3428 21.8925 90.8521 21.8925ZM87.0476 17.9033L88.3862 17.6156V16.5332L87.0476 16.8158V17.9033ZM87.0476 18.3086H88.3862V22.9749H87.0476V18.3086ZM85.6128 18.7029L85.5275 18.3086H84.3754V22.9754H85.7086V19.8125C86.0232 19.4019 86.5565 19.4766 86.7219 19.5353V18.3088C86.5512 18.2448 85.9274 18.1274 85.6126 18.7032L85.6128 18.7029ZM82.9464 17.1487L81.6452 17.4263L81.6399 21.6981C81.6399 22.4873 82.2319 23.0686 83.0211 23.0686C83.4584 23.0686 83.7783 22.9886 83.9544 22.8923V21.8096C83.7836 21.8792 82.9411 22.1242 82.9411 21.335V19.4446H83.9544V18.3086H82.9406L82.9464 17.1487ZM79.3414 19.6606C79.3414 19.4525 79.5121 19.3729 79.7947 19.3729C80.2559 19.3827 80.7086 19.4995 81.117 19.7139V18.4633C80.6744 18.287 80.2371 18.2181 79.7947 18.2181C78.712 18.2181 77.9922 18.7834 77.9922 19.7274C77.9922 21.1993 80.0188 20.9645 80.0188 21.5995C80.0188 21.8447 79.8054 21.9247 79.5068 21.9247C79.0642 21.9247 78.4988 21.7433 78.0509 21.4979V22.7668C78.5469 22.9802 79.0484 23.0684 79.5068 23.0684C80.6161 23.0684 81.3789 22.5191 81.3789 21.5644C81.3736 19.9754 79.3414 20.2579 79.3414 19.6606Z" fill="#6772E5"/>
</g>
<g filter="url(#filter1_dd_26165_81964)">
<rect x="124" y="2" width="36.8852" height="36.8852" rx="8.85246" fill="#F9FAFB"/>
<rect x="124.174" y="2.17399" width="36.5373" height="36.5373" rx="8.67847" stroke="url(#paint1_linear_26165_81964)" stroke-width="0.347974"/>
<path d="M132.49 21.7238C132.359 21.7248 132.233 21.6738 132.14 21.5821C132.046 21.4903 131.993 21.3653 131.992 21.2344V20.5196L132.983 19.9971L132.988 21.2306C132.987 21.2957 132.974 21.3602 132.949 21.4202C132.924 21.4802 132.887 21.5347 132.841 21.5806C132.795 21.6264 132.74 21.6626 132.68 21.6872C132.62 21.7118 132.555 21.7242 132.49 21.7238Z" fill="#FFE30F"/>
<path d="M133.377 22.4652V19.312L132.016 20.0476C131.899 20.1106 131.763 20.1254 131.635 20.0887C131.508 20.0521 131.4 19.9671 131.335 19.8518C131.303 19.7948 131.284 19.7321 131.276 19.6673C131.269 19.6025 131.275 19.537 131.294 19.4745C131.312 19.412 131.343 19.3539 131.384 19.3035C131.426 19.2531 131.477 19.2115 131.534 19.181L134.024 17.8358C134.06 17.8159 134.102 17.8058 134.143 17.8067C134.185 17.8075 134.226 17.8192 134.262 17.8406C134.298 17.862 134.328 17.8924 134.348 17.9287C134.369 17.9651 134.38 18.0062 134.38 18.0479V21.2011L135.741 20.4656C135.857 20.4025 135.994 20.3876 136.121 20.4242C136.248 20.4609 136.356 20.546 136.421 20.6613C136.453 20.7182 136.473 20.7809 136.48 20.8457C136.487 20.9104 136.482 20.976 136.463 21.0385C136.445 21.1009 136.414 21.1591 136.373 21.2095C136.331 21.2599 136.28 21.3016 136.223 21.3321L133.733 22.6765C133.696 22.6964 133.655 22.7064 133.613 22.7056C133.571 22.7047 133.531 22.693 133.495 22.6716C133.459 22.6502 133.429 22.6198 133.408 22.5835C133.388 22.5472 133.377 22.5061 133.377 22.4643V22.4652Z" fill="#2357D1"/>
<path d="M131.206 18.9259L132.99 17.9623C132.991 17.8462 132.961 17.732 132.903 17.631C132.846 17.53 132.763 17.4456 132.664 17.3862C132.564 17.3268 132.45 17.2944 132.334 17.2921C132.218 17.2899 132.103 17.3179 132.001 17.3734L130.143 18.3769C130.086 18.4074 130.035 18.449 129.994 18.4995C129.952 18.5499 129.921 18.608 129.903 18.6705C129.884 18.733 129.879 18.7985 129.886 18.8633C129.893 18.928 129.913 18.9907 129.945 19.0477C130.01 19.163 130.118 19.2482 130.245 19.2849C130.372 19.3216 130.509 19.3068 130.625 19.2437L131.145 18.9636C131.164 18.9504 131.185 18.9374 131.206 18.9259Z" fill="#5FDB89"/>
<path d="M139.145 22.0447V20.4904C139.247 20.6014 139.38 20.693 139.546 20.7652C139.711 20.8373 139.882 20.8734 140.059 20.8734C140.318 20.8734 140.549 20.8077 140.752 20.6763C140.955 20.545 141.115 20.3646 141.231 20.1351C141.348 19.9057 141.406 19.6447 141.406 19.3524C141.406 19.06 141.348 18.7991 141.231 18.5697C141.115 18.3402 140.955 18.1607 140.752 18.0312C140.549 17.9017 140.318 17.8369 140.059 17.8369C139.871 17.8369 139.692 17.8758 139.523 17.9535C139.354 18.0312 139.22 18.1293 139.123 18.2477L139.111 17.8924H138.367V22.0447H139.145ZM139.828 20.1746C139.603 20.1746 139.42 20.0928 139.279 19.9294C139.139 19.7659 139.068 19.5545 139.068 19.2951C139.068 19.0358 139.139 18.8254 139.279 18.6637C139.42 18.5021 139.603 18.4213 139.828 18.4213C140.054 18.4213 140.237 18.5031 140.377 18.6666C140.518 18.8301 140.588 19.0396 140.588 19.2951C140.588 19.5545 140.518 19.7659 140.377 19.9294C140.237 20.0928 140.054 20.1746 139.828 20.1746ZM143.074 20.8759C143.273 20.8759 143.455 20.8335 143.621 20.7486C143.787 20.6637 143.923 20.5567 144.028 20.4275V20.8205H144.796V17.8978H144.033V18.2853C143.94 18.1524 143.815 18.0445 143.658 17.9615C143.501 17.8784 143.317 17.8369 143.108 17.8369C142.85 17.8369 142.619 17.9015 142.416 18.0307C142.212 18.1598 142.051 18.3379 141.933 18.5648C141.816 18.7918 141.757 19.0547 141.757 19.3536C141.757 19.6452 141.816 19.9053 141.933 20.1341C142.051 20.3629 142.209 20.5438 142.407 20.6766C142.605 20.8095 142.828 20.8759 143.074 20.8759ZM143.212 20.1746C142.989 20.1746 142.807 20.094 142.668 19.933C142.528 19.7719 142.458 19.5602 142.458 19.298C142.458 19.0357 142.528 18.8241 142.668 18.663C142.807 18.5019 142.989 18.4213 143.212 18.4213C143.439 18.4213 143.624 18.5019 143.765 18.663C143.907 18.8241 143.978 19.0357 143.978 19.298C143.978 19.5602 143.907 19.7719 143.765 19.933C143.624 20.094 143.439 20.1746 143.212 20.1746ZM146.695 22.1616L147.196 20.8848L148.419 17.9538H147.554L146.921 19.7357C146.906 19.7801 146.892 19.8218 146.879 19.8606C146.866 19.8995 146.853 19.9393 146.838 19.98C146.805 19.8764 146.772 19.7857 146.739 19.708L146 17.9538H145.146L146.469 20.9015L145.929 22.1616H146.695ZM149.854 20.8759C150.052 20.8759 150.234 20.8335 150.4 20.7486C150.567 20.6637 150.702 20.5567 150.807 20.4275V20.8205H151.575V17.8978H150.812V18.2853C150.719 18.1524 150.594 18.0445 150.437 17.9615C150.28 17.8784 150.097 17.8369 149.887 17.8369C149.629 17.8369 149.399 17.9015 149.195 18.0307C148.991 18.1598 148.83 18.3379 148.713 18.5648C148.595 18.7918 148.536 19.0547 148.536 19.3536C148.536 19.6452 148.595 19.9053 148.713 20.1341C148.83 20.3629 148.988 20.5438 149.186 20.6766C149.385 20.8095 149.607 20.8759 149.854 20.8759ZM150.108 20.1746C149.885 20.1746 149.703 20.094 149.564 19.933C149.424 19.7719 149.354 19.5602 149.354 19.298C149.354 19.0357 149.424 18.8241 149.564 18.663C149.703 18.5019 149.885 18.4213 150.108 18.4213C150.336 18.4213 150.52 18.5019 150.661 18.663C150.803 18.8241 150.874 19.0357 150.874 19.298C150.874 19.5602 150.803 19.7719 150.661 19.933C150.52 20.094 150.336 20.1746 150.108 20.1746ZM154.614 20.8759V20.2255H153.219L154.57 18.3549V17.8369H152.276V18.4815H153.655L152.276 20.3636V20.8759H154.614ZM156.282 20.8759C156.48 20.8759 156.663 20.8335 156.829 20.7486C156.995 20.6637 157.131 20.5567 157.235 20.4275V20.8205H158.004V17.8978H157.241V18.2853C157.147 18.1524 157.022 18.0445 156.865 17.9615C156.708 17.8784 156.525 17.8369 156.316 17.8369C156.058 17.8369 155.827 17.9015 155.623 18.0307C155.42 18.1598 155.259 18.3379 155.141 18.5648C155.023 18.7918 154.965 19.0547 154.965 19.3536C154.965 19.6452 155.023 19.9053 155.141 20.1341C155.259 20.3629 155.417 20.5438 155.615 20.6766C155.813 20.8095 156.036 20.8759 156.282 20.8759ZM156.537 20.1746C156.313 20.1746 156.132 20.094 155.992 19.933C155.853 19.7719 155.783 19.5602 155.783 19.298C155.783 19.0357 155.853 18.8241 155.992 18.663C156.132 18.5019 156.313 18.4213 156.537 18.4213C156.764 18.4213 156.948 18.5019 157.09 18.663C157.231 18.8241 157.302 19.0357 157.302 19.298C157.302 19.5602 157.231 19.7719 157.09 19.933C156.948 20.094 156.764 20.1746 156.537 20.1746Z" fill="#0E2354"/>
</g>
<g opacity="0.85">
<rect x="179.057" y="2.17399" width="36.5373" height="36.5373" rx="8.67847" stroke="#E4E4E4" stroke-width="0.347974"/>
</g>
<g filter="url(#filter2_dd_26165_81964)">
<rect x="41.6719" y="62.8848" width="36.8852" height="36.8852" rx="8.85246" fill="#F9FAFB"/>
<rect x="41.8459" y="63.0588" width="36.5373" height="36.5373" rx="8.67847" stroke="url(#paint2_linear_26165_81964)" stroke-width="0.347974"/>
<g clip-path="url(#clip0_26165_81964)">
<path fill-rule="evenodd" clip-rule="evenodd" d="M68.8802 83.4041C68.2558 83.4532 67.7372 83.0389 67.7372 82.3157C67.7372 81.5933 68.2548 81.1872 68.8782 81.2344C70.1687 81.3321 70.1703 83.3025 68.8802 83.4041ZM70.8701 80.6828H70.8697V80.6071C70.8697 80.5672 70.8372 80.5348 70.7969 80.5348H70.0476C70.0074 80.5348 69.9748 80.5672 69.9748 80.6071V80.6802L69.9752 80.6806H69.9748V80.6983C69.9711 80.7336 69.9294 80.7448 69.9044 80.7197C69.7577 80.5726 69.2727 80.4366 68.8306 80.4366C67.7742 80.4293 66.9453 81.0774 66.9453 82.3153C66.9453 83.5751 67.7376 84.2304 68.8086 84.2233C69.2076 84.216 69.6654 84.1666 69.9748 83.7572V84.1631C69.9748 84.203 70.0074 84.2354 70.0476 84.2354H70.7969C70.8372 84.2354 70.8697 84.203 70.8697 84.1631V84.0252L70.8701 83.9023V80.6828Z" fill="#F16521"/>
<path fill-rule="evenodd" clip-rule="evenodd" d="M53.5416 82.636C53.6003 83.0802 53.9891 83.4007 54.62 83.4007C54.9501 83.4007 55.3829 83.2768 55.5884 83.0657L56.1606 83.6264C55.7791 84.0196 55.1555 84.2089 54.6053 84.2089C53.3581 84.2089 52.6172 83.4443 52.6172 82.2937C52.6172 81.2015 53.3655 80.415 54.5393 80.415C55.7498 80.415 56.5054 81.1578 56.366 82.636H53.5416ZM55.5078 81.8996C55.4492 81.4336 55.0824 81.2006 54.5688 81.2006C54.0846 81.2006 53.6884 81.4336 53.5564 81.8996H55.5078Z" fill="#F16521"/>
<mask id="mask0_26165_81964" style="mask-type:alpha" maskUnits="userSpaceOnUse" x="49" y="80" width="4" height="5">
<path fill-rule="evenodd" clip-rule="evenodd" d="M51.3529 84.2374H49.9297V80.5527H52.7761V84.2374H51.3529Z" fill="white"/>
</mask>
<g mask="url(#mask0_26165_81964)">
<path fill-rule="evenodd" clip-rule="evenodd" d="M51.8445 80.5527C51.4777 80.5527 51.1035 80.6183 50.8247 81.0625V80.7113C50.8247 80.6714 50.7921 80.639 50.7519 80.639H50.0026C49.9623 80.639 49.9297 80.6714 49.9297 80.7113V80.925V81.0583V81.1766V81.5253V83.5207V83.7082L49.9305 83.7091L49.9297 83.7096V83.9728V84.165C49.9297 84.205 49.9623 84.2374 50.0026 84.2374H50.7519C50.7921 84.2374 50.8247 84.205 50.8247 84.165V83.7905C50.8247 83.7724 50.8269 83.7552 50.8247 83.7377V83.1804V82.3441C50.8247 81.6815 51.2575 81.4339 51.7271 81.4339C52.0205 81.4339 52.1892 81.514 52.3727 81.6669L52.7761 80.895C52.5781 80.6984 52.2186 80.5527 51.8445 80.5527Z" fill="#F16521"/>
</g>
<mask id="mask1_26165_81964" style="mask-type:alpha" maskUnits="userSpaceOnUse" x="62" y="80" width="2" height="5">
<path fill-rule="evenodd" clip-rule="evenodd" d="M62.9375 84.2373H63.8332V80.6328H62.9375V84.2373Z" fill="white"/>
</mask>
<g mask="url(#mask1_26165_81964)">
<path fill-rule="evenodd" clip-rule="evenodd" d="M63.8332 83.7851V82.3149H63.8329V80.7051C63.8329 80.6652 63.8002 80.6328 63.7599 80.6328H63.0107C62.9705 80.6328 62.9378 80.6652 62.9378 80.7051V83.1066C62.9378 83.1079 62.9381 83.1091 62.9382 83.1103V83.7081L62.9394 83.7096H62.9378V83.7863C62.9377 83.7884 62.9375 83.7906 62.9375 83.7928C62.9375 83.7949 62.9377 83.7971 62.9378 83.7993V84.165C62.9378 84.205 62.9705 84.2374 63.0107 84.2374H63.7599C63.8002 84.2374 63.8329 84.205 63.8329 84.165V83.7994C63.8329 83.7972 63.8332 83.795 63.8332 83.7928C63.8332 83.7906 63.833 83.7884 63.8329 83.7863V83.7851L63.8332 83.7851Z" fill="#F16521"/>
</g>
<path fill-rule="evenodd" clip-rule="evenodd" d="M60.8725 80.5956C60.403 80.5956 59.9848 80.7412 59.662 81.251C59.4565 80.7558 59.0237 80.5811 58.5909 80.5811C58.2461 80.5811 57.8279 80.7121 57.6372 81.0762V80.7105C57.6372 80.6706 57.6046 80.6382 57.5643 80.6382H56.8151C56.7748 80.6382 56.7422 80.6706 56.7422 80.7105V81.1685V81.5245V83.3489V83.7073V84.1628C56.7422 84.2027 56.7748 84.2352 56.8151 84.2352H57.5643C57.6046 84.2352 57.6372 84.2027 57.6372 84.1628V83.7073V82.3142C57.6372 81.8408 57.9233 81.4112 58.4075 81.4112C58.899 81.4112 59.1485 81.8408 59.1485 82.3142V83.7073L59.1508 83.7101V84.1642C59.1508 84.2042 59.1834 84.2366 59.2236 84.2366H59.9729C60.0131 84.2366 60.0458 84.2042 60.0458 84.1642V83.1796H60.0435V82.3142C60.0435 81.8408 60.3442 81.4257 60.8284 81.4257C61.3126 81.4257 61.5107 81.8262 61.5107 82.2996V83.3489L61.5106 84.1628C61.5106 84.2027 61.5433 84.2352 61.5835 84.2352H62.3328C62.3731 84.2352 62.4057 84.2027 62.4057 84.1628V83.7073V83.3489V82.2996C62.4057 81.2218 61.8995 80.5956 60.8725 80.5956Z" fill="#F16521"/>
<path fill-rule="evenodd" clip-rule="evenodd" d="M60.0367 79.8903C59.8567 80.0707 59.5649 80.0707 59.385 79.8903C59.205 79.7098 59.205 79.4173 59.385 79.2369C59.5649 79.0565 59.8567 79.0565 60.0367 79.2369C60.2167 79.4173 60.2167 79.7098 60.0367 79.8903Z" fill="#F16521"/>
<path fill-rule="evenodd" clip-rule="evenodd" d="M61.895 79.8459C61.6563 80.0852 61.2693 80.0852 61.0306 79.8459C60.7919 79.6066 60.7919 79.2186 61.0306 78.9793C61.2693 78.74 61.6563 78.74 61.895 78.9793C62.1337 79.2186 62.1337 79.6066 61.895 79.8459Z" fill="#F16521"/>
<path fill-rule="evenodd" clip-rule="evenodd" d="M63.9932 79.7859C63.6749 80.105 63.1587 80.105 62.8403 79.7859C62.522 79.4667 62.522 78.9492 62.8403 78.63C63.1587 78.3108 63.6749 78.3108 63.9932 78.63C64.3116 78.9492 64.3116 79.4667 63.9932 79.7859Z" fill="#1CA78B"/>
<path fill-rule="evenodd" clip-rule="evenodd" d="M66.7362 83.2557C66.7362 83.2557 66.5711 83.3094 66.4654 83.3358C66.3598 83.3623 66.2694 83.3756 66.1947 83.3756C66.1374 83.3756 66.0834 83.3689 66.0328 83.3557C65.9821 83.3424 65.9371 83.3182 65.8974 83.2829C65.8578 83.2476 65.8258 83.199 65.8017 83.1372C65.7774 83.0754 65.7654 82.996 65.7654 82.8989V80.9681H66.686C66.7258 80.9681 66.7581 80.9354 66.7581 80.895V80.1439C66.7581 80.1035 66.7258 80.0708 66.686 80.0708H65.7654V78.9688H65.455C65.3845 79.3704 65.2536 79.697 65.0621 79.9486C64.8705 80.2002 64.6206 80.39 64.3125 80.518V80.9484H64.8144V82.8327C64.8144 83.071 64.8353 83.2785 64.8772 83.455C64.919 83.6316 64.9861 83.7772 65.0786 83.892C65.171 84.0068 65.2942 84.0917 65.4484 84.1469C65.6024 84.202 65.8962 84.2341 66.1207 84.2296C66.6528 84.2192 66.8671 84.075 66.9641 84.0131L66.7362 83.2557Z" fill="#F16521"/>
</g>
</g>
<g filter="url(#filter3_dd_26165_81964)">
<rect x="96.5547" y="62.8848" width="36.8852" height="36.8852" rx="8.85246" fill="#F9FAFB"/>
<rect x="96.7287" y="63.0588" width="36.5373" height="36.5373" rx="8.67847" stroke="url(#paint3_linear_26165_81964)" stroke-width="0.347974"/>
<g clip-path="url(#clip1_26165_81964)">
<path d="M121.417 74.1641H108.102C107.654 74.1641 107.273 74.545 107.273 75.0087V76.5159C107.273 76.9796 107.654 77.3606 108.102 77.3606H121.417C121.881 77.3606 122.246 76.9796 122.262 76.5159V75.0253C122.262 74.545 121.881 74.1641 121.417 74.1641ZM121.417 82.5279H108.102C107.886 82.5279 107.671 82.6108 107.522 82.7764C107.356 82.942 107.273 83.1407 107.273 83.3726V84.8798C107.273 85.3435 107.654 85.7244 108.102 85.7244H121.417C121.881 85.7244 122.246 85.3601 122.262 84.8798V83.3726C122.246 82.8923 121.881 82.5279 121.417 82.5279ZM115.604 86.7016H108.102C107.886 86.7016 107.671 86.7844 107.522 86.95C107.373 87.1156 107.273 87.3144 107.273 87.5463V89.0534C107.273 89.5172 107.654 89.8981 108.102 89.8981H115.588C116.051 89.8981 116.416 89.5172 116.416 89.07V87.5628C116.432 87.066 116.068 86.685 115.604 86.7016ZM122.262 78.3377H108.102C107.886 78.3377 107.671 78.4205 107.522 78.5862C107.373 78.7518 107.273 78.9505 107.273 79.1824V80.6895C107.273 81.1533 107.654 81.5342 108.102 81.5342H122.246C122.709 81.5342 123.074 81.1533 123.074 80.6895V79.1824C123.09 78.7186 122.709 78.3543 122.262 78.3377Z" fill="#00C3F7"/>
</g>
</g>
<g filter="url(#filter4_dd_26165_81964)">
<rect x="151.445" y="62.8848" width="36.8852" height="36.8852" rx="8.85246" fill="#F9FAFB"/>
<rect x="151.619" y="63.0588" width="36.5373" height="36.5373" rx="8.67847" stroke="url(#paint4_linear_26165_81964)" stroke-width="0.347974"/>
<path d="M159.844 76.5905C159.844 75.526 160.155 74.6171 160.808 73.9639L161.944 75.1C160.68 76.3599 161.784 80.2771 165.384 83.8808C168.985 87.4845 172.904 88.5876 174.168 87.3254L175.304 88.4615C173.172 90.5928 168.318 89.0807 164.254 85.0157C161.435 82.196 159.844 78.9967 159.844 76.5905Z" fill="#009A46"/>
<path d="M167.011 89.4418C165.946 89.4418 165.037 89.1305 164.383 88.4773L165.519 87.3412C166.781 88.6034 170.698 87.4991 174.302 83.8966C177.906 80.294 179.008 76.3768 177.745 75.1146L178.882 73.9785C181.014 76.1098 179.501 80.9643 175.436 85.0281C172.616 87.8513 169.417 89.4418 167.011 89.4418Z" fill="#FF5805"/>
<path d="M175.806 83.402C175.117 81.4161 173.708 79.2939 171.839 77.4262C167.775 73.3613 162.921 71.848 160.789 73.9804C160.638 74.1327 160.769 74.5087 161.083 74.8223C161.396 75.1358 161.772 75.2654 161.923 75.1143C163.187 73.8521 167.104 74.9563 170.706 78.56C172.41 80.2642 173.681 82.1671 174.293 83.928C174.829 85.472 174.777 86.7171 174.152 87.342C174 87.4931 174.132 87.8703 174.444 88.1827C174.756 88.4951 175.134 88.6269 175.286 88.4747C176.378 87.3829 176.563 85.5788 175.806 83.402Z" fill="#F5AFCB"/>
<path d="M178.882 73.9804C177.788 72.8864 175.987 72.7012 173.808 73.459C171.823 74.1474 169.699 75.5573 167.832 77.425C163.768 81.4888 162.255 86.3433 164.386 88.4758C164.538 88.6269 164.914 88.4962 165.228 88.1838C165.541 87.8714 165.672 87.4942 165.52 87.342C164.254 86.0798 165.362 82.1625 168.966 78.5589C170.67 76.8547 172.573 75.5846 174.334 74.9722C175.878 74.4371 177.123 74.4882 177.749 75.1131C177.9 75.2642 178.277 75.1335 178.589 74.82C178.902 74.5064 179.034 74.1315 178.882 73.9804Z" fill="#FF9B00"/>
</g>
<defs>
<filter id="filter0_dd_26165_81964" x="66.9041" y="0.52459" width="41.309" height="41.311" filterUnits="userSpaceOnUse" color-interpolation-filters="sRGB">
<feFlood flood-opacity="0" result="BackgroundImageFix"/>
<feColorMatrix in="SourceAlpha" type="matrix" values="0 0 0 0 0 0 0 0 0 0 0 0 0 0 0 0 0 0 127 0" result="hardAlpha"/>
<feOffset dy="0.737705"/>
<feGaussianBlur stdDeviation="0.737705"/>
<feColorMatrix type="matrix" values="0 0 0 0 0.0627451 0 0 0 0 0.0941176 0 0 0 0 0.156863 0 0 0 0.06 0"/>
<feBlend mode="normal" in2="BackgroundImageFix" result="effect1_dropShadow_26165_81964"/>
<feColorMatrix in="SourceAlpha" type="matrix" values="0 0 0 0 0 0 0 0 0 0 0 0 0 0 0 0 0 0 127 0" result="hardAlpha"/>
<feOffset dy="0.737705"/>
<feGaussianBlur stdDeviation="1.10656"/>
<feColorMatrix type="matrix" values="0 0 0 0 0.0627451 0 0 0 0 0.0941176 0 0 0 0 0.156863 0 0 0 0.1 0"/>
<feBlend mode="normal" in2="effect1_dropShadow_26165_81964" result="effect2_dropShadow_26165_81964"/>
<feBlend mode="normal" in="SourceGraphic" in2="effect2_dropShadow_26165_81964" result="shape"/>
</filter>
<filter id="filter1_dd_26165_81964" x="121.787" y="0.52459" width="41.309" height="41.311" filterUnits="userSpaceOnUse" color-interpolation-filters="sRGB">
<feFlood flood-opacity="0" result="BackgroundImageFix"/>
<feColorMatrix in="SourceAlpha" type="matrix" values="0 0 0 0 0 0 0 0 0 0 0 0 0 0 0 0 0 0 127 0" result="hardAlpha"/>
<feOffset dy="0.737705"/>
<feGaussianBlur stdDeviation="0.737705"/>
<feColorMatrix type="matrix" values="0 0 0 0 0.0627451 0 0 0 0 0.0941176 0 0 0 0 0.156863 0 0 0 0.06 0"/>
<feBlend mode="normal" in2="BackgroundImageFix" result="effect1_dropShadow_26165_81964"/>
<feColorMatrix in="SourceAlpha" type="matrix" values="0 0 0 0 0 0 0 0 0 0 0 0 0 0 0 0 0 0 127 0" result="hardAlpha"/>
<feOffset dy="0.737705"/>
<feGaussianBlur stdDeviation="1.10656"/>
<feColorMatrix type="matrix" values="0 0 0 0 0.0627451 0 0 0 0 0.0941176 0 0 0 0 0.156863 0 0 0 0.1 0"/>
<feBlend mode="normal" in2="effect1_dropShadow_26165_81964" result="effect2_dropShadow_26165_81964"/>
<feBlend mode="normal" in="SourceGraphic" in2="effect2_dropShadow_26165_81964" result="shape"/>
</filter>
<filter id="filter2_dd_26165_81964" x="39.4588" y="61.4094" width="41.309" height="41.311" filterUnits="userSpaceOnUse" color-interpolation-filters="sRGB">
<feFlood flood-opacity="0" result="BackgroundImageFix"/>
<feColorMatrix in="SourceAlpha" type="matrix" values="0 0 0 0 0 0 0 0 0 0 0 0 0 0 0 0 0 0 127 0" result="hardAlpha"/>
<feOffset dy="0.737705"/>
<feGaussianBlur stdDeviation="0.737705"/>
<feColorMatrix type="matrix" values="0 0 0 0 0.0627451 0 0 0 0 0.0941176 0 0 0 0 0.156863 0 0 0 0.06 0"/>
<feBlend mode="normal" in2="BackgroundImageFix" result="effect1_dropShadow_26165_81964"/>
<feColorMatrix in="SourceAlpha" type="matrix" values="0 0 0 0 0 0 0 0 0 0 0 0 0 0 0 0 0 0 127 0" result="hardAlpha"/>
<feOffset dy="0.737705"/>
<feGaussianBlur stdDeviation="1.10656"/>
<feColorMatrix type="matrix" values="0 0 0 0 0.0627451 0 0 0 0 0.0941176 0 0 0 0 0.156863 0 0 0 0.1 0"/>
<feBlend mode="normal" in2="effect1_dropShadow_26165_81964" result="effect2_dropShadow_26165_81964"/>
<feBlend mode="normal" in="SourceGraphic" in2="effect2_dropShadow_26165_81964" result="shape"/>
</filter>
<filter id="filter3_dd_26165_81964" x="94.3416" y="61.4094" width="41.309" height="41.311" filterUnits="userSpaceOnUse" color-interpolation-filters="sRGB">
<feFlood flood-opacity="0" result="BackgroundImageFix"/>
<feColorMatrix in="SourceAlpha" type="matrix" values="0 0 0 0 0 0 0 0 0 0 0 0 0 0 0 0 0 0 127 0" result="hardAlpha"/>
<feOffset dy="0.737705"/>
<feGaussianBlur stdDeviation="0.737705"/>
<feColorMatrix type="matrix" values="0 0 0 0 0.0627451 0 0 0 0 0.0941176 0 0 0 0 0.156863 0 0 0 0.06 0"/>
<feBlend mode="normal" in2="BackgroundImageFix" result="effect1_dropShadow_26165_81964"/>
<feColorMatrix in="SourceAlpha" type="matrix" values="0 0 0 0 0 0 0 0 0 0 0 0 0 0 0 0 0 0 127 0" result="hardAlpha"/>
<feOffset dy="0.737705"/>
<feGaussianBlur stdDeviation="1.10656"/>
<feColorMatrix type="matrix" values="0 0 0 0 0.0627451 0 0 0 0 0.0941176 0 0 0 0 0.156863 0 0 0 0.1 0"/>
<feBlend mode="normal" in2="effect1_dropShadow_26165_81964" result="effect2_dropShadow_26165_81964"/>
<feBlend mode="normal" in="SourceGraphic" in2="effect2_dropShadow_26165_81964" result="shape"/>
</filter>
<filter id="filter4_dd_26165_81964" x="149.232" y="61.4094" width="41.309" height="41.311" filterUnits="userSpaceOnUse" color-interpolation-filters="sRGB">
<feFlood flood-opacity="0" result="BackgroundImageFix"/>
<feColorMatrix in="SourceAlpha" type="matrix" values="0 0 0 0 0 0 0 0 0 0 0 0 0 0 0 0 0 0 127 0" result="hardAlpha"/>
<feOffset dy="0.737705"/>
<feGaussianBlur stdDeviation="0.737705"/>
<feColorMatrix type="matrix" values="0 0 0 0 0.0627451 0 0 0 0 0.0941176 0 0 0 0 0.156863 0 0 0 0.06 0"/>
<feBlend mode="normal" in2="BackgroundImageFix" result="effect1_dropShadow_26165_81964"/>
<feColorMatrix in="SourceAlpha" type="matrix" values="0 0 0 0 0 0 0 0 0 0 0 0 0 0 0 0 0 0 127 0" result="hardAlpha"/>
<feOffset dy="0.737705"/>
<feGaussianBlur stdDeviation="1.10656"/>
<feColorMatrix type="matrix" values="0 0 0 0 0.0627451 0 0 0 0 0.0941176 0 0 0 0 0.156863 0 0 0 0.1 0"/>
<feBlend mode="normal" in2="effect1_dropShadow_26165_81964" result="effect2_dropShadow_26165_81964"/>
<feBlend mode="normal" in="SourceGraphic" in2="effect2_dropShadow_26165_81964" result="shape"/>
</filter>
<linearGradient id="paint0_linear_26165_81964" x1="87.5598" y1="2" x2="87.5598" y2="38.8852" gradientUnits="userSpaceOnUse">
<stop stop-color="#C3E4FF"/>
<stop offset="0.791667" stop-color="#CBF0FF" stop-opacity="0.848437"/>
<stop offset="1" stop-color="#D69CFF" stop-opacity="0.7"/>
</linearGradient>
<linearGradient id="paint1_linear_26165_81964" x1="142.443" y1="2" x2="142.443" y2="38.8852" gradientUnits="userSpaceOnUse">
<stop stop-color="#C3E4FF"/>
<stop offset="0.791667" stop-color="#CBF0FF" stop-opacity="0.848437"/>
<stop offset="1" stop-color="#D69CFF" stop-opacity="0.7"/>
</linearGradient>
<linearGradient id="paint2_linear_26165_81964" x1="60.1145" y1="62.8848" x2="60.1145" y2="99.77" gradientUnits="userSpaceOnUse">
<stop stop-color="#C3E4FF"/>
<stop offset="0.791667" stop-color="#CBF0FF" stop-opacity="0.848437"/>
<stop offset="1" stop-color="#D69CFF" stop-opacity="0.7"/>
</linearGradient>
<linearGradient id="paint3_linear_26165_81964" x1="114.997" y1="62.8848" x2="114.997" y2="99.77" gradientUnits="userSpaceOnUse">
<stop stop-color="#C3E4FF"/>
<stop offset="0.791667" stop-color="#CBF0FF" stop-opacity="0.848437"/>
<stop offset="1" stop-color="#D69CFF" stop-opacity="0.7"/>
</linearGradient>
<linearGradient id="paint4_linear_26165_81964" x1="169.888" y1="62.8848" x2="169.888" y2="99.77" gradientUnits="userSpaceOnUse">
<stop stop-color="#C3E4FF"/>
<stop offset="0.791667" stop-color="#CBF0FF" stop-opacity="0.848437"/>
<stop offset="1" stop-color="#D69CFF" stop-opacity="0.7"/>
</linearGradient>
<clipPath id="clip0_26165_81964">
<rect width="21.1028" height="5.90164" fill="white" transform="translate(49.7812 78.377)"/>
</clipPath>
<clipPath id="clip1_26165_81964">
<rect width="27.6161" height="-17.7049" fill="white" transform="matrix(-1 0 0 -1 128.281 72.4746)"/>
</clipPath>
</defs>
</svg>
