<svg xmlns="http://www.w3.org/2000/svg" width="32" height="33" viewBox="0 0 32 33" fill="none">
  <g clip-path="url(#clip0_28863_84364)">
    <path d="M25.3135 10.0131C25.3848 6.30308 22.3235 3.45508 18.1141 3.45508H9.40879C9.20587 3.45514 9.00963 3.52763 8.8554 3.6595C8.70116 3.79137 8.59906 3.97396 8.56746 4.17441L5.07879 25.9717C5.06319 26.0705 5.06917 26.1715 5.09633 26.2677C5.1235 26.364 5.17119 26.4532 5.23613 26.5292C5.30108 26.6052 5.38173 26.6663 5.47253 26.7081C5.56333 26.75 5.66213 26.7717 5.76213 26.7717H10.9201L10.1135 31.8197C10.0978 31.9186 10.1038 32.0196 10.131 32.1159C10.1582 32.2122 10.206 32.3014 10.271 32.3774C10.336 32.4535 10.4168 32.5145 10.5077 32.5564C10.5985 32.5982 10.6974 32.6198 10.7975 32.6197H14.9988C15.2021 32.6197 15.3828 32.5464 15.5368 32.4151C15.6908 32.2831 15.7161 32.1011 15.7475 31.9004L16.9808 24.6437C17.0121 24.4437 17.1141 24.1837 17.2688 24.0517C17.4228 23.9197 17.5575 23.8477 17.7601 23.8471H20.3321C24.4541 23.8471 27.9521 20.9177 28.5915 16.8424C29.0435 13.9491 27.8028 11.3177 25.3135 10.0131Z" fill="#001C64"/>
    <path d="M12.0373 18.7327L10.7526 26.8794L9.94598 31.9887C9.93037 32.0875 9.93637 32.1886 9.96357 32.2848C9.99077 32.3811 10.0385 32.4704 10.1035 32.5464C10.1686 32.6224 10.2493 32.6835 10.3402 32.7253C10.4311 32.7671 10.5299 32.7888 10.63 32.7887H15.0766C15.2795 32.7885 15.4755 32.7159 15.6296 32.5841C15.7837 32.4522 15.8857 32.2697 15.9173 32.0694L17.0893 24.6427C17.1209 24.4424 17.2229 24.26 17.3771 24.1283C17.5312 23.9965 17.7272 23.9241 17.93 23.924H20.548C24.67 23.924 28.1673 20.9174 28.8066 16.842C29.26 13.9494 27.804 11.318 25.3146 10.0127C25.308 10.3207 25.2813 10.628 25.234 10.9327C24.5946 15.0074 21.0966 18.0147 16.9746 18.0147H12.878C12.6753 18.0147 12.4793 18.0871 12.3252 18.2187C12.1711 18.3503 12.0691 18.5325 12.0373 18.7327Z" fill="#0070E0"/>
    <path d="M10.7481 26.8802H5.57474C5.47471 26.8803 5.37586 26.8587 5.285 26.8169C5.19414 26.775 5.11344 26.714 5.04847 26.6379C4.98351 26.5619 4.93582 26.4726 4.9087 26.3763C4.88158 26.28 4.87568 26.179 4.89141 26.0802L8.37941 3.9589C8.41102 3.75852 8.51315 3.57601 8.6674 3.44425C8.82165 3.31249 9.01788 3.24014 9.22074 3.24023H18.1121C22.3207 3.24023 25.3821 6.30357 25.3107 10.0136C24.2634 9.46423 23.0327 9.15023 21.6841 9.15023H14.2714C14.0687 9.15043 13.8727 9.2229 13.7186 9.35462C13.5645 9.48634 13.4625 9.66869 13.4307 9.8689L12.0341 18.7336L10.7481 26.8802Z" fill="#003087"/>
  </g>
  <defs>
    <clipPath id="clip0_28863_84364">
      <rect width="32" height="32" fill="white" transform="translate(0 0.799805)"/>
    </clipPath>
  </defs>
</svg>