<svg xmlns="http://www.w3.org/2000/svg" width="24" height="25" viewBox="0 0 24 25" fill="none">
<g clip-path="url(#clip0_28863_84200)">
<path d="M21.4709 0.499023H1.23767C0.591928 0.499023 0 1.09496 0 1.79925V4.07464C0 4.77893 0.591928 5.37487 1.23767 5.37487H21.4709C22.1704 5.37487 22.7085 4.77893 22.7623 4.07464V1.79925C22.7623 1.09496 22.1704 0.499023 21.4709 0.499023ZM21.4709 13.2846H1.23767C0.914798 13.2846 0.591928 13.4471 0.32287 13.6638C0.107623 13.8805 0 14.2056 0 14.5848V16.8602C0 17.5645 0.591928 18.1604 1.23767 18.1604H21.4709C22.1704 18.1604 22.7085 17.6187 22.7623 16.8602V14.5848C22.7623 13.8263 22.1704 13.2846 21.4709 13.2846ZM12.6457 19.6774H1.23767C0.914798 19.6774 0.591928 19.7857 0.376682 20.0566C0.161435 20.2733 0 20.5983 0 20.9776V23.253C0 23.9573 0.591928 24.5532 1.23767 24.5532H12.5919C13.2915 24.5532 13.8296 23.9573 13.8296 23.253V20.9234C13.8834 20.2191 13.3453 19.6774 12.6457 19.6774ZM22.7623 6.8918H1.23767C0.914798 6.8918 0.591928 7.00015 0.376682 7.27103C0.161435 7.48774 0 7.81279 0 8.19203V10.4674C0 11.1717 0.591928 11.7676 1.23767 11.7676H22.7085C23.4081 11.7676 23.9462 11.1717 23.9462 10.4674V8.19203C24 7.48774 23.4619 6.8918 22.7623 6.8918Z" fill="#00C3F7"/>
</g>
<defs>
<clipPath id="clip0_28863_84200">
<rect width="24" height="24" fill="white" transform="translate(0 0.5)"/>
</clipPath>
</defs>
</svg>