<svg xmlns="http://www.w3.org/2000/svg" width="32" height="12" viewBox="0 0 32 12" fill="none">
  <g clip-path="url(#clip0_28863_84374)">
    <mask id="mask0_28863_84374" style="mask-type:luminance" maskUnits="userSpaceOnUse" x="0" y="0" width="32" height="12">
      <path d="M21.6605 11.6333H24.3227V4.1926H21.6605V11.6333ZM20.1546 4.08554C17.6941 4.16584 16.4437 5.26321 16.4437 7.44456V11.6333H19.1328V8.22075C19.1328 6.90926 19.3076 6.34719 20.8672 6.29366V4.11231C20.6924 4.08554 20.5042 4.07216 20.316 4.07216L20.1546 4.08554ZM0 4.70114C0 5.55762 0.376471 7.57838 3.80504 7.81927C4.10084 7.83265 4.86723 7.88618 4.86723 8.60884C4.86723 9.19767 4.23529 9.559 3.17311 9.559C2.15126 9.53223 1.14286 9.3315 0.188235 8.97017V11.3523C1.34454 11.6333 2.54118 11.7671 3.73782 11.7537C6.66891 11.7537 7.98656 10.1077 7.98656 8.47501C7.98656 6.62822 6.50756 5.4238 4.04706 5.26321C3.71092 5.23644 2.93109 5.19629 2.93109 4.48702C2.93109 3.64392 4.04706 3.64392 4.47731 3.64392C5.21681 3.64392 6.17143 3.85804 6.85714 4.07216C6.85714 4.07216 7.23361 4.20599 7.56975 4.33981L7.59664 4.35319V2.02463L7.5563 2.01125C6.74958 1.73022 5.8084 1.46257 4.07395 1.46257C1.06218 1.46257 0 3.2023 0 4.70114ZM8.65882 1.99787V11.6333H11.4017V8.64899C12.195 9.84003 12.5983 11.6333 12.5983 11.6333H15.8924C15.5697 10.2817 14.1445 7.80589 14.1445 7.80589C14.9916 6.7219 15.637 5.50409 16.0807 4.1926H12.921C12.558 5.12938 12.0471 6.01263 11.4017 6.78881V1.46257L8.65882 1.99787ZM25.4521 1.93095V11.6333H28.1143V1.46257L25.4521 1.93095ZM29.3378 1.93095V11.6333H32V1.46257L29.3378 1.93095ZM22.9916 0.860352C22.2655 0.860352 21.674 1.44918 21.674 2.17184C21.674 2.8945 22.2655 3.48333 22.9916 3.48333C23.7176 3.48333 24.3092 2.8945 24.3092 2.17184C24.2958 1.44918 23.7176 0.860352 22.9916 0.860352Z" fill="white"/>
    </mask>
    <g mask="url(#mask0_28863_84374)">
      <path d="M32 0.860352H0V11.7404H32V0.860352Z" fill="url(#paint0_linear_28863_84374)"/>
    </g>
  </g>
  <defs>
    <linearGradient id="paint0_linear_28863_84374" x1="0.288766" y1="6.29934" x2="32.3686" y2="6.29934" gradientUnits="userSpaceOnUse">
      <stop stop-color="#872165"/>
      <stop offset="1" stop-color="#4F2455"/>
    </linearGradient>
    <clipPath id="clip0_28863_84374">
      <rect width="32" height="10.88" fill="white" transform="translate(0 0.859375)"/>
    </clipPath>
  </defs>
</svg>