<svg xmlns="http://www.w3.org/2000/svg" width="40" height="20" viewBox="0 0 40 20" fill="none">
  <path fill-rule="evenodd" clip-rule="evenodd" d="M35.3739 10.1825C35.3739 7.99643 34.314 6.27148 32.2884 6.27148C30.2542 6.27148 29.0234 7.99643 29.0234 10.1654C29.0234 12.7358 30.4764 14.0337 32.5619 14.0337C33.579 14.0337 34.3482 13.8032 34.9294 13.4787V11.7708C34.3482 12.0611 33.6816 12.2405 32.8354 12.2405C32.0063 12.2405 31.2713 11.9501 31.1773 10.9425H35.3568C35.3568 10.8315 35.3739 10.3874 35.3739 10.1825ZM31.1516 9.37126C31.1516 8.40632 31.7414 8.00497 32.2798 8.00497C32.8012 8.00497 33.3568 8.40632 33.3568 9.37126H31.1516Z" fill="#635BFF"/>
  <path fill-rule="evenodd" clip-rule="evenodd" d="M25.737 6.27148C24.8994 6.27148 24.3609 6.66429 24.0618 6.93755L23.9507 6.40811H22.0703V16.365L24.2071 15.9124L24.2156 13.4958C24.5233 13.7178 24.9763 14.0337 25.7284 14.0337C27.2583 14.0337 28.6515 12.8041 28.6515 10.0971C28.643 7.6207 27.2327 6.27148 25.737 6.27148ZM25.2242 12.1551C24.7199 12.1551 24.4207 11.9758 24.2156 11.7537L24.2071 8.58564C24.4293 8.338 24.737 8.16721 25.2242 8.16721C26.0019 8.16721 26.5404 9.03823 26.5404 10.1569C26.5404 11.3011 26.0105 12.1551 25.2242 12.1551Z" fill="#635BFF"/>
  <path fill-rule="evenodd" clip-rule="evenodd" d="M19.125 5.76785L21.2703 5.30673V3.57324L19.125 4.02583V5.76785Z" fill="#635BFF"/>
  <path d="M21.2703 6.41797H19.125V13.8899H21.2703V6.41797Z" fill="#635BFF"/>
  <path fill-rule="evenodd" clip-rule="evenodd" d="M16.8267 7.05026L16.6899 6.41835H14.8438V13.8903H16.9805V8.82644C17.4848 8.16891 18.3395 8.28846 18.6044 8.38239V6.41835C18.3309 6.31587 17.3309 6.12801 16.8267 7.05026Z" fill="#635BFF"/>
  <path fill-rule="evenodd" clip-rule="evenodd" d="M12.5471 4.5625L10.4617 5.00655L10.4531 11.8465C10.4531 13.1104 11.4018 14.0412 12.6668 14.0412C13.3677 14.0412 13.8805 13.9131 14.1625 13.7594V12.0259C13.889 12.1369 12.5386 12.5297 12.5386 11.2659V8.23441H14.1625V6.41553H12.5386L12.5471 4.5625Z" fill="#635BFF"/>
  <path fill-rule="evenodd" clip-rule="evenodd" d="M6.77177 8.58564C6.77177 8.25261 7.04527 8.12452 7.49826 8.12452C8.14784 8.12452 8.96835 8.32092 9.61792 8.67103V6.66429C8.90852 6.3825 8.20767 6.27148 7.49826 6.27148C5.76322 6.27148 4.60938 7.17665 4.60938 8.68811C4.60938 11.045 7.85724 10.6692 7.85724 11.6854C7.85724 12.0782 7.51536 12.2063 7.03673 12.2063C6.32732 12.2063 5.42134 11.916 4.70339 11.5232V13.5555C5.49826 13.8971 6.30168 14.0423 7.03673 14.0423C8.8145 14.0423 10.0367 13.1627 10.0367 11.6342C10.0282 9.08946 6.77177 9.54205 6.77177 8.58564Z" fill="#635BFF"/>
</svg>