<svg xmlns="http://www.w3.org/2000/svg" width="32" height="32" viewBox="0 0 32 32" fill="none">
<path d="M17.8535 17.6543C17.8669 17.6297 17.8778 17.6037 17.8896 17.5785L22.1869 8.23894C22.2221 8.16278 22.2576 8.08694 22.2922 8.01046C22.3044 7.98422 22.3165 7.96118 22.3517 7.9615C22.4308 7.9615 22.5101 7.9615 22.6004 7.9615C22.5805 8.0095 22.5684 8.04502 22.5517 8.07926C21.0196 11.4196 19.4875 14.7599 17.9556 18.1001C17.8944 18.2332 17.8314 18.366 17.7725 18.5001C17.7207 18.6185 17.7284 18.7337 17.8141 18.8341C17.8514 18.881 17.9014 18.9162 17.9582 18.9355C18.0149 18.9548 18.076 18.9574 18.1341 18.9429C18.2621 18.917 18.3261 18.8284 18.376 18.7189C19.905 15.3916 21.4334 12.0649 22.9613 8.73878C23.1072 8.42134 23.2493 8.10294 23.3997 7.78678C23.4823 7.61142 23.4154 7.3647 23.185 7.31702V7.2959H22.0311C22.0322 7.29915 22.0326 7.3026 22.0323 7.30603C22.032 7.30945 22.0309 7.31276 22.0292 7.31574C21.9037 7.34326 21.8372 7.4319 21.7856 7.53974C21.615 7.91136 21.4443 8.28289 21.2736 8.6543C20.0602 11.3026 18.8455 13.9503 17.6295 16.5973C17.6122 16.6354 17.594 16.6729 17.5732 16.717C17.5252 16.685 17.5245 16.6319 17.4986 16.5945C17.4096 16.4665 17.4314 16.3484 17.4957 16.2085C18.7476 13.4858 19.9956 10.7614 21.2397 8.03542C21.2788 7.94966 21.3191 7.86422 21.3578 7.77942C21.4493 7.5759 21.3517 7.37238 21.1357 7.31382C21.1347 7.30771 21.1323 7.30192 21.1287 7.29686H19.9975C19.9992 7.30345 19.9983 7.31046 19.9949 7.31638C19.8701 7.34166 19.7962 7.42422 19.7456 7.53462C19.5507 7.96022 19.3554 8.3856 19.1597 8.81078L16.5885 14.4108C16.5767 14.4361 16.5645 14.461 16.5485 14.4937C16.4967 14.4386 16.4845 14.3682 16.4493 14.3122C16.3834 14.2079 16.394 14.1148 16.4461 14.0018C17.3878 11.9626 18.3264 9.92203 19.2621 7.88022C19.3021 7.79318 19.3322 7.70646 19.3101 7.60758C19.2978 7.54373 19.2657 7.48535 19.2185 7.44064C19.1712 7.39593 19.1112 7.36714 19.0468 7.3583C19.0085 7.35376 18.97 7.35194 18.9316 7.35286C18.6378 7.35286 18.344 7.3583 18.0506 7.35062C17.8605 7.3455 17.7431 7.42678 17.6666 7.59574C17.1512 8.72299 16.6338 9.84971 16.1143 10.9759C15.9306 11.3759 15.7469 11.7759 15.5632 12.1759C15.5504 12.2044 15.5351 12.2316 15.514 12.2735C15.4628 12.1615 15.418 12.061 15.3703 11.9602C15.3527 11.9215 15.3799 11.893 15.3936 11.8642C15.5453 11.5301 15.6978 11.1965 15.8509 10.8633C16.3134 9.85334 16.7758 8.84331 17.2381 7.83318C17.3021 7.6943 17.2832 7.55638 17.1879 7.45334C17.1616 7.42263 17.1291 7.39789 17.0925 7.38078C17.0559 7.36367 17.0161 7.35459 16.9757 7.35414C16.6295 7.35414 16.2832 7.35126 15.937 7.35414C15.7882 7.35414 15.6919 7.44214 15.6317 7.57302L15.2861 8.32534C15.0372 8.86806 14.7879 9.41025 14.5383 9.9519C14.5258 9.97942 14.5204 10.0127 14.4855 10.0329L14.2266 9.4719C13.9453 8.85942 13.6618 8.24758 13.3847 7.63318C13.3207 7.48886 13.2452 7.36214 13.0938 7.29686H12.9469C12.9204 7.33142 12.8759 7.33718 12.8426 7.36086C12.7341 7.43894 12.6797 7.54102 12.696 7.67606C12.7057 7.72401 12.7227 7.77019 12.7463 7.81302C13.1943 8.79137 13.6423 9.76939 14.0903 10.7471C14.1053 10.774 14.1134 10.8042 14.114 10.835C14.1146 10.8658 14.1077 10.8962 14.0938 10.9237C13.5496 12.1033 13.0071 13.2833 12.4663 14.4639C12.4581 14.4904 12.4435 14.5145 12.4237 14.534C12.3972 14.4991 12.3765 14.4602 12.3623 14.4188C11.3197 12.1493 10.2773 9.87969 9.23493 7.60982C9.21875 7.57121 9.19948 7.53397 9.17733 7.49846C9.08133 7.3551 8.90725 7.30646 8.76421 7.38326C8.59781 7.47158 8.53573 7.63926 8.60773 7.80886C8.62021 7.83798 8.63397 7.86614 8.64677 7.89494L12.0861 15.4021C12.0997 15.4349 12.115 15.467 12.1319 15.4981C12.2621 15.7221 12.5543 15.7279 12.6935 15.5113C12.7183 15.4692 12.7402 15.4254 12.7591 15.3804L14.4343 11.7439C14.4472 11.7062 14.4662 11.6708 14.4906 11.6393C14.5396 11.7093 14.5613 11.7913 14.6029 11.8633C14.6368 11.9215 14.6288 11.9717 14.6013 12.0303C14.456 12.3404 14.3133 12.6521 14.1719 12.9631C13.6599 14.0773 13.1479 15.1916 12.6359 16.3058C12.6137 16.3496 12.602 16.3979 12.6017 16.4469C12.6014 16.496 12.6126 16.5444 12.6343 16.5884C12.6615 16.6453 12.6874 16.7026 12.7133 16.7599C12.85 17.0623 12.9872 17.3644 13.1223 17.6674C13.1677 17.7692 13.2362 17.8425 13.3463 17.8706C13.5232 17.9157 13.6698 17.846 13.7498 17.6745C13.9162 17.3164 14.0804 16.9577 14.2455 16.5989C14.6508 15.7166 15.0568 14.8345 15.4634 13.9525C15.4765 13.9241 15.481 13.8885 15.5191 13.87C15.5533 13.9445 15.5808 14.0169 15.6183 14.0834C15.6557 14.15 15.6484 14.2028 15.6183 14.269C14.9751 15.6678 14.3327 17.0675 13.6912 18.4681C13.6752 18.5029 13.6576 18.5375 13.6452 18.5737C13.6294 18.6157 13.6229 18.6606 13.626 18.7053C13.6292 18.7501 13.6418 18.7936 13.6632 18.833C13.6846 18.8725 13.7142 18.9069 13.75 18.9339C13.7858 18.9609 13.827 18.9799 13.8708 18.9897C14.026 19.0297 14.1709 18.9577 14.2452 18.7977C14.4158 18.4297 14.585 18.0614 14.7527 17.693C15.1555 16.8171 15.5584 15.9412 15.9616 15.0655C15.9764 15.0335 15.9808 14.9922 16.0237 14.9733C16.049 15.0274 16.0727 15.078 16.096 15.1285C16.1444 15.2332 16.1895 15.3397 16.242 15.4421C16.2676 15.4964 16.3081 15.5423 16.3586 15.5747C16.4091 15.607 16.4677 15.6245 16.5277 15.6252C16.6592 15.63 16.7517 15.5612 16.8189 15.4521C16.8377 15.4185 16.8547 15.384 16.8698 15.3487L20.0167 8.5119C20.0911 8.34998 20.1658 8.18817 20.2407 8.02646C20.2554 7.99446 20.2653 7.95958 20.3114 7.96246C20.3876 7.96598 20.4644 7.95574 20.5421 7.96918C20.5453 8.02454 20.5133 8.06518 20.4938 8.10774C19.4984 10.2799 18.5023 12.4516 17.5056 14.6229C17.255 15.1691 17.0042 15.7151 16.7533 16.261C16.7326 16.2996 16.7207 16.3424 16.7186 16.3862C16.7165 16.43 16.7242 16.4737 16.7412 16.5141C16.9118 16.8937 17.0831 17.2724 17.2551 17.6505C17.3136 17.7785 17.4205 17.8345 17.5588 17.8354C17.6202 17.8374 17.6809 17.8213 17.7333 17.7891C17.7857 17.7569 17.8275 17.71 17.8535 17.6543ZM14.8839 10.7621C15.0172 10.4703 15.1514 10.1786 15.2864 9.88694C15.5613 9.29078 15.8375 8.69526 16.1088 8.0975C16.1408 8.02518 16.1805 7.99638 16.2576 8.00534C16.3197 8.00863 16.3818 8.00863 16.4439 8.00534L14.9994 11.1541C14.9469 11.0405 14.9056 10.9493 14.8631 10.8591C14.8455 10.8213 14.8714 10.7925 14.8852 10.7621H14.8839ZM15.1165 13.1455C14.9245 13.5647 14.7325 13.9835 14.5405 14.4018C14.199 15.1472 13.8572 15.8932 13.5152 16.6399C13.4967 16.6805 13.4775 16.7205 13.4528 16.7733C13.4459 16.766 13.4395 16.7582 13.4336 16.75C13.3892 16.6514 13.3184 16.5557 13.3082 16.4537C13.2986 16.3577 13.3776 16.2677 13.4196 16.1762C13.926 15.0671 14.4333 13.9588 14.9415 12.8514C14.9546 12.8107 14.9764 12.7733 15.0055 12.742C15.0535 12.8469 15.1015 12.9471 15.145 13.0479C15.1604 13.085 15.1335 13.1148 15.1178 13.1455H15.1165ZM16.0228 13.3836C15.9716 13.2729 15.9316 13.1839 15.889 13.0956C15.8666 13.0492 15.8932 13.014 15.9101 12.9772C16.0746 12.6181 16.2397 12.2595 16.4055 11.9013C16.9866 10.6384 17.5676 9.37537 18.1485 8.11222C18.1588 8.09014 18.1703 8.06838 18.1805 8.04566C18.1851 8.03272 18.1939 8.02172 18.2055 8.01445C18.2171 8.00718 18.2309 8.00408 18.2445 8.00566C18.321 8.00566 18.3972 8.00566 18.4893 8.00566L16.0228 13.3836Z" fill="#990D81"/>
<path d="M5.29872 21.7679L4.42256 24.1564L4.1464 24.8892C4.14288 24.8991 3.59216 24.9192 3.59216 24.9192C3.59009 24.9057 3.58688 24.8923 3.58256 24.8792C3.32741 24.2482 3.07184 23.6173 2.81584 22.9864C2.80848 22.9682 2.80528 22.9464 2.78128 22.941C2.7774 22.947 2.77387 22.9532 2.77072 22.9596L1.9768 24.9192H1.4328C1.44016 24.8783 1.41616 24.845 1.40336 24.8098C1.2585 24.4194 1.11354 24.03 0.968478 23.6415C0.770718 23.1081 0.572851 22.5755 0.374878 22.0434L0.372318 22.0364L0.287837 21.8114L0.273438 21.7724C0.505118 21.7724 0.737438 21.7724 0.969118 21.7666C1.03024 21.7666 1.04432 21.7986 1.06128 21.844C1.22 22.2615 1.37946 22.6789 1.53968 23.0962C1.59984 23.2517 1.65968 23.4072 1.72784 23.5842C1.74736 23.54 1.75984 23.5138 1.7704 23.4882C1.99077 22.947 2.21125 22.4064 2.43184 21.8664C2.47856 21.7525 2.45392 21.7704 2.58192 21.7682C2.74192 21.7682 2.90192 21.7682 3.06416 21.7682C3.15664 21.7682 3.15696 21.7682 3.19216 21.8552C3.40272 22.3948 3.61317 22.9345 3.82352 23.4744C3.83568 23.5064 3.85008 23.5384 3.87088 23.5871C3.88912 23.5442 3.90288 23.518 3.91184 23.4911L4.5576 21.8658C4.59632 21.7679 4.59664 21.7679 4.69712 21.7679H5.29872Z" fill="#990D81"/>
<path d="M12.6029 23.7672C12.6029 23.121 12.6029 22.4747 12.6029 21.8283C12.6029 21.7355 12.6029 21.7349 12.512 21.7345C12.32 21.7345 12.128 21.7393 11.936 21.732C11.8448 21.7285 11.794 21.756 11.7472 21.8376C11.4538 22.3496 11.1543 22.8581 10.856 23.3672C10.8378 23.3992 10.8263 23.4357 10.7869 23.4577C10.7661 23.4222 10.7479 23.3937 10.7312 23.3617C10.4432 22.8459 10.1572 22.3307 9.87332 21.8133C9.86245 21.7864 9.84308 21.7638 9.81817 21.749C9.79326 21.7343 9.76418 21.728 9.7354 21.7313C9.5258 21.7365 9.3162 21.7313 9.1066 21.7336C8.9722 21.7336 8.98468 21.7176 8.98468 21.8577C8.98468 22.8115 8.98468 23.7654 8.98468 24.7192C8.98468 24.7854 8.98628 24.852 8.98724 24.9182H9.65924V23.0478C9.69316 23.0549 9.69796 23.0769 9.70724 23.0939C10.0349 23.6782 10.3624 24.2626 10.6896 24.8472C10.6973 24.8626 10.7039 24.8785 10.7095 24.8949C10.7399 24.9131 10.7524 24.892 10.7655 24.8699L10.9738 24.5179C11.2511 24.0486 11.529 23.5802 11.8074 23.1128C11.8222 23.0758 11.8473 23.0438 11.8797 23.0206V23.1057C11.8797 23.6715 11.8797 24.2368 11.8797 24.8017C11.8797 24.8401 11.8816 24.8785 11.8826 24.9169H12.5962C12.6055 24.8796 12.608 24.8409 12.6036 24.8027C12.6033 24.4584 12.6031 24.1132 12.6029 23.7672Z" fill="#990D81"/>
<path d="M8.39395 24.2876C7.74756 24.2876 7.10105 24.2876 6.45443 24.2876C6.35587 24.2876 6.35523 24.2876 6.35491 24.1938C6.35491 24.0261 6.35491 23.8581 6.35491 23.6905C6.35491 23.5996 6.35491 23.5993 6.44611 23.5983H6.49827C6.90723 23.5983 7.31619 23.5983 7.72515 23.5983C7.80579 23.5983 7.80707 23.5983 7.80739 23.5193C7.80739 23.3692 7.80739 23.2188 7.80739 23.0684C7.80739 22.9701 7.80739 22.9788 7.71363 22.9781C7.46915 22.9765 7.22435 22.9781 6.97987 22.9781C6.79811 22.9781 6.61635 22.9781 6.43587 22.9781C6.35779 22.9781 6.35651 22.9762 6.35587 22.8959C6.35587 22.7561 6.35587 22.6162 6.35587 22.4764C6.35587 22.4041 6.35779 22.4025 6.43267 22.4025C6.67011 22.4025 6.90787 22.4025 7.14563 22.4025C7.56142 22.4025 7.97742 22.4025 8.39363 22.4025C8.47331 22.4025 8.47427 22.4025 8.47492 22.3215C8.47492 22.1746 8.47492 22.0277 8.47492 21.8812C8.47492 21.7631 8.48899 21.7692 8.36131 21.7692C7.49454 21.7692 6.62787 21.7692 5.76131 21.7692C5.60483 21.7692 5.62595 21.7519 5.62595 21.9004C5.62595 22.9067 5.62595 23.9132 5.62595 24.9199H8.52131C8.52131 24.7522 8.52515 24.5845 8.52515 24.4169C8.52323 24.269 8.53859 24.2892 8.39395 24.2876Z" fill="#990D81"/>
<path d="M30.2745 22.9714C30.7583 22.565 31.242 22.1583 31.7254 21.7513V21.7305C31.4374 21.7305 31.1522 21.7356 30.8658 21.7324C30.7896 21.7296 30.7152 21.7558 30.6575 21.8057C30.2187 22.1634 29.7783 22.5191 29.3362 22.8725C29.3113 22.8924 29.2924 22.9289 29.246 22.918V22.8332C29.246 22.494 29.246 22.1549 29.246 21.8159C29.246 21.7362 29.2444 21.7349 29.1644 21.7346C28.9756 21.7346 28.7869 21.7346 28.5983 21.7346C28.5177 21.7346 28.5177 21.7346 28.5158 21.8149C28.5158 21.8357 28.5158 21.8569 28.5158 21.8789V24.574C28.5158 24.6578 28.518 24.742 28.5158 24.8255C28.5138 24.8789 28.5311 24.8991 28.5868 24.8985C28.7826 24.8956 28.9782 24.8959 29.174 24.8985C29.2262 24.8985 29.2543 24.8857 29.2476 24.8284C29.2463 24.8071 29.2463 24.7857 29.2476 24.7644C29.2476 24.474 29.2476 24.1839 29.2476 23.894C29.2476 23.862 29.2393 23.8239 29.2742 23.798C29.3919 23.7107 29.5093 23.6227 29.6262 23.534C29.6305 23.5297 29.6358 23.5265 29.6416 23.5246C29.6474 23.5228 29.6535 23.5223 29.6596 23.5233C29.6656 23.5242 29.6713 23.5266 29.6762 23.5302C29.6811 23.5338 29.6852 23.5385 29.6879 23.5439C29.7007 23.5605 29.7142 23.5759 29.7276 23.5929C30.067 24.0061 30.4062 24.4194 30.7452 24.8329C30.7599 24.8538 30.7797 24.8707 30.8027 24.8818C30.8257 24.893 30.8512 24.8982 30.8767 24.8969C31.1215 24.8933 31.3663 24.8969 31.6108 24.8946C31.6326 24.8946 31.6598 24.9081 31.6748 24.8799C31.6612 24.8477 31.6409 24.8187 31.6153 24.7948C31.1634 24.2346 30.7113 23.6744 30.2588 23.1141C30.1964 23.037 30.181 23.0498 30.2745 22.9714Z" fill="#990D81"/>
<path d="M16.1957 24.5199C15.7765 23.6374 15.3582 22.7546 14.941 21.8716C14.9019 21.7884 14.8574 21.7596 14.7682 21.7654C14.6426 21.773 14.5167 21.773 14.3912 21.7654C14.3067 21.7606 14.2632 21.7878 14.2267 21.8674C13.8885 22.6066 13.5448 23.3433 13.2027 24.0812C13.0747 24.3596 12.9467 24.6393 12.8203 24.9183H13.5125C13.6286 24.6834 13.7458 24.4495 13.859 24.2143C13.8837 24.1634 13.9179 24.1548 13.9675 24.1551C14.268 24.1551 14.5688 24.1551 14.8696 24.1551C14.9675 24.1551 15.0654 24.1551 15.1634 24.1551C15.1805 24.1531 15.1978 24.1568 15.2127 24.1656C15.2275 24.1744 15.2391 24.1878 15.2456 24.2038C15.3582 24.4326 15.4731 24.6601 15.5867 24.8886C15.5895 24.899 15.5905 24.9098 15.5896 24.9206H16.3659C16.3813 24.8886 16.3582 24.8678 16.347 24.8438C16.2978 24.7356 16.2466 24.6271 16.1957 24.5199ZM14.1346 23.5919L14.5637 22.7516C14.7106 23.0438 14.8456 23.3135 14.9864 23.5938L14.1346 23.5919Z" fill="#990D81"/>
<path d="M20.5031 23.3059C20.4692 23.2831 20.4272 23.2707 20.4016 23.2371C20.4042 23.2313 20.4048 23.2278 20.4071 23.2259C20.4208 23.215 20.4346 23.2044 20.4487 23.1939C20.6266 23.0659 20.7315 22.895 20.7463 22.6755C20.7783 22.2214 20.5543 21.8847 20.1162 21.7772C19.9797 21.7464 19.8401 21.7322 19.7002 21.7347C19.0709 21.7347 18.4415 21.7347 17.8122 21.7347C17.72 21.7347 17.7188 21.7347 17.7188 21.8252C17.7188 22.8181 17.7188 23.811 17.7188 24.8041C17.7188 24.8953 17.7187 24.8953 17.8106 24.8963H17.8525C18.44 24.8963 19.0274 24.8963 19.6147 24.8963C19.7406 24.897 19.8663 24.8904 19.9914 24.8764C20.4948 24.8185 20.8711 24.4764 20.8448 23.9103C20.8426 23.7891 20.8101 23.6704 20.7505 23.5648C20.6908 23.4593 20.6058 23.3703 20.5031 23.3059ZM18.4487 22.4531C18.4487 22.3766 18.4506 22.374 18.5216 22.374C18.8954 22.374 19.2694 22.3745 19.6436 22.3756C19.7135 22.3747 19.7833 22.3845 19.8503 22.4047C19.9703 22.4431 20.0227 22.5228 20.0208 22.6607C20.0189 22.791 19.9632 22.8687 19.8474 22.9046C19.7628 22.9269 19.6753 22.9366 19.5879 22.9334C19.4304 22.935 19.2733 22.9334 19.1159 22.9334C18.9203 22.9334 18.7245 22.9334 18.5287 22.9334C18.4503 22.9334 18.4493 22.9315 18.4487 22.8508C18.4478 22.7185 18.4478 22.586 18.4487 22.4531ZM19.9351 24.1967C19.8112 24.254 19.6771 24.2563 19.5447 24.2607C19.4013 24.2646 19.2567 24.2607 19.1146 24.2607C18.9226 24.2607 18.7306 24.2607 18.5386 24.2607C18.4506 24.2607 18.4493 24.2607 18.449 24.1769C18.449 23.9983 18.449 23.8201 18.449 23.6419C18.449 23.5919 18.4653 23.5753 18.5152 23.5756C18.8992 23.5779 19.2832 23.5756 19.6672 23.5801C19.7514 23.5809 19.8348 23.5964 19.9136 23.6259C20.0391 23.6729 20.0992 23.7673 20.1056 23.8991C20.112 24.031 20.0618 24.1385 19.9351 24.1967Z" fill="#990D81"/>
<path d="M27.9896 21.7335C27.8252 21.7363 27.661 21.7335 27.4965 21.7335C27.3762 21.7335 27.3848 21.7235 27.3848 21.848C27.3848 22.4072 27.3848 22.9664 27.3848 23.5258C27.3848 23.5607 27.3967 23.5997 27.3624 23.641C27.3327 23.6071 27.3084 23.577 27.2815 23.5498C26.7108 22.9682 26.1405 22.3867 25.5704 21.8051C25.5493 21.7803 25.5227 21.7608 25.4927 21.7481C25.4627 21.7354 25.4302 21.7298 25.3976 21.7319C25.2613 21.737 25.125 21.7319 24.9887 21.7335C24.8607 21.7335 24.8674 21.7197 24.8674 21.8493V24.7751C24.8674 24.7962 24.8674 24.817 24.8674 24.8391C24.8652 24.8775 24.8799 24.8967 24.9212 24.8963C25.11 24.8963 25.2988 24.8963 25.4876 24.8963C25.5266 24.8963 25.5468 24.8832 25.5455 24.8426C25.5455 24.8144 25.5455 24.7866 25.5455 24.7584C25.5455 24.1959 25.5455 23.6331 25.5455 23.0701C25.5407 23.0323 25.5434 22.9939 25.5535 22.9571C25.5893 22.9607 25.6028 22.9891 25.6213 23.0067C25.7471 23.1328 25.8719 23.2602 25.9973 23.3869C26.4735 23.8695 26.9496 24.3523 27.4258 24.8355C27.4438 24.8563 27.4663 24.8726 27.4916 24.8833C27.5169 24.8939 27.5443 24.8986 27.5717 24.897C27.6997 24.8928 27.8306 24.897 27.9599 24.897C28.062 24.897 28.062 24.897 28.0629 24.7939V21.8672C28.0629 21.8461 28.0613 21.825 28.0629 21.8032C28.068 21.7495 28.0437 21.7325 27.9896 21.7335Z" fill="#990D81"/>
<path d="M23.9038 23.5362C23.6312 22.9621 23.359 22.388 23.0872 21.8139C23.06 21.756 23.0286 21.7301 22.9621 21.7327C22.819 21.7378 22.6741 21.7384 22.5326 21.7327C22.4626 21.7298 22.4283 21.7528 22.3989 21.8168C21.9402 22.8122 21.4802 23.807 21.0187 24.8011C21.0062 24.8283 20.9822 24.8536 20.9966 24.8971C21.2034 24.8971 21.4126 24.8971 21.621 24.8971C21.6725 24.8971 21.685 24.8623 21.7006 24.8287C21.8053 24.6194 21.9122 24.4127 22.0133 24.2002C22.0227 24.1747 22.0405 24.1531 22.0637 24.139C22.087 24.1248 22.1143 24.119 22.1413 24.1224C22.5221 24.1253 22.9029 24.1259 23.2837 24.1224C23.3566 24.1224 23.395 24.1429 23.4267 24.2107C23.5246 24.4191 23.6312 24.6235 23.7346 24.8293C23.7515 24.8635 23.763 24.8978 23.8142 24.8975C24.0517 24.8952 24.2891 24.8975 24.5346 24.8975C24.5322 24.8615 24.5212 24.8266 24.5026 24.7957C24.3027 24.3752 24.1031 23.9554 23.9038 23.5362ZM22.3157 23.5682C22.3237 23.4978 22.6357 22.8728 22.7317 22.7362L23.1499 23.5682H22.3157Z" fill="#990D81"/>
</svg>